ISO-10303-21;
HEADER;
/* Generated by software containing ST-Developer
 * from STEP Tools, Inc. (www.steptools.com) 
 */

FILE_DESCRIPTION(
/* description */ (''),
/* implementation_level */ '2;1');

FILE_NAME(
/* name */ 'Canopy 2.step',
/* time_stamp */ '2025-12-07T14:32:40+01:00',
/* author */ (''),
/* organization */ (''),
/* preprocessor_version */ 'ST-DEVELOPER v20.1',
/* originating_system */ 'Autodesk Translation Framework v14.21.0.0',
/* authorisation */ '');

FILE_SCHEMA (('AUTOMOTIVE_DESIGN { 1 0 10303 214 3 1 1 }'));
ENDSEC;

DATA;
#10=MECHANICAL_DESIGN_GEOMETRIC_PRESENTATION_REPRESENTATION('',(#13),#671);
#11=SHAPE_REPRESENTATION_RELATIONSHIP('SRR','None',#678,#12);
#12=ADVANCED_BREP_SHAPE_REPRESENTATION('',(#14),#670);
#13=STYLED_ITEM('',(#688),#14);
#14=MANIFOLD_SOLID_BREP('Canopy 2',#363);
#15=FACE_BOUND('',#60,.T.);
#16=FACE_BOUND('',#61,.T.);
#17=FACE_BOUND('',#63,.T.);
#18=FACE_BOUND('',#64,.T.);
#19=B_SPLINE_CURVE_WITH_KNOTS('',3,(#556,#557,#558,#559,#560,#561,#562,
#563,#564,#565,#566,#567,#568),.UNSPECIFIED.,.F.,.F.,(4,3,3,3,4),(0.,0.27295529954915,
0.357831047054672,0.675529868665409,1.07706718272992),.UNSPECIFIED.);
#20=B_SPLINE_CURVE_WITH_KNOTS('',3,(#570,#571,#572,#573,#574,#575,#576,
#577,#578,#579,#580,#581,#582),.UNSPECIFIED.,.F.,.F.,(4,3,3,3,4),(-1.07706718272992,
-0.675529868665409,-0.357831047054672,-0.27295529954915,0.),
 .UNSPECIFIED.);
#21=B_SPLINE_CURVE_WITH_KNOTS('',3,(#629,#630,#631,#632,#633,#634,#635,
#636,#637,#638,#639,#640,#641),.UNSPECIFIED.,.F.,.F.,(4,3,3,3,4),(0.,0.272955299549151,
0.357831047054671,0.675529868665407,1.07706718272991),.UNSPECIFIED.);
#22=B_SPLINE_CURVE_WITH_KNOTS('',3,(#643,#644,#645,#646,#647,#648,#649,
#650,#651,#652,#653,#654,#655),.UNSPECIFIED.,.F.,.F.,(4,3,3,3,4),(0.,0.272955299549151,
0.357831047054671,0.675529868665407,1.07706718272991),.UNSPECIFIED.);
#23=B_SPLINE_SURFACE_WITH_KNOTS('',3,1,((#529,#530),(#531,#532),(#533,#534),
(#535,#536),(#537,#538),(#539,#540),(#541,#542),(#543,#544),(#545,#546),
(#547,#548),(#549,#550),(#551,#552),(#553,#554)),.UNSPECIFIED.,.F.,.F.,
 .F.,(4,3,3,3,4),(2,2),(-1.07706718272992,-0.675529868665409,-0.357831047054672,
-0.27295529954915,0.),(0.,0.18),.UNSPECIFIED.);
#24=B_SPLINE_SURFACE_WITH_KNOTS('',3,1,((#602,#603),(#604,#605),(#606,#607),
(#608,#609),(#610,#611),(#612,#613),(#614,#615),(#616,#617),(#618,#619),
(#620,#621),(#622,#623),(#624,#625),(#626,#627)),.UNSPECIFIED.,.F.,.F.,
 .F.,(4,3,3,3,4),(2,2),(0.,0.272955299549151,0.357831047054671,0.675529868665407,
1.07706718272991),(0.,0.18),.UNSPECIFIED.);
#25=FACE_OUTER_BOUND('',#43,.T.);
#26=FACE_OUTER_BOUND('',#44,.T.);
#27=FACE_OUTER_BOUND('',#45,.T.);
#28=FACE_OUTER_BOUND('',#46,.T.);
#29=FACE_OUTER_BOUND('',#47,.T.);
#30=FACE_OUTER_BOUND('',#48,.T.);
#31=FACE_OUTER_BOUND('',#49,.T.);
#32=FACE_OUTER_BOUND('',#50,.T.);
#33=FACE_OUTER_BOUND('',#51,.T.);
#34=FACE_OUTER_BOUND('',#52,.T.);
#35=FACE_OUTER_BOUND('',#53,.T.);
#36=FACE_OUTER_BOUND('',#54,.T.);
#37=FACE_OUTER_BOUND('',#55,.T.);
#38=FACE_OUTER_BOUND('',#56,.T.);
#39=FACE_OUTER_BOUND('',#57,.T.);
#40=FACE_OUTER_BOUND('',#58,.T.);
#41=FACE_OUTER_BOUND('',#59,.T.);
#42=FACE_OUTER_BOUND('',#62,.T.);
#43=EDGE_LOOP('',(#233,#234,#235,#236));
#44=EDGE_LOOP('',(#237,#238,#239,#240));
#45=EDGE_LOOP('',(#241,#242,#243,#244));
#46=EDGE_LOOP('',(#245,#246,#247,#248));
#47=EDGE_LOOP('',(#249,#250,#251,#252));
#48=EDGE_LOOP('',(#253,#254,#255,#256));
#49=EDGE_LOOP('',(#257,#258,#259,#260));
#50=EDGE_LOOP('',(#261,#262,#263,#264));
#51=EDGE_LOOP('',(#265,#266,#267,#268));
#52=EDGE_LOOP('',(#269,#270,#271,#272));
#53=EDGE_LOOP('',(#273,#274,#275,#276));
#54=EDGE_LOOP('',(#277,#278,#279,#280));
#55=EDGE_LOOP('',(#281,#282,#283,#284));
#56=EDGE_LOOP('',(#285,#286,#287,#288));
#57=EDGE_LOOP('',(#289,#290,#291,#292));
#58=EDGE_LOOP('',(#293,#294,#295,#296));
#59=EDGE_LOOP('',(#297,#298,#299,#300,#301,#302,#303,#304));
#60=EDGE_LOOP('',(#305,#306,#307,#308));
#61=EDGE_LOOP('',(#309,#310,#311,#312));
#62=EDGE_LOOP('',(#313,#314,#315,#316,#317,#318,#319,#320));
#63=EDGE_LOOP('',(#321,#322,#323,#324));
#64=EDGE_LOOP('',(#325,#326,#327,#328));
#65=LINE('',#475,#109);
#66=LINE('',#477,#110);
#67=LINE('',#479,#111);
#68=LINE('',#480,#112);
#69=LINE('',#483,#113);
#70=LINE('',#485,#114);
#71=LINE('',#486,#115);
#72=LINE('',#489,#116);
#73=LINE('',#491,#117);
#74=LINE('',#492,#118);
#75=LINE('',#494,#119);
#76=LINE('',#495,#120);
#77=LINE('',#499,#121);
#78=LINE('',#501,#122);
#79=LINE('',#503,#123);
#80=LINE('',#504,#124);
#81=LINE('',#507,#125);
#82=LINE('',#509,#126);
#83=LINE('',#510,#127);
#84=LINE('',#513,#128);
#85=LINE('',#515,#129);
#86=LINE('',#516,#130);
#87=LINE('',#518,#131);
#88=LINE('',#519,#132);
#89=LINE('',#523,#133);
#90=LINE('',#525,#134);
#91=LINE('',#527,#135);
#92=LINE('',#528,#136);
#93=LINE('',#583,#137);
#94=LINE('',#586,#138);
#95=LINE('',#588,#139);
#96=LINE('',#589,#140);
#97=LINE('',#592,#141);
#98=LINE('',#594,#142);
#99=LINE('',#595,#143);
#100=LINE('',#598,#144);
#101=LINE('',#600,#145);
#102=LINE('',#601,#146);
#103=LINE('',#656,#147);
#104=LINE('',#659,#148);
#105=LINE('',#661,#149);
#106=LINE('',#662,#150);
#107=LINE('',#664,#151);
#108=LINE('',#665,#152);
#109=VECTOR('',#397,10.);
#110=VECTOR('',#398,10.);
#111=VECTOR('',#399,10.);
#112=VECTOR('',#400,10.);
#113=VECTOR('',#403,10.);
#114=VECTOR('',#404,10.);
#115=VECTOR('',#405,10.);
#116=VECTOR('',#408,10.);
#117=VECTOR('',#409,10.);
#118=VECTOR('',#410,10.);
#119=VECTOR('',#413,10.);
#120=VECTOR('',#414,10.);
#121=VECTOR('',#417,10.);
#122=VECTOR('',#418,10.);
#123=VECTOR('',#419,10.);
#124=VECTOR('',#420,10.);
#125=VECTOR('',#423,10.);
#126=VECTOR('',#424,10.);
#127=VECTOR('',#425,10.);
#128=VECTOR('',#428,10.);
#129=VECTOR('',#429,10.);
#130=VECTOR('',#430,10.);
#131=VECTOR('',#433,10.);
#132=VECTOR('',#434,10.);
#133=VECTOR('',#437,10.);
#134=VECTOR('',#438,10.);
#135=VECTOR('',#439,10.);
#136=VECTOR('',#440,10.);
#137=VECTOR('',#441,10.);
#138=VECTOR('',#444,10.);
#139=VECTOR('',#445,10.);
#140=VECTOR('',#446,10.);
#141=VECTOR('',#449,10.);
#142=VECTOR('',#450,10.);
#143=VECTOR('',#451,10.);
#144=VECTOR('',#454,10.);
#145=VECTOR('',#455,10.);
#146=VECTOR('',#456,10.);
#147=VECTOR('',#457,10.);
#148=VECTOR('',#460,10.);
#149=VECTOR('',#461,10.);
#150=VECTOR('',#462,10.);
#151=VECTOR('',#465,10.);
#152=VECTOR('',#466,10.);
#153=VERTEX_POINT('',#473);
#154=VERTEX_POINT('',#474);
#155=VERTEX_POINT('',#476);
#156=VERTEX_POINT('',#478);
#157=VERTEX_POINT('',#482);
#158=VERTEX_POINT('',#484);
#159=VERTEX_POINT('',#488);
#160=VERTEX_POINT('',#490);
#161=VERTEX_POINT('',#497);
#162=VERTEX_POINT('',#498);
#163=VERTEX_POINT('',#500);
#164=VERTEX_POINT('',#502);
#165=VERTEX_POINT('',#506);
#166=VERTEX_POINT('',#508);
#167=VERTEX_POINT('',#512);
#168=VERTEX_POINT('',#514);
#169=VERTEX_POINT('',#521);
#170=VERTEX_POINT('',#522);
#171=VERTEX_POINT('',#524);
#172=VERTEX_POINT('',#526);
#173=VERTEX_POINT('',#555);
#174=VERTEX_POINT('',#569);
#175=VERTEX_POINT('',#585);
#176=VERTEX_POINT('',#587);
#177=VERTEX_POINT('',#591);
#178=VERTEX_POINT('',#593);
#179=VERTEX_POINT('',#597);
#180=VERTEX_POINT('',#599);
#181=VERTEX_POINT('',#628);
#182=VERTEX_POINT('',#642);
#183=VERTEX_POINT('',#658);
#184=VERTEX_POINT('',#660);
#185=EDGE_CURVE('',#153,#154,#65,.T.);
#186=EDGE_CURVE('',#154,#155,#66,.T.);
#187=EDGE_CURVE('',#156,#155,#67,.T.);
#188=EDGE_CURVE('',#153,#156,#68,.T.);
#189=EDGE_CURVE('',#157,#153,#69,.T.);
#190=EDGE_CURVE('',#158,#156,#70,.T.);
#191=EDGE_CURVE('',#157,#158,#71,.T.);
#192=EDGE_CURVE('',#159,#157,#72,.T.);
#193=EDGE_CURVE('',#160,#158,#73,.T.);
#194=EDGE_CURVE('',#159,#160,#74,.T.);
#195=EDGE_CURVE('',#154,#159,#75,.T.);
#196=EDGE_CURVE('',#155,#160,#76,.T.);
#197=EDGE_CURVE('',#161,#162,#77,.T.);
#198=EDGE_CURVE('',#162,#163,#78,.T.);
#199=EDGE_CURVE('',#164,#163,#79,.T.);
#200=EDGE_CURVE('',#161,#164,#80,.T.);
#201=EDGE_CURVE('',#165,#161,#81,.T.);
#202=EDGE_CURVE('',#166,#164,#82,.T.);
#203=EDGE_CURVE('',#165,#166,#83,.T.);
#204=EDGE_CURVE('',#167,#165,#84,.T.);
#205=EDGE_CURVE('',#168,#166,#85,.T.);
#206=EDGE_CURVE('',#167,#168,#86,.T.);
#207=EDGE_CURVE('',#162,#167,#87,.T.);
#208=EDGE_CURVE('',#163,#168,#88,.T.);
#209=EDGE_CURVE('',#169,#170,#89,.T.);
#210=EDGE_CURVE('',#169,#171,#90,.T.);
#211=EDGE_CURVE('',#172,#171,#91,.T.);
#212=EDGE_CURVE('',#170,#172,#92,.T.);
#213=EDGE_CURVE('',#170,#173,#19,.T.);
#214=EDGE_CURVE('',#174,#172,#20,.T.);
#215=EDGE_CURVE('',#173,#174,#93,.T.);
#216=EDGE_CURVE('',#175,#173,#94,.T.);
#217=EDGE_CURVE('',#176,#174,#95,.T.);
#218=EDGE_CURVE('',#175,#176,#96,.T.);
#219=EDGE_CURVE('',#175,#177,#97,.T.);
#220=EDGE_CURVE('',#178,#176,#98,.T.);
#221=EDGE_CURVE('',#177,#178,#99,.T.);
#222=EDGE_CURVE('',#177,#179,#100,.T.);
#223=EDGE_CURVE('',#180,#178,#101,.T.);
#224=EDGE_CURVE('',#179,#180,#102,.T.);
#225=EDGE_CURVE('',#181,#179,#21,.T.);
#226=EDGE_CURVE('',#182,#180,#22,.T.);
#227=EDGE_CURVE('',#181,#182,#103,.T.);
#228=EDGE_CURVE('',#183,#181,#104,.T.);
#229=EDGE_CURVE('',#184,#182,#105,.T.);
#230=EDGE_CURVE('',#183,#184,#106,.T.);
#231=EDGE_CURVE('',#169,#183,#107,.T.);
#232=EDGE_CURVE('',#171,#184,#108,.T.);
#233=ORIENTED_EDGE('',*,*,#185,.T.);
#234=ORIENTED_EDGE('',*,*,#186,.T.);
#235=ORIENTED_EDGE('',*,*,#187,.F.);
#236=ORIENTED_EDGE('',*,*,#188,.F.);
#237=ORIENTED_EDGE('',*,*,#189,.T.);
#238=ORIENTED_EDGE('',*,*,#188,.T.);
#239=ORIENTED_EDGE('',*,*,#190,.F.);
#240=ORIENTED_EDGE('',*,*,#191,.F.);
#241=ORIENTED_EDGE('',*,*,#192,.T.);
#242=ORIENTED_EDGE('',*,*,#191,.T.);
#243=ORIENTED_EDGE('',*,*,#193,.F.);
#244=ORIENTED_EDGE('',*,*,#194,.F.);
#245=ORIENTED_EDGE('',*,*,#195,.T.);
#246=ORIENTED_EDGE('',*,*,#194,.T.);
#247=ORIENTED_EDGE('',*,*,#196,.F.);
#248=ORIENTED_EDGE('',*,*,#186,.F.);
#249=ORIENTED_EDGE('',*,*,#197,.T.);
#250=ORIENTED_EDGE('',*,*,#198,.T.);
#251=ORIENTED_EDGE('',*,*,#199,.F.);
#252=ORIENTED_EDGE('',*,*,#200,.F.);
#253=ORIENTED_EDGE('',*,*,#201,.T.);
#254=ORIENTED_EDGE('',*,*,#200,.T.);
#255=ORIENTED_EDGE('',*,*,#202,.F.);
#256=ORIENTED_EDGE('',*,*,#203,.F.);
#257=ORIENTED_EDGE('',*,*,#204,.T.);
#258=ORIENTED_EDGE('',*,*,#203,.T.);
#259=ORIENTED_EDGE('',*,*,#205,.F.);
#260=ORIENTED_EDGE('',*,*,#206,.F.);
#261=ORIENTED_EDGE('',*,*,#207,.T.);
#262=ORIENTED_EDGE('',*,*,#206,.T.);
#263=ORIENTED_EDGE('',*,*,#208,.F.);
#264=ORIENTED_EDGE('',*,*,#198,.F.);
#265=ORIENTED_EDGE('',*,*,#209,.F.);
#266=ORIENTED_EDGE('',*,*,#210,.T.);
#267=ORIENTED_EDGE('',*,*,#211,.F.);
#268=ORIENTED_EDGE('',*,*,#212,.F.);
#269=ORIENTED_EDGE('',*,*,#213,.F.);
#270=ORIENTED_EDGE('',*,*,#212,.T.);
#271=ORIENTED_EDGE('',*,*,#214,.F.);
#272=ORIENTED_EDGE('',*,*,#215,.F.);
#273=ORIENTED_EDGE('',*,*,#216,.T.);
#274=ORIENTED_EDGE('',*,*,#215,.T.);
#275=ORIENTED_EDGE('',*,*,#217,.F.);
#276=ORIENTED_EDGE('',*,*,#218,.F.);
#277=ORIENTED_EDGE('',*,*,#219,.F.);
#278=ORIENTED_EDGE('',*,*,#218,.T.);
#279=ORIENTED_EDGE('',*,*,#220,.F.);
#280=ORIENTED_EDGE('',*,*,#221,.F.);
#281=ORIENTED_EDGE('',*,*,#222,.F.);
#282=ORIENTED_EDGE('',*,*,#221,.T.);
#283=ORIENTED_EDGE('',*,*,#223,.F.);
#284=ORIENTED_EDGE('',*,*,#224,.F.);
#285=ORIENTED_EDGE('',*,*,#225,.T.);
#286=ORIENTED_EDGE('',*,*,#224,.T.);
#287=ORIENTED_EDGE('',*,*,#226,.F.);
#288=ORIENTED_EDGE('',*,*,#227,.F.);
#289=ORIENTED_EDGE('',*,*,#228,.T.);
#290=ORIENTED_EDGE('',*,*,#227,.T.);
#291=ORIENTED_EDGE('',*,*,#229,.F.);
#292=ORIENTED_EDGE('',*,*,#230,.F.);
#293=ORIENTED_EDGE('',*,*,#231,.T.);
#294=ORIENTED_EDGE('',*,*,#230,.T.);
#295=ORIENTED_EDGE('',*,*,#232,.F.);
#296=ORIENTED_EDGE('',*,*,#210,.F.);
#297=ORIENTED_EDGE('',*,*,#232,.T.);
#298=ORIENTED_EDGE('',*,*,#229,.T.);
#299=ORIENTED_EDGE('',*,*,#226,.T.);
#300=ORIENTED_EDGE('',*,*,#223,.T.);
#301=ORIENTED_EDGE('',*,*,#220,.T.);
#302=ORIENTED_EDGE('',*,*,#217,.T.);
#303=ORIENTED_EDGE('',*,*,#214,.T.);
#304=ORIENTED_EDGE('',*,*,#211,.T.);
#305=ORIENTED_EDGE('',*,*,#208,.T.);
#306=ORIENTED_EDGE('',*,*,#205,.T.);
#307=ORIENTED_EDGE('',*,*,#202,.T.);
#308=ORIENTED_EDGE('',*,*,#199,.T.);
#309=ORIENTED_EDGE('',*,*,#196,.T.);
#310=ORIENTED_EDGE('',*,*,#193,.T.);
#311=ORIENTED_EDGE('',*,*,#190,.T.);
#312=ORIENTED_EDGE('',*,*,#187,.T.);
#313=ORIENTED_EDGE('',*,*,#231,.F.);
#314=ORIENTED_EDGE('',*,*,#209,.T.);
#315=ORIENTED_EDGE('',*,*,#213,.T.);
#316=ORIENTED_EDGE('',*,*,#216,.F.);
#317=ORIENTED_EDGE('',*,*,#219,.T.);
#318=ORIENTED_EDGE('',*,*,#222,.T.);
#319=ORIENTED_EDGE('',*,*,#225,.F.);
#320=ORIENTED_EDGE('',*,*,#228,.F.);
#321=ORIENTED_EDGE('',*,*,#207,.F.);
#322=ORIENTED_EDGE('',*,*,#197,.F.);
#323=ORIENTED_EDGE('',*,*,#201,.F.);
#324=ORIENTED_EDGE('',*,*,#204,.F.);
#325=ORIENTED_EDGE('',*,*,#195,.F.);
#326=ORIENTED_EDGE('',*,*,#185,.F.);
#327=ORIENTED_EDGE('',*,*,#189,.F.);
#328=ORIENTED_EDGE('',*,*,#192,.F.);
#329=PLANE('',#377);
#330=PLANE('',#378);
#331=PLANE('',#379);
#332=PLANE('',#380);
#333=PLANE('',#381);
#334=PLANE('',#382);
#335=PLANE('',#383);
#336=PLANE('',#384);
#337=PLANE('',#385);
#338=PLANE('',#386);
#339=PLANE('',#387);
#340=PLANE('',#388);
#341=PLANE('',#389);
#342=PLANE('',#390);
#343=PLANE('',#391);
#344=PLANE('',#392);
#345=ADVANCED_FACE('',(#25),#329,.T.);
#346=ADVANCED_FACE('',(#26),#330,.T.);
#347=ADVANCED_FACE('',(#27),#331,.T.);
#348=ADVANCED_FACE('',(#28),#332,.T.);
#349=ADVANCED_FACE('',(#29),#333,.T.);
#350=ADVANCED_FACE('',(#30),#334,.T.);
#351=ADVANCED_FACE('',(#31),#335,.T.);
#352=ADVANCED_FACE('',(#32),#336,.T.);
#353=ADVANCED_FACE('',(#33),#337,.T.);
#354=ADVANCED_FACE('',(#34),#23,.T.);
#355=ADVANCED_FACE('',(#35),#338,.T.);
#356=ADVANCED_FACE('',(#36),#339,.T.);
#357=ADVANCED_FACE('',(#37),#340,.T.);
#358=ADVANCED_FACE('',(#38),#24,.T.);
#359=ADVANCED_FACE('',(#39),#341,.T.);
#360=ADVANCED_FACE('',(#40),#342,.T.);
#361=ADVANCED_FACE('',(#41,#15,#16),#343,.T.);
#362=ADVANCED_FACE('',(#42,#17,#18),#344,.F.);
#363=CLOSED_SHELL('',(#345,#346,#347,#348,#349,#350,#351,#352,#353,#354,
#355,#356,#357,#358,#359,#360,#361,#362));
#364=DERIVED_UNIT_ELEMENT(#366,1.);
#365=DERIVED_UNIT_ELEMENT(#673,-3.);
#366=(
MASS_UNIT()
NAMED_UNIT(*)
SI_UNIT(.KILO.,.GRAM.)
);
#367=DERIVED_UNIT((#364,#365));
#368=MEASURE_REPRESENTATION_ITEM('density measure',
POSITIVE_RATIO_MEASURE(7850.),#367);
#369=PROPERTY_DEFINITION_REPRESENTATION(#374,#371);
#370=PROPERTY_DEFINITION_REPRESENTATION(#375,#372);
#371=REPRESENTATION('material name',(#373),#670);
#372=REPRESENTATION('density',(#368),#670);
#373=DESCRIPTIVE_REPRESENTATION_ITEM('Steel','Steel');
#374=PROPERTY_DEFINITION('material property','material name',#680);
#375=PROPERTY_DEFINITION('material property','density of part',#680);
#376=AXIS2_PLACEMENT_3D('',#471,#393,#394);
#377=AXIS2_PLACEMENT_3D('',#472,#395,#396);
#378=AXIS2_PLACEMENT_3D('',#481,#401,#402);
#379=AXIS2_PLACEMENT_3D('',#487,#406,#407);
#380=AXIS2_PLACEMENT_3D('',#493,#411,#412);
#381=AXIS2_PLACEMENT_3D('',#496,#415,#416);
#382=AXIS2_PLACEMENT_3D('',#505,#421,#422);
#383=AXIS2_PLACEMENT_3D('',#511,#426,#427);
#384=AXIS2_PLACEMENT_3D('',#517,#431,#432);
#385=AXIS2_PLACEMENT_3D('',#520,#435,#436);
#386=AXIS2_PLACEMENT_3D('',#584,#442,#443);
#387=AXIS2_PLACEMENT_3D('',#590,#447,#448);
#388=AXIS2_PLACEMENT_3D('',#596,#452,#453);
#389=AXIS2_PLACEMENT_3D('',#657,#458,#459);
#390=AXIS2_PLACEMENT_3D('',#663,#463,#464);
#391=AXIS2_PLACEMENT_3D('',#666,#467,#468);
#392=AXIS2_PLACEMENT_3D('',#667,#469,#470);
#393=DIRECTION('axis',(0.,0.,1.));
#394=DIRECTION('refdir',(1.,0.,0.));
#395=DIRECTION('center_axis',(-1.,0.,0.));
#396=DIRECTION('ref_axis',(0.,-1.,0.));
#397=DIRECTION('',(0.,-1.,0.));
#398=DIRECTION('',(0.,0.,1.));
#399=DIRECTION('',(0.,-1.,0.));
#400=DIRECTION('',(0.,0.,1.));
#401=DIRECTION('center_axis',(0.,-1.,0.));
#402=DIRECTION('ref_axis',(1.,0.,0.));
#403=DIRECTION('',(1.,0.,0.));
#404=DIRECTION('',(1.,0.,0.));
#405=DIRECTION('',(0.,0.,1.));
#406=DIRECTION('center_axis',(1.,0.,0.));
#407=DIRECTION('ref_axis',(0.,1.,0.));
#408=DIRECTION('',(0.,1.,0.));
#409=DIRECTION('',(0.,1.,0.));
#410=DIRECTION('',(0.,0.,1.));
#411=DIRECTION('center_axis',(0.,1.,0.));
#412=DIRECTION('ref_axis',(-1.,0.,0.));
#413=DIRECTION('',(-1.,0.,0.));
#414=DIRECTION('',(-1.,0.,0.));
#415=DIRECTION('center_axis',(-1.,0.,0.));
#416=DIRECTION('ref_axis',(0.,-1.,0.));
#417=DIRECTION('',(0.,-1.,0.));
#418=DIRECTION('',(0.,0.,1.));
#419=DIRECTION('',(0.,-1.,0.));
#420=DIRECTION('',(0.,0.,1.));
#421=DIRECTION('center_axis',(0.,-1.,0.));
#422=DIRECTION('ref_axis',(1.,0.,0.));
#423=DIRECTION('',(1.,0.,0.));
#424=DIRECTION('',(1.,0.,0.));
#425=DIRECTION('',(0.,0.,1.));
#426=DIRECTION('center_axis',(1.,0.,0.));
#427=DIRECTION('ref_axis',(0.,1.,0.));
#428=DIRECTION('',(0.,1.,0.));
#429=DIRECTION('',(0.,1.,0.));
#430=DIRECTION('',(0.,0.,1.));
#431=DIRECTION('center_axis',(0.,1.,0.));
#432=DIRECTION('ref_axis',(-1.,0.,0.));
#433=DIRECTION('',(-1.,0.,0.));
#434=DIRECTION('',(-1.,0.,0.));
#435=DIRECTION('center_axis',(-0.707106781209121,-0.707106781163974,0.));
#436=DIRECTION('ref_axis',(0.707106781163974,-0.707106781209121,0.));
#437=DIRECTION('',(-0.707106781163974,0.707106781209121,0.));
#438=DIRECTION('',(0.,0.,1.));
#439=DIRECTION('',(0.707106781163974,-0.707106781209121,0.));
#440=DIRECTION('',(0.,0.,1.));
#441=DIRECTION('',(0.,0.,1.));
#442=DIRECTION('center_axis',(-0.70710679882686,0.707106763546234,0.));
#443=DIRECTION('ref_axis',(-0.707106763546234,-0.70710679882686,0.));
#444=DIRECTION('',(-0.707106763546234,-0.70710679882686,0.));
#445=DIRECTION('',(-0.707106763546234,-0.70710679882686,0.));
#446=DIRECTION('',(0.,0.,1.));
#447=DIRECTION('center_axis',(0.,1.,0.));
#448=DIRECTION('ref_axis',(-1.,0.,0.));
#449=DIRECTION('',(1.,0.,0.));
#450=DIRECTION('',(-1.,0.,0.));
#451=DIRECTION('',(0.,0.,1.));
#452=DIRECTION('center_axis',(0.70710679882686,0.707106763546234,0.));
#453=DIRECTION('ref_axis',(-0.707106763546234,0.70710679882686,0.));
#454=DIRECTION('',(0.707106763546234,-0.70710679882686,0.));
#455=DIRECTION('',(-0.707106763546234,0.70710679882686,0.));
#456=DIRECTION('',(0.,0.,1.));
#457=DIRECTION('',(0.,0.,1.));
#458=DIRECTION('center_axis',(0.707106781209121,-0.707106781163974,0.));
#459=DIRECTION('ref_axis',(0.707106781163974,0.707106781209121,0.));
#460=DIRECTION('',(0.707106781163974,0.707106781209121,0.));
#461=DIRECTION('',(0.707106781163974,0.707106781209121,0.));
#462=DIRECTION('',(0.,0.,1.));
#463=DIRECTION('center_axis',(0.,-1.,0.));
#464=DIRECTION('ref_axis',(1.,0.,0.));
#465=DIRECTION('',(1.,0.,0.));
#466=DIRECTION('',(1.,0.,0.));
#467=DIRECTION('center_axis',(0.,0.,1.));
#468=DIRECTION('ref_axis',(1.,0.,0.));
#469=DIRECTION('center_axis',(0.,0.,1.));
#470=DIRECTION('ref_axis',(1.,0.,0.));
#471=CARTESIAN_POINT('',(0.,0.,0.));
#472=CARTESIAN_POINT('Origin',(3.5,31.4,40.));
#473=CARTESIAN_POINT('',(3.5,31.4,40.));
#474=CARTESIAN_POINT('',(3.5,19.4,40.));
#475=CARTESIAN_POINT('',(3.5,19.4,40.));
#476=CARTESIAN_POINT('',(3.5,19.4,41.8));
#477=CARTESIAN_POINT('',(3.5,19.4,40.));
#478=CARTESIAN_POINT('',(3.5,31.4,41.8));
#479=CARTESIAN_POINT('',(3.5,19.4,41.8));
#480=CARTESIAN_POINT('',(3.5,31.4,40.));
#481=CARTESIAN_POINT('Origin',(-3.5,31.4,40.));
#482=CARTESIAN_POINT('',(-3.5,31.4,40.));
#483=CARTESIAN_POINT('',(3.5,31.4,40.));
#484=CARTESIAN_POINT('',(-3.5,31.4,41.8));
#485=CARTESIAN_POINT('',(3.5,31.4,41.8));
#486=CARTESIAN_POINT('',(-3.5,31.4,40.));
#487=CARTESIAN_POINT('Origin',(-3.5,19.4,40.));
#488=CARTESIAN_POINT('',(-3.5,19.4,40.));
#489=CARTESIAN_POINT('',(-3.5,19.4,40.));
#490=CARTESIAN_POINT('',(-3.5,19.4,41.8));
#491=CARTESIAN_POINT('',(-3.5,19.4,41.8));
#492=CARTESIAN_POINT('',(-3.5,19.4,40.));
#493=CARTESIAN_POINT('Origin',(3.5,19.4,40.));
#494=CARTESIAN_POINT('',(-26.005887614218,19.4,40.));
#495=CARTESIAN_POINT('',(-26.005887614218,19.4,41.8));
#496=CARTESIAN_POINT('Origin',(3.5,132.600002011657,40.));
#497=CARTESIAN_POINT('',(3.5,132.600002011657,40.));
#498=CARTESIAN_POINT('',(3.5,120.600002011657,40.));
#499=CARTESIAN_POINT('',(3.5,120.600002011657,40.));
#500=CARTESIAN_POINT('',(3.5,120.600002011657,41.8));
#501=CARTESIAN_POINT('',(3.5,120.600002011657,40.));
#502=CARTESIAN_POINT('',(3.5,132.600002011657,41.8));
#503=CARTESIAN_POINT('',(3.5,120.600002011657,41.8));
#504=CARTESIAN_POINT('',(3.5,132.600002011657,40.));
#505=CARTESIAN_POINT('Origin',(-3.5,132.600002011657,40.));
#506=CARTESIAN_POINT('',(-3.5,132.600002011657,40.));
#507=CARTESIAN_POINT('',(0.,132.600002011657,40.));
#508=CARTESIAN_POINT('',(-3.5,132.600002011657,41.8));
#509=CARTESIAN_POINT('',(0.,132.600002011657,41.8));
#510=CARTESIAN_POINT('',(-3.5,132.600002011657,40.));
#511=CARTESIAN_POINT('Origin',(-3.5,120.600002011657,40.));
#512=CARTESIAN_POINT('',(-3.5,120.600002011657,40.));
#513=CARTESIAN_POINT('',(-3.5,120.600002011657,40.));
#514=CARTESIAN_POINT('',(-3.5,120.600002011657,41.8));
#515=CARTESIAN_POINT('',(-3.5,120.600002011657,41.8));
#516=CARTESIAN_POINT('',(-3.5,120.600002011657,40.));
#517=CARTESIAN_POINT('Origin',(3.5,120.600002011657,40.));
#518=CARTESIAN_POINT('',(0.,120.600002011657,40.));
#519=CARTESIAN_POINT('',(0.,120.600002011657,41.8));
#520=CARTESIAN_POINT('Origin',(-37.258441866988,27.8241271286899,40.));
#521=CARTESIAN_POINT('',(-26.8343147389636,17.4,40.));
#522=CARTESIAN_POINT('',(-37.258441866988,27.8241271286899,40.));
#523=CARTESIAN_POINT('',(-26.8343147389636,17.4,40.));
#524=CARTESIAN_POINT('',(-26.8343147389636,17.4,41.8));
#525=CARTESIAN_POINT('',(-26.8343147389636,17.4,40.));
#526=CARTESIAN_POINT('',(-37.258441866988,27.8241271286899,41.8));
#527=CARTESIAN_POINT('',(-26.8343147389636,17.4,41.8));
#528=CARTESIAN_POINT('',(-37.258441866988,27.8241271286899,40.));
#529=CARTESIAN_POINT('Ctrl Pts',(-28.6458763179145,110.788439155237,40.));
#530=CARTESIAN_POINT('Ctrl Pts',(-28.6458763179145,110.788439155237,41.8));
#531=CARTESIAN_POINT('Ctrl Pts',(-33.0791776577791,89.5103906597499,40.));
#532=CARTESIAN_POINT('Ctrl Pts',(-33.0791776577791,89.5103906597499,41.8));
#533=CARTESIAN_POINT('Ctrl Pts',(-35.8687649169611,65.4541722528727,40.));
#534=CARTESIAN_POINT('Ctrl Pts',(-35.8687649169611,65.4541722528727,41.8));
#535=CARTESIAN_POINT('Ctrl Pts',(-37.0091387419769,34.5748240036629,40.));
#536=CARTESIAN_POINT('Ctrl Pts',(-37.0091387419769,34.5748240036629,41.8));
#537=CARTESIAN_POINT('Ctrl Pts',(-37.0482208081266,33.5165493357753,40.));
#538=CARTESIAN_POINT('Ctrl Pts',(-37.0482208081266,33.5165493357753,41.8));
#539=CARTESIAN_POINT('Ctrl Pts',(-37.0873028742764,32.4582746678877,40.));
#540=CARTESIAN_POINT('Ctrl Pts',(-37.0873028742764,32.4582746678877,41.8));
#541=CARTESIAN_POINT('Ctrl Pts',(-37.1263849404261,31.4,40.));
#542=CARTESIAN_POINT('Ctrl Pts',(-37.1263849404261,31.4,41.8));
#543=CARTESIAN_POINT('Ctrl Pts',(-37.1368260228377,31.1172735704598,40.));
#544=CARTESIAN_POINT('Ctrl Pts',(-37.1368260228377,31.1172735704598,41.8));
#545=CARTESIAN_POINT('Ctrl Pts',(-37.1472671052494,30.8345471409197,40.));
#546=CARTESIAN_POINT('Ctrl Pts',(-37.1472671052494,30.8345471409197,41.8));
#547=CARTESIAN_POINT('Ctrl Pts',(-37.157708187661,30.5518207113795,40.));
#548=CARTESIAN_POINT('Ctrl Pts',(-37.157708187661,30.5518207113795,41.8));
#549=CARTESIAN_POINT('Ctrl Pts',(-37.19128608077,29.6425895171497,40.));
#550=CARTESIAN_POINT('Ctrl Pts',(-37.19128608077,29.6425895171497,41.8));
#551=CARTESIAN_POINT('Ctrl Pts',(-37.224863973879,28.7333583229198,40.));
#552=CARTESIAN_POINT('Ctrl Pts',(-37.224863973879,28.7333583229198,41.8));
#553=CARTESIAN_POINT('Ctrl Pts',(-37.258441866988,27.8241271286899,40.));
#554=CARTESIAN_POINT('Ctrl Pts',(-37.258441866988,27.8241271286899,41.8));
#555=CARTESIAN_POINT('',(-28.6458763179145,110.788439155237,40.));
#556=CARTESIAN_POINT('Ctrl Pts',(-37.258441866988,27.8241271286899,40.));
#557=CARTESIAN_POINT('Ctrl Pts',(-37.224863973879,28.7333583229198,40.));
#558=CARTESIAN_POINT('Ctrl Pts',(-37.19128608077,29.6425895171497,40.));
#559=CARTESIAN_POINT('Ctrl Pts',(-37.157708187661,30.5518207113795,40.));
#560=CARTESIAN_POINT('Ctrl Pts',(-37.1472671052494,30.8345471409197,40.));
#561=CARTESIAN_POINT('Ctrl Pts',(-37.1368260228377,31.1172735704598,40.));
#562=CARTESIAN_POINT('Ctrl Pts',(-37.1263849404261,31.4,40.));
#563=CARTESIAN_POINT('Ctrl Pts',(-37.0873028742764,32.4582746678877,40.));
#564=CARTESIAN_POINT('Ctrl Pts',(-37.0482208081266,33.5165493357753,40.));
#565=CARTESIAN_POINT('Ctrl Pts',(-37.0091387419769,34.5748240036629,40.));
#566=CARTESIAN_POINT('Ctrl Pts',(-35.8687649169611,65.4541722528727,40.));
#567=CARTESIAN_POINT('Ctrl Pts',(-33.0791776577791,89.5103906597499,40.));
#568=CARTESIAN_POINT('Ctrl Pts',(-28.6458763179145,110.788439155237,40.));
#569=CARTESIAN_POINT('',(-28.6458763179145,110.788439155237,41.8));
#570=CARTESIAN_POINT('Ctrl Pts',(-28.6458763179145,110.788439155237,41.8));
#571=CARTESIAN_POINT('Ctrl Pts',(-33.0791776577791,89.5103906597499,41.8));
#572=CARTESIAN_POINT('Ctrl Pts',(-35.8687649169611,65.4541722528727,41.8));
#573=CARTESIAN_POINT('Ctrl Pts',(-37.0091387419769,34.5748240036629,41.8));
#574=CARTESIAN_POINT('Ctrl Pts',(-37.0482208081266,33.5165493357753,41.8));
#575=CARTESIAN_POINT('Ctrl Pts',(-37.0873028742764,32.4582746678877,41.8));
#576=CARTESIAN_POINT('Ctrl Pts',(-37.1263849404261,31.4,41.8));
#577=CARTESIAN_POINT('Ctrl Pts',(-37.1368260228377,31.1172735704598,41.8));
#578=CARTESIAN_POINT('Ctrl Pts',(-37.1472671052494,30.8345471409197,41.8));
#579=CARTESIAN_POINT('Ctrl Pts',(-37.157708187661,30.5518207113795,41.8));
#580=CARTESIAN_POINT('Ctrl Pts',(-37.19128608077,29.6425895171497,41.8));
#581=CARTESIAN_POINT('Ctrl Pts',(-37.224863973879,28.7333583229198,41.8));
#582=CARTESIAN_POINT('Ctrl Pts',(-37.258441866988,27.8241271286899,41.8));
#583=CARTESIAN_POINT('',(-28.6458763179145,110.788439155237,40.));
#584=CARTESIAN_POINT('Origin',(-4.83431464955657,134.600002011657,40.));
#585=CARTESIAN_POINT('',(-4.83431464955657,134.600002011657,40.));
#586=CARTESIAN_POINT('',(-4.83431464955657,134.600002011657,40.));
#587=CARTESIAN_POINT('',(-4.83431464955657,134.600002011657,41.8));
#588=CARTESIAN_POINT('',(-4.83431464955657,134.600002011657,41.8));
#589=CARTESIAN_POINT('',(-4.83431464955657,134.600002011657,40.));
#590=CARTESIAN_POINT('Origin',(4.83431464955657,134.600002011657,40.));
#591=CARTESIAN_POINT('',(4.83431464955657,134.600002011657,40.));
#592=CARTESIAN_POINT('',(0.,134.600002011657,40.));
#593=CARTESIAN_POINT('',(4.83431464955657,134.600002011657,41.8));
#594=CARTESIAN_POINT('',(0.,134.600002011657,41.8));
#595=CARTESIAN_POINT('',(4.83431464955657,134.600002011657,40.));
#596=CARTESIAN_POINT('Origin',(28.6458763179145,110.788439155237,40.));
#597=CARTESIAN_POINT('',(28.6458763179145,110.788439155237,40.));
#598=CARTESIAN_POINT('',(4.83431464955657,134.600002011657,40.));
#599=CARTESIAN_POINT('',(28.6458763179145,110.788439155237,41.8));
#600=CARTESIAN_POINT('',(4.83431464955657,134.600002011657,41.8));
#601=CARTESIAN_POINT('',(28.6458763179145,110.788439155237,40.));
#602=CARTESIAN_POINT('Ctrl Pts',(37.258441866988,27.8241271286899,40.));
#603=CARTESIAN_POINT('Ctrl Pts',(37.258441866988,27.8241271286899,41.8));
#604=CARTESIAN_POINT('Ctrl Pts',(37.224863973879,28.7333583229198,40.));
#605=CARTESIAN_POINT('Ctrl Pts',(37.224863973879,28.7333583229198,41.8));
#606=CARTESIAN_POINT('Ctrl Pts',(37.19128608077,29.6425895171497,40.));
#607=CARTESIAN_POINT('Ctrl Pts',(37.19128608077,29.6425895171497,41.8));
#608=CARTESIAN_POINT('Ctrl Pts',(37.157708187661,30.5518207113795,40.));
#609=CARTESIAN_POINT('Ctrl Pts',(37.157708187661,30.5518207113795,41.8));
#610=CARTESIAN_POINT('Ctrl Pts',(37.1472671052494,30.8345471409197,40.));
#611=CARTESIAN_POINT('Ctrl Pts',(37.1472671052494,30.8345471409197,41.8));
#612=CARTESIAN_POINT('Ctrl Pts',(37.1368260228377,31.1172735704598,40.));
#613=CARTESIAN_POINT('Ctrl Pts',(37.1368260228377,31.1172735704598,41.8));
#614=CARTESIAN_POINT('Ctrl Pts',(37.1263849404261,31.4,40.));
#615=CARTESIAN_POINT('Ctrl Pts',(37.1263849404261,31.4,41.8));
#616=CARTESIAN_POINT('Ctrl Pts',(37.0873028742764,32.4582746678876,40.));
#617=CARTESIAN_POINT('Ctrl Pts',(37.0873028742764,32.4582746678876,41.8));
#618=CARTESIAN_POINT('Ctrl Pts',(37.0482208081266,33.5165493357753,40.));
#619=CARTESIAN_POINT('Ctrl Pts',(37.0482208081266,33.5165493357753,41.8));
#620=CARTESIAN_POINT('Ctrl Pts',(37.0091387419769,34.5748240036629,40.));
#621=CARTESIAN_POINT('Ctrl Pts',(37.0091387419769,34.5748240036629,41.8));
#622=CARTESIAN_POINT('Ctrl Pts',(35.8687649169611,65.4541722528727,40.));
#623=CARTESIAN_POINT('Ctrl Pts',(35.8687649169611,65.4541722528727,41.8));
#624=CARTESIAN_POINT('Ctrl Pts',(33.0791776577792,89.5103906597499,40.));
#625=CARTESIAN_POINT('Ctrl Pts',(33.0791776577792,89.5103906597499,41.8));
#626=CARTESIAN_POINT('Ctrl Pts',(28.6458763179145,110.788439155237,40.));
#627=CARTESIAN_POINT('Ctrl Pts',(28.6458763179145,110.788439155237,41.8));
#628=CARTESIAN_POINT('',(37.258441866988,27.8241271286899,40.));
#629=CARTESIAN_POINT('Ctrl Pts',(37.258441866988,27.8241271286899,40.));
#630=CARTESIAN_POINT('Ctrl Pts',(37.224863973879,28.7333583229198,40.));
#631=CARTESIAN_POINT('Ctrl Pts',(37.19128608077,29.6425895171497,40.));
#632=CARTESIAN_POINT('Ctrl Pts',(37.157708187661,30.5518207113795,40.));
#633=CARTESIAN_POINT('Ctrl Pts',(37.1472671052494,30.8345471409197,40.));
#634=CARTESIAN_POINT('Ctrl Pts',(37.1368260228377,31.1172735704598,40.));
#635=CARTESIAN_POINT('Ctrl Pts',(37.1263849404261,31.4,40.));
#636=CARTESIAN_POINT('Ctrl Pts',(37.0873028742764,32.4582746678876,40.));
#637=CARTESIAN_POINT('Ctrl Pts',(37.0482208081266,33.5165493357753,40.));
#638=CARTESIAN_POINT('Ctrl Pts',(37.0091387419769,34.5748240036629,40.));
#639=CARTESIAN_POINT('Ctrl Pts',(35.8687649169611,65.4541722528727,40.));
#640=CARTESIAN_POINT('Ctrl Pts',(33.0791776577792,89.5103906597499,40.));
#641=CARTESIAN_POINT('Ctrl Pts',(28.6458763179145,110.788439155237,40.));
#642=CARTESIAN_POINT('',(37.258441866988,27.8241271286899,41.8));
#643=CARTESIAN_POINT('Ctrl Pts',(37.258441866988,27.8241271286899,41.8));
#644=CARTESIAN_POINT('Ctrl Pts',(37.224863973879,28.7333583229198,41.8));
#645=CARTESIAN_POINT('Ctrl Pts',(37.19128608077,29.6425895171497,41.8));
#646=CARTESIAN_POINT('Ctrl Pts',(37.157708187661,30.5518207113795,41.8));
#647=CARTESIAN_POINT('Ctrl Pts',(37.1472671052494,30.8345471409197,41.8));
#648=CARTESIAN_POINT('Ctrl Pts',(37.1368260228377,31.1172735704598,41.8));
#649=CARTESIAN_POINT('Ctrl Pts',(37.1263849404261,31.4,41.8));
#650=CARTESIAN_POINT('Ctrl Pts',(37.0873028742764,32.4582746678876,41.8));
#651=CARTESIAN_POINT('Ctrl Pts',(37.0482208081266,33.5165493357753,41.8));
#652=CARTESIAN_POINT('Ctrl Pts',(37.0091387419769,34.5748240036629,41.8));
#653=CARTESIAN_POINT('Ctrl Pts',(35.8687649169611,65.4541722528727,41.8));
#654=CARTESIAN_POINT('Ctrl Pts',(33.0791776577792,89.5103906597499,41.8));
#655=CARTESIAN_POINT('Ctrl Pts',(28.6458763179145,110.788439155237,41.8));
#656=CARTESIAN_POINT('',(37.258441866988,27.8241271286899,40.));
#657=CARTESIAN_POINT('Origin',(26.8343147389636,17.4,40.));
#658=CARTESIAN_POINT('',(26.8343147389636,17.4,40.));
#659=CARTESIAN_POINT('',(26.8343147389636,17.4,40.));
#660=CARTESIAN_POINT('',(26.8343147389636,17.4,41.8));
#661=CARTESIAN_POINT('',(26.8343147389636,17.4,41.8));
#662=CARTESIAN_POINT('',(26.8343147389636,17.4,40.));
#663=CARTESIAN_POINT('Origin',(-26.8343147389636,17.4,40.));
#664=CARTESIAN_POINT('',(-26.8343147389636,17.4,40.));
#665=CARTESIAN_POINT('',(-26.8343147389636,17.4,41.8));
#666=CARTESIAN_POINT('Origin',(8.88178419700125E-15,76.0000010058284,41.8));
#667=CARTESIAN_POINT('Origin',(8.88178419700125E-15,76.0000010058284,40.));
#668=UNCERTAINTY_MEASURE_WITH_UNIT(LENGTH_MEASURE(0.01),#672,
'DISTANCE_ACCURACY_VALUE',
'Maximum model space distance between geometric entities at asserted c
onnectivities');
#669=UNCERTAINTY_MEASURE_WITH_UNIT(LENGTH_MEASURE(0.01),#672,
'DISTANCE_ACCURACY_VALUE',
'Maximum model space distance between geometric entities at asserted c
onnectivities');
#670=(
GEOMETRIC_REPRESENTATION_CONTEXT(3)
GLOBAL_UNCERTAINTY_ASSIGNED_CONTEXT((#668))
GLOBAL_UNIT_ASSIGNED_CONTEXT((#672,#674,#675))
REPRESENTATION_CONTEXT('','3D')
);
#671=(
GEOMETRIC_REPRESENTATION_CONTEXT(3)
GLOBAL_UNCERTAINTY_ASSIGNED_CONTEXT((#669))
GLOBAL_UNIT_ASSIGNED_CONTEXT((#672,#674,#675))
REPRESENTATION_CONTEXT('','3D')
);
#672=(
LENGTH_UNIT()
NAMED_UNIT(*)
SI_UNIT(.MILLI.,.METRE.)
);
#673=(
LENGTH_UNIT()
NAMED_UNIT(*)
SI_UNIT($,.METRE.)
);
#674=(
NAMED_UNIT(*)
PLANE_ANGLE_UNIT()
SI_UNIT($,.RADIAN.)
);
#675=(
NAMED_UNIT(*)
SI_UNIT($,.STERADIAN.)
SOLID_ANGLE_UNIT()
);
#676=SHAPE_DEFINITION_REPRESENTATION(#677,#678);
#677=PRODUCT_DEFINITION_SHAPE('',$,#680);
#678=SHAPE_REPRESENTATION('',(#376),#670);
#679=PRODUCT_DEFINITION_CONTEXT('part definition',#684,'design');
#680=PRODUCT_DEFINITION('Canopy 2','Canopy 2',#681,#679);
#681=PRODUCT_DEFINITION_FORMATION('',$,#686);
#682=PRODUCT_RELATED_PRODUCT_CATEGORY('Canopy 2','Canopy 2',(#686));
#683=APPLICATION_PROTOCOL_DEFINITION('international standard',
'automotive_design',2009,#684);
#684=APPLICATION_CONTEXT(
'Core Data for Automotive Mechanical Design Process');
#685=PRODUCT_CONTEXT('part definition',#684,'mechanical');
#686=PRODUCT('Canopy 2','Canopy 2',$,(#685));
#687=PRESENTATION_STYLE_ASSIGNMENT((#689));
#688=PRESENTATION_STYLE_ASSIGNMENT((#690));
#689=SURFACE_STYLE_USAGE(.BOTH.,#691);
#690=SURFACE_STYLE_USAGE(.BOTH.,#692);
#691=SURFACE_SIDE_STYLE('',(#693));
#692=SURFACE_SIDE_STYLE('',(#694));
#693=SURFACE_STYLE_FILL_AREA(#695);
#694=SURFACE_STYLE_FILL_AREA(#696);
#695=FILL_AREA_STYLE('Steel - Satin',(#697));
#696=FILL_AREA_STYLE('Glass - Window',(#698));
#697=FILL_AREA_STYLE_COLOUR('Steel - Satin',#699);
#698=FILL_AREA_STYLE_COLOUR('Glass - Window',#700);
#699=COLOUR_RGB('Steel - Satin',0.627450980392157,0.627450980392157,0.627450980392157);
#700=COLOUR_RGB('Glass - Window',0.423529411764706,0.768627450980392,0.854901960784314);
ENDSEC;
END-ISO-10303-21;
