ISO-10303-21;
HEADER;
/* Generated by software containing ST-Developer
 * from STEP Tools, Inc. (www.steptools.com) 
 */

FILE_DESCRIPTION(
/* description */ (''),
/* implementation_level */ '2;1');

FILE_NAME(
/* name */ 'Canopy 1.step',
/* time_stamp */ '2025-12-07T14:32:37+01:00',
/* author */ (''),
/* organization */ (''),
/* preprocessor_version */ 'ST-DEVELOPER v20.1',
/* originating_system */ 'Autodesk Translation Framework v14.21.0.0',
/* authorisation */ '');

FILE_SCHEMA (('AUTOMOTIVE_DESIGN { 1 0 10303 214 3 1 1 }'));
ENDSEC;

DATA;
#10=MECHANICAL_DESIGN_GEOMETRIC_PRESENTATION_REPRESENTATION('',(#13),#647);
#11=SHAPE_REPRESENTATION_RELATIONSHIP('SRR','None',#654,#12);
#12=ADVANCED_BREP_SHAPE_REPRESENTATION('',(#14),#646);
#13=STYLED_ITEM('',(#664),#14);
#14=MANIFOLD_SOLID_BREP('Canopy 1',#363);
#15=FACE_BOUND('',#60,.T.);
#16=FACE_BOUND('',#61,.T.);
#17=FACE_BOUND('',#63,.T.);
#18=FACE_BOUND('',#64,.T.);
#19=B_SPLINE_CURVE_WITH_KNOTS('',3,(#556,#557,#558,#559,#560,#561,#562,
#563,#564,#565),.UNSPECIFIED.,.F.,.F.,(4,3,3,4),(0.0767403509539103,0.53832034580108,
2.65216061015361,2.98118238401201),.UNSPECIFIED.);
#20=B_SPLINE_CURVE_WITH_KNOTS('',3,(#567,#568,#569,#570,#571,#572,#573,
#574,#575,#576),.UNSPECIFIED.,.F.,.F.,(4,3,3,4),(-2.98118238401201,-2.65216061015361,
-0.53832034580108,-0.0767403509539103),.UNSPECIFIED.);
#21=B_SPLINE_CURVE_WITH_KNOTS('',3,(#617,#618,#619,#620,#621,#622,#623,
#624,#625,#626),.UNSPECIFIED.,.F.,.F.,(4,3,3,4),(0.076740373420421,0.53832034580108,
2.65216254807462,2.98118052042338),.UNSPECIFIED.);
#22=B_SPLINE_CURVE_WITH_KNOTS('',3,(#628,#629,#630,#631,#632,#633,#634,
#635,#636,#637),.UNSPECIFIED.,.F.,.F.,(4,3,3,4),(0.076740373420421,0.53832034580108,
2.65216254807462,2.98118052042338),.UNSPECIFIED.);
#23=B_SPLINE_SURFACE_WITH_KNOTS('',3,1,((#535,#536),(#537,#538),(#539,#540),
(#541,#542),(#543,#544),(#545,#546),(#547,#548),(#549,#550),(#551,#552),
(#553,#554)),.UNSPECIFIED.,.F.,.F.,.F.,(4,3,3,4),(2,2),(-2.98118238401201,
-2.65216061015361,-0.53832034580108,-0.0767403509539103),(0.,0.18),
 .UNSPECIFIED.);
#24=B_SPLINE_SURFACE_WITH_KNOTS('',3,1,((#596,#597),(#598,#599),(#600,#601),
(#602,#603),(#604,#605),(#606,#607),(#608,#609),(#610,#611),(#612,#613),
(#614,#615)),.UNSPECIFIED.,.F.,.F.,.F.,(4,3,3,4),(2,2),(0.076740373420421,
0.53832034580108,2.65216254807462,2.98118052042338),(0.,0.18),
 .UNSPECIFIED.);
#25=FACE_OUTER_BOUND('',#43,.T.);
#26=FACE_OUTER_BOUND('',#44,.T.);
#27=FACE_OUTER_BOUND('',#45,.T.);
#28=FACE_OUTER_BOUND('',#46,.T.);
#29=FACE_OUTER_BOUND('',#47,.T.);
#30=FACE_OUTER_BOUND('',#48,.T.);
#31=FACE_OUTER_BOUND('',#49,.T.);
#32=FACE_OUTER_BOUND('',#50,.T.);
#33=FACE_OUTER_BOUND('',#51,.T.);
#34=FACE_OUTER_BOUND('',#52,.T.);
#35=FACE_OUTER_BOUND('',#53,.T.);
#36=FACE_OUTER_BOUND('',#54,.T.);
#37=FACE_OUTER_BOUND('',#55,.T.);
#38=FACE_OUTER_BOUND('',#56,.T.);
#39=FACE_OUTER_BOUND('',#57,.T.);
#40=FACE_OUTER_BOUND('',#58,.T.);
#41=FACE_OUTER_BOUND('',#59,.T.);
#42=FACE_OUTER_BOUND('',#62,.T.);
#43=EDGE_LOOP('',(#233,#234,#235,#236));
#44=EDGE_LOOP('',(#237,#238,#239,#240));
#45=EDGE_LOOP('',(#241,#242,#243,#244));
#46=EDGE_LOOP('',(#245,#246,#247,#248));
#47=EDGE_LOOP('',(#249,#250,#251,#252));
#48=EDGE_LOOP('',(#253,#254,#255,#256));
#49=EDGE_LOOP('',(#257,#258,#259,#260));
#50=EDGE_LOOP('',(#261,#262,#263,#264));
#51=EDGE_LOOP('',(#265,#266,#267,#268));
#52=EDGE_LOOP('',(#269,#270,#271,#272));
#53=EDGE_LOOP('',(#273,#274,#275,#276));
#54=EDGE_LOOP('',(#277,#278,#279,#280));
#55=EDGE_LOOP('',(#281,#282,#283,#284));
#56=EDGE_LOOP('',(#285,#286,#287,#288));
#57=EDGE_LOOP('',(#289,#290,#291,#292));
#58=EDGE_LOOP('',(#293,#294,#295,#296));
#59=EDGE_LOOP('',(#297,#298,#299,#300,#301,#302,#303,#304));
#60=EDGE_LOOP('',(#305,#306,#307,#308));
#61=EDGE_LOOP('',(#309,#310,#311,#312));
#62=EDGE_LOOP('',(#313,#314,#315,#316,#317,#318,#319,#320));
#63=EDGE_LOOP('',(#321,#322,#323,#324));
#64=EDGE_LOOP('',(#325,#326,#327,#328));
#65=LINE('',#475,#109);
#66=LINE('',#477,#110);
#67=LINE('',#479,#111);
#68=LINE('',#480,#112);
#69=LINE('',#483,#113);
#70=LINE('',#485,#114);
#71=LINE('',#486,#115);
#72=LINE('',#489,#116);
#73=LINE('',#491,#117);
#74=LINE('',#492,#118);
#75=LINE('',#494,#119);
#76=LINE('',#495,#120);
#77=LINE('',#499,#121);
#78=LINE('',#501,#122);
#79=LINE('',#503,#123);
#80=LINE('',#504,#124);
#81=LINE('',#507,#125);
#82=LINE('',#509,#126);
#83=LINE('',#510,#127);
#84=LINE('',#513,#128);
#85=LINE('',#515,#129);
#86=LINE('',#516,#130);
#87=LINE('',#518,#131);
#88=LINE('',#519,#132);
#89=LINE('',#523,#133);
#90=LINE('',#525,#134);
#91=LINE('',#527,#135);
#92=LINE('',#528,#136);
#93=LINE('',#531,#137);
#94=LINE('',#533,#138);
#95=LINE('',#534,#139);
#96=LINE('',#577,#140);
#97=LINE('',#580,#141);
#98=LINE('',#582,#142);
#99=LINE('',#583,#143);
#100=LINE('',#586,#144);
#101=LINE('',#588,#145);
#102=LINE('',#589,#146);
#103=LINE('',#592,#147);
#104=LINE('',#594,#148);
#105=LINE('',#595,#149);
#106=LINE('',#638,#150);
#107=LINE('',#640,#151);
#108=LINE('',#641,#152);
#109=VECTOR('',#397,10.);
#110=VECTOR('',#398,10.);
#111=VECTOR('',#399,10.);
#112=VECTOR('',#400,10.);
#113=VECTOR('',#403,10.);
#114=VECTOR('',#404,10.);
#115=VECTOR('',#405,10.);
#116=VECTOR('',#408,10.);
#117=VECTOR('',#409,10.);
#118=VECTOR('',#410,10.);
#119=VECTOR('',#413,10.);
#120=VECTOR('',#414,10.);
#121=VECTOR('',#417,10.);
#122=VECTOR('',#418,10.);
#123=VECTOR('',#419,10.);
#124=VECTOR('',#420,10.);
#125=VECTOR('',#423,10.);
#126=VECTOR('',#424,10.);
#127=VECTOR('',#425,10.);
#128=VECTOR('',#428,10.);
#129=VECTOR('',#429,10.);
#130=VECTOR('',#430,10.);
#131=VECTOR('',#433,10.);
#132=VECTOR('',#434,10.);
#133=VECTOR('',#437,10.);
#134=VECTOR('',#438,10.);
#135=VECTOR('',#439,10.);
#136=VECTOR('',#440,10.);
#137=VECTOR('',#443,10.);
#138=VECTOR('',#444,10.);
#139=VECTOR('',#445,10.);
#140=VECTOR('',#446,10.);
#141=VECTOR('',#449,10.);
#142=VECTOR('',#450,10.);
#143=VECTOR('',#451,10.);
#144=VECTOR('',#454,10.);
#145=VECTOR('',#455,10.);
#146=VECTOR('',#456,10.);
#147=VECTOR('',#459,10.);
#148=VECTOR('',#460,10.);
#149=VECTOR('',#461,10.);
#150=VECTOR('',#462,10.);
#151=VECTOR('',#465,10.);
#152=VECTOR('',#466,10.);
#153=VERTEX_POINT('',#473);
#154=VERTEX_POINT('',#474);
#155=VERTEX_POINT('',#476);
#156=VERTEX_POINT('',#478);
#157=VERTEX_POINT('',#482);
#158=VERTEX_POINT('',#484);
#159=VERTEX_POINT('',#488);
#160=VERTEX_POINT('',#490);
#161=VERTEX_POINT('',#497);
#162=VERTEX_POINT('',#498);
#163=VERTEX_POINT('',#500);
#164=VERTEX_POINT('',#502);
#165=VERTEX_POINT('',#506);
#166=VERTEX_POINT('',#508);
#167=VERTEX_POINT('',#512);
#168=VERTEX_POINT('',#514);
#169=VERTEX_POINT('',#521);
#170=VERTEX_POINT('',#522);
#171=VERTEX_POINT('',#524);
#172=VERTEX_POINT('',#526);
#173=VERTEX_POINT('',#530);
#174=VERTEX_POINT('',#532);
#175=VERTEX_POINT('',#555);
#176=VERTEX_POINT('',#566);
#177=VERTEX_POINT('',#579);
#178=VERTEX_POINT('',#581);
#179=VERTEX_POINT('',#585);
#180=VERTEX_POINT('',#587);
#181=VERTEX_POINT('',#591);
#182=VERTEX_POINT('',#593);
#183=VERTEX_POINT('',#616);
#184=VERTEX_POINT('',#627);
#185=EDGE_CURVE('',#153,#154,#65,.T.);
#186=EDGE_CURVE('',#154,#155,#66,.T.);
#187=EDGE_CURVE('',#156,#155,#67,.T.);
#188=EDGE_CURVE('',#153,#156,#68,.T.);
#189=EDGE_CURVE('',#157,#153,#69,.T.);
#190=EDGE_CURVE('',#158,#156,#70,.T.);
#191=EDGE_CURVE('',#157,#158,#71,.T.);
#192=EDGE_CURVE('',#159,#157,#72,.T.);
#193=EDGE_CURVE('',#160,#158,#73,.T.);
#194=EDGE_CURVE('',#159,#160,#74,.T.);
#195=EDGE_CURVE('',#154,#159,#75,.T.);
#196=EDGE_CURVE('',#155,#160,#76,.T.);
#197=EDGE_CURVE('',#161,#162,#77,.T.);
#198=EDGE_CURVE('',#162,#163,#78,.T.);
#199=EDGE_CURVE('',#164,#163,#79,.T.);
#200=EDGE_CURVE('',#161,#164,#80,.T.);
#201=EDGE_CURVE('',#165,#161,#81,.T.);
#202=EDGE_CURVE('',#166,#164,#82,.T.);
#203=EDGE_CURVE('',#165,#166,#83,.T.);
#204=EDGE_CURVE('',#167,#165,#84,.T.);
#205=EDGE_CURVE('',#168,#166,#85,.T.);
#206=EDGE_CURVE('',#167,#168,#86,.T.);
#207=EDGE_CURVE('',#162,#167,#87,.T.);
#208=EDGE_CURVE('',#163,#168,#88,.T.);
#209=EDGE_CURVE('',#169,#170,#89,.T.);
#210=EDGE_CURVE('',#170,#171,#90,.T.);
#211=EDGE_CURVE('',#172,#171,#91,.T.);
#212=EDGE_CURVE('',#169,#172,#92,.T.);
#213=EDGE_CURVE('',#169,#173,#93,.T.);
#214=EDGE_CURVE('',#174,#172,#94,.T.);
#215=EDGE_CURVE('',#173,#174,#95,.T.);
#216=EDGE_CURVE('',#173,#175,#19,.T.);
#217=EDGE_CURVE('',#176,#174,#20,.T.);
#218=EDGE_CURVE('',#175,#176,#96,.T.);
#219=EDGE_CURVE('',#177,#175,#97,.T.);
#220=EDGE_CURVE('',#178,#176,#98,.T.);
#221=EDGE_CURVE('',#177,#178,#99,.T.);
#222=EDGE_CURVE('',#177,#179,#100,.T.);
#223=EDGE_CURVE('',#180,#178,#101,.T.);
#224=EDGE_CURVE('',#179,#180,#102,.T.);
#225=EDGE_CURVE('',#179,#181,#103,.T.);
#226=EDGE_CURVE('',#182,#180,#104,.T.);
#227=EDGE_CURVE('',#181,#182,#105,.T.);
#228=EDGE_CURVE('',#183,#181,#21,.T.);
#229=EDGE_CURVE('',#184,#182,#22,.T.);
#230=EDGE_CURVE('',#183,#184,#106,.T.);
#231=EDGE_CURVE('',#170,#183,#107,.T.);
#232=EDGE_CURVE('',#171,#184,#108,.T.);
#233=ORIENTED_EDGE('',*,*,#185,.T.);
#234=ORIENTED_EDGE('',*,*,#186,.T.);
#235=ORIENTED_EDGE('',*,*,#187,.F.);
#236=ORIENTED_EDGE('',*,*,#188,.F.);
#237=ORIENTED_EDGE('',*,*,#189,.T.);
#238=ORIENTED_EDGE('',*,*,#188,.T.);
#239=ORIENTED_EDGE('',*,*,#190,.F.);
#240=ORIENTED_EDGE('',*,*,#191,.F.);
#241=ORIENTED_EDGE('',*,*,#192,.T.);
#242=ORIENTED_EDGE('',*,*,#191,.T.);
#243=ORIENTED_EDGE('',*,*,#193,.F.);
#244=ORIENTED_EDGE('',*,*,#194,.F.);
#245=ORIENTED_EDGE('',*,*,#195,.T.);
#246=ORIENTED_EDGE('',*,*,#194,.T.);
#247=ORIENTED_EDGE('',*,*,#196,.F.);
#248=ORIENTED_EDGE('',*,*,#186,.F.);
#249=ORIENTED_EDGE('',*,*,#197,.T.);
#250=ORIENTED_EDGE('',*,*,#198,.T.);
#251=ORIENTED_EDGE('',*,*,#199,.F.);
#252=ORIENTED_EDGE('',*,*,#200,.F.);
#253=ORIENTED_EDGE('',*,*,#201,.T.);
#254=ORIENTED_EDGE('',*,*,#200,.T.);
#255=ORIENTED_EDGE('',*,*,#202,.F.);
#256=ORIENTED_EDGE('',*,*,#203,.F.);
#257=ORIENTED_EDGE('',*,*,#204,.T.);
#258=ORIENTED_EDGE('',*,*,#203,.T.);
#259=ORIENTED_EDGE('',*,*,#205,.F.);
#260=ORIENTED_EDGE('',*,*,#206,.F.);
#261=ORIENTED_EDGE('',*,*,#207,.T.);
#262=ORIENTED_EDGE('',*,*,#206,.T.);
#263=ORIENTED_EDGE('',*,*,#208,.F.);
#264=ORIENTED_EDGE('',*,*,#198,.F.);
#265=ORIENTED_EDGE('',*,*,#209,.T.);
#266=ORIENTED_EDGE('',*,*,#210,.T.);
#267=ORIENTED_EDGE('',*,*,#211,.F.);
#268=ORIENTED_EDGE('',*,*,#212,.F.);
#269=ORIENTED_EDGE('',*,*,#213,.F.);
#270=ORIENTED_EDGE('',*,*,#212,.T.);
#271=ORIENTED_EDGE('',*,*,#214,.F.);
#272=ORIENTED_EDGE('',*,*,#215,.F.);
#273=ORIENTED_EDGE('',*,*,#216,.F.);
#274=ORIENTED_EDGE('',*,*,#215,.T.);
#275=ORIENTED_EDGE('',*,*,#217,.F.);
#276=ORIENTED_EDGE('',*,*,#218,.F.);
#277=ORIENTED_EDGE('',*,*,#219,.T.);
#278=ORIENTED_EDGE('',*,*,#218,.T.);
#279=ORIENTED_EDGE('',*,*,#220,.F.);
#280=ORIENTED_EDGE('',*,*,#221,.F.);
#281=ORIENTED_EDGE('',*,*,#222,.F.);
#282=ORIENTED_EDGE('',*,*,#221,.T.);
#283=ORIENTED_EDGE('',*,*,#223,.F.);
#284=ORIENTED_EDGE('',*,*,#224,.F.);
#285=ORIENTED_EDGE('',*,*,#225,.F.);
#286=ORIENTED_EDGE('',*,*,#224,.T.);
#287=ORIENTED_EDGE('',*,*,#226,.F.);
#288=ORIENTED_EDGE('',*,*,#227,.F.);
#289=ORIENTED_EDGE('',*,*,#228,.T.);
#290=ORIENTED_EDGE('',*,*,#227,.T.);
#291=ORIENTED_EDGE('',*,*,#229,.F.);
#292=ORIENTED_EDGE('',*,*,#230,.F.);
#293=ORIENTED_EDGE('',*,*,#231,.T.);
#294=ORIENTED_EDGE('',*,*,#230,.T.);
#295=ORIENTED_EDGE('',*,*,#232,.F.);
#296=ORIENTED_EDGE('',*,*,#210,.F.);
#297=ORIENTED_EDGE('',*,*,#232,.T.);
#298=ORIENTED_EDGE('',*,*,#229,.T.);
#299=ORIENTED_EDGE('',*,*,#226,.T.);
#300=ORIENTED_EDGE('',*,*,#223,.T.);
#301=ORIENTED_EDGE('',*,*,#220,.T.);
#302=ORIENTED_EDGE('',*,*,#217,.T.);
#303=ORIENTED_EDGE('',*,*,#214,.T.);
#304=ORIENTED_EDGE('',*,*,#211,.T.);
#305=ORIENTED_EDGE('',*,*,#208,.T.);
#306=ORIENTED_EDGE('',*,*,#205,.T.);
#307=ORIENTED_EDGE('',*,*,#202,.T.);
#308=ORIENTED_EDGE('',*,*,#199,.T.);
#309=ORIENTED_EDGE('',*,*,#196,.T.);
#310=ORIENTED_EDGE('',*,*,#193,.T.);
#311=ORIENTED_EDGE('',*,*,#190,.T.);
#312=ORIENTED_EDGE('',*,*,#187,.T.);
#313=ORIENTED_EDGE('',*,*,#231,.F.);
#314=ORIENTED_EDGE('',*,*,#209,.F.);
#315=ORIENTED_EDGE('',*,*,#213,.T.);
#316=ORIENTED_EDGE('',*,*,#216,.T.);
#317=ORIENTED_EDGE('',*,*,#219,.F.);
#318=ORIENTED_EDGE('',*,*,#222,.T.);
#319=ORIENTED_EDGE('',*,*,#225,.T.);
#320=ORIENTED_EDGE('',*,*,#228,.F.);
#321=ORIENTED_EDGE('',*,*,#207,.F.);
#322=ORIENTED_EDGE('',*,*,#197,.F.);
#323=ORIENTED_EDGE('',*,*,#201,.F.);
#324=ORIENTED_EDGE('',*,*,#204,.F.);
#325=ORIENTED_EDGE('',*,*,#195,.F.);
#326=ORIENTED_EDGE('',*,*,#185,.F.);
#327=ORIENTED_EDGE('',*,*,#189,.F.);
#328=ORIENTED_EDGE('',*,*,#192,.F.);
#329=PLANE('',#377);
#330=PLANE('',#378);
#331=PLANE('',#379);
#332=PLANE('',#380);
#333=PLANE('',#381);
#334=PLANE('',#382);
#335=PLANE('',#383);
#336=PLANE('',#384);
#337=PLANE('',#385);
#338=PLANE('',#386);
#339=PLANE('',#387);
#340=PLANE('',#388);
#341=PLANE('',#389);
#342=PLANE('',#390);
#343=PLANE('',#391);
#344=PLANE('',#392);
#345=ADVANCED_FACE('',(#25),#329,.T.);
#346=ADVANCED_FACE('',(#26),#330,.T.);
#347=ADVANCED_FACE('',(#27),#331,.T.);
#348=ADVANCED_FACE('',(#28),#332,.T.);
#349=ADVANCED_FACE('',(#29),#333,.T.);
#350=ADVANCED_FACE('',(#30),#334,.T.);
#351=ADVANCED_FACE('',(#31),#335,.T.);
#352=ADVANCED_FACE('',(#32),#336,.T.);
#353=ADVANCED_FACE('',(#33),#337,.T.);
#354=ADVANCED_FACE('',(#34),#338,.T.);
#355=ADVANCED_FACE('',(#35),#23,.T.);
#356=ADVANCED_FACE('',(#36),#339,.T.);
#357=ADVANCED_FACE('',(#37),#340,.T.);
#358=ADVANCED_FACE('',(#38),#341,.T.);
#359=ADVANCED_FACE('',(#39),#24,.T.);
#360=ADVANCED_FACE('',(#40),#342,.T.);
#361=ADVANCED_FACE('',(#41,#15,#16),#343,.T.);
#362=ADVANCED_FACE('',(#42,#17,#18),#344,.F.);
#363=CLOSED_SHELL('',(#345,#346,#347,#348,#349,#350,#351,#352,#353,#354,
#355,#356,#357,#358,#359,#360,#361,#362));
#364=DERIVED_UNIT_ELEMENT(#366,1.);
#365=DERIVED_UNIT_ELEMENT(#649,-3.);
#366=(
MASS_UNIT()
NAMED_UNIT(*)
SI_UNIT(.KILO.,.GRAM.)
);
#367=DERIVED_UNIT((#364,#365));
#368=MEASURE_REPRESENTATION_ITEM('density measure',
POSITIVE_RATIO_MEASURE(7850.),#367);
#369=PROPERTY_DEFINITION_REPRESENTATION(#374,#371);
#370=PROPERTY_DEFINITION_REPRESENTATION(#375,#372);
#371=REPRESENTATION('material name',(#373),#646);
#372=REPRESENTATION('density',(#368),#646);
#373=DESCRIPTIVE_REPRESENTATION_ITEM('Steel','Steel');
#374=PROPERTY_DEFINITION('material property','material name',#656);
#375=PROPERTY_DEFINITION('material property','density of part',#656);
#376=AXIS2_PLACEMENT_3D('',#471,#393,#394);
#377=AXIS2_PLACEMENT_3D('',#472,#395,#396);
#378=AXIS2_PLACEMENT_3D('',#481,#401,#402);
#379=AXIS2_PLACEMENT_3D('',#487,#406,#407);
#380=AXIS2_PLACEMENT_3D('',#493,#411,#412);
#381=AXIS2_PLACEMENT_3D('',#496,#415,#416);
#382=AXIS2_PLACEMENT_3D('',#505,#421,#422);
#383=AXIS2_PLACEMENT_3D('',#511,#426,#427);
#384=AXIS2_PLACEMENT_3D('',#517,#431,#432);
#385=AXIS2_PLACEMENT_3D('',#520,#435,#436);
#386=AXIS2_PLACEMENT_3D('',#529,#441,#442);
#387=AXIS2_PLACEMENT_3D('',#578,#447,#448);
#388=AXIS2_PLACEMENT_3D('',#584,#452,#453);
#389=AXIS2_PLACEMENT_3D('',#590,#457,#458);
#390=AXIS2_PLACEMENT_3D('',#639,#463,#464);
#391=AXIS2_PLACEMENT_3D('',#642,#467,#468);
#392=AXIS2_PLACEMENT_3D('',#643,#469,#470);
#393=DIRECTION('axis',(0.,0.,1.));
#394=DIRECTION('refdir',(1.,0.,0.));
#395=DIRECTION('center_axis',(-1.,0.,0.));
#396=DIRECTION('ref_axis',(0.,-1.,0.));
#397=DIRECTION('',(0.,-1.,0.));
#398=DIRECTION('',(0.,0.,1.));
#399=DIRECTION('',(0.,-1.,0.));
#400=DIRECTION('',(0.,0.,1.));
#401=DIRECTION('center_axis',(0.,-1.,0.));
#402=DIRECTION('ref_axis',(1.,0.,0.));
#403=DIRECTION('',(1.,0.,0.));
#404=DIRECTION('',(1.,0.,0.));
#405=DIRECTION('',(0.,0.,1.));
#406=DIRECTION('center_axis',(1.,4.62592926927149E-17,0.));
#407=DIRECTION('ref_axis',(-4.62592926927149E-17,1.,0.));
#408=DIRECTION('',(-4.62592926927149E-17,1.,0.));
#409=DIRECTION('',(-4.62592926927149E-17,1.,0.));
#410=DIRECTION('',(0.,0.,1.));
#411=DIRECTION('center_axis',(0.,1.,0.));
#412=DIRECTION('ref_axis',(-1.,0.,0.));
#413=DIRECTION('',(-1.,0.,0.));
#414=DIRECTION('',(-1.,0.,0.));
#415=DIRECTION('center_axis',(0.,1.,0.));
#416=DIRECTION('ref_axis',(-1.,0.,0.));
#417=DIRECTION('',(-1.,0.,0.));
#418=DIRECTION('',(0.,0.,1.));
#419=DIRECTION('',(-1.,0.,0.));
#420=DIRECTION('',(0.,0.,1.));
#421=DIRECTION('center_axis',(-1.,0.,0.));
#422=DIRECTION('ref_axis',(0.,-1.,0.));
#423=DIRECTION('',(0.,-1.,0.));
#424=DIRECTION('',(0.,-1.,0.));
#425=DIRECTION('',(0.,0.,1.));
#426=DIRECTION('center_axis',(4.28229406357616E-11,-1.,0.));
#427=DIRECTION('ref_axis',(1.,4.28229406357616E-11,0.));
#428=DIRECTION('',(1.,4.28229406357616E-11,0.));
#429=DIRECTION('',(1.,4.28229406357616E-11,0.));
#430=DIRECTION('',(0.,0.,1.));
#431=DIRECTION('center_axis',(1.,0.,0.));
#432=DIRECTION('ref_axis',(0.,1.,0.));
#433=DIRECTION('',(0.,1.,0.));
#434=DIRECTION('',(0.,1.,0.));
#435=DIRECTION('center_axis',(4.61028736536032E-11,1.,0.));
#436=DIRECTION('ref_axis',(-1.,4.61028736536032E-11,0.));
#437=DIRECTION('',(-1.,4.61028736536032E-11,0.));
#438=DIRECTION('',(0.,0.,1.));
#439=DIRECTION('',(-1.,4.61028736536032E-11,0.));
#440=DIRECTION('',(0.,0.,1.));
#441=DIRECTION('center_axis',(0.707106792587042,0.707106769786053,0.));
#442=DIRECTION('ref_axis',(-0.707106769786053,0.707106792587042,0.));
#443=DIRECTION('',(0.707106769786053,-0.707106792587042,0.));
#444=DIRECTION('',(-0.707106769786053,0.707106792587042,0.));
#445=DIRECTION('',(0.,0.,1.));
#446=DIRECTION('',(0.,0.,1.));
#447=DIRECTION('center_axis',(0.707106781202668,-0.707106781170427,0.));
#448=DIRECTION('ref_axis',(0.707106781170427,0.707106781202668,0.));
#449=DIRECTION('',(0.707106781170427,0.707106781202668,0.));
#450=DIRECTION('',(0.707106781170427,0.707106781202668,0.));
#451=DIRECTION('',(0.,0.,1.));
#452=DIRECTION('center_axis',(0.,-1.,0.));
#453=DIRECTION('ref_axis',(1.,0.,0.));
#454=DIRECTION('',(-1.,0.,0.));
#455=DIRECTION('',(1.,0.,0.));
#456=DIRECTION('',(0.,0.,1.));
#457=DIRECTION('center_axis',(-0.707104868628765,-0.707108693739157,0.));
#458=DIRECTION('ref_axis',(0.707108693739157,-0.707104868628765,0.));
#459=DIRECTION('',(-0.707108693739157,0.707104868628765,0.));
#460=DIRECTION('',(0.707108693739157,-0.707104868628765,0.));
#461=DIRECTION('',(0.,0.,1.));
#462=DIRECTION('',(0.,0.,1.));
#463=DIRECTION('center_axis',(-0.707106781121392,0.707106781251703,0.));
#464=DIRECTION('ref_axis',(-0.707106781251703,-0.707106781121392,0.));
#465=DIRECTION('',(-0.707106781251703,-0.707106781121392,0.));
#466=DIRECTION('',(-0.707106781251703,-0.707106781121392,0.));
#467=DIRECTION('center_axis',(0.,0.,1.));
#468=DIRECTION('ref_axis',(1.,0.,0.));
#469=DIRECTION('center_axis',(0.,0.,1.));
#470=DIRECTION('ref_axis',(1.,0.,0.));
#471=CARTESIAN_POINT('',(0.,0.,0.));
#472=CARTESIAN_POINT('Origin',(3.5,-154.6,40.));
#473=CARTESIAN_POINT('',(3.5,-154.6,40.));
#474=CARTESIAN_POINT('',(3.5,-166.6,40.));
#475=CARTESIAN_POINT('',(3.5,-166.6,40.));
#476=CARTESIAN_POINT('',(3.5,-166.6,41.8));
#477=CARTESIAN_POINT('',(3.5,-166.6,40.));
#478=CARTESIAN_POINT('',(3.5,-154.6,41.8));
#479=CARTESIAN_POINT('',(3.5,-166.6,41.8));
#480=CARTESIAN_POINT('',(3.5,-154.6,40.));
#481=CARTESIAN_POINT('Origin',(-3.5,-154.6,40.));
#482=CARTESIAN_POINT('',(-3.5,-154.6,40.));
#483=CARTESIAN_POINT('',(3.5,-154.6,40.));
#484=CARTESIAN_POINT('',(-3.5,-154.6,41.8));
#485=CARTESIAN_POINT('',(3.5,-154.6,41.8));
#486=CARTESIAN_POINT('',(-3.5,-154.6,40.));
#487=CARTESIAN_POINT('Origin',(-3.5,-166.6,40.));
#488=CARTESIAN_POINT('',(-3.5,-166.6,40.));
#489=CARTESIAN_POINT('',(-3.5,-154.6,40.));
#490=CARTESIAN_POINT('',(-3.5,-166.6,41.8));
#491=CARTESIAN_POINT('',(-3.5,-154.6,41.8));
#492=CARTESIAN_POINT('',(-3.5,-166.6,40.));
#493=CARTESIAN_POINT('Origin',(3.5,-166.6,40.));
#494=CARTESIAN_POINT('',(-2.93915231795365E-16,-166.6,40.));
#495=CARTESIAN_POINT('',(-2.93915231795365E-16,-166.6,41.8));
#496=CARTESIAN_POINT('Origin',(3.5,-24.4000001490116,40.));
#497=CARTESIAN_POINT('',(3.5,-24.4000001490116,40.));
#498=CARTESIAN_POINT('',(-3.5,-24.4000001490116,40.));
#499=CARTESIAN_POINT('',(-3.5,-24.4000001490116,40.));
#500=CARTESIAN_POINT('',(-3.5,-24.4000001490116,41.8));
#501=CARTESIAN_POINT('',(-3.5,-24.4000001490116,40.));
#502=CARTESIAN_POINT('',(3.5,-24.4000001490116,41.8));
#503=CARTESIAN_POINT('',(-3.5,-24.4000001490116,41.8));
#504=CARTESIAN_POINT('',(3.5,-24.4000001490116,40.));
#505=CARTESIAN_POINT('Origin',(3.5,-12.4000001490116,40.));
#506=CARTESIAN_POINT('',(3.5,-12.4000001490116,40.));
#507=CARTESIAN_POINT('',(3.5,-12.4000001490116,40.));
#508=CARTESIAN_POINT('',(3.5,-12.4000001490116,41.8));
#509=CARTESIAN_POINT('',(3.5,-12.4000001490116,41.8));
#510=CARTESIAN_POINT('',(3.5,-12.4000001490116,40.));
#511=CARTESIAN_POINT('Origin',(-3.5,-12.4000001491615,40.));
#512=CARTESIAN_POINT('',(-3.5,-12.4000001490947,40.));
#513=CARTESIAN_POINT('',(25.0058878366484,-12.4000001479408,40.));
#514=CARTESIAN_POINT('',(-3.5,-12.4000001490947,41.8));
#515=CARTESIAN_POINT('',(25.0058878366484,-12.4000001479408,41.8));
#516=CARTESIAN_POINT('',(-3.5,-12.4000001490947,40.));
#517=CARTESIAN_POINT('Origin',(-3.5,-24.4000001490116,40.));
#518=CARTESIAN_POINT('',(-3.5,-12.4000001490116,40.));
#519=CARTESIAN_POINT('',(-3.5,-12.4000001490116,41.8));
#520=CARTESIAN_POINT('Origin',(25.8343149612873,-10.4000001476142,40.));
#521=CARTESIAN_POINT('',(25.8343149612873,-10.4000001476142,40.));
#522=CARTESIAN_POINT('',(-25.8343149606636,-10.4000001496071,40.));
#523=CARTESIAN_POINT('',(25.8343149612873,-10.4000001476142,40.));
#524=CARTESIAN_POINT('',(-25.8343149606636,-10.4000001496071,41.8));
#525=CARTESIAN_POINT('',(-25.8343149606636,-10.4000001496071,40.));
#526=CARTESIAN_POINT('',(25.8343149612873,-10.4000001476142,41.8));
#527=CARTESIAN_POINT('',(25.8343149612873,-10.4000001476142,41.8));
#528=CARTESIAN_POINT('',(25.8343149612873,-10.4000001476142,40.));
#529=CARTESIAN_POINT('Origin',(37.4707751182436,-22.0364606797937,40.));
#530=CARTESIAN_POINT('',(37.4707751182436,-22.0364606797937,40.));
#531=CARTESIAN_POINT('',(25.8343149612873,-10.4000001476142,40.));
#532=CARTESIAN_POINT('',(37.4707751182436,-22.0364606797937,41.8));
#533=CARTESIAN_POINT('',(25.8343149612873,-10.4000001476142,41.8));
#534=CARTESIAN_POINT('',(37.4707751182436,-22.0364606797937,40.));
#535=CARTESIAN_POINT('Ctrl Pts',(28.0308220544546,-147.403492519533,40.));
#536=CARTESIAN_POINT('Ctrl Pts',(28.0308220544546,-147.403492519533,41.8));
#537=CARTESIAN_POINT('Ctrl Pts',(28.1752066735662,-146.316298858814,40.));
#538=CARTESIAN_POINT('Ctrl Pts',(28.1752066735662,-146.316298858814,41.8));
#539=CARTESIAN_POINT('Ctrl Pts',(28.3195912926778,-145.229105198095,40.));
#540=CARTESIAN_POINT('Ctrl Pts',(28.3195912926778,-145.229105198095,41.8));
#541=CARTESIAN_POINT('Ctrl Pts',(28.4639759117894,-144.141911537376,40.));
#542=CARTESIAN_POINT('Ctrl Pts',(28.4639759117894,-144.141911537376,41.8));
#543=CARTESIAN_POINT('Ctrl Pts',(29.3915923970211,-137.157104093703,40.));
#544=CARTESIAN_POINT('Ctrl Pts',(29.3915923970211,-137.157104093703,41.8));
#545=CARTESIAN_POINT('Ctrl Pts',(30.3192088822529,-130.17229665003,40.));
#546=CARTESIAN_POINT('Ctrl Pts',(30.3192088822529,-130.17229665003,41.8));
#547=CARTESIAN_POINT('Ctrl Pts',(31.2468253674847,-123.187489206356,40.));
#548=CARTESIAN_POINT('Ctrl Pts',(31.2468253674847,-123.187489206356,41.8));
#549=CARTESIAN_POINT('Ctrl Pts',(34.8765810583434,-95.8559950254503,40.));
#550=CARTESIAN_POINT('Ctrl Pts',(34.8765810583434,-95.8559950254503,41.8));
#551=CARTESIAN_POINT('Ctrl Pts',(36.9526345861655,-64.3576225017589,40.));
#552=CARTESIAN_POINT('Ctrl Pts',(36.9526345861655,-64.3576225017589,41.8));
#553=CARTESIAN_POINT('Ctrl Pts',(37.4707751182436,-22.0364606797937,40.));
#554=CARTESIAN_POINT('Ctrl Pts',(37.4707751182436,-22.0364606797937,41.8));
#555=CARTESIAN_POINT('',(28.0308220544546,-147.403492519533,40.));
#556=CARTESIAN_POINT('Ctrl Pts',(37.4707751182436,-22.0364606797937,40.));
#557=CARTESIAN_POINT('Ctrl Pts',(36.9526345861655,-64.3576225017589,40.));
#558=CARTESIAN_POINT('Ctrl Pts',(34.8765810583434,-95.8559950254503,40.));
#559=CARTESIAN_POINT('Ctrl Pts',(31.2468253674847,-123.187489206356,40.));
#560=CARTESIAN_POINT('Ctrl Pts',(30.3192088822529,-130.17229665003,40.));
#561=CARTESIAN_POINT('Ctrl Pts',(29.3915923970211,-137.157104093703,40.));
#562=CARTESIAN_POINT('Ctrl Pts',(28.4639759117894,-144.141911537376,40.));
#563=CARTESIAN_POINT('Ctrl Pts',(28.3195912926778,-145.229105198095,40.));
#564=CARTESIAN_POINT('Ctrl Pts',(28.1752066735662,-146.316298858814,40.));
#565=CARTESIAN_POINT('Ctrl Pts',(28.0308220544546,-147.403492519533,40.));
#566=CARTESIAN_POINT('',(28.0308220544546,-147.403492519533,41.8));
#567=CARTESIAN_POINT('Ctrl Pts',(28.0308220544546,-147.403492519533,41.8));
#568=CARTESIAN_POINT('Ctrl Pts',(28.1752066735662,-146.316298858814,41.8));
#569=CARTESIAN_POINT('Ctrl Pts',(28.3195912926778,-145.229105198095,41.8));
#570=CARTESIAN_POINT('Ctrl Pts',(28.4639759117894,-144.141911537376,41.8));
#571=CARTESIAN_POINT('Ctrl Pts',(29.3915923970211,-137.157104093703,41.8));
#572=CARTESIAN_POINT('Ctrl Pts',(30.3192088822529,-130.17229665003,41.8));
#573=CARTESIAN_POINT('Ctrl Pts',(31.2468253674847,-123.187489206356,41.8));
#574=CARTESIAN_POINT('Ctrl Pts',(34.8765810583434,-95.8559950254503,41.8));
#575=CARTESIAN_POINT('Ctrl Pts',(36.9526345861655,-64.3576225017589,41.8));
#576=CARTESIAN_POINT('Ctrl Pts',(37.4707751182436,-22.0364606797937,41.8));
#577=CARTESIAN_POINT('',(28.0308220544546,-147.403492519533,40.));
#578=CARTESIAN_POINT('Origin',(6.83431457495425,-168.6,40.));
#579=CARTESIAN_POINT('',(6.83431457495425,-168.6,40.));
#580=CARTESIAN_POINT('',(6.83431457495425,-168.6,40.));
#581=CARTESIAN_POINT('',(6.83431457495425,-168.6,41.8));
#582=CARTESIAN_POINT('',(6.83431457495425,-168.6,41.8));
#583=CARTESIAN_POINT('',(6.83431457495425,-168.6,40.));
#584=CARTESIAN_POINT('Origin',(-6.83416704551642,-168.6,40.));
#585=CARTESIAN_POINT('',(-6.83416704551642,-168.6,40.));
#586=CARTESIAN_POINT('',(0.,-168.6,40.));
#587=CARTESIAN_POINT('',(-6.83416704551642,-168.6,41.8));
#588=CARTESIAN_POINT('',(0.,-168.6,41.8));
#589=CARTESIAN_POINT('',(-6.83416704551642,-168.6,40.));
#590=CARTESIAN_POINT('Origin',(-28.0308163039043,-147.403465405064,40.));
#591=CARTESIAN_POINT('',(-28.0308163039043,-147.403465405064,40.));
#592=CARTESIAN_POINT('',(-6.83416704551642,-168.6,40.));
#593=CARTESIAN_POINT('',(-28.0308163039043,-147.403465405064,41.8));
#594=CARTESIAN_POINT('',(-6.83416704551642,-168.6,41.8));
#595=CARTESIAN_POINT('',(-28.0308163039043,-147.403465405064,40.));
#596=CARTESIAN_POINT('Ctrl Pts',(-37.4707731309654,-22.0364586925152,40.));
#597=CARTESIAN_POINT('Ctrl Pts',(-37.4707731309654,-22.0364586925152,41.8));
#598=CARTESIAN_POINT('Ctrl Pts',(-36.9526303482983,-64.3576173750173,40.));
#599=CARTESIAN_POINT('Ctrl Pts',(-36.9526303482983,-64.3576173750173,41.8));
#600=CARTESIAN_POINT('Ctrl Pts',(-34.8765752649581,-95.8559880585722,40.));
#601=CARTESIAN_POINT('Ctrl Pts',(-34.8765752649581,-95.8559880585722,41.8));
#602=CARTESIAN_POINT('Ctrl Pts',(-31.2468183789691,-123.187480726989,40.));
#603=CARTESIAN_POINT('Ctrl Pts',(-31.2468183789691,-123.187480726989,41.8));
#604=CARTESIAN_POINT('Ctrl Pts',(-30.319200692743,-130.172294527617,40.));
#605=CARTESIAN_POINT('Ctrl Pts',(-30.319200692743,-130.172294527617,41.8));
#606=CARTESIAN_POINT('Ctrl Pts',(-29.3915830065169,-137.157108328246,40.));
#607=CARTESIAN_POINT('Ctrl Pts',(-29.3915830065169,-137.157108328246,41.8));
#608=CARTESIAN_POINT('Ctrl Pts',(-28.4639653202907,-144.141922128875,40.));
#609=CARTESIAN_POINT('Ctrl Pts',(-28.4639653202907,-144.141922128875,41.8));
#610=CARTESIAN_POINT('Ctrl Pts',(-28.3195823148286,-145.229103220938,40.));
#611=CARTESIAN_POINT('Ctrl Pts',(-28.3195823148286,-145.229103220938,41.8));
#612=CARTESIAN_POINT('Ctrl Pts',(-28.1751993093665,-146.316284313001,40.));
#613=CARTESIAN_POINT('Ctrl Pts',(-28.1751993093665,-146.316284313001,41.8));
#614=CARTESIAN_POINT('Ctrl Pts',(-28.0308163039043,-147.403465405064,40.));
#615=CARTESIAN_POINT('Ctrl Pts',(-28.0308163039043,-147.403465405064,41.8));
#616=CARTESIAN_POINT('',(-37.4707731309654,-22.0364586925152,40.));
#617=CARTESIAN_POINT('Ctrl Pts',(-37.4707731309654,-22.0364586925152,40.));
#618=CARTESIAN_POINT('Ctrl Pts',(-36.9526303482983,-64.3576173750173,40.));
#619=CARTESIAN_POINT('Ctrl Pts',(-34.8765752649581,-95.8559880585722,40.));
#620=CARTESIAN_POINT('Ctrl Pts',(-31.2468183789691,-123.187480726989,40.));
#621=CARTESIAN_POINT('Ctrl Pts',(-30.319200692743,-130.172294527617,40.));
#622=CARTESIAN_POINT('Ctrl Pts',(-29.3915830065169,-137.157108328246,40.));
#623=CARTESIAN_POINT('Ctrl Pts',(-28.4639653202907,-144.141922128875,40.));
#624=CARTESIAN_POINT('Ctrl Pts',(-28.3195823148286,-145.229103220938,40.));
#625=CARTESIAN_POINT('Ctrl Pts',(-28.1751993093665,-146.316284313001,40.));
#626=CARTESIAN_POINT('Ctrl Pts',(-28.0308163039043,-147.403465405064,40.));
#627=CARTESIAN_POINT('',(-37.4707731309654,-22.0364586925152,41.8));
#628=CARTESIAN_POINT('Ctrl Pts',(-37.4707731309654,-22.0364586925152,41.8));
#629=CARTESIAN_POINT('Ctrl Pts',(-36.9526303482983,-64.3576173750173,41.8));
#630=CARTESIAN_POINT('Ctrl Pts',(-34.8765752649581,-95.8559880585722,41.8));
#631=CARTESIAN_POINT('Ctrl Pts',(-31.2468183789691,-123.187480726989,41.8));
#632=CARTESIAN_POINT('Ctrl Pts',(-30.319200692743,-130.172294527617,41.8));
#633=CARTESIAN_POINT('Ctrl Pts',(-29.3915830065169,-137.157108328246,41.8));
#634=CARTESIAN_POINT('Ctrl Pts',(-28.4639653202907,-144.141922128875,41.8));
#635=CARTESIAN_POINT('Ctrl Pts',(-28.3195823148286,-145.229103220938,41.8));
#636=CARTESIAN_POINT('Ctrl Pts',(-28.1751993093665,-146.316284313001,41.8));
#637=CARTESIAN_POINT('Ctrl Pts',(-28.0308163039043,-147.403465405064,41.8));
#638=CARTESIAN_POINT('',(-37.4707731309654,-22.0364586925152,40.));
#639=CARTESIAN_POINT('Origin',(-25.8343149606636,-10.4000001496071,40.));
#640=CARTESIAN_POINT('',(-25.8343149606636,-10.4000001496071,40.));
#641=CARTESIAN_POINT('',(-25.8343149606636,-10.4000001496071,41.8));
#642=CARTESIAN_POINT('Origin',(8.99951446697855E-7,-89.5000000732116,41.8));
#643=CARTESIAN_POINT('Origin',(8.99951446697855E-7,-89.5000000732116,40.));
#644=UNCERTAINTY_MEASURE_WITH_UNIT(LENGTH_MEASURE(0.01),#648,
'DISTANCE_ACCURACY_VALUE',
'Maximum model space distance between geometric entities at asserted c
onnectivities');
#645=UNCERTAINTY_MEASURE_WITH_UNIT(LENGTH_MEASURE(0.01),#648,
'DISTANCE_ACCURACY_VALUE',
'Maximum model space distance between geometric entities at asserted c
onnectivities');
#646=(
GEOMETRIC_REPRESENTATION_CONTEXT(3)
GLOBAL_UNCERTAINTY_ASSIGNED_CONTEXT((#644))
GLOBAL_UNIT_ASSIGNED_CONTEXT((#648,#650,#651))
REPRESENTATION_CONTEXT('','3D')
);
#647=(
GEOMETRIC_REPRESENTATION_CONTEXT(3)
GLOBAL_UNCERTAINTY_ASSIGNED_CONTEXT((#645))
GLOBAL_UNIT_ASSIGNED_CONTEXT((#648,#650,#651))
REPRESENTATION_CONTEXT('','3D')
);
#648=(
LENGTH_UNIT()
NAMED_UNIT(*)
SI_UNIT(.MILLI.,.METRE.)
);
#649=(
LENGTH_UNIT()
NAMED_UNIT(*)
SI_UNIT($,.METRE.)
);
#650=(
NAMED_UNIT(*)
PLANE_ANGLE_UNIT()
SI_UNIT($,.RADIAN.)
);
#651=(
NAMED_UNIT(*)
SI_UNIT($,.STERADIAN.)
SOLID_ANGLE_UNIT()
);
#652=SHAPE_DEFINITION_REPRESENTATION(#653,#654);
#653=PRODUCT_DEFINITION_SHAPE('',$,#656);
#654=SHAPE_REPRESENTATION('',(#376),#646);
#655=PRODUCT_DEFINITION_CONTEXT('part definition',#660,'design');
#656=PRODUCT_DEFINITION('Canopy 1','Canopy 1',#657,#655);
#657=PRODUCT_DEFINITION_FORMATION('',$,#662);
#658=PRODUCT_RELATED_PRODUCT_CATEGORY('Canopy 1','Canopy 1',(#662));
#659=APPLICATION_PROTOCOL_DEFINITION('international standard',
'automotive_design',2009,#660);
#660=APPLICATION_CONTEXT(
'Core Data for Automotive Mechanical Design Process');
#661=PRODUCT_CONTEXT('part definition',#660,'mechanical');
#662=PRODUCT('Canopy 1','Canopy 1',$,(#661));
#663=PRESENTATION_STYLE_ASSIGNMENT((#665));
#664=PRESENTATION_STYLE_ASSIGNMENT((#666));
#665=SURFACE_STYLE_USAGE(.BOTH.,#667);
#666=SURFACE_STYLE_USAGE(.BOTH.,#668);
#667=SURFACE_SIDE_STYLE('',(#669));
#668=SURFACE_SIDE_STYLE('',(#670));
#669=SURFACE_STYLE_FILL_AREA(#671);
#670=SURFACE_STYLE_FILL_AREA(#672);
#671=FILL_AREA_STYLE('Steel - Satin',(#673));
#672=FILL_AREA_STYLE('Glass - Window',(#674));
#673=FILL_AREA_STYLE_COLOUR('Steel - Satin',#675);
#674=FILL_AREA_STYLE_COLOUR('Glass - Window',#676);
#675=COLOUR_RGB('Steel - Satin',0.627450980392157,0.627450980392157,0.627450980392157);
#676=COLOUR_RGB('Glass - Window',0.423529411764706,0.768627450980392,0.854901960784314);
ENDSEC;
END-ISO-10303-21;
