ISO-10303-21;
HEADER;
/* Generated by software containing ST-Developer
 * from STEP Tools, Inc. (www.steptools.com) 
 */

FILE_DESCRIPTION(
/* description */ (''),
/* implementation_level */ '2;1');

FILE_NAME(
/* name */ 'FC Plate.step',
/* time_stamp */ '2025-12-07T14:32:34+01:00',
/* author */ (''),
/* organization */ (''),
/* preprocessor_version */ 'ST-DEVELOPER v20.1',
/* originating_system */ 'Autodesk Translation Framework v14.21.0.0',
/* authorisation */ '');

FILE_SCHEMA (('AUTOMOTIVE_DESIGN { 1 0 10303 214 3 1 1 }'));
ENDSEC;

DATA;
#10=MECHANICAL_DESIGN_GEOMETRIC_PRESENTATION_REPRESENTATION('',(#13),#1659);
#11=SHAPE_REPRESENTATION_RELATIONSHIP('SRR','None',#1666,#12);
#12=ADVANCED_BREP_SHAPE_REPRESENTATION('',(#14),#1658);
#13=STYLED_ITEM('',(#1676),#14);
#14=MANIFOLD_SOLID_BREP('FC Plate',#947);
#15=FACE_BOUND('',#162,.T.);
#16=FACE_BOUND('',#163,.T.);
#17=FACE_BOUND('',#164,.T.);
#18=FACE_BOUND('',#165,.T.);
#19=FACE_BOUND('',#166,.T.);
#20=FACE_BOUND('',#167,.T.);
#21=FACE_BOUND('',#168,.T.);
#22=FACE_BOUND('',#169,.T.);
#23=FACE_BOUND('',#170,.T.);
#24=FACE_BOUND('',#171,.T.);
#25=FACE_BOUND('',#172,.T.);
#26=FACE_BOUND('',#173,.T.);
#27=FACE_BOUND('',#174,.T.);
#28=FACE_BOUND('',#175,.T.);
#29=FACE_BOUND('',#176,.T.);
#30=FACE_BOUND('',#179,.T.);
#31=FACE_BOUND('',#180,.T.);
#32=FACE_BOUND('',#181,.T.);
#33=FACE_BOUND('',#182,.T.);
#34=FACE_BOUND('',#183,.T.);
#35=FACE_BOUND('',#184,.T.);
#36=FACE_BOUND('',#185,.T.);
#37=FACE_BOUND('',#186,.T.);
#38=FACE_BOUND('',#187,.T.);
#39=FACE_BOUND('',#188,.T.);
#40=FACE_BOUND('',#189,.T.);
#41=FACE_BOUND('',#190,.T.);
#42=FACE_BOUND('',#191,.T.);
#43=FACE_BOUND('',#192,.T.);
#44=FACE_BOUND('',#193,.T.);
#45=B_SPLINE_SURFACE_WITH_KNOTS('',3,3,((#1585,#1586,#1587,#1588),(#1589,
#1590,#1591,#1592),(#1593,#1594,#1595,#1596),(#1597,#1598,#1599,#1600)),
 .UNSPECIFIED.,.F.,.F.,.F.,(4,4),(4,4),(0.863322719820813,1.0008910578717),
(0.0371205703424416,0.210495151614655),.UNSPECIFIED.);
#46=B_SPLINE_SURFACE_WITH_KNOTS('',3,3,((#1640,#1641,#1642,#1643),(#1644,
#1645,#1646,#1647),(#1648,#1649,#1650,#1651),(#1652,#1653,#1654,#1655)),
 .UNSPECIFIED.,.F.,.F.,.F.,(4,4),(4,4),(-0.000891057871702086,0.136677280179188),
(0.0371205703602857,0.210495151614655),.UNSPECIFIED.);
#47=B_SPLINE_CURVE_WITH_KNOTS('',3,(#1337,#1338,#1339,#1340,#1341,#1342,
#1343),.UNSPECIFIED.,.F.,.F.,(4,3,4),(-0.355420931055247,-0.269258281102471,
-0.0538516562204998),.UNSPECIFIED.);
#48=B_SPLINE_CURVE_WITH_KNOTS('',3,(#1361,#1362,#1363,#1364,#1365,#1366,
#1367),.UNSPECIFIED.,.F.,.F.,(4,3,4),(-0.269258281102456,-0.0538516562204853,
0.0323109937322907),.UNSPECIFIED.);
#49=B_SPLINE_CURVE_WITH_KNOTS('',3,(#1602,#1603,#1604,#1605),
 .UNSPECIFIED.,.F.,.F.,(4,4),(-5.02396401785706,-0.0500576203423747),
 .UNSPECIFIED.);
#50=B_SPLINE_CURVE_WITH_KNOTS('',3,(#1607,#1608,#1609,#1610),
 .UNSPECIFIED.,.F.,.F.,(4,4),(-6.91912847619452,-1.22421210271942),
 .UNSPECIFIED.);
#51=B_SPLINE_CURVE_WITH_KNOTS('',3,(#1611,#1612,#1613,#1614,#1615,#1616,
#1617),.UNSPECIFIED.,.F.,.F.,(4,3,4),(-0.355420877563708,-0.269258240578566,
-0.0538516481157129),.UNSPECIFIED.);
#52=B_SPLINE_CURVE_WITH_KNOTS('',3,(#1620,#1621,#1622,#1623),
 .UNSPECIFIED.,.F.,.F.,(4,4),(-18.9201953818245,-14.8945447363507),
 .UNSPECIFIED.);
#53=B_SPLINE_CURVE_WITH_KNOTS('',3,(#1627,#1628,#1629,#1630,#1631,#1632,
#1633),.UNSPECIFIED.,.F.,.F.,(4,3,4),(-0.269258240578566,-0.0538516481157131,
0.0323109888694278),.UNSPECIFIED.);
#54=B_SPLINE_CURVE_WITH_KNOTS('',3,(#1636,#1637,#1638,#1639),
 .UNSPECIFIED.,.F.,.F.,(4,4),(-5.006684399351,-0.0499896561072381),
 .UNSPECIFIED.);
#55=PLANE('',#964);
#56=PLANE('',#965);
#57=PLANE('',#969);
#58=PLANE('',#976);
#59=PLANE('',#980);
#60=PLANE('',#984);
#61=PLANE('',#988);
#62=PLANE('',#1004);
#63=PLANE('',#1008);
#64=PLANE('',#1012);
#65=PLANE('',#1016);
#66=PLANE('',#1041);
#67=PLANE('',#1045);
#68=PLANE('',#1049);
#69=PLANE('',#1053);
#70=PLANE('',#1054);
#71=PLANE('',#1055);
#72=PLANE('',#1056);
#73=FACE_OUTER_BOUND('',#119,.T.);
#74=FACE_OUTER_BOUND('',#120,.T.);
#75=FACE_OUTER_BOUND('',#121,.T.);
#76=FACE_OUTER_BOUND('',#122,.T.);
#77=FACE_OUTER_BOUND('',#123,.T.);
#78=FACE_OUTER_BOUND('',#124,.T.);
#79=FACE_OUTER_BOUND('',#125,.T.);
#80=FACE_OUTER_BOUND('',#126,.T.);
#81=FACE_OUTER_BOUND('',#127,.T.);
#82=FACE_OUTER_BOUND('',#128,.T.);
#83=FACE_OUTER_BOUND('',#129,.T.);
#84=FACE_OUTER_BOUND('',#130,.T.);
#85=FACE_OUTER_BOUND('',#131,.T.);
#86=FACE_OUTER_BOUND('',#132,.T.);
#87=FACE_OUTER_BOUND('',#133,.T.);
#88=FACE_OUTER_BOUND('',#134,.T.);
#89=FACE_OUTER_BOUND('',#135,.T.);
#90=FACE_OUTER_BOUND('',#136,.T.);
#91=FACE_OUTER_BOUND('',#137,.T.);
#92=FACE_OUTER_BOUND('',#138,.T.);
#93=FACE_OUTER_BOUND('',#139,.T.);
#94=FACE_OUTER_BOUND('',#140,.T.);
#95=FACE_OUTER_BOUND('',#141,.T.);
#96=FACE_OUTER_BOUND('',#142,.T.);
#97=FACE_OUTER_BOUND('',#143,.T.);
#98=FACE_OUTER_BOUND('',#144,.T.);
#99=FACE_OUTER_BOUND('',#145,.T.);
#100=FACE_OUTER_BOUND('',#146,.T.);
#101=FACE_OUTER_BOUND('',#147,.T.);
#102=FACE_OUTER_BOUND('',#148,.T.);
#103=FACE_OUTER_BOUND('',#149,.T.);
#104=FACE_OUTER_BOUND('',#150,.T.);
#105=FACE_OUTER_BOUND('',#151,.T.);
#106=FACE_OUTER_BOUND('',#152,.T.);
#107=FACE_OUTER_BOUND('',#153,.T.);
#108=FACE_OUTER_BOUND('',#154,.T.);
#109=FACE_OUTER_BOUND('',#155,.T.);
#110=FACE_OUTER_BOUND('',#156,.T.);
#111=FACE_OUTER_BOUND('',#157,.T.);
#112=FACE_OUTER_BOUND('',#158,.T.);
#113=FACE_OUTER_BOUND('',#159,.T.);
#114=FACE_OUTER_BOUND('',#160,.T.);
#115=FACE_OUTER_BOUND('',#161,.T.);
#116=FACE_OUTER_BOUND('',#177,.T.);
#117=FACE_OUTER_BOUND('',#178,.T.);
#118=FACE_OUTER_BOUND('',#194,.T.);
#119=EDGE_LOOP('',(#611,#612,#613,#614));
#120=EDGE_LOOP('',(#615,#616,#617,#618));
#121=EDGE_LOOP('',(#619,#620,#621,#622));
#122=EDGE_LOOP('',(#623,#624,#625,#626));
#123=EDGE_LOOP('',(#627,#628,#629,#630));
#124=EDGE_LOOP('',(#631,#632,#633,#634));
#125=EDGE_LOOP('',(#635,#636,#637,#638));
#126=EDGE_LOOP('',(#639,#640,#641,#642));
#127=EDGE_LOOP('',(#643,#644,#645,#646));
#128=EDGE_LOOP('',(#647,#648,#649,#650));
#129=EDGE_LOOP('',(#651,#652,#653,#654));
#130=EDGE_LOOP('',(#655,#656,#657,#658));
#131=EDGE_LOOP('',(#659,#660,#661,#662));
#132=EDGE_LOOP('',(#663,#664,#665,#666));
#133=EDGE_LOOP('',(#667,#668,#669,#670));
#134=EDGE_LOOP('',(#671,#672,#673,#674));
#135=EDGE_LOOP('',(#675,#676,#677,#678));
#136=EDGE_LOOP('',(#679,#680,#681,#682));
#137=EDGE_LOOP('',(#683,#684,#685,#686));
#138=EDGE_LOOP('',(#687,#688,#689,#690));
#139=EDGE_LOOP('',(#691,#692,#693,#694));
#140=EDGE_LOOP('',(#695,#696,#697,#698));
#141=EDGE_LOOP('',(#699,#700,#701,#702));
#142=EDGE_LOOP('',(#703,#704,#705,#706));
#143=EDGE_LOOP('',(#707,#708,#709,#710));
#144=EDGE_LOOP('',(#711,#712,#713,#714));
#145=EDGE_LOOP('',(#715,#716,#717,#718));
#146=EDGE_LOOP('',(#719,#720,#721,#722));
#147=EDGE_LOOP('',(#723,#724,#725,#726));
#148=EDGE_LOOP('',(#727,#728,#729,#730));
#149=EDGE_LOOP('',(#731,#732,#733,#734));
#150=EDGE_LOOP('',(#735,#736,#737,#738));
#151=EDGE_LOOP('',(#739,#740,#741,#742));
#152=EDGE_LOOP('',(#743,#744,#745,#746));
#153=EDGE_LOOP('',(#747,#748,#749,#750));
#154=EDGE_LOOP('',(#751,#752,#753,#754));
#155=EDGE_LOOP('',(#755,#756,#757,#758));
#156=EDGE_LOOP('',(#759,#760,#761,#762));
#157=EDGE_LOOP('',(#763,#764,#765,#766));
#158=EDGE_LOOP('',(#767,#768,#769,#770));
#159=EDGE_LOOP('',(#771,#772,#773,#774));
#160=EDGE_LOOP('',(#775,#776,#777,#778));
#161=EDGE_LOOP('',(#779,#780,#781,#782,#783,#784,#785,#786));
#162=EDGE_LOOP('',(#787));
#163=EDGE_LOOP('',(#788));
#164=EDGE_LOOP('',(#789,#790,#791,#792,#793,#794,#795,#796));
#165=EDGE_LOOP('',(#797));
#166=EDGE_LOOP('',(#798));
#167=EDGE_LOOP('',(#799));
#168=EDGE_LOOP('',(#800));
#169=EDGE_LOOP('',(#801,#802,#803,#804,#805,#806,#807,#808));
#170=EDGE_LOOP('',(#809));
#171=EDGE_LOOP('',(#810));
#172=EDGE_LOOP('',(#811));
#173=EDGE_LOOP('',(#812));
#174=EDGE_LOOP('',(#813));
#175=EDGE_LOOP('',(#814));
#176=EDGE_LOOP('',(#815,#816,#817,#818,#819,#820,#821,#822));
#177=EDGE_LOOP('',(#823,#824,#825,#826));
#178=EDGE_LOOP('',(#827,#828,#829,#830,#831,#832,#833,#834));
#179=EDGE_LOOP('',(#835));
#180=EDGE_LOOP('',(#836));
#181=EDGE_LOOP('',(#837,#838,#839,#840,#841,#842,#843,#844));
#182=EDGE_LOOP('',(#845));
#183=EDGE_LOOP('',(#846));
#184=EDGE_LOOP('',(#847));
#185=EDGE_LOOP('',(#848));
#186=EDGE_LOOP('',(#849,#850,#851,#852,#853,#854,#855,#856));
#187=EDGE_LOOP('',(#857));
#188=EDGE_LOOP('',(#858));
#189=EDGE_LOOP('',(#859));
#190=EDGE_LOOP('',(#860));
#191=EDGE_LOOP('',(#861));
#192=EDGE_LOOP('',(#862));
#193=EDGE_LOOP('',(#863,#864,#865,#866,#867,#868,#869,#870));
#194=EDGE_LOOP('',(#871,#872,#873,#874));
#195=LINE('',#1329,#267);
#196=LINE('',#1332,#268);
#197=LINE('',#1335,#269);
#198=LINE('',#1344,#270);
#199=LINE('',#1347,#271);
#200=LINE('',#1349,#272);
#201=LINE('',#1350,#273);
#202=LINE('',#1356,#274);
#203=LINE('',#1359,#275);
#204=LINE('',#1368,#276);
#205=LINE('',#1373,#277);
#206=LINE('',#1379,#278);
#207=LINE('',#1384,#279);
#208=LINE('',#1386,#280);
#209=LINE('',#1388,#281);
#210=LINE('',#1389,#282);
#211=LINE('',#1395,#283);
#212=LINE('',#1398,#284);
#213=LINE('',#1400,#285);
#214=LINE('',#1401,#286);
#215=LINE('',#1407,#287);
#216=LINE('',#1410,#288);
#217=LINE('',#1412,#289);
#218=LINE('',#1413,#290);
#219=LINE('',#1419,#291);
#220=LINE('',#1422,#292);
#221=LINE('',#1424,#293);
#222=LINE('',#1425,#294);
#223=LINE('',#1433,#295);
#224=LINE('',#1439,#296);
#225=LINE('',#1445,#297);
#226=LINE('',#1451,#298);
#227=LINE('',#1456,#299);
#228=LINE('',#1458,#300);
#229=LINE('',#1460,#301);
#230=LINE('',#1461,#302);
#231=LINE('',#1467,#303);
#232=LINE('',#1470,#304);
#233=LINE('',#1472,#305);
#234=LINE('',#1473,#306);
#235=LINE('',#1479,#307);
#236=LINE('',#1482,#308);
#237=LINE('',#1484,#309);
#238=LINE('',#1485,#310);
#239=LINE('',#1491,#311);
#240=LINE('',#1494,#312);
#241=LINE('',#1496,#313);
#242=LINE('',#1497,#314);
#243=LINE('',#1505,#315);
#244=LINE('',#1511,#316);
#245=LINE('',#1517,#317);
#246=LINE('',#1523,#318);
#247=LINE('',#1529,#319);
#248=LINE('',#1535,#320);
#249=LINE('',#1542,#321);
#250=LINE('',#1545,#322);
#251=LINE('',#1548,#323);
#252=LINE('',#1550,#324);
#253=LINE('',#1551,#325);
#254=LINE('',#1557,#326);
#255=LINE('',#1560,#327);
#256=LINE('',#1562,#328);
#257=LINE('',#1563,#329);
#258=LINE('',#1569,#330);
#259=LINE('',#1572,#331);
#260=LINE('',#1574,#332);
#261=LINE('',#1575,#333);
#262=LINE('',#1581,#334);
#263=LINE('',#1583,#335);
#264=LINE('',#1584,#336);
#265=LINE('',#1624,#337);
#266=LINE('',#1634,#338);
#267=VECTOR('',#1063,10.);
#268=VECTOR('',#1066,10.);
#269=VECTOR('',#1069,10.);
#270=VECTOR('',#1070,10.);
#271=VECTOR('',#1073,10.);
#272=VECTOR('',#1074,10.);
#273=VECTOR('',#1075,10.);
#274=VECTOR('',#1082,10.);
#275=VECTOR('',#1085,10.);
#276=VECTOR('',#1086,10.);
#277=VECTOR('',#1091,1.65);
#278=VECTOR('',#1098,1.65);
#279=VECTOR('',#1103,10.);
#280=VECTOR('',#1104,10.);
#281=VECTOR('',#1105,10.);
#282=VECTOR('',#1106,10.);
#283=VECTOR('',#1113,10.);
#284=VECTOR('',#1116,10.);
#285=VECTOR('',#1117,10.);
#286=VECTOR('',#1118,10.);
#287=VECTOR('',#1125,10.);
#288=VECTOR('',#1128,10.);
#289=VECTOR('',#1129,10.);
#290=VECTOR('',#1130,10.);
#291=VECTOR('',#1137,10.);
#292=VECTOR('',#1140,10.);
#293=VECTOR('',#1141,10.);
#294=VECTOR('',#1142,10.);
#295=VECTOR('',#1153,1.6);
#296=VECTOR('',#1160,1.6);
#297=VECTOR('',#1167,1.65);
#298=VECTOR('',#1174,1.65);
#299=VECTOR('',#1179,10.);
#300=VECTOR('',#1180,10.);
#301=VECTOR('',#1181,10.);
#302=VECTOR('',#1182,10.);
#303=VECTOR('',#1189,10.);
#304=VECTOR('',#1192,10.);
#305=VECTOR('',#1193,10.);
#306=VECTOR('',#1194,10.);
#307=VECTOR('',#1201,10.);
#308=VECTOR('',#1204,10.);
#309=VECTOR('',#1205,10.);
#310=VECTOR('',#1206,10.);
#311=VECTOR('',#1213,10.);
#312=VECTOR('',#1216,10.);
#313=VECTOR('',#1217,10.);
#314=VECTOR('',#1218,10.);
#315=VECTOR('',#1229,1.65);
#316=VECTOR('',#1236,1.65);
#317=VECTOR('',#1243,1.6);
#318=VECTOR('',#1250,1.60000000000001);
#319=VECTOR('',#1257,1.65);
#320=VECTOR('',#1264,1.65);
#321=VECTOR('',#1271,10.);
#322=VECTOR('',#1274,10.);
#323=VECTOR('',#1277,10.);
#324=VECTOR('',#1278,10.);
#325=VECTOR('',#1279,10.);
#326=VECTOR('',#1286,10.);
#327=VECTOR('',#1289,10.);
#328=VECTOR('',#1290,10.);
#329=VECTOR('',#1291,10.);
#330=VECTOR('',#1298,10.);
#331=VECTOR('',#1301,10.);
#332=VECTOR('',#1302,10.);
#333=VECTOR('',#1303,10.);
#334=VECTOR('',#1310,10.);
#335=VECTOR('',#1313,10.);
#336=VECTOR('',#1314,10.);
#337=VECTOR('',#1317,10.);
#338=VECTOR('',#1320,10.);
#339=CIRCLE('',#962,5.49999930181496);
#340=CIRCLE('',#963,5.49999930181496);
#341=CIRCLE('',#967,4.99999999999999);
#342=CIRCLE('',#968,4.99999999999999);
#343=CIRCLE('',#971,1.65);
#344=CIRCLE('',#972,1.65);
#345=CIRCLE('',#974,1.65);
#346=CIRCLE('',#975,1.65);
#347=CIRCLE('',#978,3.);
#348=CIRCLE('',#979,3.);
#349=CIRCLE('',#982,4.);
#350=CIRCLE('',#983,4.);
#351=CIRCLE('',#986,3.99999999999999);
#352=CIRCLE('',#987,3.99999999999999);
#353=CIRCLE('',#990,3.);
#354=CIRCLE('',#991,3.);
#355=CIRCLE('',#993,1.6);
#356=CIRCLE('',#994,1.6);
#357=CIRCLE('',#996,1.6);
#358=CIRCLE('',#997,1.6);
#359=CIRCLE('',#999,1.65);
#360=CIRCLE('',#1000,1.65);
#361=CIRCLE('',#1002,1.65);
#362=CIRCLE('',#1003,1.65);
#363=CIRCLE('',#1006,5.);
#364=CIRCLE('',#1007,5.);
#365=CIRCLE('',#1010,4.99999999999999);
#366=CIRCLE('',#1011,4.99999999999999);
#367=CIRCLE('',#1014,4.99999999999999);
#368=CIRCLE('',#1015,4.99999999999999);
#369=CIRCLE('',#1018,5.);
#370=CIRCLE('',#1019,5.);
#371=CIRCLE('',#1021,1.65);
#372=CIRCLE('',#1022,1.65);
#373=CIRCLE('',#1024,1.65);
#374=CIRCLE('',#1025,1.65);
#375=CIRCLE('',#1027,1.6);
#376=CIRCLE('',#1028,1.6);
#377=CIRCLE('',#1030,1.60000000000001);
#378=CIRCLE('',#1031,1.60000000000001);
#379=CIRCLE('',#1033,1.65);
#380=CIRCLE('',#1034,1.65);
#381=CIRCLE('',#1036,1.65);
#382=CIRCLE('',#1037,1.65);
#383=CIRCLE('',#1039,5.);
#384=CIRCLE('',#1040,5.);
#385=CIRCLE('',#1043,5.);
#386=CIRCLE('',#1044,5.);
#387=CIRCLE('',#1047,4.99999999999999);
#388=CIRCLE('',#1048,4.99999999999999);
#389=CIRCLE('',#1051,4.99999999999999);
#390=CIRCLE('',#1052,4.99999999999999);
#391=VERTEX_POINT('',#1325);
#392=VERTEX_POINT('',#1326);
#393=VERTEX_POINT('',#1328);
#394=VERTEX_POINT('',#1330);
#395=VERTEX_POINT('',#1334);
#396=VERTEX_POINT('',#1336);
#397=VERTEX_POINT('',#1346);
#398=VERTEX_POINT('',#1348);
#399=VERTEX_POINT('',#1352);
#400=VERTEX_POINT('',#1354);
#401=VERTEX_POINT('',#1358);
#402=VERTEX_POINT('',#1360);
#403=VERTEX_POINT('',#1370);
#404=VERTEX_POINT('',#1372);
#405=VERTEX_POINT('',#1376);
#406=VERTEX_POINT('',#1378);
#407=VERTEX_POINT('',#1382);
#408=VERTEX_POINT('',#1383);
#409=VERTEX_POINT('',#1385);
#410=VERTEX_POINT('',#1387);
#411=VERTEX_POINT('',#1391);
#412=VERTEX_POINT('',#1393);
#413=VERTEX_POINT('',#1397);
#414=VERTEX_POINT('',#1399);
#415=VERTEX_POINT('',#1403);
#416=VERTEX_POINT('',#1405);
#417=VERTEX_POINT('',#1409);
#418=VERTEX_POINT('',#1411);
#419=VERTEX_POINT('',#1415);
#420=VERTEX_POINT('',#1417);
#421=VERTEX_POINT('',#1421);
#422=VERTEX_POINT('',#1423);
#423=VERTEX_POINT('',#1430);
#424=VERTEX_POINT('',#1432);
#425=VERTEX_POINT('',#1436);
#426=VERTEX_POINT('',#1438);
#427=VERTEX_POINT('',#1442);
#428=VERTEX_POINT('',#1444);
#429=VERTEX_POINT('',#1448);
#430=VERTEX_POINT('',#1450);
#431=VERTEX_POINT('',#1454);
#432=VERTEX_POINT('',#1455);
#433=VERTEX_POINT('',#1457);
#434=VERTEX_POINT('',#1459);
#435=VERTEX_POINT('',#1463);
#436=VERTEX_POINT('',#1465);
#437=VERTEX_POINT('',#1469);
#438=VERTEX_POINT('',#1471);
#439=VERTEX_POINT('',#1475);
#440=VERTEX_POINT('',#1477);
#441=VERTEX_POINT('',#1481);
#442=VERTEX_POINT('',#1483);
#443=VERTEX_POINT('',#1487);
#444=VERTEX_POINT('',#1489);
#445=VERTEX_POINT('',#1493);
#446=VERTEX_POINT('',#1495);
#447=VERTEX_POINT('',#1502);
#448=VERTEX_POINT('',#1504);
#449=VERTEX_POINT('',#1508);
#450=VERTEX_POINT('',#1510);
#451=VERTEX_POINT('',#1514);
#452=VERTEX_POINT('',#1516);
#453=VERTEX_POINT('',#1520);
#454=VERTEX_POINT('',#1522);
#455=VERTEX_POINT('',#1526);
#456=VERTEX_POINT('',#1528);
#457=VERTEX_POINT('',#1532);
#458=VERTEX_POINT('',#1534);
#459=VERTEX_POINT('',#1538);
#460=VERTEX_POINT('',#1539);
#461=VERTEX_POINT('',#1541);
#462=VERTEX_POINT('',#1543);
#463=VERTEX_POINT('',#1547);
#464=VERTEX_POINT('',#1549);
#465=VERTEX_POINT('',#1553);
#466=VERTEX_POINT('',#1555);
#467=VERTEX_POINT('',#1559);
#468=VERTEX_POINT('',#1561);
#469=VERTEX_POINT('',#1565);
#470=VERTEX_POINT('',#1567);
#471=VERTEX_POINT('',#1571);
#472=VERTEX_POINT('',#1573);
#473=VERTEX_POINT('',#1577);
#474=VERTEX_POINT('',#1579);
#475=VERTEX_POINT('',#1601);
#476=VERTEX_POINT('',#1606);
#477=VERTEX_POINT('',#1619);
#478=VERTEX_POINT('',#1626);
#479=EDGE_CURVE('',#391,#392,#339,.T.);
#480=EDGE_CURVE('',#393,#392,#195,.T.);
#481=EDGE_CURVE('',#394,#393,#340,.T.);
#482=EDGE_CURVE('',#391,#394,#196,.T.);
#483=EDGE_CURVE('',#392,#395,#197,.T.);
#484=EDGE_CURVE('',#396,#395,#47,.T.);
#485=EDGE_CURVE('',#396,#393,#198,.F.);
#486=EDGE_CURVE('',#394,#397,#199,.F.);
#487=EDGE_CURVE('',#397,#398,#200,.T.);
#488=EDGE_CURVE('',#398,#391,#201,.T.);
#489=EDGE_CURVE('',#399,#398,#341,.T.);
#490=EDGE_CURVE('',#400,#397,#342,.T.);
#491=EDGE_CURVE('',#399,#400,#202,.T.);
#492=EDGE_CURVE('',#400,#401,#203,.F.);
#493=EDGE_CURVE('',#402,#401,#48,.T.);
#494=EDGE_CURVE('',#402,#399,#204,.T.);
#495=EDGE_CURVE('',#403,#403,#343,.F.);
#496=EDGE_CURVE('',#403,#404,#205,.T.);
#497=EDGE_CURVE('',#404,#404,#344,.T.);
#498=EDGE_CURVE('',#405,#405,#345,.F.);
#499=EDGE_CURVE('',#405,#406,#206,.T.);
#500=EDGE_CURVE('',#406,#406,#346,.T.);
#501=EDGE_CURVE('',#407,#408,#207,.T.);
#502=EDGE_CURVE('',#409,#407,#208,.T.);
#503=EDGE_CURVE('',#410,#409,#209,.F.);
#504=EDGE_CURVE('',#410,#408,#210,.T.);
#505=EDGE_CURVE('',#408,#411,#347,.T.);
#506=EDGE_CURVE('',#412,#410,#348,.F.);
#507=EDGE_CURVE('',#412,#411,#211,.T.);
#508=EDGE_CURVE('',#411,#413,#212,.T.);
#509=EDGE_CURVE('',#414,#412,#213,.F.);
#510=EDGE_CURVE('',#414,#413,#214,.T.);
#511=EDGE_CURVE('',#413,#415,#349,.T.);
#512=EDGE_CURVE('',#416,#414,#350,.F.);
#513=EDGE_CURVE('',#416,#415,#215,.T.);
#514=EDGE_CURVE('',#415,#417,#216,.T.);
#515=EDGE_CURVE('',#418,#416,#217,.F.);
#516=EDGE_CURVE('',#418,#417,#218,.T.);
#517=EDGE_CURVE('',#417,#419,#351,.T.);
#518=EDGE_CURVE('',#420,#418,#352,.F.);
#519=EDGE_CURVE('',#420,#419,#219,.T.);
#520=EDGE_CURVE('',#419,#421,#220,.T.);
#521=EDGE_CURVE('',#422,#420,#221,.F.);
#522=EDGE_CURVE('',#422,#421,#222,.T.);
#523=EDGE_CURVE('',#421,#407,#353,.T.);
#524=EDGE_CURVE('',#409,#422,#354,.F.);
#525=EDGE_CURVE('',#423,#423,#355,.F.);
#526=EDGE_CURVE('',#423,#424,#223,.T.);
#527=EDGE_CURVE('',#424,#424,#356,.T.);
#528=EDGE_CURVE('',#425,#425,#357,.F.);
#529=EDGE_CURVE('',#425,#426,#224,.T.);
#530=EDGE_CURVE('',#426,#426,#358,.T.);
#531=EDGE_CURVE('',#427,#427,#359,.F.);
#532=EDGE_CURVE('',#427,#428,#225,.T.);
#533=EDGE_CURVE('',#428,#428,#360,.T.);
#534=EDGE_CURVE('',#429,#429,#361,.F.);
#535=EDGE_CURVE('',#429,#430,#226,.T.);
#536=EDGE_CURVE('',#430,#430,#362,.T.);
#537=EDGE_CURVE('',#431,#432,#227,.T.);
#538=EDGE_CURVE('',#433,#431,#228,.T.);
#539=EDGE_CURVE('',#434,#433,#229,.F.);
#540=EDGE_CURVE('',#434,#432,#230,.T.);
#541=EDGE_CURVE('',#432,#435,#363,.T.);
#542=EDGE_CURVE('',#436,#434,#364,.F.);
#543=EDGE_CURVE('',#436,#435,#231,.T.);
#544=EDGE_CURVE('',#435,#437,#232,.T.);
#545=EDGE_CURVE('',#438,#436,#233,.F.);
#546=EDGE_CURVE('',#438,#437,#234,.T.);
#547=EDGE_CURVE('',#437,#439,#365,.T.);
#548=EDGE_CURVE('',#440,#438,#366,.F.);
#549=EDGE_CURVE('',#440,#439,#235,.T.);
#550=EDGE_CURVE('',#439,#441,#236,.T.);
#551=EDGE_CURVE('',#442,#440,#237,.F.);
#552=EDGE_CURVE('',#442,#441,#238,.T.);
#553=EDGE_CURVE('',#441,#443,#367,.T.);
#554=EDGE_CURVE('',#444,#442,#368,.F.);
#555=EDGE_CURVE('',#444,#443,#239,.T.);
#556=EDGE_CURVE('',#443,#445,#240,.T.);
#557=EDGE_CURVE('',#446,#444,#241,.F.);
#558=EDGE_CURVE('',#446,#445,#242,.T.);
#559=EDGE_CURVE('',#445,#431,#369,.T.);
#560=EDGE_CURVE('',#433,#446,#370,.F.);
#561=EDGE_CURVE('',#447,#447,#371,.F.);
#562=EDGE_CURVE('',#447,#448,#243,.T.);
#563=EDGE_CURVE('',#448,#448,#372,.T.);
#564=EDGE_CURVE('',#449,#449,#373,.F.);
#565=EDGE_CURVE('',#449,#450,#244,.T.);
#566=EDGE_CURVE('',#450,#450,#374,.T.);
#567=EDGE_CURVE('',#451,#451,#375,.F.);
#568=EDGE_CURVE('',#451,#452,#245,.T.);
#569=EDGE_CURVE('',#452,#452,#376,.T.);
#570=EDGE_CURVE('',#453,#453,#377,.F.);
#571=EDGE_CURVE('',#453,#454,#246,.T.);
#572=EDGE_CURVE('',#454,#454,#378,.T.);
#573=EDGE_CURVE('',#455,#455,#379,.F.);
#574=EDGE_CURVE('',#455,#456,#247,.T.);
#575=EDGE_CURVE('',#456,#456,#380,.T.);
#576=EDGE_CURVE('',#457,#457,#381,.F.);
#577=EDGE_CURVE('',#457,#458,#248,.T.);
#578=EDGE_CURVE('',#458,#458,#382,.T.);
#579=EDGE_CURVE('',#459,#460,#383,.T.);
#580=EDGE_CURVE('',#461,#459,#249,.T.);
#581=EDGE_CURVE('',#462,#461,#384,.F.);
#582=EDGE_CURVE('',#462,#460,#250,.T.);
#583=EDGE_CURVE('',#460,#463,#251,.T.);
#584=EDGE_CURVE('',#464,#462,#252,.F.);
#585=EDGE_CURVE('',#464,#463,#253,.T.);
#586=EDGE_CURVE('',#463,#465,#385,.T.);
#587=EDGE_CURVE('',#466,#464,#386,.F.);
#588=EDGE_CURVE('',#466,#465,#254,.T.);
#589=EDGE_CURVE('',#465,#467,#255,.T.);
#590=EDGE_CURVE('',#468,#466,#256,.F.);
#591=EDGE_CURVE('',#468,#467,#257,.T.);
#592=EDGE_CURVE('',#467,#469,#387,.T.);
#593=EDGE_CURVE('',#470,#468,#388,.F.);
#594=EDGE_CURVE('',#470,#469,#258,.T.);
#595=EDGE_CURVE('',#469,#471,#259,.T.);
#596=EDGE_CURVE('',#472,#470,#260,.F.);
#597=EDGE_CURVE('',#472,#471,#261,.T.);
#598=EDGE_CURVE('',#471,#473,#389,.T.);
#599=EDGE_CURVE('',#474,#472,#390,.F.);
#600=EDGE_CURVE('',#474,#473,#262,.T.);
#601=EDGE_CURVE('',#473,#459,#263,.T.);
#602=EDGE_CURVE('',#461,#474,#264,.F.);
#603=EDGE_CURVE('',#475,#402,#49,.T.);
#604=EDGE_CURVE('',#401,#476,#50,.T.);
#605=EDGE_CURVE('',#476,#475,#51,.T.);
#606=EDGE_CURVE('',#477,#396,#52,.T.);
#607=EDGE_CURVE('',#476,#477,#265,.F.);
#608=EDGE_CURVE('',#478,#477,#53,.T.);
#609=EDGE_CURVE('',#475,#478,#266,.T.);
#610=EDGE_CURVE('',#395,#478,#54,.T.);
#611=ORIENTED_EDGE('',*,*,#479,.T.);
#612=ORIENTED_EDGE('',*,*,#480,.F.);
#613=ORIENTED_EDGE('',*,*,#481,.F.);
#614=ORIENTED_EDGE('',*,*,#482,.F.);
#615=ORIENTED_EDGE('',*,*,#480,.T.);
#616=ORIENTED_EDGE('',*,*,#483,.T.);
#617=ORIENTED_EDGE('',*,*,#484,.F.);
#618=ORIENTED_EDGE('',*,*,#485,.T.);
#619=ORIENTED_EDGE('',*,*,#482,.T.);
#620=ORIENTED_EDGE('',*,*,#486,.T.);
#621=ORIENTED_EDGE('',*,*,#487,.T.);
#622=ORIENTED_EDGE('',*,*,#488,.T.);
#623=ORIENTED_EDGE('',*,*,#489,.T.);
#624=ORIENTED_EDGE('',*,*,#487,.F.);
#625=ORIENTED_EDGE('',*,*,#490,.F.);
#626=ORIENTED_EDGE('',*,*,#491,.F.);
#627=ORIENTED_EDGE('',*,*,#491,.T.);
#628=ORIENTED_EDGE('',*,*,#492,.T.);
#629=ORIENTED_EDGE('',*,*,#493,.F.);
#630=ORIENTED_EDGE('',*,*,#494,.T.);
#631=ORIENTED_EDGE('',*,*,#495,.F.);
#632=ORIENTED_EDGE('',*,*,#496,.T.);
#633=ORIENTED_EDGE('',*,*,#497,.F.);
#634=ORIENTED_EDGE('',*,*,#496,.F.);
#635=ORIENTED_EDGE('',*,*,#498,.F.);
#636=ORIENTED_EDGE('',*,*,#499,.T.);
#637=ORIENTED_EDGE('',*,*,#500,.F.);
#638=ORIENTED_EDGE('',*,*,#499,.F.);
#639=ORIENTED_EDGE('',*,*,#501,.F.);
#640=ORIENTED_EDGE('',*,*,#502,.F.);
#641=ORIENTED_EDGE('',*,*,#503,.F.);
#642=ORIENTED_EDGE('',*,*,#504,.T.);
#643=ORIENTED_EDGE('',*,*,#505,.F.);
#644=ORIENTED_EDGE('',*,*,#504,.F.);
#645=ORIENTED_EDGE('',*,*,#506,.F.);
#646=ORIENTED_EDGE('',*,*,#507,.T.);
#647=ORIENTED_EDGE('',*,*,#508,.F.);
#648=ORIENTED_EDGE('',*,*,#507,.F.);
#649=ORIENTED_EDGE('',*,*,#509,.F.);
#650=ORIENTED_EDGE('',*,*,#510,.T.);
#651=ORIENTED_EDGE('',*,*,#511,.F.);
#652=ORIENTED_EDGE('',*,*,#510,.F.);
#653=ORIENTED_EDGE('',*,*,#512,.F.);
#654=ORIENTED_EDGE('',*,*,#513,.T.);
#655=ORIENTED_EDGE('',*,*,#514,.F.);
#656=ORIENTED_EDGE('',*,*,#513,.F.);
#657=ORIENTED_EDGE('',*,*,#515,.F.);
#658=ORIENTED_EDGE('',*,*,#516,.T.);
#659=ORIENTED_EDGE('',*,*,#517,.F.);
#660=ORIENTED_EDGE('',*,*,#516,.F.);
#661=ORIENTED_EDGE('',*,*,#518,.F.);
#662=ORIENTED_EDGE('',*,*,#519,.T.);
#663=ORIENTED_EDGE('',*,*,#520,.F.);
#664=ORIENTED_EDGE('',*,*,#519,.F.);
#665=ORIENTED_EDGE('',*,*,#521,.F.);
#666=ORIENTED_EDGE('',*,*,#522,.T.);
#667=ORIENTED_EDGE('',*,*,#523,.F.);
#668=ORIENTED_EDGE('',*,*,#522,.F.);
#669=ORIENTED_EDGE('',*,*,#524,.F.);
#670=ORIENTED_EDGE('',*,*,#502,.T.);
#671=ORIENTED_EDGE('',*,*,#525,.F.);
#672=ORIENTED_EDGE('',*,*,#526,.T.);
#673=ORIENTED_EDGE('',*,*,#527,.F.);
#674=ORIENTED_EDGE('',*,*,#526,.F.);
#675=ORIENTED_EDGE('',*,*,#528,.F.);
#676=ORIENTED_EDGE('',*,*,#529,.T.);
#677=ORIENTED_EDGE('',*,*,#530,.F.);
#678=ORIENTED_EDGE('',*,*,#529,.F.);
#679=ORIENTED_EDGE('',*,*,#531,.F.);
#680=ORIENTED_EDGE('',*,*,#532,.T.);
#681=ORIENTED_EDGE('',*,*,#533,.F.);
#682=ORIENTED_EDGE('',*,*,#532,.F.);
#683=ORIENTED_EDGE('',*,*,#534,.F.);
#684=ORIENTED_EDGE('',*,*,#535,.T.);
#685=ORIENTED_EDGE('',*,*,#536,.F.);
#686=ORIENTED_EDGE('',*,*,#535,.F.);
#687=ORIENTED_EDGE('',*,*,#537,.F.);
#688=ORIENTED_EDGE('',*,*,#538,.F.);
#689=ORIENTED_EDGE('',*,*,#539,.F.);
#690=ORIENTED_EDGE('',*,*,#540,.T.);
#691=ORIENTED_EDGE('',*,*,#541,.F.);
#692=ORIENTED_EDGE('',*,*,#540,.F.);
#693=ORIENTED_EDGE('',*,*,#542,.F.);
#694=ORIENTED_EDGE('',*,*,#543,.T.);
#695=ORIENTED_EDGE('',*,*,#544,.F.);
#696=ORIENTED_EDGE('',*,*,#543,.F.);
#697=ORIENTED_EDGE('',*,*,#545,.F.);
#698=ORIENTED_EDGE('',*,*,#546,.T.);
#699=ORIENTED_EDGE('',*,*,#547,.F.);
#700=ORIENTED_EDGE('',*,*,#546,.F.);
#701=ORIENTED_EDGE('',*,*,#548,.F.);
#702=ORIENTED_EDGE('',*,*,#549,.T.);
#703=ORIENTED_EDGE('',*,*,#550,.F.);
#704=ORIENTED_EDGE('',*,*,#549,.F.);
#705=ORIENTED_EDGE('',*,*,#551,.F.);
#706=ORIENTED_EDGE('',*,*,#552,.T.);
#707=ORIENTED_EDGE('',*,*,#553,.F.);
#708=ORIENTED_EDGE('',*,*,#552,.F.);
#709=ORIENTED_EDGE('',*,*,#554,.F.);
#710=ORIENTED_EDGE('',*,*,#555,.T.);
#711=ORIENTED_EDGE('',*,*,#556,.F.);
#712=ORIENTED_EDGE('',*,*,#555,.F.);
#713=ORIENTED_EDGE('',*,*,#557,.F.);
#714=ORIENTED_EDGE('',*,*,#558,.T.);
#715=ORIENTED_EDGE('',*,*,#559,.F.);
#716=ORIENTED_EDGE('',*,*,#558,.F.);
#717=ORIENTED_EDGE('',*,*,#560,.F.);
#718=ORIENTED_EDGE('',*,*,#538,.T.);
#719=ORIENTED_EDGE('',*,*,#561,.F.);
#720=ORIENTED_EDGE('',*,*,#562,.T.);
#721=ORIENTED_EDGE('',*,*,#563,.F.);
#722=ORIENTED_EDGE('',*,*,#562,.F.);
#723=ORIENTED_EDGE('',*,*,#564,.F.);
#724=ORIENTED_EDGE('',*,*,#565,.T.);
#725=ORIENTED_EDGE('',*,*,#566,.F.);
#726=ORIENTED_EDGE('',*,*,#565,.F.);
#727=ORIENTED_EDGE('',*,*,#567,.F.);
#728=ORIENTED_EDGE('',*,*,#568,.T.);
#729=ORIENTED_EDGE('',*,*,#569,.F.);
#730=ORIENTED_EDGE('',*,*,#568,.F.);
#731=ORIENTED_EDGE('',*,*,#570,.F.);
#732=ORIENTED_EDGE('',*,*,#571,.T.);
#733=ORIENTED_EDGE('',*,*,#572,.F.);
#734=ORIENTED_EDGE('',*,*,#571,.F.);
#735=ORIENTED_EDGE('',*,*,#573,.F.);
#736=ORIENTED_EDGE('',*,*,#574,.T.);
#737=ORIENTED_EDGE('',*,*,#575,.F.);
#738=ORIENTED_EDGE('',*,*,#574,.F.);
#739=ORIENTED_EDGE('',*,*,#576,.F.);
#740=ORIENTED_EDGE('',*,*,#577,.T.);
#741=ORIENTED_EDGE('',*,*,#578,.F.);
#742=ORIENTED_EDGE('',*,*,#577,.F.);
#743=ORIENTED_EDGE('',*,*,#579,.F.);
#744=ORIENTED_EDGE('',*,*,#580,.F.);
#745=ORIENTED_EDGE('',*,*,#581,.F.);
#746=ORIENTED_EDGE('',*,*,#582,.T.);
#747=ORIENTED_EDGE('',*,*,#583,.F.);
#748=ORIENTED_EDGE('',*,*,#582,.F.);
#749=ORIENTED_EDGE('',*,*,#584,.F.);
#750=ORIENTED_EDGE('',*,*,#585,.T.);
#751=ORIENTED_EDGE('',*,*,#586,.F.);
#752=ORIENTED_EDGE('',*,*,#585,.F.);
#753=ORIENTED_EDGE('',*,*,#587,.F.);
#754=ORIENTED_EDGE('',*,*,#588,.T.);
#755=ORIENTED_EDGE('',*,*,#589,.F.);
#756=ORIENTED_EDGE('',*,*,#588,.F.);
#757=ORIENTED_EDGE('',*,*,#590,.F.);
#758=ORIENTED_EDGE('',*,*,#591,.T.);
#759=ORIENTED_EDGE('',*,*,#592,.F.);
#760=ORIENTED_EDGE('',*,*,#591,.F.);
#761=ORIENTED_EDGE('',*,*,#593,.F.);
#762=ORIENTED_EDGE('',*,*,#594,.T.);
#763=ORIENTED_EDGE('',*,*,#595,.F.);
#764=ORIENTED_EDGE('',*,*,#594,.F.);
#765=ORIENTED_EDGE('',*,*,#596,.F.);
#766=ORIENTED_EDGE('',*,*,#597,.T.);
#767=ORIENTED_EDGE('',*,*,#598,.F.);
#768=ORIENTED_EDGE('',*,*,#597,.F.);
#769=ORIENTED_EDGE('',*,*,#599,.F.);
#770=ORIENTED_EDGE('',*,*,#600,.T.);
#771=ORIENTED_EDGE('',*,*,#601,.F.);
#772=ORIENTED_EDGE('',*,*,#600,.F.);
#773=ORIENTED_EDGE('',*,*,#602,.F.);
#774=ORIENTED_EDGE('',*,*,#580,.T.);
#775=ORIENTED_EDGE('',*,*,#603,.T.);
#776=ORIENTED_EDGE('',*,*,#493,.T.);
#777=ORIENTED_EDGE('',*,*,#604,.T.);
#778=ORIENTED_EDGE('',*,*,#605,.T.);
#779=ORIENTED_EDGE('',*,*,#606,.F.);
#780=ORIENTED_EDGE('',*,*,#607,.F.);
#781=ORIENTED_EDGE('',*,*,#604,.F.);
#782=ORIENTED_EDGE('',*,*,#492,.F.);
#783=ORIENTED_EDGE('',*,*,#490,.T.);
#784=ORIENTED_EDGE('',*,*,#486,.F.);
#785=ORIENTED_EDGE('',*,*,#481,.T.);
#786=ORIENTED_EDGE('',*,*,#485,.F.);
#787=ORIENTED_EDGE('',*,*,#495,.T.);
#788=ORIENTED_EDGE('',*,*,#498,.T.);
#789=ORIENTED_EDGE('',*,*,#503,.T.);
#790=ORIENTED_EDGE('',*,*,#524,.T.);
#791=ORIENTED_EDGE('',*,*,#521,.T.);
#792=ORIENTED_EDGE('',*,*,#518,.T.);
#793=ORIENTED_EDGE('',*,*,#515,.T.);
#794=ORIENTED_EDGE('',*,*,#512,.T.);
#795=ORIENTED_EDGE('',*,*,#509,.T.);
#796=ORIENTED_EDGE('',*,*,#506,.T.);
#797=ORIENTED_EDGE('',*,*,#525,.T.);
#798=ORIENTED_EDGE('',*,*,#528,.T.);
#799=ORIENTED_EDGE('',*,*,#531,.T.);
#800=ORIENTED_EDGE('',*,*,#534,.T.);
#801=ORIENTED_EDGE('',*,*,#539,.T.);
#802=ORIENTED_EDGE('',*,*,#560,.T.);
#803=ORIENTED_EDGE('',*,*,#557,.T.);
#804=ORIENTED_EDGE('',*,*,#554,.T.);
#805=ORIENTED_EDGE('',*,*,#551,.T.);
#806=ORIENTED_EDGE('',*,*,#548,.T.);
#807=ORIENTED_EDGE('',*,*,#545,.T.);
#808=ORIENTED_EDGE('',*,*,#542,.T.);
#809=ORIENTED_EDGE('',*,*,#561,.T.);
#810=ORIENTED_EDGE('',*,*,#564,.T.);
#811=ORIENTED_EDGE('',*,*,#567,.T.);
#812=ORIENTED_EDGE('',*,*,#570,.T.);
#813=ORIENTED_EDGE('',*,*,#573,.T.);
#814=ORIENTED_EDGE('',*,*,#576,.T.);
#815=ORIENTED_EDGE('',*,*,#581,.T.);
#816=ORIENTED_EDGE('',*,*,#602,.T.);
#817=ORIENTED_EDGE('',*,*,#599,.T.);
#818=ORIENTED_EDGE('',*,*,#596,.T.);
#819=ORIENTED_EDGE('',*,*,#593,.T.);
#820=ORIENTED_EDGE('',*,*,#590,.T.);
#821=ORIENTED_EDGE('',*,*,#587,.T.);
#822=ORIENTED_EDGE('',*,*,#584,.T.);
#823=ORIENTED_EDGE('',*,*,#608,.F.);
#824=ORIENTED_EDGE('',*,*,#609,.F.);
#825=ORIENTED_EDGE('',*,*,#605,.F.);
#826=ORIENTED_EDGE('',*,*,#607,.T.);
#827=ORIENTED_EDGE('',*,*,#610,.F.);
#828=ORIENTED_EDGE('',*,*,#483,.F.);
#829=ORIENTED_EDGE('',*,*,#479,.F.);
#830=ORIENTED_EDGE('',*,*,#488,.F.);
#831=ORIENTED_EDGE('',*,*,#489,.F.);
#832=ORIENTED_EDGE('',*,*,#494,.F.);
#833=ORIENTED_EDGE('',*,*,#603,.F.);
#834=ORIENTED_EDGE('',*,*,#609,.T.);
#835=ORIENTED_EDGE('',*,*,#497,.T.);
#836=ORIENTED_EDGE('',*,*,#500,.T.);
#837=ORIENTED_EDGE('',*,*,#501,.T.);
#838=ORIENTED_EDGE('',*,*,#505,.T.);
#839=ORIENTED_EDGE('',*,*,#508,.T.);
#840=ORIENTED_EDGE('',*,*,#511,.T.);
#841=ORIENTED_EDGE('',*,*,#514,.T.);
#842=ORIENTED_EDGE('',*,*,#517,.T.);
#843=ORIENTED_EDGE('',*,*,#520,.T.);
#844=ORIENTED_EDGE('',*,*,#523,.T.);
#845=ORIENTED_EDGE('',*,*,#527,.T.);
#846=ORIENTED_EDGE('',*,*,#530,.T.);
#847=ORIENTED_EDGE('',*,*,#533,.T.);
#848=ORIENTED_EDGE('',*,*,#536,.T.);
#849=ORIENTED_EDGE('',*,*,#537,.T.);
#850=ORIENTED_EDGE('',*,*,#541,.T.);
#851=ORIENTED_EDGE('',*,*,#544,.T.);
#852=ORIENTED_EDGE('',*,*,#547,.T.);
#853=ORIENTED_EDGE('',*,*,#550,.T.);
#854=ORIENTED_EDGE('',*,*,#553,.T.);
#855=ORIENTED_EDGE('',*,*,#556,.T.);
#856=ORIENTED_EDGE('',*,*,#559,.T.);
#857=ORIENTED_EDGE('',*,*,#563,.T.);
#858=ORIENTED_EDGE('',*,*,#566,.T.);
#859=ORIENTED_EDGE('',*,*,#569,.T.);
#860=ORIENTED_EDGE('',*,*,#572,.T.);
#861=ORIENTED_EDGE('',*,*,#575,.T.);
#862=ORIENTED_EDGE('',*,*,#578,.T.);
#863=ORIENTED_EDGE('',*,*,#579,.T.);
#864=ORIENTED_EDGE('',*,*,#583,.T.);
#865=ORIENTED_EDGE('',*,*,#586,.T.);
#866=ORIENTED_EDGE('',*,*,#589,.T.);
#867=ORIENTED_EDGE('',*,*,#592,.T.);
#868=ORIENTED_EDGE('',*,*,#595,.T.);
#869=ORIENTED_EDGE('',*,*,#598,.T.);
#870=ORIENTED_EDGE('',*,*,#601,.T.);
#871=ORIENTED_EDGE('',*,*,#606,.T.);
#872=ORIENTED_EDGE('',*,*,#484,.T.);
#873=ORIENTED_EDGE('',*,*,#610,.T.);
#874=ORIENTED_EDGE('',*,*,#608,.T.);
#875=CYLINDRICAL_SURFACE('',#961,5.49999930181496);
#876=CYLINDRICAL_SURFACE('',#966,4.99999999999999);
#877=CYLINDRICAL_SURFACE('',#970,1.65);
#878=CYLINDRICAL_SURFACE('',#973,1.65);
#879=CYLINDRICAL_SURFACE('',#977,3.);
#880=CYLINDRICAL_SURFACE('',#981,4.);
#881=CYLINDRICAL_SURFACE('',#985,3.99999999999999);
#882=CYLINDRICAL_SURFACE('',#989,3.);
#883=CYLINDRICAL_SURFACE('',#992,1.6);
#884=CYLINDRICAL_SURFACE('',#995,1.6);
#885=CYLINDRICAL_SURFACE('',#998,1.65);
#886=CYLINDRICAL_SURFACE('',#1001,1.65);
#887=CYLINDRICAL_SURFACE('',#1005,5.);
#888=CYLINDRICAL_SURFACE('',#1009,4.99999999999999);
#889=CYLINDRICAL_SURFACE('',#1013,4.99999999999999);
#890=CYLINDRICAL_SURFACE('',#1017,5.);
#891=CYLINDRICAL_SURFACE('',#1020,1.65);
#892=CYLINDRICAL_SURFACE('',#1023,1.65);
#893=CYLINDRICAL_SURFACE('',#1026,1.6);
#894=CYLINDRICAL_SURFACE('',#1029,1.60000000000001);
#895=CYLINDRICAL_SURFACE('',#1032,1.65);
#896=CYLINDRICAL_SURFACE('',#1035,1.65);
#897=CYLINDRICAL_SURFACE('',#1038,5.);
#898=CYLINDRICAL_SURFACE('',#1042,5.);
#899=CYLINDRICAL_SURFACE('',#1046,4.99999999999999);
#900=CYLINDRICAL_SURFACE('',#1050,4.99999999999999);
#901=ADVANCED_FACE('',(#73),#875,.T.);
#902=ADVANCED_FACE('',(#74),#55,.T.);
#903=ADVANCED_FACE('',(#75),#56,.T.);
#904=ADVANCED_FACE('',(#76),#876,.T.);
#905=ADVANCED_FACE('',(#77),#57,.T.);
#906=ADVANCED_FACE('',(#78),#877,.F.);
#907=ADVANCED_FACE('',(#79),#878,.F.);
#908=ADVANCED_FACE('',(#80),#58,.F.);
#909=ADVANCED_FACE('',(#81),#879,.F.);
#910=ADVANCED_FACE('',(#82),#59,.F.);
#911=ADVANCED_FACE('',(#83),#880,.F.);
#912=ADVANCED_FACE('',(#84),#60,.F.);
#913=ADVANCED_FACE('',(#85),#881,.F.);
#914=ADVANCED_FACE('',(#86),#61,.F.);
#915=ADVANCED_FACE('',(#87),#882,.F.);
#916=ADVANCED_FACE('',(#88),#883,.F.);
#917=ADVANCED_FACE('',(#89),#884,.F.);
#918=ADVANCED_FACE('',(#90),#885,.F.);
#919=ADVANCED_FACE('',(#91),#886,.F.);
#920=ADVANCED_FACE('',(#92),#62,.F.);
#921=ADVANCED_FACE('',(#93),#887,.F.);
#922=ADVANCED_FACE('',(#94),#63,.F.);
#923=ADVANCED_FACE('',(#95),#888,.F.);
#924=ADVANCED_FACE('',(#96),#64,.F.);
#925=ADVANCED_FACE('',(#97),#889,.F.);
#926=ADVANCED_FACE('',(#98),#65,.F.);
#927=ADVANCED_FACE('',(#99),#890,.F.);
#928=ADVANCED_FACE('',(#100),#891,.F.);
#929=ADVANCED_FACE('',(#101),#892,.F.);
#930=ADVANCED_FACE('',(#102),#893,.F.);
#931=ADVANCED_FACE('',(#103),#894,.F.);
#932=ADVANCED_FACE('',(#104),#895,.F.);
#933=ADVANCED_FACE('',(#105),#896,.F.);
#934=ADVANCED_FACE('',(#106),#897,.F.);
#935=ADVANCED_FACE('',(#107),#66,.F.);
#936=ADVANCED_FACE('',(#108),#898,.F.);
#937=ADVANCED_FACE('',(#109),#67,.F.);
#938=ADVANCED_FACE('',(#110),#899,.F.);
#939=ADVANCED_FACE('',(#111),#68,.F.);
#940=ADVANCED_FACE('',(#112),#900,.F.);
#941=ADVANCED_FACE('',(#113),#69,.F.);
#942=ADVANCED_FACE('',(#114),#45,.F.);
#943=ADVANCED_FACE('',(#115,#15,#16,#17,#18,#19,#20,#21,#22,#23,#24,#25,
#26,#27,#28,#29),#70,.T.);
#944=ADVANCED_FACE('',(#116),#71,.T.);
#945=ADVANCED_FACE('',(#117,#30,#31,#32,#33,#34,#35,#36,#37,#38,#39,#40,
#41,#42,#43,#44),#72,.T.);
#946=ADVANCED_FACE('',(#118),#46,.F.);
#947=CLOSED_SHELL('',(#901,#902,#903,#904,#905,#906,#907,#908,#909,#910,
#911,#912,#913,#914,#915,#916,#917,#918,#919,#920,#921,#922,#923,#924,#925,
#926,#927,#928,#929,#930,#931,#932,#933,#934,#935,#936,#937,#938,#939,#940,
#941,#942,#943,#944,#945,#946));
#948=DERIVED_UNIT_ELEMENT(#950,1.);
#949=DERIVED_UNIT_ELEMENT(#1661,-3.);
#950=(
MASS_UNIT()
NAMED_UNIT(*)
SI_UNIT(.KILO.,.GRAM.)
);
#951=DERIVED_UNIT((#948,#949));
#952=MEASURE_REPRESENTATION_ITEM('density measure',
POSITIVE_RATIO_MEASURE(7850.),#951);
#953=PROPERTY_DEFINITION_REPRESENTATION(#958,#955);
#954=PROPERTY_DEFINITION_REPRESENTATION(#959,#956);
#955=REPRESENTATION('material name',(#957),#1658);
#956=REPRESENTATION('density',(#952),#1658);
#957=DESCRIPTIVE_REPRESENTATION_ITEM('Steel','Steel');
#958=PROPERTY_DEFINITION('material property','material name',#1668);
#959=PROPERTY_DEFINITION('material property','density of part',#1668);
#960=AXIS2_PLACEMENT_3D('',#1323,#1057,#1058);
#961=AXIS2_PLACEMENT_3D('',#1324,#1059,#1060);
#962=AXIS2_PLACEMENT_3D('',#1327,#1061,#1062);
#963=AXIS2_PLACEMENT_3D('',#1331,#1064,#1065);
#964=AXIS2_PLACEMENT_3D('',#1333,#1067,#1068);
#965=AXIS2_PLACEMENT_3D('',#1345,#1071,#1072);
#966=AXIS2_PLACEMENT_3D('',#1351,#1076,#1077);
#967=AXIS2_PLACEMENT_3D('',#1353,#1078,#1079);
#968=AXIS2_PLACEMENT_3D('',#1355,#1080,#1081);
#969=AXIS2_PLACEMENT_3D('',#1357,#1083,#1084);
#970=AXIS2_PLACEMENT_3D('',#1369,#1087,#1088);
#971=AXIS2_PLACEMENT_3D('',#1371,#1089,#1090);
#972=AXIS2_PLACEMENT_3D('',#1374,#1092,#1093);
#973=AXIS2_PLACEMENT_3D('',#1375,#1094,#1095);
#974=AXIS2_PLACEMENT_3D('',#1377,#1096,#1097);
#975=AXIS2_PLACEMENT_3D('',#1380,#1099,#1100);
#976=AXIS2_PLACEMENT_3D('',#1381,#1101,#1102);
#977=AXIS2_PLACEMENT_3D('',#1390,#1107,#1108);
#978=AXIS2_PLACEMENT_3D('',#1392,#1109,#1110);
#979=AXIS2_PLACEMENT_3D('',#1394,#1111,#1112);
#980=AXIS2_PLACEMENT_3D('',#1396,#1114,#1115);
#981=AXIS2_PLACEMENT_3D('',#1402,#1119,#1120);
#982=AXIS2_PLACEMENT_3D('',#1404,#1121,#1122);
#983=AXIS2_PLACEMENT_3D('',#1406,#1123,#1124);
#984=AXIS2_PLACEMENT_3D('',#1408,#1126,#1127);
#985=AXIS2_PLACEMENT_3D('',#1414,#1131,#1132);
#986=AXIS2_PLACEMENT_3D('',#1416,#1133,#1134);
#987=AXIS2_PLACEMENT_3D('',#1418,#1135,#1136);
#988=AXIS2_PLACEMENT_3D('',#1420,#1138,#1139);
#989=AXIS2_PLACEMENT_3D('',#1426,#1143,#1144);
#990=AXIS2_PLACEMENT_3D('',#1427,#1145,#1146);
#991=AXIS2_PLACEMENT_3D('',#1428,#1147,#1148);
#992=AXIS2_PLACEMENT_3D('',#1429,#1149,#1150);
#993=AXIS2_PLACEMENT_3D('',#1431,#1151,#1152);
#994=AXIS2_PLACEMENT_3D('',#1434,#1154,#1155);
#995=AXIS2_PLACEMENT_3D('',#1435,#1156,#1157);
#996=AXIS2_PLACEMENT_3D('',#1437,#1158,#1159);
#997=AXIS2_PLACEMENT_3D('',#1440,#1161,#1162);
#998=AXIS2_PLACEMENT_3D('',#1441,#1163,#1164);
#999=AXIS2_PLACEMENT_3D('',#1443,#1165,#1166);
#1000=AXIS2_PLACEMENT_3D('',#1446,#1168,#1169);
#1001=AXIS2_PLACEMENT_3D('',#1447,#1170,#1171);
#1002=AXIS2_PLACEMENT_3D('',#1449,#1172,#1173);
#1003=AXIS2_PLACEMENT_3D('',#1452,#1175,#1176);
#1004=AXIS2_PLACEMENT_3D('',#1453,#1177,#1178);
#1005=AXIS2_PLACEMENT_3D('',#1462,#1183,#1184);
#1006=AXIS2_PLACEMENT_3D('',#1464,#1185,#1186);
#1007=AXIS2_PLACEMENT_3D('',#1466,#1187,#1188);
#1008=AXIS2_PLACEMENT_3D('',#1468,#1190,#1191);
#1009=AXIS2_PLACEMENT_3D('',#1474,#1195,#1196);
#1010=AXIS2_PLACEMENT_3D('',#1476,#1197,#1198);
#1011=AXIS2_PLACEMENT_3D('',#1478,#1199,#1200);
#1012=AXIS2_PLACEMENT_3D('',#1480,#1202,#1203);
#1013=AXIS2_PLACEMENT_3D('',#1486,#1207,#1208);
#1014=AXIS2_PLACEMENT_3D('',#1488,#1209,#1210);
#1015=AXIS2_PLACEMENT_3D('',#1490,#1211,#1212);
#1016=AXIS2_PLACEMENT_3D('',#1492,#1214,#1215);
#1017=AXIS2_PLACEMENT_3D('',#1498,#1219,#1220);
#1018=AXIS2_PLACEMENT_3D('',#1499,#1221,#1222);
#1019=AXIS2_PLACEMENT_3D('',#1500,#1223,#1224);
#1020=AXIS2_PLACEMENT_3D('',#1501,#1225,#1226);
#1021=AXIS2_PLACEMENT_3D('',#1503,#1227,#1228);
#1022=AXIS2_PLACEMENT_3D('',#1506,#1230,#1231);
#1023=AXIS2_PLACEMENT_3D('',#1507,#1232,#1233);
#1024=AXIS2_PLACEMENT_3D('',#1509,#1234,#1235);
#1025=AXIS2_PLACEMENT_3D('',#1512,#1237,#1238);
#1026=AXIS2_PLACEMENT_3D('',#1513,#1239,#1240);
#1027=AXIS2_PLACEMENT_3D('',#1515,#1241,#1242);
#1028=AXIS2_PLACEMENT_3D('',#1518,#1244,#1245);
#1029=AXIS2_PLACEMENT_3D('',#1519,#1246,#1247);
#1030=AXIS2_PLACEMENT_3D('',#1521,#1248,#1249);
#1031=AXIS2_PLACEMENT_3D('',#1524,#1251,#1252);
#1032=AXIS2_PLACEMENT_3D('',#1525,#1253,#1254);
#1033=AXIS2_PLACEMENT_3D('',#1527,#1255,#1256);
#1034=AXIS2_PLACEMENT_3D('',#1530,#1258,#1259);
#1035=AXIS2_PLACEMENT_3D('',#1531,#1260,#1261);
#1036=AXIS2_PLACEMENT_3D('',#1533,#1262,#1263);
#1037=AXIS2_PLACEMENT_3D('',#1536,#1265,#1266);
#1038=AXIS2_PLACEMENT_3D('',#1537,#1267,#1268);
#1039=AXIS2_PLACEMENT_3D('',#1540,#1269,#1270);
#1040=AXIS2_PLACEMENT_3D('',#1544,#1272,#1273);
#1041=AXIS2_PLACEMENT_3D('',#1546,#1275,#1276);
#1042=AXIS2_PLACEMENT_3D('',#1552,#1280,#1281);
#1043=AXIS2_PLACEMENT_3D('',#1554,#1282,#1283);
#1044=AXIS2_PLACEMENT_3D('',#1556,#1284,#1285);
#1045=AXIS2_PLACEMENT_3D('',#1558,#1287,#1288);
#1046=AXIS2_PLACEMENT_3D('',#1564,#1292,#1293);
#1047=AXIS2_PLACEMENT_3D('',#1566,#1294,#1295);
#1048=AXIS2_PLACEMENT_3D('',#1568,#1296,#1297);
#1049=AXIS2_PLACEMENT_3D('',#1570,#1299,#1300);
#1050=AXIS2_PLACEMENT_3D('',#1576,#1304,#1305);
#1051=AXIS2_PLACEMENT_3D('',#1578,#1306,#1307);
#1052=AXIS2_PLACEMENT_3D('',#1580,#1308,#1309);
#1053=AXIS2_PLACEMENT_3D('',#1582,#1311,#1312);
#1054=AXIS2_PLACEMENT_3D('',#1618,#1315,#1316);
#1055=AXIS2_PLACEMENT_3D('',#1625,#1318,#1319);
#1056=AXIS2_PLACEMENT_3D('',#1635,#1321,#1322);
#1057=DIRECTION('axis',(0.,0.,1.));
#1058=DIRECTION('refdir',(1.,0.,0.));
#1059=DIRECTION('center_axis',(0.,0.,-1.));
#1060=DIRECTION('ref_axis',(-0.771389342558852,-0.636363482757003,0.));
#1061=DIRECTION('center_axis',(0.,0.,1.));
#1062=DIRECTION('ref_axis',(-0.771389342558852,-0.636363482757003,0.));
#1063=DIRECTION('',(0.,0.,-1.));
#1064=DIRECTION('center_axis',(0.,0.,1.));
#1065=DIRECTION('ref_axis',(-0.771389342558852,-0.636363482757003,0.));
#1066=DIRECTION('',(0.,0.,1.));
#1067=DIRECTION('center_axis',(0.,-1.,0.));
#1068=DIRECTION('ref_axis',(0.,0.,-1.));
#1069=DIRECTION('',(1.,0.,0.));
#1070=DIRECTION('',(1.,0.,0.));
#1071=DIRECTION('center_axis',(0.,-1.,0.));
#1072=DIRECTION('ref_axis',(0.,0.,-1.));
#1073=DIRECTION('',(1.,0.,0.));
#1074=DIRECTION('',(0.,0.,-1.));
#1075=DIRECTION('',(1.,0.,0.));
#1076=DIRECTION('center_axis',(0.,0.,-1.));
#1077=DIRECTION('ref_axis',(-0.714142731848217,-0.700000113248824,0.));
#1078=DIRECTION('center_axis',(0.,0.,1.));
#1079=DIRECTION('ref_axis',(-0.714142731848217,-0.700000113248824,0.));
#1080=DIRECTION('center_axis',(0.,0.,1.));
#1081=DIRECTION('ref_axis',(-0.714142731848217,-0.700000113248824,0.));
#1082=DIRECTION('',(0.,0.,1.));
#1083=DIRECTION('center_axis',(0.,-1.,0.));
#1084=DIRECTION('ref_axis',(0.,0.,-1.));
#1085=DIRECTION('',(1.,0.,0.));
#1086=DIRECTION('',(1.,0.,0.));
#1087=DIRECTION('center_axis',(0.,0.,-1.));
#1088=DIRECTION('ref_axis',(-1.,0.,0.));
#1089=DIRECTION('center_axis',(0.,0.,1.));
#1090=DIRECTION('ref_axis',(-1.,0.,0.));
#1091=DIRECTION('',(0.,0.,-1.));
#1092=DIRECTION('center_axis',(0.,0.,1.));
#1093=DIRECTION('ref_axis',(-1.,0.,0.));
#1094=DIRECTION('center_axis',(0.,0.,-1.));
#1095=DIRECTION('ref_axis',(-1.,0.,0.));
#1096=DIRECTION('center_axis',(0.,0.,1.));
#1097=DIRECTION('ref_axis',(-1.,0.,0.));
#1098=DIRECTION('',(0.,0.,-1.));
#1099=DIRECTION('center_axis',(0.,0.,1.));
#1100=DIRECTION('ref_axis',(-1.,0.,0.));
#1101=DIRECTION('center_axis',(-1.,0.,0.));
#1102=DIRECTION('ref_axis',(0.,1.,-3.62984509794471E-17));
#1103=DIRECTION('',(0.,-1.,0.));
#1104=DIRECTION('',(0.,0.,-1.));
#1105=DIRECTION('',(0.,-1.,0.));
#1106=DIRECTION('',(0.,0.,-1.));
#1107=DIRECTION('center_axis',(0.,0.,-1.));
#1108=DIRECTION('ref_axis',(-1.,-2.96059473233375E-15,0.));
#1109=DIRECTION('center_axis',(0.,0.,1.));
#1110=DIRECTION('ref_axis',(-1.,-2.96059473233375E-15,0.));
#1111=DIRECTION('center_axis',(0.,0.,1.));
#1112=DIRECTION('ref_axis',(-1.,-2.96059473233375E-15,0.));
#1113=DIRECTION('',(0.,0.,-1.));
#1114=DIRECTION('center_axis',(-6.83214169000097E-16,-1.,0.));
#1115=DIRECTION('ref_axis',(-1.,6.83214169000097E-16,3.62984509794471E-17));
#1116=DIRECTION('',(1.,-6.83214169000097E-16,0.));
#1117=DIRECTION('',(1.,-6.83214169000097E-16,0.));
#1118=DIRECTION('',(0.,0.,-1.));
#1119=DIRECTION('center_axis',(0.,0.,-1.));
#1120=DIRECTION('ref_axis',(-2.77555756156289E-16,-1.,0.));
#1121=DIRECTION('center_axis',(0.,0.,1.));
#1122=DIRECTION('ref_axis',(-2.77555756156289E-16,-1.,0.));
#1123=DIRECTION('center_axis',(0.,0.,1.));
#1124=DIRECTION('ref_axis',(-2.77555756156289E-16,-1.,0.));
#1125=DIRECTION('',(0.,0.,-1.));
#1126=DIRECTION('center_axis',(1.,0.,0.));
#1127=DIRECTION('ref_axis',(0.,-1.,5.13581318503263E-33));
#1128=DIRECTION('',(0.,1.,0.));
#1129=DIRECTION('',(0.,1.,0.));
#1130=DIRECTION('',(0.,0.,-1.));
#1131=DIRECTION('center_axis',(0.,0.,-1.));
#1132=DIRECTION('ref_axis',(1.,-1.11022302462516E-15,0.));
#1133=DIRECTION('center_axis',(0.,0.,1.));
#1134=DIRECTION('ref_axis',(1.,-1.11022302462516E-15,0.));
#1135=DIRECTION('center_axis',(0.,0.,1.));
#1136=DIRECTION('ref_axis',(1.,-1.11022302462516E-15,0.));
#1137=DIRECTION('',(0.,0.,-1.));
#1138=DIRECTION('center_axis',(0.,1.,0.));
#1139=DIRECTION('ref_axis',(1.,0.,0.));
#1140=DIRECTION('',(-1.,0.,0.));
#1141=DIRECTION('',(-1.,0.,0.));
#1142=DIRECTION('',(0.,0.,-1.));
#1143=DIRECTION('center_axis',(0.,0.,-1.));
#1144=DIRECTION('ref_axis',(7.40148683083438E-16,1.,0.));
#1145=DIRECTION('center_axis',(0.,0.,1.));
#1146=DIRECTION('ref_axis',(7.40148683083438E-16,1.,0.));
#1147=DIRECTION('center_axis',(0.,0.,1.));
#1148=DIRECTION('ref_axis',(7.40148683083438E-16,1.,0.));
#1149=DIRECTION('center_axis',(0.,0.,-1.));
#1150=DIRECTION('ref_axis',(-1.,0.,0.));
#1151=DIRECTION('center_axis',(0.,0.,1.));
#1152=DIRECTION('ref_axis',(-1.,0.,0.));
#1153=DIRECTION('',(0.,0.,-1.));
#1154=DIRECTION('center_axis',(0.,0.,1.));
#1155=DIRECTION('ref_axis',(-1.,0.,0.));
#1156=DIRECTION('center_axis',(0.,0.,-1.));
#1157=DIRECTION('ref_axis',(-1.,0.,0.));
#1158=DIRECTION('center_axis',(0.,0.,1.));
#1159=DIRECTION('ref_axis',(-1.,0.,0.));
#1160=DIRECTION('',(0.,0.,-1.));
#1161=DIRECTION('center_axis',(0.,0.,1.));
#1162=DIRECTION('ref_axis',(-1.,0.,0.));
#1163=DIRECTION('center_axis',(0.,0.,-1.));
#1164=DIRECTION('ref_axis',(0.,1.,0.));
#1165=DIRECTION('center_axis',(0.,0.,1.));
#1166=DIRECTION('ref_axis',(0.,1.,0.));
#1167=DIRECTION('',(0.,0.,-1.));
#1168=DIRECTION('center_axis',(0.,0.,1.));
#1169=DIRECTION('ref_axis',(0.,1.,0.));
#1170=DIRECTION('center_axis',(0.,0.,-1.));
#1171=DIRECTION('ref_axis',(-1.,0.,0.));
#1172=DIRECTION('center_axis',(0.,0.,1.));
#1173=DIRECTION('ref_axis',(-1.,0.,0.));
#1174=DIRECTION('',(0.,0.,-1.));
#1175=DIRECTION('center_axis',(0.,0.,1.));
#1176=DIRECTION('ref_axis',(-1.,0.,0.));
#1177=DIRECTION('center_axis',(0.,-1.,0.));
#1178=DIRECTION('ref_axis',(-1.,0.,0.));
#1179=DIRECTION('',(1.,0.,0.));
#1180=DIRECTION('',(0.,0.,-1.));
#1181=DIRECTION('',(1.,0.,0.));
#1182=DIRECTION('',(0.,0.,-1.));
#1183=DIRECTION('center_axis',(0.,0.,-1.));
#1184=DIRECTION('ref_axis',(-1.77635683940025E-15,-1.,0.));
#1185=DIRECTION('center_axis',(0.,0.,1.));
#1186=DIRECTION('ref_axis',(-1.77635683940025E-15,-1.,0.));
#1187=DIRECTION('center_axis',(0.,0.,1.));
#1188=DIRECTION('ref_axis',(-1.77635683940025E-15,-1.,0.));
#1189=DIRECTION('',(0.,0.,-1.));
#1190=DIRECTION('center_axis',(1.,3.41607077451882E-16,0.));
#1191=DIRECTION('ref_axis',(3.41607077451882E-16,-1.,0.));
#1192=DIRECTION('',(-3.41607077451882E-16,1.,0.));
#1193=DIRECTION('',(-3.41607077451882E-16,1.,0.));
#1194=DIRECTION('',(0.,0.,-1.));
#1195=DIRECTION('center_axis',(0.,0.,-1.));
#1196=DIRECTION('ref_axis',(1.,-1.77635683940025E-15,0.));
#1197=DIRECTION('center_axis',(0.,0.,1.));
#1198=DIRECTION('ref_axis',(1.,-1.77635683940025E-15,0.));
#1199=DIRECTION('center_axis',(0.,0.,1.));
#1200=DIRECTION('ref_axis',(1.,-1.77635683940025E-15,0.));
#1201=DIRECTION('',(0.,0.,-1.));
#1202=DIRECTION('center_axis',(0.,1.,0.));
#1203=DIRECTION('ref_axis',(1.,0.,0.));
#1204=DIRECTION('',(-1.,0.,0.));
#1205=DIRECTION('',(-1.,0.,0.));
#1206=DIRECTION('',(0.,0.,-1.));
#1207=DIRECTION('center_axis',(0.,0.,-1.));
#1208=DIRECTION('ref_axis',(0.,1.,0.));
#1209=DIRECTION('center_axis',(0.,0.,1.));
#1210=DIRECTION('ref_axis',(0.,1.,0.));
#1211=DIRECTION('center_axis',(0.,0.,1.));
#1212=DIRECTION('ref_axis',(0.,1.,0.));
#1213=DIRECTION('',(0.,0.,-1.));
#1214=DIRECTION('center_axis',(-1.,3.41607077451882E-16,0.));
#1215=DIRECTION('ref_axis',(3.41607077451882E-16,1.,0.));
#1216=DIRECTION('',(-3.41607077451882E-16,-1.,0.));
#1217=DIRECTION('',(-3.41607077451882E-16,-1.,0.));
#1218=DIRECTION('',(0.,0.,-1.));
#1219=DIRECTION('center_axis',(0.,0.,-1.));
#1220=DIRECTION('ref_axis',(-1.,0.,0.));
#1221=DIRECTION('center_axis',(0.,0.,1.));
#1222=DIRECTION('ref_axis',(-1.,0.,0.));
#1223=DIRECTION('center_axis',(0.,0.,1.));
#1224=DIRECTION('ref_axis',(-1.,0.,0.));
#1225=DIRECTION('center_axis',(0.,0.,-1.));
#1226=DIRECTION('ref_axis',(0.,1.,0.));
#1227=DIRECTION('center_axis',(0.,0.,1.));
#1228=DIRECTION('ref_axis',(0.,1.,0.));
#1229=DIRECTION('',(0.,0.,-1.));
#1230=DIRECTION('center_axis',(0.,0.,1.));
#1231=DIRECTION('ref_axis',(0.,1.,0.));
#1232=DIRECTION('center_axis',(0.,0.,-1.));
#1233=DIRECTION('ref_axis',(0.,1.,0.));
#1234=DIRECTION('center_axis',(0.,0.,1.));
#1235=DIRECTION('ref_axis',(0.,1.,0.));
#1236=DIRECTION('',(0.,0.,-1.));
#1237=DIRECTION('center_axis',(0.,0.,1.));
#1238=DIRECTION('ref_axis',(0.,1.,0.));
#1239=DIRECTION('center_axis',(0.,0.,-1.));
#1240=DIRECTION('ref_axis',(-1.,0.,0.));
#1241=DIRECTION('center_axis',(0.,0.,1.));
#1242=DIRECTION('ref_axis',(-1.,0.,0.));
#1243=DIRECTION('',(0.,0.,-1.));
#1244=DIRECTION('center_axis',(0.,0.,1.));
#1245=DIRECTION('ref_axis',(-1.,0.,0.));
#1246=DIRECTION('center_axis',(0.,0.,-1.));
#1247=DIRECTION('ref_axis',(-1.,0.,0.));
#1248=DIRECTION('center_axis',(0.,0.,1.));
#1249=DIRECTION('ref_axis',(-1.,0.,0.));
#1250=DIRECTION('',(0.,0.,-1.));
#1251=DIRECTION('center_axis',(0.,0.,1.));
#1252=DIRECTION('ref_axis',(-1.,0.,0.));
#1253=DIRECTION('center_axis',(0.,0.,-1.));
#1254=DIRECTION('ref_axis',(0.,1.,0.));
#1255=DIRECTION('center_axis',(0.,0.,1.));
#1256=DIRECTION('ref_axis',(0.,1.,0.));
#1257=DIRECTION('',(0.,0.,-1.));
#1258=DIRECTION('center_axis',(0.,0.,1.));
#1259=DIRECTION('ref_axis',(0.,1.,0.));
#1260=DIRECTION('center_axis',(0.,0.,-1.));
#1261=DIRECTION('ref_axis',(-1.,0.,0.));
#1262=DIRECTION('center_axis',(0.,0.,1.));
#1263=DIRECTION('ref_axis',(-1.,0.,0.));
#1264=DIRECTION('',(0.,0.,-1.));
#1265=DIRECTION('center_axis',(0.,0.,1.));
#1266=DIRECTION('ref_axis',(-1.,0.,0.));
#1267=DIRECTION('center_axis',(0.,0.,-1.));
#1268=DIRECTION('ref_axis',(-1.,0.,0.));
#1269=DIRECTION('center_axis',(0.,0.,1.));
#1270=DIRECTION('ref_axis',(-1.,0.,0.));
#1271=DIRECTION('',(0.,0.,-1.));
#1272=DIRECTION('center_axis',(0.,0.,1.));
#1273=DIRECTION('ref_axis',(-1.,0.,0.));
#1274=DIRECTION('',(0.,0.,-1.));
#1275=DIRECTION('center_axis',(0.,-1.,0.));
#1276=DIRECTION('ref_axis',(-1.,0.,0.));
#1277=DIRECTION('',(1.,0.,0.));
#1278=DIRECTION('',(1.,0.,0.));
#1279=DIRECTION('',(0.,0.,-1.));
#1280=DIRECTION('center_axis',(0.,0.,-1.));
#1281=DIRECTION('ref_axis',(0.,-1.,0.));
#1282=DIRECTION('center_axis',(0.,0.,1.));
#1283=DIRECTION('ref_axis',(0.,-1.,0.));
#1284=DIRECTION('center_axis',(0.,0.,1.));
#1285=DIRECTION('ref_axis',(0.,-1.,0.));
#1286=DIRECTION('',(0.,0.,-1.));
#1287=DIRECTION('center_axis',(1.,3.41607077451882E-16,0.));
#1288=DIRECTION('ref_axis',(3.41607077451882E-16,-1.,0.));
#1289=DIRECTION('',(-3.41607077451882E-16,1.,0.));
#1290=DIRECTION('',(-3.41607077451882E-16,1.,0.));
#1291=DIRECTION('',(0.,0.,-1.));
#1292=DIRECTION('center_axis',(0.,0.,-1.));
#1293=DIRECTION('ref_axis',(1.,-1.77635683940025E-15,0.));
#1294=DIRECTION('center_axis',(0.,0.,1.));
#1295=DIRECTION('ref_axis',(1.,-1.77635683940025E-15,0.));
#1296=DIRECTION('center_axis',(0.,0.,1.));
#1297=DIRECTION('ref_axis',(1.,-1.77635683940025E-15,0.));
#1298=DIRECTION('',(0.,0.,-1.));
#1299=DIRECTION('center_axis',(0.,1.,0.));
#1300=DIRECTION('ref_axis',(1.,0.,0.));
#1301=DIRECTION('',(-1.,0.,0.));
#1302=DIRECTION('',(-1.,0.,0.));
#1303=DIRECTION('',(0.,0.,-1.));
#1304=DIRECTION('center_axis',(0.,0.,-1.));
#1305=DIRECTION('ref_axis',(1.77635683940025E-15,1.,0.));
#1306=DIRECTION('center_axis',(0.,0.,1.));
#1307=DIRECTION('ref_axis',(1.77635683940025E-15,1.,0.));
#1308=DIRECTION('center_axis',(0.,0.,1.));
#1309=DIRECTION('ref_axis',(1.77635683940025E-15,1.,0.));
#1310=DIRECTION('',(0.,0.,-1.));
#1311=DIRECTION('center_axis',(-1.,3.41607077451882E-16,0.));
#1312=DIRECTION('ref_axis',(3.41607077451882E-16,1.,0.));
#1313=DIRECTION('',(-3.41607077451882E-16,-1.,0.));
#1314=DIRECTION('',(-3.41607077451882E-16,-1.,0.));
#1315=DIRECTION('center_axis',(0.,0.,1.));
#1316=DIRECTION('ref_axis',(0.,-1.,0.));
#1317=DIRECTION('',(-1.,0.,0.));
#1318=DIRECTION('center_axis',(0.,1.,0.));
#1319=DIRECTION('ref_axis',(0.,0.,1.));
#1320=DIRECTION('',(1.,0.,0.));
#1321=DIRECTION('center_axis',(0.,0.,-1.));
#1322=DIRECTION('ref_axis',(0.,1.,0.));
#1323=CARTESIAN_POINT('',(0.,0.,0.));
#1324=CARTESIAN_POINT('Origin',(11.9968469858188,-58.5000025557346,-10.0000002086163));
#1325=CARTESIAN_POINT('',(7.75420614031766,-62.0000012665987,-12.0000002086163));
#1326=CARTESIAN_POINT('',(16.23948783132,-62.0000012665987,-12.0000002086163));
#1327=CARTESIAN_POINT('Origin',(11.9968469858188,-58.5000025557346,-12.0000002086163));
#1328=CARTESIAN_POINT('',(16.23948783132,-62.0000012665987,-9.20000020861626));
#1329=CARTESIAN_POINT('',(16.23948783132,-62.0000012665987,-10.0000002086163));
#1330=CARTESIAN_POINT('',(7.75420614031766,-62.0000012665987,-9.20000020861626));
#1331=CARTESIAN_POINT('Origin',(11.9968469858188,-58.5000025557346,-9.20000020861626));
#1332=CARTESIAN_POINT('',(7.75420614031766,-62.0000012665987,-10.0000002086163));
#1333=CARTESIAN_POINT('Origin',(0.,-62.0000012665987,-10.0000002086163));
#1334=CARTESIAN_POINT('',(53.4651446835989,-62.0000012665987,-12.0000002086163));
#1335=CARTESIAN_POINT('',(0.,-62.0000012665987,-12.0000002086163));
#1336=CARTESIAN_POINT('',(54.585145912364,-62.0000012665987,-9.20000020861626));
#1337=CARTESIAN_POINT('Ctrl Pts',(54.585145912364,-62.0000012665987,-9.20000020861625));
#1338=CARTESIAN_POINT('Ctrl Pts',(54.4784791286722,-62.0000012665987,-9.46666687528293));
#1339=CARTESIAN_POINT('Ctrl Pts',(54.3718123449803,-62.0000012665987,-9.7333335419496));
#1340=CARTESIAN_POINT('Ctrl Pts',(54.2651455612885,-62.0000012665987,-10.0000002086163));
#1341=CARTESIAN_POINT('Ctrl Pts',(53.9984786020588,-62.0000012665987,-10.666666875283));
#1342=CARTESIAN_POINT('Ctrl Pts',(53.7318116428289,-62.0000012665987,-11.3333335419497));
#1343=CARTESIAN_POINT('Ctrl Pts',(53.4651446835989,-62.0000012665987,-12.0000002086163));
#1344=CARTESIAN_POINT('',(0.,-62.0000012665987,-9.20000020861626));
#1345=CARTESIAN_POINT('Origin',(0.,-62.0000012665987,-10.0000002086163));
#1346=CARTESIAN_POINT('',(-8.42928634075894,-62.0000012665987,-9.20000020861626));
#1347=CARTESIAN_POINT('',(0.,-62.0000012665987,-9.20000020861626));
#1348=CARTESIAN_POINT('',(-8.42928634075894,-62.0000012665987,-12.0000002086163));
#1349=CARTESIAN_POINT('',(-8.42928634075894,-62.0000012665987,-10.0000002086163));
#1350=CARTESIAN_POINT('',(0.,-62.0000012665987,-12.0000002086163));
#1351=CARTESIAN_POINT('Origin',(-12.,-58.5000007003546,-10.0000002086163));
#1352=CARTESIAN_POINT('',(-15.5707136592411,-62.0000012665987,-12.0000002086163));
#1353=CARTESIAN_POINT('Origin',(-12.,-58.5000007003546,-12.0000002086163));
#1354=CARTESIAN_POINT('',(-15.5707136592411,-62.0000012665987,-9.20000020861626));
#1355=CARTESIAN_POINT('Origin',(-12.,-58.5000007003546,-9.20000020861626));
#1356=CARTESIAN_POINT('',(-15.5707136592411,-62.0000012665987,-10.0000002086163));
#1357=CARTESIAN_POINT('Origin',(0.,-62.0000012665987,-10.0000002086163));
#1358=CARTESIAN_POINT('',(-54.585145912364,-62.0000012665987,-9.20000020861625));
#1359=CARTESIAN_POINT('',(0.,-62.0000012665987,-9.20000020861626));
#1360=CARTESIAN_POINT('',(-53.4651446835989,-62.0000012665987,-12.0000002086163));
#1361=CARTESIAN_POINT('Ctrl Pts',(-53.4651446835989,-62.0000012665987,-12.0000002086163));
#1362=CARTESIAN_POINT('Ctrl Pts',(-53.7318116428289,-62.0000012665987,-11.3333335419497));
#1363=CARTESIAN_POINT('Ctrl Pts',(-53.9984786020588,-62.0000012665987,-10.666666875283));
#1364=CARTESIAN_POINT('Ctrl Pts',(-54.2651455612885,-62.0000012665987,-10.0000002086163));
#1365=CARTESIAN_POINT('Ctrl Pts',(-54.3718123449803,-62.0000012665987,-9.7333335419496));
#1366=CARTESIAN_POINT('Ctrl Pts',(-54.4784791286722,-62.0000012665987,-9.46666687528293));
#1367=CARTESIAN_POINT('Ctrl Pts',(-54.585145912364,-62.0000012665987,-9.20000020861625));
#1368=CARTESIAN_POINT('',(0.,-62.0000012665987,-12.0000002086163));
#1369=CARTESIAN_POINT('Origin',(-12.0031530141812,-58.5000025557346,-10.0000002086163));
#1370=CARTESIAN_POINT('',(-10.3531530141812,-58.5000025557346,-9.20000020861626));
#1371=CARTESIAN_POINT('Origin',(-12.0031530141812,-58.5000025557346,-9.20000020861626));
#1372=CARTESIAN_POINT('',(-10.3531530141812,-58.5000025557346,-12.0000002086163));
#1373=CARTESIAN_POINT('',(-10.3531530141812,-58.5000025557346,-10.0000002086163));
#1374=CARTESIAN_POINT('Origin',(-12.0031530141812,-58.5000025557346,-12.0000002086163));
#1375=CARTESIAN_POINT('Origin',(11.9968469858188,-58.5000025557346,-10.0000002086163));
#1376=CARTESIAN_POINT('',(13.6468469858188,-58.5000025557346,-9.20000020861626));
#1377=CARTESIAN_POINT('Origin',(11.9968469858188,-58.5000025557346,-9.20000020861626));
#1378=CARTESIAN_POINT('',(13.6468469858188,-58.5000025557346,-12.0000002086163));
#1379=CARTESIAN_POINT('',(13.6468469858188,-58.5000025557346,-10.0000002086163));
#1380=CARTESIAN_POINT('Origin',(11.9968469858188,-58.5000025557346,-12.0000002086163));
#1381=CARTESIAN_POINT('Origin',(-10.,-44.5000007003546,-10.0000002086163));
#1382=CARTESIAN_POINT('',(-10.,-30.5000007003546,-12.0000002086163));
#1383=CARTESIAN_POINT('',(-10.,-44.5000007003546,-12.0000002086163));
#1384=CARTESIAN_POINT('',(-10.,-53.2500009834766,-12.0000002086163));
#1385=CARTESIAN_POINT('',(-10.,-30.5000007003546,-9.20000020861626));
#1386=CARTESIAN_POINT('',(-10.,-30.5000007003546,-10.0000002086163));
#1387=CARTESIAN_POINT('',(-10.,-44.5000007003546,-9.20000020861626));
#1388=CARTESIAN_POINT('',(-10.,-28.2500009834766,-9.20000020861626));
#1389=CARTESIAN_POINT('',(-10.,-44.5000007003546,-10.0000002086163));
#1390=CARTESIAN_POINT('Origin',(-7.,-44.5000007003546,-10.0000002086163));
#1391=CARTESIAN_POINT('',(-7.,-47.5000007003546,-12.0000002086163));
#1392=CARTESIAN_POINT('Origin',(-7.,-44.5000007003546,-12.0000002086163));
#1393=CARTESIAN_POINT('',(-7.,-47.5000007003546,-9.20000020861626));
#1394=CARTESIAN_POINT('Origin',(-7.,-44.5000007003546,-9.20000020861626));
#1395=CARTESIAN_POINT('',(-7.,-47.5000007003546,-10.0000002086163));
#1396=CARTESIAN_POINT('Origin',(6.,-47.5000007003546,-10.0000002086163));
#1397=CARTESIAN_POINT('',(6.,-47.5000007003546,-12.0000002086163));
#1398=CARTESIAN_POINT('',(3.,-47.5000007003546,-12.0000002086163));
#1399=CARTESIAN_POINT('',(6.,-47.5000007003546,-9.20000020861626));
#1400=CARTESIAN_POINT('',(2.99999999999999,-47.5000007003546,-9.20000020861626));
#1401=CARTESIAN_POINT('',(6.,-47.5000007003546,-10.0000002086163));
#1402=CARTESIAN_POINT('Origin',(6.,-43.5000007003546,-10.0000002086163));
#1403=CARTESIAN_POINT('',(10.,-43.5000007003546,-12.0000002086163));
#1404=CARTESIAN_POINT('Origin',(6.,-43.5000007003546,-12.0000002086163));
#1405=CARTESIAN_POINT('',(10.,-43.5000007003546,-9.20000020861626));
#1406=CARTESIAN_POINT('Origin',(6.,-43.5000007003546,-9.20000020861626));
#1407=CARTESIAN_POINT('',(10.,-43.5000007003546,-10.0000002086163));
#1408=CARTESIAN_POINT('Origin',(10.,-31.5000007003546,-10.0000002086163));
#1409=CARTESIAN_POINT('',(10.,-31.5000007003546,-12.0000002086163));
#1410=CARTESIAN_POINT('',(10.,-46.7500009834766,-12.0000002086163));
#1411=CARTESIAN_POINT('',(10.,-31.5000007003546,-9.20000020861626));
#1412=CARTESIAN_POINT('',(10.,-21.7500009834766,-9.20000020861626));
#1413=CARTESIAN_POINT('',(10.,-31.5000007003546,-10.0000002086163));
#1414=CARTESIAN_POINT('Origin',(6.,-31.5000007003546,-10.0000002086163));
#1415=CARTESIAN_POINT('',(6.,-27.5000007003546,-12.0000002086163));
#1416=CARTESIAN_POINT('Origin',(6.,-31.5000007003546,-12.0000002086163));
#1417=CARTESIAN_POINT('',(6.,-27.5000007003546,-9.20000020861626));
#1418=CARTESIAN_POINT('Origin',(6.,-31.5000007003546,-9.20000020861626));
#1419=CARTESIAN_POINT('',(6.,-27.5000007003546,-10.0000002086163));
#1420=CARTESIAN_POINT('Origin',(-7.,-27.5000007003546,-10.0000002086163));
#1421=CARTESIAN_POINT('',(-7.,-27.5000007003546,-12.0000002086163));
#1422=CARTESIAN_POINT('',(-3.5,-27.5000007003546,-12.0000002086163));
#1423=CARTESIAN_POINT('',(-7.,-27.5000007003546,-9.20000020861626));
#1424=CARTESIAN_POINT('',(-3.5,-27.5000007003546,-9.20000020861626));
#1425=CARTESIAN_POINT('',(-7.,-27.5000007003546,-10.0000002086163));
#1426=CARTESIAN_POINT('Origin',(-7.,-30.5000007003546,-10.0000002086163));
#1427=CARTESIAN_POINT('Origin',(-7.,-30.5000007003546,-12.0000002086163));
#1428=CARTESIAN_POINT('Origin',(-7.,-30.5000007003546,-9.20000020861626));
#1429=CARTESIAN_POINT('Origin',(-15.25,-22.2500007003546,-10.0000002086163));
#1430=CARTESIAN_POINT('',(-13.65,-22.2500007003546,-9.20000020861626));
#1431=CARTESIAN_POINT('Origin',(-15.25,-22.2500007003546,-9.20000020861626));
#1432=CARTESIAN_POINT('',(-13.65,-22.2500007003546,-12.0000002086163));
#1433=CARTESIAN_POINT('',(-13.65,-22.2500007003546,-10.0000002086163));
#1434=CARTESIAN_POINT('Origin',(-15.25,-22.2500007003546,-12.0000002086163));
#1435=CARTESIAN_POINT('Origin',(15.25,-52.7500007003546,-10.0000002086163));
#1436=CARTESIAN_POINT('',(16.85,-52.7500007003546,-9.20000020861626));
#1437=CARTESIAN_POINT('Origin',(15.25,-52.7500007003546,-9.20000020861626));
#1438=CARTESIAN_POINT('',(16.85,-52.7500007003546,-12.0000002086163));
#1439=CARTESIAN_POINT('',(16.85,-52.7500007003546,-10.0000002086163));
#1440=CARTESIAN_POINT('Origin',(15.25,-52.7500007003546,-12.0000002086163));
#1441=CARTESIAN_POINT('Origin',(-12.0031530141812,-46.5000025557346,-10.0000002086163));
#1442=CARTESIAN_POINT('',(-12.0031530141812,-48.1500025557346,-9.20000020861626));
#1443=CARTESIAN_POINT('Origin',(-12.0031530141812,-46.5000025557346,-9.20000020861626));
#1444=CARTESIAN_POINT('',(-12.0031530141812,-48.1500025557346,-12.0000002086163));
#1445=CARTESIAN_POINT('',(-12.0031530141812,-48.1500025557346,-10.0000002086163));
#1446=CARTESIAN_POINT('Origin',(-12.0031530141812,-46.5000025557346,-12.0000002086163));
#1447=CARTESIAN_POINT('Origin',(-12.0031530141812,-28.5000025557346,-10.0000002086163));
#1448=CARTESIAN_POINT('',(-10.3531530141812,-28.5000025557346,-9.20000020861626));
#1449=CARTESIAN_POINT('Origin',(-12.0031530141812,-28.5000025557346,-9.20000020861626));
#1450=CARTESIAN_POINT('',(-10.3531530141812,-28.5000025557346,-12.0000002086163));
#1451=CARTESIAN_POINT('',(-10.3531530141812,-28.5000025557346,-10.0000002086163));
#1452=CARTESIAN_POINT('Origin',(-12.0031530141812,-28.5000025557346,-12.0000002086163));
#1453=CARTESIAN_POINT('Origin',(-27.0000003278255,-55.0000008195639,-10.0000002086163));
#1454=CARTESIAN_POINT('',(-45.0000007450581,-55.0000008195639,-12.0000002086163));
#1455=CARTESIAN_POINT('',(-27.0000003278255,-55.0000008195639,-12.0000002086163));
#1456=CARTESIAN_POINT('',(-13.5000001639128,-55.0000008195639,-12.0000002086163));
#1457=CARTESIAN_POINT('',(-45.0000007450581,-55.0000008195639,-9.20000020861626));
#1458=CARTESIAN_POINT('',(-45.0000007450581,-55.0000008195639,-10.0000002086163));
#1459=CARTESIAN_POINT('',(-27.0000003278255,-55.0000008195639,-9.20000020861626));
#1460=CARTESIAN_POINT('',(-13.5000001639128,-55.0000008195639,-9.20000020861626));
#1461=CARTESIAN_POINT('',(-27.0000003278255,-55.0000008195639,-10.0000002086163));
#1462=CARTESIAN_POINT('Origin',(-27.0000003278255,-50.0000008195639,-10.0000002086163));
#1463=CARTESIAN_POINT('',(-22.0000003278255,-50.0000008195639,-12.0000002086163));
#1464=CARTESIAN_POINT('Origin',(-27.0000003278255,-50.0000008195639,-12.0000002086163));
#1465=CARTESIAN_POINT('',(-22.0000003278255,-50.0000008195639,-9.20000020861626));
#1466=CARTESIAN_POINT('Origin',(-27.0000003278255,-50.0000008195639,-9.20000020861626));
#1467=CARTESIAN_POINT('',(-22.0000003278255,-50.0000008195639,-10.0000002086163));
#1468=CARTESIAN_POINT('Origin',(-22.0000003278255,-24.0000002831221,-10.0000002086163));
#1469=CARTESIAN_POINT('',(-22.0000003278255,-24.0000002831221,-12.0000002086163));
#1470=CARTESIAN_POINT('',(-22.0000003278255,-43.0000007748604,-12.0000002086163));
#1471=CARTESIAN_POINT('',(-22.0000003278255,-24.0000002831221,-9.20000020861626));
#1472=CARTESIAN_POINT('',(-22.0000003278255,-18.0000007748604,-9.20000020861626));
#1473=CARTESIAN_POINT('',(-22.0000003278255,-24.0000002831221,-10.0000002086163));
#1474=CARTESIAN_POINT('Origin',(-27.0000003278255,-24.0000002831221,-10.0000002086163));
#1475=CARTESIAN_POINT('',(-27.0000003278255,-19.0000002831221,-12.0000002086163));
#1476=CARTESIAN_POINT('Origin',(-27.0000003278255,-24.0000002831221,-12.0000002086163));
#1477=CARTESIAN_POINT('',(-27.0000003278255,-19.0000002831221,-9.20000020861626));
#1478=CARTESIAN_POINT('Origin',(-27.0000003278255,-24.0000002831221,-9.20000020861626));
#1479=CARTESIAN_POINT('',(-27.0000003278255,-19.0000002831221,-10.0000002086163));
#1480=CARTESIAN_POINT('Origin',(-45.0000007450581,-19.0000002831221,-10.0000002086163));
#1481=CARTESIAN_POINT('',(-45.0000007450581,-19.0000002831221,-12.0000002086163));
#1482=CARTESIAN_POINT('',(-22.500000372529,-19.0000002831221,-12.0000002086163));
#1483=CARTESIAN_POINT('',(-45.0000007450581,-19.0000002831221,-9.20000020861626));
#1484=CARTESIAN_POINT('',(-22.500000372529,-19.0000002831221,-9.20000020861626));
#1485=CARTESIAN_POINT('',(-45.0000007450581,-19.0000002831221,-10.0000002086163));
#1486=CARTESIAN_POINT('Origin',(-45.0000007450581,-24.0000002831221,-10.0000002086163));
#1487=CARTESIAN_POINT('',(-50.0000007450581,-24.0000002831221,-12.0000002086163));
#1488=CARTESIAN_POINT('Origin',(-45.0000007450581,-24.0000002831221,-12.0000002086163));
#1489=CARTESIAN_POINT('',(-50.0000007450581,-24.0000002831221,-9.20000020861626));
#1490=CARTESIAN_POINT('Origin',(-45.0000007450581,-24.0000002831221,-9.20000020861626));
#1491=CARTESIAN_POINT('',(-50.0000007450581,-24.0000002831221,-10.0000002086163));
#1492=CARTESIAN_POINT('Origin',(-50.0000007450581,-50.0000008195639,-10.0000002086163));
#1493=CARTESIAN_POINT('',(-50.0000007450581,-50.0000008195639,-12.0000002086163));
#1494=CARTESIAN_POINT('',(-50.0000007450581,-56.0000010430813,-12.0000002086163));
#1495=CARTESIAN_POINT('',(-50.0000007450581,-50.0000008195639,-9.20000020861626));
#1496=CARTESIAN_POINT('',(-50.0000007450581,-31.0000010430813,-9.20000020861626));
#1497=CARTESIAN_POINT('',(-50.0000007450581,-50.0000008195639,-10.0000002086163));
#1498=CARTESIAN_POINT('Origin',(-45.0000007450581,-50.0000008195639,-10.0000002086163));
#1499=CARTESIAN_POINT('Origin',(-45.0000007450581,-50.0000008195639,-12.0000002086163));
#1500=CARTESIAN_POINT('Origin',(-45.0000007450581,-50.0000008195639,-9.20000020861626));
#1501=CARTESIAN_POINT('Origin',(11.9968469858188,-46.5000025557346,-10.0000002086163));
#1502=CARTESIAN_POINT('',(11.9968469858188,-48.1500025557346,-9.20000020861626));
#1503=CARTESIAN_POINT('Origin',(11.9968469858188,-46.5000025557346,-9.20000020861626));
#1504=CARTESIAN_POINT('',(11.9968469858188,-48.1500025557346,-12.0000002086163));
#1505=CARTESIAN_POINT('',(11.9968469858188,-48.1500025557346,-10.0000002086163));
#1506=CARTESIAN_POINT('Origin',(11.9968469858188,-46.5000025557346,-12.0000002086163));
#1507=CARTESIAN_POINT('Origin',(11.9968469858188,-16.5000025557346,-10.0000002086163));
#1508=CARTESIAN_POINT('',(11.9968469858188,-18.1500025557346,-9.20000020861626));
#1509=CARTESIAN_POINT('Origin',(11.9968469858188,-16.5000025557346,-9.20000020861626));
#1510=CARTESIAN_POINT('',(11.9968469858188,-18.1500025557346,-12.0000002086163));
#1511=CARTESIAN_POINT('',(11.9968469858188,-18.1500025557346,-10.0000002086163));
#1512=CARTESIAN_POINT('Origin',(11.9968469858188,-16.5000025557346,-12.0000002086163));
#1513=CARTESIAN_POINT('Origin',(15.25,-22.2500007003546,-10.0000002086163));
#1514=CARTESIAN_POINT('',(16.85,-22.2500007003546,-9.20000020861626));
#1515=CARTESIAN_POINT('Origin',(15.25,-22.2500007003546,-9.20000020861626));
#1516=CARTESIAN_POINT('',(16.85,-22.2500007003546,-12.0000002086163));
#1517=CARTESIAN_POINT('',(16.85,-22.2500007003546,-10.0000002086163));
#1518=CARTESIAN_POINT('Origin',(15.25,-22.2500007003546,-12.0000002086163));
#1519=CARTESIAN_POINT('Origin',(-15.25,-52.7500007003546,-10.0000002086163));
#1520=CARTESIAN_POINT('',(-13.65,-52.7500007003546,-9.20000020861626));
#1521=CARTESIAN_POINT('Origin',(-15.25,-52.7500007003546,-9.20000020861626));
#1522=CARTESIAN_POINT('',(-13.65,-52.7500007003546,-12.0000002086163));
#1523=CARTESIAN_POINT('',(-13.65,-52.7500007003546,-10.0000002086163));
#1524=CARTESIAN_POINT('Origin',(-15.25,-52.7500007003546,-12.0000002086163));
#1525=CARTESIAN_POINT('Origin',(-12.0031530141812,-16.5000025557346,-10.0000002086163));
#1526=CARTESIAN_POINT('',(-12.0031530141812,-18.1500025557346,-9.20000020861626));
#1527=CARTESIAN_POINT('Origin',(-12.0031530141812,-16.5000025557346,-9.20000020861626));
#1528=CARTESIAN_POINT('',(-12.0031530141812,-18.1500025557346,-12.0000002086163));
#1529=CARTESIAN_POINT('',(-12.0031530141812,-18.1500025557346,-10.0000002086163));
#1530=CARTESIAN_POINT('Origin',(-12.0031530141812,-16.5000025557346,-12.0000002086163));
#1531=CARTESIAN_POINT('Origin',(11.9968469858188,-28.5000025557346,-10.0000002086163));
#1532=CARTESIAN_POINT('',(13.6468469858188,-28.5000025557346,-9.20000020861626));
#1533=CARTESIAN_POINT('Origin',(11.9968469858188,-28.5000025557346,-9.20000020861626));
#1534=CARTESIAN_POINT('',(13.6468469858188,-28.5000025557346,-12.0000002086163));
#1535=CARTESIAN_POINT('',(13.6468469858188,-28.5000025557346,-10.0000002086163));
#1536=CARTESIAN_POINT('Origin',(11.9968469858188,-28.5000025557346,-12.0000002086163));
#1537=CARTESIAN_POINT('Origin',(27.0000003278255,-50.0000008195639,-10.0000002086163));
#1538=CARTESIAN_POINT('',(22.0000003278255,-50.0000008195639,-12.0000002086163));
#1539=CARTESIAN_POINT('',(27.0000003278255,-55.0000008195639,-12.0000002086163));
#1540=CARTESIAN_POINT('Origin',(27.0000003278255,-50.0000008195639,-12.0000002086163));
#1541=CARTESIAN_POINT('',(22.0000003278255,-50.0000008195639,-9.20000020861626));
#1542=CARTESIAN_POINT('',(22.0000003278255,-50.0000008195639,-10.0000002086163));
#1543=CARTESIAN_POINT('',(27.0000003278255,-55.0000008195639,-9.20000020861626));
#1544=CARTESIAN_POINT('Origin',(27.0000003278255,-50.0000008195639,-9.20000020861626));
#1545=CARTESIAN_POINT('',(27.0000003278255,-55.0000008195639,-10.0000002086163));
#1546=CARTESIAN_POINT('Origin',(45.0000007450581,-55.0000008195639,-10.0000002086163));
#1547=CARTESIAN_POINT('',(45.0000007450581,-55.0000008195639,-12.0000002086163));
#1548=CARTESIAN_POINT('',(22.500000372529,-55.0000008195639,-12.0000002086163));
#1549=CARTESIAN_POINT('',(45.0000007450581,-55.0000008195639,-9.20000020861626));
#1550=CARTESIAN_POINT('',(22.500000372529,-55.0000008195639,-9.20000020861626));
#1551=CARTESIAN_POINT('',(45.0000007450581,-55.0000008195639,-10.0000002086163));
#1552=CARTESIAN_POINT('Origin',(45.0000007450581,-50.0000008195639,-10.0000002086163));
#1553=CARTESIAN_POINT('',(50.0000007450581,-50.0000008195639,-12.0000002086163));
#1554=CARTESIAN_POINT('Origin',(45.0000007450581,-50.0000008195639,-12.0000002086163));
#1555=CARTESIAN_POINT('',(50.0000007450581,-50.0000008195639,-9.20000020861626));
#1556=CARTESIAN_POINT('Origin',(45.0000007450581,-50.0000008195639,-9.20000020861626));
#1557=CARTESIAN_POINT('',(50.0000007450581,-50.0000008195639,-10.0000002086163));
#1558=CARTESIAN_POINT('Origin',(50.0000007450581,-24.0000002831221,-10.0000002086163));
#1559=CARTESIAN_POINT('',(50.0000007450581,-24.0000002831221,-12.0000002086163));
#1560=CARTESIAN_POINT('',(50.0000007450581,-43.0000007748604,-12.0000002086163));
#1561=CARTESIAN_POINT('',(50.0000007450581,-24.0000002831221,-9.20000020861626));
#1562=CARTESIAN_POINT('',(50.0000007450581,-18.0000007748604,-9.20000020861626));
#1563=CARTESIAN_POINT('',(50.0000007450581,-24.0000002831221,-10.0000002086163));
#1564=CARTESIAN_POINT('Origin',(45.0000007450581,-24.0000002831221,-10.0000002086163));
#1565=CARTESIAN_POINT('',(45.0000007450581,-19.0000002831221,-12.0000002086163));
#1566=CARTESIAN_POINT('Origin',(45.0000007450581,-24.0000002831221,-12.0000002086163));
#1567=CARTESIAN_POINT('',(45.0000007450581,-19.0000002831221,-9.20000020861626));
#1568=CARTESIAN_POINT('Origin',(45.0000007450581,-24.0000002831221,-9.20000020861626));
#1569=CARTESIAN_POINT('',(45.0000007450581,-19.0000002831221,-10.0000002086163));
#1570=CARTESIAN_POINT('Origin',(27.0000003278255,-19.0000002831221,-10.0000002086163));
#1571=CARTESIAN_POINT('',(27.0000003278255,-19.0000002831221,-12.0000002086163));
#1572=CARTESIAN_POINT('',(13.5000001639128,-19.0000002831221,-12.0000002086163));
#1573=CARTESIAN_POINT('',(27.0000003278255,-19.0000002831221,-9.20000020861626));
#1574=CARTESIAN_POINT('',(13.5000001639128,-19.0000002831221,-9.20000020861626));
#1575=CARTESIAN_POINT('',(27.0000003278255,-19.0000002831221,-10.0000002086163));
#1576=CARTESIAN_POINT('Origin',(27.0000003278255,-24.0000002831221,-10.0000002086163));
#1577=CARTESIAN_POINT('',(22.0000003278255,-24.0000002831221,-12.0000002086163));
#1578=CARTESIAN_POINT('Origin',(27.0000003278255,-24.0000002831221,-12.0000002086163));
#1579=CARTESIAN_POINT('',(22.0000003278255,-24.0000002831221,-9.20000020861626));
#1580=CARTESIAN_POINT('Origin',(27.0000003278255,-24.0000002831221,-9.20000020861626));
#1581=CARTESIAN_POINT('',(22.0000003278255,-24.0000002831221,-10.0000002086163));
#1582=CARTESIAN_POINT('Origin',(22.0000003278255,-50.0000008195639,-10.0000002086163));
#1583=CARTESIAN_POINT('',(22.0000003278255,-56.0000010430813,-12.0000002086163));
#1584=CARTESIAN_POINT('',(22.0000003278255,-31.0000010430813,-9.20000020861626));
#1585=CARTESIAN_POINT('Ctrl Pts',(-54.7095842617615,-12.0000002656991,-12.3447882065059));
#1586=CARTESIAN_POINT('Ctrl Pts',(-54.5852133035876,-30.2993293409103,-12.3103296322072));
#1587=CARTESIAN_POINT('Ctrl Pts',(-54.1704001108667,-46.8374051453942,-12.1954002995773));
#1588=CARTESIAN_POINT('Ctrl Pts',(-53.4651446835988,-62.0000012665987,-12.0000002086163));
#1589=CARTESIAN_POINT('Ctrl Pts',(-55.1288893281456,-12.0000005974489,-11.2965255405457));
#1590=CARTESIAN_POINT('Ctrl Pts',(-55.0037805721856,-30.2993306857245,-11.263911460712));
#1591=CARTESIAN_POINT('Ctrl Pts',(-54.5865066100077,-46.837409729575,-11.1551340517246));
#1592=CARTESIAN_POINT('Ctrl Pts',(-53.877067441612,-62.0000100133841,-10.9701933135834));
#1593=CARTESIAN_POINT('Ctrl Pts',(-55.5481943945297,-12.0000009291987,-10.2482628745854));
#1594=CARTESIAN_POINT('Ctrl Pts',(-55.4223478407837,-30.2993320305388,-10.2174932892169));
#1595=CARTESIAN_POINT('Ctrl Pts',(-55.0026131091488,-46.8374143137558,-10.1148678038719));
#1596=CARTESIAN_POINT('Ctrl Pts',(-54.2889901996251,-62.0000187601696,-9.94038641855058));
#1597=CARTESIAN_POINT('Ctrl Pts',(-55.9674994609138,-12.0000012609485,-9.20000020862518));
#1598=CARTESIAN_POINT('Ctrl Pts',(-55.8409151093817,-30.299333375353,-9.17107511772175));
#1599=CARTESIAN_POINT('Ctrl Pts',(-55.4187196082899,-46.8374188979366,-9.07460155601927));
#1600=CARTESIAN_POINT('Ctrl Pts',(-54.7009129576383,-62.000027506955,-8.91057952351773));
#1601=CARTESIAN_POINT('',(-54.8474994541847,-12.0000012665987,-12.0000002086163));
#1602=CARTESIAN_POINT('Ctrl Pts',(-54.8474994541847,-12.0000012665987,-12.0000002086163));
#1603=CARTESIAN_POINT('Ctrl Pts',(-54.7227062846434,-28.5295604824867,-12.0000002086163));
#1604=CARTESIAN_POINT('Ctrl Pts',(-54.3209711616161,-45.4359296881058,-12.0000002086163));
#1605=CARTESIAN_POINT('Ctrl Pts',(-53.4651446835988,-62.0000012665987,-12.0000002086163));
#1606=CARTESIAN_POINT('',(-55.9674994608747,-12.0000012665987,-9.20000020861626));
#1607=CARTESIAN_POINT('Ctrl Pts',(-54.585145912364,-62.0000012665987,-9.20000020861626));
#1608=CARTESIAN_POINT('Ctrl Pts',(-55.3714292219253,-46.7818815564563,-9.20000020861626));
#1609=CARTESIAN_POINT('Ctrl Pts',(-55.8298093328681,-30.2378395080404,-9.20000020861626));
#1610=CARTESIAN_POINT('Ctrl Pts',(-55.9674994608747,-12.0000012665987,-9.20000020861626));
#1611=CARTESIAN_POINT('Ctrl Pts',(-55.9674994608747,-12.0000012665987,-9.20000020861625));
#1612=CARTESIAN_POINT('Ctrl Pts',(-55.8608327935709,-12.0000012665987,-9.46666687528292));
#1613=CARTESIAN_POINT('Ctrl Pts',(-55.7541661262671,-12.0000012665987,-9.73333354194959));
#1614=CARTESIAN_POINT('Ctrl Pts',(-55.6474994589633,-12.0000012665987,-10.0000002086163));
#1615=CARTESIAN_POINT('Ctrl Pts',(-55.3808327907037,-12.0000012665987,-10.6666668752829));
#1616=CARTESIAN_POINT('Ctrl Pts',(-55.1141661224442,-12.0000012665987,-11.3333335419496));
#1617=CARTESIAN_POINT('Ctrl Pts',(-54.8474994541847,-12.0000012665987,-12.0000002086163));
#1618=CARTESIAN_POINT('Origin',(0.,-12.0000012665987,-9.20000020861626));
#1619=CARTESIAN_POINT('',(55.9674994608747,-12.0000012665987,-9.20000020861626));
#1620=CARTESIAN_POINT('Ctrl Pts',(55.9674994608747,-12.0000012665987,-9.20000020861626));
#1621=CARTESIAN_POINT('Ctrl Pts',(55.8448161015329,-28.2501079008599,-9.20000020861626));
#1622=CARTESIAN_POINT('Ctrl Pts',(55.4544188742063,-45.1756583952151,-9.20000020861626));
#1623=CARTESIAN_POINT('Ctrl Pts',(54.585145912364,-62.0000012665987,-9.20000020861626));
#1624=CARTESIAN_POINT('',(0.,-12.0000012665987,-9.20000020861626));
#1625=CARTESIAN_POINT('Origin',(0.,-12.0000012665987,-12.0000002086163));
#1626=CARTESIAN_POINT('',(54.8474994541847,-12.0000012665987,-12.0000002086163));
#1627=CARTESIAN_POINT('Ctrl Pts',(54.8474994541847,-12.0000012665987,-12.0000002086163));
#1628=CARTESIAN_POINT('Ctrl Pts',(55.1141661224442,-12.0000012665987,-11.3333335419496));
#1629=CARTESIAN_POINT('Ctrl Pts',(55.3808327907037,-12.0000012665987,-10.6666668752829));
#1630=CARTESIAN_POINT('Ctrl Pts',(55.6474994589633,-12.0000012665987,-10.0000002086163));
#1631=CARTESIAN_POINT('Ctrl Pts',(55.7541661262671,-12.0000012665987,-9.73333354194959));
#1632=CARTESIAN_POINT('Ctrl Pts',(55.8608327935709,-12.0000012665987,-9.46666687528293));
#1633=CARTESIAN_POINT('Ctrl Pts',(55.9674994608747,-12.0000012665987,-9.20000020861626));
#1634=CARTESIAN_POINT('',(0.,-12.0000012665987,-12.0000002086163));
#1635=CARTESIAN_POINT('Origin',(0.,-62.0000012665987,-12.0000002086163));
#1636=CARTESIAN_POINT('Ctrl Pts',(53.4651446835988,-62.0000012665987,-12.0000002086163));
#1637=CARTESIAN_POINT('Ctrl Pts',(54.3209711615963,-45.4359296884908,-12.0000002086163));
#1638=CARTESIAN_POINT('Ctrl Pts',(54.7227062843824,-28.5295605170542,-12.0000002086163));
#1639=CARTESIAN_POINT('Ctrl Pts',(54.8474994541847,-12.0000012665987,-12.0000002086163));
#1640=CARTESIAN_POINT('Ctrl Pts',(55.9674994608747,-12.0000012665987,-9.20000020861625));
#1641=CARTESIAN_POINT('Ctrl Pts',(55.8409151092948,-30.2993333787573,-9.1710751177019));
#1642=CARTESIAN_POINT('Ctrl Pts',(55.418719608216,-46.8374188994972,-9.0746015560024));
#1643=CARTESIAN_POINT('Ctrl Pts',(54.7009129576383,-62.000027506955,-8.91057952351774));
#1644=CARTESIAN_POINT('Ctrl Pts',(55.5481943944908,-12.0000009348489,-10.2482628745759));
#1645=CARTESIAN_POINT('Ctrl Pts',(55.4223478406973,-30.2993320339431,-10.2174932891958));
#1646=CARTESIAN_POINT('Ctrl Pts',(55.0026131090754,-46.8374143153164,-10.114867803854));
#1647=CARTESIAN_POINT('Ctrl Pts',(54.2889901996251,-62.0000187601696,-9.94038641855058));
#1648=CARTESIAN_POINT('Ctrl Pts',(55.128889328107,-12.0000006030991,-11.2965255405356));
#1649=CARTESIAN_POINT('Ctrl Pts',(55.0037805720997,-30.2993306891288,-11.2639114606896));
#1650=CARTESIAN_POINT('Ctrl Pts',(54.5865066099347,-46.8374097311356,-11.1551340517056));
#1651=CARTESIAN_POINT('Ctrl Pts',(53.877067441612,-62.0000100133841,-10.9701933135834));
#1652=CARTESIAN_POINT('Ctrl Pts',(54.7095842617231,-12.0000002713493,-12.3447882064953));
#1653=CARTESIAN_POINT('Ctrl Pts',(54.5852133035022,-30.2993293443145,-12.3103296321835));
#1654=CARTESIAN_POINT('Ctrl Pts',(54.1704001107941,-46.8374051469548,-12.1954002995572));
#1655=CARTESIAN_POINT('Ctrl Pts',(53.4651446835989,-62.0000012665987,-12.0000002086163));
#1656=UNCERTAINTY_MEASURE_WITH_UNIT(LENGTH_MEASURE(0.01),#1660,
'DISTANCE_ACCURACY_VALUE',
'Maximum model space distance between geometric entities at asserted c
onnectivities');
#1657=UNCERTAINTY_MEASURE_WITH_UNIT(LENGTH_MEASURE(0.01),#1660,
'DISTANCE_ACCURACY_VALUE',
'Maximum model space distance between geometric entities at asserted c
onnectivities');
#1658=(
GEOMETRIC_REPRESENTATION_CONTEXT(3)
GLOBAL_UNCERTAINTY_ASSIGNED_CONTEXT((#1656))
GLOBAL_UNIT_ASSIGNED_CONTEXT((#1660,#1662,#1663))
REPRESENTATION_CONTEXT('','3D')
);
#1659=(
GEOMETRIC_REPRESENTATION_CONTEXT(3)
GLOBAL_UNCERTAINTY_ASSIGNED_CONTEXT((#1657))
GLOBAL_UNIT_ASSIGNED_CONTEXT((#1660,#1662,#1663))
REPRESENTATION_CONTEXT('','3D')
);
#1660=(
LENGTH_UNIT()
NAMED_UNIT(*)
SI_UNIT(.MILLI.,.METRE.)
);
#1661=(
LENGTH_UNIT()
NAMED_UNIT(*)
SI_UNIT($,.METRE.)
);
#1662=(
NAMED_UNIT(*)
PLANE_ANGLE_UNIT()
SI_UNIT($,.RADIAN.)
);
#1663=(
NAMED_UNIT(*)
SI_UNIT($,.STERADIAN.)
SOLID_ANGLE_UNIT()
);
#1664=SHAPE_DEFINITION_REPRESENTATION(#1665,#1666);
#1665=PRODUCT_DEFINITION_SHAPE('',$,#1668);
#1666=SHAPE_REPRESENTATION('',(#960),#1658);
#1667=PRODUCT_DEFINITION_CONTEXT('part definition',#1672,'design');
#1668=PRODUCT_DEFINITION('FC Plate','FC Plate',#1669,#1667);
#1669=PRODUCT_DEFINITION_FORMATION('',$,#1674);
#1670=PRODUCT_RELATED_PRODUCT_CATEGORY('FC Plate','FC Plate',(#1674));
#1671=APPLICATION_PROTOCOL_DEFINITION('international standard',
'automotive_design',2009,#1672);
#1672=APPLICATION_CONTEXT(
'Core Data for Automotive Mechanical Design Process');
#1673=PRODUCT_CONTEXT('part definition',#1672,'mechanical');
#1674=PRODUCT('FC Plate','FC Plate',$,(#1673));
#1675=PRESENTATION_STYLE_ASSIGNMENT((#1677));
#1676=PRESENTATION_STYLE_ASSIGNMENT((#1678));
#1677=SURFACE_STYLE_USAGE(.BOTH.,#1679);
#1678=SURFACE_STYLE_USAGE(.BOTH.,#1680);
#1679=SURFACE_SIDE_STYLE('',(#1681));
#1680=SURFACE_SIDE_STYLE('',(#1682));
#1681=SURFACE_STYLE_FILL_AREA(#1683);
#1682=SURFACE_STYLE_FILL_AREA(#1684);
#1683=FILL_AREA_STYLE('Steel - Satin',(#1685));
#1684=FILL_AREA_STYLE('Paint - Enamel Glossy Bleu',(#1686));
#1685=FILL_AREA_STYLE_COLOUR('Steel - Satin',#1687);
#1686=FILL_AREA_STYLE_COLOUR('Paint - Enamel Glossy Bleu',#1688);
#1687=COLOUR_RGB('Steel - Satin',0.627450980392157,0.627450980392157,0.627450980392157);
#1688=COLOUR_RGB('Paint - Enamel Glossy Bleu',0.,0.666666666666667,1.);
ENDSEC;
END-ISO-10303-21;
