ISO-10303-21;
HEADER;
/* Generated by software containing ST-Developer
 * from STEP Tools, Inc. (www.steptools.com) 
 */

FILE_DESCRIPTION(
/* description */ (''),
/* implementation_level */ '2;1');

FILE_NAME(
/* name */ 'Servo Plate.step',
/* time_stamp */ '2025-12-07T14:32:27+01:00',
/* author */ (''),
/* organization */ (''),
/* preprocessor_version */ 'ST-DEVELOPER v20.1',
/* originating_system */ 'Autodesk Translation Framework v14.21.0.0',
/* authorisation */ '');

FILE_SCHEMA (('AUTOMOTIVE_DESIGN { 1 0 10303 214 3 1 1 }'));
ENDSEC;

DATA;
#10=MECHANICAL_DESIGN_GEOMETRIC_PRESENTATION_REPRESENTATION('',(#13),#1675);
#11=SHAPE_REPRESENTATION_RELATIONSHIP('SRR','None',#1682,#12);
#12=ADVANCED_BREP_SHAPE_REPRESENTATION('',(#14),#1674);
#13=STYLED_ITEM('',(#1692),#14);
#14=MANIFOLD_SOLID_BREP('Servo Plate',#983);
#15=FACE_BOUND('',#175,.T.);
#16=FACE_BOUND('',#176,.T.);
#17=FACE_BOUND('',#177,.T.);
#18=FACE_BOUND('',#178,.T.);
#19=FACE_BOUND('',#179,.T.);
#20=FACE_BOUND('',#180,.T.);
#21=FACE_BOUND('',#181,.T.);
#22=FACE_BOUND('',#184,.T.);
#23=FACE_BOUND('',#185,.T.);
#24=FACE_BOUND('',#186,.T.);
#25=FACE_BOUND('',#187,.T.);
#26=FACE_BOUND('',#188,.T.);
#27=FACE_BOUND('',#189,.T.);
#28=B_SPLINE_CURVE_WITH_KNOTS('',3,(#1598,#1599,#1600,#1601),
 .UNSPECIFIED.,.F.,.F.,(4,4),(-3.46833789539381,-0.0503917565162246),
 .UNSPECIFIED.);
#29=B_SPLINE_CURVE_WITH_KNOTS('',3,(#1603,#1604,#1605,#1606,#1607,#1608,
#1609),.UNSPECIFIED.,.F.,.F.,(4,3,4),(-0.250000000442774,-0.0500000000885506,
0.0500000000885491),.UNSPECIFIED.);
#30=B_SPLINE_CURVE_WITH_KNOTS('',3,(#1611,#1612,#1613,#1614),
 .UNSPECIFIED.,.F.,.F.,(4,4),(-14.5485278174924,-9.64163157942131),
 .UNSPECIFIED.);
#31=B_SPLINE_CURVE_WITH_KNOTS('',3,(#1615,#1616,#1617,#1618,#1619,#1620,
#1621),.UNSPECIFIED.,.F.,.F.,(4,3,4),(-0.350000000052303,-0.25000000003736,
-0.0500000000074721),.UNSPECIFIED.);
#32=B_SPLINE_CURVE_WITH_KNOTS('',3,(#1625,#1626,#1627,#1628,#1629,#1630,
#1631),.UNSPECIFIED.,.F.,.F.,(4,3,4),(-0.350000000619884,-0.250000000442784,
-0.0500000000885607),.UNSPECIFIED.);
#33=B_SPLINE_CURVE_WITH_KNOTS('',3,(#1636,#1637,#1638,#1639),
 .UNSPECIFIED.,.F.,.F.,(4,4),(-13.0157407123734,-10.238322534871),
 .UNSPECIFIED.);
#34=B_SPLINE_CURVE_WITH_KNOTS('',3,(#1643,#1644,#1645,#1646,#1647,#1648,
#1649),.UNSPECIFIED.,.F.,.F.,(4,3,4),(-0.25000000003736,-0.0500000000074718,
0.0500000000074716),.UNSPECIFIED.);
#35=B_SPLINE_CURVE_WITH_KNOTS('',3,(#1652,#1653,#1654,#1655),
 .UNSPECIFIED.,.F.,.F.,(4,4),(-3.46112353137642,-0.0501262361194414),
 .UNSPECIFIED.);
#36=B_SPLINE_SURFACE_WITH_KNOTS('',3,3,((#1580,#1581,#1582,#1583),(#1584,
#1585,#1586,#1587),(#1588,#1589,#1590,#1591),(#1592,#1593,#1594,#1595)),
 .UNSPECIFIED.,.F.,.F.,.F.,(4,4),(4,4),(0.632498244017886,1.01267244643686),
(0.294012717713621,0.445313455710448),.UNSPECIFIED.);
#37=B_SPLINE_SURFACE_WITH_KNOTS('',3,3,((#1656,#1657,#1658,#1659),(#1660,
#1661,#1662,#1663),(#1664,#1665,#1666,#1667),(#1668,#1669,#1670,#1671)),
 .UNSPECIFIED.,.F.,.F.,.F.,(4,4),(4,4),(-0.0126723546481117,0.367501813312421),
(0.294012717714346,0.445313455711474),.UNSPECIFIED.);
#38=CIRCLE('',#1012,4.00000000000002);
#39=CIRCLE('',#1013,4.00000000000002);
#40=CIRCLE('',#1016,3.99999999999998);
#41=CIRCLE('',#1017,3.99999999999998);
#42=CIRCLE('',#1020,3.99999999999998);
#43=CIRCLE('',#1021,3.99999999999998);
#44=CIRCLE('',#1024,4.);
#45=CIRCLE('',#1025,4.);
#46=CIRCLE('',#1032,4.00000000000002);
#47=CIRCLE('',#1033,4.00000000000002);
#48=CIRCLE('',#1036,3.99999999999997);
#49=CIRCLE('',#1037,3.99999999999997);
#50=CIRCLE('',#1040,4.00000000000004);
#51=CIRCLE('',#1041,4.00000000000004);
#52=CIRCLE('',#1044,4.00000000000002);
#53=CIRCLE('',#1045,4.00000000000002);
#54=CIRCLE('',#1047,0.750000000000002);
#55=CIRCLE('',#1048,0.750000000000002);
#56=CIRCLE('',#1050,0.750000000000002);
#57=CIRCLE('',#1051,0.750000000000002);
#58=CIRCLE('',#1054,3.00000000000002);
#59=CIRCLE('',#1055,3.00000000000002);
#60=CIRCLE('',#1058,3.00000000000002);
#61=CIRCLE('',#1059,3.00000000000002);
#62=CIRCLE('',#1062,3.00000000000002);
#63=CIRCLE('',#1063,3.00000000000002);
#64=CIRCLE('',#1066,3.00000000000002);
#65=CIRCLE('',#1067,3.00000000000002);
#66=CYLINDRICAL_SURFACE('',#1011,4.00000000000002);
#67=CYLINDRICAL_SURFACE('',#1015,3.99999999999998);
#68=CYLINDRICAL_SURFACE('',#1019,3.99999999999998);
#69=CYLINDRICAL_SURFACE('',#1023,4.);
#70=CYLINDRICAL_SURFACE('',#1031,4.00000000000002);
#71=CYLINDRICAL_SURFACE('',#1035,3.99999999999997);
#72=CYLINDRICAL_SURFACE('',#1039,4.00000000000004);
#73=CYLINDRICAL_SURFACE('',#1043,4.00000000000002);
#74=CYLINDRICAL_SURFACE('',#1046,0.750000000000002);
#75=CYLINDRICAL_SURFACE('',#1049,0.750000000000002);
#76=CYLINDRICAL_SURFACE('',#1053,3.00000000000002);
#77=CYLINDRICAL_SURFACE('',#1057,3.00000000000002);
#78=CYLINDRICAL_SURFACE('',#1061,3.00000000000002);
#79=CYLINDRICAL_SURFACE('',#1065,3.00000000000002);
#80=FACE_OUTER_BOUND('',#129,.T.);
#81=FACE_OUTER_BOUND('',#130,.T.);
#82=FACE_OUTER_BOUND('',#131,.T.);
#83=FACE_OUTER_BOUND('',#132,.T.);
#84=FACE_OUTER_BOUND('',#133,.T.);
#85=FACE_OUTER_BOUND('',#134,.T.);
#86=FACE_OUTER_BOUND('',#135,.T.);
#87=FACE_OUTER_BOUND('',#136,.T.);
#88=FACE_OUTER_BOUND('',#137,.T.);
#89=FACE_OUTER_BOUND('',#138,.T.);
#90=FACE_OUTER_BOUND('',#139,.T.);
#91=FACE_OUTER_BOUND('',#140,.T.);
#92=FACE_OUTER_BOUND('',#141,.T.);
#93=FACE_OUTER_BOUND('',#142,.T.);
#94=FACE_OUTER_BOUND('',#143,.T.);
#95=FACE_OUTER_BOUND('',#144,.T.);
#96=FACE_OUTER_BOUND('',#145,.T.);
#97=FACE_OUTER_BOUND('',#146,.T.);
#98=FACE_OUTER_BOUND('',#147,.T.);
#99=FACE_OUTER_BOUND('',#148,.T.);
#100=FACE_OUTER_BOUND('',#149,.T.);
#101=FACE_OUTER_BOUND('',#150,.T.);
#102=FACE_OUTER_BOUND('',#151,.T.);
#103=FACE_OUTER_BOUND('',#152,.T.);
#104=FACE_OUTER_BOUND('',#153,.T.);
#105=FACE_OUTER_BOUND('',#154,.T.);
#106=FACE_OUTER_BOUND('',#155,.T.);
#107=FACE_OUTER_BOUND('',#156,.T.);
#108=FACE_OUTER_BOUND('',#157,.T.);
#109=FACE_OUTER_BOUND('',#158,.T.);
#110=FACE_OUTER_BOUND('',#159,.T.);
#111=FACE_OUTER_BOUND('',#160,.T.);
#112=FACE_OUTER_BOUND('',#161,.T.);
#113=FACE_OUTER_BOUND('',#162,.T.);
#114=FACE_OUTER_BOUND('',#163,.T.);
#115=FACE_OUTER_BOUND('',#164,.T.);
#116=FACE_OUTER_BOUND('',#165,.T.);
#117=FACE_OUTER_BOUND('',#166,.T.);
#118=FACE_OUTER_BOUND('',#167,.T.);
#119=FACE_OUTER_BOUND('',#168,.T.);
#120=FACE_OUTER_BOUND('',#169,.T.);
#121=FACE_OUTER_BOUND('',#170,.T.);
#122=FACE_OUTER_BOUND('',#171,.T.);
#123=FACE_OUTER_BOUND('',#172,.T.);
#124=FACE_OUTER_BOUND('',#173,.T.);
#125=FACE_OUTER_BOUND('',#174,.T.);
#126=FACE_OUTER_BOUND('',#182,.T.);
#127=FACE_OUTER_BOUND('',#183,.T.);
#128=FACE_OUTER_BOUND('',#190,.T.);
#129=EDGE_LOOP('',(#625,#626,#627,#628));
#130=EDGE_LOOP('',(#629,#630,#631,#632));
#131=EDGE_LOOP('',(#633,#634,#635,#636));
#132=EDGE_LOOP('',(#637,#638,#639,#640));
#133=EDGE_LOOP('',(#641,#642,#643,#644));
#134=EDGE_LOOP('',(#645,#646,#647,#648));
#135=EDGE_LOOP('',(#649,#650,#651,#652));
#136=EDGE_LOOP('',(#653,#654,#655,#656));
#137=EDGE_LOOP('',(#657,#658,#659,#660));
#138=EDGE_LOOP('',(#661,#662,#663,#664));
#139=EDGE_LOOP('',(#665,#666,#667,#668));
#140=EDGE_LOOP('',(#669,#670,#671,#672));
#141=EDGE_LOOP('',(#673,#674,#675,#676,#677,#678,#679,#680,#681,#682,#683,
#684));
#142=EDGE_LOOP('',(#685,#686,#687,#688));
#143=EDGE_LOOP('',(#689,#690,#691,#692));
#144=EDGE_LOOP('',(#693,#694,#695,#696));
#145=EDGE_LOOP('',(#697,#698,#699,#700));
#146=EDGE_LOOP('',(#701,#702,#703,#704));
#147=EDGE_LOOP('',(#705,#706,#707,#708));
#148=EDGE_LOOP('',(#709,#710,#711,#712));
#149=EDGE_LOOP('',(#713,#714,#715,#716));
#150=EDGE_LOOP('',(#717,#718,#719,#720));
#151=EDGE_LOOP('',(#721,#722,#723,#724));
#152=EDGE_LOOP('',(#725,#726,#727,#728));
#153=EDGE_LOOP('',(#729,#730,#731,#732));
#154=EDGE_LOOP('',(#733,#734,#735,#736));
#155=EDGE_LOOP('',(#737,#738,#739,#740));
#156=EDGE_LOOP('',(#741,#742,#743,#744));
#157=EDGE_LOOP('',(#745,#746,#747,#748));
#158=EDGE_LOOP('',(#749,#750,#751,#752));
#159=EDGE_LOOP('',(#753,#754,#755,#756));
#160=EDGE_LOOP('',(#757,#758,#759,#760));
#161=EDGE_LOOP('',(#761,#762,#763,#764));
#162=EDGE_LOOP('',(#765,#766,#767,#768));
#163=EDGE_LOOP('',(#769,#770,#771,#772));
#164=EDGE_LOOP('',(#773,#774,#775,#776));
#165=EDGE_LOOP('',(#777,#778,#779,#780));
#166=EDGE_LOOP('',(#781,#782,#783,#784));
#167=EDGE_LOOP('',(#785,#786,#787,#788));
#168=EDGE_LOOP('',(#789,#790,#791,#792));
#169=EDGE_LOOP('',(#793,#794,#795,#796));
#170=EDGE_LOOP('',(#797,#798,#799,#800));
#171=EDGE_LOOP('',(#801,#802,#803,#804));
#172=EDGE_LOOP('',(#805,#806,#807,#808));
#173=EDGE_LOOP('',(#809,#810,#811,#812));
#174=EDGE_LOOP('',(#813,#814,#815,#816));
#175=EDGE_LOOP('',(#817,#818,#819,#820,#821,#822,#823,#824,#825,#826,#827,
#828));
#176=EDGE_LOOP('',(#829,#830,#831,#832,#833,#834,#835,#836));
#177=EDGE_LOOP('',(#837,#838,#839,#840));
#178=EDGE_LOOP('',(#841,#842,#843,#844,#845,#846,#847,#848));
#179=EDGE_LOOP('',(#849));
#180=EDGE_LOOP('',(#850));
#181=EDGE_LOOP('',(#851,#852,#853,#854,#855,#856,#857,#858));
#182=EDGE_LOOP('',(#859,#860,#861,#862));
#183=EDGE_LOOP('',(#863,#864,#865,#866));
#184=EDGE_LOOP('',(#867,#868,#869,#870,#871,#872,#873,#874));
#185=EDGE_LOOP('',(#875,#876,#877,#878));
#186=EDGE_LOOP('',(#879,#880,#881,#882,#883,#884,#885,#886));
#187=EDGE_LOOP('',(#887));
#188=EDGE_LOOP('',(#888));
#189=EDGE_LOOP('',(#889,#890,#891,#892,#893,#894,#895,#896));
#190=EDGE_LOOP('',(#897,#898,#899,#900));
#191=LINE('',#1330,#293);
#192=LINE('',#1332,#294);
#193=LINE('',#1334,#295);
#194=LINE('',#1335,#296);
#195=LINE('',#1338,#297);
#196=LINE('',#1340,#298);
#197=LINE('',#1341,#299);
#198=LINE('',#1344,#300);
#199=LINE('',#1346,#301);
#200=LINE('',#1347,#302);
#201=LINE('',#1350,#303);
#202=LINE('',#1352,#304);
#203=LINE('',#1353,#305);
#204=LINE('',#1356,#306);
#205=LINE('',#1358,#307);
#206=LINE('',#1359,#308);
#207=LINE('',#1362,#309);
#208=LINE('',#1364,#310);
#209=LINE('',#1365,#311);
#210=LINE('',#1368,#312);
#211=LINE('',#1370,#313);
#212=LINE('',#1371,#314);
#213=LINE('',#1374,#315);
#214=LINE('',#1376,#316);
#215=LINE('',#1377,#317);
#216=LINE('',#1380,#318);
#217=LINE('',#1382,#319);
#218=LINE('',#1383,#320);
#219=LINE('',#1386,#321);
#220=LINE('',#1388,#322);
#221=LINE('',#1389,#323);
#222=LINE('',#1392,#324);
#223=LINE('',#1394,#325);
#224=LINE('',#1395,#326);
#225=LINE('',#1397,#327);
#226=LINE('',#1398,#328);
#227=LINE('',#1403,#329);
#228=LINE('',#1405,#330);
#229=LINE('',#1407,#331);
#230=LINE('',#1408,#332);
#231=LINE('',#1414,#333);
#232=LINE('',#1417,#334);
#233=LINE('',#1419,#335);
#234=LINE('',#1420,#336);
#235=LINE('',#1426,#337);
#236=LINE('',#1429,#338);
#237=LINE('',#1431,#339);
#238=LINE('',#1432,#340);
#239=LINE('',#1438,#341);
#240=LINE('',#1441,#342);
#241=LINE('',#1443,#343);
#242=LINE('',#1444,#344);
#243=LINE('',#1451,#345);
#244=LINE('',#1453,#346);
#245=LINE('',#1455,#347);
#246=LINE('',#1456,#348);
#247=LINE('',#1459,#349);
#248=LINE('',#1461,#350);
#249=LINE('',#1462,#351);
#250=LINE('',#1465,#352);
#251=LINE('',#1467,#353);
#252=LINE('',#1468,#354);
#253=LINE('',#1470,#355);
#254=LINE('',#1471,#356);
#255=LINE('',#1475,#357);
#256=LINE('',#1477,#358);
#257=LINE('',#1479,#359);
#258=LINE('',#1480,#360);
#259=LINE('',#1486,#361);
#260=LINE('',#1489,#362);
#261=LINE('',#1491,#363);
#262=LINE('',#1492,#364);
#263=LINE('',#1498,#365);
#264=LINE('',#1501,#366);
#265=LINE('',#1503,#367);
#266=LINE('',#1504,#368);
#267=LINE('',#1510,#369);
#268=LINE('',#1513,#370);
#269=LINE('',#1515,#371);
#270=LINE('',#1516,#372);
#271=LINE('',#1524,#373);
#272=LINE('',#1530,#374);
#273=LINE('',#1535,#375);
#274=LINE('',#1537,#376);
#275=LINE('',#1539,#377);
#276=LINE('',#1540,#378);
#277=LINE('',#1546,#379);
#278=LINE('',#1549,#380);
#279=LINE('',#1551,#381);
#280=LINE('',#1552,#382);
#281=LINE('',#1558,#383);
#282=LINE('',#1561,#384);
#283=LINE('',#1563,#385);
#284=LINE('',#1564,#386);
#285=LINE('',#1570,#387);
#286=LINE('',#1573,#388);
#287=LINE('',#1575,#389);
#288=LINE('',#1576,#390);
#289=LINE('',#1632,#391);
#290=LINE('',#1633,#392);
#291=LINE('',#1640,#393);
#292=LINE('',#1650,#394);
#293=VECTOR('',#1076,10.);
#294=VECTOR('',#1077,10.);
#295=VECTOR('',#1078,10.);
#296=VECTOR('',#1079,10.);
#297=VECTOR('',#1082,10.);
#298=VECTOR('',#1083,10.);
#299=VECTOR('',#1084,10.);
#300=VECTOR('',#1087,10.);
#301=VECTOR('',#1088,10.);
#302=VECTOR('',#1089,10.);
#303=VECTOR('',#1092,10.);
#304=VECTOR('',#1093,10.);
#305=VECTOR('',#1094,10.);
#306=VECTOR('',#1097,10.);
#307=VECTOR('',#1098,10.);
#308=VECTOR('',#1099,10.);
#309=VECTOR('',#1102,10.);
#310=VECTOR('',#1103,10.);
#311=VECTOR('',#1104,10.);
#312=VECTOR('',#1107,10.);
#313=VECTOR('',#1108,10.);
#314=VECTOR('',#1109,10.);
#315=VECTOR('',#1112,10.);
#316=VECTOR('',#1113,10.);
#317=VECTOR('',#1114,10.);
#318=VECTOR('',#1117,10.);
#319=VECTOR('',#1118,10.);
#320=VECTOR('',#1119,10.);
#321=VECTOR('',#1122,10.);
#322=VECTOR('',#1123,10.);
#323=VECTOR('',#1124,10.);
#324=VECTOR('',#1127,10.);
#325=VECTOR('',#1128,10.);
#326=VECTOR('',#1129,10.);
#327=VECTOR('',#1132,10.);
#328=VECTOR('',#1133,10.);
#329=VECTOR('',#1138,10.);
#330=VECTOR('',#1139,10.);
#331=VECTOR('',#1140,10.);
#332=VECTOR('',#1141,10.);
#333=VECTOR('',#1148,10.);
#334=VECTOR('',#1151,10.);
#335=VECTOR('',#1152,10.);
#336=VECTOR('',#1153,10.);
#337=VECTOR('',#1160,10.);
#338=VECTOR('',#1163,10.);
#339=VECTOR('',#1164,10.);
#340=VECTOR('',#1165,10.);
#341=VECTOR('',#1172,10.);
#342=VECTOR('',#1175,10.);
#343=VECTOR('',#1176,10.);
#344=VECTOR('',#1177,10.);
#345=VECTOR('',#1186,10.);
#346=VECTOR('',#1187,10.);
#347=VECTOR('',#1188,10.);
#348=VECTOR('',#1189,10.);
#349=VECTOR('',#1192,10.);
#350=VECTOR('',#1193,10.);
#351=VECTOR('',#1194,10.);
#352=VECTOR('',#1197,10.);
#353=VECTOR('',#1198,10.);
#354=VECTOR('',#1199,10.);
#355=VECTOR('',#1202,10.);
#356=VECTOR('',#1203,10.);
#357=VECTOR('',#1206,10.);
#358=VECTOR('',#1207,10.);
#359=VECTOR('',#1208,10.);
#360=VECTOR('',#1209,10.);
#361=VECTOR('',#1216,10.);
#362=VECTOR('',#1219,10.);
#363=VECTOR('',#1220,10.);
#364=VECTOR('',#1221,10.);
#365=VECTOR('',#1228,10.);
#366=VECTOR('',#1231,10.);
#367=VECTOR('',#1232,10.);
#368=VECTOR('',#1233,10.);
#369=VECTOR('',#1240,10.);
#370=VECTOR('',#1243,10.);
#371=VECTOR('',#1244,10.);
#372=VECTOR('',#1245,10.);
#373=VECTOR('',#1256,0.750000000000002);
#374=VECTOR('',#1263,0.750000000000002);
#375=VECTOR('',#1268,10.);
#376=VECTOR('',#1269,10.);
#377=VECTOR('',#1270,10.);
#378=VECTOR('',#1271,10.);
#379=VECTOR('',#1278,10.);
#380=VECTOR('',#1281,10.);
#381=VECTOR('',#1282,10.);
#382=VECTOR('',#1283,10.);
#383=VECTOR('',#1290,10.);
#384=VECTOR('',#1293,10.);
#385=VECTOR('',#1294,10.);
#386=VECTOR('',#1295,10.);
#387=VECTOR('',#1302,10.);
#388=VECTOR('',#1305,10.);
#389=VECTOR('',#1306,10.);
#390=VECTOR('',#1307,10.);
#391=VECTOR('',#1316,10.);
#392=VECTOR('',#1317,10.);
#393=VECTOR('',#1320,10.);
#394=VECTOR('',#1323,10.);
#395=VERTEX_POINT('',#1328);
#396=VERTEX_POINT('',#1329);
#397=VERTEX_POINT('',#1331);
#398=VERTEX_POINT('',#1333);
#399=VERTEX_POINT('',#1337);
#400=VERTEX_POINT('',#1339);
#401=VERTEX_POINT('',#1343);
#402=VERTEX_POINT('',#1345);
#403=VERTEX_POINT('',#1349);
#404=VERTEX_POINT('',#1351);
#405=VERTEX_POINT('',#1355);
#406=VERTEX_POINT('',#1357);
#407=VERTEX_POINT('',#1361);
#408=VERTEX_POINT('',#1363);
#409=VERTEX_POINT('',#1367);
#410=VERTEX_POINT('',#1369);
#411=VERTEX_POINT('',#1373);
#412=VERTEX_POINT('',#1375);
#413=VERTEX_POINT('',#1379);
#414=VERTEX_POINT('',#1381);
#415=VERTEX_POINT('',#1385);
#416=VERTEX_POINT('',#1387);
#417=VERTEX_POINT('',#1391);
#418=VERTEX_POINT('',#1393);
#419=VERTEX_POINT('',#1401);
#420=VERTEX_POINT('',#1402);
#421=VERTEX_POINT('',#1404);
#422=VERTEX_POINT('',#1406);
#423=VERTEX_POINT('',#1410);
#424=VERTEX_POINT('',#1412);
#425=VERTEX_POINT('',#1416);
#426=VERTEX_POINT('',#1418);
#427=VERTEX_POINT('',#1422);
#428=VERTEX_POINT('',#1424);
#429=VERTEX_POINT('',#1428);
#430=VERTEX_POINT('',#1430);
#431=VERTEX_POINT('',#1434);
#432=VERTEX_POINT('',#1436);
#433=VERTEX_POINT('',#1440);
#434=VERTEX_POINT('',#1442);
#435=VERTEX_POINT('',#1449);
#436=VERTEX_POINT('',#1450);
#437=VERTEX_POINT('',#1452);
#438=VERTEX_POINT('',#1454);
#439=VERTEX_POINT('',#1458);
#440=VERTEX_POINT('',#1460);
#441=VERTEX_POINT('',#1464);
#442=VERTEX_POINT('',#1466);
#443=VERTEX_POINT('',#1473);
#444=VERTEX_POINT('',#1474);
#445=VERTEX_POINT('',#1476);
#446=VERTEX_POINT('',#1478);
#447=VERTEX_POINT('',#1482);
#448=VERTEX_POINT('',#1484);
#449=VERTEX_POINT('',#1488);
#450=VERTEX_POINT('',#1490);
#451=VERTEX_POINT('',#1494);
#452=VERTEX_POINT('',#1496);
#453=VERTEX_POINT('',#1500);
#454=VERTEX_POINT('',#1502);
#455=VERTEX_POINT('',#1506);
#456=VERTEX_POINT('',#1508);
#457=VERTEX_POINT('',#1512);
#458=VERTEX_POINT('',#1514);
#459=VERTEX_POINT('',#1521);
#460=VERTEX_POINT('',#1523);
#461=VERTEX_POINT('',#1527);
#462=VERTEX_POINT('',#1529);
#463=VERTEX_POINT('',#1533);
#464=VERTEX_POINT('',#1534);
#465=VERTEX_POINT('',#1536);
#466=VERTEX_POINT('',#1538);
#467=VERTEX_POINT('',#1542);
#468=VERTEX_POINT('',#1544);
#469=VERTEX_POINT('',#1548);
#470=VERTEX_POINT('',#1550);
#471=VERTEX_POINT('',#1554);
#472=VERTEX_POINT('',#1556);
#473=VERTEX_POINT('',#1560);
#474=VERTEX_POINT('',#1562);
#475=VERTEX_POINT('',#1566);
#476=VERTEX_POINT('',#1568);
#477=VERTEX_POINT('',#1572);
#478=VERTEX_POINT('',#1574);
#479=VERTEX_POINT('',#1596);
#480=VERTEX_POINT('',#1597);
#481=VERTEX_POINT('',#1602);
#482=VERTEX_POINT('',#1610);
#483=VERTEX_POINT('',#1623);
#484=VERTEX_POINT('',#1624);
#485=VERTEX_POINT('',#1635);
#486=VERTEX_POINT('',#1642);
#487=EDGE_CURVE('',#395,#396,#191,.F.);
#488=EDGE_CURVE('',#395,#397,#192,.T.);
#489=EDGE_CURVE('',#398,#397,#193,.T.);
#490=EDGE_CURVE('',#396,#398,#194,.T.);
#491=EDGE_CURVE('',#396,#399,#195,.F.);
#492=EDGE_CURVE('',#400,#398,#196,.T.);
#493=EDGE_CURVE('',#399,#400,#197,.T.);
#494=EDGE_CURVE('',#399,#401,#198,.F.);
#495=EDGE_CURVE('',#402,#400,#199,.T.);
#496=EDGE_CURVE('',#401,#402,#200,.T.);
#497=EDGE_CURVE('',#401,#403,#201,.F.);
#498=EDGE_CURVE('',#404,#402,#202,.T.);
#499=EDGE_CURVE('',#403,#404,#203,.T.);
#500=EDGE_CURVE('',#403,#405,#204,.F.);
#501=EDGE_CURVE('',#406,#404,#205,.T.);
#502=EDGE_CURVE('',#405,#406,#206,.T.);
#503=EDGE_CURVE('',#405,#407,#207,.F.);
#504=EDGE_CURVE('',#408,#406,#208,.T.);
#505=EDGE_CURVE('',#407,#408,#209,.T.);
#506=EDGE_CURVE('',#407,#409,#210,.F.);
#507=EDGE_CURVE('',#410,#408,#211,.T.);
#508=EDGE_CURVE('',#409,#410,#212,.T.);
#509=EDGE_CURVE('',#409,#411,#213,.F.);
#510=EDGE_CURVE('',#412,#410,#214,.T.);
#511=EDGE_CURVE('',#411,#412,#215,.T.);
#512=EDGE_CURVE('',#411,#413,#216,.F.);
#513=EDGE_CURVE('',#414,#412,#217,.T.);
#514=EDGE_CURVE('',#413,#414,#218,.T.);
#515=EDGE_CURVE('',#413,#415,#219,.F.);
#516=EDGE_CURVE('',#416,#414,#220,.T.);
#517=EDGE_CURVE('',#415,#416,#221,.T.);
#518=EDGE_CURVE('',#415,#417,#222,.F.);
#519=EDGE_CURVE('',#418,#416,#223,.T.);
#520=EDGE_CURVE('',#417,#418,#224,.T.);
#521=EDGE_CURVE('',#417,#395,#225,.F.);
#522=EDGE_CURVE('',#397,#418,#226,.T.);
#523=EDGE_CURVE('',#419,#420,#227,.T.);
#524=EDGE_CURVE('',#421,#419,#228,.T.);
#525=EDGE_CURVE('',#422,#421,#229,.F.);
#526=EDGE_CURVE('',#422,#420,#230,.T.);
#527=EDGE_CURVE('',#420,#423,#38,.T.);
#528=EDGE_CURVE('',#424,#422,#39,.F.);
#529=EDGE_CURVE('',#424,#423,#231,.T.);
#530=EDGE_CURVE('',#423,#425,#232,.T.);
#531=EDGE_CURVE('',#426,#424,#233,.F.);
#532=EDGE_CURVE('',#426,#425,#234,.T.);
#533=EDGE_CURVE('',#425,#427,#40,.T.);
#534=EDGE_CURVE('',#428,#426,#41,.F.);
#535=EDGE_CURVE('',#428,#427,#235,.T.);
#536=EDGE_CURVE('',#427,#429,#236,.T.);
#537=EDGE_CURVE('',#430,#428,#237,.F.);
#538=EDGE_CURVE('',#430,#429,#238,.T.);
#539=EDGE_CURVE('',#429,#431,#42,.T.);
#540=EDGE_CURVE('',#432,#430,#43,.F.);
#541=EDGE_CURVE('',#432,#431,#239,.T.);
#542=EDGE_CURVE('',#431,#433,#240,.T.);
#543=EDGE_CURVE('',#434,#432,#241,.F.);
#544=EDGE_CURVE('',#434,#433,#242,.T.);
#545=EDGE_CURVE('',#433,#419,#44,.T.);
#546=EDGE_CURVE('',#421,#434,#45,.F.);
#547=EDGE_CURVE('',#435,#436,#243,.T.);
#548=EDGE_CURVE('',#437,#435,#244,.T.);
#549=EDGE_CURVE('',#438,#437,#245,.F.);
#550=EDGE_CURVE('',#438,#436,#246,.T.);
#551=EDGE_CURVE('',#436,#439,#247,.T.);
#552=EDGE_CURVE('',#440,#438,#248,.F.);
#553=EDGE_CURVE('',#440,#439,#249,.T.);
#554=EDGE_CURVE('',#439,#441,#250,.T.);
#555=EDGE_CURVE('',#442,#440,#251,.F.);
#556=EDGE_CURVE('',#442,#441,#252,.T.);
#557=EDGE_CURVE('',#441,#435,#253,.T.);
#558=EDGE_CURVE('',#437,#442,#254,.F.);
#559=EDGE_CURVE('',#443,#444,#255,.T.);
#560=EDGE_CURVE('',#445,#443,#256,.T.);
#561=EDGE_CURVE('',#446,#445,#257,.F.);
#562=EDGE_CURVE('',#446,#444,#258,.T.);
#563=EDGE_CURVE('',#444,#447,#46,.T.);
#564=EDGE_CURVE('',#448,#446,#47,.F.);
#565=EDGE_CURVE('',#448,#447,#259,.T.);
#566=EDGE_CURVE('',#447,#449,#260,.T.);
#567=EDGE_CURVE('',#450,#448,#261,.F.);
#568=EDGE_CURVE('',#450,#449,#262,.T.);
#569=EDGE_CURVE('',#449,#451,#48,.T.);
#570=EDGE_CURVE('',#452,#450,#49,.F.);
#571=EDGE_CURVE('',#452,#451,#263,.T.);
#572=EDGE_CURVE('',#451,#453,#264,.T.);
#573=EDGE_CURVE('',#454,#452,#265,.F.);
#574=EDGE_CURVE('',#454,#453,#266,.T.);
#575=EDGE_CURVE('',#453,#455,#50,.T.);
#576=EDGE_CURVE('',#456,#454,#51,.F.);
#577=EDGE_CURVE('',#456,#455,#267,.T.);
#578=EDGE_CURVE('',#455,#457,#268,.T.);
#579=EDGE_CURVE('',#458,#456,#269,.F.);
#580=EDGE_CURVE('',#458,#457,#270,.T.);
#581=EDGE_CURVE('',#457,#443,#52,.T.);
#582=EDGE_CURVE('',#445,#458,#53,.F.);
#583=EDGE_CURVE('',#459,#459,#54,.F.);
#584=EDGE_CURVE('',#459,#460,#271,.T.);
#585=EDGE_CURVE('',#460,#460,#55,.T.);
#586=EDGE_CURVE('',#461,#461,#56,.F.);
#587=EDGE_CURVE('',#461,#462,#272,.T.);
#588=EDGE_CURVE('',#462,#462,#57,.T.);
#589=EDGE_CURVE('',#463,#464,#273,.T.);
#590=EDGE_CURVE('',#465,#463,#274,.T.);
#591=EDGE_CURVE('',#466,#465,#275,.F.);
#592=EDGE_CURVE('',#466,#464,#276,.T.);
#593=EDGE_CURVE('',#464,#467,#58,.T.);
#594=EDGE_CURVE('',#468,#466,#59,.F.);
#595=EDGE_CURVE('',#468,#467,#277,.T.);
#596=EDGE_CURVE('',#467,#469,#278,.T.);
#597=EDGE_CURVE('',#470,#468,#279,.F.);
#598=EDGE_CURVE('',#470,#469,#280,.T.);
#599=EDGE_CURVE('',#469,#471,#60,.T.);
#600=EDGE_CURVE('',#472,#470,#61,.F.);
#601=EDGE_CURVE('',#472,#471,#281,.T.);
#602=EDGE_CURVE('',#471,#473,#282,.T.);
#603=EDGE_CURVE('',#474,#472,#283,.F.);
#604=EDGE_CURVE('',#474,#473,#284,.T.);
#605=EDGE_CURVE('',#473,#475,#62,.T.);
#606=EDGE_CURVE('',#476,#474,#63,.F.);
#607=EDGE_CURVE('',#476,#475,#285,.T.);
#608=EDGE_CURVE('',#475,#477,#286,.T.);
#609=EDGE_CURVE('',#478,#476,#287,.F.);
#610=EDGE_CURVE('',#478,#477,#288,.T.);
#611=EDGE_CURVE('',#477,#463,#64,.T.);
#612=EDGE_CURVE('',#465,#478,#65,.F.);
#613=EDGE_CURVE('',#479,#480,#28,.T.);
#614=EDGE_CURVE('',#480,#481,#29,.T.);
#615=EDGE_CURVE('',#481,#482,#30,.T.);
#616=EDGE_CURVE('',#482,#479,#31,.T.);
#617=EDGE_CURVE('',#483,#484,#32,.T.);
#618=EDGE_CURVE('',#483,#481,#289,.F.);
#619=EDGE_CURVE('',#480,#484,#290,.T.);
#620=EDGE_CURVE('',#485,#483,#33,.T.);
#621=EDGE_CURVE('',#482,#485,#291,.F.);
#622=EDGE_CURVE('',#486,#485,#34,.T.);
#623=EDGE_CURVE('',#479,#486,#292,.T.);
#624=EDGE_CURVE('',#484,#486,#35,.T.);
#625=ORIENTED_EDGE('',*,*,#487,.F.);
#626=ORIENTED_EDGE('',*,*,#488,.T.);
#627=ORIENTED_EDGE('',*,*,#489,.F.);
#628=ORIENTED_EDGE('',*,*,#490,.F.);
#629=ORIENTED_EDGE('',*,*,#491,.F.);
#630=ORIENTED_EDGE('',*,*,#490,.T.);
#631=ORIENTED_EDGE('',*,*,#492,.F.);
#632=ORIENTED_EDGE('',*,*,#493,.F.);
#633=ORIENTED_EDGE('',*,*,#494,.F.);
#634=ORIENTED_EDGE('',*,*,#493,.T.);
#635=ORIENTED_EDGE('',*,*,#495,.F.);
#636=ORIENTED_EDGE('',*,*,#496,.F.);
#637=ORIENTED_EDGE('',*,*,#497,.F.);
#638=ORIENTED_EDGE('',*,*,#496,.T.);
#639=ORIENTED_EDGE('',*,*,#498,.F.);
#640=ORIENTED_EDGE('',*,*,#499,.F.);
#641=ORIENTED_EDGE('',*,*,#500,.F.);
#642=ORIENTED_EDGE('',*,*,#499,.T.);
#643=ORIENTED_EDGE('',*,*,#501,.F.);
#644=ORIENTED_EDGE('',*,*,#502,.F.);
#645=ORIENTED_EDGE('',*,*,#503,.F.);
#646=ORIENTED_EDGE('',*,*,#502,.T.);
#647=ORIENTED_EDGE('',*,*,#504,.F.);
#648=ORIENTED_EDGE('',*,*,#505,.F.);
#649=ORIENTED_EDGE('',*,*,#506,.F.);
#650=ORIENTED_EDGE('',*,*,#505,.T.);
#651=ORIENTED_EDGE('',*,*,#507,.F.);
#652=ORIENTED_EDGE('',*,*,#508,.F.);
#653=ORIENTED_EDGE('',*,*,#509,.F.);
#654=ORIENTED_EDGE('',*,*,#508,.T.);
#655=ORIENTED_EDGE('',*,*,#510,.F.);
#656=ORIENTED_EDGE('',*,*,#511,.F.);
#657=ORIENTED_EDGE('',*,*,#512,.F.);
#658=ORIENTED_EDGE('',*,*,#511,.T.);
#659=ORIENTED_EDGE('',*,*,#513,.F.);
#660=ORIENTED_EDGE('',*,*,#514,.F.);
#661=ORIENTED_EDGE('',*,*,#515,.F.);
#662=ORIENTED_EDGE('',*,*,#514,.T.);
#663=ORIENTED_EDGE('',*,*,#516,.F.);
#664=ORIENTED_EDGE('',*,*,#517,.F.);
#665=ORIENTED_EDGE('',*,*,#518,.F.);
#666=ORIENTED_EDGE('',*,*,#517,.T.);
#667=ORIENTED_EDGE('',*,*,#519,.F.);
#668=ORIENTED_EDGE('',*,*,#520,.F.);
#669=ORIENTED_EDGE('',*,*,#521,.F.);
#670=ORIENTED_EDGE('',*,*,#520,.T.);
#671=ORIENTED_EDGE('',*,*,#522,.F.);
#672=ORIENTED_EDGE('',*,*,#488,.F.);
#673=ORIENTED_EDGE('',*,*,#522,.T.);
#674=ORIENTED_EDGE('',*,*,#519,.T.);
#675=ORIENTED_EDGE('',*,*,#516,.T.);
#676=ORIENTED_EDGE('',*,*,#513,.T.);
#677=ORIENTED_EDGE('',*,*,#510,.T.);
#678=ORIENTED_EDGE('',*,*,#507,.T.);
#679=ORIENTED_EDGE('',*,*,#504,.T.);
#680=ORIENTED_EDGE('',*,*,#501,.T.);
#681=ORIENTED_EDGE('',*,*,#498,.T.);
#682=ORIENTED_EDGE('',*,*,#495,.T.);
#683=ORIENTED_EDGE('',*,*,#492,.T.);
#684=ORIENTED_EDGE('',*,*,#489,.T.);
#685=ORIENTED_EDGE('',*,*,#523,.F.);
#686=ORIENTED_EDGE('',*,*,#524,.F.);
#687=ORIENTED_EDGE('',*,*,#525,.F.);
#688=ORIENTED_EDGE('',*,*,#526,.T.);
#689=ORIENTED_EDGE('',*,*,#527,.F.);
#690=ORIENTED_EDGE('',*,*,#526,.F.);
#691=ORIENTED_EDGE('',*,*,#528,.F.);
#692=ORIENTED_EDGE('',*,*,#529,.T.);
#693=ORIENTED_EDGE('',*,*,#530,.F.);
#694=ORIENTED_EDGE('',*,*,#529,.F.);
#695=ORIENTED_EDGE('',*,*,#531,.F.);
#696=ORIENTED_EDGE('',*,*,#532,.T.);
#697=ORIENTED_EDGE('',*,*,#533,.F.);
#698=ORIENTED_EDGE('',*,*,#532,.F.);
#699=ORIENTED_EDGE('',*,*,#534,.F.);
#700=ORIENTED_EDGE('',*,*,#535,.T.);
#701=ORIENTED_EDGE('',*,*,#536,.F.);
#702=ORIENTED_EDGE('',*,*,#535,.F.);
#703=ORIENTED_EDGE('',*,*,#537,.F.);
#704=ORIENTED_EDGE('',*,*,#538,.T.);
#705=ORIENTED_EDGE('',*,*,#539,.F.);
#706=ORIENTED_EDGE('',*,*,#538,.F.);
#707=ORIENTED_EDGE('',*,*,#540,.F.);
#708=ORIENTED_EDGE('',*,*,#541,.T.);
#709=ORIENTED_EDGE('',*,*,#542,.F.);
#710=ORIENTED_EDGE('',*,*,#541,.F.);
#711=ORIENTED_EDGE('',*,*,#543,.F.);
#712=ORIENTED_EDGE('',*,*,#544,.T.);
#713=ORIENTED_EDGE('',*,*,#545,.F.);
#714=ORIENTED_EDGE('',*,*,#544,.F.);
#715=ORIENTED_EDGE('',*,*,#546,.F.);
#716=ORIENTED_EDGE('',*,*,#524,.T.);
#717=ORIENTED_EDGE('',*,*,#547,.F.);
#718=ORIENTED_EDGE('',*,*,#548,.F.);
#719=ORIENTED_EDGE('',*,*,#549,.F.);
#720=ORIENTED_EDGE('',*,*,#550,.T.);
#721=ORIENTED_EDGE('',*,*,#551,.F.);
#722=ORIENTED_EDGE('',*,*,#550,.F.);
#723=ORIENTED_EDGE('',*,*,#552,.F.);
#724=ORIENTED_EDGE('',*,*,#553,.T.);
#725=ORIENTED_EDGE('',*,*,#554,.F.);
#726=ORIENTED_EDGE('',*,*,#553,.F.);
#727=ORIENTED_EDGE('',*,*,#555,.F.);
#728=ORIENTED_EDGE('',*,*,#556,.T.);
#729=ORIENTED_EDGE('',*,*,#557,.F.);
#730=ORIENTED_EDGE('',*,*,#556,.F.);
#731=ORIENTED_EDGE('',*,*,#558,.F.);
#732=ORIENTED_EDGE('',*,*,#548,.T.);
#733=ORIENTED_EDGE('',*,*,#559,.F.);
#734=ORIENTED_EDGE('',*,*,#560,.F.);
#735=ORIENTED_EDGE('',*,*,#561,.F.);
#736=ORIENTED_EDGE('',*,*,#562,.T.);
#737=ORIENTED_EDGE('',*,*,#563,.F.);
#738=ORIENTED_EDGE('',*,*,#562,.F.);
#739=ORIENTED_EDGE('',*,*,#564,.F.);
#740=ORIENTED_EDGE('',*,*,#565,.T.);
#741=ORIENTED_EDGE('',*,*,#566,.F.);
#742=ORIENTED_EDGE('',*,*,#565,.F.);
#743=ORIENTED_EDGE('',*,*,#567,.F.);
#744=ORIENTED_EDGE('',*,*,#568,.T.);
#745=ORIENTED_EDGE('',*,*,#569,.F.);
#746=ORIENTED_EDGE('',*,*,#568,.F.);
#747=ORIENTED_EDGE('',*,*,#570,.F.);
#748=ORIENTED_EDGE('',*,*,#571,.T.);
#749=ORIENTED_EDGE('',*,*,#572,.F.);
#750=ORIENTED_EDGE('',*,*,#571,.F.);
#751=ORIENTED_EDGE('',*,*,#573,.F.);
#752=ORIENTED_EDGE('',*,*,#574,.T.);
#753=ORIENTED_EDGE('',*,*,#575,.F.);
#754=ORIENTED_EDGE('',*,*,#574,.F.);
#755=ORIENTED_EDGE('',*,*,#576,.F.);
#756=ORIENTED_EDGE('',*,*,#577,.T.);
#757=ORIENTED_EDGE('',*,*,#578,.F.);
#758=ORIENTED_EDGE('',*,*,#577,.F.);
#759=ORIENTED_EDGE('',*,*,#579,.F.);
#760=ORIENTED_EDGE('',*,*,#580,.T.);
#761=ORIENTED_EDGE('',*,*,#581,.F.);
#762=ORIENTED_EDGE('',*,*,#580,.F.);
#763=ORIENTED_EDGE('',*,*,#582,.F.);
#764=ORIENTED_EDGE('',*,*,#560,.T.);
#765=ORIENTED_EDGE('',*,*,#583,.F.);
#766=ORIENTED_EDGE('',*,*,#584,.T.);
#767=ORIENTED_EDGE('',*,*,#585,.F.);
#768=ORIENTED_EDGE('',*,*,#584,.F.);
#769=ORIENTED_EDGE('',*,*,#586,.F.);
#770=ORIENTED_EDGE('',*,*,#587,.T.);
#771=ORIENTED_EDGE('',*,*,#588,.F.);
#772=ORIENTED_EDGE('',*,*,#587,.F.);
#773=ORIENTED_EDGE('',*,*,#589,.F.);
#774=ORIENTED_EDGE('',*,*,#590,.F.);
#775=ORIENTED_EDGE('',*,*,#591,.F.);
#776=ORIENTED_EDGE('',*,*,#592,.T.);
#777=ORIENTED_EDGE('',*,*,#593,.F.);
#778=ORIENTED_EDGE('',*,*,#592,.F.);
#779=ORIENTED_EDGE('',*,*,#594,.F.);
#780=ORIENTED_EDGE('',*,*,#595,.T.);
#781=ORIENTED_EDGE('',*,*,#596,.F.);
#782=ORIENTED_EDGE('',*,*,#595,.F.);
#783=ORIENTED_EDGE('',*,*,#597,.F.);
#784=ORIENTED_EDGE('',*,*,#598,.T.);
#785=ORIENTED_EDGE('',*,*,#599,.F.);
#786=ORIENTED_EDGE('',*,*,#598,.F.);
#787=ORIENTED_EDGE('',*,*,#600,.F.);
#788=ORIENTED_EDGE('',*,*,#601,.T.);
#789=ORIENTED_EDGE('',*,*,#602,.F.);
#790=ORIENTED_EDGE('',*,*,#601,.F.);
#791=ORIENTED_EDGE('',*,*,#603,.F.);
#792=ORIENTED_EDGE('',*,*,#604,.T.);
#793=ORIENTED_EDGE('',*,*,#605,.F.);
#794=ORIENTED_EDGE('',*,*,#604,.F.);
#795=ORIENTED_EDGE('',*,*,#606,.F.);
#796=ORIENTED_EDGE('',*,*,#607,.T.);
#797=ORIENTED_EDGE('',*,*,#608,.F.);
#798=ORIENTED_EDGE('',*,*,#607,.F.);
#799=ORIENTED_EDGE('',*,*,#609,.F.);
#800=ORIENTED_EDGE('',*,*,#610,.T.);
#801=ORIENTED_EDGE('',*,*,#611,.F.);
#802=ORIENTED_EDGE('',*,*,#610,.F.);
#803=ORIENTED_EDGE('',*,*,#612,.F.);
#804=ORIENTED_EDGE('',*,*,#590,.T.);
#805=ORIENTED_EDGE('',*,*,#613,.T.);
#806=ORIENTED_EDGE('',*,*,#614,.T.);
#807=ORIENTED_EDGE('',*,*,#615,.T.);
#808=ORIENTED_EDGE('',*,*,#616,.T.);
#809=ORIENTED_EDGE('',*,*,#617,.F.);
#810=ORIENTED_EDGE('',*,*,#618,.T.);
#811=ORIENTED_EDGE('',*,*,#614,.F.);
#812=ORIENTED_EDGE('',*,*,#619,.T.);
#813=ORIENTED_EDGE('',*,*,#620,.F.);
#814=ORIENTED_EDGE('',*,*,#621,.F.);
#815=ORIENTED_EDGE('',*,*,#615,.F.);
#816=ORIENTED_EDGE('',*,*,#618,.F.);
#817=ORIENTED_EDGE('',*,*,#487,.T.);
#818=ORIENTED_EDGE('',*,*,#491,.T.);
#819=ORIENTED_EDGE('',*,*,#494,.T.);
#820=ORIENTED_EDGE('',*,*,#497,.T.);
#821=ORIENTED_EDGE('',*,*,#500,.T.);
#822=ORIENTED_EDGE('',*,*,#503,.T.);
#823=ORIENTED_EDGE('',*,*,#506,.T.);
#824=ORIENTED_EDGE('',*,*,#509,.T.);
#825=ORIENTED_EDGE('',*,*,#512,.T.);
#826=ORIENTED_EDGE('',*,*,#515,.T.);
#827=ORIENTED_EDGE('',*,*,#518,.T.);
#828=ORIENTED_EDGE('',*,*,#521,.T.);
#829=ORIENTED_EDGE('',*,*,#525,.T.);
#830=ORIENTED_EDGE('',*,*,#546,.T.);
#831=ORIENTED_EDGE('',*,*,#543,.T.);
#832=ORIENTED_EDGE('',*,*,#540,.T.);
#833=ORIENTED_EDGE('',*,*,#537,.T.);
#834=ORIENTED_EDGE('',*,*,#534,.T.);
#835=ORIENTED_EDGE('',*,*,#531,.T.);
#836=ORIENTED_EDGE('',*,*,#528,.T.);
#837=ORIENTED_EDGE('',*,*,#549,.T.);
#838=ORIENTED_EDGE('',*,*,#558,.T.);
#839=ORIENTED_EDGE('',*,*,#555,.T.);
#840=ORIENTED_EDGE('',*,*,#552,.T.);
#841=ORIENTED_EDGE('',*,*,#561,.T.);
#842=ORIENTED_EDGE('',*,*,#582,.T.);
#843=ORIENTED_EDGE('',*,*,#579,.T.);
#844=ORIENTED_EDGE('',*,*,#576,.T.);
#845=ORIENTED_EDGE('',*,*,#573,.T.);
#846=ORIENTED_EDGE('',*,*,#570,.T.);
#847=ORIENTED_EDGE('',*,*,#567,.T.);
#848=ORIENTED_EDGE('',*,*,#564,.T.);
#849=ORIENTED_EDGE('',*,*,#583,.T.);
#850=ORIENTED_EDGE('',*,*,#586,.T.);
#851=ORIENTED_EDGE('',*,*,#591,.T.);
#852=ORIENTED_EDGE('',*,*,#612,.T.);
#853=ORIENTED_EDGE('',*,*,#609,.T.);
#854=ORIENTED_EDGE('',*,*,#606,.T.);
#855=ORIENTED_EDGE('',*,*,#603,.T.);
#856=ORIENTED_EDGE('',*,*,#600,.T.);
#857=ORIENTED_EDGE('',*,*,#597,.T.);
#858=ORIENTED_EDGE('',*,*,#594,.T.);
#859=ORIENTED_EDGE('',*,*,#622,.F.);
#860=ORIENTED_EDGE('',*,*,#623,.F.);
#861=ORIENTED_EDGE('',*,*,#616,.F.);
#862=ORIENTED_EDGE('',*,*,#621,.T.);
#863=ORIENTED_EDGE('',*,*,#624,.F.);
#864=ORIENTED_EDGE('',*,*,#619,.F.);
#865=ORIENTED_EDGE('',*,*,#613,.F.);
#866=ORIENTED_EDGE('',*,*,#623,.T.);
#867=ORIENTED_EDGE('',*,*,#523,.T.);
#868=ORIENTED_EDGE('',*,*,#527,.T.);
#869=ORIENTED_EDGE('',*,*,#530,.T.);
#870=ORIENTED_EDGE('',*,*,#533,.T.);
#871=ORIENTED_EDGE('',*,*,#536,.T.);
#872=ORIENTED_EDGE('',*,*,#539,.T.);
#873=ORIENTED_EDGE('',*,*,#542,.T.);
#874=ORIENTED_EDGE('',*,*,#545,.T.);
#875=ORIENTED_EDGE('',*,*,#547,.T.);
#876=ORIENTED_EDGE('',*,*,#551,.T.);
#877=ORIENTED_EDGE('',*,*,#554,.T.);
#878=ORIENTED_EDGE('',*,*,#557,.T.);
#879=ORIENTED_EDGE('',*,*,#559,.T.);
#880=ORIENTED_EDGE('',*,*,#563,.T.);
#881=ORIENTED_EDGE('',*,*,#566,.T.);
#882=ORIENTED_EDGE('',*,*,#569,.T.);
#883=ORIENTED_EDGE('',*,*,#572,.T.);
#884=ORIENTED_EDGE('',*,*,#575,.T.);
#885=ORIENTED_EDGE('',*,*,#578,.T.);
#886=ORIENTED_EDGE('',*,*,#581,.T.);
#887=ORIENTED_EDGE('',*,*,#585,.T.);
#888=ORIENTED_EDGE('',*,*,#588,.T.);
#889=ORIENTED_EDGE('',*,*,#589,.T.);
#890=ORIENTED_EDGE('',*,*,#593,.T.);
#891=ORIENTED_EDGE('',*,*,#596,.T.);
#892=ORIENTED_EDGE('',*,*,#599,.T.);
#893=ORIENTED_EDGE('',*,*,#602,.T.);
#894=ORIENTED_EDGE('',*,*,#605,.T.);
#895=ORIENTED_EDGE('',*,*,#608,.T.);
#896=ORIENTED_EDGE('',*,*,#611,.T.);
#897=ORIENTED_EDGE('',*,*,#620,.T.);
#898=ORIENTED_EDGE('',*,*,#617,.T.);
#899=ORIENTED_EDGE('',*,*,#624,.T.);
#900=ORIENTED_EDGE('',*,*,#622,.T.);
#901=PLANE('',#997);
#902=PLANE('',#998);
#903=PLANE('',#999);
#904=PLANE('',#1000);
#905=PLANE('',#1001);
#906=PLANE('',#1002);
#907=PLANE('',#1003);
#908=PLANE('',#1004);
#909=PLANE('',#1005);
#910=PLANE('',#1006);
#911=PLANE('',#1007);
#912=PLANE('',#1008);
#913=PLANE('',#1009);
#914=PLANE('',#1010);
#915=PLANE('',#1014);
#916=PLANE('',#1018);
#917=PLANE('',#1022);
#918=PLANE('',#1026);
#919=PLANE('',#1027);
#920=PLANE('',#1028);
#921=PLANE('',#1029);
#922=PLANE('',#1030);
#923=PLANE('',#1034);
#924=PLANE('',#1038);
#925=PLANE('',#1042);
#926=PLANE('',#1052);
#927=PLANE('',#1056);
#928=PLANE('',#1060);
#929=PLANE('',#1064);
#930=PLANE('',#1068);
#931=PLANE('',#1069);
#932=PLANE('',#1070);
#933=PLANE('',#1071);
#934=ADVANCED_FACE('',(#80),#901,.T.);
#935=ADVANCED_FACE('',(#81),#902,.T.);
#936=ADVANCED_FACE('',(#82),#903,.T.);
#937=ADVANCED_FACE('',(#83),#904,.T.);
#938=ADVANCED_FACE('',(#84),#905,.T.);
#939=ADVANCED_FACE('',(#85),#906,.T.);
#940=ADVANCED_FACE('',(#86),#907,.T.);
#941=ADVANCED_FACE('',(#87),#908,.T.);
#942=ADVANCED_FACE('',(#88),#909,.T.);
#943=ADVANCED_FACE('',(#89),#910,.T.);
#944=ADVANCED_FACE('',(#90),#911,.T.);
#945=ADVANCED_FACE('',(#91),#912,.T.);
#946=ADVANCED_FACE('',(#92),#913,.T.);
#947=ADVANCED_FACE('',(#93),#914,.F.);
#948=ADVANCED_FACE('',(#94),#66,.F.);
#949=ADVANCED_FACE('',(#95),#915,.F.);
#950=ADVANCED_FACE('',(#96),#67,.F.);
#951=ADVANCED_FACE('',(#97),#916,.F.);
#952=ADVANCED_FACE('',(#98),#68,.F.);
#953=ADVANCED_FACE('',(#99),#917,.F.);
#954=ADVANCED_FACE('',(#100),#69,.F.);
#955=ADVANCED_FACE('',(#101),#918,.F.);
#956=ADVANCED_FACE('',(#102),#919,.F.);
#957=ADVANCED_FACE('',(#103),#920,.F.);
#958=ADVANCED_FACE('',(#104),#921,.F.);
#959=ADVANCED_FACE('',(#105),#922,.F.);
#960=ADVANCED_FACE('',(#106),#70,.F.);
#961=ADVANCED_FACE('',(#107),#923,.F.);
#962=ADVANCED_FACE('',(#108),#71,.F.);
#963=ADVANCED_FACE('',(#109),#924,.F.);
#964=ADVANCED_FACE('',(#110),#72,.F.);
#965=ADVANCED_FACE('',(#111),#925,.F.);
#966=ADVANCED_FACE('',(#112),#73,.F.);
#967=ADVANCED_FACE('',(#113),#74,.F.);
#968=ADVANCED_FACE('',(#114),#75,.F.);
#969=ADVANCED_FACE('',(#115),#926,.F.);
#970=ADVANCED_FACE('',(#116),#76,.F.);
#971=ADVANCED_FACE('',(#117),#927,.F.);
#972=ADVANCED_FACE('',(#118),#77,.F.);
#973=ADVANCED_FACE('',(#119),#928,.F.);
#974=ADVANCED_FACE('',(#120),#78,.F.);
#975=ADVANCED_FACE('',(#121),#929,.F.);
#976=ADVANCED_FACE('',(#122),#79,.F.);
#977=ADVANCED_FACE('',(#123),#36,.F.);
#978=ADVANCED_FACE('',(#124),#930,.T.);
#979=ADVANCED_FACE('',(#125,#15,#16,#17,#18,#19,#20,#21),#931,.T.);
#980=ADVANCED_FACE('',(#126),#932,.T.);
#981=ADVANCED_FACE('',(#127,#22,#23,#24,#25,#26,#27),#933,.T.);
#982=ADVANCED_FACE('',(#128),#37,.F.);
#983=CLOSED_SHELL('',(#934,#935,#936,#937,#938,#939,#940,#941,#942,#943,
#944,#945,#946,#947,#948,#949,#950,#951,#952,#953,#954,#955,#956,#957,#958,
#959,#960,#961,#962,#963,#964,#965,#966,#967,#968,#969,#970,#971,#972,#973,
#974,#975,#976,#977,#978,#979,#980,#981,#982));
#984=DERIVED_UNIT_ELEMENT(#986,1.);
#985=DERIVED_UNIT_ELEMENT(#1677,-3.);
#986=(
MASS_UNIT()
NAMED_UNIT(*)
SI_UNIT(.KILO.,.GRAM.)
);
#987=DERIVED_UNIT((#984,#985));
#988=MEASURE_REPRESENTATION_ITEM('density measure',
POSITIVE_RATIO_MEASURE(7850.),#987);
#989=PROPERTY_DEFINITION_REPRESENTATION(#994,#991);
#990=PROPERTY_DEFINITION_REPRESENTATION(#995,#992);
#991=REPRESENTATION('material name',(#993),#1674);
#992=REPRESENTATION('density',(#988),#1674);
#993=DESCRIPTIVE_REPRESENTATION_ITEM('Steel','Steel');
#994=PROPERTY_DEFINITION('material property','material name',#1684);
#995=PROPERTY_DEFINITION('material property','density of part',#1684);
#996=AXIS2_PLACEMENT_3D('',#1326,#1072,#1073);
#997=AXIS2_PLACEMENT_3D('',#1327,#1074,#1075);
#998=AXIS2_PLACEMENT_3D('',#1336,#1080,#1081);
#999=AXIS2_PLACEMENT_3D('',#1342,#1085,#1086);
#1000=AXIS2_PLACEMENT_3D('',#1348,#1090,#1091);
#1001=AXIS2_PLACEMENT_3D('',#1354,#1095,#1096);
#1002=AXIS2_PLACEMENT_3D('',#1360,#1100,#1101);
#1003=AXIS2_PLACEMENT_3D('',#1366,#1105,#1106);
#1004=AXIS2_PLACEMENT_3D('',#1372,#1110,#1111);
#1005=AXIS2_PLACEMENT_3D('',#1378,#1115,#1116);
#1006=AXIS2_PLACEMENT_3D('',#1384,#1120,#1121);
#1007=AXIS2_PLACEMENT_3D('',#1390,#1125,#1126);
#1008=AXIS2_PLACEMENT_3D('',#1396,#1130,#1131);
#1009=AXIS2_PLACEMENT_3D('',#1399,#1134,#1135);
#1010=AXIS2_PLACEMENT_3D('',#1400,#1136,#1137);
#1011=AXIS2_PLACEMENT_3D('',#1409,#1142,#1143);
#1012=AXIS2_PLACEMENT_3D('',#1411,#1144,#1145);
#1013=AXIS2_PLACEMENT_3D('',#1413,#1146,#1147);
#1014=AXIS2_PLACEMENT_3D('',#1415,#1149,#1150);
#1015=AXIS2_PLACEMENT_3D('',#1421,#1154,#1155);
#1016=AXIS2_PLACEMENT_3D('',#1423,#1156,#1157);
#1017=AXIS2_PLACEMENT_3D('',#1425,#1158,#1159);
#1018=AXIS2_PLACEMENT_3D('',#1427,#1161,#1162);
#1019=AXIS2_PLACEMENT_3D('',#1433,#1166,#1167);
#1020=AXIS2_PLACEMENT_3D('',#1435,#1168,#1169);
#1021=AXIS2_PLACEMENT_3D('',#1437,#1170,#1171);
#1022=AXIS2_PLACEMENT_3D('',#1439,#1173,#1174);
#1023=AXIS2_PLACEMENT_3D('',#1445,#1178,#1179);
#1024=AXIS2_PLACEMENT_3D('',#1446,#1180,#1181);
#1025=AXIS2_PLACEMENT_3D('',#1447,#1182,#1183);
#1026=AXIS2_PLACEMENT_3D('',#1448,#1184,#1185);
#1027=AXIS2_PLACEMENT_3D('',#1457,#1190,#1191);
#1028=AXIS2_PLACEMENT_3D('',#1463,#1195,#1196);
#1029=AXIS2_PLACEMENT_3D('',#1469,#1200,#1201);
#1030=AXIS2_PLACEMENT_3D('',#1472,#1204,#1205);
#1031=AXIS2_PLACEMENT_3D('',#1481,#1210,#1211);
#1032=AXIS2_PLACEMENT_3D('',#1483,#1212,#1213);
#1033=AXIS2_PLACEMENT_3D('',#1485,#1214,#1215);
#1034=AXIS2_PLACEMENT_3D('',#1487,#1217,#1218);
#1035=AXIS2_PLACEMENT_3D('',#1493,#1222,#1223);
#1036=AXIS2_PLACEMENT_3D('',#1495,#1224,#1225);
#1037=AXIS2_PLACEMENT_3D('',#1497,#1226,#1227);
#1038=AXIS2_PLACEMENT_3D('',#1499,#1229,#1230);
#1039=AXIS2_PLACEMENT_3D('',#1505,#1234,#1235);
#1040=AXIS2_PLACEMENT_3D('',#1507,#1236,#1237);
#1041=AXIS2_PLACEMENT_3D('',#1509,#1238,#1239);
#1042=AXIS2_PLACEMENT_3D('',#1511,#1241,#1242);
#1043=AXIS2_PLACEMENT_3D('',#1517,#1246,#1247);
#1044=AXIS2_PLACEMENT_3D('',#1518,#1248,#1249);
#1045=AXIS2_PLACEMENT_3D('',#1519,#1250,#1251);
#1046=AXIS2_PLACEMENT_3D('',#1520,#1252,#1253);
#1047=AXIS2_PLACEMENT_3D('',#1522,#1254,#1255);
#1048=AXIS2_PLACEMENT_3D('',#1525,#1257,#1258);
#1049=AXIS2_PLACEMENT_3D('',#1526,#1259,#1260);
#1050=AXIS2_PLACEMENT_3D('',#1528,#1261,#1262);
#1051=AXIS2_PLACEMENT_3D('',#1531,#1264,#1265);
#1052=AXIS2_PLACEMENT_3D('',#1532,#1266,#1267);
#1053=AXIS2_PLACEMENT_3D('',#1541,#1272,#1273);
#1054=AXIS2_PLACEMENT_3D('',#1543,#1274,#1275);
#1055=AXIS2_PLACEMENT_3D('',#1545,#1276,#1277);
#1056=AXIS2_PLACEMENT_3D('',#1547,#1279,#1280);
#1057=AXIS2_PLACEMENT_3D('',#1553,#1284,#1285);
#1058=AXIS2_PLACEMENT_3D('',#1555,#1286,#1287);
#1059=AXIS2_PLACEMENT_3D('',#1557,#1288,#1289);
#1060=AXIS2_PLACEMENT_3D('',#1559,#1291,#1292);
#1061=AXIS2_PLACEMENT_3D('',#1565,#1296,#1297);
#1062=AXIS2_PLACEMENT_3D('',#1567,#1298,#1299);
#1063=AXIS2_PLACEMENT_3D('',#1569,#1300,#1301);
#1064=AXIS2_PLACEMENT_3D('',#1571,#1303,#1304);
#1065=AXIS2_PLACEMENT_3D('',#1577,#1308,#1309);
#1066=AXIS2_PLACEMENT_3D('',#1578,#1310,#1311);
#1067=AXIS2_PLACEMENT_3D('',#1579,#1312,#1313);
#1068=AXIS2_PLACEMENT_3D('',#1622,#1314,#1315);
#1069=AXIS2_PLACEMENT_3D('',#1634,#1318,#1319);
#1070=AXIS2_PLACEMENT_3D('',#1641,#1321,#1322);
#1071=AXIS2_PLACEMENT_3D('',#1651,#1324,#1325);
#1072=DIRECTION('axis',(0.,0.,1.));
#1073=DIRECTION('refdir',(1.,0.,0.));
#1074=DIRECTION('center_axis',(1.,-4.93432455388959E-15,0.));
#1075=DIRECTION('ref_axis',(4.93432455388959E-15,1.,0.));
#1076=DIRECTION('',(4.93432455388959E-15,1.,0.));
#1077=DIRECTION('',(0.,0.,1.));
#1078=DIRECTION('',(4.93432455388959E-15,1.,0.));
#1079=DIRECTION('',(0.,0.,1.));
#1080=DIRECTION('center_axis',(0.,-1.,0.));
#1081=DIRECTION('ref_axis',(1.,0.,0.));
#1082=DIRECTION('',(1.,0.,0.));
#1083=DIRECTION('',(1.,0.,0.));
#1084=DIRECTION('',(0.,0.,1.));
#1085=DIRECTION('center_axis',(1.,-4.22942104619107E-16,0.));
#1086=DIRECTION('ref_axis',(4.22942104619107E-16,1.,0.));
#1087=DIRECTION('',(4.22942104619107E-16,1.,0.));
#1088=DIRECTION('',(4.22942104619107E-16,1.,0.));
#1089=DIRECTION('',(0.,0.,1.));
#1090=DIRECTION('center_axis',(0.,1.,0.));
#1091=DIRECTION('ref_axis',(-1.,0.,0.));
#1092=DIRECTION('',(-1.,0.,0.));
#1093=DIRECTION('',(-1.,0.,0.));
#1094=DIRECTION('',(0.,0.,1.));
#1095=DIRECTION('center_axis',(-1.,0.,0.));
#1096=DIRECTION('ref_axis',(0.,-1.,0.));
#1097=DIRECTION('',(0.,-1.,0.));
#1098=DIRECTION('',(0.,-1.,0.));
#1099=DIRECTION('',(0.,0.,1.));
#1100=DIRECTION('center_axis',(0.,-1.,0.));
#1101=DIRECTION('ref_axis',(1.,0.,0.));
#1102=DIRECTION('',(1.,0.,0.));
#1103=DIRECTION('',(1.,0.,0.));
#1104=DIRECTION('',(0.,0.,1.));
#1105=DIRECTION('center_axis',(-1.,0.,0.));
#1106=DIRECTION('ref_axis',(0.,-1.,0.));
#1107=DIRECTION('',(0.,-1.,0.));
#1108=DIRECTION('',(0.,-1.,0.));
#1109=DIRECTION('',(0.,0.,1.));
#1110=DIRECTION('center_axis',(0.,1.,0.));
#1111=DIRECTION('ref_axis',(-1.,0.,0.));
#1112=DIRECTION('',(-1.,0.,0.));
#1113=DIRECTION('',(-1.,0.,0.));
#1114=DIRECTION('',(0.,0.,1.));
#1115=DIRECTION('center_axis',(1.,0.,0.));
#1116=DIRECTION('ref_axis',(0.,1.,0.));
#1117=DIRECTION('',(0.,1.,0.));
#1118=DIRECTION('',(0.,1.,0.));
#1119=DIRECTION('',(0.,0.,1.));
#1120=DIRECTION('center_axis',(0.,-1.,0.));
#1121=DIRECTION('ref_axis',(1.,0.,0.));
#1122=DIRECTION('',(1.,0.,0.));
#1123=DIRECTION('',(1.,0.,0.));
#1124=DIRECTION('',(0.,0.,1.));
#1125=DIRECTION('center_axis',(-1.,0.,0.));
#1126=DIRECTION('ref_axis',(0.,-1.,0.));
#1127=DIRECTION('',(0.,-1.,0.));
#1128=DIRECTION('',(0.,-1.,0.));
#1129=DIRECTION('',(0.,0.,1.));
#1130=DIRECTION('center_axis',(0.,1.,0.));
#1131=DIRECTION('ref_axis',(-1.,0.,0.));
#1132=DIRECTION('',(-1.,0.,0.));
#1133=DIRECTION('',(-1.,0.,0.));
#1134=DIRECTION('center_axis',(0.,0.,1.));
#1135=DIRECTION('ref_axis',(1.,0.,0.));
#1136=DIRECTION('center_axis',(0.,-1.,0.));
#1137=DIRECTION('ref_axis',(-1.,0.,-3.56625472844849E-18));
#1138=DIRECTION('',(1.,0.,0.));
#1139=DIRECTION('',(0.,0.,-1.));
#1140=DIRECTION('',(1.,0.,0.));
#1141=DIRECTION('',(0.,0.,-1.));
#1142=DIRECTION('center_axis',(0.,0.,-1.));
#1143=DIRECTION('ref_axis',(0.,-1.,0.));
#1144=DIRECTION('center_axis',(0.,0.,1.));
#1145=DIRECTION('ref_axis',(0.,-1.,0.));
#1146=DIRECTION('center_axis',(0.,0.,1.));
#1147=DIRECTION('ref_axis',(0.,-1.,0.));
#1148=DIRECTION('',(0.,0.,-1.));
#1149=DIRECTION('center_axis',(1.,0.,0.));
#1150=DIRECTION('ref_axis',(0.,-1.,-2.56790512471531E-33));
#1151=DIRECTION('',(0.,1.,0.));
#1152=DIRECTION('',(0.,1.,0.));
#1153=DIRECTION('',(0.,0.,-1.));
#1154=DIRECTION('center_axis',(0.,0.,-1.));
#1155=DIRECTION('ref_axis',(1.,-2.73270415348915E-67,0.));
#1156=DIRECTION('center_axis',(0.,0.,1.));
#1157=DIRECTION('ref_axis',(1.,-2.73270415348915E-67,0.));
#1158=DIRECTION('center_axis',(0.,0.,1.));
#1159=DIRECTION('ref_axis',(1.,-2.73270415348915E-67,0.));
#1160=DIRECTION('',(0.,0.,-1.));
#1161=DIRECTION('center_axis',(3.23394264486462E-7,0.999999999999948,0.));
#1162=DIRECTION('ref_axis',(0.999999999999948,-3.23394264486462E-7,3.27912266599425E-18));
#1163=DIRECTION('',(-0.999999999999948,3.23394264486462E-7,0.));
#1164=DIRECTION('',(-0.999999999999948,3.23394264486462E-7,0.));
#1165=DIRECTION('',(0.,0.,-1.));
#1166=DIRECTION('center_axis',(0.,0.,-1.));
#1167=DIRECTION('ref_axis',(3.23394262480294E-7,0.999999999999948,0.));
#1168=DIRECTION('center_axis',(0.,0.,1.));
#1169=DIRECTION('ref_axis',(3.23394262480294E-7,0.999999999999948,0.));
#1170=DIRECTION('center_axis',(0.,0.,1.));
#1171=DIRECTION('ref_axis',(3.23394262480294E-7,0.999999999999948,0.));
#1172=DIRECTION('',(0.,0.,-1.));
#1173=DIRECTION('center_axis',(-0.994137398534624,-0.108124154724142,0.));
#1174=DIRECTION('ref_axis',(-0.108124154724142,0.994137398534624,0.));
#1175=DIRECTION('',(0.108124154724142,-0.994137398534624,0.));
#1176=DIRECTION('',(0.108124154724142,-0.994137398534624,0.));
#1177=DIRECTION('',(0.,0.,-1.));
#1178=DIRECTION('center_axis',(0.,0.,-1.));
#1179=DIRECTION('ref_axis',(-0.994137398534624,-0.108124154724143,0.));
#1180=DIRECTION('center_axis',(0.,0.,1.));
#1181=DIRECTION('ref_axis',(-0.994137398534624,-0.108124154724143,0.));
#1182=DIRECTION('center_axis',(0.,0.,1.));
#1183=DIRECTION('ref_axis',(-0.994137398534624,-0.108124154724143,0.));
#1184=DIRECTION('center_axis',(0.,-1.,0.));
#1185=DIRECTION('ref_axis',(-1.,0.,0.));
#1186=DIRECTION('',(1.,0.,0.));
#1187=DIRECTION('',(0.,0.,-1.));
#1188=DIRECTION('',(1.,0.,0.));
#1189=DIRECTION('',(0.,0.,-1.));
#1190=DIRECTION('center_axis',(1.,0.,0.));
#1191=DIRECTION('ref_axis',(0.,-1.,0.));
#1192=DIRECTION('',(0.,1.,0.));
#1193=DIRECTION('',(0.,1.,0.));
#1194=DIRECTION('',(0.,0.,-1.));
#1195=DIRECTION('center_axis',(1.36642833800019E-15,1.,0.));
#1196=DIRECTION('ref_axis',(1.,-1.36642833800019E-15,0.));
#1197=DIRECTION('',(-1.,1.36642833800019E-15,0.));
#1198=DIRECTION('',(-1.,1.36642833800019E-15,0.));
#1199=DIRECTION('',(0.,0.,-1.));
#1200=DIRECTION('center_axis',(-1.,0.,0.));
#1201=DIRECTION('ref_axis',(0.,1.,0.));
#1202=DIRECTION('',(0.,-1.,0.));
#1203=DIRECTION('',(0.,-1.,0.));
#1204=DIRECTION('center_axis',(0.,-1.,0.));
#1205=DIRECTION('ref_axis',(-1.,0.,-1.56542960230868E-18));
#1206=DIRECTION('',(1.,0.,0.));
#1207=DIRECTION('',(0.,0.,-1.));
#1208=DIRECTION('',(1.,0.,0.));
#1209=DIRECTION('',(0.,0.,-1.));
#1210=DIRECTION('center_axis',(0.,0.,-1.));
#1211=DIRECTION('ref_axis',(-5.55111512312575E-16,-1.,0.));
#1212=DIRECTION('center_axis',(0.,0.,1.));
#1213=DIRECTION('ref_axis',(-5.55111512312575E-16,-1.,0.));
#1214=DIRECTION('center_axis',(0.,0.,1.));
#1215=DIRECTION('ref_axis',(-5.55111512312575E-16,-1.,0.));
#1216=DIRECTION('',(0.,0.,-1.));
#1217=DIRECTION('center_axis',(1.,0.,0.));
#1218=DIRECTION('ref_axis',(0.,-1.,0.));
#1219=DIRECTION('',(0.,1.,0.));
#1220=DIRECTION('',(0.,1.,0.));
#1221=DIRECTION('',(0.,0.,-1.));
#1222=DIRECTION('center_axis',(0.,0.,-1.));
#1223=DIRECTION('ref_axis',(1.,0.,0.));
#1224=DIRECTION('center_axis',(0.,0.,1.));
#1225=DIRECTION('ref_axis',(1.,0.,0.));
#1226=DIRECTION('center_axis',(0.,0.,1.));
#1227=DIRECTION('ref_axis',(1.,0.,0.));
#1228=DIRECTION('',(0.,0.,-1.));
#1229=DIRECTION('center_axis',(8.07434910593225E-16,1.,0.));
#1230=DIRECTION('ref_axis',(1.,-8.07434910593225E-16,1.49233352274512E-18));
#1231=DIRECTION('',(-1.,8.07434910593225E-16,0.));
#1232=DIRECTION('',(-1.,8.07434910593225E-16,0.));
#1233=DIRECTION('',(0.,0.,-1.));
#1234=DIRECTION('center_axis',(0.,0.,-1.));
#1235=DIRECTION('ref_axis',(2.14139358585156E-59,1.,0.));
#1236=DIRECTION('center_axis',(0.,0.,1.));
#1237=DIRECTION('ref_axis',(2.14139358585156E-59,1.,0.));
#1238=DIRECTION('center_axis',(0.,0.,1.));
#1239=DIRECTION('ref_axis',(2.14139358585156E-59,1.,0.));
#1240=DIRECTION('',(0.,0.,-1.));
#1241=DIRECTION('center_axis',(-1.,0.,0.));
#1242=DIRECTION('ref_axis',(0.,1.,0.));
#1243=DIRECTION('',(0.,-1.,0.));
#1244=DIRECTION('',(0.,-1.,0.));
#1245=DIRECTION('',(0.,0.,-1.));
#1246=DIRECTION('center_axis',(0.,0.,-1.));
#1247=DIRECTION('ref_axis',(-1.,2.62348118983223E-67,0.));
#1248=DIRECTION('center_axis',(0.,0.,1.));
#1249=DIRECTION('ref_axis',(-1.,2.62348118983223E-67,0.));
#1250=DIRECTION('center_axis',(0.,0.,1.));
#1251=DIRECTION('ref_axis',(-1.,2.62348118983223E-67,0.));
#1252=DIRECTION('center_axis',(0.,0.,-1.));
#1253=DIRECTION('ref_axis',(-1.,0.,0.));
#1254=DIRECTION('center_axis',(0.,0.,1.));
#1255=DIRECTION('ref_axis',(-1.,0.,0.));
#1256=DIRECTION('',(0.,0.,-1.));
#1257=DIRECTION('center_axis',(0.,0.,1.));
#1258=DIRECTION('ref_axis',(-1.,0.,0.));
#1259=DIRECTION('center_axis',(0.,0.,-1.));
#1260=DIRECTION('ref_axis',(-1.,0.,0.));
#1261=DIRECTION('center_axis',(0.,0.,1.));
#1262=DIRECTION('ref_axis',(-1.,0.,0.));
#1263=DIRECTION('',(0.,0.,-1.));
#1264=DIRECTION('center_axis',(0.,0.,1.));
#1265=DIRECTION('ref_axis',(-1.,0.,0.));
#1266=DIRECTION('center_axis',(-1.,0.,0.));
#1267=DIRECTION('ref_axis',(0.,1.,0.));
#1268=DIRECTION('',(0.,-1.,0.));
#1269=DIRECTION('',(0.,0.,-1.));
#1270=DIRECTION('',(0.,-1.,0.));
#1271=DIRECTION('',(0.,0.,-1.));
#1272=DIRECTION('center_axis',(0.,0.,-1.));
#1273=DIRECTION('ref_axis',(-1.,0.,0.));
#1274=DIRECTION('center_axis',(0.,0.,1.));
#1275=DIRECTION('ref_axis',(-1.,0.,0.));
#1276=DIRECTION('center_axis',(0.,0.,1.));
#1277=DIRECTION('ref_axis',(-1.,0.,0.));
#1278=DIRECTION('',(0.,0.,-1.));
#1279=DIRECTION('center_axis',(0.,-1.,0.));
#1280=DIRECTION('ref_axis',(-1.,0.,0.));
#1281=DIRECTION('',(1.,0.,0.));
#1282=DIRECTION('',(1.,0.,0.));
#1283=DIRECTION('',(0.,0.,-1.));
#1284=DIRECTION('center_axis',(0.,0.,-1.));
#1285=DIRECTION('ref_axis',(0.,-1.,0.));
#1286=DIRECTION('center_axis',(0.,0.,1.));
#1287=DIRECTION('ref_axis',(0.,-1.,0.));
#1288=DIRECTION('center_axis',(0.,0.,1.));
#1289=DIRECTION('ref_axis',(0.,-1.,0.));
#1290=DIRECTION('',(0.,0.,-1.));
#1291=DIRECTION('center_axis',(1.,0.,0.));
#1292=DIRECTION('ref_axis',(0.,-1.,0.));
#1293=DIRECTION('',(0.,1.,0.));
#1294=DIRECTION('',(0.,1.,0.));
#1295=DIRECTION('',(0.,0.,-1.));
#1296=DIRECTION('center_axis',(0.,0.,-1.));
#1297=DIRECTION('ref_axis',(1.,0.,0.));
#1298=DIRECTION('center_axis',(0.,0.,1.));
#1299=DIRECTION('ref_axis',(1.,0.,0.));
#1300=DIRECTION('center_axis',(0.,0.,1.));
#1301=DIRECTION('ref_axis',(1.,0.,0.));
#1302=DIRECTION('',(0.,0.,-1.));
#1303=DIRECTION('center_axis',(0.,1.,0.));
#1304=DIRECTION('ref_axis',(1.,0.,0.));
#1305=DIRECTION('',(-1.,0.,0.));
#1306=DIRECTION('',(-1.,0.,0.));
#1307=DIRECTION('',(0.,0.,-1.));
#1308=DIRECTION('center_axis',(0.,0.,-1.));
#1309=DIRECTION('ref_axis',(0.,1.,0.));
#1310=DIRECTION('center_axis',(0.,0.,1.));
#1311=DIRECTION('ref_axis',(0.,1.,0.));
#1312=DIRECTION('center_axis',(0.,0.,1.));
#1313=DIRECTION('ref_axis',(0.,1.,0.));
#1314=DIRECTION('center_axis',(0.,-1.,0.));
#1315=DIRECTION('ref_axis',(0.,0.,-1.));
#1316=DIRECTION('',(1.,0.,0.));
#1317=DIRECTION('',(1.,0.,0.));
#1318=DIRECTION('center_axis',(0.,0.,1.));
#1319=DIRECTION('ref_axis',(0.,-1.,0.));
#1320=DIRECTION('',(-1.,0.,0.));
#1321=DIRECTION('center_axis',(0.,1.,0.));
#1322=DIRECTION('ref_axis',(0.,0.,1.));
#1323=DIRECTION('',(1.,0.,0.));
#1324=DIRECTION('center_axis',(0.,0.,-1.));
#1325=DIRECTION('ref_axis',(0.,1.,0.));
#1326=CARTESIAN_POINT('',(0.,0.,0.));
#1327=CARTESIAN_POINT('Origin',(27.5000004023316,-89.0000015944242,-0.9000000692904));
#1328=CARTESIAN_POINT('',(27.5000004023316,-88.1000015944242,0.0999999307096003));
#1329=CARTESIAN_POINT('',(27.5000004023316,-89.0000015944242,0.0999999307096003));
#1330=CARTESIAN_POINT('',(27.5000004023316,-85.9999991431833,0.0999999307096003));
#1331=CARTESIAN_POINT('',(27.5000004023316,-88.1000015944242,4.0999999307096));
#1332=CARTESIAN_POINT('',(27.5000004023316,-88.1000015944242,-0.9000000692904));
#1333=CARTESIAN_POINT('',(27.5000004023316,-89.0000015944242,4.0999999307096));
#1334=CARTESIAN_POINT('',(27.5000004023316,-88.1000015944242,4.0999999307096));
#1335=CARTESIAN_POINT('',(27.5000004023316,-89.0000015944242,-0.9000000692904));
#1336=CARTESIAN_POINT('Origin',(22.0000004768372,-89.0000015944242,-0.9000000692904));
#1337=CARTESIAN_POINT('',(22.0000004768372,-89.0000015944242,0.0999999307096003));
#1338=CARTESIAN_POINT('',(11.0000002384186,-89.0000015944242,0.0999999307096003));
#1339=CARTESIAN_POINT('',(22.0000004768372,-89.0000015944242,4.0999999307096));
#1340=CARTESIAN_POINT('',(43.0000004768372,-89.0000015944242,4.0999999307096));
#1341=CARTESIAN_POINT('',(22.0000004768372,-89.0000015944242,-0.9000000692904));
#1342=CARTESIAN_POINT('Origin',(22.0000004768372,-110.000001594424,-0.9000000692904));
#1343=CARTESIAN_POINT('',(22.0000004768372,-110.000001594424,0.0999999307096003));
#1344=CARTESIAN_POINT('',(22.0000004768372,-96.4999991431832,0.0999999307096003));
#1345=CARTESIAN_POINT('',(22.0000004768372,-110.000001594424,4.0999999307096));
#1346=CARTESIAN_POINT('',(22.0000004768372,-89.0000015944242,4.0999999307096));
#1347=CARTESIAN_POINT('',(22.0000004768372,-110.000001594424,-0.9000000692904));
#1348=CARTESIAN_POINT('Origin',(43.0000004768372,-110.000001594424,-0.9000000692904));
#1349=CARTESIAN_POINT('',(43.0000004768372,-110.000001594424,0.0999999307096003));
#1350=CARTESIAN_POINT('',(21.5000002384186,-110.000001594424,0.0999999307096003));
#1351=CARTESIAN_POINT('',(43.0000004768372,-110.000001594424,4.0999999307096));
#1352=CARTESIAN_POINT('',(22.0000004768372,-110.000001594424,4.0999999307096));
#1353=CARTESIAN_POINT('',(43.0000004768372,-110.000001594424,-0.9000000692904));
#1354=CARTESIAN_POINT('Origin',(43.0000004768372,-89.0000015944242,-0.9000000692904));
#1355=CARTESIAN_POINT('',(43.0000004768372,-89.0000015944242,0.0999999307096003));
#1356=CARTESIAN_POINT('',(43.0000004768372,-85.9999991431832,0.0999999307096003));
#1357=CARTESIAN_POINT('',(43.0000004768372,-89.0000015944242,4.0999999307096));
#1358=CARTESIAN_POINT('',(43.0000004768372,-110.000001594424,4.0999999307096));
#1359=CARTESIAN_POINT('',(43.0000004768372,-89.0000015944242,-0.9000000692904));
#1360=CARTESIAN_POINT('Origin',(37.5000005513427,-89.0000015944242,-0.9000000692904));
#1361=CARTESIAN_POINT('',(37.5000005513427,-89.0000015944242,0.0999999307096003));
#1362=CARTESIAN_POINT('',(18.7500002756714,-89.0000015944242,0.0999999307096003));
#1363=CARTESIAN_POINT('',(37.5000005513427,-89.0000015944242,4.0999999307096));
#1364=CARTESIAN_POINT('',(43.0000004768372,-89.0000015944242,4.0999999307096));
#1365=CARTESIAN_POINT('',(37.5000005513427,-89.0000015944242,-0.9000000692904));
#1366=CARTESIAN_POINT('Origin',(37.5000005513427,-88.1000015944242,-0.9000000692904));
#1367=CARTESIAN_POINT('',(37.5000005513427,-88.1000015944242,0.0999999307096003));
#1368=CARTESIAN_POINT('',(37.5000005513427,-85.5499991431832,0.0999999307096003));
#1369=CARTESIAN_POINT('',(37.5000005513427,-88.1000015944242,4.0999999307096));
#1370=CARTESIAN_POINT('',(37.5000005513427,-88.1000015944242,4.0999999307096));
#1371=CARTESIAN_POINT('',(37.5000005513427,-88.1000015944242,-0.9000000692904));
#1372=CARTESIAN_POINT('Origin',(43.9000004768371,-88.1000015944242,-0.9000000692904));
#1373=CARTESIAN_POINT('',(43.9000004768371,-88.1000015944242,0.0999999307096003));
#1374=CARTESIAN_POINT('',(21.9500002384186,-88.1000015944242,0.0999999307096003));
#1375=CARTESIAN_POINT('',(43.9000004768371,-88.1000015944242,4.0999999307096));
#1376=CARTESIAN_POINT('',(43.9000004768371,-88.1000015944242,4.0999999307096));
#1377=CARTESIAN_POINT('',(43.9000004768371,-88.1000015944242,-0.9000000692904));
#1378=CARTESIAN_POINT('Origin',(43.9000004768371,-110.900001594424,-0.9000000692904));
#1379=CARTESIAN_POINT('',(43.9000004768371,-110.900001594424,0.0999999307096003));
#1380=CARTESIAN_POINT('',(43.9000004768371,-96.9499991431832,0.0999999307096003));
#1381=CARTESIAN_POINT('',(43.9000004768371,-110.900001594424,4.0999999307096));
#1382=CARTESIAN_POINT('',(43.9000004768371,-110.900001594424,4.0999999307096));
#1383=CARTESIAN_POINT('',(43.9000004768371,-110.900001594424,-0.9000000692904));
#1384=CARTESIAN_POINT('Origin',(21.1000004768372,-110.900001594424,-0.9000000692904));
#1385=CARTESIAN_POINT('',(21.1000004768372,-110.900001594424,0.0999999307096003));
#1386=CARTESIAN_POINT('',(10.5500002384186,-110.900001594424,0.0999999307096003));
#1387=CARTESIAN_POINT('',(21.1000004768372,-110.900001594424,4.0999999307096));
#1388=CARTESIAN_POINT('',(21.1000004768372,-110.900001594424,4.0999999307096));
#1389=CARTESIAN_POINT('',(21.1000004768372,-110.900001594424,-0.9000000692904));
#1390=CARTESIAN_POINT('Origin',(21.1000004768372,-88.1000015944242,-0.9000000692904));
#1391=CARTESIAN_POINT('',(21.1000004768372,-88.1000015944242,0.0999999307096003));
#1392=CARTESIAN_POINT('',(21.1000004768372,-85.5499991431832,0.0999999307096003));
#1393=CARTESIAN_POINT('',(21.1000004768372,-88.1000015944242,4.0999999307096));
#1394=CARTESIAN_POINT('',(21.1000004768372,-88.1000015944242,4.0999999307096));
#1395=CARTESIAN_POINT('',(21.1000004768372,-88.1000015944242,-0.9000000692904));
#1396=CARTESIAN_POINT('Origin',(27.5000004023316,-88.1000015944242,-0.9000000692904));
#1397=CARTESIAN_POINT('',(13.7500002011658,-88.1000015944242,0.0999999307096003));
#1398=CARTESIAN_POINT('',(43.9000004768371,-88.1000015944242,4.0999999307096));
#1399=CARTESIAN_POINT('Origin',(32.5000004768372,-99.5000015944242,4.0999999307096));
#1400=CARTESIAN_POINT('Origin',(-38.000000506638,-109.999996691942,-0.9000000692904));
#1401=CARTESIAN_POINT('',(-42.4952180702849,-109.999996691942,-2.9000000692904));
#1402=CARTESIAN_POINT('',(-38.000000506638,-109.999996691942,-2.9000000692904));
#1403=CARTESIAN_POINT('',(-19.000000253319,-109.999996691942,-2.9000000692904));
#1404=CARTESIAN_POINT('',(-42.4952180702849,-109.999996691942,0.0999999307096003));
#1405=CARTESIAN_POINT('',(-42.4952180702849,-109.999996691942,-0.9000000692904));
#1406=CARTESIAN_POINT('',(-38.000000506638,-109.999996691942,0.0999999307096003));
#1407=CARTESIAN_POINT('',(-19.000000253319,-109.999996691942,0.0999999307096003));
#1408=CARTESIAN_POINT('',(-38.000000506638,-109.999996691942,-0.9000000692904));
#1409=CARTESIAN_POINT('Origin',(-38.000000506638,-105.999996691942,-0.9000000692904));
#1410=CARTESIAN_POINT('',(-34.0000005066379,-105.999996691942,-2.9000000692904));
#1411=CARTESIAN_POINT('Origin',(-38.000000506638,-105.999996691942,-2.9000000692904));
#1412=CARTESIAN_POINT('',(-34.0000005066379,-105.999996691942,0.0999999307096003));
#1413=CARTESIAN_POINT('Origin',(-38.000000506638,-105.999996691942,0.0999999307096003));
#1414=CARTESIAN_POINT('',(-34.0000005066379,-105.999996691942,-0.9000000692904));
#1415=CARTESIAN_POINT('Origin',(-34.0000005066379,-93.9999898328055,-0.9000000692904));
#1416=CARTESIAN_POINT('',(-34.0000005066379,-93.9999898328055,-2.9000000692904));
#1417=CARTESIAN_POINT('',(-34.0000005066379,-105.499993262374,-2.9000000692904));
#1418=CARTESIAN_POINT('',(-34.0000005066379,-93.9999898328055,0.0999999307096003));
#1419=CARTESIAN_POINT('',(-34.0000005066379,-88.4999932623738,0.0999999307096003));
#1420=CARTESIAN_POINT('',(-34.0000005066379,-93.9999898328055,-0.9000000692904));
#1421=CARTESIAN_POINT('Origin',(-38.0000005066379,-93.9999898328055,-0.9000000692904));
#1422=CARTESIAN_POINT('',(-37.9999992130609,-89.9999898328057,-2.9000000692904));
#1423=CARTESIAN_POINT('Origin',(-38.0000005066379,-93.9999898328055,-2.9000000692904));
#1424=CARTESIAN_POINT('',(-37.9999992130609,-89.9999898328057,0.0999999307096003));
#1425=CARTESIAN_POINT('Origin',(-38.0000005066379,-93.9999898328055,0.0999999307096003));
#1426=CARTESIAN_POINT('',(-37.9999992130609,-89.9999898328057,-0.9000000692904));
#1427=CARTESIAN_POINT('Origin',(-43.8003591071948,-89.9999879570026,-0.9000000692904));
#1428=CARTESIAN_POINT('',(-43.8003591071948,-89.9999879570026,-2.9000000692904));
#1429=CARTESIAN_POINT('',(-21.9001751877757,-89.9999950393965,-2.9000000692904));
#1430=CARTESIAN_POINT('',(-43.8003591071948,-89.9999879570026,0.0999999307096003));
#1431=CARTESIAN_POINT('',(-21.9001806854782,-89.9999950393947,0.0999999307096003));
#1432=CARTESIAN_POINT('',(-43.8003591071948,-89.9999879570026,-0.9000000692904));
#1433=CARTESIAN_POINT('Origin',(-43.8003604007718,-93.9999879570024,-0.9000000692904));
#1434=CARTESIAN_POINT('',(-47.7769099949103,-94.4324845758989,-2.9000000692904));
#1435=CARTESIAN_POINT('Origin',(-43.8003604007718,-93.9999879570024,-2.9000000692904));
#1436=CARTESIAN_POINT('',(-47.7769099949103,-94.4324845758989,0.0999999307096003));
#1437=CARTESIAN_POINT('Origin',(-43.8003604007718,-93.9999879570024,0.0999999307096003));
#1438=CARTESIAN_POINT('',(-47.7769099949103,-94.4324845758989,-0.9000000692904));
#1439=CARTESIAN_POINT('Origin',(-46.4717676644234,-106.432493310839,-0.9000000692904));
#1440=CARTESIAN_POINT('',(-46.4717676644234,-106.432493310839,-2.9000000692904));
#1441=CARTESIAN_POINT('',(-45.632168956625,-114.152104875094,-2.9000000692904));
#1442=CARTESIAN_POINT('',(-46.4717676644234,-106.432493310839,0.0999999307096003));
#1443=CARTESIAN_POINT('',(-47.4595034768606,-97.3508490332853,0.0999999307096003));
#1444=CARTESIAN_POINT('',(-46.4717676644234,-106.432493310839,-0.9000000692904));
#1445=CARTESIAN_POINT('Origin',(-42.4952180702849,-105.999996691942,-0.9000000692904));
#1446=CARTESIAN_POINT('Origin',(-42.4952180702849,-105.999996691942,-2.9000000692904));
#1447=CARTESIAN_POINT('Origin',(-42.4952180702849,-105.999996691942,0.0999999307096003));
#1448=CARTESIAN_POINT('Origin',(-16.5000002533198,-113.301366842034,-0.9000000692904));
#1449=CARTESIAN_POINT('',(-29.5000002533198,-113.301366842034,-2.9000000692904));
#1450=CARTESIAN_POINT('',(-16.5000002533198,-113.301366842034,-2.9000000692904));
#1451=CARTESIAN_POINT('',(-8.25000012665989,-113.301366842034,-2.9000000692904));
#1452=CARTESIAN_POINT('',(-29.5000002533198,-113.301366842034,0.0999999307096003));
#1453=CARTESIAN_POINT('',(-29.5000002533198,-113.301366842034,-0.9000000692904));
#1454=CARTESIAN_POINT('',(-16.5000002533198,-113.301366842034,0.0999999307096003));
#1455=CARTESIAN_POINT('',(-8.25000012665989,-113.301366842034,0.0999999307096003));
#1456=CARTESIAN_POINT('',(-16.5000002533198,-113.301366842034,-0.9000000692904));
#1457=CARTESIAN_POINT('Origin',(-16.5000002533198,-88.3013668420336,-0.9000000692904));
#1458=CARTESIAN_POINT('',(-16.5000002533198,-88.3013668420336,-2.9000000692904));
#1459=CARTESIAN_POINT('',(-16.5000002533198,-102.650681766988,-2.9000000692904));
#1460=CARTESIAN_POINT('',(-16.5000002533198,-88.3013668420336,0.0999999307096003));
#1461=CARTESIAN_POINT('',(-16.5000002533198,-85.6506817669879,0.0999999307096003));
#1462=CARTESIAN_POINT('',(-16.5000002533198,-88.3013668420336,-0.9000000692904));
#1463=CARTESIAN_POINT('Origin',(-29.5000002533198,-88.3013668420336,-0.9000000692904));
#1464=CARTESIAN_POINT('',(-29.5000002533198,-88.3013668420336,-2.9000000692904));
#1465=CARTESIAN_POINT('',(-14.7500001266599,-88.3013668420336,-2.9000000692904));
#1466=CARTESIAN_POINT('',(-29.5000002533198,-88.3013668420336,0.0999999307096003));
#1467=CARTESIAN_POINT('',(-14.7500001266599,-88.3013668420336,0.0999999307096003));
#1468=CARTESIAN_POINT('',(-29.5000002533198,-88.3013668420336,-0.9000000692904));
#1469=CARTESIAN_POINT('Origin',(-29.5000002533198,-113.301366842034,-0.9000000692904));
#1470=CARTESIAN_POINT('',(-29.5000002533198,-115.150681766988,-2.9000000692904));
#1471=CARTESIAN_POINT('',(-29.5000002533198,-98.1506817669879,0.0999999307096003));
#1472=CARTESIAN_POINT('Origin',(14.0000001246766,-109.999996691942,-0.9000000692904));
#1473=CARTESIAN_POINT('',(-8.00000032235823,-109.999996691942,-2.9000000692904));
#1474=CARTESIAN_POINT('',(14.0000001246766,-109.999996691942,-2.9000000692904));
#1475=CARTESIAN_POINT('',(7.0000000623383,-109.999996691942,-2.9000000692904));
#1476=CARTESIAN_POINT('',(-8.00000032235823,-109.999996691942,0.0999999307096003));
#1477=CARTESIAN_POINT('',(-8.00000032235823,-109.999996691942,-0.9000000692904));
#1478=CARTESIAN_POINT('',(14.0000001246766,-109.999996691942,0.0999999307096003));
#1479=CARTESIAN_POINT('',(7.0000000623383,-109.999996691942,0.0999999307096003));
#1480=CARTESIAN_POINT('',(14.0000001246766,-109.999996691942,-0.9000000692904));
#1481=CARTESIAN_POINT('Origin',(14.0000001246766,-105.999996691942,-0.9000000692904));
#1482=CARTESIAN_POINT('',(18.0000001246766,-105.999996691942,-2.9000000692904));
#1483=CARTESIAN_POINT('Origin',(14.0000001246766,-105.999996691942,-2.9000000692904));
#1484=CARTESIAN_POINT('',(18.0000001246766,-105.999996691942,0.0999999307096003));
#1485=CARTESIAN_POINT('Origin',(14.0000001246766,-105.999996691942,0.0999999307096003));
#1486=CARTESIAN_POINT('',(18.0000001246766,-105.999996691942,-0.9000000692904));
#1487=CARTESIAN_POINT('Origin',(18.0000001246766,-93.9999995346332,-0.9000000692904));
#1488=CARTESIAN_POINT('',(18.0000001246766,-93.9999995346332,-2.9000000692904));
#1489=CARTESIAN_POINT('',(18.0000001246766,-105.499998113288,-2.9000000692904));
#1490=CARTESIAN_POINT('',(18.0000001246766,-93.9999995346332,0.0999999307096003));
#1491=CARTESIAN_POINT('',(18.0000001246766,-88.4999981132877,0.0999999307096003));
#1492=CARTESIAN_POINT('',(18.0000001246766,-93.9999995346332,-0.9000000692904));
#1493=CARTESIAN_POINT('Origin',(14.0000001246766,-93.9999995346332,-0.9000000692904));
#1494=CARTESIAN_POINT('',(14.0000001246766,-89.9999995346332,-2.9000000692904));
#1495=CARTESIAN_POINT('Origin',(14.0000001246766,-93.9999995346332,-2.9000000692904));
#1496=CARTESIAN_POINT('',(14.0000001246766,-89.9999995346332,0.0999999307096003));
#1497=CARTESIAN_POINT('Origin',(14.0000001246766,-93.9999995346332,0.0999999307096003));
#1498=CARTESIAN_POINT('',(14.0000001246766,-89.9999995346332,-0.9000000692904));
#1499=CARTESIAN_POINT('Origin',(-8.00000032235821,-89.9999995346332,-0.9000000692904));
#1500=CARTESIAN_POINT('',(-8.00000032235821,-89.9999995346332,-2.9000000692904));
#1501=CARTESIAN_POINT('',(-4.0000001611791,-89.9999995346332,-2.9000000692904));
#1502=CARTESIAN_POINT('',(-8.00000032235821,-89.9999995346332,0.0999999307096003));
#1503=CARTESIAN_POINT('',(-4.00000016117911,-89.9999995346332,0.0999999307096003));
#1504=CARTESIAN_POINT('',(-8.00000032235821,-89.9999995346332,-0.9000000692904));
#1505=CARTESIAN_POINT('Origin',(-8.00000032235821,-93.9999995346332,-0.9000000692904));
#1506=CARTESIAN_POINT('',(-12.0000003223583,-93.9999995346332,-2.9000000692904));
#1507=CARTESIAN_POINT('Origin',(-8.00000032235821,-93.9999995346332,-2.9000000692904));
#1508=CARTESIAN_POINT('',(-12.0000003223583,-93.9999995346332,0.0999999307096003));
#1509=CARTESIAN_POINT('Origin',(-8.00000032235821,-93.9999995346332,0.0999999307096003));
#1510=CARTESIAN_POINT('',(-12.0000003223583,-93.9999995346332,-0.9000000692904));
#1511=CARTESIAN_POINT('Origin',(-12.0000003223582,-105.999996691942,-0.9000000692904));
#1512=CARTESIAN_POINT('',(-12.0000003223582,-105.999996691942,-2.9000000692904));
#1513=CARTESIAN_POINT('',(-12.0000003223582,-111.499996691942,-2.9000000692904));
#1514=CARTESIAN_POINT('',(-12.0000003223582,-105.999996691942,0.0999999307096003));
#1515=CARTESIAN_POINT('',(-12.0000003223582,-94.4999966919422,0.0999999307096003));
#1516=CARTESIAN_POINT('',(-12.0000003223582,-105.999996691942,-0.9000000692904));
#1517=CARTESIAN_POINT('Origin',(-8.00000032235823,-105.999996691942,-0.9000000692904));
#1518=CARTESIAN_POINT('Origin',(-8.00000032235823,-105.999996691942,-2.9000000692904));
#1519=CARTESIAN_POINT('Origin',(-8.00000032235823,-105.999996691942,0.0999999307096003));
#1520=CARTESIAN_POINT('Origin',(-23.0000002533198,-87.0013668420336,-0.9000000692904));
#1521=CARTESIAN_POINT('',(-22.2500002533198,-87.0013668420336,0.0999999307096003));
#1522=CARTESIAN_POINT('Origin',(-23.0000002533198,-87.0013668420336,0.0999999307096003));
#1523=CARTESIAN_POINT('',(-22.2500002533198,-87.0013668420336,-2.9000000692904));
#1524=CARTESIAN_POINT('',(-22.2500002533198,-87.0013668420336,-0.9000000692904));
#1525=CARTESIAN_POINT('Origin',(-23.0000002533198,-87.0013668420336,-2.9000000692904));
#1526=CARTESIAN_POINT('Origin',(-23.0000002533198,-114.601366842034,-0.9000000692904));
#1527=CARTESIAN_POINT('',(-22.2500002533198,-114.601366842034,0.0999999307096003));
#1528=CARTESIAN_POINT('Origin',(-23.0000002533198,-114.601366842034,0.0999999307096003));
#1529=CARTESIAN_POINT('',(-22.2500002533198,-114.601366842034,-2.9000000692904));
#1530=CARTESIAN_POINT('',(-22.2500002533198,-114.601366842034,-0.9000000692904));
#1531=CARTESIAN_POINT('Origin',(-23.0000002533198,-114.601366842034,-2.9000000692904));
#1532=CARTESIAN_POINT('Origin',(25.0000004768372,-104.000001594424,-0.9000000692904));
#1533=CARTESIAN_POINT('',(25.0000004768372,-95.0000015944243,-2.9000000692904));
#1534=CARTESIAN_POINT('',(25.0000004768372,-104.000001594424,-2.9000000692904));
#1535=CARTESIAN_POINT('',(25.0000004768372,-110.499999143183,-2.9000000692904));
#1536=CARTESIAN_POINT('',(25.0000004768372,-95.0000015944243,0.0999999307096003));
#1537=CARTESIAN_POINT('',(25.0000004768372,-95.0000015944243,-0.9000000692904));
#1538=CARTESIAN_POINT('',(25.0000004768372,-104.000001594424,0.0999999307096003));
#1539=CARTESIAN_POINT('',(25.0000004768372,-93.4999991431832,0.0999999307096003));
#1540=CARTESIAN_POINT('',(25.0000004768372,-104.000001594424,-0.9000000692904));
#1541=CARTESIAN_POINT('Origin',(28.0000004768372,-104.000001594424,-0.9000000692904));
#1542=CARTESIAN_POINT('',(28.0000004768372,-107.000001594424,-2.9000000692904));
#1543=CARTESIAN_POINT('Origin',(28.0000004768372,-104.000001594424,-2.9000000692904));
#1544=CARTESIAN_POINT('',(28.0000004768372,-107.000001594424,0.0999999307096003));
#1545=CARTESIAN_POINT('Origin',(28.0000004768372,-104.000001594424,0.0999999307096003));
#1546=CARTESIAN_POINT('',(28.0000004768372,-107.000001594424,-0.9000000692904));
#1547=CARTESIAN_POINT('Origin',(37.0000004768371,-107.000001594424,-0.9000000692904));
#1548=CARTESIAN_POINT('',(37.0000004768371,-107.000001594424,-2.9000000692904));
#1549=CARTESIAN_POINT('',(18.5000002384186,-107.000001594424,-2.9000000692904));
#1550=CARTESIAN_POINT('',(37.0000004768371,-107.000001594424,0.0999999307096003));
#1551=CARTESIAN_POINT('',(18.5000002384186,-107.000001594424,0.0999999307096003));
#1552=CARTESIAN_POINT('',(37.0000004768371,-107.000001594424,-0.9000000692904));
#1553=CARTESIAN_POINT('Origin',(37.0000004768371,-104.000001594424,-0.9000000692904));
#1554=CARTESIAN_POINT('',(40.0000004768372,-104.000001594424,-2.9000000692904));
#1555=CARTESIAN_POINT('Origin',(37.0000004768371,-104.000001594424,-2.9000000692904));
#1556=CARTESIAN_POINT('',(40.0000004768372,-104.000001594424,0.0999999307096003));
#1557=CARTESIAN_POINT('Origin',(37.0000004768371,-104.000001594424,0.0999999307096003));
#1558=CARTESIAN_POINT('',(40.0000004768372,-104.000001594424,-0.9000000692904));
#1559=CARTESIAN_POINT('Origin',(40.0000004768372,-95.0000015944243,-0.9000000692904));
#1560=CARTESIAN_POINT('',(40.0000004768372,-95.0000015944243,-2.9000000692904));
#1561=CARTESIAN_POINT('',(40.0000004768372,-105.999999143183,-2.9000000692904));
#1562=CARTESIAN_POINT('',(40.0000004768372,-95.0000015944243,0.0999999307096003));
#1563=CARTESIAN_POINT('',(40.0000004768372,-88.9999991431833,0.0999999307096003));
#1564=CARTESIAN_POINT('',(40.0000004768372,-95.0000015944243,-0.9000000692904));
#1565=CARTESIAN_POINT('Origin',(37.0000004768371,-95.0000015944243,-0.9000000692904));
#1566=CARTESIAN_POINT('',(37.0000004768371,-92.0000015944242,-2.9000000692904));
#1567=CARTESIAN_POINT('Origin',(37.0000004768371,-95.0000015944243,-2.9000000692904));
#1568=CARTESIAN_POINT('',(37.0000004768371,-92.0000015944242,0.0999999307096003));
#1569=CARTESIAN_POINT('Origin',(37.0000004768371,-95.0000015944243,0.0999999307096003));
#1570=CARTESIAN_POINT('',(37.0000004768371,-92.0000015944242,-0.9000000692904));
#1571=CARTESIAN_POINT('Origin',(28.0000004768372,-92.0000015944242,-0.9000000692904));
#1572=CARTESIAN_POINT('',(28.0000004768372,-92.0000015944242,-2.9000000692904));
#1573=CARTESIAN_POINT('',(14.0000002384186,-92.0000015944242,-2.9000000692904));
#1574=CARTESIAN_POINT('',(28.0000004768372,-92.0000015944242,0.0999999307096003));
#1575=CARTESIAN_POINT('',(14.0000002384186,-92.0000015944242,0.0999999307096003));
#1576=CARTESIAN_POINT('',(28.0000004768372,-92.0000015944242,-0.9000000692904));
#1577=CARTESIAN_POINT('Origin',(28.0000004768372,-95.0000015944243,-0.9000000692904));
#1578=CARTESIAN_POINT('Origin',(28.0000004768372,-95.0000015944243,-2.9000000692904));
#1579=CARTESIAN_POINT('Origin',(28.0000004768372,-95.0000015944243,0.0999999307096003));
#1580=CARTESIAN_POINT('Ctrl Pts',(-53.4499176778575,-82.9992054494999,-3.1774855599997));
#1581=CARTESIAN_POINT('Ctrl Pts',(-52.5750589615932,-95.1533467357689,-3.1039192359764));
#1582=CARTESIAN_POINT('Ctrl Pts',(-51.4750964293391,-106.401506660049,-3.01142407240665));
#1583=CARTESIAN_POINT('Ctrl Pts',(-50.1500300810952,-116.999996691942,-2.90000006929043));
#1584=CARTESIAN_POINT('Ctrl Pts',(-53.4499175798957,-82.9994699669355,-2.08180108788833));
#1585=CARTESIAN_POINT('Ctrl Pts',(-52.5750588658994,-95.1536831050759,-2.03360245994194));
#1586=CARTESIAN_POINT('Ctrl Pts',(-51.4750963364969,-106.401918782692,-1.97300217802045));
#1587=CARTESIAN_POINT('Ctrl Pts',(-50.1500299916882,-117.000473457046,-1.90000024212387));
#1588=CARTESIAN_POINT('Ctrl Pts',(-53.4499174819339,-82.9997344843711,-0.986116615776954));
#1589=CARTESIAN_POINT('Ctrl Pts',(-52.5750587702057,-95.1540194743828,-0.963285683907472));
#1590=CARTESIAN_POINT('Ctrl Pts',(-51.4750962436548,-106.402330905334,-0.934580283634259));
#1591=CARTESIAN_POINT('Ctrl Pts',(-50.1500299022813,-117.000950222149,-0.900000414957314));
#1592=CARTESIAN_POINT('Ctrl Pts',(-53.449917383972,-82.9999990018067,0.10956785633442));
#1593=CARTESIAN_POINT('Ctrl Pts',(-52.5750586745119,-95.1543558436898,0.107031092126994));
#1594=CARTESIAN_POINT('Ctrl Pts',(-51.4750961508126,-106.402743027976,0.103841610751936));
#1595=CARTESIAN_POINT('Ctrl Pts',(-50.1500298128743,-117.001426987253,0.099999412209246));
#1596=CARTESIAN_POINT('',(-53.4498655207968,-82.9999966919422,-2.9000000692904));
#1597=CARTESIAN_POINT('',(-50.1500300810952,-116.999996691942,-2.9000000692904));
#1598=CARTESIAN_POINT('Ctrl Pts',(-53.4498655207968,-82.9999966919422,-2.9000000692904));
#1599=CARTESIAN_POINT('Ctrl Pts',(-52.6334879979919,-94.34152928869,-2.9000000692904));
#1600=CARTESIAN_POINT('Ctrl Pts',(-51.5634704675775,-105.694707041374,-2.9000000692904));
#1601=CARTESIAN_POINT('Ctrl Pts',(-50.1500300810952,-116.999996691942,-2.9000000692904));
#1602=CARTESIAN_POINT('',(-50.15020862911,-116.999996691942,0.099999930709602));
#1603=CARTESIAN_POINT('Ctrl Pts',(-50.1500300810952,-116.999996691942,-2.9000000692904));
#1604=CARTESIAN_POINT('Ctrl Pts',(-50.1500697597717,-116.999996691942,-2.23333340262379));
#1605=CARTESIAN_POINT('Ctrl Pts',(-50.1501094375506,-116.999996691942,-1.56666673595712));
#1606=CARTESIAN_POINT('Ctrl Pts',(-50.150149114432,-116.999996691942,-0.9000000692904));
#1607=CARTESIAN_POINT('Ctrl Pts',(-50.1501689528727,-116.999996691942,-0.566666735957079));
#1608=CARTESIAN_POINT('Ctrl Pts',(-50.150188791089,-116.999996691942,-0.233333402623745));
#1609=CARTESIAN_POINT('Ctrl Pts',(-50.1502086290809,-116.999996691942,0.0999999307096027));
#1610=CARTESIAN_POINT('',(-53.4499173848335,-82.9999966919422,0.0999999307096002));
#1611=CARTESIAN_POINT('Ctrl Pts',(-50.1502086290813,-116.999996691939,0.0999999307096004));
#1612=CARTESIAN_POINT('Ctrl Pts',(-51.4802380855707,-106.361391597928,0.0999999307096004));
#1613=CARTESIAN_POINT('Ctrl Pts',(-52.5785228147899,-95.1062263920697,0.0999999307096004));
#1614=CARTESIAN_POINT('Ctrl Pts',(-53.4499173848275,-82.9999966919418,0.0999999307096004));
#1615=CARTESIAN_POINT('Ctrl Pts',(-53.4499173848275,-82.9999966919422,0.0999999307095958));
#1616=CARTESIAN_POINT('Ctrl Pts',(-53.4499116222973,-82.9999966919422,-0.233333402623737));
#1617=CARTESIAN_POINT('Ctrl Pts',(-53.4499058597205,-82.9999966919422,-0.566666735957069));
#1618=CARTESIAN_POINT('Ctrl Pts',(-53.4499000970971,-82.9999966919422,-0.9000000692904));
#1619=CARTESIAN_POINT('Ctrl Pts',(-53.4498885718502,-82.9999966919422,-1.56666673595707));
#1620=CARTESIAN_POINT('Ctrl Pts',(-53.4498770464168,-82.9999966919422,-2.23333340262374));
#1621=CARTESIAN_POINT('Ctrl Pts',(-53.4498655207968,-82.9999966919422,-2.9000000692904));
#1622=CARTESIAN_POINT('Origin',(0.,-116.999996691942,-0.9000000692904));
#1623=CARTESIAN_POINT('',(50.1502086290669,-116.999996691942,0.0999999307096021));
#1624=CARTESIAN_POINT('',(50.1500300810682,-116.999996691942,-2.9000000692904));
#1625=CARTESIAN_POINT('Ctrl Pts',(50.1502086290378,-116.999996691942,0.0999999307096034));
#1626=CARTESIAN_POINT('Ctrl Pts',(50.1501887910477,-116.999996691942,-0.233333402623744));
#1627=CARTESIAN_POINT('Ctrl Pts',(50.1501689528332,-116.999996691942,-0.566666735957079));
#1628=CARTESIAN_POINT('Ctrl Pts',(50.1501491143943,-116.999996691942,-0.9000000692904));
#1629=CARTESIAN_POINT('Ctrl Pts',(50.1501094375165,-116.999996691942,-1.56666673595712));
#1630=CARTESIAN_POINT('Ctrl Pts',(50.1500697597412,-116.999996691942,-2.23333340262378));
#1631=CARTESIAN_POINT('Ctrl Pts',(50.1500300810682,-116.999996691942,-2.9000000692904));
#1632=CARTESIAN_POINT('',(0.,-116.999996691942,0.0999999307096003));
#1633=CARTESIAN_POINT('',(0.,-116.999996691942,-2.9000000692904));
#1634=CARTESIAN_POINT('Origin',(0.,-82.9999966919422,0.0999999307096003));
#1635=CARTESIAN_POINT('',(53.449917384821,-82.9999966919422,0.0999999307096004));
#1636=CARTESIAN_POINT('Ctrl Pts',(53.449917384815,-82.9999966919418,0.0999999307096003));
#1637=CARTESIAN_POINT('Ctrl Pts',(52.5754746860283,-95.1485738520863,0.0999999307096003));
#1638=CARTESIAN_POINT('Ctrl Pts',(51.4758217666461,-106.39671673488,0.0999999307096003));
#1639=CARTESIAN_POINT('Ctrl Pts',(50.1502086290382,-116.999996691939,0.0999999307096003));
#1640=CARTESIAN_POINT('',(0.,-82.9999966919422,0.0999999307096));
#1641=CARTESIAN_POINT('Origin',(0.,-82.9999966919422,-2.9000000692904));
#1642=CARTESIAN_POINT('',(53.4498655207885,-82.9999966919422,-2.9000000692904));
#1643=CARTESIAN_POINT('Ctrl Pts',(53.4498655207885,-82.9999966919422,-2.9000000692904));
#1644=CARTESIAN_POINT('Ctrl Pts',(53.4498770464076,-82.9999966919422,-2.23333340262374));
#1645=CARTESIAN_POINT('Ctrl Pts',(53.4498885718401,-82.9999966919422,-1.56666673595707));
#1646=CARTESIAN_POINT('Ctrl Pts',(53.449900097086,-82.9999966919422,-0.9000000692904));
#1647=CARTESIAN_POINT('Ctrl Pts',(53.449905859709,-82.9999966919422,-0.566666735957067));
#1648=CARTESIAN_POINT('Ctrl Pts',(53.4499116222853,-82.9999966919422,-0.233333402623733));
#1649=CARTESIAN_POINT('Ctrl Pts',(53.449917384815,-82.9999966919422,0.0999999307096012));
#1650=CARTESIAN_POINT('',(0.,-82.9999966919422,-2.9000000692904));
#1651=CARTESIAN_POINT('Origin',(0.,-116.999996691942,-2.9000000692904));
#1652=CARTESIAN_POINT('Ctrl Pts',(50.1500300810682,-116.999996691942,-2.9000000692904));
#1653=CARTESIAN_POINT('Ctrl Pts',(51.5634704674762,-105.69470704204,-2.9000000692904));
#1654=CARTESIAN_POINT('Ctrl Pts',(52.6334879952215,-94.3415293270103,-2.9000000692904));
#1655=CARTESIAN_POINT('Ctrl Pts',(53.4498655207885,-82.9999966919422,-2.9000000692904));
#1656=CARTESIAN_POINT('Ctrl Pts',(53.4499173839595,-82.9999990017898,0.109567787032352));
#1657=CARTESIAN_POINT('Ctrl Pts',(52.5750586744955,-95.1543558436364,0.107031041199141));
#1658=CARTESIAN_POINT('Ctrl Pts',(51.4750961507914,-106.402743027881,0.10384158292604));
#1659=CARTESIAN_POINT('Ctrl Pts',(50.1500298128474,-117.001426987123,0.0999994122130501));
#1660=CARTESIAN_POINT('Ctrl Pts',(53.4499174819214,-82.9997344843782,-0.986116676407988));
#1661=CARTESIAN_POINT('Ctrl Pts',(52.5750587701893,-95.1540194743599,-0.96328572846347));
#1662=CARTESIAN_POINT('Ctrl Pts',(51.4750962436336,-106.402330905276,-0.934580307979066));
#1663=CARTESIAN_POINT('Ctrl Pts',(50.1500299022543,-117.000950222063,-0.900000414954778));
#1664=CARTESIAN_POINT('Ctrl Pts',(53.4499175798832,-82.9994699669665,-2.08180113984833));
#1665=CARTESIAN_POINT('Ctrl Pts',(52.575058865883,-95.1536831050834,-2.03360249812608));
#1666=CARTESIAN_POINT('Ctrl Pts',(51.4750963364757,-106.401918782671,-1.97300219888417));
#1667=CARTESIAN_POINT('Ctrl Pts',(50.1500299916613,-117.000473457003,-1.90000024212261));
#1668=CARTESIAN_POINT('Ctrl Pts',(53.449917677845,-82.9992054495549,-3.17748560328867));
#1669=CARTESIAN_POINT('Ctrl Pts',(52.5750589615768,-95.1533467358069,-3.10391926778869));
#1670=CARTESIAN_POINT('Ctrl Pts',(51.4750964293179,-106.401506660066,-3.01142408978928));
#1671=CARTESIAN_POINT('Ctrl Pts',(50.1500300810682,-116.999996691942,-2.90000006929043));
#1672=UNCERTAINTY_MEASURE_WITH_UNIT(LENGTH_MEASURE(0.01),#1676,
'DISTANCE_ACCURACY_VALUE',
'Maximum model space distance between geometric entities at asserted c
onnectivities');
#1673=UNCERTAINTY_MEASURE_WITH_UNIT(LENGTH_MEASURE(0.01),#1676,
'DISTANCE_ACCURACY_VALUE',
'Maximum model space distance between geometric entities at asserted c
onnectivities');
#1674=(
GEOMETRIC_REPRESENTATION_CONTEXT(3)
GLOBAL_UNCERTAINTY_ASSIGNED_CONTEXT((#1672))
GLOBAL_UNIT_ASSIGNED_CONTEXT((#1676,#1678,#1679))
REPRESENTATION_CONTEXT('','3D')
);
#1675=(
GEOMETRIC_REPRESENTATION_CONTEXT(3)
GLOBAL_UNCERTAINTY_ASSIGNED_CONTEXT((#1673))
GLOBAL_UNIT_ASSIGNED_CONTEXT((#1676,#1678,#1679))
REPRESENTATION_CONTEXT('','3D')
);
#1676=(
LENGTH_UNIT()
NAMED_UNIT(*)
SI_UNIT(.MILLI.,.METRE.)
);
#1677=(
LENGTH_UNIT()
NAMED_UNIT(*)
SI_UNIT($,.METRE.)
);
#1678=(
NAMED_UNIT(*)
PLANE_ANGLE_UNIT()
SI_UNIT($,.RADIAN.)
);
#1679=(
NAMED_UNIT(*)
SI_UNIT($,.STERADIAN.)
SOLID_ANGLE_UNIT()
);
#1680=SHAPE_DEFINITION_REPRESENTATION(#1681,#1682);
#1681=PRODUCT_DEFINITION_SHAPE('',$,#1684);
#1682=SHAPE_REPRESENTATION('',(#996),#1674);
#1683=PRODUCT_DEFINITION_CONTEXT('part definition',#1688,'design');
#1684=PRODUCT_DEFINITION('Servo Plate','Servo Plate',#1685,#1683);
#1685=PRODUCT_DEFINITION_FORMATION('',$,#1690);
#1686=PRODUCT_RELATED_PRODUCT_CATEGORY('Servo Plate','Servo Plate',(#1690));
#1687=APPLICATION_PROTOCOL_DEFINITION('international standard',
'automotive_design',2009,#1688);
#1688=APPLICATION_CONTEXT(
'Core Data for Automotive Mechanical Design Process');
#1689=PRODUCT_CONTEXT('part definition',#1688,'mechanical');
#1690=PRODUCT('Servo Plate','Servo Plate',$,(#1689));
#1691=PRESENTATION_STYLE_ASSIGNMENT((#1693));
#1692=PRESENTATION_STYLE_ASSIGNMENT((#1694));
#1693=SURFACE_STYLE_USAGE(.BOTH.,#1695);
#1694=SURFACE_STYLE_USAGE(.BOTH.,#1696);
#1695=SURFACE_SIDE_STYLE('',(#1697));
#1696=SURFACE_SIDE_STYLE('',(#1698));
#1697=SURFACE_STYLE_FILL_AREA(#1699);
#1698=SURFACE_STYLE_FILL_AREA(#1700);
#1699=FILL_AREA_STYLE('Steel - Satin',(#1701));
#1700=FILL_AREA_STYLE('Paint - Enamel Glossy Bleu',(#1702));
#1701=FILL_AREA_STYLE_COLOUR('Steel - Satin',#1703);
#1702=FILL_AREA_STYLE_COLOUR('Paint - Enamel Glossy Bleu',#1704);
#1703=COLOUR_RGB('Steel - Satin',0.627450980392157,0.627450980392157,0.627450980392157);
#1704=COLOUR_RGB('Paint - Enamel Glossy Bleu',0.,0.666666666666667,1.);
ENDSEC;
END-ISO-10303-21;
