ISO-10303-21;
HEADER;
/* Generated by software containing ST-Developer
 * from STEP Tools, Inc. (www.steptools.com) 
 */

FILE_DESCRIPTION(
/* description */ (''),
/* implementation_level */ '2;1');

FILE_NAME(
/* name */ 'Battery plate.step',
/* time_stamp */ '2025-08-21T21:43:17+02:00',
/* author */ (''),
/* organization */ (''),
/* preprocessor_version */ 'ST-DEVELOPER v20.1',
/* originating_system */ 'Autodesk Translation Framework v14.10.0.0',
/* authorisation */ '');

FILE_SCHEMA (('AUTOMOTIVE_DESIGN { 1 0 10303 214 3 1 1 }'));
ENDSEC;

DATA;
#10=MECHANICAL_DESIGN_GEOMETRIC_PRESENTATION_REPRESENTATION('',(#13),#1695);
#11=SHAPE_REPRESENTATION_RELATIONSHIP('SRR','None',#1702,#12);
#12=ADVANCED_BREP_SHAPE_REPRESENTATION('',(#14),#1694);
#13=STYLED_ITEM('',(#1712),#14);
#14=MANIFOLD_SOLID_BREP('Battery plate',#991);
#15=FACE_BOUND('',#166,.T.);
#16=FACE_BOUND('',#167,.T.);
#17=FACE_BOUND('',#168,.T.);
#18=FACE_BOUND('',#169,.T.);
#19=FACE_BOUND('',#170,.T.);
#20=FACE_BOUND('',#171,.T.);
#21=FACE_BOUND('',#172,.T.);
#22=FACE_BOUND('',#173,.T.);
#23=FACE_BOUND('',#176,.T.);
#24=FACE_BOUND('',#177,.T.);
#25=FACE_BOUND('',#178,.T.);
#26=FACE_BOUND('',#179,.T.);
#27=FACE_BOUND('',#180,.T.);
#28=FACE_BOUND('',#181,.T.);
#29=FACE_BOUND('',#182,.T.);
#30=FACE_BOUND('',#183,.T.);
#31=B_SPLINE_CURVE_WITH_KNOTS('',3,(#1554,#1555,#1556,#1557),
 .UNSPECIFIED.,.F.,.F.,(4,4),(0.,3.38903869922829),.UNSPECIFIED.);
#32=B_SPLINE_CURVE_WITH_KNOTS('',3,(#1558,#1559,#1560,#1561),
 .UNSPECIFIED.,.F.,.F.,(4,4),(0.203747004503749,0.292552590329079),
 .UNSPECIFIED.);
#33=B_SPLINE_CURVE_WITH_KNOTS('',3,(#1580,#1581,#1582,#1583),
 .UNSPECIFIED.,.F.,.F.,(4,4),(0.,2.38635101044645),.UNSPECIFIED.);
#34=B_SPLINE_CURVE_WITH_KNOTS('',3,(#1585,#1586,#1587,#1588),
 .UNSPECIFIED.,.F.,.F.,(4,4),(0.203747004503749,0.292552590329078),
 .UNSPECIFIED.);
#35=B_SPLINE_CURVE_WITH_KNOTS('',3,(#1590,#1591,#1592,#1593,#1594,#1595),
 .UNSPECIFIED.,.F.,.F.,(4,2,4),(0.0500642167532318,3.18965994767187,5.69449774939607),
 .UNSPECIFIED.);
#36=B_SPLINE_CURVE_WITH_KNOTS('',3,(#1597,#1598,#1599,#1600),
 .UNSPECIFIED.,.F.,.F.,(4,4),(0.0718827626750962,0.416920023515557),
 .UNSPECIFIED.);
#37=B_SPLINE_CURVE_WITH_KNOTS('',3,(#1602,#1603,#1604,#1605,#1606,#1607,
#1608,#1609,#1610,#1611),.UNSPECIFIED.,.F.,.F.,(4,2,2,2,4),(0.0503152256943459,
2.81303420569012,5.42345314119481,8.69118776923622,11.4719731689248),
 .UNSPECIFIED.);
#38=B_SPLINE_CURVE_WITH_KNOTS('',3,(#1612,#1613,#1614,#1615),
 .UNSPECIFIED.,.F.,.F.,(4,4),(0.0525995062274349,0.39559052248309),
 .UNSPECIFIED.);
#39=B_SPLINE_CURVE_WITH_KNOTS('',3,(#1633,#1634,#1635,#1636),
 .UNSPECIFIED.,.F.,.F.,(4,4),(0.0503184991323115,2.43675097340247),
 .UNSPECIFIED.);
#40=B_SPLINE_CURVE_WITH_KNOTS('',3,(#1638,#1639,#1640,#1641),
 .UNSPECIFIED.,.F.,.F.,(4,4),(0.0714564617199282,0.414447477975579),
 .UNSPECIFIED.);
#41=B_SPLINE_CURVE_WITH_KNOTS('',3,(#1643,#1644,#1645,#1646,#1647,#1648,
#1649,#1650,#1651,#1652),.UNSPECIFIED.,.F.,.F.,(4,2,2,2,4),(0.0500643897322752,
4.2413941948878,7.13054981348973,9.39233594656496,11.4708905513191),
 .UNSPECIFIED.);
#42=B_SPLINE_CURVE_WITH_KNOTS('',3,(#1654,#1655,#1656,#1657),
 .UNSPECIFIED.,.F.,.F.,(4,4),(0.0718827626750957,0.416920023515558),
 .UNSPECIFIED.);
#43=B_SPLINE_CURVE_WITH_KNOTS('',3,(#1658,#1659,#1660,#1661,#1662,#1663),
 .UNSPECIFIED.,.F.,.F.,(4,2,4),(0.,2.63337961628796,5.6444887222768),
 .UNSPECIFIED.);
#44=B_SPLINE_CURVE_WITH_KNOTS('',3,(#1680,#1681,#1682,#1683),
 .UNSPECIFIED.,.F.,.F.,(4,4),(0.,3.3890387044871),.UNSPECIFIED.);
#45=B_SPLINE_SURFACE_WITH_KNOTS('',3,3,((#1536,#1537,#1538,#1539),(#1540,
#1541,#1542,#1543),(#1544,#1545,#1546,#1547),(#1548,#1549,#1550,#1551)),
 .UNSPECIFIED.,.F.,.F.,.F.,(4,4),(4,4),(0.997013737718658,1.),(0.203747004503749,
0.292552590329079),.UNSPECIFIED.);
#46=B_SPLINE_SURFACE_WITH_KNOTS('',3,3,((#1562,#1563,#1564,#1565),(#1566,
#1567,#1568,#1569),(#1570,#1571,#1572,#1573),(#1574,#1575,#1576,#1577)),
 .UNSPECIFIED.,.F.,.F.,.F.,(4,4),(4,4),(0.,0.512908491800591),(0.141464736491495,
0.440805282937735),.UNSPECIFIED.);
#47=B_SPLINE_SURFACE_WITH_KNOTS('',3,3,((#1616,#1617,#1618,#1619),(#1620,
#1621,#1622,#1623),(#1624,#1625,#1626,#1627),(#1628,#1629,#1630,#1631)),
 .UNSPECIFIED.,.F.,.F.,.F.,(4,4),(4,4),(0.,0.51290849180059),(0.141464736491495,
0.440805282937735),.UNSPECIFIED.);
#48=B_SPLINE_SURFACE_WITH_KNOTS('',3,3,((#1664,#1665,#1666,#1667),(#1668,
#1669,#1670,#1671),(#1672,#1673,#1674,#1675),(#1676,#1677,#1678,#1679)),
 .UNSPECIFIED.,.F.,.F.,.F.,(4,4),(4,4),(0.997013737718658,1.),(0.203747004503749,
0.292552590329079),.UNSPECIFIED.);
#49=CIRCLE('',#1011,5.);
#50=CIRCLE('',#1012,5.);
#51=CIRCLE('',#1015,5.00000000000001);
#52=CIRCLE('',#1016,5.00000000000001);
#53=CIRCLE('',#1019,5.);
#54=CIRCLE('',#1020,5.);
#55=CIRCLE('',#1023,5.00000000000002);
#56=CIRCLE('',#1024,5.00000000000002);
#57=CIRCLE('',#1034,5.00000000000001);
#58=CIRCLE('',#1035,5.00000000000001);
#59=CIRCLE('',#1038,5.);
#60=CIRCLE('',#1039,5.);
#61=CIRCLE('',#1042,5.00000000000002);
#62=CIRCLE('',#1043,5.00000000000002);
#63=CIRCLE('',#1046,5.00000000000007);
#64=CIRCLE('',#1047,5.00000000000007);
#65=CYLINDRICAL_SURFACE('',#1010,5.);
#66=CYLINDRICAL_SURFACE('',#1014,5.00000000000001);
#67=CYLINDRICAL_SURFACE('',#1018,5.);
#68=CYLINDRICAL_SURFACE('',#1022,5.00000000000002);
#69=CYLINDRICAL_SURFACE('',#1033,5.00000000000001);
#70=CYLINDRICAL_SURFACE('',#1037,5.);
#71=CYLINDRICAL_SURFACE('',#1041,5.00000000000002);
#72=CYLINDRICAL_SURFACE('',#1045,5.00000000000007);
#73=FACE_OUTER_BOUND('',#121,.T.);
#74=FACE_OUTER_BOUND('',#122,.T.);
#75=FACE_OUTER_BOUND('',#123,.T.);
#76=FACE_OUTER_BOUND('',#124,.T.);
#77=FACE_OUTER_BOUND('',#125,.T.);
#78=FACE_OUTER_BOUND('',#126,.T.);
#79=FACE_OUTER_BOUND('',#127,.T.);
#80=FACE_OUTER_BOUND('',#128,.T.);
#81=FACE_OUTER_BOUND('',#129,.T.);
#82=FACE_OUTER_BOUND('',#130,.T.);
#83=FACE_OUTER_BOUND('',#131,.T.);
#84=FACE_OUTER_BOUND('',#132,.T.);
#85=FACE_OUTER_BOUND('',#133,.T.);
#86=FACE_OUTER_BOUND('',#134,.T.);
#87=FACE_OUTER_BOUND('',#135,.T.);
#88=FACE_OUTER_BOUND('',#136,.T.);
#89=FACE_OUTER_BOUND('',#137,.T.);
#90=FACE_OUTER_BOUND('',#138,.T.);
#91=FACE_OUTER_BOUND('',#139,.T.);
#92=FACE_OUTER_BOUND('',#140,.T.);
#93=FACE_OUTER_BOUND('',#141,.T.);
#94=FACE_OUTER_BOUND('',#142,.T.);
#95=FACE_OUTER_BOUND('',#143,.T.);
#96=FACE_OUTER_BOUND('',#144,.T.);
#97=FACE_OUTER_BOUND('',#145,.T.);
#98=FACE_OUTER_BOUND('',#146,.T.);
#99=FACE_OUTER_BOUND('',#147,.T.);
#100=FACE_OUTER_BOUND('',#148,.T.);
#101=FACE_OUTER_BOUND('',#149,.T.);
#102=FACE_OUTER_BOUND('',#150,.T.);
#103=FACE_OUTER_BOUND('',#151,.T.);
#104=FACE_OUTER_BOUND('',#152,.T.);
#105=FACE_OUTER_BOUND('',#153,.T.);
#106=FACE_OUTER_BOUND('',#154,.T.);
#107=FACE_OUTER_BOUND('',#155,.T.);
#108=FACE_OUTER_BOUND('',#156,.T.);
#109=FACE_OUTER_BOUND('',#157,.T.);
#110=FACE_OUTER_BOUND('',#158,.T.);
#111=FACE_OUTER_BOUND('',#159,.T.);
#112=FACE_OUTER_BOUND('',#160,.T.);
#113=FACE_OUTER_BOUND('',#161,.T.);
#114=FACE_OUTER_BOUND('',#162,.T.);
#115=FACE_OUTER_BOUND('',#163,.T.);
#116=FACE_OUTER_BOUND('',#164,.T.);
#117=FACE_OUTER_BOUND('',#165,.T.);
#118=FACE_OUTER_BOUND('',#174,.T.);
#119=FACE_OUTER_BOUND('',#175,.T.);
#120=FACE_OUTER_BOUND('',#184,.T.);
#121=EDGE_LOOP('',(#631,#632,#633,#634));
#122=EDGE_LOOP('',(#635,#636,#637,#638));
#123=EDGE_LOOP('',(#639,#640,#641,#642));
#124=EDGE_LOOP('',(#643,#644,#645,#646));
#125=EDGE_LOOP('',(#647,#648,#649,#650));
#126=EDGE_LOOP('',(#651,#652,#653,#654));
#127=EDGE_LOOP('',(#655,#656,#657,#658));
#128=EDGE_LOOP('',(#659,#660,#661,#662));
#129=EDGE_LOOP('',(#663,#664,#665,#666));
#130=EDGE_LOOP('',(#667,#668,#669,#670));
#131=EDGE_LOOP('',(#671,#672,#673,#674));
#132=EDGE_LOOP('',(#675,#676,#677,#678));
#133=EDGE_LOOP('',(#679,#680,#681,#682));
#134=EDGE_LOOP('',(#683,#684,#685,#686));
#135=EDGE_LOOP('',(#687,#688,#689,#690));
#136=EDGE_LOOP('',(#691,#692,#693,#694));
#137=EDGE_LOOP('',(#695,#696,#697,#698));
#138=EDGE_LOOP('',(#699,#700,#701,#702));
#139=EDGE_LOOP('',(#703,#704,#705,#706));
#140=EDGE_LOOP('',(#707,#708,#709,#710));
#141=EDGE_LOOP('',(#711,#712,#713,#714));
#142=EDGE_LOOP('',(#715,#716,#717,#718));
#143=EDGE_LOOP('',(#719,#720,#721,#722));
#144=EDGE_LOOP('',(#723,#724,#725,#726));
#145=EDGE_LOOP('',(#727,#728,#729,#730));
#146=EDGE_LOOP('',(#731,#732,#733,#734));
#147=EDGE_LOOP('',(#735,#736,#737,#738));
#148=EDGE_LOOP('',(#739,#740,#741,#742));
#149=EDGE_LOOP('',(#743,#744,#745,#746));
#150=EDGE_LOOP('',(#747,#748,#749,#750));
#151=EDGE_LOOP('',(#751,#752,#753,#754));
#152=EDGE_LOOP('',(#755,#756,#757,#758));
#153=EDGE_LOOP('',(#759,#760,#761,#762));
#154=EDGE_LOOP('',(#763,#764,#765,#766));
#155=EDGE_LOOP('',(#767,#768,#769,#770));
#156=EDGE_LOOP('',(#771,#772,#773,#774));
#157=EDGE_LOOP('',(#775,#776,#777,#778));
#158=EDGE_LOOP('',(#779,#780,#781,#782));
#159=EDGE_LOOP('',(#783,#784,#785,#786));
#160=EDGE_LOOP('',(#787,#788,#789,#790));
#161=EDGE_LOOP('',(#791,#792));
#162=EDGE_LOOP('',(#793,#794,#795,#796,#797,#798));
#163=EDGE_LOOP('',(#799,#800,#801,#802,#803,#804));
#164=EDGE_LOOP('',(#805,#806));
#165=EDGE_LOOP('',(#807,#808,#809,#810,#811,#812,#813,#814));
#166=EDGE_LOOP('',(#815,#816,#817,#818));
#167=EDGE_LOOP('',(#819,#820,#821,#822,#823,#824,#825,#826));
#168=EDGE_LOOP('',(#827,#828,#829,#830));
#169=EDGE_LOOP('',(#831,#832,#833,#834));
#170=EDGE_LOOP('',(#835,#836,#837,#838,#839,#840,#841,#842));
#171=EDGE_LOOP('',(#843,#844,#845,#846));
#172=EDGE_LOOP('',(#847,#848,#849,#850));
#173=EDGE_LOOP('',(#851,#852,#853,#854));
#174=EDGE_LOOP('',(#855,#856,#857,#858));
#175=EDGE_LOOP('',(#859,#860,#861,#862));
#176=EDGE_LOOP('',(#863,#864,#865,#866));
#177=EDGE_LOOP('',(#867,#868,#869,#870,#871,#872,#873,#874));
#178=EDGE_LOOP('',(#875,#876,#877,#878));
#179=EDGE_LOOP('',(#879,#880,#881,#882));
#180=EDGE_LOOP('',(#883,#884,#885,#886,#887,#888,#889,#890));
#181=EDGE_LOOP('',(#891,#892,#893,#894));
#182=EDGE_LOOP('',(#895,#896,#897,#898));
#183=EDGE_LOOP('',(#899,#900,#901,#902));
#184=EDGE_LOOP('',(#903,#904,#905,#906));
#185=LINE('',#1299,#293);
#186=LINE('',#1301,#294);
#187=LINE('',#1303,#295);
#188=LINE('',#1304,#296);
#189=LINE('',#1307,#297);
#190=LINE('',#1309,#298);
#191=LINE('',#1310,#299);
#192=LINE('',#1313,#300);
#193=LINE('',#1315,#301);
#194=LINE('',#1316,#302);
#195=LINE('',#1318,#303);
#196=LINE('',#1319,#304);
#197=LINE('',#1323,#305);
#198=LINE('',#1325,#306);
#199=LINE('',#1327,#307);
#200=LINE('',#1328,#308);
#201=LINE('',#1334,#309);
#202=LINE('',#1337,#310);
#203=LINE('',#1339,#311);
#204=LINE('',#1340,#312);
#205=LINE('',#1346,#313);
#206=LINE('',#1349,#314);
#207=LINE('',#1351,#315);
#208=LINE('',#1352,#316);
#209=LINE('',#1358,#317);
#210=LINE('',#1361,#318);
#211=LINE('',#1363,#319);
#212=LINE('',#1364,#320);
#213=LINE('',#1371,#321);
#214=LINE('',#1373,#322);
#215=LINE('',#1375,#323);
#216=LINE('',#1376,#324);
#217=LINE('',#1379,#325);
#218=LINE('',#1381,#326);
#219=LINE('',#1382,#327);
#220=LINE('',#1385,#328);
#221=LINE('',#1387,#329);
#222=LINE('',#1388,#330);
#223=LINE('',#1390,#331);
#224=LINE('',#1391,#332);
#225=LINE('',#1395,#333);
#226=LINE('',#1397,#334);
#227=LINE('',#1399,#335);
#228=LINE('',#1400,#336);
#229=LINE('',#1403,#337);
#230=LINE('',#1405,#338);
#231=LINE('',#1406,#339);
#232=LINE('',#1409,#340);
#233=LINE('',#1411,#341);
#234=LINE('',#1412,#342);
#235=LINE('',#1414,#343);
#236=LINE('',#1415,#344);
#237=LINE('',#1421,#345);
#238=LINE('',#1424,#346);
#239=LINE('',#1427,#347);
#240=LINE('',#1429,#348);
#241=LINE('',#1430,#349);
#242=LINE('',#1436,#350);
#243=LINE('',#1439,#351);
#244=LINE('',#1441,#352);
#245=LINE('',#1442,#353);
#246=LINE('',#1448,#354);
#247=LINE('',#1451,#355);
#248=LINE('',#1453,#356);
#249=LINE('',#1454,#357);
#250=LINE('',#1460,#358);
#251=LINE('',#1462,#359);
#252=LINE('',#1463,#360);
#253=LINE('',#1467,#361);
#254=LINE('',#1469,#362);
#255=LINE('',#1471,#363);
#256=LINE('',#1472,#364);
#257=LINE('',#1475,#365);
#258=LINE('',#1477,#366);
#259=LINE('',#1478,#367);
#260=LINE('',#1481,#368);
#261=LINE('',#1483,#369);
#262=LINE('',#1484,#370);
#263=LINE('',#1486,#371);
#264=LINE('',#1487,#372);
#265=LINE('',#1491,#373);
#266=LINE('',#1493,#374);
#267=LINE('',#1495,#375);
#268=LINE('',#1496,#376);
#269=LINE('',#1499,#377);
#270=LINE('',#1501,#378);
#271=LINE('',#1502,#379);
#272=LINE('',#1505,#380);
#273=LINE('',#1507,#381);
#274=LINE('',#1508,#382);
#275=LINE('',#1510,#383);
#276=LINE('',#1511,#384);
#277=LINE('',#1515,#385);
#278=LINE('',#1517,#386);
#279=LINE('',#1519,#387);
#280=LINE('',#1520,#388);
#281=LINE('',#1523,#389);
#282=LINE('',#1525,#390);
#283=LINE('',#1526,#391);
#284=LINE('',#1529,#392);
#285=LINE('',#1531,#393);
#286=LINE('',#1532,#394);
#287=LINE('',#1534,#395);
#288=LINE('',#1535,#396);
#289=LINE('',#1685,#397);
#290=LINE('',#1686,#398);
#291=LINE('',#1688,#399);
#292=LINE('',#1690,#400);
#293=VECTOR('',#1069,10.);
#294=VECTOR('',#1070,10.);
#295=VECTOR('',#1071,10.);
#296=VECTOR('',#1072,10.);
#297=VECTOR('',#1075,10.);
#298=VECTOR('',#1076,10.);
#299=VECTOR('',#1077,10.);
#300=VECTOR('',#1080,10.);
#301=VECTOR('',#1081,10.);
#302=VECTOR('',#1082,10.);
#303=VECTOR('',#1085,10.);
#304=VECTOR('',#1086,10.);
#305=VECTOR('',#1089,10.);
#306=VECTOR('',#1090,10.);
#307=VECTOR('',#1091,10.);
#308=VECTOR('',#1092,10.);
#309=VECTOR('',#1099,10.);
#310=VECTOR('',#1102,10.);
#311=VECTOR('',#1103,10.);
#312=VECTOR('',#1104,10.);
#313=VECTOR('',#1111,10.);
#314=VECTOR('',#1114,10.);
#315=VECTOR('',#1115,10.);
#316=VECTOR('',#1116,10.);
#317=VECTOR('',#1123,10.);
#318=VECTOR('',#1126,10.);
#319=VECTOR('',#1127,10.);
#320=VECTOR('',#1128,10.);
#321=VECTOR('',#1137,10.);
#322=VECTOR('',#1138,10.);
#323=VECTOR('',#1139,10.);
#324=VECTOR('',#1140,10.);
#325=VECTOR('',#1143,10.);
#326=VECTOR('',#1144,10.);
#327=VECTOR('',#1145,10.);
#328=VECTOR('',#1148,10.);
#329=VECTOR('',#1149,10.);
#330=VECTOR('',#1150,10.);
#331=VECTOR('',#1153,10.);
#332=VECTOR('',#1154,10.);
#333=VECTOR('',#1157,10.);
#334=VECTOR('',#1158,10.);
#335=VECTOR('',#1159,10.);
#336=VECTOR('',#1160,10.);
#337=VECTOR('',#1163,10.);
#338=VECTOR('',#1164,10.);
#339=VECTOR('',#1165,10.);
#340=VECTOR('',#1168,10.);
#341=VECTOR('',#1169,10.);
#342=VECTOR('',#1170,10.);
#343=VECTOR('',#1173,10.);
#344=VECTOR('',#1174,10.);
#345=VECTOR('',#1179,10.);
#346=VECTOR('',#1182,10.);
#347=VECTOR('',#1185,10.);
#348=VECTOR('',#1186,10.);
#349=VECTOR('',#1187,10.);
#350=VECTOR('',#1194,10.);
#351=VECTOR('',#1197,10.);
#352=VECTOR('',#1198,10.);
#353=VECTOR('',#1199,10.);
#354=VECTOR('',#1206,10.);
#355=VECTOR('',#1209,10.);
#356=VECTOR('',#1210,10.);
#357=VECTOR('',#1211,10.);
#358=VECTOR('',#1218,10.);
#359=VECTOR('',#1221,10.);
#360=VECTOR('',#1222,10.);
#361=VECTOR('',#1225,10.);
#362=VECTOR('',#1226,10.);
#363=VECTOR('',#1227,10.);
#364=VECTOR('',#1228,10.);
#365=VECTOR('',#1231,10.);
#366=VECTOR('',#1232,10.);
#367=VECTOR('',#1233,10.);
#368=VECTOR('',#1236,10.);
#369=VECTOR('',#1237,10.);
#370=VECTOR('',#1238,10.);
#371=VECTOR('',#1241,10.);
#372=VECTOR('',#1242,10.);
#373=VECTOR('',#1245,10.);
#374=VECTOR('',#1246,10.);
#375=VECTOR('',#1247,10.);
#376=VECTOR('',#1248,10.);
#377=VECTOR('',#1251,10.);
#378=VECTOR('',#1252,10.);
#379=VECTOR('',#1253,10.);
#380=VECTOR('',#1256,10.);
#381=VECTOR('',#1257,10.);
#382=VECTOR('',#1258,10.);
#383=VECTOR('',#1261,10.);
#384=VECTOR('',#1262,10.);
#385=VECTOR('',#1265,10.);
#386=VECTOR('',#1266,10.);
#387=VECTOR('',#1267,10.);
#388=VECTOR('',#1268,10.);
#389=VECTOR('',#1271,10.);
#390=VECTOR('',#1272,10.);
#391=VECTOR('',#1273,10.);
#392=VECTOR('',#1276,10.);
#393=VECTOR('',#1277,10.);
#394=VECTOR('',#1278,10.);
#395=VECTOR('',#1281,10.);
#396=VECTOR('',#1282,10.);
#397=VECTOR('',#1285,10.);
#398=VECTOR('',#1286,10.);
#399=VECTOR('',#1289,10.);
#400=VECTOR('',#1292,10.);
#401=VERTEX_POINT('',#1297);
#402=VERTEX_POINT('',#1298);
#403=VERTEX_POINT('',#1300);
#404=VERTEX_POINT('',#1302);
#405=VERTEX_POINT('',#1306);
#406=VERTEX_POINT('',#1308);
#407=VERTEX_POINT('',#1312);
#408=VERTEX_POINT('',#1314);
#409=VERTEX_POINT('',#1321);
#410=VERTEX_POINT('',#1322);
#411=VERTEX_POINT('',#1324);
#412=VERTEX_POINT('',#1326);
#413=VERTEX_POINT('',#1330);
#414=VERTEX_POINT('',#1332);
#415=VERTEX_POINT('',#1336);
#416=VERTEX_POINT('',#1338);
#417=VERTEX_POINT('',#1342);
#418=VERTEX_POINT('',#1344);
#419=VERTEX_POINT('',#1348);
#420=VERTEX_POINT('',#1350);
#421=VERTEX_POINT('',#1354);
#422=VERTEX_POINT('',#1356);
#423=VERTEX_POINT('',#1360);
#424=VERTEX_POINT('',#1362);
#425=VERTEX_POINT('',#1369);
#426=VERTEX_POINT('',#1370);
#427=VERTEX_POINT('',#1372);
#428=VERTEX_POINT('',#1374);
#429=VERTEX_POINT('',#1378);
#430=VERTEX_POINT('',#1380);
#431=VERTEX_POINT('',#1384);
#432=VERTEX_POINT('',#1386);
#433=VERTEX_POINT('',#1393);
#434=VERTEX_POINT('',#1394);
#435=VERTEX_POINT('',#1396);
#436=VERTEX_POINT('',#1398);
#437=VERTEX_POINT('',#1402);
#438=VERTEX_POINT('',#1404);
#439=VERTEX_POINT('',#1408);
#440=VERTEX_POINT('',#1410);
#441=VERTEX_POINT('',#1417);
#442=VERTEX_POINT('',#1418);
#443=VERTEX_POINT('',#1420);
#444=VERTEX_POINT('',#1422);
#445=VERTEX_POINT('',#1426);
#446=VERTEX_POINT('',#1428);
#447=VERTEX_POINT('',#1432);
#448=VERTEX_POINT('',#1434);
#449=VERTEX_POINT('',#1438);
#450=VERTEX_POINT('',#1440);
#451=VERTEX_POINT('',#1444);
#452=VERTEX_POINT('',#1446);
#453=VERTEX_POINT('',#1450);
#454=VERTEX_POINT('',#1452);
#455=VERTEX_POINT('',#1456);
#456=VERTEX_POINT('',#1458);
#457=VERTEX_POINT('',#1465);
#458=VERTEX_POINT('',#1466);
#459=VERTEX_POINT('',#1468);
#460=VERTEX_POINT('',#1470);
#461=VERTEX_POINT('',#1474);
#462=VERTEX_POINT('',#1476);
#463=VERTEX_POINT('',#1480);
#464=VERTEX_POINT('',#1482);
#465=VERTEX_POINT('',#1489);
#466=VERTEX_POINT('',#1490);
#467=VERTEX_POINT('',#1492);
#468=VERTEX_POINT('',#1494);
#469=VERTEX_POINT('',#1498);
#470=VERTEX_POINT('',#1500);
#471=VERTEX_POINT('',#1504);
#472=VERTEX_POINT('',#1506);
#473=VERTEX_POINT('',#1513);
#474=VERTEX_POINT('',#1514);
#475=VERTEX_POINT('',#1516);
#476=VERTEX_POINT('',#1518);
#477=VERTEX_POINT('',#1522);
#478=VERTEX_POINT('',#1524);
#479=VERTEX_POINT('',#1528);
#480=VERTEX_POINT('',#1530);
#481=VERTEX_POINT('',#1552);
#482=VERTEX_POINT('',#1553);
#483=VERTEX_POINT('',#1578);
#484=VERTEX_POINT('',#1579);
#485=VERTEX_POINT('',#1584);
#486=VERTEX_POINT('',#1589);
#487=VERTEX_POINT('',#1596);
#488=VERTEX_POINT('',#1601);
#489=VERTEX_POINT('',#1632);
#490=VERTEX_POINT('',#1637);
#491=VERTEX_POINT('',#1642);
#492=VERTEX_POINT('',#1653);
#493=EDGE_CURVE('',#401,#402,#185,.T.);
#494=EDGE_CURVE('',#403,#401,#186,.T.);
#495=EDGE_CURVE('',#404,#403,#187,.T.);
#496=EDGE_CURVE('',#404,#402,#188,.T.);
#497=EDGE_CURVE('',#402,#405,#189,.T.);
#498=EDGE_CURVE('',#406,#404,#190,.T.);
#499=EDGE_CURVE('',#406,#405,#191,.T.);
#500=EDGE_CURVE('',#405,#407,#192,.T.);
#501=EDGE_CURVE('',#408,#406,#193,.T.);
#502=EDGE_CURVE('',#408,#407,#194,.T.);
#503=EDGE_CURVE('',#407,#401,#195,.T.);
#504=EDGE_CURVE('',#403,#408,#196,.T.);
#505=EDGE_CURVE('',#409,#410,#197,.T.);
#506=EDGE_CURVE('',#411,#409,#198,.T.);
#507=EDGE_CURVE('',#412,#411,#199,.T.);
#508=EDGE_CURVE('',#412,#410,#200,.T.);
#509=EDGE_CURVE('',#410,#413,#49,.T.);
#510=EDGE_CURVE('',#414,#412,#50,.T.);
#511=EDGE_CURVE('',#414,#413,#201,.T.);
#512=EDGE_CURVE('',#413,#415,#202,.T.);
#513=EDGE_CURVE('',#416,#414,#203,.T.);
#514=EDGE_CURVE('',#416,#415,#204,.T.);
#515=EDGE_CURVE('',#415,#417,#51,.T.);
#516=EDGE_CURVE('',#418,#416,#52,.T.);
#517=EDGE_CURVE('',#418,#417,#205,.T.);
#518=EDGE_CURVE('',#417,#419,#206,.T.);
#519=EDGE_CURVE('',#420,#418,#207,.T.);
#520=EDGE_CURVE('',#420,#419,#208,.T.);
#521=EDGE_CURVE('',#419,#421,#53,.T.);
#522=EDGE_CURVE('',#422,#420,#54,.T.);
#523=EDGE_CURVE('',#422,#421,#209,.T.);
#524=EDGE_CURVE('',#421,#423,#210,.T.);
#525=EDGE_CURVE('',#424,#422,#211,.T.);
#526=EDGE_CURVE('',#424,#423,#212,.T.);
#527=EDGE_CURVE('',#423,#409,#55,.T.);
#528=EDGE_CURVE('',#411,#424,#56,.T.);
#529=EDGE_CURVE('',#425,#426,#213,.T.);
#530=EDGE_CURVE('',#427,#425,#214,.T.);
#531=EDGE_CURVE('',#428,#427,#215,.T.);
#532=EDGE_CURVE('',#428,#426,#216,.T.);
#533=EDGE_CURVE('',#426,#429,#217,.T.);
#534=EDGE_CURVE('',#430,#428,#218,.T.);
#535=EDGE_CURVE('',#430,#429,#219,.T.);
#536=EDGE_CURVE('',#429,#431,#220,.T.);
#537=EDGE_CURVE('',#432,#430,#221,.T.);
#538=EDGE_CURVE('',#432,#431,#222,.T.);
#539=EDGE_CURVE('',#431,#425,#223,.T.);
#540=EDGE_CURVE('',#427,#432,#224,.T.);
#541=EDGE_CURVE('',#433,#434,#225,.T.);
#542=EDGE_CURVE('',#435,#433,#226,.T.);
#543=EDGE_CURVE('',#436,#435,#227,.T.);
#544=EDGE_CURVE('',#436,#434,#228,.T.);
#545=EDGE_CURVE('',#434,#437,#229,.T.);
#546=EDGE_CURVE('',#438,#436,#230,.T.);
#547=EDGE_CURVE('',#438,#437,#231,.T.);
#548=EDGE_CURVE('',#437,#439,#232,.T.);
#549=EDGE_CURVE('',#440,#438,#233,.T.);
#550=EDGE_CURVE('',#440,#439,#234,.T.);
#551=EDGE_CURVE('',#439,#433,#235,.T.);
#552=EDGE_CURVE('',#435,#440,#236,.T.);
#553=EDGE_CURVE('',#441,#442,#57,.T.);
#554=EDGE_CURVE('',#443,#441,#237,.T.);
#555=EDGE_CURVE('',#444,#443,#58,.T.);
#556=EDGE_CURVE('',#444,#442,#238,.T.);
#557=EDGE_CURVE('',#442,#445,#239,.T.);
#558=EDGE_CURVE('',#446,#444,#240,.T.);
#559=EDGE_CURVE('',#446,#445,#241,.T.);
#560=EDGE_CURVE('',#445,#447,#59,.T.);
#561=EDGE_CURVE('',#448,#446,#60,.T.);
#562=EDGE_CURVE('',#448,#447,#242,.T.);
#563=EDGE_CURVE('',#447,#449,#243,.T.);
#564=EDGE_CURVE('',#450,#448,#244,.T.);
#565=EDGE_CURVE('',#450,#449,#245,.T.);
#566=EDGE_CURVE('',#449,#451,#61,.T.);
#567=EDGE_CURVE('',#452,#450,#62,.T.);
#568=EDGE_CURVE('',#452,#451,#246,.T.);
#569=EDGE_CURVE('',#451,#453,#247,.T.);
#570=EDGE_CURVE('',#454,#452,#248,.T.);
#571=EDGE_CURVE('',#454,#453,#249,.T.);
#572=EDGE_CURVE('',#453,#455,#63,.T.);
#573=EDGE_CURVE('',#456,#454,#64,.T.);
#574=EDGE_CURVE('',#456,#455,#250,.T.);
#575=EDGE_CURVE('',#455,#441,#251,.T.);
#576=EDGE_CURVE('',#443,#456,#252,.T.);
#577=EDGE_CURVE('',#457,#458,#253,.T.);
#578=EDGE_CURVE('',#459,#457,#254,.T.);
#579=EDGE_CURVE('',#460,#459,#255,.T.);
#580=EDGE_CURVE('',#460,#458,#256,.T.);
#581=EDGE_CURVE('',#458,#461,#257,.T.);
#582=EDGE_CURVE('',#462,#460,#258,.T.);
#583=EDGE_CURVE('',#462,#461,#259,.T.);
#584=EDGE_CURVE('',#461,#463,#260,.T.);
#585=EDGE_CURVE('',#464,#462,#261,.T.);
#586=EDGE_CURVE('',#464,#463,#262,.T.);
#587=EDGE_CURVE('',#463,#457,#263,.T.);
#588=EDGE_CURVE('',#459,#464,#264,.T.);
#589=EDGE_CURVE('',#465,#466,#265,.T.);
#590=EDGE_CURVE('',#467,#465,#266,.T.);
#591=EDGE_CURVE('',#468,#467,#267,.T.);
#592=EDGE_CURVE('',#468,#466,#268,.T.);
#593=EDGE_CURVE('',#466,#469,#269,.T.);
#594=EDGE_CURVE('',#470,#468,#270,.T.);
#595=EDGE_CURVE('',#470,#469,#271,.T.);
#596=EDGE_CURVE('',#469,#471,#272,.T.);
#597=EDGE_CURVE('',#472,#470,#273,.T.);
#598=EDGE_CURVE('',#472,#471,#274,.T.);
#599=EDGE_CURVE('',#471,#465,#275,.T.);
#600=EDGE_CURVE('',#467,#472,#276,.T.);
#601=EDGE_CURVE('',#473,#474,#277,.T.);
#602=EDGE_CURVE('',#475,#473,#278,.T.);
#603=EDGE_CURVE('',#476,#475,#279,.T.);
#604=EDGE_CURVE('',#476,#474,#280,.T.);
#605=EDGE_CURVE('',#474,#477,#281,.T.);
#606=EDGE_CURVE('',#478,#476,#282,.T.);
#607=EDGE_CURVE('',#478,#477,#283,.T.);
#608=EDGE_CURVE('',#477,#479,#284,.T.);
#609=EDGE_CURVE('',#480,#478,#285,.T.);
#610=EDGE_CURVE('',#480,#479,#286,.T.);
#611=EDGE_CURVE('',#479,#473,#287,.T.);
#612=EDGE_CURVE('',#475,#480,#288,.T.);
#613=EDGE_CURVE('',#481,#482,#31,.T.);
#614=EDGE_CURVE('',#481,#482,#32,.T.);
#615=EDGE_CURVE('',#483,#484,#33,.T.);
#616=EDGE_CURVE('',#483,#485,#34,.T.);
#617=EDGE_CURVE('',#486,#485,#35,.T.);
#618=EDGE_CURVE('',#487,#486,#36,.T.);
#619=EDGE_CURVE('',#488,#487,#37,.T.);
#620=EDGE_CURVE('',#484,#488,#38,.T.);
#621=EDGE_CURVE('',#489,#481,#39,.T.);
#622=EDGE_CURVE('',#490,#489,#40,.T.);
#623=EDGE_CURVE('',#491,#490,#41,.T.);
#624=EDGE_CURVE('',#492,#491,#42,.T.);
#625=EDGE_CURVE('',#482,#492,#43,.T.);
#626=EDGE_CURVE('',#485,#483,#44,.T.);
#627=EDGE_CURVE('',#486,#492,#289,.T.);
#628=EDGE_CURVE('',#484,#489,#290,.T.);
#629=EDGE_CURVE('',#490,#488,#291,.T.);
#630=EDGE_CURVE('',#487,#491,#292,.T.);
#631=ORIENTED_EDGE('',*,*,#493,.F.);
#632=ORIENTED_EDGE('',*,*,#494,.F.);
#633=ORIENTED_EDGE('',*,*,#495,.F.);
#634=ORIENTED_EDGE('',*,*,#496,.T.);
#635=ORIENTED_EDGE('',*,*,#497,.F.);
#636=ORIENTED_EDGE('',*,*,#496,.F.);
#637=ORIENTED_EDGE('',*,*,#498,.F.);
#638=ORIENTED_EDGE('',*,*,#499,.T.);
#639=ORIENTED_EDGE('',*,*,#500,.F.);
#640=ORIENTED_EDGE('',*,*,#499,.F.);
#641=ORIENTED_EDGE('',*,*,#501,.F.);
#642=ORIENTED_EDGE('',*,*,#502,.T.);
#643=ORIENTED_EDGE('',*,*,#503,.F.);
#644=ORIENTED_EDGE('',*,*,#502,.F.);
#645=ORIENTED_EDGE('',*,*,#504,.F.);
#646=ORIENTED_EDGE('',*,*,#494,.T.);
#647=ORIENTED_EDGE('',*,*,#505,.F.);
#648=ORIENTED_EDGE('',*,*,#506,.F.);
#649=ORIENTED_EDGE('',*,*,#507,.F.);
#650=ORIENTED_EDGE('',*,*,#508,.T.);
#651=ORIENTED_EDGE('',*,*,#509,.F.);
#652=ORIENTED_EDGE('',*,*,#508,.F.);
#653=ORIENTED_EDGE('',*,*,#510,.F.);
#654=ORIENTED_EDGE('',*,*,#511,.T.);
#655=ORIENTED_EDGE('',*,*,#512,.F.);
#656=ORIENTED_EDGE('',*,*,#511,.F.);
#657=ORIENTED_EDGE('',*,*,#513,.F.);
#658=ORIENTED_EDGE('',*,*,#514,.T.);
#659=ORIENTED_EDGE('',*,*,#515,.F.);
#660=ORIENTED_EDGE('',*,*,#514,.F.);
#661=ORIENTED_EDGE('',*,*,#516,.F.);
#662=ORIENTED_EDGE('',*,*,#517,.T.);
#663=ORIENTED_EDGE('',*,*,#518,.F.);
#664=ORIENTED_EDGE('',*,*,#517,.F.);
#665=ORIENTED_EDGE('',*,*,#519,.F.);
#666=ORIENTED_EDGE('',*,*,#520,.T.);
#667=ORIENTED_EDGE('',*,*,#521,.F.);
#668=ORIENTED_EDGE('',*,*,#520,.F.);
#669=ORIENTED_EDGE('',*,*,#522,.F.);
#670=ORIENTED_EDGE('',*,*,#523,.T.);
#671=ORIENTED_EDGE('',*,*,#524,.F.);
#672=ORIENTED_EDGE('',*,*,#523,.F.);
#673=ORIENTED_EDGE('',*,*,#525,.F.);
#674=ORIENTED_EDGE('',*,*,#526,.T.);
#675=ORIENTED_EDGE('',*,*,#527,.F.);
#676=ORIENTED_EDGE('',*,*,#526,.F.);
#677=ORIENTED_EDGE('',*,*,#528,.F.);
#678=ORIENTED_EDGE('',*,*,#506,.T.);
#679=ORIENTED_EDGE('',*,*,#529,.F.);
#680=ORIENTED_EDGE('',*,*,#530,.F.);
#681=ORIENTED_EDGE('',*,*,#531,.F.);
#682=ORIENTED_EDGE('',*,*,#532,.T.);
#683=ORIENTED_EDGE('',*,*,#533,.F.);
#684=ORIENTED_EDGE('',*,*,#532,.F.);
#685=ORIENTED_EDGE('',*,*,#534,.F.);
#686=ORIENTED_EDGE('',*,*,#535,.T.);
#687=ORIENTED_EDGE('',*,*,#536,.F.);
#688=ORIENTED_EDGE('',*,*,#535,.F.);
#689=ORIENTED_EDGE('',*,*,#537,.F.);
#690=ORIENTED_EDGE('',*,*,#538,.T.);
#691=ORIENTED_EDGE('',*,*,#539,.F.);
#692=ORIENTED_EDGE('',*,*,#538,.F.);
#693=ORIENTED_EDGE('',*,*,#540,.F.);
#694=ORIENTED_EDGE('',*,*,#530,.T.);
#695=ORIENTED_EDGE('',*,*,#541,.F.);
#696=ORIENTED_EDGE('',*,*,#542,.F.);
#697=ORIENTED_EDGE('',*,*,#543,.F.);
#698=ORIENTED_EDGE('',*,*,#544,.T.);
#699=ORIENTED_EDGE('',*,*,#545,.F.);
#700=ORIENTED_EDGE('',*,*,#544,.F.);
#701=ORIENTED_EDGE('',*,*,#546,.F.);
#702=ORIENTED_EDGE('',*,*,#547,.T.);
#703=ORIENTED_EDGE('',*,*,#548,.F.);
#704=ORIENTED_EDGE('',*,*,#547,.F.);
#705=ORIENTED_EDGE('',*,*,#549,.F.);
#706=ORIENTED_EDGE('',*,*,#550,.T.);
#707=ORIENTED_EDGE('',*,*,#551,.F.);
#708=ORIENTED_EDGE('',*,*,#550,.F.);
#709=ORIENTED_EDGE('',*,*,#552,.F.);
#710=ORIENTED_EDGE('',*,*,#542,.T.);
#711=ORIENTED_EDGE('',*,*,#553,.F.);
#712=ORIENTED_EDGE('',*,*,#554,.F.);
#713=ORIENTED_EDGE('',*,*,#555,.F.);
#714=ORIENTED_EDGE('',*,*,#556,.T.);
#715=ORIENTED_EDGE('',*,*,#557,.F.);
#716=ORIENTED_EDGE('',*,*,#556,.F.);
#717=ORIENTED_EDGE('',*,*,#558,.F.);
#718=ORIENTED_EDGE('',*,*,#559,.T.);
#719=ORIENTED_EDGE('',*,*,#560,.F.);
#720=ORIENTED_EDGE('',*,*,#559,.F.);
#721=ORIENTED_EDGE('',*,*,#561,.F.);
#722=ORIENTED_EDGE('',*,*,#562,.T.);
#723=ORIENTED_EDGE('',*,*,#563,.F.);
#724=ORIENTED_EDGE('',*,*,#562,.F.);
#725=ORIENTED_EDGE('',*,*,#564,.F.);
#726=ORIENTED_EDGE('',*,*,#565,.T.);
#727=ORIENTED_EDGE('',*,*,#566,.F.);
#728=ORIENTED_EDGE('',*,*,#565,.F.);
#729=ORIENTED_EDGE('',*,*,#567,.F.);
#730=ORIENTED_EDGE('',*,*,#568,.T.);
#731=ORIENTED_EDGE('',*,*,#569,.F.);
#732=ORIENTED_EDGE('',*,*,#568,.F.);
#733=ORIENTED_EDGE('',*,*,#570,.F.);
#734=ORIENTED_EDGE('',*,*,#571,.T.);
#735=ORIENTED_EDGE('',*,*,#572,.F.);
#736=ORIENTED_EDGE('',*,*,#571,.F.);
#737=ORIENTED_EDGE('',*,*,#573,.F.);
#738=ORIENTED_EDGE('',*,*,#574,.T.);
#739=ORIENTED_EDGE('',*,*,#575,.F.);
#740=ORIENTED_EDGE('',*,*,#574,.F.);
#741=ORIENTED_EDGE('',*,*,#576,.F.);
#742=ORIENTED_EDGE('',*,*,#554,.T.);
#743=ORIENTED_EDGE('',*,*,#577,.F.);
#744=ORIENTED_EDGE('',*,*,#578,.F.);
#745=ORIENTED_EDGE('',*,*,#579,.F.);
#746=ORIENTED_EDGE('',*,*,#580,.T.);
#747=ORIENTED_EDGE('',*,*,#581,.F.);
#748=ORIENTED_EDGE('',*,*,#580,.F.);
#749=ORIENTED_EDGE('',*,*,#582,.F.);
#750=ORIENTED_EDGE('',*,*,#583,.T.);
#751=ORIENTED_EDGE('',*,*,#584,.F.);
#752=ORIENTED_EDGE('',*,*,#583,.F.);
#753=ORIENTED_EDGE('',*,*,#585,.F.);
#754=ORIENTED_EDGE('',*,*,#586,.T.);
#755=ORIENTED_EDGE('',*,*,#587,.F.);
#756=ORIENTED_EDGE('',*,*,#586,.F.);
#757=ORIENTED_EDGE('',*,*,#588,.F.);
#758=ORIENTED_EDGE('',*,*,#578,.T.);
#759=ORIENTED_EDGE('',*,*,#589,.F.);
#760=ORIENTED_EDGE('',*,*,#590,.F.);
#761=ORIENTED_EDGE('',*,*,#591,.F.);
#762=ORIENTED_EDGE('',*,*,#592,.T.);
#763=ORIENTED_EDGE('',*,*,#593,.F.);
#764=ORIENTED_EDGE('',*,*,#592,.F.);
#765=ORIENTED_EDGE('',*,*,#594,.F.);
#766=ORIENTED_EDGE('',*,*,#595,.T.);
#767=ORIENTED_EDGE('',*,*,#596,.F.);
#768=ORIENTED_EDGE('',*,*,#595,.F.);
#769=ORIENTED_EDGE('',*,*,#597,.F.);
#770=ORIENTED_EDGE('',*,*,#598,.T.);
#771=ORIENTED_EDGE('',*,*,#599,.F.);
#772=ORIENTED_EDGE('',*,*,#598,.F.);
#773=ORIENTED_EDGE('',*,*,#600,.F.);
#774=ORIENTED_EDGE('',*,*,#590,.T.);
#775=ORIENTED_EDGE('',*,*,#601,.F.);
#776=ORIENTED_EDGE('',*,*,#602,.F.);
#777=ORIENTED_EDGE('',*,*,#603,.F.);
#778=ORIENTED_EDGE('',*,*,#604,.T.);
#779=ORIENTED_EDGE('',*,*,#605,.F.);
#780=ORIENTED_EDGE('',*,*,#604,.F.);
#781=ORIENTED_EDGE('',*,*,#606,.F.);
#782=ORIENTED_EDGE('',*,*,#607,.T.);
#783=ORIENTED_EDGE('',*,*,#608,.F.);
#784=ORIENTED_EDGE('',*,*,#607,.F.);
#785=ORIENTED_EDGE('',*,*,#609,.F.);
#786=ORIENTED_EDGE('',*,*,#610,.T.);
#787=ORIENTED_EDGE('',*,*,#611,.F.);
#788=ORIENTED_EDGE('',*,*,#610,.F.);
#789=ORIENTED_EDGE('',*,*,#612,.F.);
#790=ORIENTED_EDGE('',*,*,#602,.T.);
#791=ORIENTED_EDGE('',*,*,#613,.F.);
#792=ORIENTED_EDGE('',*,*,#614,.T.);
#793=ORIENTED_EDGE('',*,*,#615,.F.);
#794=ORIENTED_EDGE('',*,*,#616,.T.);
#795=ORIENTED_EDGE('',*,*,#617,.F.);
#796=ORIENTED_EDGE('',*,*,#618,.F.);
#797=ORIENTED_EDGE('',*,*,#619,.F.);
#798=ORIENTED_EDGE('',*,*,#620,.F.);
#799=ORIENTED_EDGE('',*,*,#621,.F.);
#800=ORIENTED_EDGE('',*,*,#622,.F.);
#801=ORIENTED_EDGE('',*,*,#623,.F.);
#802=ORIENTED_EDGE('',*,*,#624,.F.);
#803=ORIENTED_EDGE('',*,*,#625,.F.);
#804=ORIENTED_EDGE('',*,*,#614,.F.);
#805=ORIENTED_EDGE('',*,*,#626,.F.);
#806=ORIENTED_EDGE('',*,*,#616,.F.);
#807=ORIENTED_EDGE('',*,*,#621,.T.);
#808=ORIENTED_EDGE('',*,*,#613,.T.);
#809=ORIENTED_EDGE('',*,*,#625,.T.);
#810=ORIENTED_EDGE('',*,*,#627,.F.);
#811=ORIENTED_EDGE('',*,*,#617,.T.);
#812=ORIENTED_EDGE('',*,*,#626,.T.);
#813=ORIENTED_EDGE('',*,*,#615,.T.);
#814=ORIENTED_EDGE('',*,*,#628,.T.);
#815=ORIENTED_EDGE('',*,*,#495,.T.);
#816=ORIENTED_EDGE('',*,*,#504,.T.);
#817=ORIENTED_EDGE('',*,*,#501,.T.);
#818=ORIENTED_EDGE('',*,*,#498,.T.);
#819=ORIENTED_EDGE('',*,*,#507,.T.);
#820=ORIENTED_EDGE('',*,*,#528,.T.);
#821=ORIENTED_EDGE('',*,*,#525,.T.);
#822=ORIENTED_EDGE('',*,*,#522,.T.);
#823=ORIENTED_EDGE('',*,*,#519,.T.);
#824=ORIENTED_EDGE('',*,*,#516,.T.);
#825=ORIENTED_EDGE('',*,*,#513,.T.);
#826=ORIENTED_EDGE('',*,*,#510,.T.);
#827=ORIENTED_EDGE('',*,*,#531,.T.);
#828=ORIENTED_EDGE('',*,*,#540,.T.);
#829=ORIENTED_EDGE('',*,*,#537,.T.);
#830=ORIENTED_EDGE('',*,*,#534,.T.);
#831=ORIENTED_EDGE('',*,*,#543,.T.);
#832=ORIENTED_EDGE('',*,*,#552,.T.);
#833=ORIENTED_EDGE('',*,*,#549,.T.);
#834=ORIENTED_EDGE('',*,*,#546,.T.);
#835=ORIENTED_EDGE('',*,*,#555,.T.);
#836=ORIENTED_EDGE('',*,*,#576,.T.);
#837=ORIENTED_EDGE('',*,*,#573,.T.);
#838=ORIENTED_EDGE('',*,*,#570,.T.);
#839=ORIENTED_EDGE('',*,*,#567,.T.);
#840=ORIENTED_EDGE('',*,*,#564,.T.);
#841=ORIENTED_EDGE('',*,*,#561,.T.);
#842=ORIENTED_EDGE('',*,*,#558,.T.);
#843=ORIENTED_EDGE('',*,*,#579,.T.);
#844=ORIENTED_EDGE('',*,*,#588,.T.);
#845=ORIENTED_EDGE('',*,*,#585,.T.);
#846=ORIENTED_EDGE('',*,*,#582,.T.);
#847=ORIENTED_EDGE('',*,*,#591,.T.);
#848=ORIENTED_EDGE('',*,*,#600,.T.);
#849=ORIENTED_EDGE('',*,*,#597,.T.);
#850=ORIENTED_EDGE('',*,*,#594,.T.);
#851=ORIENTED_EDGE('',*,*,#603,.T.);
#852=ORIENTED_EDGE('',*,*,#612,.T.);
#853=ORIENTED_EDGE('',*,*,#609,.T.);
#854=ORIENTED_EDGE('',*,*,#606,.T.);
#855=ORIENTED_EDGE('',*,*,#622,.T.);
#856=ORIENTED_EDGE('',*,*,#628,.F.);
#857=ORIENTED_EDGE('',*,*,#620,.T.);
#858=ORIENTED_EDGE('',*,*,#629,.F.);
#859=ORIENTED_EDGE('',*,*,#623,.T.);
#860=ORIENTED_EDGE('',*,*,#629,.T.);
#861=ORIENTED_EDGE('',*,*,#619,.T.);
#862=ORIENTED_EDGE('',*,*,#630,.T.);
#863=ORIENTED_EDGE('',*,*,#493,.T.);
#864=ORIENTED_EDGE('',*,*,#497,.T.);
#865=ORIENTED_EDGE('',*,*,#500,.T.);
#866=ORIENTED_EDGE('',*,*,#503,.T.);
#867=ORIENTED_EDGE('',*,*,#505,.T.);
#868=ORIENTED_EDGE('',*,*,#509,.T.);
#869=ORIENTED_EDGE('',*,*,#512,.T.);
#870=ORIENTED_EDGE('',*,*,#515,.T.);
#871=ORIENTED_EDGE('',*,*,#518,.T.);
#872=ORIENTED_EDGE('',*,*,#521,.T.);
#873=ORIENTED_EDGE('',*,*,#524,.T.);
#874=ORIENTED_EDGE('',*,*,#527,.T.);
#875=ORIENTED_EDGE('',*,*,#529,.T.);
#876=ORIENTED_EDGE('',*,*,#533,.T.);
#877=ORIENTED_EDGE('',*,*,#536,.T.);
#878=ORIENTED_EDGE('',*,*,#539,.T.);
#879=ORIENTED_EDGE('',*,*,#541,.T.);
#880=ORIENTED_EDGE('',*,*,#545,.T.);
#881=ORIENTED_EDGE('',*,*,#548,.T.);
#882=ORIENTED_EDGE('',*,*,#551,.T.);
#883=ORIENTED_EDGE('',*,*,#553,.T.);
#884=ORIENTED_EDGE('',*,*,#557,.T.);
#885=ORIENTED_EDGE('',*,*,#560,.T.);
#886=ORIENTED_EDGE('',*,*,#563,.T.);
#887=ORIENTED_EDGE('',*,*,#566,.T.);
#888=ORIENTED_EDGE('',*,*,#569,.T.);
#889=ORIENTED_EDGE('',*,*,#572,.T.);
#890=ORIENTED_EDGE('',*,*,#575,.T.);
#891=ORIENTED_EDGE('',*,*,#577,.T.);
#892=ORIENTED_EDGE('',*,*,#581,.T.);
#893=ORIENTED_EDGE('',*,*,#584,.T.);
#894=ORIENTED_EDGE('',*,*,#587,.T.);
#895=ORIENTED_EDGE('',*,*,#589,.T.);
#896=ORIENTED_EDGE('',*,*,#593,.T.);
#897=ORIENTED_EDGE('',*,*,#596,.T.);
#898=ORIENTED_EDGE('',*,*,#599,.T.);
#899=ORIENTED_EDGE('',*,*,#601,.T.);
#900=ORIENTED_EDGE('',*,*,#605,.T.);
#901=ORIENTED_EDGE('',*,*,#608,.T.);
#902=ORIENTED_EDGE('',*,*,#611,.T.);
#903=ORIENTED_EDGE('',*,*,#624,.T.);
#904=ORIENTED_EDGE('',*,*,#630,.F.);
#905=ORIENTED_EDGE('',*,*,#618,.T.);
#906=ORIENTED_EDGE('',*,*,#627,.T.);
#907=PLANE('',#1005);
#908=PLANE('',#1006);
#909=PLANE('',#1007);
#910=PLANE('',#1008);
#911=PLANE('',#1009);
#912=PLANE('',#1013);
#913=PLANE('',#1017);
#914=PLANE('',#1021);
#915=PLANE('',#1025);
#916=PLANE('',#1026);
#917=PLANE('',#1027);
#918=PLANE('',#1028);
#919=PLANE('',#1029);
#920=PLANE('',#1030);
#921=PLANE('',#1031);
#922=PLANE('',#1032);
#923=PLANE('',#1036);
#924=PLANE('',#1040);
#925=PLANE('',#1044);
#926=PLANE('',#1048);
#927=PLANE('',#1049);
#928=PLANE('',#1050);
#929=PLANE('',#1051);
#930=PLANE('',#1052);
#931=PLANE('',#1053);
#932=PLANE('',#1054);
#933=PLANE('',#1055);
#934=PLANE('',#1056);
#935=PLANE('',#1057);
#936=PLANE('',#1058);
#937=PLANE('',#1059);
#938=PLANE('',#1060);
#939=PLANE('',#1061);
#940=PLANE('',#1062);
#941=PLANE('',#1063);
#942=PLANE('',#1064);
#943=ADVANCED_FACE('',(#73),#907,.F.);
#944=ADVANCED_FACE('',(#74),#908,.F.);
#945=ADVANCED_FACE('',(#75),#909,.F.);
#946=ADVANCED_FACE('',(#76),#910,.F.);
#947=ADVANCED_FACE('',(#77),#911,.F.);
#948=ADVANCED_FACE('',(#78),#65,.F.);
#949=ADVANCED_FACE('',(#79),#912,.F.);
#950=ADVANCED_FACE('',(#80),#66,.F.);
#951=ADVANCED_FACE('',(#81),#913,.F.);
#952=ADVANCED_FACE('',(#82),#67,.F.);
#953=ADVANCED_FACE('',(#83),#914,.F.);
#954=ADVANCED_FACE('',(#84),#68,.F.);
#955=ADVANCED_FACE('',(#85),#915,.F.);
#956=ADVANCED_FACE('',(#86),#916,.F.);
#957=ADVANCED_FACE('',(#87),#917,.F.);
#958=ADVANCED_FACE('',(#88),#918,.F.);
#959=ADVANCED_FACE('',(#89),#919,.F.);
#960=ADVANCED_FACE('',(#90),#920,.F.);
#961=ADVANCED_FACE('',(#91),#921,.F.);
#962=ADVANCED_FACE('',(#92),#922,.F.);
#963=ADVANCED_FACE('',(#93),#69,.F.);
#964=ADVANCED_FACE('',(#94),#923,.F.);
#965=ADVANCED_FACE('',(#95),#70,.F.);
#966=ADVANCED_FACE('',(#96),#924,.F.);
#967=ADVANCED_FACE('',(#97),#71,.F.);
#968=ADVANCED_FACE('',(#98),#925,.F.);
#969=ADVANCED_FACE('',(#99),#72,.F.);
#970=ADVANCED_FACE('',(#100),#926,.F.);
#971=ADVANCED_FACE('',(#101),#927,.F.);
#972=ADVANCED_FACE('',(#102),#928,.F.);
#973=ADVANCED_FACE('',(#103),#929,.F.);
#974=ADVANCED_FACE('',(#104),#930,.F.);
#975=ADVANCED_FACE('',(#105),#931,.F.);
#976=ADVANCED_FACE('',(#106),#932,.F.);
#977=ADVANCED_FACE('',(#107),#933,.F.);
#978=ADVANCED_FACE('',(#108),#934,.F.);
#979=ADVANCED_FACE('',(#109),#935,.F.);
#980=ADVANCED_FACE('',(#110),#936,.F.);
#981=ADVANCED_FACE('',(#111),#937,.F.);
#982=ADVANCED_FACE('',(#112),#938,.F.);
#983=ADVANCED_FACE('',(#113),#45,.T.);
#984=ADVANCED_FACE('',(#114),#46,.F.);
#985=ADVANCED_FACE('',(#115),#47,.T.);
#986=ADVANCED_FACE('',(#116),#48,.F.);
#987=ADVANCED_FACE('',(#117,#15,#16,#17,#18,#19,#20,#21,#22),#939,.T.);
#988=ADVANCED_FACE('',(#118),#940,.T.);
#989=ADVANCED_FACE('',(#119,#23,#24,#25,#26,#27,#28,#29,#30),#941,.T.);
#990=ADVANCED_FACE('',(#120),#942,.T.);
#991=CLOSED_SHELL('',(#943,#944,#945,#946,#947,#948,#949,#950,#951,#952,
#953,#954,#955,#956,#957,#958,#959,#960,#961,#962,#963,#964,#965,#966,#967,
#968,#969,#970,#971,#972,#973,#974,#975,#976,#977,#978,#979,#980,#981,#982,
#983,#984,#985,#986,#987,#988,#989,#990));
#992=DERIVED_UNIT_ELEMENT(#994,1.);
#993=DERIVED_UNIT_ELEMENT(#1697,-3.);
#994=(
MASS_UNIT()
NAMED_UNIT(*)
SI_UNIT(.KILO.,.GRAM.)
);
#995=DERIVED_UNIT((#992,#993));
#996=MEASURE_REPRESENTATION_ITEM('density measure',
POSITIVE_RATIO_MEASURE(7850.),#995);
#997=PROPERTY_DEFINITION_REPRESENTATION(#1002,#999);
#998=PROPERTY_DEFINITION_REPRESENTATION(#1003,#1000);
#999=REPRESENTATION('material name',(#1001),#1694);
#1000=REPRESENTATION('density',(#996),#1694);
#1001=DESCRIPTIVE_REPRESENTATION_ITEM('Steel','Steel');
#1002=PROPERTY_DEFINITION('material property','material name',#1704);
#1003=PROPERTY_DEFINITION('material property','density of part',#1704);
#1004=AXIS2_PLACEMENT_3D('',#1295,#1065,#1066);
#1005=AXIS2_PLACEMENT_3D('',#1296,#1067,#1068);
#1006=AXIS2_PLACEMENT_3D('',#1305,#1073,#1074);
#1007=AXIS2_PLACEMENT_3D('',#1311,#1078,#1079);
#1008=AXIS2_PLACEMENT_3D('',#1317,#1083,#1084);
#1009=AXIS2_PLACEMENT_3D('',#1320,#1087,#1088);
#1010=AXIS2_PLACEMENT_3D('',#1329,#1093,#1094);
#1011=AXIS2_PLACEMENT_3D('',#1331,#1095,#1096);
#1012=AXIS2_PLACEMENT_3D('',#1333,#1097,#1098);
#1013=AXIS2_PLACEMENT_3D('',#1335,#1100,#1101);
#1014=AXIS2_PLACEMENT_3D('',#1341,#1105,#1106);
#1015=AXIS2_PLACEMENT_3D('',#1343,#1107,#1108);
#1016=AXIS2_PLACEMENT_3D('',#1345,#1109,#1110);
#1017=AXIS2_PLACEMENT_3D('',#1347,#1112,#1113);
#1018=AXIS2_PLACEMENT_3D('',#1353,#1117,#1118);
#1019=AXIS2_PLACEMENT_3D('',#1355,#1119,#1120);
#1020=AXIS2_PLACEMENT_3D('',#1357,#1121,#1122);
#1021=AXIS2_PLACEMENT_3D('',#1359,#1124,#1125);
#1022=AXIS2_PLACEMENT_3D('',#1365,#1129,#1130);
#1023=AXIS2_PLACEMENT_3D('',#1366,#1131,#1132);
#1024=AXIS2_PLACEMENT_3D('',#1367,#1133,#1134);
#1025=AXIS2_PLACEMENT_3D('',#1368,#1135,#1136);
#1026=AXIS2_PLACEMENT_3D('',#1377,#1141,#1142);
#1027=AXIS2_PLACEMENT_3D('',#1383,#1146,#1147);
#1028=AXIS2_PLACEMENT_3D('',#1389,#1151,#1152);
#1029=AXIS2_PLACEMENT_3D('',#1392,#1155,#1156);
#1030=AXIS2_PLACEMENT_3D('',#1401,#1161,#1162);
#1031=AXIS2_PLACEMENT_3D('',#1407,#1166,#1167);
#1032=AXIS2_PLACEMENT_3D('',#1413,#1171,#1172);
#1033=AXIS2_PLACEMENT_3D('',#1416,#1175,#1176);
#1034=AXIS2_PLACEMENT_3D('',#1419,#1177,#1178);
#1035=AXIS2_PLACEMENT_3D('',#1423,#1180,#1181);
#1036=AXIS2_PLACEMENT_3D('',#1425,#1183,#1184);
#1037=AXIS2_PLACEMENT_3D('',#1431,#1188,#1189);
#1038=AXIS2_PLACEMENT_3D('',#1433,#1190,#1191);
#1039=AXIS2_PLACEMENT_3D('',#1435,#1192,#1193);
#1040=AXIS2_PLACEMENT_3D('',#1437,#1195,#1196);
#1041=AXIS2_PLACEMENT_3D('',#1443,#1200,#1201);
#1042=AXIS2_PLACEMENT_3D('',#1445,#1202,#1203);
#1043=AXIS2_PLACEMENT_3D('',#1447,#1204,#1205);
#1044=AXIS2_PLACEMENT_3D('',#1449,#1207,#1208);
#1045=AXIS2_PLACEMENT_3D('',#1455,#1212,#1213);
#1046=AXIS2_PLACEMENT_3D('',#1457,#1214,#1215);
#1047=AXIS2_PLACEMENT_3D('',#1459,#1216,#1217);
#1048=AXIS2_PLACEMENT_3D('',#1461,#1219,#1220);
#1049=AXIS2_PLACEMENT_3D('',#1464,#1223,#1224);
#1050=AXIS2_PLACEMENT_3D('',#1473,#1229,#1230);
#1051=AXIS2_PLACEMENT_3D('',#1479,#1234,#1235);
#1052=AXIS2_PLACEMENT_3D('',#1485,#1239,#1240);
#1053=AXIS2_PLACEMENT_3D('',#1488,#1243,#1244);
#1054=AXIS2_PLACEMENT_3D('',#1497,#1249,#1250);
#1055=AXIS2_PLACEMENT_3D('',#1503,#1254,#1255);
#1056=AXIS2_PLACEMENT_3D('',#1509,#1259,#1260);
#1057=AXIS2_PLACEMENT_3D('',#1512,#1263,#1264);
#1058=AXIS2_PLACEMENT_3D('',#1521,#1269,#1270);
#1059=AXIS2_PLACEMENT_3D('',#1527,#1274,#1275);
#1060=AXIS2_PLACEMENT_3D('',#1533,#1279,#1280);
#1061=AXIS2_PLACEMENT_3D('',#1684,#1283,#1284);
#1062=AXIS2_PLACEMENT_3D('',#1687,#1287,#1288);
#1063=AXIS2_PLACEMENT_3D('',#1689,#1290,#1291);
#1064=AXIS2_PLACEMENT_3D('',#1691,#1293,#1294);
#1065=DIRECTION('axis',(0.,0.,1.));
#1066=DIRECTION('refdir',(1.,0.,0.));
#1067=DIRECTION('center_axis',(-1.,-7.09617549906243E-14,6.72862439166752E-15));
#1068=DIRECTION('ref_axis',(-7.09617549906243E-14,1.,0.));
#1069=DIRECTION('',(7.09617549906243E-14,-1.,0.));
#1070=DIRECTION('',(-6.72862439166752E-15,0.,-1.));
#1071=DIRECTION('',(-7.09617549906243E-14,1.,0.));
#1072=DIRECTION('',(-6.72862439166752E-15,0.,-1.));
#1073=DIRECTION('center_axis',(8.12048840867483E-14,-1.,-5.46397163788628E-28));
#1074=DIRECTION('ref_axis',(-1.,-8.12048840867483E-14,6.66133814774107E-15));
#1075=DIRECTION('',(1.,8.12048840867483E-14,0.));
#1076=DIRECTION('',(-1.,-8.12048840867483E-14,0.));
#1077=DIRECTION('',(-6.72862439166752E-15,0.,-1.));
#1078=DIRECTION('center_axis',(1.,1.85037170770872E-16,-6.72862439166752E-15));
#1079=DIRECTION('ref_axis',(1.85037170770859E-16,-1.,-1.94289029309402E-15));
#1080=DIRECTION('',(-1.85037170770872E-16,1.,0.));
#1081=DIRECTION('',(1.85037170770872E-16,-1.,0.));
#1082=DIRECTION('',(-6.72862439166752E-15,0.,-1.));
#1083=DIRECTION('center_axis',(-7.10542735758875E-14,1.,4.78097518314934E-28));
#1084=DIRECTION('ref_axis',(1.,7.10542735758875E-14,0.));
#1085=DIRECTION('',(-1.,-7.10542735758875E-14,0.));
#1086=DIRECTION('',(1.,7.10542735758875E-14,0.));
#1087=DIRECTION('center_axis',(0.,-1.,0.));
#1088=DIRECTION('ref_axis',(-1.,0.,0.));
#1089=DIRECTION('',(1.,0.,0.));
#1090=DIRECTION('',(-6.72862439166752E-15,0.,-1.));
#1091=DIRECTION('',(-1.,0.,0.));
#1092=DIRECTION('',(-6.72862439166752E-15,0.,-1.));
#1093=DIRECTION('center_axis',(-6.72862439166752E-15,0.,-1.));
#1094=DIRECTION('ref_axis',(2.33146835171283E-15,-1.,-1.56875748197358E-29));
#1095=DIRECTION('center_axis',(0.,0.,1.));
#1096=DIRECTION('ref_axis',(2.33146835171283E-15,-1.,-1.56875748197358E-29));
#1097=DIRECTION('center_axis',(0.,0.,-1.));
#1098=DIRECTION('ref_axis',(2.33146835171283E-15,-1.,-1.56875748197358E-29));
#1099=DIRECTION('',(-6.72862439166752E-15,0.,-1.));
#1100=DIRECTION('center_axis',(1.,-3.55653111590952E-16,-6.72862439166752E-15));
#1101=DIRECTION('ref_axis',(-3.55653111590952E-16,-1.,0.));
#1102=DIRECTION('',(3.55653111590952E-16,1.,0.));
#1103=DIRECTION('',(-3.55653111590952E-16,-1.,0.));
#1104=DIRECTION('',(-6.72862439166752E-15,0.,-1.));
#1105=DIRECTION('center_axis',(-6.72862439166752E-15,0.,-1.));
#1106=DIRECTION('ref_axis',(1.,0.,-6.72862439166752E-15));
#1107=DIRECTION('center_axis',(0.,0.,1.));
#1108=DIRECTION('ref_axis',(1.,0.,-6.72862439166752E-15));
#1109=DIRECTION('center_axis',(0.,0.,-1.));
#1110=DIRECTION('ref_axis',(1.,0.,-6.72862439166752E-15));
#1111=DIRECTION('',(-6.72862439166752E-15,0.,-1.));
#1112=DIRECTION('center_axis',(0.,1.,0.));
#1113=DIRECTION('ref_axis',(1.,0.,-2.77555746850507E-16));
#1114=DIRECTION('',(-1.,0.,0.));
#1115=DIRECTION('',(1.,0.,0.));
#1116=DIRECTION('',(-6.72862439166752E-15,0.,-1.));
#1117=DIRECTION('center_axis',(-6.72862439166752E-15,0.,-1.));
#1118=DIRECTION('ref_axis',(-2.55351295663786E-15,1.,1.71823765918452E-29));
#1119=DIRECTION('center_axis',(0.,0.,1.));
#1120=DIRECTION('ref_axis',(-2.55351295663786E-15,1.,1.71823765918452E-29));
#1121=DIRECTION('center_axis',(0.,0.,-1.));
#1122=DIRECTION('ref_axis',(-2.55351295663786E-15,1.,1.71823765918452E-29));
#1123=DIRECTION('',(-6.72862439166752E-15,0.,-1.));
#1124=DIRECTION('center_axis',(-1.,5.17313616859566E-16,6.72862439166752E-15));
#1125=DIRECTION('ref_axis',(5.17313616859567E-16,1.,1.29328404214892E-16));
#1126=DIRECTION('',(-5.17313616859566E-16,-1.,0.));
#1127=DIRECTION('',(5.17313616859566E-16,1.,0.));
#1128=DIRECTION('',(-6.72862439166752E-15,0.,-1.));
#1129=DIRECTION('center_axis',(-6.72862439166752E-15,0.,-1.));
#1130=DIRECTION('ref_axis',(-1.,0.,6.72862439166752E-15));
#1131=DIRECTION('center_axis',(0.,0.,1.));
#1132=DIRECTION('ref_axis',(-1.,0.,6.72862439166752E-15));
#1133=DIRECTION('center_axis',(0.,0.,-1.));
#1134=DIRECTION('ref_axis',(-1.,0.,6.72862439166752E-15));
#1135=DIRECTION('center_axis',(1.01506105108586E-14,1.,-6.82996454736799E-29));
#1136=DIRECTION('ref_axis',(1.,-1.01506105108586E-14,0.));
#1137=DIRECTION('',(-1.,1.01506105108586E-14,0.));
#1138=DIRECTION('',(-6.72862439166752E-15,0.,-1.));
#1139=DIRECTION('',(1.,-1.01506105108586E-14,0.));
#1140=DIRECTION('',(-6.72862439166752E-15,0.,-1.));
#1141=DIRECTION('center_axis',(-1.,0.,6.72862439166752E-15));
#1142=DIRECTION('ref_axis',(0.,1.,0.));
#1143=DIRECTION('',(0.,-1.,0.));
#1144=DIRECTION('',(0.,1.,0.));
#1145=DIRECTION('',(-6.72862439166752E-15,0.,-1.));
#1146=DIRECTION('center_axis',(0.,-1.,0.));
#1147=DIRECTION('ref_axis',(-1.,0.,0.));
#1148=DIRECTION('',(1.,0.,0.));
#1149=DIRECTION('',(-1.,0.,0.));
#1150=DIRECTION('',(-6.72862439166752E-15,0.,-1.));
#1151=DIRECTION('center_axis',(1.,7.4014868308344E-16,-6.72862439166752E-15));
#1152=DIRECTION('ref_axis',(7.4014868308344E-16,-1.,0.));
#1153=DIRECTION('',(-7.4014868308344E-16,1.,0.));
#1154=DIRECTION('',(7.4014868308344E-16,-1.,0.));
#1155=DIRECTION('center_axis',(1.,-1.48029736616687E-15,-6.72862439166752E-15));
#1156=DIRECTION('ref_axis',(-1.48029736616689E-15,-1.,-1.94289029309404E-15));
#1157=DIRECTION('',(1.48029736616687E-15,1.,0.));
#1158=DIRECTION('',(-6.72862439166752E-15,0.,-1.));
#1159=DIRECTION('',(-1.48029736616687E-15,-1.,0.));
#1160=DIRECTION('',(-6.72862439166752E-15,0.,-1.));
#1161=DIRECTION('center_axis',(-4.0602442043408E-14,1.,2.73198581894542E-28));
#1162=DIRECTION('ref_axis',(1.,4.0602442043408E-14,0.));
#1163=DIRECTION('',(-1.,-4.0602442043408E-14,0.));
#1164=DIRECTION('',(1.,4.0602442043408E-14,0.));
#1165=DIRECTION('',(-6.72862439166752E-15,0.,-1.));
#1166=DIRECTION('center_axis',(-1.,-4.05231403988184E-14,6.72862439166752E-15));
#1167=DIRECTION('ref_axis',(-4.05231403988184E-14,1.,0.));
#1168=DIRECTION('',(4.05231403988184E-14,-1.,0.));
#1169=DIRECTION('',(-4.05231403988184E-14,1.,0.));
#1170=DIRECTION('',(-6.72862439166752E-15,0.,-1.));
#1171=DIRECTION('center_axis',(5.07530525542673E-14,-1.,-3.41498227368226E-28));
#1172=DIRECTION('ref_axis',(-1.,-5.07530525542673E-14,6.66133814774758E-15));
#1173=DIRECTION('',(1.,5.07530525542673E-14,0.));
#1174=DIRECTION('',(-1.,-5.07530525542673E-14,0.));
#1175=DIRECTION('center_axis',(-6.72862439166752E-15,0.,-1.));
#1176=DIRECTION('ref_axis',(-1.,0.,6.72862439166752E-15));
#1177=DIRECTION('center_axis',(0.,0.,1.));
#1178=DIRECTION('ref_axis',(-1.,0.,6.72862439166752E-15));
#1179=DIRECTION('',(-6.72862439166752E-15,0.,-1.));
#1180=DIRECTION('center_axis',(0.,0.,-1.));
#1181=DIRECTION('ref_axis',(-1.,0.,6.72862439166752E-15));
#1182=DIRECTION('',(-6.72862439166752E-15,0.,-1.));
#1183=DIRECTION('center_axis',(0.,-1.,0.));
#1184=DIRECTION('ref_axis',(-1.,0.,2.77555746850543E-16));
#1185=DIRECTION('',(1.,0.,0.));
#1186=DIRECTION('',(-1.,0.,0.));
#1187=DIRECTION('',(-6.72862439166752E-15,0.,-1.));
#1188=DIRECTION('center_axis',(-6.72862439166752E-15,0.,-1.));
#1189=DIRECTION('ref_axis',(0.,-1.,0.));
#1190=DIRECTION('center_axis',(0.,0.,1.));
#1191=DIRECTION('ref_axis',(0.,-1.,0.));
#1192=DIRECTION('center_axis',(0.,0.,-1.));
#1193=DIRECTION('ref_axis',(0.,-1.,0.));
#1194=DIRECTION('',(-6.72862439166752E-15,0.,-1.));
#1195=DIRECTION('center_axis',(1.,0.,-6.72862439166752E-15));
#1196=DIRECTION('ref_axis',(0.,-1.,0.));
#1197=DIRECTION('',(0.,1.,0.));
#1198=DIRECTION('',(0.,-1.,0.));
#1199=DIRECTION('',(-6.72862439166752E-15,0.,-1.));
#1200=DIRECTION('center_axis',(-6.72862439166752E-15,0.,-1.));
#1201=DIRECTION('ref_axis',(1.,0.,-6.72862439166752E-15));
#1202=DIRECTION('center_axis',(0.,0.,1.));
#1203=DIRECTION('ref_axis',(1.,0.,-6.72862439166752E-15));
#1204=DIRECTION('center_axis',(0.,0.,-1.));
#1205=DIRECTION('ref_axis',(1.,0.,-6.72862439166752E-15));
#1206=DIRECTION('',(-6.72862439166752E-15,0.,-1.));
#1207=DIRECTION('center_axis',(0.,1.,0.));
#1208=DIRECTION('ref_axis',(1.,0.,0.));
#1209=DIRECTION('',(-1.,0.,0.));
#1210=DIRECTION('',(1.,0.,0.));
#1211=DIRECTION('',(-6.72862439166752E-15,0.,-1.));
#1212=DIRECTION('center_axis',(-6.72862439166752E-15,0.,-1.));
#1213=DIRECTION('ref_axis',(1.22124532708765E-15,1.,-8.21730109605197E-30));
#1214=DIRECTION('center_axis',(0.,0.,1.));
#1215=DIRECTION('ref_axis',(1.22124532708765E-15,1.,-8.21730109605197E-30));
#1216=DIRECTION('center_axis',(0.,0.,-1.));
#1217=DIRECTION('ref_axis',(1.22124532708765E-15,1.,-8.21730109605197E-30));
#1218=DIRECTION('',(-6.72862439166752E-15,0.,-1.));
#1219=DIRECTION('center_axis',(-1.,1.29328404214892E-15,6.72862439166752E-15));
#1220=DIRECTION('ref_axis',(1.29328404214892E-15,1.,-1.29328404214892E-16));
#1221=DIRECTION('',(-1.29328404214892E-15,-1.,0.));
#1222=DIRECTION('',(1.29328404214892E-15,1.,0.));
#1223=DIRECTION('center_axis',(0.,1.,0.));
#1224=DIRECTION('ref_axis',(1.,0.,0.));
#1225=DIRECTION('',(-1.,0.,0.));
#1226=DIRECTION('',(-6.72862439166752E-15,0.,-1.));
#1227=DIRECTION('',(1.,0.,0.));
#1228=DIRECTION('',(-6.72862439166752E-15,0.,-1.));
#1229=DIRECTION('center_axis',(-1.,0.,6.72862439166752E-15));
#1230=DIRECTION('ref_axis',(0.,1.,0.));
#1231=DIRECTION('',(0.,-1.,0.));
#1232=DIRECTION('',(0.,1.,0.));
#1233=DIRECTION('',(-6.72862439166752E-15,0.,-1.));
#1234=DIRECTION('center_axis',(0.,-1.,0.));
#1235=DIRECTION('ref_axis',(-1.,0.,0.));
#1236=DIRECTION('',(1.,0.,0.));
#1237=DIRECTION('',(-1.,0.,0.));
#1238=DIRECTION('',(-6.72862439166752E-15,0.,-1.));
#1239=DIRECTION('center_axis',(1.,9.25185853854298E-17,-6.72862439166752E-15));
#1240=DIRECTION('ref_axis',(9.25185853854298E-17,-1.,0.));
#1241=DIRECTION('',(-9.25185853854298E-17,1.,0.));
#1242=DIRECTION('',(9.25185853854298E-17,-1.,0.));
#1243=DIRECTION('center_axis',(1.01506105108585E-14,-1.,-6.82996454736794E-29));
#1244=DIRECTION('ref_axis',(-1.,-1.01506105108585E-14,0.));
#1245=DIRECTION('',(1.,1.01506105108585E-14,0.));
#1246=DIRECTION('',(-6.72862439166752E-15,0.,-1.));
#1247=DIRECTION('',(-1.,-1.01506105108585E-14,0.));
#1248=DIRECTION('',(-6.72862439166752E-15,0.,-1.));
#1249=DIRECTION('center_axis',(1.,9.251858538543E-17,-6.72862439166752E-15));
#1250=DIRECTION('ref_axis',(9.251858538543E-17,-1.,0.));
#1251=DIRECTION('',(-9.251858538543E-17,1.,0.));
#1252=DIRECTION('',(9.251858538543E-17,-1.,0.));
#1253=DIRECTION('',(-6.72862439166752E-15,0.,-1.));
#1254=DIRECTION('center_axis',(0.,1.,0.));
#1255=DIRECTION('ref_axis',(1.,0.,0.));
#1256=DIRECTION('',(-1.,0.,0.));
#1257=DIRECTION('',(1.,0.,0.));
#1258=DIRECTION('',(-6.72862439166752E-15,0.,-1.));
#1259=DIRECTION('center_axis',(-1.,9.25185853854297E-16,6.72862439166752E-15));
#1260=DIRECTION('ref_axis',(9.25185853854297E-16,1.,0.));
#1261=DIRECTION('',(-9.25185853854297E-16,-1.,0.));
#1262=DIRECTION('',(9.25185853854297E-16,1.,0.));
#1263=DIRECTION('center_axis',(-7.10542735759015E-14,1.,4.78097518315027E-28));
#1264=DIRECTION('ref_axis',(1.,7.10542735759015E-14,0.));
#1265=DIRECTION('',(-1.,-7.10542735759015E-14,0.));
#1266=DIRECTION('',(-6.72862439166752E-15,0.,-1.));
#1267=DIRECTION('',(1.,7.10542735759015E-14,0.));
#1268=DIRECTION('',(-6.72862439166752E-15,0.,-1.));
#1269=DIRECTION('center_axis',(-1.,-7.09617549906244E-14,6.72862439166752E-15));
#1270=DIRECTION('ref_axis',(-7.09617549906244E-14,1.,0.));
#1271=DIRECTION('',(7.09617549906244E-14,-1.,0.));
#1272=DIRECTION('',(-7.09617549906244E-14,1.,0.));
#1273=DIRECTION('',(-6.72862439166752E-15,0.,-1.));
#1274=DIRECTION('center_axis',(9.13554945976097E-14,-1.,-6.14696809262327E-28));
#1275=DIRECTION('ref_axis',(-1.,-9.13554945976097E-14,6.66133814774238E-15));
#1276=DIRECTION('',(1.,9.13554945976097E-14,0.));
#1277=DIRECTION('',(-1.,-9.13554945976097E-14,0.));
#1278=DIRECTION('',(-6.72862439166752E-15,0.,-1.));
#1279=DIRECTION('center_axis',(1.,1.85037170770873E-16,-6.72862439166752E-15));
#1280=DIRECTION('ref_axis',(1.8503717077086E-16,-1.,-1.94289029309403E-15));
#1281=DIRECTION('',(-1.85037170770873E-16,1.,0.));
#1282=DIRECTION('',(1.85037170770873E-16,-1.,0.));
#1283=DIRECTION('center_axis',(0.,0.,1.));
#1284=DIRECTION('ref_axis',(1.,0.,0.));
#1285=DIRECTION('',(1.,0.,0.));
#1286=DIRECTION('',(1.,0.,0.));
#1287=DIRECTION('center_axis',(0.,-1.,0.));
#1288=DIRECTION('ref_axis',(-1.,0.,0.));
#1289=DIRECTION('',(-1.,0.,0.));
#1290=DIRECTION('center_axis',(0.,0.,-1.));
#1291=DIRECTION('ref_axis',(-1.,0.,0.));
#1292=DIRECTION('',(1.,0.,0.));
#1293=DIRECTION('center_axis',(0.,1.,0.));
#1294=DIRECTION('ref_axis',(1.,0.,0.));
#1295=CARTESIAN_POINT('',(0.,0.,0.));
#1296=CARTESIAN_POINT('Origin',(19.5000003427163,-130.500001266599,-30.));
#1297=CARTESIAN_POINT('',(19.5000003427146,-106.500001266599,-32.4));
#1298=CARTESIAN_POINT('',(19.5000003427163,-130.500001266599,-32.4));
#1299=CARTESIAN_POINT('',(19.5000003427159,-124.750001192093,-32.4));
#1300=CARTESIAN_POINT('',(19.5000003427146,-106.500001266599,-30.));
#1301=CARTESIAN_POINT('',(19.5000003427146,-106.500001266599,-30.));
#1302=CARTESIAN_POINT('',(19.5000003427163,-130.500001266599,-30.));
#1303=CARTESIAN_POINT('',(19.5000003427159,-124.750001192093,-30.));
#1304=CARTESIAN_POINT('',(19.5000003427163,-130.500001266599,-30.));
#1305=CARTESIAN_POINT('Origin',(26.5000003427267,-130.500001266599,-30.));
#1306=CARTESIAN_POINT('',(26.5000003427267,-130.500001266599,-32.4));
#1307=CARTESIAN_POINT('',(13.2500001713638,-130.5000012666,-32.4));
#1308=CARTESIAN_POINT('',(26.5000003427267,-130.500001266599,-30.));
#1309=CARTESIAN_POINT('',(13.2500001713638,-130.5000012666,-30.));
#1310=CARTESIAN_POINT('',(26.5000003427267,-130.500001266599,-30.));
#1311=CARTESIAN_POINT('Origin',(26.5000003427267,-106.500001266599,-30.));
#1312=CARTESIAN_POINT('',(26.5000003427267,-106.500001266599,-32.4));
#1313=CARTESIAN_POINT('',(26.5000003427267,-112.750001192093,-32.4));
#1314=CARTESIAN_POINT('',(26.5000003427267,-106.500001266599,-30.));
#1315=CARTESIAN_POINT('',(26.5000003427267,-112.750001192093,-30.));
#1316=CARTESIAN_POINT('',(26.5000003427267,-106.500001266599,-30.));
#1317=CARTESIAN_POINT('Origin',(19.5000003427146,-106.500001266599,-30.));
#1318=CARTESIAN_POINT('',(9.75000017135688,-106.5000012666,-32.4));
#1319=CARTESIAN_POINT('',(9.75000017135688,-106.5000012666,-30.));
#1320=CARTESIAN_POINT('Origin',(4.00000013411045,-112.545087829131,-30.));
#1321=CARTESIAN_POINT('',(-4.00000013411049,-112.545087829131,-32.4));
#1322=CARTESIAN_POINT('',(4.00000013411044,-112.545087829131,-32.4));
#1323=CARTESIAN_POINT('',(2.00000006705523,-112.545087829131,-32.4));
#1324=CARTESIAN_POINT('',(-4.00000013411048,-112.545087829131,-30.));
#1325=CARTESIAN_POINT('',(-4.00000013411048,-112.545087829131,-30.));
#1326=CARTESIAN_POINT('',(4.00000013411045,-112.545087829131,-30.));
#1327=CARTESIAN_POINT('',(2.00000006705523,-112.545087829131,-30.));
#1328=CARTESIAN_POINT('',(4.00000013411045,-112.545087829131,-30.));
#1329=CARTESIAN_POINT('Origin',(4.00000013411044,-107.545087829131,-30.));
#1330=CARTESIAN_POINT('',(9.00000013411042,-107.545087829131,-32.4));
#1331=CARTESIAN_POINT('Origin',(4.00000013411042,-107.545087829131,-32.4));
#1332=CARTESIAN_POINT('',(9.00000013411044,-107.545087829131,-30.));
#1333=CARTESIAN_POINT('Origin',(4.00000013411044,-107.545087829131,-30.));
#1334=CARTESIAN_POINT('',(9.00000013411044,-107.545087829131,-30.));
#1335=CARTESIAN_POINT('Origin',(9.00000013411045,-73.2069845682133,-30.));
#1336=CARTESIAN_POINT('',(9.00000013411044,-73.2069845682133,-32.4));
#1337=CARTESIAN_POINT('',(9.00000013411043,-96.1034928429003,-32.4));
#1338=CARTESIAN_POINT('',(9.00000013411045,-73.2069845682133,-30.));
#1339=CARTESIAN_POINT('',(9.00000013411044,-96.1034928429003,-30.));
#1340=CARTESIAN_POINT('',(9.00000013411045,-73.2069845682133,-30.));
#1341=CARTESIAN_POINT('Origin',(4.00000013411044,-73.2069845682133,-30.));
#1342=CARTESIAN_POINT('',(4.00000013411043,-68.2069845682133,-32.4));
#1343=CARTESIAN_POINT('Origin',(4.00000013411042,-73.2069845682133,-32.4));
#1344=CARTESIAN_POINT('',(4.00000013411045,-68.2069845682133,-30.));
#1345=CARTESIAN_POINT('Origin',(4.00000013411044,-73.2069845682133,-30.));
#1346=CARTESIAN_POINT('',(4.00000013411045,-68.2069845682133,-30.));
#1347=CARTESIAN_POINT('Origin',(-4.00000013411048,-68.2069845682133,-30.));
#1348=CARTESIAN_POINT('',(-4.00000013411049,-68.2069845682133,-32.4));
#1349=CARTESIAN_POINT('',(-2.00000006705523,-68.2069845682133,-32.4));
#1350=CARTESIAN_POINT('',(-4.00000013411048,-68.2069845682133,-30.));
#1351=CARTESIAN_POINT('',(-2.00000006705523,-68.2069845682133,-30.));
#1352=CARTESIAN_POINT('',(-4.00000013411048,-68.2069845682133,-30.));
#1353=CARTESIAN_POINT('Origin',(-4.00000013411047,-73.2069845682133,-30.));
#1354=CARTESIAN_POINT('',(-9.00000013411048,-73.2069845682133,-32.4));
#1355=CARTESIAN_POINT('Origin',(-4.00000013411048,-73.2069845682133,-32.4));
#1356=CARTESIAN_POINT('',(-9.00000013411047,-73.2069845682133,-30.));
#1357=CARTESIAN_POINT('Origin',(-4.00000013411047,-73.2069845682133,-30.));
#1358=CARTESIAN_POINT('',(-9.00000013411047,-73.2069845682133,-30.));
#1359=CARTESIAN_POINT('Origin',(-9.00000013411048,-107.545087829131,-30.));
#1360=CARTESIAN_POINT('',(-9.0000001341105,-107.545087829131,-32.4));
#1361=CARTESIAN_POINT('',(-9.0000001341105,-113.272544473359,-32.4));
#1362=CARTESIAN_POINT('',(-9.00000013411048,-107.545087829131,-30.));
#1363=CARTESIAN_POINT('',(-9.00000013411049,-113.272544473359,-30.));
#1364=CARTESIAN_POINT('',(-9.00000013411048,-107.545087829131,-30.));
#1365=CARTESIAN_POINT('Origin',(-4.00000013411047,-107.545087829131,-30.));
#1366=CARTESIAN_POINT('Origin',(-4.00000013411048,-107.545087829131,-32.4));
#1367=CARTESIAN_POINT('Origin',(-4.00000013411047,-107.545087829131,-30.));
#1368=CARTESIAN_POINT('Origin',(-26.5000003427267,-106.500001266599,-30.));
#1369=CARTESIAN_POINT('',(-19.5000003427268,-106.500001266599,-32.4));
#1370=CARTESIAN_POINT('',(-26.5000003427268,-106.500001266599,-32.4));
#1371=CARTESIAN_POINT('',(-13.2500001713633,-106.500001266599,-32.4));
#1372=CARTESIAN_POINT('',(-19.5000003427268,-106.500001266599,-30.));
#1373=CARTESIAN_POINT('',(-19.5000003427268,-106.500001266599,-30.));
#1374=CARTESIAN_POINT('',(-26.5000003427267,-106.500001266599,-30.));
#1375=CARTESIAN_POINT('',(-13.2500001713633,-106.500001266599,-30.));
#1376=CARTESIAN_POINT('',(-26.5000003427267,-106.500001266599,-30.));
#1377=CARTESIAN_POINT('Origin',(-26.5000003427267,-130.500001266599,-30.));
#1378=CARTESIAN_POINT('',(-26.5000003427268,-130.500001266599,-32.4));
#1379=CARTESIAN_POINT('',(-26.5000003427268,-124.750001192093,-32.4));
#1380=CARTESIAN_POINT('',(-26.5000003427267,-130.500001266599,-30.));
#1381=CARTESIAN_POINT('',(-26.5000003427267,-124.750001192093,-30.));
#1382=CARTESIAN_POINT('',(-26.5000003427267,-130.500001266599,-30.));
#1383=CARTESIAN_POINT('Origin',(-19.5000003427267,-130.500001266599,-30.));
#1384=CARTESIAN_POINT('',(-19.5000003427268,-130.500001266599,-32.4));
#1385=CARTESIAN_POINT('',(-9.75000017136336,-130.500001266599,-32.4));
#1386=CARTESIAN_POINT('',(-19.5000003427267,-130.500001266599,-30.));
#1387=CARTESIAN_POINT('',(-9.75000017136336,-130.500001266599,-30.));
#1388=CARTESIAN_POINT('',(-19.5000003427267,-130.500001266599,-30.));
#1389=CARTESIAN_POINT('Origin',(-19.5000003427268,-106.500001266599,-30.));
#1390=CARTESIAN_POINT('',(-19.5000003427268,-112.750001192093,-32.4));
#1391=CARTESIAN_POINT('',(-19.5000003427267,-112.750001192093,-30.));
#1392=CARTESIAN_POINT('Origin',(26.5000003427267,-68.5000012665987,-30.));
#1393=CARTESIAN_POINT('',(26.5000003427267,-92.5000012665986,-32.4));
#1394=CARTESIAN_POINT('',(26.5000003427267,-68.5000012665987,-32.4));
#1395=CARTESIAN_POINT('',(26.5000003427267,-93.750001192093,-32.4));
#1396=CARTESIAN_POINT('',(26.5000003427267,-92.5000012665986,-30.));
#1397=CARTESIAN_POINT('',(26.5000003427267,-92.5000012665986,-30.));
#1398=CARTESIAN_POINT('',(26.5000003427267,-68.5000012665987,-30.));
#1399=CARTESIAN_POINT('',(26.5000003427267,-93.750001192093,-30.));
#1400=CARTESIAN_POINT('',(26.5000003427267,-68.5000012665987,-30.));
#1401=CARTESIAN_POINT('Origin',(19.5000003427222,-68.500001266599,-30.));
#1402=CARTESIAN_POINT('',(19.5000003427222,-68.500001266599,-32.4));
#1403=CARTESIAN_POINT('',(9.75000017136007,-68.5000012665994,-32.4));
#1404=CARTESIAN_POINT('',(19.5000003427222,-68.500001266599,-30.));
#1405=CARTESIAN_POINT('',(9.75000017136007,-68.5000012665994,-30.));
#1406=CARTESIAN_POINT('',(19.5000003427222,-68.500001266599,-30.));
#1407=CARTESIAN_POINT('Origin',(19.5000003427231,-92.5000012665989,-30.));
#1408=CARTESIAN_POINT('',(19.5000003427231,-92.5000012665989,-32.4));
#1409=CARTESIAN_POINT('',(19.5000003427237,-105.750001192093,-32.4));
#1410=CARTESIAN_POINT('',(19.5000003427231,-92.5000012665989,-30.));
#1411=CARTESIAN_POINT('',(19.5000003427237,-105.750001192093,-30.));
#1412=CARTESIAN_POINT('',(19.5000003427231,-92.5000012665989,-30.));
#1413=CARTESIAN_POINT('Origin',(26.5000003427267,-92.5000012665986,-30.));
#1414=CARTESIAN_POINT('',(13.2500001713627,-92.5000012665993,-32.4));
#1415=CARTESIAN_POINT('',(13.2500001713627,-92.5000012665993,-30.));
#1416=CARTESIAN_POINT('Origin',(-4.00000013410942,-162.838104661627,-30.));
#1417=CARTESIAN_POINT('',(-9.00000013410945,-162.838104661627,-32.4));
#1418=CARTESIAN_POINT('',(-4.00000013410943,-167.838104661627,-32.4));
#1419=CARTESIAN_POINT('Origin',(-4.00000013410943,-162.838104661627,-32.4));
#1420=CARTESIAN_POINT('',(-9.00000013410943,-162.838104661627,-30.));
#1421=CARTESIAN_POINT('',(-9.00000013410943,-162.838104661627,-30.));
#1422=CARTESIAN_POINT('',(-4.00000013410942,-167.838104661627,-30.));
#1423=CARTESIAN_POINT('Origin',(-4.00000013410942,-162.838104661627,-30.));
#1424=CARTESIAN_POINT('',(-4.00000013410942,-167.838104661627,-30.));
#1425=CARTESIAN_POINT('Origin',(4.00000013411046,-167.838104661627,-30.));
#1426=CARTESIAN_POINT('',(4.00000013411044,-167.838104661627,-32.4));
#1427=CARTESIAN_POINT('',(2.00000006705523,-167.838104661627,-32.4));
#1428=CARTESIAN_POINT('',(4.00000013411046,-167.838104661627,-30.));
#1429=CARTESIAN_POINT('',(2.00000006705523,-167.838104661627,-30.));
#1430=CARTESIAN_POINT('',(4.00000013411046,-167.838104661627,-30.));
#1431=CARTESIAN_POINT('Origin',(4.00000013411046,-162.838104661627,-30.));
#1432=CARTESIAN_POINT('',(9.00000013411044,-162.838104661627,-32.4));
#1433=CARTESIAN_POINT('Origin',(4.00000013411044,-162.838104661627,-32.4));
#1434=CARTESIAN_POINT('',(9.00000013411046,-162.838104661627,-30.));
#1435=CARTESIAN_POINT('Origin',(4.00000013411046,-162.838104661627,-30.));
#1436=CARTESIAN_POINT('',(9.00000013411046,-162.838104661627,-30.));
#1437=CARTESIAN_POINT('Origin',(9.00000013411046,-128.500001400709,-30.));
#1438=CARTESIAN_POINT('',(9.00000013411044,-128.500001400709,-32.4));
#1439=CARTESIAN_POINT('',(9.00000013411044,-123.750001259148,-32.4));
#1440=CARTESIAN_POINT('',(9.00000013411046,-128.500001400709,-30.));
#1441=CARTESIAN_POINT('',(9.00000013411046,-123.750001259148,-30.));
#1442=CARTESIAN_POINT('',(9.00000013411046,-128.500001400709,-30.));
#1443=CARTESIAN_POINT('Origin',(4.00000013411044,-128.500001400709,-30.));
#1444=CARTESIAN_POINT('',(4.00000013411043,-123.500001400709,-32.4));
#1445=CARTESIAN_POINT('Origin',(4.00000013411042,-128.500001400709,-32.4));
#1446=CARTESIAN_POINT('',(4.00000013411045,-123.500001400709,-30.));
#1447=CARTESIAN_POINT('Origin',(4.00000013411044,-128.500001400709,-30.));
#1448=CARTESIAN_POINT('',(4.00000013411045,-123.500001400709,-30.));
#1449=CARTESIAN_POINT('Origin',(-4.00000013410931,-123.500001400709,-30.));
#1450=CARTESIAN_POINT('',(-4.00000013410932,-123.500001400709,-32.4));
#1451=CARTESIAN_POINT('',(-2.00000006705465,-123.500001400709,-32.4));
#1452=CARTESIAN_POINT('',(-4.00000013410931,-123.500001400709,-30.));
#1453=CARTESIAN_POINT('',(-2.00000006705465,-123.500001400709,-30.));
#1454=CARTESIAN_POINT('',(-4.00000013410931,-123.500001400709,-30.));
#1455=CARTESIAN_POINT('Origin',(-4.00000013410931,-128.500001400709,-30.));
#1456=CARTESIAN_POINT('',(-9.0000001341094,-128.500001400709,-32.4));
#1457=CARTESIAN_POINT('Origin',(-4.00000013410933,-128.500001400709,-32.4));
#1458=CARTESIAN_POINT('',(-9.00000013410938,-128.500001400709,-30.));
#1459=CARTESIAN_POINT('Origin',(-4.00000013410931,-128.500001400709,-30.));
#1460=CARTESIAN_POINT('',(-9.00000013410938,-128.500001400709,-30.));
#1461=CARTESIAN_POINT('Origin',(-9.00000013410943,-162.838104661627,-30.));
#1462=CARTESIAN_POINT('',(-9.00000013410942,-140.919052889607,-32.4));
#1463=CARTESIAN_POINT('',(-9.0000001341094,-140.919052889607,-30.));
#1464=CARTESIAN_POINT('Origin',(-26.5000003427267,-68.5000012665987,-30.));
#1465=CARTESIAN_POINT('',(-19.5000003427267,-68.5000012665987,-32.4));
#1466=CARTESIAN_POINT('',(-26.5000003427268,-68.5000012665987,-32.4));
#1467=CARTESIAN_POINT('',(-13.2500001713634,-68.5000012665987,-32.4));
#1468=CARTESIAN_POINT('',(-19.5000003427267,-68.5000012665987,-30.));
#1469=CARTESIAN_POINT('',(-19.5000003427267,-68.5000012665987,-30.));
#1470=CARTESIAN_POINT('',(-26.5000003427267,-68.5000012665987,-30.));
#1471=CARTESIAN_POINT('',(-13.2500001713634,-68.5000012665987,-30.));
#1472=CARTESIAN_POINT('',(-26.5000003427267,-68.5000012665987,-30.));
#1473=CARTESIAN_POINT('Origin',(-26.5000003427267,-92.5000012665987,-30.));
#1474=CARTESIAN_POINT('',(-26.5000003427268,-92.5000012665987,-32.4));
#1475=CARTESIAN_POINT('',(-26.5000003427268,-105.750001192093,-32.4));
#1476=CARTESIAN_POINT('',(-26.5000003427267,-92.5000012665987,-30.));
#1477=CARTESIAN_POINT('',(-26.5000003427267,-105.750001192093,-30.));
#1478=CARTESIAN_POINT('',(-26.5000003427267,-92.5000012665987,-30.));
#1479=CARTESIAN_POINT('Origin',(-19.5000003427267,-92.5000012665987,-30.));
#1480=CARTESIAN_POINT('',(-19.5000003427267,-92.5000012665987,-32.4));
#1481=CARTESIAN_POINT('',(-9.75000017136336,-92.5000012665987,-32.4));
#1482=CARTESIAN_POINT('',(-19.5000003427267,-92.5000012665987,-30.));
#1483=CARTESIAN_POINT('',(-9.75000017136336,-92.5000012665987,-30.));
#1484=CARTESIAN_POINT('',(-19.5000003427267,-92.5000012665987,-30.));
#1485=CARTESIAN_POINT('Origin',(-19.5000003427267,-68.5000012665987,-30.));
#1486=CARTESIAN_POINT('',(-19.5000003427267,-93.750001192093,-32.4));
#1487=CARTESIAN_POINT('',(-19.5000003427267,-93.750001192093,-30.));
#1488=CARTESIAN_POINT('Origin',(-19.5000003427267,-168.500001266599,-30.));
#1489=CARTESIAN_POINT('',(-26.5000003427268,-168.500001266599,-32.4));
#1490=CARTESIAN_POINT('',(-19.5000003427267,-168.500001266599,-32.4));
#1491=CARTESIAN_POINT('',(-9.75000017136311,-168.500001266599,-32.4));
#1492=CARTESIAN_POINT('',(-26.5000003427268,-168.500001266599,-30.));
#1493=CARTESIAN_POINT('',(-26.5000003427268,-168.500001266599,-30.));
#1494=CARTESIAN_POINT('',(-19.5000003427267,-168.500001266599,-30.));
#1495=CARTESIAN_POINT('',(-9.75000017136311,-168.500001266599,-30.));
#1496=CARTESIAN_POINT('',(-19.5000003427267,-168.500001266599,-30.));
#1497=CARTESIAN_POINT('Origin',(-19.5000003427267,-144.500001266599,-30.));
#1498=CARTESIAN_POINT('',(-19.5000003427267,-144.500001266599,-32.4));
#1499=CARTESIAN_POINT('',(-19.5000003427267,-131.750001192093,-32.4));
#1500=CARTESIAN_POINT('',(-19.5000003427267,-144.500001266599,-30.));
#1501=CARTESIAN_POINT('',(-19.5000003427267,-131.750001192093,-30.));
#1502=CARTESIAN_POINT('',(-19.5000003427267,-144.500001266599,-30.));
#1503=CARTESIAN_POINT('Origin',(-26.5000003427267,-144.500001266599,-30.));
#1504=CARTESIAN_POINT('',(-26.5000003427268,-144.500001266599,-32.4));
#1505=CARTESIAN_POINT('',(-13.2500001713634,-144.500001266599,-32.4));
#1506=CARTESIAN_POINT('',(-26.5000003427267,-144.500001266599,-30.));
#1507=CARTESIAN_POINT('',(-13.2500001713634,-144.500001266599,-30.));
#1508=CARTESIAN_POINT('',(-26.5000003427267,-144.500001266599,-30.));
#1509=CARTESIAN_POINT('Origin',(-26.5000003427268,-168.500001266599,-30.));
#1510=CARTESIAN_POINT('',(-26.5000003427268,-143.750001192093,-32.4));
#1511=CARTESIAN_POINT('',(-26.5000003427267,-143.750001192093,-30.));
#1512=CARTESIAN_POINT('Origin',(19.500000342716,-144.500001266599,-30.));
#1513=CARTESIAN_POINT('',(26.5000003427267,-144.500001266599,-32.4));
#1514=CARTESIAN_POINT('',(19.500000342716,-144.500001266599,-32.4));
#1515=CARTESIAN_POINT('',(9.75000017135892,-144.5000012666,-32.4));
#1516=CARTESIAN_POINT('',(26.5000003427267,-144.500001266599,-30.));
#1517=CARTESIAN_POINT('',(26.5000003427267,-144.500001266599,-30.));
#1518=CARTESIAN_POINT('',(19.500000342716,-144.500001266599,-30.));
#1519=CARTESIAN_POINT('',(9.75000017135892,-144.5000012666,-30.));
#1520=CARTESIAN_POINT('',(19.500000342716,-144.500001266599,-30.));
#1521=CARTESIAN_POINT('Origin',(19.5000003427177,-168.500001266599,-30.));
#1522=CARTESIAN_POINT('',(19.5000003427177,-168.500001266599,-32.4));
#1523=CARTESIAN_POINT('',(19.5000003427159,-143.750001192093,-32.4));
#1524=CARTESIAN_POINT('',(19.5000003427177,-168.500001266599,-30.));
#1525=CARTESIAN_POINT('',(19.500000342716,-143.750001192093,-30.));
#1526=CARTESIAN_POINT('',(19.5000003427177,-168.500001266599,-30.));
#1527=CARTESIAN_POINT('Origin',(26.5000003427267,-168.500001266599,-30.));
#1528=CARTESIAN_POINT('',(26.5000003427267,-168.500001266599,-32.4));
#1529=CARTESIAN_POINT('',(13.2500001713656,-168.5000012666,-32.4));
#1530=CARTESIAN_POINT('',(26.5000003427267,-168.500001266599,-30.));
#1531=CARTESIAN_POINT('',(13.2500001713656,-168.5000012666,-30.));
#1532=CARTESIAN_POINT('',(26.5000003427267,-168.500001266599,-30.));
#1533=CARTESIAN_POINT('Origin',(26.5000003427267,-144.500001266599,-30.));
#1534=CARTESIAN_POINT('',(26.5000003427267,-131.750001192093,-32.4));
#1535=CARTESIAN_POINT('',(26.5000003427267,-131.750001192093,-30.));
#1536=CARTESIAN_POINT('Ctrl Pts',(32.2436821527034,-152.251011464326,-29.8973116089507));
#1537=CARTESIAN_POINT('Ctrl Pts',(33.0299713133085,-140.967154174452,-29.9961533502939));
#1538=CARTESIAN_POINT('Ctrl Pts',(33.6496059775399,-129.688565176149,-29.9929095998665));
#1539=CARTESIAN_POINT('Ctrl Pts',(34.1025861453976,-118.415244469416,-29.8875803576684));
#1540=CARTESIAN_POINT('Ctrl Pts',(32.2436821527034,-152.251011464326,-29.9315410726338));
#1541=CARTESIAN_POINT('Ctrl Pts',(33.0299713133085,-140.967154174452,-30.0317087349095));
#1542=CARTESIAN_POINT('Ctrl Pts',(33.6496059775399,-129.688565176149,-30.0295462346245));
#1543=CARTESIAN_POINT('Ctrl Pts',(34.1025861453976,-118.415244469416,-29.9250535717789));
#1544=CARTESIAN_POINT('Ctrl Pts',(32.2436821527034,-152.251011464326,-29.9657705363169));
#1545=CARTESIAN_POINT('Ctrl Pts',(33.0299713133085,-140.967154174452,-30.067264119525));
#1546=CARTESIAN_POINT('Ctrl Pts',(33.6496059775399,-129.688565176149,-30.0661828693826));
#1547=CARTESIAN_POINT('Ctrl Pts',(34.1025861453976,-118.415244469416,-29.9625267858895));
#1548=CARTESIAN_POINT('Ctrl Pts',(32.2436821527034,-152.251011464326,-30.));
#1549=CARTESIAN_POINT('Ctrl Pts',(33.0299713133085,-140.967154174452,-30.1028195041406));
#1550=CARTESIAN_POINT('Ctrl Pts',(33.6496059775399,-129.688565176149,-30.1028195041406));
#1551=CARTESIAN_POINT('Ctrl Pts',(34.1025861453976,-118.415244469416,-30.));
#1552=CARTESIAN_POINT('',(32.2436821527034,-152.251011464326,-30.));
#1553=CARTESIAN_POINT('',(34.1025861453976,-118.415244469416,-30.));
#1554=CARTESIAN_POINT('Ctrl Pts',(32.2436821527034,-152.251011464326,-30.));
#1555=CARTESIAN_POINT('Ctrl Pts',(33.0289686552682,-140.981543092429,-30.));
#1556=CARTESIAN_POINT('Ctrl Pts',(33.6490287158308,-129.702931492471,-30.));
#1557=CARTESIAN_POINT('Ctrl Pts',(34.1025861453976,-118.415244469416,-30.));
#1558=CARTESIAN_POINT('Ctrl Pts',(32.2436821527034,-152.251011464326,-30.));
#1559=CARTESIAN_POINT('Ctrl Pts',(33.0299713133085,-140.967154174452,-30.1028195041406));
#1560=CARTESIAN_POINT('Ctrl Pts',(33.6496059775399,-129.688565176149,-30.1028195041406));
#1561=CARTESIAN_POINT('Ctrl Pts',(34.1025861453976,-118.415244469416,-30.));
#1562=CARTESIAN_POINT('Ctrl Pts',(-30.3434152012927,-176.000002235174,-29.6319471678181));
#1563=CARTESIAN_POINT('Ctrl Pts',(-33.7817375351828,-137.94014374813,-30.464657762705));
#1564=CARTESIAN_POINT('Ctrl Pts',(-35.3265500450434,-99.9401430030721,-30.1291446046878));
#1565=CARTESIAN_POINT('Ctrl Pts',(-34.9778527308744,-62.0000000000003,-28.6254076937666));
#1566=CARTESIAN_POINT('Ctrl Pts',(-29.3515317228529,-176.000002235174,-30.6034437904001));
#1567=CARTESIAN_POINT('Ctrl Pts',(-32.6529256192773,-137.94014374813,-31.5610725990857));
#1568=CARTESIAN_POINT('Ctrl Pts',(-34.0951746246783,-99.940143003072,-31.3211263786783));
#1569=CARTESIAN_POINT('Ctrl Pts',(-33.678278739056,-62.0000000000003,-29.8836051291777));
#1570=CARTESIAN_POINT('Ctrl Pts',(-28.3596482444132,-176.000002235174,-31.5749404129821));
#1571=CARTESIAN_POINT('Ctrl Pts',(-31.5241137033717,-137.94014374813,-32.6574874354665));
#1572=CARTESIAN_POINT('Ctrl Pts',(-32.8637992043132,-99.9401430030721,-32.5131081526688));
#1573=CARTESIAN_POINT('Ctrl Pts',(-32.3787047472376,-62.0000000000003,-31.1418025645889));
#1574=CARTESIAN_POINT('Ctrl Pts',(-27.3677647659734,-176.000002235174,-32.5464370355642));
#1575=CARTESIAN_POINT('Ctrl Pts',(-30.3953017874661,-137.94014374813,-33.7539022718473));
#1576=CARTESIAN_POINT('Ctrl Pts',(-31.632423783948,-99.9401430030721,-33.7050899266592));
#1577=CARTESIAN_POINT('Ctrl Pts',(-31.0791307554192,-62.0000000000003,-32.4));
#1578=CARTESIAN_POINT('',(-32.2436821527034,-152.251011464326,-30.));
#1579=CARTESIAN_POINT('',(-29.9676387807181,-176.000002235174,-30.));
#1580=CARTESIAN_POINT('Ctrl Pts',(-32.2436821527035,-152.251011464325,-30.));
#1581=CARTESIAN_POINT('Ctrl Pts',(-31.6169755841572,-160.180788429091,-30.));
#1582=CARTESIAN_POINT('Ctrl Pts',(-30.8575779713838,-168.095369382795,-30.));
#1583=CARTESIAN_POINT('Ctrl Pts',(-29.9676387807181,-176.000002235174,-30.));
#1584=CARTESIAN_POINT('',(-34.1025861453976,-118.415244469416,-30.));
#1585=CARTESIAN_POINT('Ctrl Pts',(-32.2436821527034,-152.251011464326,-30.));
#1586=CARTESIAN_POINT('Ctrl Pts',(-33.0299713133085,-140.967154174452,-30.1028195041406));
#1587=CARTESIAN_POINT('Ctrl Pts',(-33.6496059775399,-129.688565176149,-30.1028195041406));
#1588=CARTESIAN_POINT('Ctrl Pts',(-34.1025861453976,-118.415244469416,-30.));
#1589=CARTESIAN_POINT('',(-33.5580561550286,-62.0000000000003,-30.));
#1590=CARTESIAN_POINT('Ctrl Pts',(-33.5580561550286,-62.0000000000003,-30.));
#1591=CARTESIAN_POINT('Ctrl Pts',(-34.0819400342404,-72.4519708771981,-30.));
#1592=CARTESIAN_POINT('Ctrl Pts',(-34.3709425674419,-82.9086971025704,-30.));
#1593=CARTESIAN_POINT('Ctrl Pts',(-34.4669144366443,-101.723347623986,-30.));
#1594=CARTESIAN_POINT('Ctrl Pts',(-34.3594862480543,-110.069623341049,-30.));
#1595=CARTESIAN_POINT('Ctrl Pts',(-34.1025861453976,-118.415244469416,-30.));
#1596=CARTESIAN_POINT('',(-31.0791307554192,-62.0000000000003,-32.4));
#1597=CARTESIAN_POINT('Ctrl Pts',(-31.0791307554192,-62.0000000000003,-32.4));
#1598=CARTESIAN_POINT('Ctrl Pts',(-31.9054392219557,-62.0000000000003,-31.6));
#1599=CARTESIAN_POINT('Ctrl Pts',(-32.7317476884921,-62.0000000000003,-30.8));
#1600=CARTESIAN_POINT('Ctrl Pts',(-33.5580561550286,-62.0000000000003,-30.));
#1601=CARTESIAN_POINT('',(-27.5172747826132,-176.000002235174,-32.4));
#1602=CARTESIAN_POINT('Ctrl Pts',(-27.5172747826132,-176.000002235174,-32.4));
#1603=CARTESIAN_POINT('Ctrl Pts',(-28.5420236684799,-166.848423296182,-32.4));
#1604=CARTESIAN_POINT('Ctrl Pts',(-29.3927403245406,-157.685225650993,-32.4));
#1605=CARTESIAN_POINT('Ctrl Pts',(-30.7021539617604,-139.823739242193,-32.4));
#1606=CARTESIAN_POINT('Ctrl Pts',(-31.1789764443162,-131.139776529668,-32.4));
#1607=CARTESIAN_POINT('Ctrl Pts',(-31.8897483010676,-111.560401797888,-32.4));
#1608=CARTESIAN_POINT('Ctrl Pts',(-32.0316772863236,-100.675913121498,-32.3999999998679));
#1609=CARTESIAN_POINT('Ctrl Pts',(-31.8231358533093,-80.5172816720373,-32.3999999998679));
#1610=CARTESIAN_POINT('Ctrl Pts',(-31.5430040293423,-71.2565105723785,-32.4));
#1611=CARTESIAN_POINT('Ctrl Pts',(-31.0791307554192,-62.0000000000003,-32.4));
#1612=CARTESIAN_POINT('Ctrl Pts',(-29.9676387807181,-176.000002235174,-30.));
#1613=CARTESIAN_POINT('Ctrl Pts',(-29.1508507813498,-176.000002235174,-30.8));
#1614=CARTESIAN_POINT('Ctrl Pts',(-28.3340627819815,-176.000002235174,-31.6));
#1615=CARTESIAN_POINT('Ctrl Pts',(-27.5172747826132,-176.000002235174,-32.4));
#1616=CARTESIAN_POINT('Ctrl Pts',(30.3434152012927,-176.000002235174,-29.6319471678181));
#1617=CARTESIAN_POINT('Ctrl Pts',(33.7817375351828,-137.94014374813,-30.464657762705));
#1618=CARTESIAN_POINT('Ctrl Pts',(35.3265500450434,-99.940143003072,-30.1291446046878));
#1619=CARTESIAN_POINT('Ctrl Pts',(34.9778527308744,-62.0000000000003,-28.6254076937666));
#1620=CARTESIAN_POINT('Ctrl Pts',(29.3515317228529,-176.000002235174,-30.6034437904001));
#1621=CARTESIAN_POINT('Ctrl Pts',(32.6529256192773,-137.94014374813,-31.5610725990857));
#1622=CARTESIAN_POINT('Ctrl Pts',(34.0951746246783,-99.940143003072,-31.3211263786783));
#1623=CARTESIAN_POINT('Ctrl Pts',(33.678278739056,-62.0000000000003,-29.8836051291777));
#1624=CARTESIAN_POINT('Ctrl Pts',(28.3596482444132,-176.000002235174,-31.5749404129821));
#1625=CARTESIAN_POINT('Ctrl Pts',(31.5241137033717,-137.94014374813,-32.6574874354665));
#1626=CARTESIAN_POINT('Ctrl Pts',(32.8637992043132,-99.940143003072,-32.5131081526688));
#1627=CARTESIAN_POINT('Ctrl Pts',(32.3787047472376,-62.0000000000003,-31.1418025645889));
#1628=CARTESIAN_POINT('Ctrl Pts',(27.3677647659734,-176.000002235174,-32.5464370355642));
#1629=CARTESIAN_POINT('Ctrl Pts',(30.3953017874661,-137.94014374813,-33.7539022718473));
#1630=CARTESIAN_POINT('Ctrl Pts',(31.632423783948,-99.940143003072,-33.7050899266592));
#1631=CARTESIAN_POINT('Ctrl Pts',(31.0791307554192,-62.0000000000003,-32.4));
#1632=CARTESIAN_POINT('',(29.9676387807181,-176.000002235174,-30.));
#1633=CARTESIAN_POINT('Ctrl Pts',(29.9676387807181,-176.000002235174,-30.));
#1634=CARTESIAN_POINT('Ctrl Pts',(30.8575779713838,-168.095369382795,-30.));
#1635=CARTESIAN_POINT('Ctrl Pts',(31.6169755841571,-160.180788429091,-30.));
#1636=CARTESIAN_POINT('Ctrl Pts',(32.2436821527035,-152.251011464325,-30.));
#1637=CARTESIAN_POINT('',(27.5172747826132,-176.000002235174,-32.4));
#1638=CARTESIAN_POINT('Ctrl Pts',(27.5172747826132,-176.000002235174,-32.4));
#1639=CARTESIAN_POINT('Ctrl Pts',(28.3340627819815,-176.000002235174,-31.6));
#1640=CARTESIAN_POINT('Ctrl Pts',(29.1508507813498,-176.000002235174,-30.8));
#1641=CARTESIAN_POINT('Ctrl Pts',(29.9676387807181,-176.000002235174,-30.));
#1642=CARTESIAN_POINT('',(31.0791307554192,-62.0000000000003,-32.4));
#1643=CARTESIAN_POINT('Ctrl Pts',(31.0791307554192,-62.0000000000003,-32.4));
#1644=CARTESIAN_POINT('Ctrl Pts',(31.7783688692357,-75.9531750523419,-32.4));
#1645=CARTESIAN_POINT('Ctrl Pts',(32.0598081449321,-89.9101129342682,-32.3999999999999));
#1646=CARTESIAN_POINT('Ctrl Pts',(31.8282772237754,-113.511116644062,-32.3999999999999));
#1647=CARTESIAN_POINT('Ctrl Pts',(31.5351083651758,-123.13299498437,-32.4));
#1648=CARTESIAN_POINT('Ctrl Pts',(30.6610453529387,-140.281247621987,-32.4));
#1649=CARTESIAN_POINT('Ctrl Pts',(30.1568415745094,-147.801397343583,-32.3999999999997));
#1650=CARTESIAN_POINT('Ctrl Pts',(28.9609649042186,-162.220552111897,-32.3999999999997));
#1651=CARTESIAN_POINT('Ctrl Pts',(28.2883258417753,-169.114086347646,-32.4));
#1652=CARTESIAN_POINT('Ctrl Pts',(27.5172747826132,-176.000002235174,-32.4));
#1653=CARTESIAN_POINT('',(33.5580561550286,-62.0000000000003,-30.));
#1654=CARTESIAN_POINT('Ctrl Pts',(33.5580561550286,-62.0000000000003,-30.));
#1655=CARTESIAN_POINT('Ctrl Pts',(32.7317476884921,-62.0000000000003,-30.8));
#1656=CARTESIAN_POINT('Ctrl Pts',(31.9054392219557,-62.0000000000003,-31.6));
#1657=CARTESIAN_POINT('Ctrl Pts',(31.0791307554192,-62.0000000000003,-32.4));
#1658=CARTESIAN_POINT('Ctrl Pts',(34.1025861453976,-118.415244469416,-30.));
#1659=CARTESIAN_POINT('Ctrl Pts',(34.372665982528,-109.641468313657,-30.));
#1660=CARTESIAN_POINT('Ctrl Pts',(34.4775370696491,-100.867187150295,-30.));
#1661=CARTESIAN_POINT('Ctrl Pts',(34.3469007064201,-82.0528404525459,-30.));
#1662=CARTESIAN_POINT('Ctrl Pts',(34.0604937454549,-72.0240974596242,-30.));
#1663=CARTESIAN_POINT('Ctrl Pts',(33.5580561550286,-62.0000000000003,-30.));
#1664=CARTESIAN_POINT('Ctrl Pts',(-32.2436821527034,-152.251011464326,-29.8973116089508));
#1665=CARTESIAN_POINT('Ctrl Pts',(-33.0299713133085,-140.967154174452,-29.9961533502939));
#1666=CARTESIAN_POINT('Ctrl Pts',(-33.6496059775399,-129.688565176149,-29.9929095998665));
#1667=CARTESIAN_POINT('Ctrl Pts',(-34.1025861453976,-118.415244469416,-29.8875803576684));
#1668=CARTESIAN_POINT('Ctrl Pts',(-32.2436821527034,-152.251011464326,-29.9315410726338));
#1669=CARTESIAN_POINT('Ctrl Pts',(-33.0299713133085,-140.967154174452,-30.0317087349095));
#1670=CARTESIAN_POINT('Ctrl Pts',(-33.6496059775399,-129.688565176149,-30.0295462346245));
#1671=CARTESIAN_POINT('Ctrl Pts',(-34.1025861453976,-118.415244469416,-29.9250535717789));
#1672=CARTESIAN_POINT('Ctrl Pts',(-32.2436821527034,-152.251011464326,-29.9657705363169));
#1673=CARTESIAN_POINT('Ctrl Pts',(-33.0299713133085,-140.967154174452,-30.067264119525));
#1674=CARTESIAN_POINT('Ctrl Pts',(-33.6496059775399,-129.688565176149,-30.0661828693826));
#1675=CARTESIAN_POINT('Ctrl Pts',(-34.1025861453976,-118.415244469416,-29.9625267858895));
#1676=CARTESIAN_POINT('Ctrl Pts',(-32.2436821527034,-152.251011464326,-30.));
#1677=CARTESIAN_POINT('Ctrl Pts',(-33.0299713133085,-140.967154174452,-30.1028195041406));
#1678=CARTESIAN_POINT('Ctrl Pts',(-33.6496059775399,-129.688565176149,-30.1028195041406));
#1679=CARTESIAN_POINT('Ctrl Pts',(-34.1025861453976,-118.415244469416,-30.));
#1680=CARTESIAN_POINT('Ctrl Pts',(-34.1025861453976,-118.415244469416,-30.));
#1681=CARTESIAN_POINT('Ctrl Pts',(-33.6490287158308,-129.702931492471,-30.));
#1682=CARTESIAN_POINT('Ctrl Pts',(-33.0289686552682,-140.981543092429,-30.));
#1683=CARTESIAN_POINT('Ctrl Pts',(-32.2436821527034,-152.251011464326,-30.));
#1684=CARTESIAN_POINT('Origin',(8.88178419700125E-15,-119.000001117587,
-30.));
#1685=CARTESIAN_POINT('',(8.8256788490073E-15,-62.0000000000003,-30.));
#1686=CARTESIAN_POINT('',(-49.0000007301569,-176.000002235174,-30.));
#1687=CARTESIAN_POINT('Origin',(49.0000007301569,-176.000002235174,-30.));
#1688=CARTESIAN_POINT('',(-49.0000007301569,-176.000002235174,-32.4));
#1689=CARTESIAN_POINT('Origin',(8.88178419700125E-15,-119.000001117587,
-32.4));
#1690=CARTESIAN_POINT('',(8.8256788490073E-15,-62.0000000000003,-32.4));
#1691=CARTESIAN_POINT('Origin',(-49.0000007301569,-62.0000000000003,-30.));
#1692=UNCERTAINTY_MEASURE_WITH_UNIT(LENGTH_MEASURE(0.01),#1696,
'DISTANCE_ACCURACY_VALUE',
'Maximum model space distance between geometric entities at asserted c
onnectivities');
#1693=UNCERTAINTY_MEASURE_WITH_UNIT(LENGTH_MEASURE(0.01),#1696,
'DISTANCE_ACCURACY_VALUE',
'Maximum model space distance between geometric entities at asserted c
onnectivities');
#1694=(
GEOMETRIC_REPRESENTATION_CONTEXT(3)
GLOBAL_UNCERTAINTY_ASSIGNED_CONTEXT((#1692))
GLOBAL_UNIT_ASSIGNED_CONTEXT((#1696,#1698,#1699))
REPRESENTATION_CONTEXT('','3D')
);
#1695=(
GEOMETRIC_REPRESENTATION_CONTEXT(3)
GLOBAL_UNCERTAINTY_ASSIGNED_CONTEXT((#1693))
GLOBAL_UNIT_ASSIGNED_CONTEXT((#1696,#1698,#1699))
REPRESENTATION_CONTEXT('','3D')
);
#1696=(
LENGTH_UNIT()
NAMED_UNIT(*)
SI_UNIT(.MILLI.,.METRE.)
);
#1697=(
LENGTH_UNIT()
NAMED_UNIT(*)
SI_UNIT($,.METRE.)
);
#1698=(
NAMED_UNIT(*)
PLANE_ANGLE_UNIT()
SI_UNIT($,.RADIAN.)
);
#1699=(
NAMED_UNIT(*)
SI_UNIT($,.STERADIAN.)
SOLID_ANGLE_UNIT()
);
#1700=SHAPE_DEFINITION_REPRESENTATION(#1701,#1702);
#1701=PRODUCT_DEFINITION_SHAPE('',$,#1704);
#1702=SHAPE_REPRESENTATION('',(#1004),#1694);
#1703=PRODUCT_DEFINITION_CONTEXT('part definition',#1708,'design');
#1704=PRODUCT_DEFINITION('Battery plate','Battery plate',#1705,#1703);
#1705=PRODUCT_DEFINITION_FORMATION('',$,#1710);
#1706=PRODUCT_RELATED_PRODUCT_CATEGORY('Battery plate','Battery plate',
(#1710));
#1707=APPLICATION_PROTOCOL_DEFINITION('international standard',
'automotive_design',2009,#1708);
#1708=APPLICATION_CONTEXT(
'Core Data for Automotive Mechanical Design Process');
#1709=PRODUCT_CONTEXT('part definition',#1708,'mechanical');
#1710=PRODUCT('Battery plate','Battery plate',$,(#1709));
#1711=PRESENTATION_STYLE_ASSIGNMENT((#1713));
#1712=PRESENTATION_STYLE_ASSIGNMENT((#1714));
#1713=SURFACE_STYLE_USAGE(.BOTH.,#1715);
#1714=SURFACE_STYLE_USAGE(.BOTH.,#1716);
#1715=SURFACE_SIDE_STYLE('',(#1717));
#1716=SURFACE_SIDE_STYLE('',(#1718));
#1717=SURFACE_STYLE_FILL_AREA(#1719);
#1718=SURFACE_STYLE_FILL_AREA(#1720);
#1719=FILL_AREA_STYLE('Steel - Satin',(#1721));
#1720=FILL_AREA_STYLE('Bamboo Light - Semigloss',(#1722));
#1721=FILL_AREA_STYLE_COLOUR('Steel - Satin',#1723);
#1722=FILL_AREA_STYLE_COLOUR('Bamboo Light - Semigloss',#1724);
#1723=COLOUR_RGB('Steel - Satin',0.627450980392157,0.627450980392157,0.627450980392157);
#1724=COLOUR_RGB('Bamboo Light - Semigloss',0.,0.,0.);
ENDSEC;
END-ISO-10303-21;
