ISO-10303-21;
HEADER;
/* Generated by software containing ST-Developer
 * from STEP Tools, Inc. (www.steptools.com) 
 */

FILE_DESCRIPTION(
/* description */ (''),
/* implementation_level */ '2;1');

FILE_NAME(
/* name */ 'Canopy R.step',
/* time_stamp */ '2025-08-21T21:43:01+02:00',
/* author */ (''),
/* organization */ (''),
/* preprocessor_version */ 'ST-DEVELOPER v20.1',
/* originating_system */ 'Autodesk Translation Framework v14.10.0.0',
/* authorisation */ '');

FILE_SCHEMA (('AUTOMOTIVE_DESIGN { 1 0 10303 214 3 1 1 }'));
ENDSEC;

DATA;
#10=MECHANICAL_DESIGN_GEOMETRIC_PRESENTATION_REPRESENTATION('',(#13),#1628);
#11=SHAPE_REPRESENTATION_RELATIONSHIP('SRR','None',#1635,#12);
#12=ADVANCED_BREP_SHAPE_REPRESENTATION('',(#14),#1627);
#13=STYLED_ITEM('',(#1645),#14);
#14=MANIFOLD_SOLID_BREP('Canopy R',#957);
#15=FACE_BOUND('',#347,.T.);
#16=FACE_BOUND('',#348,.T.);
#17=FACE_BOUND('',#349,.T.);
#18=FACE_BOUND('',#350,.T.);
#19=FACE_BOUND('',#351,.T.);
#20=FACE_BOUND('',#352,.T.);
#21=FACE_BOUND('',#353,.T.);
#22=FACE_BOUND('',#354,.T.);
#23=FACE_BOUND('',#391,.T.);
#24=FACE_BOUND('',#392,.T.);
#25=FACE_BOUND('',#393,.T.);
#26=FACE_BOUND('',#394,.T.);
#27=FACE_BOUND('',#395,.T.);
#28=FACE_BOUND('',#396,.T.);
#29=FACE_BOUND('',#397,.T.);
#30=FACE_BOUND('',#398,.T.);
#31=LINE('',#1241,#140);
#32=LINE('',#1243,#141);
#33=LINE('',#1244,#142);
#34=LINE('',#1248,#143);
#35=LINE('',#1250,#144);
#36=LINE('',#1252,#145);
#37=LINE('',#1253,#146);
#38=LINE('',#1256,#147);
#39=LINE('',#1258,#148);
#40=LINE('',#1267,#149);
#41=LINE('',#1268,#150);
#42=LINE('',#1303,#151);
#43=LINE('',#1304,#152);
#44=LINE('',#1314,#153);
#45=LINE('',#1320,#154);
#46=LINE('',#1323,#155);
#47=LINE('',#1324,#156);
#48=LINE('',#1327,#157);
#49=LINE('',#1328,#158);
#50=LINE('',#1331,#159);
#51=LINE('',#1332,#160);
#52=LINE('',#1336,#161);
#53=LINE('',#1338,#162);
#54=LINE('',#1340,#163);
#55=LINE('',#1341,#164);
#56=LINE('',#1344,#165);
#57=LINE('',#1346,#166);
#58=LINE('',#1348,#167);
#59=LINE('',#1349,#168);
#60=LINE('',#1352,#169);
#61=LINE('',#1359,#170);
#62=LINE('',#1360,#171);
#63=LINE('',#1363,#172);
#64=LINE('',#1370,#173);
#65=LINE('',#1371,#174);
#66=LINE('',#1374,#175);
#67=LINE('',#1376,#176);
#68=LINE('',#1382,#177);
#69=LINE('',#1385,#178);
#70=LINE('',#1392,#179);
#71=LINE('',#1393,#180);
#72=LINE('',#1396,#181);
#73=LINE('',#1398,#182);
#74=LINE('',#1404,#183);
#75=LINE('',#1407,#184);
#76=LINE('',#1409,#185);
#77=LINE('',#1415,#186);
#78=LINE('',#1419,#187);
#79=LINE('',#1420,#188);
#80=LINE('',#1421,#189);
#81=LINE('',#1424,#190);
#82=LINE('',#1425,#191);
#83=LINE('',#1439,#192);
#84=LINE('',#1441,#193);
#85=LINE('',#1445,#194);
#86=LINE('',#1446,#195);
#87=LINE('',#1447,#196);
#88=LINE('',#1450,#197);
#89=LINE('',#1451,#198);
#90=LINE('',#1465,#199);
#91=LINE('',#1467,#200);
#92=LINE('',#1471,#201);
#93=LINE('',#1472,#202);
#94=LINE('',#1473,#203);
#95=LINE('',#1476,#204);
#96=LINE('',#1477,#205);
#97=LINE('',#1480,#206);
#98=LINE('',#1481,#207);
#99=LINE('',#1497,#208);
#100=LINE('',#1498,#209);
#101=LINE('',#1499,#210);
#102=LINE('',#1502,#211);
#103=LINE('',#1503,#212);
#104=LINE('',#1517,#213);
#105=LINE('',#1519,#214);
#106=LINE('',#1523,#215);
#107=LINE('',#1524,#216);
#108=LINE('',#1525,#217);
#109=LINE('',#1528,#218);
#110=LINE('',#1529,#219);
#111=LINE('',#1532,#220);
#112=LINE('',#1533,#221);
#113=LINE('',#1549,#222);
#114=LINE('',#1550,#223);
#115=LINE('',#1551,#224);
#116=LINE('',#1554,#225);
#117=LINE('',#1555,#226);
#118=LINE('',#1558,#227);
#119=LINE('',#1559,#228);
#120=LINE('',#1575,#229);
#121=LINE('',#1576,#230);
#122=LINE('',#1577,#231);
#123=LINE('',#1580,#232);
#124=LINE('',#1581,#233);
#125=LINE('',#1584,#234);
#126=LINE('',#1585,#235);
#127=LINE('',#1587,#236);
#128=LINE('',#1591,#237);
#129=LINE('',#1592,#238);
#130=LINE('',#1593,#239);
#131=LINE('',#1596,#240);
#132=LINE('',#1597,#241);
#133=LINE('',#1600,#242);
#134=LINE('',#1601,#243);
#135=LINE('',#1603,#244);
#136=LINE('',#1606,#245);
#137=LINE('',#1607,#246);
#138=LINE('',#1617,#247);
#139=LINE('',#1623,#248);
#140=VECTOR('',#1013,10.);
#141=VECTOR('',#1014,10.);
#142=VECTOR('',#1015,10.);
#143=VECTOR('',#1018,10.);
#144=VECTOR('',#1019,10.);
#145=VECTOR('',#1020,10.);
#146=VECTOR('',#1021,10.);
#147=VECTOR('',#1024,10.);
#148=VECTOR('',#1025,10.);
#149=VECTOR('',#1028,10.);
#150=VECTOR('',#1029,10.);
#151=VECTOR('',#1032,10.);
#152=VECTOR('',#1033,10.);
#153=VECTOR('',#1034,10.);
#154=VECTOR('',#1035,10.);
#155=VECTOR('',#1038,10.);
#156=VECTOR('',#1039,10.);
#157=VECTOR('',#1042,10.);
#158=VECTOR('',#1043,10.);
#159=VECTOR('',#1046,10.);
#160=VECTOR('',#1047,10.);
#161=VECTOR('',#1050,10.);
#162=VECTOR('',#1051,10.);
#163=VECTOR('',#1052,10.);
#164=VECTOR('',#1053,10.);
#165=VECTOR('',#1054,10.);
#166=VECTOR('',#1055,10.);
#167=VECTOR('',#1056,10.);
#168=VECTOR('',#1057,10.);
#169=VECTOR('',#1058,10.);
#170=VECTOR('',#1059,10.);
#171=VECTOR('',#1060,10.);
#172=VECTOR('',#1061,10.);
#173=VECTOR('',#1062,10.);
#174=VECTOR('',#1063,10.);
#175=VECTOR('',#1064,10.);
#176=VECTOR('',#1065,10.);
#177=VECTOR('',#1066,10.);
#178=VECTOR('',#1067,10.);
#179=VECTOR('',#1068,10.);
#180=VECTOR('',#1069,10.);
#181=VECTOR('',#1070,10.);
#182=VECTOR('',#1071,10.);
#183=VECTOR('',#1072,10.);
#184=VECTOR('',#1073,10.);
#185=VECTOR('',#1074,10.);
#186=VECTOR('',#1075,10.);
#187=VECTOR('',#1078,10.);
#188=VECTOR('',#1079,10.);
#189=VECTOR('',#1080,10.);
#190=VECTOR('',#1083,10.);
#191=VECTOR('',#1084,10.);
#192=VECTOR('',#1085,10.);
#193=VECTOR('',#1088,10.);
#194=VECTOR('',#1091,10.);
#195=VECTOR('',#1092,10.);
#196=VECTOR('',#1093,10.);
#197=VECTOR('',#1096,10.);
#198=VECTOR('',#1097,10.);
#199=VECTOR('',#1098,10.);
#200=VECTOR('',#1101,10.);
#201=VECTOR('',#1104,10.);
#202=VECTOR('',#1105,10.);
#203=VECTOR('',#1106,10.);
#204=VECTOR('',#1109,10.);
#205=VECTOR('',#1110,10.);
#206=VECTOR('',#1113,10.);
#207=VECTOR('',#1114,10.);
#208=VECTOR('',#1117,10.);
#209=VECTOR('',#1118,10.);
#210=VECTOR('',#1119,10.);
#211=VECTOR('',#1122,10.);
#212=VECTOR('',#1123,10.);
#213=VECTOR('',#1124,10.);
#214=VECTOR('',#1127,10.);
#215=VECTOR('',#1130,10.);
#216=VECTOR('',#1131,10.);
#217=VECTOR('',#1132,10.);
#218=VECTOR('',#1135,10.);
#219=VECTOR('',#1136,10.);
#220=VECTOR('',#1139,10.);
#221=VECTOR('',#1140,10.);
#222=VECTOR('',#1143,10.);
#223=VECTOR('',#1144,10.);
#224=VECTOR('',#1145,10.);
#225=VECTOR('',#1148,10.);
#226=VECTOR('',#1149,10.);
#227=VECTOR('',#1152,10.);
#228=VECTOR('',#1153,10.);
#229=VECTOR('',#1156,10.);
#230=VECTOR('',#1157,10.);
#231=VECTOR('',#1158,10.);
#232=VECTOR('',#1161,10.);
#233=VECTOR('',#1162,10.);
#234=VECTOR('',#1165,10.);
#235=VECTOR('',#1166,10.);
#236=VECTOR('',#1169,10.);
#237=VECTOR('',#1172,10.);
#238=VECTOR('',#1173,10.);
#239=VECTOR('',#1174,10.);
#240=VECTOR('',#1177,10.);
#241=VECTOR('',#1178,10.);
#242=VECTOR('',#1181,10.);
#243=VECTOR('',#1182,10.);
#244=VECTOR('',#1185,10.);
#245=VECTOR('',#1188,10.);
#246=VECTOR('',#1189,10.);
#247=VECTOR('',#1190,10.);
#248=VECTOR('',#1193,10.);
#249=PLANE('',#971);
#250=PLANE('',#972);
#251=PLANE('',#973);
#252=PLANE('',#974);
#253=PLANE('',#975);
#254=PLANE('',#976);
#255=PLANE('',#977);
#256=PLANE('',#978);
#257=PLANE('',#979);
#258=PLANE('',#980);
#259=PLANE('',#981);
#260=PLANE('',#982);
#261=PLANE('',#983);
#262=PLANE('',#984);
#263=PLANE('',#985);
#264=PLANE('',#986);
#265=PLANE('',#987);
#266=PLANE('',#988);
#267=PLANE('',#989);
#268=PLANE('',#990);
#269=PLANE('',#991);
#270=PLANE('',#992);
#271=PLANE('',#993);
#272=PLANE('',#994);
#273=PLANE('',#995);
#274=PLANE('',#996);
#275=PLANE('',#997);
#276=PLANE('',#998);
#277=PLANE('',#999);
#278=PLANE('',#1000);
#279=PLANE('',#1001);
#280=PLANE('',#1002);
#281=PLANE('',#1003);
#282=PLANE('',#1004);
#283=PLANE('',#1005);
#284=PLANE('',#1006);
#285=PLANE('',#1007);
#286=PLANE('',#1008);
#287=FACE_OUTER_BOUND('',#335,.T.);
#288=FACE_OUTER_BOUND('',#336,.T.);
#289=FACE_OUTER_BOUND('',#337,.T.);
#290=FACE_OUTER_BOUND('',#338,.T.);
#291=FACE_OUTER_BOUND('',#339,.T.);
#292=FACE_OUTER_BOUND('',#340,.T.);
#293=FACE_OUTER_BOUND('',#341,.T.);
#294=FACE_OUTER_BOUND('',#342,.T.);
#295=FACE_OUTER_BOUND('',#343,.T.);
#296=FACE_OUTER_BOUND('',#344,.T.);
#297=FACE_OUTER_BOUND('',#345,.T.);
#298=FACE_OUTER_BOUND('',#346,.T.);
#299=FACE_OUTER_BOUND('',#355,.T.);
#300=FACE_OUTER_BOUND('',#356,.T.);
#301=FACE_OUTER_BOUND('',#357,.T.);
#302=FACE_OUTER_BOUND('',#358,.T.);
#303=FACE_OUTER_BOUND('',#359,.T.);
#304=FACE_OUTER_BOUND('',#360,.T.);
#305=FACE_OUTER_BOUND('',#361,.T.);
#306=FACE_OUTER_BOUND('',#362,.T.);
#307=FACE_OUTER_BOUND('',#363,.T.);
#308=FACE_OUTER_BOUND('',#364,.T.);
#309=FACE_OUTER_BOUND('',#365,.T.);
#310=FACE_OUTER_BOUND('',#366,.T.);
#311=FACE_OUTER_BOUND('',#367,.T.);
#312=FACE_OUTER_BOUND('',#368,.T.);
#313=FACE_OUTER_BOUND('',#369,.T.);
#314=FACE_OUTER_BOUND('',#370,.T.);
#315=FACE_OUTER_BOUND('',#371,.T.);
#316=FACE_OUTER_BOUND('',#372,.T.);
#317=FACE_OUTER_BOUND('',#373,.T.);
#318=FACE_OUTER_BOUND('',#374,.T.);
#319=FACE_OUTER_BOUND('',#375,.T.);
#320=FACE_OUTER_BOUND('',#376,.T.);
#321=FACE_OUTER_BOUND('',#377,.T.);
#322=FACE_OUTER_BOUND('',#378,.T.);
#323=FACE_OUTER_BOUND('',#379,.T.);
#324=FACE_OUTER_BOUND('',#380,.T.);
#325=FACE_OUTER_BOUND('',#381,.T.);
#326=FACE_OUTER_BOUND('',#382,.T.);
#327=FACE_OUTER_BOUND('',#383,.T.);
#328=FACE_OUTER_BOUND('',#384,.T.);
#329=FACE_OUTER_BOUND('',#385,.T.);
#330=FACE_OUTER_BOUND('',#386,.T.);
#331=FACE_OUTER_BOUND('',#387,.T.);
#332=FACE_OUTER_BOUND('',#388,.T.);
#333=FACE_OUTER_BOUND('',#389,.T.);
#334=FACE_OUTER_BOUND('',#390,.T.);
#335=EDGE_LOOP('',(#637,#638,#639,#640));
#336=EDGE_LOOP('',(#641,#642,#643,#644));
#337=EDGE_LOOP('',(#645,#646,#647,#648));
#338=EDGE_LOOP('',(#649,#650,#651,#652));
#339=EDGE_LOOP('',(#653,#654,#655,#656));
#340=EDGE_LOOP('',(#657,#658,#659,#660));
#341=EDGE_LOOP('',(#661,#662,#663,#664));
#342=EDGE_LOOP('',(#665,#666,#667,#668));
#343=EDGE_LOOP('',(#669,#670,#671,#672));
#344=EDGE_LOOP('',(#673,#674,#675,#676));
#345=EDGE_LOOP('',(#677,#678,#679,#680));
#346=EDGE_LOOP('',(#681,#682,#683,#684,#685,#686,#687));
#347=EDGE_LOOP('',(#688,#689,#690,#691));
#348=EDGE_LOOP('',(#692,#693,#694,#695));
#349=EDGE_LOOP('',(#696,#697,#698,#699));
#350=EDGE_LOOP('',(#700,#701,#702,#703));
#351=EDGE_LOOP('',(#704,#705,#706,#707));
#352=EDGE_LOOP('',(#708,#709,#710,#711));
#353=EDGE_LOOP('',(#712,#713,#714,#715));
#354=EDGE_LOOP('',(#716,#717,#718,#719));
#355=EDGE_LOOP('',(#720,#721,#722,#723));
#356=EDGE_LOOP('',(#724,#725,#726,#727));
#357=EDGE_LOOP('',(#728,#729,#730,#731));
#358=EDGE_LOOP('',(#732,#733,#734,#735));
#359=EDGE_LOOP('',(#736,#737,#738,#739));
#360=EDGE_LOOP('',(#740,#741,#742,#743));
#361=EDGE_LOOP('',(#744,#745,#746,#747));
#362=EDGE_LOOP('',(#748,#749,#750,#751));
#363=EDGE_LOOP('',(#752,#753,#754,#755));
#364=EDGE_LOOP('',(#756,#757,#758,#759));
#365=EDGE_LOOP('',(#760,#761,#762,#763));
#366=EDGE_LOOP('',(#764,#765,#766,#767));
#367=EDGE_LOOP('',(#768,#769,#770,#771));
#368=EDGE_LOOP('',(#772,#773,#774,#775));
#369=EDGE_LOOP('',(#776,#777,#778,#779));
#370=EDGE_LOOP('',(#780,#781,#782,#783));
#371=EDGE_LOOP('',(#784,#785,#786,#787));
#372=EDGE_LOOP('',(#788,#789,#790,#791));
#373=EDGE_LOOP('',(#792,#793,#794,#795));
#374=EDGE_LOOP('',(#796,#797,#798,#799));
#375=EDGE_LOOP('',(#800,#801,#802,#803));
#376=EDGE_LOOP('',(#804,#805,#806,#807));
#377=EDGE_LOOP('',(#808,#809,#810,#811));
#378=EDGE_LOOP('',(#812,#813,#814,#815));
#379=EDGE_LOOP('',(#816,#817,#818,#819));
#380=EDGE_LOOP('',(#820,#821,#822,#823));
#381=EDGE_LOOP('',(#824,#825,#826,#827));
#382=EDGE_LOOP('',(#828,#829,#830,#831));
#383=EDGE_LOOP('',(#832,#833,#834,#835));
#384=EDGE_LOOP('',(#836,#837,#838,#839));
#385=EDGE_LOOP('',(#840,#841,#842,#843));
#386=EDGE_LOOP('',(#844,#845,#846,#847));
#387=EDGE_LOOP('',(#848,#849,#850,#851));
#388=EDGE_LOOP('',(#852,#853,#854,#855));
#389=EDGE_LOOP('',(#856,#857,#858,#859));
#390=EDGE_LOOP('',(#860,#861,#862,#863,#864,#865,#866));
#391=EDGE_LOOP('',(#867,#868,#869,#870));
#392=EDGE_LOOP('',(#871,#872,#873,#874));
#393=EDGE_LOOP('',(#875,#876,#877,#878));
#394=EDGE_LOOP('',(#879,#880,#881,#882));
#395=EDGE_LOOP('',(#883,#884,#885,#886));
#396=EDGE_LOOP('',(#887,#888,#889,#890));
#397=EDGE_LOOP('',(#891,#892,#893,#894));
#398=EDGE_LOOP('',(#895,#896,#897,#898));
#399=B_SPLINE_CURVE_WITH_KNOTS('',3,(#1215,#1216,#1217,#1218),
 .UNSPECIFIED.,.F.,.F.,(4,4),(-0.953799518192851,-0.548045661359551),
 .UNSPECIFIED.);
#400=B_SPLINE_CURVE_WITH_KNOTS('',3,(#1220,#1221,#1222,#1223,#1224,#1225,
#1226),.UNSPECIFIED.,.F.,.F.,(4,3,4),(0.,0.0296414461676328,0.0626860628425285),
 .UNSPECIFIED.);
#401=B_SPLINE_CURVE_WITH_KNOTS('',3,(#1228,#1229,#1230,#1231),
 .UNSPECIFIED.,.F.,.F.,(4,4),(0.547576308929683,0.954663064924504),
 .UNSPECIFIED.);
#402=B_SPLINE_CURVE_WITH_KNOTS('',3,(#1232,#1233,#1234,#1235,#1236,#1237,
#1238),.UNSPECIFIED.,.F.,.F.,(4,3,4),(-0.020496607486063,-0.0122974492833198,
0.),.UNSPECIFIED.);
#403=B_SPLINE_CURVE_WITH_KNOTS('',3,(#1259,#1260,#1261,#1262,#1263,#1264,
#1265),.UNSPECIFIED.,.F.,.F.,(4,3,4),(-0.0185358757715041,-0.0111212673696021,
0.),.UNSPECIFIED.);
#404=B_SPLINE_CURVE_WITH_KNOTS('',3,(#1286,#1287,#1288,#1289),
 .UNSPECIFIED.,.F.,.F.,(4,4),(-0.954663064924504,-0.547576308929683),
 .UNSPECIFIED.);
#405=B_SPLINE_CURVE_WITH_KNOTS('',3,(#1291,#1292,#1293,#1294),
 .UNSPECIFIED.,.F.,.F.,(4,4),(0.548045660179607,0.953799518192851),
 .UNSPECIFIED.);
#406=B_SPLINE_CURVE_WITH_KNOTS('',3,(#1295,#1296,#1297,#1298,#1299,#1300,
#1301),.UNSPECIFIED.,.F.,.F.,(4,3,4),(0.,0.0327788242200978,0.0655432156807094),
 .UNSPECIFIED.);
#407=B_SPLINE_CURVE_WITH_KNOTS('',3,(#1316,#1317,#1318,#1319),
 .UNSPECIFIED.,.F.,.F.,(4,4),(0.547576308929683,0.954663064924504),
 .UNSPECIFIED.);
#408=B_SPLINE_CURVE_WITH_KNOTS('',3,(#1354,#1355,#1356,#1357),
 .UNSPECIFIED.,.F.,.F.,(4,4),(0.773545037882048,0.788790678290595),
 .UNSPECIFIED.);
#409=B_SPLINE_CURVE_WITH_KNOTS('',3,(#1365,#1366,#1367,#1368),
 .UNSPECIFIED.,.F.,.F.,(4,4),(0.804128119939185,0.8195593412951),
 .UNSPECIFIED.);
#410=B_SPLINE_CURVE_WITH_KNOTS('',3,(#1378,#1379,#1380,#1381),
 .UNSPECIFIED.,.F.,.F.,(4,4),(-0.850709198655079,-0.835085859731178),
 .UNSPECIFIED.);
#411=B_SPLINE_CURVE_WITH_KNOTS('',3,(#1387,#1388,#1389,#1390),
 .UNSPECIFIED.,.F.,.F.,(4,4),(0.835085796955233,0.850709130114779),
 .UNSPECIFIED.);
#412=B_SPLINE_CURVE_WITH_KNOTS('',3,(#1400,#1401,#1402,#1403),
 .UNSPECIFIED.,.F.,.F.,(4,4),(-0.819559493231911,-0.804128346820696),
 .UNSPECIFIED.);
#413=B_SPLINE_CURVE_WITH_KNOTS('',3,(#1411,#1412,#1413,#1414),
 .UNSPECIFIED.,.F.,.F.,(4,4),(-0.788790661420362,-0.773544920775579),
 .UNSPECIFIED.);
#414=B_SPLINE_CURVE_WITH_KNOTS('',3,(#1435,#1436,#1437,#1438),
 .UNSPECIFIED.,.F.,.F.,(4,4),(0.773544920775579,0.788790661420362),
 .UNSPECIFIED.);
#415=B_SPLINE_CURVE_WITH_KNOTS('',3,(#1461,#1462,#1463,#1464),
 .UNSPECIFIED.,.F.,.F.,(4,4),(0.804128346820696,0.819559493231911),
 .UNSPECIFIED.);
#416=B_SPLINE_CURVE_WITH_KNOTS('',3,(#1490,#1491,#1492,#1493),
 .UNSPECIFIED.,.F.,.F.,(4,4),(-0.850709130114779,-0.835085796955233),
 .UNSPECIFIED.);
#417=B_SPLINE_CURVE_WITH_KNOTS('',3,(#1513,#1514,#1515,#1516),
 .UNSPECIFIED.,.F.,.F.,(4,4),(0.835085859731178,0.850709198655079),
 .UNSPECIFIED.);
#418=B_SPLINE_CURVE_WITH_KNOTS('',3,(#1542,#1543,#1544,#1545),
 .UNSPECIFIED.,.F.,.F.,(4,4),(-0.8195593412951,-0.804128119939185),
 .UNSPECIFIED.);
#419=B_SPLINE_CURVE_WITH_KNOTS('',3,(#1568,#1569,#1570,#1571),
 .UNSPECIFIED.,.F.,.F.,(4,4),(-0.788790678290595,-0.773545037882048),
 .UNSPECIFIED.);
#420=B_SPLINE_CURVE_WITH_KNOTS('',3,(#1618,#1619,#1620,#1621),
 .UNSPECIFIED.,.F.,.F.,(4,4),(0.547576308929683,0.954663064924504),
 .UNSPECIFIED.);
#421=VERTEX_POINT('',#1213);
#422=VERTEX_POINT('',#1214);
#423=VERTEX_POINT('',#1219);
#424=VERTEX_POINT('',#1227);
#425=VERTEX_POINT('',#1240);
#426=VERTEX_POINT('',#1242);
#427=VERTEX_POINT('',#1246);
#428=VERTEX_POINT('',#1247);
#429=VERTEX_POINT('',#1249);
#430=VERTEX_POINT('',#1251);
#431=VERTEX_POINT('',#1255);
#432=VERTEX_POINT('',#1257);
#433=VERTEX_POINT('',#1285);
#434=VERTEX_POINT('',#1290);
#435=VERTEX_POINT('',#1313);
#436=VERTEX_POINT('',#1315);
#437=VERTEX_POINT('',#1322);
#438=VERTEX_POINT('',#1326);
#439=VERTEX_POINT('',#1330);
#440=VERTEX_POINT('',#1334);
#441=VERTEX_POINT('',#1335);
#442=VERTEX_POINT('',#1337);
#443=VERTEX_POINT('',#1339);
#444=VERTEX_POINT('',#1342);
#445=VERTEX_POINT('',#1343);
#446=VERTEX_POINT('',#1345);
#447=VERTEX_POINT('',#1347);
#448=VERTEX_POINT('',#1350);
#449=VERTEX_POINT('',#1351);
#450=VERTEX_POINT('',#1353);
#451=VERTEX_POINT('',#1358);
#452=VERTEX_POINT('',#1361);
#453=VERTEX_POINT('',#1362);
#454=VERTEX_POINT('',#1364);
#455=VERTEX_POINT('',#1369);
#456=VERTEX_POINT('',#1372);
#457=VERTEX_POINT('',#1373);
#458=VERTEX_POINT('',#1375);
#459=VERTEX_POINT('',#1377);
#460=VERTEX_POINT('',#1383);
#461=VERTEX_POINT('',#1384);
#462=VERTEX_POINT('',#1386);
#463=VERTEX_POINT('',#1391);
#464=VERTEX_POINT('',#1394);
#465=VERTEX_POINT('',#1395);
#466=VERTEX_POINT('',#1397);
#467=VERTEX_POINT('',#1399);
#468=VERTEX_POINT('',#1405);
#469=VERTEX_POINT('',#1406);
#470=VERTEX_POINT('',#1408);
#471=VERTEX_POINT('',#1410);
#472=VERTEX_POINT('',#1417);
#473=VERTEX_POINT('',#1418);
#474=VERTEX_POINT('',#1423);
#475=VERTEX_POINT('',#1434);
#476=VERTEX_POINT('',#1443);
#477=VERTEX_POINT('',#1444);
#478=VERTEX_POINT('',#1449);
#479=VERTEX_POINT('',#1460);
#480=VERTEX_POINT('',#1469);
#481=VERTEX_POINT('',#1470);
#482=VERTEX_POINT('',#1475);
#483=VERTEX_POINT('',#1479);
#484=VERTEX_POINT('',#1495);
#485=VERTEX_POINT('',#1496);
#486=VERTEX_POINT('',#1501);
#487=VERTEX_POINT('',#1512);
#488=VERTEX_POINT('',#1521);
#489=VERTEX_POINT('',#1522);
#490=VERTEX_POINT('',#1527);
#491=VERTEX_POINT('',#1531);
#492=VERTEX_POINT('',#1547);
#493=VERTEX_POINT('',#1548);
#494=VERTEX_POINT('',#1553);
#495=VERTEX_POINT('',#1557);
#496=VERTEX_POINT('',#1573);
#497=VERTEX_POINT('',#1574);
#498=VERTEX_POINT('',#1579);
#499=VERTEX_POINT('',#1583);
#500=VERTEX_POINT('',#1589);
#501=VERTEX_POINT('',#1590);
#502=VERTEX_POINT('',#1595);
#503=VERTEX_POINT('',#1599);
#504=VERTEX_POINT('',#1605);
#505=VERTEX_POINT('',#1616);
#506=EDGE_CURVE('',#421,#422,#399,.T.);
#507=EDGE_CURVE('',#422,#423,#400,.T.);
#508=EDGE_CURVE('',#423,#424,#401,.T.);
#509=EDGE_CURVE('',#421,#424,#402,.T.);
#510=EDGE_CURVE('',#422,#425,#31,.T.);
#511=EDGE_CURVE('',#425,#426,#32,.T.);
#512=EDGE_CURVE('',#426,#423,#33,.T.);
#513=EDGE_CURVE('',#427,#428,#34,.T.);
#514=EDGE_CURVE('',#428,#429,#35,.T.);
#515=EDGE_CURVE('',#429,#430,#36,.T.);
#516=EDGE_CURVE('',#430,#427,#37,.T.);
#517=EDGE_CURVE('',#431,#430,#38,.T.);
#518=EDGE_CURVE('',#429,#432,#39,.T.);
#519=EDGE_CURVE('',#432,#431,#403,.T.);
#520=EDGE_CURVE('',#425,#428,#40,.T.);
#521=EDGE_CURVE('',#427,#426,#41,.T.);
#522=EDGE_CURVE('',#433,#431,#404,.T.);
#523=EDGE_CURVE('',#432,#434,#405,.T.);
#524=EDGE_CURVE('',#434,#433,#406,.T.);
#525=EDGE_CURVE('',#424,#433,#42,.T.);
#526=EDGE_CURVE('',#434,#421,#43,.T.);
#527=EDGE_CURVE('',#435,#423,#44,.T.);
#528=EDGE_CURVE('',#435,#436,#407,.T.);
#529=EDGE_CURVE('',#436,#424,#45,.T.);
#530=EDGE_CURVE('',#437,#426,#46,.T.);
#531=EDGE_CURVE('',#437,#435,#47,.T.);
#532=EDGE_CURVE('',#438,#427,#48,.T.);
#533=EDGE_CURVE('',#438,#437,#49,.T.);
#534=EDGE_CURVE('',#439,#430,#50,.T.);
#535=EDGE_CURVE('',#438,#439,#51,.T.);
#536=EDGE_CURVE('',#440,#441,#52,.T.);
#537=EDGE_CURVE('',#441,#442,#53,.T.);
#538=EDGE_CURVE('',#442,#443,#54,.T.);
#539=EDGE_CURVE('',#443,#440,#55,.T.);
#540=EDGE_CURVE('',#444,#445,#56,.T.);
#541=EDGE_CURVE('',#445,#446,#57,.T.);
#542=EDGE_CURVE('',#446,#447,#58,.T.);
#543=EDGE_CURVE('',#447,#444,#59,.T.);
#544=EDGE_CURVE('',#448,#449,#60,.T.);
#545=EDGE_CURVE('',#449,#450,#408,.T.);
#546=EDGE_CURVE('',#450,#451,#61,.T.);
#547=EDGE_CURVE('',#451,#448,#62,.T.);
#548=EDGE_CURVE('',#452,#453,#63,.T.);
#549=EDGE_CURVE('',#453,#454,#409,.T.);
#550=EDGE_CURVE('',#454,#455,#64,.T.);
#551=EDGE_CURVE('',#455,#452,#65,.T.);
#552=EDGE_CURVE('',#456,#457,#66,.T.);
#553=EDGE_CURVE('',#457,#458,#67,.T.);
#554=EDGE_CURVE('',#458,#459,#410,.T.);
#555=EDGE_CURVE('',#459,#456,#68,.T.);
#556=EDGE_CURVE('',#460,#461,#69,.T.);
#557=EDGE_CURVE('',#461,#462,#411,.T.);
#558=EDGE_CURVE('',#462,#463,#70,.T.);
#559=EDGE_CURVE('',#463,#460,#71,.T.);
#560=EDGE_CURVE('',#464,#465,#72,.T.);
#561=EDGE_CURVE('',#465,#466,#73,.T.);
#562=EDGE_CURVE('',#466,#467,#412,.T.);
#563=EDGE_CURVE('',#467,#464,#74,.T.);
#564=EDGE_CURVE('',#468,#469,#75,.T.);
#565=EDGE_CURVE('',#469,#470,#76,.T.);
#566=EDGE_CURVE('',#470,#471,#413,.T.);
#567=EDGE_CURVE('',#471,#468,#77,.T.);
#568=EDGE_CURVE('',#472,#473,#78,.T.);
#569=EDGE_CURVE('',#469,#472,#79,.T.);
#570=EDGE_CURVE('',#468,#473,#80,.T.);
#571=EDGE_CURVE('',#473,#474,#81,.T.);
#572=EDGE_CURVE('',#471,#474,#82,.T.);
#573=EDGE_CURVE('',#474,#475,#414,.T.);
#574=EDGE_CURVE('',#470,#475,#83,.T.);
#575=EDGE_CURVE('',#475,#472,#84,.T.);
#576=EDGE_CURVE('',#476,#477,#85,.T.);
#577=EDGE_CURVE('',#465,#476,#86,.T.);
#578=EDGE_CURVE('',#464,#477,#87,.T.);
#579=EDGE_CURVE('',#477,#478,#88,.T.);
#580=EDGE_CURVE('',#467,#478,#89,.T.);
#581=EDGE_CURVE('',#478,#479,#415,.T.);
#582=EDGE_CURVE('',#466,#479,#90,.T.);
#583=EDGE_CURVE('',#479,#476,#91,.T.);
#584=EDGE_CURVE('',#480,#481,#92,.T.);
#585=EDGE_CURVE('',#461,#480,#93,.T.);
#586=EDGE_CURVE('',#460,#481,#94,.T.);
#587=EDGE_CURVE('',#481,#482,#95,.T.);
#588=EDGE_CURVE('',#463,#482,#96,.T.);
#589=EDGE_CURVE('',#482,#483,#97,.T.);
#590=EDGE_CURVE('',#462,#483,#98,.T.);
#591=EDGE_CURVE('',#483,#480,#416,.T.);
#592=EDGE_CURVE('',#484,#485,#99,.T.);
#593=EDGE_CURVE('',#457,#484,#100,.T.);
#594=EDGE_CURVE('',#456,#485,#101,.T.);
#595=EDGE_CURVE('',#485,#486,#102,.T.);
#596=EDGE_CURVE('',#459,#486,#103,.T.);
#597=EDGE_CURVE('',#486,#487,#417,.T.);
#598=EDGE_CURVE('',#458,#487,#104,.T.);
#599=EDGE_CURVE('',#487,#484,#105,.T.);
#600=EDGE_CURVE('',#488,#489,#106,.T.);
#601=EDGE_CURVE('',#453,#488,#107,.T.);
#602=EDGE_CURVE('',#452,#489,#108,.T.);
#603=EDGE_CURVE('',#489,#490,#109,.T.);
#604=EDGE_CURVE('',#455,#490,#110,.T.);
#605=EDGE_CURVE('',#490,#491,#111,.T.);
#606=EDGE_CURVE('',#454,#491,#112,.T.);
#607=EDGE_CURVE('',#491,#488,#418,.T.);
#608=EDGE_CURVE('',#492,#493,#113,.T.);
#609=EDGE_CURVE('',#449,#492,#114,.T.);
#610=EDGE_CURVE('',#448,#493,#115,.T.);
#611=EDGE_CURVE('',#493,#494,#116,.T.);
#612=EDGE_CURVE('',#451,#494,#117,.T.);
#613=EDGE_CURVE('',#494,#495,#118,.T.);
#614=EDGE_CURVE('',#450,#495,#119,.T.);
#615=EDGE_CURVE('',#495,#492,#419,.T.);
#616=EDGE_CURVE('',#496,#497,#120,.T.);
#617=EDGE_CURVE('',#497,#440,#121,.T.);
#618=EDGE_CURVE('',#496,#443,#122,.T.);
#619=EDGE_CURVE('',#498,#496,#123,.T.);
#620=EDGE_CURVE('',#498,#442,#124,.T.);
#621=EDGE_CURVE('',#499,#498,#125,.T.);
#622=EDGE_CURVE('',#499,#441,#126,.T.);
#623=EDGE_CURVE('',#497,#499,#127,.T.);
#624=EDGE_CURVE('',#500,#501,#128,.T.);
#625=EDGE_CURVE('',#501,#444,#129,.T.);
#626=EDGE_CURVE('',#500,#447,#130,.T.);
#627=EDGE_CURVE('',#502,#500,#131,.T.);
#628=EDGE_CURVE('',#502,#446,#132,.T.);
#629=EDGE_CURVE('',#503,#502,#133,.T.);
#630=EDGE_CURVE('',#503,#445,#134,.T.);
#631=EDGE_CURVE('',#501,#503,#135,.T.);
#632=EDGE_CURVE('',#504,#431,#136,.T.);
#633=EDGE_CURVE('',#439,#504,#137,.T.);
#634=EDGE_CURVE('',#505,#433,#138,.T.);
#635=EDGE_CURVE('',#504,#505,#420,.T.);
#636=EDGE_CURVE('',#505,#436,#139,.T.);
#637=ORIENTED_EDGE('',*,*,#506,.T.);
#638=ORIENTED_EDGE('',*,*,#507,.T.);
#639=ORIENTED_EDGE('',*,*,#508,.T.);
#640=ORIENTED_EDGE('',*,*,#509,.F.);
#641=ORIENTED_EDGE('',*,*,#510,.T.);
#642=ORIENTED_EDGE('',*,*,#511,.T.);
#643=ORIENTED_EDGE('',*,*,#512,.T.);
#644=ORIENTED_EDGE('',*,*,#507,.F.);
#645=ORIENTED_EDGE('',*,*,#513,.T.);
#646=ORIENTED_EDGE('',*,*,#514,.T.);
#647=ORIENTED_EDGE('',*,*,#515,.T.);
#648=ORIENTED_EDGE('',*,*,#516,.T.);
#649=ORIENTED_EDGE('',*,*,#517,.T.);
#650=ORIENTED_EDGE('',*,*,#515,.F.);
#651=ORIENTED_EDGE('',*,*,#518,.T.);
#652=ORIENTED_EDGE('',*,*,#519,.T.);
#653=ORIENTED_EDGE('',*,*,#520,.T.);
#654=ORIENTED_EDGE('',*,*,#513,.F.);
#655=ORIENTED_EDGE('',*,*,#521,.T.);
#656=ORIENTED_EDGE('',*,*,#511,.F.);
#657=ORIENTED_EDGE('',*,*,#522,.T.);
#658=ORIENTED_EDGE('',*,*,#519,.F.);
#659=ORIENTED_EDGE('',*,*,#523,.T.);
#660=ORIENTED_EDGE('',*,*,#524,.T.);
#661=ORIENTED_EDGE('',*,*,#525,.T.);
#662=ORIENTED_EDGE('',*,*,#524,.F.);
#663=ORIENTED_EDGE('',*,*,#526,.T.);
#664=ORIENTED_EDGE('',*,*,#509,.T.);
#665=ORIENTED_EDGE('',*,*,#508,.F.);
#666=ORIENTED_EDGE('',*,*,#527,.F.);
#667=ORIENTED_EDGE('',*,*,#528,.T.);
#668=ORIENTED_EDGE('',*,*,#529,.T.);
#669=ORIENTED_EDGE('',*,*,#512,.F.);
#670=ORIENTED_EDGE('',*,*,#530,.F.);
#671=ORIENTED_EDGE('',*,*,#531,.T.);
#672=ORIENTED_EDGE('',*,*,#527,.T.);
#673=ORIENTED_EDGE('',*,*,#521,.F.);
#674=ORIENTED_EDGE('',*,*,#532,.F.);
#675=ORIENTED_EDGE('',*,*,#533,.T.);
#676=ORIENTED_EDGE('',*,*,#530,.T.);
#677=ORIENTED_EDGE('',*,*,#516,.F.);
#678=ORIENTED_EDGE('',*,*,#534,.F.);
#679=ORIENTED_EDGE('',*,*,#535,.F.);
#680=ORIENTED_EDGE('',*,*,#532,.T.);
#681=ORIENTED_EDGE('',*,*,#514,.F.);
#682=ORIENTED_EDGE('',*,*,#520,.F.);
#683=ORIENTED_EDGE('',*,*,#510,.F.);
#684=ORIENTED_EDGE('',*,*,#506,.F.);
#685=ORIENTED_EDGE('',*,*,#526,.F.);
#686=ORIENTED_EDGE('',*,*,#523,.F.);
#687=ORIENTED_EDGE('',*,*,#518,.F.);
#688=ORIENTED_EDGE('',*,*,#536,.T.);
#689=ORIENTED_EDGE('',*,*,#537,.T.);
#690=ORIENTED_EDGE('',*,*,#538,.T.);
#691=ORIENTED_EDGE('',*,*,#539,.T.);
#692=ORIENTED_EDGE('',*,*,#540,.T.);
#693=ORIENTED_EDGE('',*,*,#541,.T.);
#694=ORIENTED_EDGE('',*,*,#542,.T.);
#695=ORIENTED_EDGE('',*,*,#543,.T.);
#696=ORIENTED_EDGE('',*,*,#544,.T.);
#697=ORIENTED_EDGE('',*,*,#545,.T.);
#698=ORIENTED_EDGE('',*,*,#546,.T.);
#699=ORIENTED_EDGE('',*,*,#547,.T.);
#700=ORIENTED_EDGE('',*,*,#548,.T.);
#701=ORIENTED_EDGE('',*,*,#549,.T.);
#702=ORIENTED_EDGE('',*,*,#550,.T.);
#703=ORIENTED_EDGE('',*,*,#551,.T.);
#704=ORIENTED_EDGE('',*,*,#552,.T.);
#705=ORIENTED_EDGE('',*,*,#553,.T.);
#706=ORIENTED_EDGE('',*,*,#554,.T.);
#707=ORIENTED_EDGE('',*,*,#555,.T.);
#708=ORIENTED_EDGE('',*,*,#556,.T.);
#709=ORIENTED_EDGE('',*,*,#557,.T.);
#710=ORIENTED_EDGE('',*,*,#558,.T.);
#711=ORIENTED_EDGE('',*,*,#559,.T.);
#712=ORIENTED_EDGE('',*,*,#560,.T.);
#713=ORIENTED_EDGE('',*,*,#561,.T.);
#714=ORIENTED_EDGE('',*,*,#562,.T.);
#715=ORIENTED_EDGE('',*,*,#563,.T.);
#716=ORIENTED_EDGE('',*,*,#564,.T.);
#717=ORIENTED_EDGE('',*,*,#565,.T.);
#718=ORIENTED_EDGE('',*,*,#566,.T.);
#719=ORIENTED_EDGE('',*,*,#567,.T.);
#720=ORIENTED_EDGE('',*,*,#568,.F.);
#721=ORIENTED_EDGE('',*,*,#569,.F.);
#722=ORIENTED_EDGE('',*,*,#564,.F.);
#723=ORIENTED_EDGE('',*,*,#570,.T.);
#724=ORIENTED_EDGE('',*,*,#571,.F.);
#725=ORIENTED_EDGE('',*,*,#570,.F.);
#726=ORIENTED_EDGE('',*,*,#567,.F.);
#727=ORIENTED_EDGE('',*,*,#572,.T.);
#728=ORIENTED_EDGE('',*,*,#573,.F.);
#729=ORIENTED_EDGE('',*,*,#572,.F.);
#730=ORIENTED_EDGE('',*,*,#566,.F.);
#731=ORIENTED_EDGE('',*,*,#574,.T.);
#732=ORIENTED_EDGE('',*,*,#575,.F.);
#733=ORIENTED_EDGE('',*,*,#574,.F.);
#734=ORIENTED_EDGE('',*,*,#565,.F.);
#735=ORIENTED_EDGE('',*,*,#569,.T.);
#736=ORIENTED_EDGE('',*,*,#576,.F.);
#737=ORIENTED_EDGE('',*,*,#577,.F.);
#738=ORIENTED_EDGE('',*,*,#560,.F.);
#739=ORIENTED_EDGE('',*,*,#578,.T.);
#740=ORIENTED_EDGE('',*,*,#579,.F.);
#741=ORIENTED_EDGE('',*,*,#578,.F.);
#742=ORIENTED_EDGE('',*,*,#563,.F.);
#743=ORIENTED_EDGE('',*,*,#580,.T.);
#744=ORIENTED_EDGE('',*,*,#581,.F.);
#745=ORIENTED_EDGE('',*,*,#580,.F.);
#746=ORIENTED_EDGE('',*,*,#562,.F.);
#747=ORIENTED_EDGE('',*,*,#582,.T.);
#748=ORIENTED_EDGE('',*,*,#583,.F.);
#749=ORIENTED_EDGE('',*,*,#582,.F.);
#750=ORIENTED_EDGE('',*,*,#561,.F.);
#751=ORIENTED_EDGE('',*,*,#577,.T.);
#752=ORIENTED_EDGE('',*,*,#584,.F.);
#753=ORIENTED_EDGE('',*,*,#585,.F.);
#754=ORIENTED_EDGE('',*,*,#556,.F.);
#755=ORIENTED_EDGE('',*,*,#586,.T.);
#756=ORIENTED_EDGE('',*,*,#587,.F.);
#757=ORIENTED_EDGE('',*,*,#586,.F.);
#758=ORIENTED_EDGE('',*,*,#559,.F.);
#759=ORIENTED_EDGE('',*,*,#588,.T.);
#760=ORIENTED_EDGE('',*,*,#589,.F.);
#761=ORIENTED_EDGE('',*,*,#588,.F.);
#762=ORIENTED_EDGE('',*,*,#558,.F.);
#763=ORIENTED_EDGE('',*,*,#590,.T.);
#764=ORIENTED_EDGE('',*,*,#591,.F.);
#765=ORIENTED_EDGE('',*,*,#590,.F.);
#766=ORIENTED_EDGE('',*,*,#557,.F.);
#767=ORIENTED_EDGE('',*,*,#585,.T.);
#768=ORIENTED_EDGE('',*,*,#592,.F.);
#769=ORIENTED_EDGE('',*,*,#593,.F.);
#770=ORIENTED_EDGE('',*,*,#552,.F.);
#771=ORIENTED_EDGE('',*,*,#594,.T.);
#772=ORIENTED_EDGE('',*,*,#595,.F.);
#773=ORIENTED_EDGE('',*,*,#594,.F.);
#774=ORIENTED_EDGE('',*,*,#555,.F.);
#775=ORIENTED_EDGE('',*,*,#596,.T.);
#776=ORIENTED_EDGE('',*,*,#597,.F.);
#777=ORIENTED_EDGE('',*,*,#596,.F.);
#778=ORIENTED_EDGE('',*,*,#554,.F.);
#779=ORIENTED_EDGE('',*,*,#598,.T.);
#780=ORIENTED_EDGE('',*,*,#599,.F.);
#781=ORIENTED_EDGE('',*,*,#598,.F.);
#782=ORIENTED_EDGE('',*,*,#553,.F.);
#783=ORIENTED_EDGE('',*,*,#593,.T.);
#784=ORIENTED_EDGE('',*,*,#600,.F.);
#785=ORIENTED_EDGE('',*,*,#601,.F.);
#786=ORIENTED_EDGE('',*,*,#548,.F.);
#787=ORIENTED_EDGE('',*,*,#602,.T.);
#788=ORIENTED_EDGE('',*,*,#603,.F.);
#789=ORIENTED_EDGE('',*,*,#602,.F.);
#790=ORIENTED_EDGE('',*,*,#551,.F.);
#791=ORIENTED_EDGE('',*,*,#604,.T.);
#792=ORIENTED_EDGE('',*,*,#605,.F.);
#793=ORIENTED_EDGE('',*,*,#604,.F.);
#794=ORIENTED_EDGE('',*,*,#550,.F.);
#795=ORIENTED_EDGE('',*,*,#606,.T.);
#796=ORIENTED_EDGE('',*,*,#607,.F.);
#797=ORIENTED_EDGE('',*,*,#606,.F.);
#798=ORIENTED_EDGE('',*,*,#549,.F.);
#799=ORIENTED_EDGE('',*,*,#601,.T.);
#800=ORIENTED_EDGE('',*,*,#608,.F.);
#801=ORIENTED_EDGE('',*,*,#609,.F.);
#802=ORIENTED_EDGE('',*,*,#544,.F.);
#803=ORIENTED_EDGE('',*,*,#610,.T.);
#804=ORIENTED_EDGE('',*,*,#611,.F.);
#805=ORIENTED_EDGE('',*,*,#610,.F.);
#806=ORIENTED_EDGE('',*,*,#547,.F.);
#807=ORIENTED_EDGE('',*,*,#612,.T.);
#808=ORIENTED_EDGE('',*,*,#613,.F.);
#809=ORIENTED_EDGE('',*,*,#612,.F.);
#810=ORIENTED_EDGE('',*,*,#546,.F.);
#811=ORIENTED_EDGE('',*,*,#614,.T.);
#812=ORIENTED_EDGE('',*,*,#615,.F.);
#813=ORIENTED_EDGE('',*,*,#614,.F.);
#814=ORIENTED_EDGE('',*,*,#545,.F.);
#815=ORIENTED_EDGE('',*,*,#609,.T.);
#816=ORIENTED_EDGE('',*,*,#616,.T.);
#817=ORIENTED_EDGE('',*,*,#617,.T.);
#818=ORIENTED_EDGE('',*,*,#539,.F.);
#819=ORIENTED_EDGE('',*,*,#618,.F.);
#820=ORIENTED_EDGE('',*,*,#619,.T.);
#821=ORIENTED_EDGE('',*,*,#618,.T.);
#822=ORIENTED_EDGE('',*,*,#538,.F.);
#823=ORIENTED_EDGE('',*,*,#620,.F.);
#824=ORIENTED_EDGE('',*,*,#621,.T.);
#825=ORIENTED_EDGE('',*,*,#620,.T.);
#826=ORIENTED_EDGE('',*,*,#537,.F.);
#827=ORIENTED_EDGE('',*,*,#622,.F.);
#828=ORIENTED_EDGE('',*,*,#623,.T.);
#829=ORIENTED_EDGE('',*,*,#622,.T.);
#830=ORIENTED_EDGE('',*,*,#536,.F.);
#831=ORIENTED_EDGE('',*,*,#617,.F.);
#832=ORIENTED_EDGE('',*,*,#624,.T.);
#833=ORIENTED_EDGE('',*,*,#625,.T.);
#834=ORIENTED_EDGE('',*,*,#543,.F.);
#835=ORIENTED_EDGE('',*,*,#626,.F.);
#836=ORIENTED_EDGE('',*,*,#627,.T.);
#837=ORIENTED_EDGE('',*,*,#626,.T.);
#838=ORIENTED_EDGE('',*,*,#542,.F.);
#839=ORIENTED_EDGE('',*,*,#628,.F.);
#840=ORIENTED_EDGE('',*,*,#629,.T.);
#841=ORIENTED_EDGE('',*,*,#628,.T.);
#842=ORIENTED_EDGE('',*,*,#541,.F.);
#843=ORIENTED_EDGE('',*,*,#630,.F.);
#844=ORIENTED_EDGE('',*,*,#631,.T.);
#845=ORIENTED_EDGE('',*,*,#630,.T.);
#846=ORIENTED_EDGE('',*,*,#540,.F.);
#847=ORIENTED_EDGE('',*,*,#625,.F.);
#848=ORIENTED_EDGE('',*,*,#517,.F.);
#849=ORIENTED_EDGE('',*,*,#632,.F.);
#850=ORIENTED_EDGE('',*,*,#633,.F.);
#851=ORIENTED_EDGE('',*,*,#534,.T.);
#852=ORIENTED_EDGE('',*,*,#522,.F.);
#853=ORIENTED_EDGE('',*,*,#634,.F.);
#854=ORIENTED_EDGE('',*,*,#635,.F.);
#855=ORIENTED_EDGE('',*,*,#632,.T.);
#856=ORIENTED_EDGE('',*,*,#525,.F.);
#857=ORIENTED_EDGE('',*,*,#529,.F.);
#858=ORIENTED_EDGE('',*,*,#636,.F.);
#859=ORIENTED_EDGE('',*,*,#634,.T.);
#860=ORIENTED_EDGE('',*,*,#531,.F.);
#861=ORIENTED_EDGE('',*,*,#533,.F.);
#862=ORIENTED_EDGE('',*,*,#535,.T.);
#863=ORIENTED_EDGE('',*,*,#633,.T.);
#864=ORIENTED_EDGE('',*,*,#635,.T.);
#865=ORIENTED_EDGE('',*,*,#636,.T.);
#866=ORIENTED_EDGE('',*,*,#528,.F.);
#867=ORIENTED_EDGE('',*,*,#568,.T.);
#868=ORIENTED_EDGE('',*,*,#571,.T.);
#869=ORIENTED_EDGE('',*,*,#573,.T.);
#870=ORIENTED_EDGE('',*,*,#575,.T.);
#871=ORIENTED_EDGE('',*,*,#576,.T.);
#872=ORIENTED_EDGE('',*,*,#579,.T.);
#873=ORIENTED_EDGE('',*,*,#581,.T.);
#874=ORIENTED_EDGE('',*,*,#583,.T.);
#875=ORIENTED_EDGE('',*,*,#584,.T.);
#876=ORIENTED_EDGE('',*,*,#587,.T.);
#877=ORIENTED_EDGE('',*,*,#589,.T.);
#878=ORIENTED_EDGE('',*,*,#591,.T.);
#879=ORIENTED_EDGE('',*,*,#592,.T.);
#880=ORIENTED_EDGE('',*,*,#595,.T.);
#881=ORIENTED_EDGE('',*,*,#597,.T.);
#882=ORIENTED_EDGE('',*,*,#599,.T.);
#883=ORIENTED_EDGE('',*,*,#600,.T.);
#884=ORIENTED_EDGE('',*,*,#603,.T.);
#885=ORIENTED_EDGE('',*,*,#605,.T.);
#886=ORIENTED_EDGE('',*,*,#607,.T.);
#887=ORIENTED_EDGE('',*,*,#608,.T.);
#888=ORIENTED_EDGE('',*,*,#611,.T.);
#889=ORIENTED_EDGE('',*,*,#613,.T.);
#890=ORIENTED_EDGE('',*,*,#615,.T.);
#891=ORIENTED_EDGE('',*,*,#631,.F.);
#892=ORIENTED_EDGE('',*,*,#624,.F.);
#893=ORIENTED_EDGE('',*,*,#627,.F.);
#894=ORIENTED_EDGE('',*,*,#629,.F.);
#895=ORIENTED_EDGE('',*,*,#623,.F.);
#896=ORIENTED_EDGE('',*,*,#616,.F.);
#897=ORIENTED_EDGE('',*,*,#619,.F.);
#898=ORIENTED_EDGE('',*,*,#621,.F.);
#899=B_SPLINE_SURFACE_WITH_KNOTS('',3,3,((#1197,#1198,#1199,#1200),(#1201,
#1202,#1203,#1204),(#1205,#1206,#1207,#1208),(#1209,#1210,#1211,#1212)),
 .UNSPECIFIED.,.F.,.F.,.F.,(4,4),(4,4),(0.,1.),(0.547576308929683,0.954663064924504),
 .UNSPECIFIED.);
#900=B_SPLINE_SURFACE_WITH_KNOTS('',3,3,((#1269,#1270,#1271,#1272),(#1273,
#1274,#1275,#1276),(#1277,#1278,#1279,#1280),(#1281,#1282,#1283,#1284)),
 .UNSPECIFIED.,.F.,.F.,.F.,(4,4),(4,4),(0.,1.),(-0.954663064924504,-0.547576308929683),
 .UNSPECIFIED.);
#901=B_SPLINE_SURFACE_WITH_KNOTS('',3,1,((#1305,#1306),(#1307,#1308),(#1309,
#1310),(#1311,#1312)),.UNSPECIFIED.,.F.,.F.,.F.,(4,4),(2,2),(0.547576308929683,
0.954663064924504),(0.,0.18),.UNSPECIFIED.);
#902=B_SPLINE_SURFACE_WITH_KNOTS('',3,1,((#1426,#1427),(#1428,#1429),(#1430,
#1431),(#1432,#1433)),.UNSPECIFIED.,.F.,.F.,.F.,(4,4),(2,2),(-0.788790661420362,
-0.773544920775579),(0.,0.198),.UNSPECIFIED.);
#903=B_SPLINE_SURFACE_WITH_KNOTS('',3,1,((#1452,#1453),(#1454,#1455),(#1456,
#1457),(#1458,#1459)),.UNSPECIFIED.,.F.,.F.,.F.,(4,4),(2,2),(-0.819559493231911,
-0.804128346820696),(0.,0.198),.UNSPECIFIED.);
#904=B_SPLINE_SURFACE_WITH_KNOTS('',3,1,((#1482,#1483),(#1484,#1485),(#1486,
#1487),(#1488,#1489)),.UNSPECIFIED.,.F.,.F.,.F.,(4,4),(2,2),(0.835085796955233,
0.850709130114779),(0.,0.198),.UNSPECIFIED.);
#905=B_SPLINE_SURFACE_WITH_KNOTS('',3,1,((#1504,#1505),(#1506,#1507),(#1508,
#1509),(#1510,#1511)),.UNSPECIFIED.,.F.,.F.,.F.,(4,4),(2,2),(-0.850709198655079,
-0.835085859731178),(0.,0.198),.UNSPECIFIED.);
#906=B_SPLINE_SURFACE_WITH_KNOTS('',3,1,((#1534,#1535),(#1536,#1537),(#1538,
#1539),(#1540,#1541)),.UNSPECIFIED.,.F.,.F.,.F.,(4,4),(2,2),(0.804128119939185,
0.8195593412951),(0.,0.198),.UNSPECIFIED.);
#907=B_SPLINE_SURFACE_WITH_KNOTS('',3,1,((#1560,#1561),(#1562,#1563),(#1564,
#1565),(#1566,#1567)),.UNSPECIFIED.,.F.,.F.,.F.,(4,4),(2,2),(0.773545037882048,
0.788790678290595),(0.,0.198),.UNSPECIFIED.);
#908=B_SPLINE_SURFACE_WITH_KNOTS('',3,1,((#1608,#1609),(#1610,#1611),(#1612,
#1613),(#1614,#1615)),.UNSPECIFIED.,.F.,.F.,.F.,(4,4),(2,2),(-0.954663064924504,
-0.547576308929683),(0.,0.18),.UNSPECIFIED.);
#909=ADVANCED_FACE('',(#287),#899,.T.);
#910=ADVANCED_FACE('',(#288),#249,.T.);
#911=ADVANCED_FACE('',(#289),#250,.T.);
#912=ADVANCED_FACE('',(#290),#251,.T.);
#913=ADVANCED_FACE('',(#291),#252,.T.);
#914=ADVANCED_FACE('',(#292),#900,.T.);
#915=ADVANCED_FACE('',(#293),#253,.T.);
#916=ADVANCED_FACE('',(#294),#901,.T.);
#917=ADVANCED_FACE('',(#295),#254,.T.);
#918=ADVANCED_FACE('',(#296),#255,.T.);
#919=ADVANCED_FACE('',(#297),#256,.T.);
#920=ADVANCED_FACE('',(#298,#15,#16,#17,#18,#19,#20,#21,#22),#257,.T.);
#921=ADVANCED_FACE('',(#299),#258,.F.);
#922=ADVANCED_FACE('',(#300),#259,.F.);
#923=ADVANCED_FACE('',(#301),#902,.F.);
#924=ADVANCED_FACE('',(#302),#260,.F.);
#925=ADVANCED_FACE('',(#303),#261,.F.);
#926=ADVANCED_FACE('',(#304),#262,.F.);
#927=ADVANCED_FACE('',(#305),#903,.F.);
#928=ADVANCED_FACE('',(#306),#263,.F.);
#929=ADVANCED_FACE('',(#307),#264,.F.);
#930=ADVANCED_FACE('',(#308),#265,.F.);
#931=ADVANCED_FACE('',(#309),#266,.F.);
#932=ADVANCED_FACE('',(#310),#904,.F.);
#933=ADVANCED_FACE('',(#311),#267,.F.);
#934=ADVANCED_FACE('',(#312),#268,.F.);
#935=ADVANCED_FACE('',(#313),#905,.F.);
#936=ADVANCED_FACE('',(#314),#269,.F.);
#937=ADVANCED_FACE('',(#315),#270,.F.);
#938=ADVANCED_FACE('',(#316),#271,.F.);
#939=ADVANCED_FACE('',(#317),#272,.F.);
#940=ADVANCED_FACE('',(#318),#906,.F.);
#941=ADVANCED_FACE('',(#319),#273,.F.);
#942=ADVANCED_FACE('',(#320),#274,.F.);
#943=ADVANCED_FACE('',(#321),#275,.F.);
#944=ADVANCED_FACE('',(#322),#907,.F.);
#945=ADVANCED_FACE('',(#323),#276,.T.);
#946=ADVANCED_FACE('',(#324),#277,.T.);
#947=ADVANCED_FACE('',(#325),#278,.T.);
#948=ADVANCED_FACE('',(#326),#279,.T.);
#949=ADVANCED_FACE('',(#327),#280,.T.);
#950=ADVANCED_FACE('',(#328),#281,.T.);
#951=ADVANCED_FACE('',(#329),#282,.T.);
#952=ADVANCED_FACE('',(#330),#283,.T.);
#953=ADVANCED_FACE('',(#331),#284,.T.);
#954=ADVANCED_FACE('',(#332),#908,.T.);
#955=ADVANCED_FACE('',(#333),#285,.T.);
#956=ADVANCED_FACE('',(#334,#23,#24,#25,#26,#27,#28,#29,#30),#286,.F.);
#957=CLOSED_SHELL('',(#909,#910,#911,#912,#913,#914,#915,#916,#917,#918,
#919,#920,#921,#922,#923,#924,#925,#926,#927,#928,#929,#930,#931,#932,#933,
#934,#935,#936,#937,#938,#939,#940,#941,#942,#943,#944,#945,#946,#947,#948,
#949,#950,#951,#952,#953,#954,#955,#956));
#958=DERIVED_UNIT_ELEMENT(#960,1.);
#959=DERIVED_UNIT_ELEMENT(#1630,-3.);
#960=(
MASS_UNIT()
NAMED_UNIT(*)
SI_UNIT(.KILO.,.GRAM.)
);
#961=DERIVED_UNIT((#958,#959));
#962=MEASURE_REPRESENTATION_ITEM('density measure',
POSITIVE_RATIO_MEASURE(7850.),#961);
#963=PROPERTY_DEFINITION_REPRESENTATION(#968,#965);
#964=PROPERTY_DEFINITION_REPRESENTATION(#969,#966);
#965=REPRESENTATION('material name',(#967),#1627);
#966=REPRESENTATION('density',(#962),#1627);
#967=DESCRIPTIVE_REPRESENTATION_ITEM('Steel','Steel');
#968=PROPERTY_DEFINITION('material property','material name',#1637);
#969=PROPERTY_DEFINITION('material property','density of part',#1637);
#970=AXIS2_PLACEMENT_3D('',#1196,#1009,#1010);
#971=AXIS2_PLACEMENT_3D('',#1239,#1011,#1012);
#972=AXIS2_PLACEMENT_3D('',#1245,#1016,#1017);
#973=AXIS2_PLACEMENT_3D('',#1254,#1022,#1023);
#974=AXIS2_PLACEMENT_3D('',#1266,#1026,#1027);
#975=AXIS2_PLACEMENT_3D('',#1302,#1030,#1031);
#976=AXIS2_PLACEMENT_3D('',#1321,#1036,#1037);
#977=AXIS2_PLACEMENT_3D('',#1325,#1040,#1041);
#978=AXIS2_PLACEMENT_3D('',#1329,#1044,#1045);
#979=AXIS2_PLACEMENT_3D('',#1333,#1048,#1049);
#980=AXIS2_PLACEMENT_3D('',#1416,#1076,#1077);
#981=AXIS2_PLACEMENT_3D('',#1422,#1081,#1082);
#982=AXIS2_PLACEMENT_3D('',#1440,#1086,#1087);
#983=AXIS2_PLACEMENT_3D('',#1442,#1089,#1090);
#984=AXIS2_PLACEMENT_3D('',#1448,#1094,#1095);
#985=AXIS2_PLACEMENT_3D('',#1466,#1099,#1100);
#986=AXIS2_PLACEMENT_3D('',#1468,#1102,#1103);
#987=AXIS2_PLACEMENT_3D('',#1474,#1107,#1108);
#988=AXIS2_PLACEMENT_3D('',#1478,#1111,#1112);
#989=AXIS2_PLACEMENT_3D('',#1494,#1115,#1116);
#990=AXIS2_PLACEMENT_3D('',#1500,#1120,#1121);
#991=AXIS2_PLACEMENT_3D('',#1518,#1125,#1126);
#992=AXIS2_PLACEMENT_3D('',#1520,#1128,#1129);
#993=AXIS2_PLACEMENT_3D('',#1526,#1133,#1134);
#994=AXIS2_PLACEMENT_3D('',#1530,#1137,#1138);
#995=AXIS2_PLACEMENT_3D('',#1546,#1141,#1142);
#996=AXIS2_PLACEMENT_3D('',#1552,#1146,#1147);
#997=AXIS2_PLACEMENT_3D('',#1556,#1150,#1151);
#998=AXIS2_PLACEMENT_3D('',#1572,#1154,#1155);
#999=AXIS2_PLACEMENT_3D('',#1578,#1159,#1160);
#1000=AXIS2_PLACEMENT_3D('',#1582,#1163,#1164);
#1001=AXIS2_PLACEMENT_3D('',#1586,#1167,#1168);
#1002=AXIS2_PLACEMENT_3D('',#1588,#1170,#1171);
#1003=AXIS2_PLACEMENT_3D('',#1594,#1175,#1176);
#1004=AXIS2_PLACEMENT_3D('',#1598,#1179,#1180);
#1005=AXIS2_PLACEMENT_3D('',#1602,#1183,#1184);
#1006=AXIS2_PLACEMENT_3D('',#1604,#1186,#1187);
#1007=AXIS2_PLACEMENT_3D('',#1622,#1191,#1192);
#1008=AXIS2_PLACEMENT_3D('',#1624,#1194,#1195);
#1009=DIRECTION('axis',(0.,0.,1.));
#1010=DIRECTION('refdir',(1.,0.,0.));
#1011=DIRECTION('center_axis',(0.500000035390902,-0.499999964609089,0.707106781186552));
#1012=DIRECTION('ref_axis',(0.816496561663361,0.,-0.577350296433551));
#1013=DIRECTION('',(-0.707106731136246,-0.707106831236846,0.));
#1014=DIRECTION('',(0.281084673221173,-0.678598332877973,-0.678598341506507));
#1015=DIRECTION('',(0.707106731136246,0.707106831236846,0.));
#1016=DIRECTION('center_axis',(-2.1706237427902E-8,-0.707106781186551,0.707106781186544));
#1017=DIRECTION('ref_axis',(0.999999999999999,0.,3.06972553586296E-8));
#1018=DIRECTION('',(2.17062395027896E-8,0.707106781186543,0.707106781186551));
#1019=DIRECTION('',(-0.999999999999999,3.06972553586293E-8,0.));
#1020=DIRECTION('',(-0.281084667610388,-0.678598334040005,-0.678598342668538));
#1021=DIRECTION('',(0.999999999999999,-3.06972553586293E-8,0.));
#1022=DIRECTION('center_axis',(-0.500000027728125,-0.499999972271864,0.707106781186555));
#1023=DIRECTION('ref_axis',(0.816496565834449,0.,0.577350290534742));
#1024=DIRECTION('',(0.707106741973048,-0.707106820400045,0.));
#1025=DIRECTION('',(-0.707106741973048,0.707106820400045,0.));
#1026=DIRECTION('center_axis',(2.1706237427902E-8,-0.707106781186551,0.707106781186544));
#1027=DIRECTION('ref_axis',(0.999999999999999,0.,-3.06972553586296E-8));
#1028=DIRECTION('',(-0.999999999999999,-3.06972553586293E-8,0.));
#1029=DIRECTION('',(0.999999999999999,3.06972553586293E-8,0.));
#1030=DIRECTION('center_axis',(3.23083687808796E-15,0.707106781186551,0.707106781186544));
#1031=DIRECTION('ref_axis',(1.,0.,-4.56909333080717E-15));
#1032=DIRECTION('',(-1.,4.56909333080712E-15,0.));
#1033=DIRECTION('',(1.,-4.56909333080712E-15,0.));
#1034=DIRECTION('',(0.,0.,1.));
#1035=DIRECTION('',(0.,0.,1.));
#1036=DIRECTION('center_axis',(0.707106831236846,-0.707106731136246,0.));
#1037=DIRECTION('ref_axis',(0.707106731136246,0.707106831236846,0.));
#1038=DIRECTION('',(0.,0.,1.));
#1039=DIRECTION('',(0.707106731136246,0.707106831236846,0.));
#1040=DIRECTION('center_axis',(3.06972553586293E-8,-1.,0.));
#1041=DIRECTION('ref_axis',(0.999999999999999,3.06972553586293E-8,0.));
#1042=DIRECTION('',(0.,0.,1.));
#1043=DIRECTION('',(0.999999999999999,3.06972553586293E-8,0.));
#1044=DIRECTION('center_axis',(-3.06972553586293E-8,-1.,0.));
#1045=DIRECTION('ref_axis',(0.999999999999999,-3.06972553586293E-8,0.));
#1046=DIRECTION('',(0.,0.,1.));
#1047=DIRECTION('',(-0.999999999999999,3.06972553586293E-8,0.));
#1048=DIRECTION('center_axis',(0.,0.,1.));
#1049=DIRECTION('ref_axis',(1.,0.,0.));
#1050=DIRECTION('',(-1.,0.,0.));
#1051=DIRECTION('',(0.,1.,0.));
#1052=DIRECTION('',(1.,0.,0.));
#1053=DIRECTION('',(0.,-1.,0.));
#1054=DIRECTION('',(1.,0.,0.));
#1055=DIRECTION('',(0.,-1.,0.));
#1056=DIRECTION('',(-1.,0.,0.));
#1057=DIRECTION('',(0.,1.,0.));
#1058=DIRECTION('',(-0.707110059568746,-0.70710350278915,0.));
#1059=DIRECTION('',(0.70711078172105,0.707102780629411,0.));
#1060=DIRECTION('',(-4.92144030302153E-6,-0.99999999998789,0.));
#1061=DIRECTION('',(-0.707109112806128,-0.707104449559279,0.));
#1062=DIRECTION('',(0.70710681594251,0.707106746430583,0.));
#1063=DIRECTION('',(-4.86363690160272E-8,-0.999999999999999,0.));
#1064=DIRECTION('',(-2.76470821100209E-6,0.999999999996178,0.));
#1065=DIRECTION('',(0.707108710180667,-0.707104852187165,0.));
#1066=DIRECTION('',(-0.707108516677655,0.707105045691181,0.));
#1067=DIRECTION('',(-0.707108798831541,-0.707104763535797,0.));
#1068=DIRECTION('',(0.707108962896532,0.707104599469831,0.));
#1069=DIRECTION('',(-3.08541957849684E-6,-0.99999999999524,0.));
#1070=DIRECTION('',(-3.55859477275057E-6,0.999999999993668,0.));
#1071=DIRECTION('',(0.707109246248223,-0.707104316116279,0.));
#1072=DIRECTION('',(-0.707111453524207,0.707102108818014,0.));
#1073=DIRECTION('',(8.38142864445781E-8,0.999999999999996,0.));
#1074=DIRECTION('',(0.707107173444095,-0.707106388928783,0.));
#1075=DIRECTION('',(-0.707106468089924,0.707107094283033,0.));
#1076=DIRECTION('center_axis',(-0.999999999999997,8.38142864445781E-8,0.));
#1077=DIRECTION('ref_axis',(8.38142864445781E-8,0.999999999999996,0.));
#1078=DIRECTION('',(-8.38142864445781E-8,-0.999999999999996,0.));
#1079=DIRECTION('',(0.,0.,-1.));
#1080=DIRECTION('',(0.,0.,-1.));
#1081=DIRECTION('center_axis',(-0.707107094283033,-0.707106468089924,0.));
#1082=DIRECTION('ref_axis',(-0.707106468089924,0.707107094283033,0.));
#1083=DIRECTION('',(0.707106468089924,-0.707107094283033,0.));
#1084=DIRECTION('',(0.,0.,-1.));
#1085=DIRECTION('',(0.,0.,-1.));
#1086=DIRECTION('center_axis',(0.707106388928783,0.707107173444095,0.));
#1087=DIRECTION('ref_axis',(0.707107173444095,-0.707106388928783,0.));
#1088=DIRECTION('',(-0.707107173444095,0.707106388928783,0.));
#1089=DIRECTION('center_axis',(-0.999999999993668,-3.55859477275057E-6,
0.));
#1090=DIRECTION('ref_axis',(-3.55859477275057E-6,0.999999999993668,0.));
#1091=DIRECTION('',(3.55859477275057E-6,-0.999999999993668,0.));
#1092=DIRECTION('',(0.,0.,-1.));
#1093=DIRECTION('',(0.,0.,-1.));
#1094=DIRECTION('center_axis',(-0.707102108818014,-0.707111453524207,0.));
#1095=DIRECTION('ref_axis',(-0.707111453524207,0.707102108818014,0.));
#1096=DIRECTION('',(0.707111453524207,-0.707102108818014,0.));
#1097=DIRECTION('',(0.,0.,-1.));
#1098=DIRECTION('',(0.,0.,-1.));
#1099=DIRECTION('center_axis',(0.707104316116279,0.707109246248223,0.));
#1100=DIRECTION('ref_axis',(0.707109246248223,-0.707104316116279,0.));
#1101=DIRECTION('',(-0.707109246248223,0.707104316116279,0.));
#1102=DIRECTION('center_axis',(0.707104763535797,-0.707108798831541,0.));
#1103=DIRECTION('ref_axis',(-0.707108798831541,-0.707104763535797,0.));
#1104=DIRECTION('',(0.707108798831541,0.707104763535797,0.));
#1105=DIRECTION('',(0.,0.,-1.));
#1106=DIRECTION('',(0.,0.,-1.));
#1107=DIRECTION('center_axis',(0.99999999999524,-3.08541957849684E-6,0.));
#1108=DIRECTION('ref_axis',(-3.08541957849684E-6,-0.99999999999524,0.));
#1109=DIRECTION('',(3.08541957849684E-6,0.99999999999524,0.));
#1110=DIRECTION('',(0.,0.,-1.));
#1111=DIRECTION('center_axis',(-0.707104599469831,0.707108962896532,0.));
#1112=DIRECTION('ref_axis',(0.707108962896532,0.707104599469831,0.));
#1113=DIRECTION('',(-0.707108962896532,-0.707104599469831,0.));
#1114=DIRECTION('',(0.,0.,-1.));
#1115=DIRECTION('center_axis',(-0.999999999996178,-2.76470821100209E-6,
0.));
#1116=DIRECTION('ref_axis',(-2.76470821100209E-6,0.999999999996178,0.));
#1117=DIRECTION('',(2.76470821100209E-6,-0.999999999996178,0.));
#1118=DIRECTION('',(0.,0.,-1.));
#1119=DIRECTION('',(0.,0.,-1.));
#1120=DIRECTION('center_axis',(-0.707105045691181,-0.707108516677655,0.));
#1121=DIRECTION('ref_axis',(-0.707108516677655,0.707105045691181,0.));
#1122=DIRECTION('',(0.707108516677655,-0.707105045691181,0.));
#1123=DIRECTION('',(0.,0.,-1.));
#1124=DIRECTION('',(0.,0.,-1.));
#1125=DIRECTION('center_axis',(0.707104852187165,0.707108710180667,0.));
#1126=DIRECTION('ref_axis',(0.707108710180667,-0.707104852187165,0.));
#1127=DIRECTION('',(-0.707108710180667,0.707104852187165,0.));
#1128=DIRECTION('center_axis',(0.707104449559279,-0.707109112806128,0.));
#1129=DIRECTION('ref_axis',(-0.707109112806128,-0.707104449559279,0.));
#1130=DIRECTION('',(0.707109112806128,0.707104449559279,0.));
#1131=DIRECTION('',(0.,0.,-1.));
#1132=DIRECTION('',(0.,0.,-1.));
#1133=DIRECTION('center_axis',(0.999999999999999,-4.86363690160272E-8,0.));
#1134=DIRECTION('ref_axis',(-4.86363690160272E-8,-0.999999999999999,0.));
#1135=DIRECTION('',(4.86363690160272E-8,0.999999999999999,0.));
#1136=DIRECTION('',(0.,0.,-1.));
#1137=DIRECTION('center_axis',(-0.707106746430583,0.70710681594251,0.));
#1138=DIRECTION('ref_axis',(0.70710681594251,0.707106746430583,0.));
#1139=DIRECTION('',(-0.70710681594251,-0.707106746430583,0.));
#1140=DIRECTION('',(0.,0.,-1.));
#1141=DIRECTION('center_axis',(0.70710350278915,-0.707110059568746,0.));
#1142=DIRECTION('ref_axis',(-0.707110059568746,-0.70710350278915,0.));
#1143=DIRECTION('',(0.707110059568746,0.70710350278915,0.));
#1144=DIRECTION('',(0.,0.,-1.));
#1145=DIRECTION('',(0.,0.,-1.));
#1146=DIRECTION('center_axis',(0.99999999998789,-4.92144030302153E-6,0.));
#1147=DIRECTION('ref_axis',(-4.92144030302153E-6,-0.99999999998789,0.));
#1148=DIRECTION('',(4.92144030302153E-6,0.99999999998789,0.));
#1149=DIRECTION('',(0.,0.,-1.));
#1150=DIRECTION('center_axis',(-0.707102780629411,0.70711078172105,0.));
#1151=DIRECTION('ref_axis',(0.70711078172105,0.707102780629411,0.));
#1152=DIRECTION('',(-0.70711078172105,-0.707102780629411,0.));
#1153=DIRECTION('',(0.,0.,-1.));
#1154=DIRECTION('center_axis',(-1.,0.,0.));
#1155=DIRECTION('ref_axis',(0.,-1.,0.));
#1156=DIRECTION('',(0.,-1.,0.));
#1157=DIRECTION('',(0.,0.,1.));
#1158=DIRECTION('',(0.,0.,1.));
#1159=DIRECTION('center_axis',(0.,-1.,0.));
#1160=DIRECTION('ref_axis',(1.,0.,0.));
#1161=DIRECTION('',(1.,0.,0.));
#1162=DIRECTION('',(0.,0.,1.));
#1163=DIRECTION('center_axis',(1.,0.,0.));
#1164=DIRECTION('ref_axis',(0.,1.,0.));
#1165=DIRECTION('',(0.,1.,0.));
#1166=DIRECTION('',(0.,0.,1.));
#1167=DIRECTION('center_axis',(0.,1.,0.));
#1168=DIRECTION('ref_axis',(-1.,0.,0.));
#1169=DIRECTION('',(-1.,0.,0.));
#1170=DIRECTION('center_axis',(1.,0.,0.));
#1171=DIRECTION('ref_axis',(0.,1.,0.));
#1172=DIRECTION('',(0.,1.,0.));
#1173=DIRECTION('',(0.,0.,1.));
#1174=DIRECTION('',(0.,0.,1.));
#1175=DIRECTION('center_axis',(0.,1.,0.));
#1176=DIRECTION('ref_axis',(-1.,0.,0.));
#1177=DIRECTION('',(-1.,0.,0.));
#1178=DIRECTION('',(0.,0.,1.));
#1179=DIRECTION('center_axis',(-1.,0.,0.));
#1180=DIRECTION('ref_axis',(0.,-1.,0.));
#1181=DIRECTION('',(0.,-1.,0.));
#1182=DIRECTION('',(0.,0.,1.));
#1183=DIRECTION('center_axis',(0.,-1.,0.));
#1184=DIRECTION('ref_axis',(1.,0.,0.));
#1185=DIRECTION('',(1.,0.,0.));
#1186=DIRECTION('center_axis',(-0.707106820400045,-0.707106741973048,0.));
#1187=DIRECTION('ref_axis',(0.707106741973048,-0.707106820400045,0.));
#1188=DIRECTION('',(0.,0.,1.));
#1189=DIRECTION('',(-0.707106741973048,0.707106820400045,0.));
#1190=DIRECTION('',(0.,0.,1.));
#1191=DIRECTION('center_axis',(4.56909333080712E-15,1.,0.));
#1192=DIRECTION('ref_axis',(-1.,4.56909333080712E-15,0.));
#1193=DIRECTION('',(1.,-4.56909333080712E-15,0.));
#1194=DIRECTION('center_axis',(0.,0.,1.));
#1195=DIRECTION('ref_axis',(1.,0.,0.));
#1196=CARTESIAN_POINT('',(0.,0.,0.));
#1197=CARTESIAN_POINT('Ctrl Pts',(25.9303000056225,-21.5198848153872,23.8));
#1198=CARTESIAN_POINT('Ctrl Pts',(23.1994802986862,29.9382860224614,23.8));
#1199=CARTESIAN_POINT('Ctrl Pts',(17.0169276630274,81.2862537086251,23.8));
#1200=CARTESIAN_POINT('Ctrl Pts',(7.3824219264687,132.526086193565,23.8));
#1201=CARTESIAN_POINT('Ctrl Pts',(26.0634459819375,-21.5128189276944,23.6666666666667));
#1202=CARTESIAN_POINT('Ctrl Pts',(23.3323106480759,29.9512994226191,23.6666666666667));
#1203=CARTESIAN_POINT('Ctrl Pts',(17.1490398381616,81.305174575589,23.6666666666667));
#1204=CARTESIAN_POINT('Ctrl Pts',(7.51345901038073,132.550724789661,23.6666666666667));
#1205=CARTESIAN_POINT('Ctrl Pts',(26.1965919582526,-21.5057530400015,23.5333333333333));
#1206=CARTESIAN_POINT('Ctrl Pts',(23.4651409974656,29.9643128227767,23.5333333333333));
#1207=CARTESIAN_POINT('Ctrl Pts',(17.2811520132958,81.3240954425525,23.5333333333333));
#1208=CARTESIAN_POINT('Ctrl Pts',(7.64449609429276,132.575363385758,23.5333333333333));
#1209=CARTESIAN_POINT('Ctrl Pts',(26.3297379345677,-21.4986871523087,23.4));
#1210=CARTESIAN_POINT('Ctrl Pts',(23.5979713468553,29.9773262229343,23.4));
#1211=CARTESIAN_POINT('Ctrl Pts',(17.41326418843,81.3430163095163,23.4));
#1212=CARTESIAN_POINT('Ctrl Pts',(7.77553317820479,132.600001981854,23.4));
#1213=CARTESIAN_POINT('',(7.44368790288136,132.200001981854,23.8));
#1214=CARTESIAN_POINT('',(25.920840709307,-21.3418984953325,23.8));
#1215=CARTESIAN_POINT('Ctrl Pts',(7.44368790306764,132.200001981964,23.8));
#1216=CARTESIAN_POINT('Ctrl Pts',(17.0320507743266,81.1274836551813,23.8));
#1217=CARTESIAN_POINT('Ctrl Pts',(23.191029037572,29.9475327307603,23.8));
#1218=CARTESIAN_POINT('Ctrl Pts',(25.9208407093659,-21.3418984953075,23.8));
#1219=CARTESIAN_POINT('',(26.3297379345677,-21.4986871523087,23.4));
#1220=CARTESIAN_POINT('Ctrl Pts',(25.9208407093659,-21.3418984953076,23.8));
#1221=CARTESIAN_POINT('Ctrl Pts',(25.9889594898382,-21.3680150527424,23.7333655514242));
#1222=CARTESIAN_POINT('Ctrl Pts',(26.0570775247806,-21.3941328297964,23.6667307663085));
#1223=CARTESIAN_POINT('Ctrl Pts',(26.1252923948178,-21.4202892503128,23.6000001847007));
#1224=CARTESIAN_POINT('Ctrl Pts',(26.2013390970994,-21.4494487213003,23.5256081838094));
#1225=CARTESIAN_POINT('Ctrl Pts',(26.2804578959436,-21.4797889511985,23.448209297166));
#1226=CARTESIAN_POINT('Ctrl Pts',(26.3297379345677,-21.4986871523087,23.4));
#1227=CARTESIAN_POINT('',(7.77553317820479,132.600001981854,23.4));
#1228=CARTESIAN_POINT('Ctrl Pts',(26.3297379345677,-21.4986871523087,23.4));
#1229=CARTESIAN_POINT('Ctrl Pts',(23.5979713468553,29.9773262229343,23.4));
#1230=CARTESIAN_POINT('Ctrl Pts',(17.41326418843,81.3430163095163,23.4));
#1231=CARTESIAN_POINT('Ctrl Pts',(7.77553317820479,132.600001981854,23.4));
#1232=CARTESIAN_POINT('Ctrl Pts',(7.44368790306889,132.200001981957,23.8));
#1233=CARTESIAN_POINT('Ctrl Pts',(7.49900246423077,132.266667684895,23.733334297007));
#1234=CARTESIAN_POINT('Ctrl Pts',(7.5543141183803,132.333334594989,23.6666673868926));
#1235=CARTESIAN_POINT('Ctrl Pts',(7.60962277932458,132.400002606535,23.5999993753327));
#1236=CARTESIAN_POINT('Ctrl Pts',(7.69257708220203,132.499994150855,23.500007830993));
#1237=CARTESIAN_POINT('Ctrl Pts',(7.7547941543457,132.575000024273,23.4250019575811));
#1238=CARTESIAN_POINT('Ctrl Pts',(7.77553317820479,132.600001981854,23.4));
#1239=CARTESIAN_POINT('Origin',(29.1798991945118,-18.3656822812582,23.6));
#1240=CARTESIAN_POINT('',(10.6627411463065,-36.600000218325,23.8));
#1241=CARTESIAN_POINT('',(29.0384778282644,-18.224260935031,23.8));
#1242=CARTESIAN_POINT('',(10.828426592927,-37.0000002132389,23.4));
#1243=CARTESIAN_POINT('',(10.6627411463065,-36.600000218325,23.8));
#1244=CARTESIAN_POINT('',(29.3213205607592,-18.5071036274855,23.4));
#1245=CARTESIAN_POINT('Origin',(-5.4142145918877,-36.8000003794404,23.6));
#1246=CARTESIAN_POINT('',(2.35283035341626E-15,-37.0000005456419,23.4));
#1247=CARTESIAN_POINT('',(1.22789056700157E-8,-36.6000005456419,23.8));
#1248=CARTESIAN_POINT('',(2.35283035341626E-15,-37.0000005456419,23.4));
#1249=CARTESIAN_POINT('',(-10.6627411498975,-36.600000218325,23.8));
#1250=CARTESIAN_POINT('',(-5.41421458574825,-36.6000003794404,23.8));
#1251=CARTESIAN_POINT('',(-10.828426592927,-37.0000002132389,23.4));
#1252=CARTESIAN_POINT('',(-10.6627411498975,-36.600000218325,23.8));
#1253=CARTESIAN_POINT('',(-5.41421459802715,-37.0000003794404,23.4));
#1254=CARTESIAN_POINT('Origin',(-36.9305547845238,-10.6150263984291,23.6));
#1255=CARTESIAN_POINT('',(-26.3297379345677,-21.4986871523087,23.4));
#1256=CARTESIAN_POINT('',(-37.0719761486038,-10.7564477468237,23.4));
#1257=CARTESIAN_POINT('',(-25.9208407331221,-21.341898942786,23.8));
#1258=CARTESIAN_POINT('',(-36.7891334204438,-10.4736050500345,23.8));
#1259=CARTESIAN_POINT('Ctrl Pts',(-25.920840733181,-21.3418989427616,23.8));
#1260=CARTESIAN_POINT('Ctrl Pts',(-25.9889921804483,-21.3680280251721,23.7333335964712));
#1261=CARTESIAN_POINT('Ctrl Pts',(-26.0571428564981,-21.3941583219696,23.6666668795798));
#1262=CARTESIAN_POINT('Ctrl Pts',(-26.1252927962533,-21.4202898461331,23.5999998154519));
#1263=CARTESIAN_POINT('Ctrl Pts',(-26.2275117753495,-21.4594848583638,23.5000050207542));
#1264=CARTESIAN_POINT('Ctrl Pts',(-26.304181392455,-21.4888865779365,23.4250012574475));
#1265=CARTESIAN_POINT('Ctrl Pts',(-26.3297379345677,-21.4986871523087,23.4));
#1266=CARTESIAN_POINT('Origin',(1.29542419670737E-6,-36.8000005456419,23.6));
#1267=CARTESIAN_POINT('',(1.28928474563565E-6,-36.6000005456419,23.8));
#1268=CARTESIAN_POINT('',(1.3015636477791E-6,-37.0000005456419,23.4));
#1269=CARTESIAN_POINT('Ctrl Pts',(-7.38242192646869,132.526086193565,23.8));
#1270=CARTESIAN_POINT('Ctrl Pts',(-17.0169276630274,81.2862537086252,23.8));
#1271=CARTESIAN_POINT('Ctrl Pts',(-23.1994802986862,29.9382860224614,23.8));
#1272=CARTESIAN_POINT('Ctrl Pts',(-25.9303000056225,-21.5198848153872,23.8));
#1273=CARTESIAN_POINT('Ctrl Pts',(-7.51345901038072,132.550724789661,23.6666666666667));
#1274=CARTESIAN_POINT('Ctrl Pts',(-17.1490398381616,81.3051745755889,23.6666666666667));
#1275=CARTESIAN_POINT('Ctrl Pts',(-23.3323106480759,29.951299422619,23.6666666666667));
#1276=CARTESIAN_POINT('Ctrl Pts',(-26.0634459819376,-21.5128189276944,23.6666666666667));
#1277=CARTESIAN_POINT('Ctrl Pts',(-7.64449609429275,132.575363385758,23.5333333333333));
#1278=CARTESIAN_POINT('Ctrl Pts',(-17.2811520132958,81.3240954425526,23.5333333333333));
#1279=CARTESIAN_POINT('Ctrl Pts',(-23.4651409974656,29.9643128227767,23.5333333333333));
#1280=CARTESIAN_POINT('Ctrl Pts',(-26.1965919582526,-21.5057530400015,23.5333333333333));
#1281=CARTESIAN_POINT('Ctrl Pts',(-7.77553317820478,132.600001981854,23.4));
#1282=CARTESIAN_POINT('Ctrl Pts',(-17.41326418843,81.3430163095164,23.4));
#1283=CARTESIAN_POINT('Ctrl Pts',(-23.5979713468553,29.9773262229344,23.4));
#1284=CARTESIAN_POINT('Ctrl Pts',(-26.3297379345677,-21.4986871523087,23.4));
#1285=CARTESIAN_POINT('',(-7.77553317820479,132.600001981854,23.4));
#1286=CARTESIAN_POINT('Ctrl Pts',(-7.77553317820478,132.600001981854,23.4));
#1287=CARTESIAN_POINT('Ctrl Pts',(-17.41326418843,81.3430163095164,23.4));
#1288=CARTESIAN_POINT('Ctrl Pts',(-23.5979713468553,29.9773262229344,23.4));
#1289=CARTESIAN_POINT('Ctrl Pts',(-26.3297379345677,-21.4986871523087,23.4));
#1290=CARTESIAN_POINT('',(-7.44368790288136,132.200001981854,23.8));
#1291=CARTESIAN_POINT('Ctrl Pts',(-25.920840733181,-21.341898942761,23.8));
#1292=CARTESIAN_POINT('Ctrl Pts',(-23.191029073393,29.9475324330947,23.8));
#1293=CARTESIAN_POINT('Ctrl Pts',(-17.0320508022098,81.127483506661,23.8));
#1294=CARTESIAN_POINT('Ctrl Pts',(-7.44368790306762,132.200001981964,23.8));
#1295=CARTESIAN_POINT('Ctrl Pts',(-7.44368790306795,132.200001981962,23.8));
#1296=CARTESIAN_POINT('Ctrl Pts',(-7.49897934758291,132.266639824469,23.733362157438));
#1297=CARTESIAN_POINT('Ctrl Pts',(-7.5542679015305,132.333278879592,23.6667230969561));
#1298=CARTESIAN_POINT('Ctrl Pts',(-7.60962174334864,132.400001351248,23.6000006252864));
#1299=CARTESIAN_POINT('Ctrl Pts',(-7.66495121245956,132.466694444504,23.5333075320161));
#1300=CARTESIAN_POINT('Ctrl Pts',(-7.72027780612081,132.533388795122,23.4666131867322));
#1301=CARTESIAN_POINT('Ctrl Pts',(-7.77553317820478,132.600001981854,23.4));
#1302=CARTESIAN_POINT('Origin',(3.88776658910259,132.400001981854,23.6));
#1303=CARTESIAN_POINT('',(3.88776658910259,132.600001981854,23.4));
#1304=CARTESIAN_POINT('',(3.88776658910259,132.200001981854,23.8));
#1305=CARTESIAN_POINT('Ctrl Pts',(26.3297379345677,-21.4986871523087,22.));
#1306=CARTESIAN_POINT('Ctrl Pts',(26.3297379345677,-21.4986871523087,23.8));
#1307=CARTESIAN_POINT('Ctrl Pts',(23.5979713468553,29.9773262229343,22.));
#1308=CARTESIAN_POINT('Ctrl Pts',(23.5979713468553,29.9773262229343,23.8));
#1309=CARTESIAN_POINT('Ctrl Pts',(17.41326418843,81.3430163095164,22.));
#1310=CARTESIAN_POINT('Ctrl Pts',(17.41326418843,81.3430163095164,23.8));
#1311=CARTESIAN_POINT('Ctrl Pts',(7.77553317820479,132.600001981854,22.));
#1312=CARTESIAN_POINT('Ctrl Pts',(7.77553317820479,132.600001981854,23.8));
#1313=CARTESIAN_POINT('',(26.3297379345677,-21.4986871523087,22.));
#1314=CARTESIAN_POINT('',(26.3297379345677,-21.4986871523087,22.));
#1315=CARTESIAN_POINT('',(7.77553317820479,132.600001981854,22.));
#1316=CARTESIAN_POINT('Ctrl Pts',(26.3297379345677,-21.4986871523087,22.));
#1317=CARTESIAN_POINT('Ctrl Pts',(23.5979713468553,29.9773262229343,22.));
#1318=CARTESIAN_POINT('Ctrl Pts',(17.41326418843,81.3430163095164,22.));
#1319=CARTESIAN_POINT('Ctrl Pts',(7.77553317820479,132.600001981854,22.));
#1320=CARTESIAN_POINT('',(7.77553317820479,132.600001981854,22.));
#1321=CARTESIAN_POINT('Origin',(10.828426592927,-37.0000002132389,22.));
#1322=CARTESIAN_POINT('',(10.828426592927,-37.0000002132389,22.));
#1323=CARTESIAN_POINT('',(10.828426592927,-37.0000002132389,22.));
#1324=CARTESIAN_POINT('',(10.828426592927,-37.0000002132389,22.));
#1325=CARTESIAN_POINT('Origin',(2.35283035341625E-15,-37.0000005456419,
22.));
#1326=CARTESIAN_POINT('',(2.35283035341626E-15,-37.0000005456419,22.));
#1327=CARTESIAN_POINT('',(2.35283035341626E-15,-37.0000005456419,22.));
#1328=CARTESIAN_POINT('',(-6.66133814775094E-15,-37.0000005456419,22.));
#1329=CARTESIAN_POINT('Origin',(-10.828426592927,-37.0000002132389,22.));
#1330=CARTESIAN_POINT('',(-10.828426592927,-37.0000002132389,22.));
#1331=CARTESIAN_POINT('',(-10.828426592927,-37.0000002132389,22.));
#1332=CARTESIAN_POINT('',(2.35283035341626E-15,-37.0000005456419,22.));
#1333=CARTESIAN_POINT('Origin',(0.,47.8000007181063,23.8));
#1334=CARTESIAN_POINT('',(3.5,-35.0000007450581,23.8));
#1335=CARTESIAN_POINT('',(-3.5,-35.0000007450581,23.8));
#1336=CARTESIAN_POINT('',(0.,-35.0000007450581,23.8));
#1337=CARTESIAN_POINT('',(-3.5,-23.0000007450581,23.8));
#1338=CARTESIAN_POINT('',(-3.5,-35.0000007450581,23.8));
#1339=CARTESIAN_POINT('',(3.5,-23.0000007450581,23.8));
#1340=CARTESIAN_POINT('',(3.5,-23.0000007450581,23.8));
#1341=CARTESIAN_POINT('',(3.5,-35.0000007450581,23.8));
#1342=CARTESIAN_POINT('',(-3.50000000000001,130.600001981854,23.8));
#1343=CARTESIAN_POINT('',(3.50000000000001,130.600001981854,23.8));
#1344=CARTESIAN_POINT('',(-5.53294874866594E-15,130.600001981854,23.8));
#1345=CARTESIAN_POINT('',(3.50000000000001,118.600001981854,23.8));
#1346=CARTESIAN_POINT('',(3.50000000000001,130.600001981854,23.8));
#1347=CARTESIAN_POINT('',(-3.50000000000001,118.600001981854,23.8));
#1348=CARTESIAN_POINT('',(-3.50000000000001,118.600001981854,23.8));
#1349=CARTESIAN_POINT('',(-3.50000000000001,130.600001981854,23.8));
#1350=CARTESIAN_POINT('',(-3.49990029707808,74.7345898468502,23.8));
#1351=CARTESIAN_POINT('',(-14.6211494765031,63.6134437908056,23.8));
#1352=CARTESIAN_POINT('',(-9.3585643913354,68.8759800778973,23.8));
#1353=CARTESIAN_POINT('',(-13.8715836713907,69.3629752304143,23.8));
#1354=CARTESIAN_POINT('Ctrl Pts',(-14.6211494765031,63.6134437908056,23.8));
#1355=CARTESIAN_POINT('Ctrl Pts',(-14.3761213299389,65.5301024543314,23.8));
#1356=CARTESIAN_POINT('Ctrl Pts',(-14.1262660868452,67.4466128271755,23.8));
#1357=CARTESIAN_POINT('Ctrl Pts',(-13.8715836713907,69.3629752304143,23.8));
#1358=CARTESIAN_POINT('',(-3.49987568999464,79.7345658543087,23.8));
#1359=CARTESIAN_POINT('',(-15.7943921412143,67.4401885178576,23.8));
#1360=CARTESIAN_POINT('',(-3.49995427198022,63.7672918988088,23.8));
#1361=CARTESIAN_POINT('',(-3.49999571598696,84.7344517454755,23.8));
#1362=CARTESIAN_POINT('',(-13.0882792142144,75.1462314801098,23.8));
#1363=CARTESIAN_POINT('',(-11.8586037731652,76.375898811689,23.8));
#1364=CARTESIAN_POINT('',(-12.2706025486259,80.9639442269116,23.8));
#1365=CARTESIAN_POINT('Ctrl Pts',(-13.0882792142144,75.1462314801098,23.8));
#1366=CARTESIAN_POINT('Ctrl Pts',(-12.8206658373388,77.0856202143904,23.8));
#1367=CARTESIAN_POINT('Ctrl Pts',(-12.5481069750208,79.024857685676,23.8));
#1368=CARTESIAN_POINT('Ctrl Pts',(-12.2706025486259,80.9639442269116,23.8));
#1369=CARTESIAN_POINT('',(-3.49999547280031,89.7345504408683,23.8));
#1370=CARTESIAN_POINT('',(-17.49393748716,75.7406098021789,23.8));
#1371=CARTESIAN_POINT('',(-3.49999649257243,68.7672756646008,23.8));
#1372=CARTESIAN_POINT('',(3.49997565892237,94.7345848012544,23.8));
#1373=CARTESIAN_POINT('',(3.4999618353853,99.7345833588543,23.8));
#1374=CARTESIAN_POINT('',(3.50004053912399,71.2672975980654,23.8));
#1375=CARTESIAN_POINT('',(10.5296105393816,92.7049730087045,23.8));
#1376=CARTESIAN_POINT('',(15.6086122625614,87.6259989966184,23.8));
#1377=CARTESIAN_POINT('',(11.4179261098863,86.8166732174872,23.8));
#1378=CARTESIAN_POINT('Ctrl Pts',(10.5296105393816,92.7049730087045,23.8));
#1379=CARTESIAN_POINT('Ctrl Pts',(10.8307853395109,90.7423605496536,23.8));
#1380=CARTESIAN_POINT('Ctrl Pts',(11.1268905024764,88.7795940677598,23.8));
#1381=CARTESIAN_POINT('Ctrl Pts',(11.4179261098863,86.8166732174872,23.8));
#1382=CARTESIAN_POINT('',(18.3175986951424,79.9170345003613,23.8));
#1383=CARTESIAN_POINT('',(-3.4999512706802,94.7345816691919,23.8));
#1384=CARTESIAN_POINT('',(-11.4179309178744,86.8166472079571,23.8));
#1385=CARTESIAN_POINT('',(-14.3586036972363,83.8759912102905,23.8));
#1386=CARTESIAN_POINT('',(-10.529616026862,92.704944864307,23.8));
#1387=CARTESIAN_POINT('Ctrl Pts',(-11.4179309178744,86.8166472079571,23.8));
#1388=CARTESIAN_POINT('Ctrl Pts',(-11.1268955332265,88.779567346302,23.8));
#1389=CARTESIAN_POINT('Ctrl Pts',(-10.8307905967585,90.7423331165735,23.8));
#1390=CARTESIAN_POINT('Ctrl Pts',(-10.529616026862,92.704944864307,23.8));
#1391=CARTESIAN_POINT('',(-3.49993584358231,99.7345816691681,23.8));
#1392=CARTESIAN_POINT('',(-19.1234318124498,84.111182109741,23.8));
#1393=CARTESIAN_POINT('',(-3.50001596355208,73.7672965932696,23.8));
#1394=CARTESIAN_POINT('',(3.49996352972631,84.7344957463654,23.8));
#1395=CARTESIAN_POINT('',(3.49994573641607,89.7345902714143,23.8));
#1396=CARTESIAN_POINT('',(3.50002924715462,66.2672544599456,23.8));
#1397=CARTESIAN_POINT('',(12.2705932744294,80.964003884418,23.8));
#1398=CARTESIAN_POINT('',(13.1086005897518,80.1260024118797,23.8));
#1399=CARTESIAN_POINT('',(13.0882665542563,75.1463194346809,23.8));
#1400=CARTESIAN_POINT('Ctrl Pts',(12.2705932744294,80.964003884418,23.8));
#1401=CARTESIAN_POINT('Ctrl Pts',(12.5480965241945,79.0249267742545,23.8));
#1402=CARTESIAN_POINT('Ctrl Pts',(12.8206542579256,77.0856987353221,23.8));
#1403=CARTESIAN_POINT('Ctrl Pts',(13.0882665542563,75.1463194346809,23.8));
#1404=CARTESIAN_POINT('',(16.6527363523735,71.5818967418582,23.8));
#1405=CARTESIAN_POINT('',(3.50000640949035,74.7345602374613,23.8));
#1406=CARTESIAN_POINT('',(3.50000682855982,79.7345368552205,23.8));
#1407=CARTESIAN_POINT('',(3.50000528073989,61.2672803311086,23.8));
#1408=CARTESIAN_POINT('',(13.8715838807832,69.362971309967,23.8));
#1409=CARTESIAN_POINT('',(10.6086381849035,72.6259133857014,23.8));
#1410=CARTESIAN_POINT('',(14.6211547054743,63.6134020932377,23.8));
#1411=CARTESIAN_POINT('Ctrl Pts',(13.8715838807832,69.362971309967,23.8));
#1412=CARTESIAN_POINT('Ctrl Pts',(14.1262680328995,67.4465963164863,23.8));
#1413=CARTESIAN_POINT('Ctrl Pts',(14.3761249491855,65.5300733512708,23.8));
#1414=CARTESIAN_POINT('Ctrl Pts',(14.6211547054743,63.6134020932377,23.8));
#1415=CARTESIAN_POINT('',(14.9192196097395,63.315336924686,23.8));
#1416=CARTESIAN_POINT('Origin',(3.50000640949035,74.7345602374613,23.8));
#1417=CARTESIAN_POINT('',(3.50000682855982,79.7345368552205,22.));
#1418=CARTESIAN_POINT('',(3.50000640949035,74.7345602374613,22.));
#1419=CARTESIAN_POINT('',(3.50000528073989,61.2672803311086,22.));
#1420=CARTESIAN_POINT('',(3.50000682855982,79.7345368552205,23.8));
#1421=CARTESIAN_POINT('',(3.50000640949035,74.7345602374613,23.8));
#1422=CARTESIAN_POINT('Origin',(14.6211547053099,63.6134020930733,23.8));
#1423=CARTESIAN_POINT('',(14.6211547054743,63.6134020932377,22.));
#1424=CARTESIAN_POINT('',(14.9192196097395,63.315336924686,22.));
#1425=CARTESIAN_POINT('',(14.6211547054743,63.6134020932377,23.8));
#1426=CARTESIAN_POINT('Ctrl Pts',(13.8715838807832,69.362971309967,23.8));
#1427=CARTESIAN_POINT('Ctrl Pts',(13.8715838807832,69.362971309967,21.82));
#1428=CARTESIAN_POINT('Ctrl Pts',(14.1262680328995,67.4465963164863,23.8));
#1429=CARTESIAN_POINT('Ctrl Pts',(14.1262680328995,67.4465963164863,21.82));
#1430=CARTESIAN_POINT('Ctrl Pts',(14.3761249491855,65.5300733512708,23.8));
#1431=CARTESIAN_POINT('Ctrl Pts',(14.3761249491855,65.5300733512708,21.82));
#1432=CARTESIAN_POINT('Ctrl Pts',(14.6211547054743,63.6134020932377,23.8));
#1433=CARTESIAN_POINT('Ctrl Pts',(14.6211547054743,63.6134020932377,21.82));
#1434=CARTESIAN_POINT('',(13.8715838807832,69.362971309967,22.));
#1435=CARTESIAN_POINT('Ctrl Pts',(14.6211547054743,63.6134020932377,22.));
#1436=CARTESIAN_POINT('Ctrl Pts',(14.3761249491855,65.5300733512708,22.));
#1437=CARTESIAN_POINT('Ctrl Pts',(14.1262680328995,67.4465963164863,22.));
#1438=CARTESIAN_POINT('Ctrl Pts',(13.8715838807832,69.362971309967,22.));
#1439=CARTESIAN_POINT('',(13.8715838807832,69.362971309967,23.8));
#1440=CARTESIAN_POINT('Origin',(3.50000682855982,79.7345368552205,23.8));
#1441=CARTESIAN_POINT('',(10.6086381849035,72.6259133857014,22.));
#1442=CARTESIAN_POINT('Origin',(3.49996352972631,84.7344957463654,23.8));
#1443=CARTESIAN_POINT('',(3.49994573641607,89.7345902714143,22.));
#1444=CARTESIAN_POINT('',(3.49996352972631,84.7344957463654,22.));
#1445=CARTESIAN_POINT('',(3.50002924715462,66.2672544599456,22.));
#1446=CARTESIAN_POINT('',(3.49994573641607,89.7345902714143,23.8));
#1447=CARTESIAN_POINT('',(3.49996352972631,84.7344957463654,23.8));
#1448=CARTESIAN_POINT('Origin',(13.0882665540939,75.1463194345184,23.8));
#1449=CARTESIAN_POINT('',(13.0882665542563,75.1463194346809,22.));
#1450=CARTESIAN_POINT('',(16.6527363523735,71.5818967418582,22.));
#1451=CARTESIAN_POINT('',(13.0882665542563,75.1463194346809,23.8));
#1452=CARTESIAN_POINT('Ctrl Pts',(12.2705932744294,80.964003884418,23.8));
#1453=CARTESIAN_POINT('Ctrl Pts',(12.2705932744294,80.964003884418,21.82));
#1454=CARTESIAN_POINT('Ctrl Pts',(12.5480965241945,79.0249267742545,23.8));
#1455=CARTESIAN_POINT('Ctrl Pts',(12.5480965241945,79.0249267742545,21.82));
#1456=CARTESIAN_POINT('Ctrl Pts',(12.8206542579256,77.0856987353221,23.8));
#1457=CARTESIAN_POINT('Ctrl Pts',(12.8206542579256,77.0856987353221,21.82));
#1458=CARTESIAN_POINT('Ctrl Pts',(13.0882665542563,75.1463194346809,23.8));
#1459=CARTESIAN_POINT('Ctrl Pts',(13.0882665542563,75.1463194346809,21.82));
#1460=CARTESIAN_POINT('',(12.2705932744294,80.964003884418,22.));
#1461=CARTESIAN_POINT('Ctrl Pts',(13.0882665542563,75.1463194346809,22.));
#1462=CARTESIAN_POINT('Ctrl Pts',(12.8206542579256,77.0856987353221,22.));
#1463=CARTESIAN_POINT('Ctrl Pts',(12.5480965241945,79.0249267742545,22.));
#1464=CARTESIAN_POINT('Ctrl Pts',(12.2705932744294,80.964003884418,22.));
#1465=CARTESIAN_POINT('',(12.2705932744294,80.964003884418,23.8));
#1466=CARTESIAN_POINT('Origin',(3.49994573641607,89.7345902714143,23.8));
#1467=CARTESIAN_POINT('',(13.1086005897518,80.1260024118797,22.));
#1468=CARTESIAN_POINT('Origin',(-3.4999512706802,94.7345816691919,23.8));
#1469=CARTESIAN_POINT('',(-11.4179309178744,86.8166472079571,22.));
#1470=CARTESIAN_POINT('',(-3.4999512706802,94.7345816691919,22.));
#1471=CARTESIAN_POINT('',(-14.3586036972363,83.8759912102905,22.));
#1472=CARTESIAN_POINT('',(-11.4179309178744,86.8166472079571,23.8));
#1473=CARTESIAN_POINT('',(-3.4999512706802,94.7345816691919,23.8));
#1474=CARTESIAN_POINT('Origin',(-3.49993584358231,99.7345816691681,23.8));
#1475=CARTESIAN_POINT('',(-3.49993584358231,99.7345816691681,22.));
#1476=CARTESIAN_POINT('',(-3.50001596355208,73.7672965932696,22.));
#1477=CARTESIAN_POINT('',(-3.49993584358231,99.7345816691681,23.8));
#1478=CARTESIAN_POINT('Origin',(-10.5296160268042,92.7049448646838,23.8));
#1479=CARTESIAN_POINT('',(-10.529616026862,92.704944864307,22.));
#1480=CARTESIAN_POINT('',(-19.1234318124498,84.111182109741,22.));
#1481=CARTESIAN_POINT('',(-10.529616026862,92.704944864307,23.8));
#1482=CARTESIAN_POINT('Ctrl Pts',(-11.4179309178744,86.8166472079571,23.8));
#1483=CARTESIAN_POINT('Ctrl Pts',(-11.4179309178744,86.8166472079571,21.82));
#1484=CARTESIAN_POINT('Ctrl Pts',(-11.1268955332265,88.779567346302,23.8));
#1485=CARTESIAN_POINT('Ctrl Pts',(-11.1268955332265,88.779567346302,21.82));
#1486=CARTESIAN_POINT('Ctrl Pts',(-10.8307905967585,90.7423331165735,23.8));
#1487=CARTESIAN_POINT('Ctrl Pts',(-10.8307905967585,90.7423331165735,21.82));
#1488=CARTESIAN_POINT('Ctrl Pts',(-10.529616026862,92.704944864307,23.8));
#1489=CARTESIAN_POINT('Ctrl Pts',(-10.529616026862,92.704944864307,21.82));
#1490=CARTESIAN_POINT('Ctrl Pts',(-10.529616026862,92.704944864307,22.));
#1491=CARTESIAN_POINT('Ctrl Pts',(-10.8307905967585,90.7423331165735,22.));
#1492=CARTESIAN_POINT('Ctrl Pts',(-11.1268955332265,88.779567346302,22.));
#1493=CARTESIAN_POINT('Ctrl Pts',(-11.4179309178744,86.8166472079571,22.));
#1494=CARTESIAN_POINT('Origin',(3.49997565892237,94.7345848012544,23.8));
#1495=CARTESIAN_POINT('',(3.4999618353853,99.7345833588543,22.));
#1496=CARTESIAN_POINT('',(3.49997565892237,94.7345848012544,22.));
#1497=CARTESIAN_POINT('',(3.50004053912399,71.2672975980654,22.));
#1498=CARTESIAN_POINT('',(3.4999618353853,99.7345833588543,23.8));
#1499=CARTESIAN_POINT('',(3.49997565892237,94.7345848012544,23.8));
#1500=CARTESIAN_POINT('Origin',(11.4179261097258,86.8166732173268,23.8));
#1501=CARTESIAN_POINT('',(11.4179261098863,86.8166732174872,22.));
#1502=CARTESIAN_POINT('',(18.3175986951424,79.9170345003613,22.));
#1503=CARTESIAN_POINT('',(11.4179261098863,86.8166732174872,23.8));
#1504=CARTESIAN_POINT('Ctrl Pts',(10.5296105393816,92.7049730087045,23.8));
#1505=CARTESIAN_POINT('Ctrl Pts',(10.5296105393816,92.7049730087045,21.82));
#1506=CARTESIAN_POINT('Ctrl Pts',(10.8307853395109,90.7423605496536,23.8));
#1507=CARTESIAN_POINT('Ctrl Pts',(10.8307853395109,90.7423605496536,21.82));
#1508=CARTESIAN_POINT('Ctrl Pts',(11.1268905024764,88.7795940677598,23.8));
#1509=CARTESIAN_POINT('Ctrl Pts',(11.1268905024764,88.7795940677598,21.82));
#1510=CARTESIAN_POINT('Ctrl Pts',(11.4179261098863,86.8166732174872,23.8));
#1511=CARTESIAN_POINT('Ctrl Pts',(11.4179261098863,86.8166732174872,21.82));
#1512=CARTESIAN_POINT('',(10.5296105393816,92.7049730087045,22.));
#1513=CARTESIAN_POINT('Ctrl Pts',(11.4179261098863,86.8166732174872,22.));
#1514=CARTESIAN_POINT('Ctrl Pts',(11.1268905024764,88.7795940677598,22.));
#1515=CARTESIAN_POINT('Ctrl Pts',(10.8307853395109,90.7423605496536,22.));
#1516=CARTESIAN_POINT('Ctrl Pts',(10.5296105393816,92.7049730087045,22.));
#1517=CARTESIAN_POINT('',(10.5296105393816,92.7049730087045,23.8));
#1518=CARTESIAN_POINT('Origin',(3.4999618353853,99.7345833588543,23.8));
#1519=CARTESIAN_POINT('',(15.6086122625614,87.6259989966184,22.));
#1520=CARTESIAN_POINT('Origin',(-3.49999571598696,84.7344517454755,23.8));
#1521=CARTESIAN_POINT('',(-13.0882792142144,75.1462314801098,22.));
#1522=CARTESIAN_POINT('',(-3.49999571598696,84.7344517454755,22.));
#1523=CARTESIAN_POINT('',(-11.8586037731652,76.375898811689,22.));
#1524=CARTESIAN_POINT('',(-13.0882792142144,75.1462314801098,23.8));
#1525=CARTESIAN_POINT('',(-3.49999571598696,84.7344517454755,23.8));
#1526=CARTESIAN_POINT('Origin',(-3.49999547280031,89.7345504408683,23.8));
#1527=CARTESIAN_POINT('',(-3.49999547280031,89.7345504408683,22.));
#1528=CARTESIAN_POINT('',(-3.49999649257243,68.7672756646008,22.));
#1529=CARTESIAN_POINT('',(-3.49999547280031,89.7345504408683,23.8));
#1530=CARTESIAN_POINT('Origin',(-12.2706025485719,80.9639442272886,23.8));
#1531=CARTESIAN_POINT('',(-12.2706025486259,80.9639442269116,22.));
#1532=CARTESIAN_POINT('',(-17.49393748716,75.7406098021789,22.));
#1533=CARTESIAN_POINT('',(-12.2706025486259,80.9639442269116,23.8));
#1534=CARTESIAN_POINT('Ctrl Pts',(-13.0882792142144,75.1462314801098,23.8));
#1535=CARTESIAN_POINT('Ctrl Pts',(-13.0882792142144,75.1462314801098,21.82));
#1536=CARTESIAN_POINT('Ctrl Pts',(-12.8206658373388,77.0856202143904,23.8));
#1537=CARTESIAN_POINT('Ctrl Pts',(-12.8206658373388,77.0856202143904,21.82));
#1538=CARTESIAN_POINT('Ctrl Pts',(-12.5481069750208,79.024857685676,23.8));
#1539=CARTESIAN_POINT('Ctrl Pts',(-12.5481069750208,79.024857685676,21.82));
#1540=CARTESIAN_POINT('Ctrl Pts',(-12.2706025486259,80.9639442269116,23.8));
#1541=CARTESIAN_POINT('Ctrl Pts',(-12.2706025486259,80.9639442269116,21.82));
#1542=CARTESIAN_POINT('Ctrl Pts',(-12.2706025486259,80.9639442269116,22.));
#1543=CARTESIAN_POINT('Ctrl Pts',(-12.5481069750208,79.024857685676,22.));
#1544=CARTESIAN_POINT('Ctrl Pts',(-12.8206658373388,77.0856202143904,22.));
#1545=CARTESIAN_POINT('Ctrl Pts',(-13.0882792142144,75.1462314801098,22.));
#1546=CARTESIAN_POINT('Origin',(-3.49990029707808,74.7345898468502,23.8));
#1547=CARTESIAN_POINT('',(-14.6211494765031,63.6134437908056,22.));
#1548=CARTESIAN_POINT('',(-3.49990029707808,74.7345898468502,22.));
#1549=CARTESIAN_POINT('',(-9.3585643913354,68.8759800778973,22.));
#1550=CARTESIAN_POINT('',(-14.6211494765031,63.6134437908056,23.8));
#1551=CARTESIAN_POINT('',(-3.49990029707808,74.7345898468502,23.8));
#1552=CARTESIAN_POINT('Origin',(-3.49987568999464,79.7345658543087,23.8));
#1553=CARTESIAN_POINT('',(-3.49987568999464,79.7345658543087,22.));
#1554=CARTESIAN_POINT('',(-3.49995427198022,63.7672918988088,22.));
#1555=CARTESIAN_POINT('',(-3.49987568999464,79.7345658543087,23.8));
#1556=CARTESIAN_POINT('Origin',(-13.8715836713406,69.3629752307914,23.8));
#1557=CARTESIAN_POINT('',(-13.8715836713907,69.3629752304143,22.));
#1558=CARTESIAN_POINT('',(-15.7943921412143,67.4401885178576,22.));
#1559=CARTESIAN_POINT('',(-13.8715836713907,69.3629752304143,23.8));
#1560=CARTESIAN_POINT('Ctrl Pts',(-14.6211494765031,63.6134437908056,23.8));
#1561=CARTESIAN_POINT('Ctrl Pts',(-14.6211494765031,63.6134437908056,21.82));
#1562=CARTESIAN_POINT('Ctrl Pts',(-14.3761213299389,65.5301024543314,23.8));
#1563=CARTESIAN_POINT('Ctrl Pts',(-14.3761213299389,65.5301024543314,21.82));
#1564=CARTESIAN_POINT('Ctrl Pts',(-14.1262660868452,67.4466128271755,23.8));
#1565=CARTESIAN_POINT('Ctrl Pts',(-14.1262660868452,67.4466128271755,21.82));
#1566=CARTESIAN_POINT('Ctrl Pts',(-13.8715836713907,69.3629752304143,23.8));
#1567=CARTESIAN_POINT('Ctrl Pts',(-13.8715836713907,69.3629752304143,21.82));
#1568=CARTESIAN_POINT('Ctrl Pts',(-13.8715836713907,69.3629752304143,22.));
#1569=CARTESIAN_POINT('Ctrl Pts',(-14.1262660868452,67.4466128271755,22.));
#1570=CARTESIAN_POINT('Ctrl Pts',(-14.3761213299389,65.5301024543314,22.));
#1571=CARTESIAN_POINT('Ctrl Pts',(-14.6211494765031,63.6134437908056,22.));
#1572=CARTESIAN_POINT('Origin',(3.5,-23.0000007450581,22.));
#1573=CARTESIAN_POINT('',(3.5,-23.0000007450581,22.));
#1574=CARTESIAN_POINT('',(3.5,-35.0000007450581,22.));
#1575=CARTESIAN_POINT('',(3.5,-35.0000007450581,22.));
#1576=CARTESIAN_POINT('',(3.5,-35.0000007450581,22.));
#1577=CARTESIAN_POINT('',(3.5,-23.0000007450581,22.));
#1578=CARTESIAN_POINT('Origin',(-3.5,-23.0000007450581,22.));
#1579=CARTESIAN_POINT('',(-3.5,-23.0000007450581,22.));
#1580=CARTESIAN_POINT('',(3.5,-23.0000007450581,22.));
#1581=CARTESIAN_POINT('',(-3.5,-23.0000007450581,22.));
#1582=CARTESIAN_POINT('Origin',(-3.5,-35.0000007450581,22.));
#1583=CARTESIAN_POINT('',(-3.5,-35.0000007450581,22.));
#1584=CARTESIAN_POINT('',(-3.5,-35.0000007450581,22.));
#1585=CARTESIAN_POINT('',(-3.5,-35.0000007450581,22.));
#1586=CARTESIAN_POINT('Origin',(3.5,-35.0000007450581,22.));
#1587=CARTESIAN_POINT('',(0.,-35.0000007450581,22.));
#1588=CARTESIAN_POINT('Origin',(-3.50000000000001,118.600001981854,22.));
#1589=CARTESIAN_POINT('',(-3.50000000000001,118.600001981854,22.));
#1590=CARTESIAN_POINT('',(-3.50000000000001,130.600001981854,22.));
#1591=CARTESIAN_POINT('',(-3.50000000000001,130.600001981854,22.));
#1592=CARTESIAN_POINT('',(-3.50000000000001,130.600001981854,22.));
#1593=CARTESIAN_POINT('',(-3.50000000000001,118.600001981854,22.));
#1594=CARTESIAN_POINT('Origin',(3.50000000000001,118.600001981854,22.));
#1595=CARTESIAN_POINT('',(3.50000000000001,118.600001981854,22.));
#1596=CARTESIAN_POINT('',(-3.50000000000001,118.600001981854,22.));
#1597=CARTESIAN_POINT('',(3.50000000000001,118.600001981854,22.));
#1598=CARTESIAN_POINT('Origin',(3.50000000000001,130.600001981854,22.));
#1599=CARTESIAN_POINT('',(3.50000000000001,130.600001981854,22.));
#1600=CARTESIAN_POINT('',(3.50000000000001,130.600001981854,22.));
#1601=CARTESIAN_POINT('',(3.50000000000001,130.600001981854,22.));
#1602=CARTESIAN_POINT('Origin',(-3.50000000000001,130.600001981854,22.));
#1603=CARTESIAN_POINT('',(-5.53294874866594E-15,130.600001981854,22.));
#1604=CARTESIAN_POINT('Origin',(-26.3297379345677,-21.4986871523087,22.));
#1605=CARTESIAN_POINT('',(-26.3297379345677,-21.4986871523087,22.));
#1606=CARTESIAN_POINT('',(-26.3297379345677,-21.4986871523087,22.));
#1607=CARTESIAN_POINT('',(-10.828426592927,-37.0000002132389,22.));
#1608=CARTESIAN_POINT('Ctrl Pts',(-7.77553317820479,132.600001981854,22.));
#1609=CARTESIAN_POINT('Ctrl Pts',(-7.77553317820479,132.600001981854,23.8));
#1610=CARTESIAN_POINT('Ctrl Pts',(-17.41326418843,81.3430163095164,22.));
#1611=CARTESIAN_POINT('Ctrl Pts',(-17.41326418843,81.3430163095164,23.8));
#1612=CARTESIAN_POINT('Ctrl Pts',(-23.5979713468553,29.9773262229343,22.));
#1613=CARTESIAN_POINT('Ctrl Pts',(-23.5979713468553,29.9773262229343,23.8));
#1614=CARTESIAN_POINT('Ctrl Pts',(-26.3297379345677,-21.4986871523087,22.));
#1615=CARTESIAN_POINT('Ctrl Pts',(-26.3297379345677,-21.4986871523087,23.8));
#1616=CARTESIAN_POINT('',(-7.77553317820479,132.600001981854,22.));
#1617=CARTESIAN_POINT('',(-7.77553317820479,132.600001981854,22.));
#1618=CARTESIAN_POINT('Ctrl Pts',(-26.3297379345677,-21.4986871523087,22.));
#1619=CARTESIAN_POINT('Ctrl Pts',(-23.5979713468553,29.9773262229343,22.));
#1620=CARTESIAN_POINT('Ctrl Pts',(-17.41326418843,81.3430163095164,22.));
#1621=CARTESIAN_POINT('Ctrl Pts',(-7.77553317820479,132.600001981854,22.));
#1622=CARTESIAN_POINT('Origin',(7.77553317820479,132.600001981854,22.));
#1623=CARTESIAN_POINT('',(8.76425368570155E-16,132.600001981854,22.));
#1624=CARTESIAN_POINT('Origin',(0.,47.8000007181063,22.));
#1625=UNCERTAINTY_MEASURE_WITH_UNIT(LENGTH_MEASURE(0.01),#1629,
'DISTANCE_ACCURACY_VALUE',
'Maximum model space distance between geometric entities at asserted c
onnectivities');
#1626=UNCERTAINTY_MEASURE_WITH_UNIT(LENGTH_MEASURE(0.01),#1629,
'DISTANCE_ACCURACY_VALUE',
'Maximum model space distance between geometric entities at asserted c
onnectivities');
#1627=(
GEOMETRIC_REPRESENTATION_CONTEXT(3)
GLOBAL_UNCERTAINTY_ASSIGNED_CONTEXT((#1625))
GLOBAL_UNIT_ASSIGNED_CONTEXT((#1629,#1631,#1632))
REPRESENTATION_CONTEXT('','3D')
);
#1628=(
GEOMETRIC_REPRESENTATION_CONTEXT(3)
GLOBAL_UNCERTAINTY_ASSIGNED_CONTEXT((#1626))
GLOBAL_UNIT_ASSIGNED_CONTEXT((#1629,#1631,#1632))
REPRESENTATION_CONTEXT('','3D')
);
#1629=(
LENGTH_UNIT()
NAMED_UNIT(*)
SI_UNIT(.MILLI.,.METRE.)
);
#1630=(
LENGTH_UNIT()
NAMED_UNIT(*)
SI_UNIT($,.METRE.)
);
#1631=(
NAMED_UNIT(*)
PLANE_ANGLE_UNIT()
SI_UNIT($,.RADIAN.)
);
#1632=(
NAMED_UNIT(*)
SI_UNIT($,.STERADIAN.)
SOLID_ANGLE_UNIT()
);
#1633=SHAPE_DEFINITION_REPRESENTATION(#1634,#1635);
#1634=PRODUCT_DEFINITION_SHAPE('',$,#1637);
#1635=SHAPE_REPRESENTATION('',(#970),#1627);
#1636=PRODUCT_DEFINITION_CONTEXT('part definition',#1641,'design');
#1637=PRODUCT_DEFINITION('Canopy R','Canopy R',#1638,#1636);
#1638=PRODUCT_DEFINITION_FORMATION('',$,#1643);
#1639=PRODUCT_RELATED_PRODUCT_CATEGORY('Canopy R','Canopy R',(#1643));
#1640=APPLICATION_PROTOCOL_DEFINITION('international standard',
'automotive_design',2009,#1641);
#1641=APPLICATION_CONTEXT(
'Core Data for Automotive Mechanical Design Process');
#1642=PRODUCT_CONTEXT('part definition',#1641,'mechanical');
#1643=PRODUCT('Canopy R','Canopy R',$,(#1642));
#1644=PRESENTATION_STYLE_ASSIGNMENT((#1646));
#1645=PRESENTATION_STYLE_ASSIGNMENT((#1647));
#1646=SURFACE_STYLE_USAGE(.BOTH.,#1648);
#1647=SURFACE_STYLE_USAGE(.BOTH.,#1649);
#1648=SURFACE_SIDE_STYLE('',(#1650));
#1649=SURFACE_SIDE_STYLE('',(#1651));
#1650=SURFACE_STYLE_FILL_AREA(#1652);
#1651=SURFACE_STYLE_FILL_AREA(#1653);
#1652=FILL_AREA_STYLE('Steel - Satin',(#1654));
#1653=FILL_AREA_STYLE('Paint - Enamel Glossy (Black)',(#1655));
#1654=FILL_AREA_STYLE_COLOUR('Steel - Satin',#1656);
#1655=FILL_AREA_STYLE_COLOUR('Paint - Enamel Glossy (Black)',#1657);
#1656=COLOUR_RGB('Steel - Satin',0.627450980392157,0.627450980392157,0.627450980392157);
#1657=COLOUR_RGB('Paint - Enamel Glossy (Black)',0.0980392156862745,0.0980392156862745,
0.0980392156862745);
ENDSEC;
END-ISO-10303-21;
