ISO-10303-21;
HEADER;
/* Generated by software containing ST-Developer
 * from STEP Tools, Inc. (www.steptools.com) 
 */

FILE_DESCRIPTION(
/* description */ (''),
/* implementation_level */ '2;1');

FILE_NAME(
/* name */ 'Fuselage 2.step',
/* time_stamp */ '2025-08-21T21:42:33+02:00',
/* author */ (''),
/* organization */ (''),
/* preprocessor_version */ 'ST-DEVELOPER v20.1',
/* originating_system */ 'Autodesk Translation Framework v14.10.0.0',
/* authorisation */ '');

FILE_SCHEMA (('AUTOMOTIVE_DESIGN { 1 0 10303 214 3 1 1 }'));
ENDSEC;

DATA;
#10=MECHANICAL_DESIGN_GEOMETRIC_PRESENTATION_REPRESENTATION('',(#13),#1485);
#11=SHAPE_REPRESENTATION_RELATIONSHIP('SRR','None',#1492,#12);
#12=ADVANCED_BREP_SHAPE_REPRESENTATION('',(#14),#1484);
#13=STYLED_ITEM('',(#1502),#14);
#14=MANIFOLD_SOLID_BREP('Fuselage 2',#805);
#15=B_SPLINE_SURFACE_WITH_KNOTS('',3,3,((#1262,#1263,#1264,#1265),(#1266,
#1267,#1268,#1269),(#1270,#1271,#1272,#1273),(#1274,#1275,#1276,#1277)),
 .UNSPECIFIED.,.F.,.F.,.F.,(4,4),(4,4),(0.,1.),(0.,0.00785364327828109),
 .UNSPECIFIED.);
#16=B_SPLINE_SURFACE_WITH_KNOTS('',3,3,((#1286,#1287,#1288,#1289),(#1290,
#1291,#1292,#1293),(#1294,#1295,#1296,#1297),(#1298,#1299,#1300,#1301)),
 .UNSPECIFIED.,.F.,.F.,.F.,(4,4),(4,4),(0.,1.),(0.,0.00785364327828109),
 .UNSPECIFIED.);
#17=B_SPLINE_SURFACE_WITH_KNOTS('',3,3,((#1306,#1307,#1308,#1309),(#1310,
#1311,#1312,#1313),(#1314,#1315,#1316,#1317),(#1318,#1319,#1320,#1321)),
 .UNSPECIFIED.,.F.,.F.,.F.,(4,4),(4,4),(0.,1.),(0.,0.0078536432782811),
 .UNSPECIFIED.);
#18=B_SPLINE_SURFACE_WITH_KNOTS('',3,3,((#1326,#1327,#1328,#1329),(#1330,
#1331,#1332,#1333),(#1334,#1335,#1336,#1337),(#1338,#1339,#1340,#1341)),
 .UNSPECIFIED.,.F.,.F.,.F.,(4,4),(4,4),(0.,1.),(0.,0.00785364327828109),
 .UNSPECIFIED.);
#19=B_SPLINE_SURFACE_WITH_KNOTS('',3,3,((#1346,#1347,#1348,#1349),(#1350,
#1351,#1352,#1353),(#1354,#1355,#1356,#1357),(#1358,#1359,#1360,#1361)),
 .UNSPECIFIED.,.F.,.F.,.F.,(4,4),(4,4),(0.,1.),(0.,0.00785364327828109),
 .UNSPECIFIED.);
#20=B_SPLINE_SURFACE_WITH_KNOTS('',3,3,((#1386,#1387,#1388,#1389),(#1390,
#1391,#1392,#1393),(#1394,#1395,#1396,#1397),(#1398,#1399,#1400,#1401)),
 .UNSPECIFIED.,.F.,.F.,.F.,(4,4),(4,4),(0.,1.),(0.,0.00785364327828111),
 .UNSPECIFIED.);
#21=B_SPLINE_SURFACE_WITH_KNOTS('',3,3,((#1406,#1407,#1408,#1409),(#1410,
#1411,#1412,#1413),(#1414,#1415,#1416,#1417),(#1418,#1419,#1420,#1421)),
 .UNSPECIFIED.,.F.,.F.,.F.,(4,4),(4,4),(0.,1.),(0.,0.00785364327828111),
 .UNSPECIFIED.);
#22=B_SPLINE_SURFACE_WITH_KNOTS('',3,3,((#1426,#1427,#1428,#1429),(#1430,
#1431,#1432,#1433),(#1434,#1435,#1436,#1437),(#1438,#1439,#1440,#1441)),
 .UNSPECIFIED.,.F.,.F.,.F.,(4,4),(4,4),(0.,1.),(0.,0.00785364327828109),
 .UNSPECIFIED.);
#23=B_SPLINE_SURFACE_WITH_KNOTS('',3,3,((#1446,#1447,#1448,#1449),(#1450,
#1451,#1452,#1453),(#1454,#1455,#1456,#1457),(#1458,#1459,#1460,#1461)),
 .UNSPECIFIED.,.F.,.F.,.F.,(4,4),(4,4),(0.,1.),(0.,0.00785364327828109),
 .UNSPECIFIED.);
#24=B_SPLINE_SURFACE_WITH_KNOTS('',3,3,((#1466,#1467,#1468,#1469),(#1470,
#1471,#1472,#1473),(#1474,#1475,#1476,#1477),(#1478,#1479,#1480,#1481)),
 .UNSPECIFIED.,.F.,.F.,.F.,(4,4),(4,4),(0.,1.),(0.,0.0078536432782811),
 .UNSPECIFIED.);
#25=CYLINDRICAL_SURFACE('',#839,0.800000000000001);
#26=CYLINDRICAL_SURFACE('',#841,0.800000000000001);
#27=CYLINDRICAL_SURFACE('',#848,3.2);
#28=CYLINDRICAL_SURFACE('',#854,3.2);
#29=FACE_BOUND('',#117,.T.);
#30=FACE_BOUND('',#118,.T.);
#31=FACE_BOUND('',#119,.T.);
#32=FACE_BOUND('',#125,.T.);
#33=FACE_BOUND('',#126,.T.);
#34=FACE_BOUND('',#127,.T.);
#35=CIRCLE('',#833,3.2);
#36=CIRCLE('',#834,3.2);
#37=CIRCLE('',#835,0.800000000000001);
#38=CIRCLE('',#836,0.800000000000001);
#39=CIRCLE('',#840,0.800000000000001);
#40=CIRCLE('',#842,0.800000000000001);
#41=CIRCLE('',#844,3.2);
#42=CIRCLE('',#845,3.2);
#43=B_SPLINE_CURVE_WITH_KNOTS('',3,(#1112,#1113,#1114,#1115,#1116,#1117),
 .UNSPECIFIED.,.F.,.F.,(4,2,4),(-2.03760982674473,-1.01880491337237,0.),
 .UNSPECIFIED.);
#44=B_SPLINE_CURVE_WITH_KNOTS('',3,(#1119,#1120,#1121,#1122,#1123,#1124),
 .UNSPECIFIED.,.F.,.F.,(4,2,4),(-2.03760982674473,-1.01880491337237,0.),
 .UNSPECIFIED.);
#45=B_SPLINE_CURVE_WITH_KNOTS('',3,(#1126,#1127,#1128,#1129,#1130,#1131),
 .UNSPECIFIED.,.F.,.F.,(4,2,4),(-0.707983710897154,-0.353991855448577,0.),
 .UNSPECIFIED.);
#46=B_SPLINE_CURVE_WITH_KNOTS('',3,(#1133,#1134,#1135,#1136,#1137,#1138),
 .UNSPECIFIED.,.F.,.F.,(4,2,4),(-2.26490649352738,-1.13245324676369,0.),
 .UNSPECIFIED.);
#47=B_SPLINE_CURVE_WITH_KNOTS('',3,(#1140,#1141,#1142,#1143,#1144,#1145),
 .UNSPECIFIED.,.F.,.F.,(4,2,4),(-0.71753684451772,-0.35876842225886,0.),
 .UNSPECIFIED.);
#48=B_SPLINE_CURVE_WITH_KNOTS('',3,(#1147,#1148,#1149,#1150,#1151,#1152),
 .UNSPECIFIED.,.F.,.F.,(4,2,4),(-2.03297808781535,-1.01648904390768,0.),
 .UNSPECIFIED.);
#49=B_SPLINE_CURVE_WITH_KNOTS('',3,(#1154,#1155,#1156,#1157,#1158,#1159),
 .UNSPECIFIED.,.F.,.F.,(4,2,4),(-2.03297808781535,-1.01648904390768,0.),
 .UNSPECIFIED.);
#50=B_SPLINE_CURVE_WITH_KNOTS('',3,(#1161,#1162,#1163,#1164,#1165,#1166),
 .UNSPECIFIED.,.F.,.F.,(4,2,4),(-0.71753684451772,-0.35876842225886,0.),
 .UNSPECIFIED.);
#51=B_SPLINE_CURVE_WITH_KNOTS('',3,(#1168,#1169,#1170,#1171,#1172,#1173),
 .UNSPECIFIED.,.F.,.F.,(4,2,4),(-2.26490649352738,-1.13245324676369,0.),
 .UNSPECIFIED.);
#52=B_SPLINE_CURVE_WITH_KNOTS('',3,(#1174,#1175,#1176,#1177,#1178,#1179),
 .UNSPECIFIED.,.F.,.F.,(4,2,4),(-0.707983710897154,-0.353991855448577,0.),
 .UNSPECIFIED.);
#53=B_SPLINE_CURVE_WITH_KNOTS('',3,(#1278,#1279,#1280,#1281),
 .UNSPECIFIED.,.F.,.F.,(4,4),(0.,0.00785364327828109),.UNSPECIFIED.);
#54=B_SPLINE_CURVE_WITH_KNOTS('',3,(#1282,#1283,#1284,#1285),
 .UNSPECIFIED.,.F.,.F.,(4,4),(0.,0.00785364327828109),.UNSPECIFIED.);
#55=B_SPLINE_CURVE_WITH_KNOTS('',3,(#1302,#1303,#1304,#1305),
 .UNSPECIFIED.,.F.,.F.,(4,4),(0.,0.00785364327828109),.UNSPECIFIED.);
#56=B_SPLINE_CURVE_WITH_KNOTS('',3,(#1322,#1323,#1324,#1325),
 .UNSPECIFIED.,.F.,.F.,(4,4),(0.,0.00785364327828109),.UNSPECIFIED.);
#57=B_SPLINE_CURVE_WITH_KNOTS('',3,(#1342,#1343,#1344,#1345),
 .UNSPECIFIED.,.F.,.F.,(4,4),(0.,0.00785364327828109),.UNSPECIFIED.);
#58=B_SPLINE_CURVE_WITH_KNOTS('',3,(#1362,#1363,#1364,#1365),
 .UNSPECIFIED.,.F.,.F.,(4,4),(0.,0.00785364327828109),.UNSPECIFIED.);
#59=B_SPLINE_CURVE_WITH_KNOTS('',3,(#1402,#1403,#1404,#1405),
 .UNSPECIFIED.,.F.,.F.,(4,4),(0.,0.00785364327828109),.UNSPECIFIED.);
#60=B_SPLINE_CURVE_WITH_KNOTS('',3,(#1422,#1423,#1424,#1425),
 .UNSPECIFIED.,.F.,.F.,(4,4),(0.,0.00785364327828109),.UNSPECIFIED.);
#61=B_SPLINE_CURVE_WITH_KNOTS('',3,(#1442,#1443,#1444,#1445),
 .UNSPECIFIED.,.F.,.F.,(4,4),(0.,0.00785364327828109),.UNSPECIFIED.);
#62=B_SPLINE_CURVE_WITH_KNOTS('',3,(#1462,#1463,#1464,#1465),
 .UNSPECIFIED.,.F.,.F.,(4,4),(0.,0.00785364327828109),.UNSPECIFIED.);
#63=FACE_OUTER_BOUND('',#103,.T.);
#64=FACE_OUTER_BOUND('',#104,.T.);
#65=FACE_OUTER_BOUND('',#105,.T.);
#66=FACE_OUTER_BOUND('',#106,.T.);
#67=FACE_OUTER_BOUND('',#107,.T.);
#68=FACE_OUTER_BOUND('',#108,.T.);
#69=FACE_OUTER_BOUND('',#109,.T.);
#70=FACE_OUTER_BOUND('',#110,.T.);
#71=FACE_OUTER_BOUND('',#111,.T.);
#72=FACE_OUTER_BOUND('',#112,.T.);
#73=FACE_OUTER_BOUND('',#113,.T.);
#74=FACE_OUTER_BOUND('',#114,.T.);
#75=FACE_OUTER_BOUND('',#115,.T.);
#76=FACE_OUTER_BOUND('',#116,.T.);
#77=FACE_OUTER_BOUND('',#120,.T.);
#78=FACE_OUTER_BOUND('',#121,.T.);
#79=FACE_OUTER_BOUND('',#122,.T.);
#80=FACE_OUTER_BOUND('',#123,.T.);
#81=FACE_OUTER_BOUND('',#124,.T.);
#82=FACE_OUTER_BOUND('',#128,.T.);
#83=FACE_OUTER_BOUND('',#129,.T.);
#84=FACE_OUTER_BOUND('',#130,.T.);
#85=FACE_OUTER_BOUND('',#131,.T.);
#86=FACE_OUTER_BOUND('',#132,.T.);
#87=FACE_OUTER_BOUND('',#133,.T.);
#88=FACE_OUTER_BOUND('',#134,.T.);
#89=FACE_OUTER_BOUND('',#135,.T.);
#90=FACE_OUTER_BOUND('',#136,.T.);
#91=FACE_OUTER_BOUND('',#137,.T.);
#92=FACE_OUTER_BOUND('',#138,.T.);
#93=FACE_OUTER_BOUND('',#139,.T.);
#94=FACE_OUTER_BOUND('',#140,.T.);
#95=FACE_OUTER_BOUND('',#141,.T.);
#96=FACE_OUTER_BOUND('',#142,.T.);
#97=FACE_OUTER_BOUND('',#143,.T.);
#98=FACE_OUTER_BOUND('',#144,.T.);
#99=FACE_OUTER_BOUND('',#145,.T.);
#100=FACE_OUTER_BOUND('',#146,.T.);
#101=FACE_OUTER_BOUND('',#147,.T.);
#102=FACE_OUTER_BOUND('',#148,.T.);
#103=EDGE_LOOP('',(#511,#512,#513,#514));
#104=EDGE_LOOP('',(#515,#516,#517,#518));
#105=EDGE_LOOP('',(#519,#520,#521,#522));
#106=EDGE_LOOP('',(#523,#524,#525,#526));
#107=EDGE_LOOP('',(#527,#528,#529,#530));
#108=EDGE_LOOP('',(#531,#532,#533,#534));
#109=EDGE_LOOP('',(#535,#536,#537,#538));
#110=EDGE_LOOP('',(#539,#540,#541,#542));
#111=EDGE_LOOP('',(#543,#544,#545,#546));
#112=EDGE_LOOP('',(#547,#548,#549,#550));
#113=EDGE_LOOP('',(#551,#552,#553,#554));
#114=EDGE_LOOP('',(#555,#556,#557,#558));
#115=EDGE_LOOP('',(#559,#560,#561,#562));
#116=EDGE_LOOP('',(#563,#564,#565,#566,#567,#568,#569,#570,#571,#572));
#117=EDGE_LOOP('',(#573,#574,#575,#576,#577,#578,#579,#580,#581,#582,#583,
#584,#585,#586,#587,#588,#589,#590,#591,#592,#593,#594,#595,#596,#597,#598));
#118=EDGE_LOOP('',(#599));
#119=EDGE_LOOP('',(#600));
#120=EDGE_LOOP('',(#601,#602,#603,#604));
#121=EDGE_LOOP('',(#605,#606,#607,#608));
#122=EDGE_LOOP('',(#609,#610,#611,#612));
#123=EDGE_LOOP('',(#613,#614,#615,#616));
#124=EDGE_LOOP('',(#617,#618,#619,#620,#621,#622,#623,#624,#625,#626));
#125=EDGE_LOOP('',(#627,#628,#629,#630,#631,#632,#633,#634,#635,#636,#637,
#638,#639,#640,#641,#642,#643,#644,#645,#646,#647,#648,#649,#650,#651,#652));
#126=EDGE_LOOP('',(#653));
#127=EDGE_LOOP('',(#654));
#128=EDGE_LOOP('',(#655,#656,#657,#658));
#129=EDGE_LOOP('',(#659,#660,#661,#662));
#130=EDGE_LOOP('',(#663,#664,#665,#666));
#131=EDGE_LOOP('',(#667,#668,#669,#670));
#132=EDGE_LOOP('',(#671,#672,#673,#674));
#133=EDGE_LOOP('',(#675,#676,#677,#678));
#134=EDGE_LOOP('',(#679,#680,#681,#682));
#135=EDGE_LOOP('',(#683,#684,#685,#686));
#136=EDGE_LOOP('',(#687,#688,#689,#690));
#137=EDGE_LOOP('',(#691,#692,#693,#694));
#138=EDGE_LOOP('',(#695,#696,#697,#698));
#139=EDGE_LOOP('',(#699,#700,#701,#702));
#140=EDGE_LOOP('',(#703,#704,#705,#706));
#141=EDGE_LOOP('',(#707,#708,#709,#710));
#142=EDGE_LOOP('',(#711,#712,#713,#714));
#143=EDGE_LOOP('',(#715,#716,#717,#718));
#144=EDGE_LOOP('',(#719,#720,#721,#722));
#145=EDGE_LOOP('',(#723,#724,#725,#726));
#146=EDGE_LOOP('',(#727,#728,#729,#730));
#147=EDGE_LOOP('',(#731,#732,#733,#734));
#148=EDGE_LOOP('',(#735,#736,#737,#738));
#149=LINE('',#1025,#235);
#150=LINE('',#1027,#236);
#151=LINE('',#1029,#237);
#152=LINE('',#1030,#238);
#153=LINE('',#1034,#239);
#154=LINE('',#1036,#240);
#155=LINE('',#1038,#241);
#156=LINE('',#1039,#242);
#157=LINE('',#1043,#243);
#158=LINE('',#1045,#244);
#159=LINE('',#1047,#245);
#160=LINE('',#1048,#246);
#161=LINE('',#1052,#247);
#162=LINE('',#1054,#248);
#163=LINE('',#1056,#249);
#164=LINE('',#1057,#250);
#165=LINE('',#1060,#251);
#166=LINE('',#1062,#252);
#167=LINE('',#1063,#253);
#168=LINE('',#1066,#254);
#169=LINE('',#1068,#255);
#170=LINE('',#1069,#256);
#171=LINE('',#1072,#257);
#172=LINE('',#1074,#258);
#173=LINE('',#1075,#259);
#174=LINE('',#1078,#260);
#175=LINE('',#1080,#261);
#176=LINE('',#1081,#262);
#177=LINE('',#1084,#263);
#178=LINE('',#1086,#264);
#179=LINE('',#1087,#265);
#180=LINE('',#1089,#266);
#181=LINE('',#1090,#267);
#182=LINE('',#1093,#268);
#183=LINE('',#1095,#269);
#184=LINE('',#1096,#270);
#185=LINE('',#1099,#271);
#186=LINE('',#1101,#272);
#187=LINE('',#1102,#273);
#188=LINE('',#1105,#274);
#189=LINE('',#1107,#275);
#190=LINE('',#1108,#276);
#191=LINE('',#1181,#277);
#192=LINE('',#1183,#278);
#193=LINE('',#1187,#279);
#194=LINE('',#1189,#280);
#195=LINE('',#1190,#281);
#196=LINE('',#1191,#282);
#197=LINE('',#1193,#283);
#198=LINE('',#1195,#284);
#199=LINE('',#1197,#285);
#200=LINE('',#1201,#286);
#201=LINE('',#1202,#287);
#202=LINE('',#1209,#288);
#203=LINE('',#1210,#289);
#204=LINE('',#1212,#290);
#205=LINE('',#1216,#291);
#206=LINE('',#1220,#292);
#207=LINE('',#1224,#293);
#208=LINE('',#1226,#294);
#209=LINE('',#1228,#295);
#210=LINE('',#1230,#296);
#211=LINE('',#1232,#297);
#212=LINE('',#1234,#298);
#213=LINE('',#1236,#299);
#214=LINE('',#1238,#300);
#215=LINE('',#1240,#301);
#216=LINE('',#1241,#302);
#217=LINE('',#1243,#303);
#218=LINE('',#1245,#304);
#219=LINE('',#1249,#305);
#220=LINE('',#1250,#306);
#221=LINE('',#1252,#307);
#222=LINE('',#1254,#308);
#223=LINE('',#1256,#309);
#224=LINE('',#1260,#310);
#225=LINE('',#1261,#311);
#226=LINE('',#1367,#312);
#227=LINE('',#1369,#313);
#228=LINE('',#1371,#314);
#229=LINE('',#1373,#315);
#230=LINE('',#1375,#316);
#231=LINE('',#1378,#317);
#232=LINE('',#1380,#318);
#233=LINE('',#1382,#319);
#234=LINE('',#1384,#320);
#235=VECTOR('',#861,10.);
#236=VECTOR('',#862,10.);
#237=VECTOR('',#863,10.);
#238=VECTOR('',#864,10.);
#239=VECTOR('',#867,10.);
#240=VECTOR('',#868,10.);
#241=VECTOR('',#869,10.);
#242=VECTOR('',#870,10.);
#243=VECTOR('',#873,10.);
#244=VECTOR('',#874,10.);
#245=VECTOR('',#875,10.);
#246=VECTOR('',#876,10.);
#247=VECTOR('',#879,10.);
#248=VECTOR('',#880,10.);
#249=VECTOR('',#881,10.);
#250=VECTOR('',#882,10.);
#251=VECTOR('',#885,10.);
#252=VECTOR('',#886,10.);
#253=VECTOR('',#887,10.);
#254=VECTOR('',#890,10.);
#255=VECTOR('',#891,10.);
#256=VECTOR('',#892,10.);
#257=VECTOR('',#895,10.);
#258=VECTOR('',#896,10.);
#259=VECTOR('',#897,10.);
#260=VECTOR('',#900,10.);
#261=VECTOR('',#901,10.);
#262=VECTOR('',#902,10.);
#263=VECTOR('',#905,10.);
#264=VECTOR('',#906,10.);
#265=VECTOR('',#907,10.);
#266=VECTOR('',#910,10.);
#267=VECTOR('',#911,10.);
#268=VECTOR('',#914,10.);
#269=VECTOR('',#915,10.);
#270=VECTOR('',#916,10.);
#271=VECTOR('',#919,10.);
#272=VECTOR('',#920,10.);
#273=VECTOR('',#921,10.);
#274=VECTOR('',#924,10.);
#275=VECTOR('',#925,10.);
#276=VECTOR('',#926,10.);
#277=VECTOR('',#929,10.);
#278=VECTOR('',#930,10.);
#279=VECTOR('',#933,10.);
#280=VECTOR('',#934,10.);
#281=VECTOR('',#935,10.);
#282=VECTOR('',#936,10.);
#283=VECTOR('',#937,10.);
#284=VECTOR('',#938,10.);
#285=VECTOR('',#939,10.);
#286=VECTOR('',#942,10.);
#287=VECTOR('',#943,10.);
#288=VECTOR('',#950,10.);
#289=VECTOR('',#951,10.);
#290=VECTOR('',#954,10.);
#291=VECTOR('',#959,0.800000000000001);
#292=VECTOR('',#964,0.800000000000001);
#293=VECTOR('',#967,10.);
#294=VECTOR('',#968,10.);
#295=VECTOR('',#969,10.);
#296=VECTOR('',#970,10.);
#297=VECTOR('',#971,10.);
#298=VECTOR('',#972,10.);
#299=VECTOR('',#973,10.);
#300=VECTOR('',#974,10.);
#301=VECTOR('',#975,10.);
#302=VECTOR('',#976,10.);
#303=VECTOR('',#977,10.);
#304=VECTOR('',#978,10.);
#305=VECTOR('',#981,10.);
#306=VECTOR('',#982,10.);
#307=VECTOR('',#983,10.);
#308=VECTOR('',#984,10.);
#309=VECTOR('',#985,10.);
#310=VECTOR('',#988,10.);
#311=VECTOR('',#989,10.);
#312=VECTOR('',#992,10.);
#313=VECTOR('',#995,10.);
#314=VECTOR('',#998,10.);
#315=VECTOR('',#1001,10.);
#316=VECTOR('',#1004,10.);
#317=VECTOR('',#1009,10.);
#318=VECTOR('',#1012,10.);
#319=VECTOR('',#1015,10.);
#320=VECTOR('',#1018,10.);
#321=VERTEX_POINT('',#1023);
#322=VERTEX_POINT('',#1024);
#323=VERTEX_POINT('',#1026);
#324=VERTEX_POINT('',#1028);
#325=VERTEX_POINT('',#1032);
#326=VERTEX_POINT('',#1033);
#327=VERTEX_POINT('',#1035);
#328=VERTEX_POINT('',#1037);
#329=VERTEX_POINT('',#1041);
#330=VERTEX_POINT('',#1042);
#331=VERTEX_POINT('',#1044);
#332=VERTEX_POINT('',#1046);
#333=VERTEX_POINT('',#1050);
#334=VERTEX_POINT('',#1051);
#335=VERTEX_POINT('',#1053);
#336=VERTEX_POINT('',#1055);
#337=VERTEX_POINT('',#1059);
#338=VERTEX_POINT('',#1061);
#339=VERTEX_POINT('',#1065);
#340=VERTEX_POINT('',#1067);
#341=VERTEX_POINT('',#1071);
#342=VERTEX_POINT('',#1073);
#343=VERTEX_POINT('',#1077);
#344=VERTEX_POINT('',#1079);
#345=VERTEX_POINT('',#1083);
#346=VERTEX_POINT('',#1085);
#347=VERTEX_POINT('',#1092);
#348=VERTEX_POINT('',#1094);
#349=VERTEX_POINT('',#1098);
#350=VERTEX_POINT('',#1100);
#351=VERTEX_POINT('',#1104);
#352=VERTEX_POINT('',#1106);
#353=VERTEX_POINT('',#1110);
#354=VERTEX_POINT('',#1111);
#355=VERTEX_POINT('',#1118);
#356=VERTEX_POINT('',#1125);
#357=VERTEX_POINT('',#1132);
#358=VERTEX_POINT('',#1139);
#359=VERTEX_POINT('',#1146);
#360=VERTEX_POINT('',#1153);
#361=VERTEX_POINT('',#1160);
#362=VERTEX_POINT('',#1167);
#363=VERTEX_POINT('',#1180);
#364=VERTEX_POINT('',#1182);
#365=VERTEX_POINT('',#1184);
#366=VERTEX_POINT('',#1186);
#367=VERTEX_POINT('',#1188);
#368=VERTEX_POINT('',#1192);
#369=VERTEX_POINT('',#1194);
#370=VERTEX_POINT('',#1196);
#371=VERTEX_POINT('',#1198);
#372=VERTEX_POINT('',#1200);
#373=VERTEX_POINT('',#1203);
#374=VERTEX_POINT('',#1205);
#375=VERTEX_POINT('',#1208);
#376=VERTEX_POINT('',#1214);
#377=VERTEX_POINT('',#1218);
#378=VERTEX_POINT('',#1222);
#379=VERTEX_POINT('',#1223);
#380=VERTEX_POINT('',#1225);
#381=VERTEX_POINT('',#1227);
#382=VERTEX_POINT('',#1229);
#383=VERTEX_POINT('',#1231);
#384=VERTEX_POINT('',#1233);
#385=VERTEX_POINT('',#1235);
#386=VERTEX_POINT('',#1237);
#387=VERTEX_POINT('',#1239);
#388=VERTEX_POINT('',#1242);
#389=VERTEX_POINT('',#1244);
#390=VERTEX_POINT('',#1246);
#391=VERTEX_POINT('',#1248);
#392=VERTEX_POINT('',#1251);
#393=VERTEX_POINT('',#1253);
#394=VERTEX_POINT('',#1255);
#395=VERTEX_POINT('',#1257);
#396=VERTEX_POINT('',#1259);
#397=EDGE_CURVE('',#321,#322,#149,.T.);
#398=EDGE_CURVE('',#321,#323,#150,.F.);
#399=EDGE_CURVE('',#324,#323,#151,.T.);
#400=EDGE_CURVE('',#322,#324,#152,.T.);
#401=EDGE_CURVE('',#325,#326,#153,.T.);
#402=EDGE_CURVE('',#327,#325,#154,.T.);
#403=EDGE_CURVE('',#328,#327,#155,.T.);
#404=EDGE_CURVE('',#326,#328,#156,.F.);
#405=EDGE_CURVE('',#329,#330,#157,.T.);
#406=EDGE_CURVE('',#331,#329,#158,.T.);
#407=EDGE_CURVE('',#332,#331,#159,.T.);
#408=EDGE_CURVE('',#330,#332,#160,.T.);
#409=EDGE_CURVE('',#333,#334,#161,.T.);
#410=EDGE_CURVE('',#335,#333,#162,.T.);
#411=EDGE_CURVE('',#336,#335,#163,.T.);
#412=EDGE_CURVE('',#334,#336,#164,.T.);
#413=EDGE_CURVE('',#326,#337,#165,.T.);
#414=EDGE_CURVE('',#338,#328,#166,.T.);
#415=EDGE_CURVE('',#337,#338,#167,.T.);
#416=EDGE_CURVE('',#339,#333,#168,.T.);
#417=EDGE_CURVE('',#340,#339,#169,.F.);
#418=EDGE_CURVE('',#335,#340,#170,.T.);
#419=EDGE_CURVE('',#341,#321,#171,.T.);
#420=EDGE_CURVE('',#342,#341,#172,.F.);
#421=EDGE_CURVE('',#323,#342,#173,.T.);
#422=EDGE_CURVE('',#343,#339,#174,.T.);
#423=EDGE_CURVE('',#344,#343,#175,.T.);
#424=EDGE_CURVE('',#340,#344,#176,.T.);
#425=EDGE_CURVE('',#330,#345,#177,.T.);
#426=EDGE_CURVE('',#346,#332,#178,.T.);
#427=EDGE_CURVE('',#345,#346,#179,.T.);
#428=EDGE_CURVE('',#345,#325,#180,.T.);
#429=EDGE_CURVE('',#327,#346,#181,.T.);
#430=EDGE_CURVE('',#347,#341,#182,.T.);
#431=EDGE_CURVE('',#348,#347,#183,.T.);
#432=EDGE_CURVE('',#342,#348,#184,.T.);
#433=EDGE_CURVE('',#349,#329,#185,.T.);
#434=EDGE_CURVE('',#349,#350,#186,.T.);
#435=EDGE_CURVE('',#331,#350,#187,.T.);
#436=EDGE_CURVE('',#351,#338,#188,.T.);
#437=EDGE_CURVE('',#352,#351,#189,.T.);
#438=EDGE_CURVE('',#337,#352,#190,.T.);
#439=EDGE_CURVE('',#353,#354,#43,.T.);
#440=EDGE_CURVE('',#354,#355,#44,.T.);
#441=EDGE_CURVE('',#355,#356,#45,.T.);
#442=EDGE_CURVE('',#356,#357,#46,.T.);
#443=EDGE_CURVE('',#357,#358,#47,.T.);
#444=EDGE_CURVE('',#358,#359,#48,.T.);
#445=EDGE_CURVE('',#359,#360,#49,.T.);
#446=EDGE_CURVE('',#360,#361,#50,.T.);
#447=EDGE_CURVE('',#361,#362,#51,.T.);
#448=EDGE_CURVE('',#362,#353,#52,.T.);
#449=EDGE_CURVE('',#350,#363,#191,.T.);
#450=EDGE_CURVE('',#363,#364,#192,.T.);
#451=EDGE_CURVE('',#364,#365,#35,.T.);
#452=EDGE_CURVE('',#365,#366,#193,.T.);
#453=EDGE_CURVE('',#366,#367,#194,.T.);
#454=EDGE_CURVE('',#367,#347,#195,.T.);
#455=EDGE_CURVE('',#322,#343,#196,.T.);
#456=EDGE_CURVE('',#334,#368,#197,.T.);
#457=EDGE_CURVE('',#368,#369,#198,.T.);
#458=EDGE_CURVE('',#369,#370,#199,.T.);
#459=EDGE_CURVE('',#370,#371,#36,.T.);
#460=EDGE_CURVE('',#371,#372,#200,.T.);
#461=EDGE_CURVE('',#372,#351,#201,.T.);
#462=EDGE_CURVE('',#373,#373,#37,.T.);
#463=EDGE_CURVE('',#374,#374,#38,.T.);
#464=EDGE_CURVE('',#336,#375,#202,.T.);
#465=EDGE_CURVE('',#375,#368,#203,.T.);
#466=EDGE_CURVE('',#324,#344,#204,.T.);
#467=EDGE_CURVE('',#376,#376,#39,.T.);
#468=EDGE_CURVE('',#376,#374,#205,.T.);
#469=EDGE_CURVE('',#377,#377,#40,.T.);
#470=EDGE_CURVE('',#377,#373,#206,.T.);
#471=EDGE_CURVE('',#378,#379,#207,.T.);
#472=EDGE_CURVE('',#379,#380,#208,.T.);
#473=EDGE_CURVE('',#380,#381,#209,.T.);
#474=EDGE_CURVE('',#381,#382,#210,.T.);
#475=EDGE_CURVE('',#382,#383,#211,.T.);
#476=EDGE_CURVE('',#384,#383,#212,.T.);
#477=EDGE_CURVE('',#385,#384,#213,.T.);
#478=EDGE_CURVE('',#386,#385,#214,.T.);
#479=EDGE_CURVE('',#387,#386,#215,.T.);
#480=EDGE_CURVE('',#378,#387,#216,.T.);
#481=EDGE_CURVE('',#388,#352,#217,.T.);
#482=EDGE_CURVE('',#389,#388,#218,.T.);
#483=EDGE_CURVE('',#390,#389,#41,.T.);
#484=EDGE_CURVE('',#391,#390,#219,.T.);
#485=EDGE_CURVE('',#375,#391,#220,.T.);
#486=EDGE_CURVE('',#392,#348,#221,.T.);
#487=EDGE_CURVE('',#393,#392,#222,.T.);
#488=EDGE_CURVE('',#394,#393,#223,.T.);
#489=EDGE_CURVE('',#395,#394,#42,.T.);
#490=EDGE_CURVE('',#396,#395,#224,.T.);
#491=EDGE_CURVE('',#349,#396,#225,.T.);
#492=EDGE_CURVE('',#379,#358,#53,.T.);
#493=EDGE_CURVE('',#378,#359,#54,.T.);
#494=EDGE_CURVE('',#387,#360,#55,.T.);
#495=EDGE_CURVE('',#386,#361,#56,.T.);
#496=EDGE_CURVE('',#385,#362,#57,.T.);
#497=EDGE_CURVE('',#384,#353,#58,.T.);
#498=EDGE_CURVE('',#396,#363,#226,.T.);
#499=EDGE_CURVE('',#395,#364,#227,.T.);
#500=EDGE_CURVE('',#394,#365,#228,.T.);
#501=EDGE_CURVE('',#393,#366,#229,.T.);
#502=EDGE_CURVE('',#392,#367,#230,.T.);
#503=EDGE_CURVE('',#391,#369,#231,.T.);
#504=EDGE_CURVE('',#390,#370,#232,.T.);
#505=EDGE_CURVE('',#389,#371,#233,.T.);
#506=EDGE_CURVE('',#388,#372,#234,.T.);
#507=EDGE_CURVE('',#383,#354,#59,.T.);
#508=EDGE_CURVE('',#382,#355,#60,.T.);
#509=EDGE_CURVE('',#381,#356,#61,.T.);
#510=EDGE_CURVE('',#380,#357,#62,.T.);
#511=ORIENTED_EDGE('',*,*,#397,.F.);
#512=ORIENTED_EDGE('',*,*,#398,.T.);
#513=ORIENTED_EDGE('',*,*,#399,.F.);
#514=ORIENTED_EDGE('',*,*,#400,.F.);
#515=ORIENTED_EDGE('',*,*,#401,.F.);
#516=ORIENTED_EDGE('',*,*,#402,.F.);
#517=ORIENTED_EDGE('',*,*,#403,.F.);
#518=ORIENTED_EDGE('',*,*,#404,.F.);
#519=ORIENTED_EDGE('',*,*,#405,.F.);
#520=ORIENTED_EDGE('',*,*,#406,.F.);
#521=ORIENTED_EDGE('',*,*,#407,.F.);
#522=ORIENTED_EDGE('',*,*,#408,.F.);
#523=ORIENTED_EDGE('',*,*,#409,.F.);
#524=ORIENTED_EDGE('',*,*,#410,.F.);
#525=ORIENTED_EDGE('',*,*,#411,.F.);
#526=ORIENTED_EDGE('',*,*,#412,.F.);
#527=ORIENTED_EDGE('',*,*,#413,.F.);
#528=ORIENTED_EDGE('',*,*,#404,.T.);
#529=ORIENTED_EDGE('',*,*,#414,.F.);
#530=ORIENTED_EDGE('',*,*,#415,.F.);
#531=ORIENTED_EDGE('',*,*,#416,.F.);
#532=ORIENTED_EDGE('',*,*,#417,.F.);
#533=ORIENTED_EDGE('',*,*,#418,.F.);
#534=ORIENTED_EDGE('',*,*,#410,.T.);
#535=ORIENTED_EDGE('',*,*,#419,.F.);
#536=ORIENTED_EDGE('',*,*,#420,.F.);
#537=ORIENTED_EDGE('',*,*,#421,.F.);
#538=ORIENTED_EDGE('',*,*,#398,.F.);
#539=ORIENTED_EDGE('',*,*,#422,.F.);
#540=ORIENTED_EDGE('',*,*,#423,.F.);
#541=ORIENTED_EDGE('',*,*,#424,.F.);
#542=ORIENTED_EDGE('',*,*,#417,.T.);
#543=ORIENTED_EDGE('',*,*,#425,.F.);
#544=ORIENTED_EDGE('',*,*,#408,.T.);
#545=ORIENTED_EDGE('',*,*,#426,.F.);
#546=ORIENTED_EDGE('',*,*,#427,.F.);
#547=ORIENTED_EDGE('',*,*,#428,.F.);
#548=ORIENTED_EDGE('',*,*,#427,.T.);
#549=ORIENTED_EDGE('',*,*,#429,.F.);
#550=ORIENTED_EDGE('',*,*,#402,.T.);
#551=ORIENTED_EDGE('',*,*,#430,.F.);
#552=ORIENTED_EDGE('',*,*,#431,.F.);
#553=ORIENTED_EDGE('',*,*,#432,.F.);
#554=ORIENTED_EDGE('',*,*,#420,.T.);
#555=ORIENTED_EDGE('',*,*,#406,.T.);
#556=ORIENTED_EDGE('',*,*,#433,.F.);
#557=ORIENTED_EDGE('',*,*,#434,.T.);
#558=ORIENTED_EDGE('',*,*,#435,.F.);
#559=ORIENTED_EDGE('',*,*,#415,.T.);
#560=ORIENTED_EDGE('',*,*,#436,.F.);
#561=ORIENTED_EDGE('',*,*,#437,.F.);
#562=ORIENTED_EDGE('',*,*,#438,.F.);
#563=ORIENTED_EDGE('',*,*,#439,.T.);
#564=ORIENTED_EDGE('',*,*,#440,.T.);
#565=ORIENTED_EDGE('',*,*,#441,.T.);
#566=ORIENTED_EDGE('',*,*,#442,.T.);
#567=ORIENTED_EDGE('',*,*,#443,.T.);
#568=ORIENTED_EDGE('',*,*,#444,.T.);
#569=ORIENTED_EDGE('',*,*,#445,.T.);
#570=ORIENTED_EDGE('',*,*,#446,.T.);
#571=ORIENTED_EDGE('',*,*,#447,.T.);
#572=ORIENTED_EDGE('',*,*,#448,.T.);
#573=ORIENTED_EDGE('',*,*,#429,.T.);
#574=ORIENTED_EDGE('',*,*,#426,.T.);
#575=ORIENTED_EDGE('',*,*,#407,.T.);
#576=ORIENTED_EDGE('',*,*,#435,.T.);
#577=ORIENTED_EDGE('',*,*,#449,.T.);
#578=ORIENTED_EDGE('',*,*,#450,.T.);
#579=ORIENTED_EDGE('',*,*,#451,.T.);
#580=ORIENTED_EDGE('',*,*,#452,.T.);
#581=ORIENTED_EDGE('',*,*,#453,.T.);
#582=ORIENTED_EDGE('',*,*,#454,.T.);
#583=ORIENTED_EDGE('',*,*,#430,.T.);
#584=ORIENTED_EDGE('',*,*,#419,.T.);
#585=ORIENTED_EDGE('',*,*,#397,.T.);
#586=ORIENTED_EDGE('',*,*,#455,.T.);
#587=ORIENTED_EDGE('',*,*,#422,.T.);
#588=ORIENTED_EDGE('',*,*,#416,.T.);
#589=ORIENTED_EDGE('',*,*,#409,.T.);
#590=ORIENTED_EDGE('',*,*,#456,.T.);
#591=ORIENTED_EDGE('',*,*,#457,.T.);
#592=ORIENTED_EDGE('',*,*,#458,.T.);
#593=ORIENTED_EDGE('',*,*,#459,.T.);
#594=ORIENTED_EDGE('',*,*,#460,.T.);
#595=ORIENTED_EDGE('',*,*,#461,.T.);
#596=ORIENTED_EDGE('',*,*,#436,.T.);
#597=ORIENTED_EDGE('',*,*,#414,.T.);
#598=ORIENTED_EDGE('',*,*,#403,.T.);
#599=ORIENTED_EDGE('',*,*,#462,.T.);
#600=ORIENTED_EDGE('',*,*,#463,.T.);
#601=ORIENTED_EDGE('',*,*,#412,.T.);
#602=ORIENTED_EDGE('',*,*,#464,.T.);
#603=ORIENTED_EDGE('',*,*,#465,.T.);
#604=ORIENTED_EDGE('',*,*,#456,.F.);
#605=ORIENTED_EDGE('',*,*,#400,.T.);
#606=ORIENTED_EDGE('',*,*,#466,.T.);
#607=ORIENTED_EDGE('',*,*,#423,.T.);
#608=ORIENTED_EDGE('',*,*,#455,.F.);
#609=ORIENTED_EDGE('',*,*,#467,.F.);
#610=ORIENTED_EDGE('',*,*,#468,.T.);
#611=ORIENTED_EDGE('',*,*,#463,.F.);
#612=ORIENTED_EDGE('',*,*,#468,.F.);
#613=ORIENTED_EDGE('',*,*,#469,.F.);
#614=ORIENTED_EDGE('',*,*,#470,.T.);
#615=ORIENTED_EDGE('',*,*,#462,.F.);
#616=ORIENTED_EDGE('',*,*,#470,.F.);
#617=ORIENTED_EDGE('',*,*,#471,.T.);
#618=ORIENTED_EDGE('',*,*,#472,.T.);
#619=ORIENTED_EDGE('',*,*,#473,.T.);
#620=ORIENTED_EDGE('',*,*,#474,.T.);
#621=ORIENTED_EDGE('',*,*,#475,.T.);
#622=ORIENTED_EDGE('',*,*,#476,.F.);
#623=ORIENTED_EDGE('',*,*,#477,.F.);
#624=ORIENTED_EDGE('',*,*,#478,.F.);
#625=ORIENTED_EDGE('',*,*,#479,.F.);
#626=ORIENTED_EDGE('',*,*,#480,.F.);
#627=ORIENTED_EDGE('',*,*,#401,.T.);
#628=ORIENTED_EDGE('',*,*,#413,.T.);
#629=ORIENTED_EDGE('',*,*,#438,.T.);
#630=ORIENTED_EDGE('',*,*,#481,.F.);
#631=ORIENTED_EDGE('',*,*,#482,.F.);
#632=ORIENTED_EDGE('',*,*,#483,.F.);
#633=ORIENTED_EDGE('',*,*,#484,.F.);
#634=ORIENTED_EDGE('',*,*,#485,.F.);
#635=ORIENTED_EDGE('',*,*,#464,.F.);
#636=ORIENTED_EDGE('',*,*,#411,.T.);
#637=ORIENTED_EDGE('',*,*,#418,.T.);
#638=ORIENTED_EDGE('',*,*,#424,.T.);
#639=ORIENTED_EDGE('',*,*,#466,.F.);
#640=ORIENTED_EDGE('',*,*,#399,.T.);
#641=ORIENTED_EDGE('',*,*,#421,.T.);
#642=ORIENTED_EDGE('',*,*,#432,.T.);
#643=ORIENTED_EDGE('',*,*,#486,.F.);
#644=ORIENTED_EDGE('',*,*,#487,.F.);
#645=ORIENTED_EDGE('',*,*,#488,.F.);
#646=ORIENTED_EDGE('',*,*,#489,.F.);
#647=ORIENTED_EDGE('',*,*,#490,.F.);
#648=ORIENTED_EDGE('',*,*,#491,.F.);
#649=ORIENTED_EDGE('',*,*,#433,.T.);
#650=ORIENTED_EDGE('',*,*,#405,.T.);
#651=ORIENTED_EDGE('',*,*,#425,.T.);
#652=ORIENTED_EDGE('',*,*,#428,.T.);
#653=ORIENTED_EDGE('',*,*,#467,.T.);
#654=ORIENTED_EDGE('',*,*,#469,.T.);
#655=ORIENTED_EDGE('',*,*,#444,.F.);
#656=ORIENTED_EDGE('',*,*,#492,.F.);
#657=ORIENTED_EDGE('',*,*,#471,.F.);
#658=ORIENTED_EDGE('',*,*,#493,.T.);
#659=ORIENTED_EDGE('',*,*,#445,.F.);
#660=ORIENTED_EDGE('',*,*,#493,.F.);
#661=ORIENTED_EDGE('',*,*,#480,.T.);
#662=ORIENTED_EDGE('',*,*,#494,.T.);
#663=ORIENTED_EDGE('',*,*,#446,.F.);
#664=ORIENTED_EDGE('',*,*,#494,.F.);
#665=ORIENTED_EDGE('',*,*,#479,.T.);
#666=ORIENTED_EDGE('',*,*,#495,.T.);
#667=ORIENTED_EDGE('',*,*,#447,.F.);
#668=ORIENTED_EDGE('',*,*,#495,.F.);
#669=ORIENTED_EDGE('',*,*,#478,.T.);
#670=ORIENTED_EDGE('',*,*,#496,.T.);
#671=ORIENTED_EDGE('',*,*,#448,.F.);
#672=ORIENTED_EDGE('',*,*,#496,.F.);
#673=ORIENTED_EDGE('',*,*,#477,.T.);
#674=ORIENTED_EDGE('',*,*,#497,.T.);
#675=ORIENTED_EDGE('',*,*,#491,.T.);
#676=ORIENTED_EDGE('',*,*,#498,.T.);
#677=ORIENTED_EDGE('',*,*,#449,.F.);
#678=ORIENTED_EDGE('',*,*,#434,.F.);
#679=ORIENTED_EDGE('',*,*,#490,.T.);
#680=ORIENTED_EDGE('',*,*,#499,.T.);
#681=ORIENTED_EDGE('',*,*,#450,.F.);
#682=ORIENTED_EDGE('',*,*,#498,.F.);
#683=ORIENTED_EDGE('',*,*,#489,.T.);
#684=ORIENTED_EDGE('',*,*,#500,.T.);
#685=ORIENTED_EDGE('',*,*,#451,.F.);
#686=ORIENTED_EDGE('',*,*,#499,.F.);
#687=ORIENTED_EDGE('',*,*,#488,.T.);
#688=ORIENTED_EDGE('',*,*,#501,.T.);
#689=ORIENTED_EDGE('',*,*,#452,.F.);
#690=ORIENTED_EDGE('',*,*,#500,.F.);
#691=ORIENTED_EDGE('',*,*,#487,.T.);
#692=ORIENTED_EDGE('',*,*,#502,.T.);
#693=ORIENTED_EDGE('',*,*,#453,.F.);
#694=ORIENTED_EDGE('',*,*,#501,.F.);
#695=ORIENTED_EDGE('',*,*,#431,.T.);
#696=ORIENTED_EDGE('',*,*,#454,.F.);
#697=ORIENTED_EDGE('',*,*,#502,.F.);
#698=ORIENTED_EDGE('',*,*,#486,.T.);
#699=ORIENTED_EDGE('',*,*,#485,.T.);
#700=ORIENTED_EDGE('',*,*,#503,.T.);
#701=ORIENTED_EDGE('',*,*,#457,.F.);
#702=ORIENTED_EDGE('',*,*,#465,.F.);
#703=ORIENTED_EDGE('',*,*,#484,.T.);
#704=ORIENTED_EDGE('',*,*,#504,.T.);
#705=ORIENTED_EDGE('',*,*,#458,.F.);
#706=ORIENTED_EDGE('',*,*,#503,.F.);
#707=ORIENTED_EDGE('',*,*,#483,.T.);
#708=ORIENTED_EDGE('',*,*,#505,.T.);
#709=ORIENTED_EDGE('',*,*,#459,.F.);
#710=ORIENTED_EDGE('',*,*,#504,.F.);
#711=ORIENTED_EDGE('',*,*,#482,.T.);
#712=ORIENTED_EDGE('',*,*,#506,.T.);
#713=ORIENTED_EDGE('',*,*,#460,.F.);
#714=ORIENTED_EDGE('',*,*,#505,.F.);
#715=ORIENTED_EDGE('',*,*,#481,.T.);
#716=ORIENTED_EDGE('',*,*,#437,.T.);
#717=ORIENTED_EDGE('',*,*,#461,.F.);
#718=ORIENTED_EDGE('',*,*,#506,.F.);
#719=ORIENTED_EDGE('',*,*,#439,.F.);
#720=ORIENTED_EDGE('',*,*,#497,.F.);
#721=ORIENTED_EDGE('',*,*,#476,.T.);
#722=ORIENTED_EDGE('',*,*,#507,.T.);
#723=ORIENTED_EDGE('',*,*,#440,.F.);
#724=ORIENTED_EDGE('',*,*,#507,.F.);
#725=ORIENTED_EDGE('',*,*,#475,.F.);
#726=ORIENTED_EDGE('',*,*,#508,.T.);
#727=ORIENTED_EDGE('',*,*,#441,.F.);
#728=ORIENTED_EDGE('',*,*,#508,.F.);
#729=ORIENTED_EDGE('',*,*,#474,.F.);
#730=ORIENTED_EDGE('',*,*,#509,.T.);
#731=ORIENTED_EDGE('',*,*,#442,.F.);
#732=ORIENTED_EDGE('',*,*,#509,.F.);
#733=ORIENTED_EDGE('',*,*,#473,.F.);
#734=ORIENTED_EDGE('',*,*,#510,.T.);
#735=ORIENTED_EDGE('',*,*,#443,.F.);
#736=ORIENTED_EDGE('',*,*,#510,.F.);
#737=ORIENTED_EDGE('',*,*,#472,.F.);
#738=ORIENTED_EDGE('',*,*,#492,.T.);
#739=PLANE('',#819);
#740=PLANE('',#820);
#741=PLANE('',#821);
#742=PLANE('',#822);
#743=PLANE('',#823);
#744=PLANE('',#824);
#745=PLANE('',#825);
#746=PLANE('',#826);
#747=PLANE('',#827);
#748=PLANE('',#828);
#749=PLANE('',#829);
#750=PLANE('',#830);
#751=PLANE('',#831);
#752=PLANE('',#832);
#753=PLANE('',#837);
#754=PLANE('',#838);
#755=PLANE('',#843);
#756=PLANE('',#846);
#757=PLANE('',#847);
#758=PLANE('',#849);
#759=PLANE('',#850);
#760=PLANE('',#851);
#761=PLANE('',#852);
#762=PLANE('',#853);
#763=PLANE('',#855);
#764=PLANE('',#856);
#765=ADVANCED_FACE('',(#63),#739,.T.);
#766=ADVANCED_FACE('',(#64),#740,.F.);
#767=ADVANCED_FACE('',(#65),#741,.F.);
#768=ADVANCED_FACE('',(#66),#742,.F.);
#769=ADVANCED_FACE('',(#67),#743,.F.);
#770=ADVANCED_FACE('',(#68),#744,.F.);
#771=ADVANCED_FACE('',(#69),#745,.F.);
#772=ADVANCED_FACE('',(#70),#746,.T.);
#773=ADVANCED_FACE('',(#71),#747,.F.);
#774=ADVANCED_FACE('',(#72),#748,.F.);
#775=ADVANCED_FACE('',(#73),#749,.F.);
#776=ADVANCED_FACE('',(#74),#750,.T.);
#777=ADVANCED_FACE('',(#75),#751,.T.);
#778=ADVANCED_FACE('',(#76,#29,#30,#31),#752,.T.);
#779=ADVANCED_FACE('',(#77),#753,.T.);
#780=ADVANCED_FACE('',(#78),#754,.T.);
#781=ADVANCED_FACE('',(#79),#25,.F.);
#782=ADVANCED_FACE('',(#80),#26,.F.);
#783=ADVANCED_FACE('',(#81,#32,#33,#34),#755,.F.);
#784=ADVANCED_FACE('',(#82),#15,.F.);
#785=ADVANCED_FACE('',(#83),#16,.T.);
#786=ADVANCED_FACE('',(#84),#17,.T.);
#787=ADVANCED_FACE('',(#85),#18,.T.);
#788=ADVANCED_FACE('',(#86),#19,.T.);
#789=ADVANCED_FACE('',(#87),#756,.T.);
#790=ADVANCED_FACE('',(#88),#757,.T.);
#791=ADVANCED_FACE('',(#89),#27,.T.);
#792=ADVANCED_FACE('',(#90),#758,.T.);
#793=ADVANCED_FACE('',(#91),#759,.T.);
#794=ADVANCED_FACE('',(#92),#760,.T.);
#795=ADVANCED_FACE('',(#93),#761,.T.);
#796=ADVANCED_FACE('',(#94),#762,.T.);
#797=ADVANCED_FACE('',(#95),#28,.T.);
#798=ADVANCED_FACE('',(#96),#763,.T.);
#799=ADVANCED_FACE('',(#97),#764,.T.);
#800=ADVANCED_FACE('',(#98),#20,.T.);
#801=ADVANCED_FACE('',(#99),#21,.F.);
#802=ADVANCED_FACE('',(#100),#22,.F.);
#803=ADVANCED_FACE('',(#101),#23,.F.);
#804=ADVANCED_FACE('',(#102),#24,.F.);
#805=CLOSED_SHELL('',(#765,#766,#767,#768,#769,#770,#771,#772,#773,#774,
#775,#776,#777,#778,#779,#780,#781,#782,#783,#784,#785,#786,#787,#788,#789,
#790,#791,#792,#793,#794,#795,#796,#797,#798,#799,#800,#801,#802,#803,#804));
#806=DERIVED_UNIT_ELEMENT(#808,1.);
#807=DERIVED_UNIT_ELEMENT(#1487,-3.);
#808=(
MASS_UNIT()
NAMED_UNIT(*)
SI_UNIT(.KILO.,.GRAM.)
);
#809=DERIVED_UNIT((#806,#807));
#810=MEASURE_REPRESENTATION_ITEM('density measure',
POSITIVE_RATIO_MEASURE(7850.),#809);
#811=PROPERTY_DEFINITION_REPRESENTATION(#816,#813);
#812=PROPERTY_DEFINITION_REPRESENTATION(#817,#814);
#813=REPRESENTATION('material name',(#815),#1484);
#814=REPRESENTATION('density',(#810),#1484);
#815=DESCRIPTIVE_REPRESENTATION_ITEM('Steel','Steel');
#816=PROPERTY_DEFINITION('material property','material name',#1494);
#817=PROPERTY_DEFINITION('material property','density of part',#1494);
#818=AXIS2_PLACEMENT_3D('',#1021,#857,#858);
#819=AXIS2_PLACEMENT_3D('',#1022,#859,#860);
#820=AXIS2_PLACEMENT_3D('',#1031,#865,#866);
#821=AXIS2_PLACEMENT_3D('',#1040,#871,#872);
#822=AXIS2_PLACEMENT_3D('',#1049,#877,#878);
#823=AXIS2_PLACEMENT_3D('',#1058,#883,#884);
#824=AXIS2_PLACEMENT_3D('',#1064,#888,#889);
#825=AXIS2_PLACEMENT_3D('',#1070,#893,#894);
#826=AXIS2_PLACEMENT_3D('',#1076,#898,#899);
#827=AXIS2_PLACEMENT_3D('',#1082,#903,#904);
#828=AXIS2_PLACEMENT_3D('',#1088,#908,#909);
#829=AXIS2_PLACEMENT_3D('',#1091,#912,#913);
#830=AXIS2_PLACEMENT_3D('',#1097,#917,#918);
#831=AXIS2_PLACEMENT_3D('',#1103,#922,#923);
#832=AXIS2_PLACEMENT_3D('',#1109,#927,#928);
#833=AXIS2_PLACEMENT_3D('',#1185,#931,#932);
#834=AXIS2_PLACEMENT_3D('',#1199,#940,#941);
#835=AXIS2_PLACEMENT_3D('',#1204,#944,#945);
#836=AXIS2_PLACEMENT_3D('',#1206,#946,#947);
#837=AXIS2_PLACEMENT_3D('',#1207,#948,#949);
#838=AXIS2_PLACEMENT_3D('',#1211,#952,#953);
#839=AXIS2_PLACEMENT_3D('',#1213,#955,#956);
#840=AXIS2_PLACEMENT_3D('',#1215,#957,#958);
#841=AXIS2_PLACEMENT_3D('',#1217,#960,#961);
#842=AXIS2_PLACEMENT_3D('',#1219,#962,#963);
#843=AXIS2_PLACEMENT_3D('',#1221,#965,#966);
#844=AXIS2_PLACEMENT_3D('',#1247,#979,#980);
#845=AXIS2_PLACEMENT_3D('',#1258,#986,#987);
#846=AXIS2_PLACEMENT_3D('',#1366,#990,#991);
#847=AXIS2_PLACEMENT_3D('',#1368,#993,#994);
#848=AXIS2_PLACEMENT_3D('',#1370,#996,#997);
#849=AXIS2_PLACEMENT_3D('',#1372,#999,#1000);
#850=AXIS2_PLACEMENT_3D('',#1374,#1002,#1003);
#851=AXIS2_PLACEMENT_3D('',#1376,#1005,#1006);
#852=AXIS2_PLACEMENT_3D('',#1377,#1007,#1008);
#853=AXIS2_PLACEMENT_3D('',#1379,#1010,#1011);
#854=AXIS2_PLACEMENT_3D('',#1381,#1013,#1014);
#855=AXIS2_PLACEMENT_3D('',#1383,#1016,#1017);
#856=AXIS2_PLACEMENT_3D('',#1385,#1019,#1020);
#857=DIRECTION('axis',(0.,0.,1.));
#858=DIRECTION('refdir',(1.,0.,0.));
#859=DIRECTION('center_axis',(-1.,-1.80411241528088E-16,3.81907777754815E-9));
#860=DIRECTION('ref_axis',(-3.81907777754815E-9,6.93889321490267E-18,-1.));
#861=DIRECTION('',(3.81907777754815E-9,0.,1.));
#862=DIRECTION('',(-1.80411241501588E-16,1.,6.93889390390723E-18));
#863=DIRECTION('',(-3.81907777754815E-9,0.,-1.));
#864=DIRECTION('',(1.80411241528088E-16,-1.,6.3788077389614E-31));
#865=DIRECTION('center_axis',(-2.46369282999284E-15,-6.93889390390768E-18,
1.));
#866=DIRECTION('ref_axis',(-1.,-1.80411241501588E-16,-2.46369282999284E-15));
#867=DIRECTION('',(1.,0.,2.46369282999284E-15));
#868=DIRECTION('',(1.80411241501588E-16,-1.,-6.93889390390723E-18));
#869=DIRECTION('',(-1.,0.,-2.46369282999284E-15));
#870=DIRECTION('',(1.80411241501588E-16,-1.,-6.93889390390723E-18));
#871=DIRECTION('center_axis',(-1.,-1.80411241501588E-16,3.46944695195361E-18));
#872=DIRECTION('ref_axis',(-3.46944695195361E-18,6.93889390390723E-18,-1.));
#873=DIRECTION('',(3.46944695195361E-18,0.,1.));
#874=DIRECTION('',(1.80411241501588E-16,-1.,7.4447927417492E-32));
#875=DIRECTION('',(-3.46944695195361E-18,0.,-1.));
#876=DIRECTION('',(-1.80411241501588E-16,1.,6.93889390390723E-18));
#877=DIRECTION('center_axis',(1.,1.80411241501588E-16,-3.46944695195361E-18));
#878=DIRECTION('ref_axis',(3.46944695195361E-18,-6.93889390390723E-18,1.));
#879=DIRECTION('',(3.46944695195361E-18,0.,1.));
#880=DIRECTION('',(-1.80411241501588E-16,1.,6.93889390390723E-18));
#881=DIRECTION('',(-3.46944695195361E-18,0.,-1.));
#882=DIRECTION('',(1.80411241501588E-16,-1.,6.37880773802443E-31));
#883=DIRECTION('center_axis',(1.,1.80411241501588E-16,-3.46944695195361E-18));
#884=DIRECTION('ref_axis',(3.46944695195361E-18,-6.93889390390723E-18,1.));
#885=DIRECTION('',(-3.46944695195361E-18,0.,-1.));
#886=DIRECTION('',(3.46944695195361E-18,0.,1.));
#887=DIRECTION('',(-1.80411241501588E-16,1.,-7.4447927417492E-32));
#888=DIRECTION('center_axis',(7.52697746526674E-17,6.93889390390725E-18,
-1.));
#889=DIRECTION('ref_axis',(1.,1.80411241501588E-16,7.52697746526674E-17));
#890=DIRECTION('',(1.,0.,7.52697746526674E-17));
#891=DIRECTION('',(1.80411241501588E-16,-1.,-6.93889390390723E-18));
#892=DIRECTION('',(-1.,0.,-7.52697746526674E-17));
#893=DIRECTION('center_axis',(7.52697746526674E-17,6.93889390390725E-18,
-1.));
#894=DIRECTION('ref_axis',(1.,1.80411241501588E-16,7.52697746526674E-17));
#895=DIRECTION('',(1.,0.,7.52697746526674E-17));
#896=DIRECTION('',(1.80411241501588E-16,-1.,-6.93889390390723E-18));
#897=DIRECTION('',(-1.,0.,-7.52697746526674E-17));
#898=DIRECTION('center_axis',(1.,1.80411241501588E-16,-3.46944695195361E-18));
#899=DIRECTION('ref_axis',(3.46944695195361E-18,-6.93889390390723E-18,1.));
#900=DIRECTION('',(-3.46944695195361E-18,0.,-1.));
#901=DIRECTION('',(-1.80411241501588E-16,1.,-6.37880773802443E-31));
#902=DIRECTION('',(3.46944695195361E-18,0.,1.));
#903=DIRECTION('center_axis',(-1.93795249909318E-12,-6.93889390425686E-18,
1.));
#904=DIRECTION('ref_axis',(-1.,-1.80411241501574E-16,-1.93795249909318E-12));
#905=DIRECTION('',(1.,0.,1.93795249909318E-12));
#906=DIRECTION('',(-1.,0.,-1.93795249909318E-12));
#907=DIRECTION('',(-1.80411241501588E-16,1.,6.93889390390723E-18));
#908=DIRECTION('center_axis',(3.46944695195361E-18,-6.93889390390723E-18,
1.));
#909=DIRECTION('ref_axis',(-1.,-1.80411241501588E-16,3.46944695195361E-18));
#910=DIRECTION('',(1.,0.,-3.46944695195361E-18));
#911=DIRECTION('',(-1.,0.,3.46944695195361E-18));
#912=DIRECTION('center_axis',(-1.,-1.80411241501588E-16,3.46944695195361E-18));
#913=DIRECTION('ref_axis',(-3.46944695195361E-18,6.93889390390723E-18,-1.));
#914=DIRECTION('',(-3.46944695195361E-18,0.,-1.));
#915=DIRECTION('',(-1.80411241501588E-16,1.,-6.37880773802443E-31));
#916=DIRECTION('',(3.46944695195361E-18,0.,1.));
#917=DIRECTION('center_axis',(4.12656810062675E-16,0.,-1.));
#918=DIRECTION('ref_axis',(-1.,0.,-4.12656810062675E-16));
#919=DIRECTION('',(1.,0.,-4.12656810062675E-16));
#920=DIRECTION('',(0.,1.,0.));
#921=DIRECTION('',(-1.,0.,-4.12656810062675E-16));
#922=DIRECTION('center_axis',(4.12656810062675E-16,0.,-1.));
#923=DIRECTION('ref_axis',(-1.,0.,-4.12656810062675E-16));
#924=DIRECTION('',(-1.,0.,-4.12656810062675E-16));
#925=DIRECTION('',(0.,1.,0.));
#926=DIRECTION('',(1.,0.,-4.12656810062675E-16));
#927=DIRECTION('center_axis',(0.,1.,0.));
#928=DIRECTION('ref_axis',(1.,0.,0.));
#929=DIRECTION('',(-0.707106781186546,0.,-0.707106781186549));
#930=DIRECTION('',(2.25650449969752E-16,0.,-1.));
#931=DIRECTION('center_axis',(0.,1.,0.));
#932=DIRECTION('ref_axis',(1.,0.,0.));
#933=DIRECTION('',(2.25650449969752E-16,0.,-1.));
#934=DIRECTION('',(0.707106760113127,0.,-0.707106802259967));
#935=DIRECTION('',(1.,0.,3.53570414178891E-15));
#936=DIRECTION('',(1.,0.,3.53570414178891E-15));
#937=DIRECTION('',(1.,0.,3.53570414178891E-15));
#938=DIRECTION('',(0.707106760113127,0.,0.707106802259967));
#939=DIRECTION('',(2.25650449969752E-16,0.,1.));
#940=DIRECTION('center_axis',(0.,1.,0.));
#941=DIRECTION('ref_axis',(1.,0.,0.));
#942=DIRECTION('',(2.25650449969752E-16,0.,1.));
#943=DIRECTION('',(-0.707106781186548,0.,0.707106781186546));
#944=DIRECTION('center_axis',(0.,-1.,0.));
#945=DIRECTION('ref_axis',(1.,0.,0.));
#946=DIRECTION('center_axis',(0.,-1.,0.));
#947=DIRECTION('ref_axis',(1.,0.,0.));
#948=DIRECTION('center_axis',(-3.53570414178891E-15,0.,1.));
#949=DIRECTION('ref_axis',(1.,0.,3.53570414178891E-15));
#950=DIRECTION('',(1.,0.,3.53570414178891E-15));
#951=DIRECTION('',(0.,1.,0.));
#952=DIRECTION('center_axis',(-3.53570414178891E-15,0.,1.));
#953=DIRECTION('ref_axis',(1.,0.,3.53570414178891E-15));
#954=DIRECTION('',(1.,0.,3.53570414178891E-15));
#955=DIRECTION('center_axis',(0.,1.,0.));
#956=DIRECTION('ref_axis',(1.,0.,0.));
#957=DIRECTION('center_axis',(0.,1.,0.));
#958=DIRECTION('ref_axis',(1.,0.,0.));
#959=DIRECTION('',(0.,1.,0.));
#960=DIRECTION('center_axis',(0.,1.,0.));
#961=DIRECTION('ref_axis',(1.,0.,0.));
#962=DIRECTION('center_axis',(0.,1.,0.));
#963=DIRECTION('ref_axis',(1.,0.,0.));
#964=DIRECTION('',(0.,1.,0.));
#965=DIRECTION('center_axis',(0.,1.,0.));
#966=DIRECTION('ref_axis',(0.,0.,1.));
#967=DIRECTION('',(1.,0.,0.));
#968=DIRECTION('',(0.707106760113122,0.,0.707106802259972));
#969=DIRECTION('',(2.03197653698548E-8,0.,1.));
#970=DIRECTION('',(-0.707106781186547,0.,0.707106781186548));
#971=DIRECTION('',(-1.,0.,4.92661458000879E-16));
#972=DIRECTION('',(1.,0.,4.92661458000879E-16));
#973=DIRECTION('',(0.707106781186547,0.,0.707106781186548));
#974=DIRECTION('',(-2.03197653698548E-8,0.,1.));
#975=DIRECTION('',(-0.707106760113122,0.,0.707106802259972));
#976=DIRECTION('',(-1.,0.,0.));
#977=DIRECTION('',(-0.707106781186548,0.,0.707106781186546));
#978=DIRECTION('',(2.25650449969752E-16,0.,1.));
#979=DIRECTION('center_axis',(0.,1.,0.));
#980=DIRECTION('ref_axis',(1.,0.,0.));
#981=DIRECTION('',(2.25650449969752E-16,0.,1.));
#982=DIRECTION('',(0.707106760113127,0.,0.707106802259967));
#983=DIRECTION('',(1.,0.,3.53570414178891E-15));
#984=DIRECTION('',(0.707106760113127,0.,-0.707106802259967));
#985=DIRECTION('',(2.25650449969752E-16,0.,-1.));
#986=DIRECTION('center_axis',(0.,1.,0.));
#987=DIRECTION('ref_axis',(1.,0.,0.));
#988=DIRECTION('',(2.25650449969752E-16,0.,-1.));
#989=DIRECTION('',(-0.707106781186546,0.,-0.707106781186549));
#990=DIRECTION('center_axis',(0.707106781186549,0.,-0.707106781186546));
#991=DIRECTION('ref_axis',(-0.707106781186546,0.,-0.707106781186549));
#992=DIRECTION('',(0.,1.,0.));
#993=DIRECTION('center_axis',(1.,0.,2.25650449969752E-16));
#994=DIRECTION('ref_axis',(2.25650449969752E-16,0.,-1.));
#995=DIRECTION('',(0.,1.,0.));
#996=DIRECTION('center_axis',(0.,1.,0.));
#997=DIRECTION('ref_axis',(1.,0.,0.));
#998=DIRECTION('',(0.,1.,0.));
#999=DIRECTION('center_axis',(1.,0.,2.25650449969752E-16));
#1000=DIRECTION('ref_axis',(2.25650449969752E-16,0.,-1.));
#1001=DIRECTION('',(0.,1.,0.));
#1002=DIRECTION('center_axis',(0.707106802259967,0.,0.707106760113127));
#1003=DIRECTION('ref_axis',(0.707106760113127,0.,-0.707106802259967));
#1004=DIRECTION('',(0.,1.,0.));
#1005=DIRECTION('center_axis',(-3.53570414178891E-15,0.,1.));
#1006=DIRECTION('ref_axis',(1.,0.,3.53570414178891E-15));
#1007=DIRECTION('center_axis',(-0.707106802259967,0.,0.707106760113127));
#1008=DIRECTION('ref_axis',(0.707106760113127,0.,0.707106802259967));
#1009=DIRECTION('',(0.,1.,0.));
#1010=DIRECTION('center_axis',(-1.,0.,2.25650449969752E-16));
#1011=DIRECTION('ref_axis',(2.25650449969752E-16,0.,1.));
#1012=DIRECTION('',(0.,1.,0.));
#1013=DIRECTION('center_axis',(0.,1.,0.));
#1014=DIRECTION('ref_axis',(-1.,0.,7.6571373978539E-16));
#1015=DIRECTION('',(0.,1.,0.));
#1016=DIRECTION('center_axis',(-1.,0.,2.25650449969752E-16));
#1017=DIRECTION('ref_axis',(2.25650449969752E-16,0.,1.));
#1018=DIRECTION('',(0.,1.,0.));
#1019=DIRECTION('center_axis',(-0.707106781186547,0.,-0.707106781186549));
#1020=DIRECTION('ref_axis',(-0.707106781186548,0.,0.707106781186546));
#1021=CARTESIAN_POINT('',(0.,0.,0.));
#1022=CARTESIAN_POINT('Origin',(-9.60000009470668,-225.5,-28.0000003736815));
#1023=CARTESIAN_POINT('',(-9.60000010349056,-227.,-30.3000003874302));
#1024=CARTESIAN_POINT('',(-9.60000010310865,-227.,-30.2));
#1025=CARTESIAN_POINT('',(-9.60000007370175,-227.,-22.5000001424322));
#1026=CARTESIAN_POINT('',(-9.60000010349056,-230.,-30.3000003874302));
#1027=CARTESIAN_POINT('',(-9.60000010349056,-224.,-30.3000003874302));
#1028=CARTESIAN_POINT('',(-9.60000010310865,-230.,-30.2));
#1029=CARTESIAN_POINT('',(-9.60000007423263,-230.,-22.6390073262916));
#1030=CARTESIAN_POINT('',(-9.60000010310865,-227.75,-30.2));
#1031=CARTESIAN_POINT('Origin',(14.1,-222.5,-4.00001354592024));
#1032=CARTESIAN_POINT('',(12.3,-230.,-4.00000677213335));
#1033=CARTESIAN_POINT('',(14.35,-230.,-4.00001354592024));
#1034=CARTESIAN_POINT('',(14.9671264584879,-230.,-4.00001354592024));
#1035=CARTESIAN_POINT('',(12.3,-227.,-4.0000067737869));
#1036=CARTESIAN_POINT('',(12.3,-222.5,-4.00001354592025));
#1037=CARTESIAN_POINT('',(14.35,-227.,-4.00001354592024));
#1038=CARTESIAN_POINT('',(7.04999999999998,-227.,-4.00001354592026));
#1039=CARTESIAN_POINT('',(14.35,-222.5,-4.00001354592024));
#1040=CARTESIAN_POINT('Origin',(-14.35,-222.5,-4.00001354592025));
#1041=CARTESIAN_POINT('',(-14.35,-230.,-4.99999989569187));
#1042=CARTESIAN_POINT('',(-14.35,-230.,-4.00001354592073));
#1043=CARTESIAN_POINT('',(-14.35,-230.,-10.6390139609786));
#1044=CARTESIAN_POINT('',(-14.35,-227.,-4.99999989569188));
#1045=CARTESIAN_POINT('',(-14.35,-226.25,-4.99999989569188));
#1046=CARTESIAN_POINT('',(-14.35,-227.,-4.00001354592073));
#1047=CARTESIAN_POINT('',(-14.35,-227.,-10.5000067468831));
#1048=CARTESIAN_POINT('',(-14.35,-222.5,-4.00001354592073));
#1049=CARTESIAN_POINT('Origin',(14.35,-222.5,-30.0000003874302));
#1050=CARTESIAN_POINT('',(14.35,-227.,-30.3000003874302));
#1051=CARTESIAN_POINT('',(14.35,-227.,-30.2));
#1052=CARTESIAN_POINT('',(14.35,-227.,-23.5000001676381));
#1053=CARTESIAN_POINT('',(14.35,-230.,-30.3000003874302));
#1054=CARTESIAN_POINT('',(14.35,-222.5,-30.3000003874302));
#1055=CARTESIAN_POINT('',(14.35,-230.,-30.2));
#1056=CARTESIAN_POINT('',(14.35,-230.,-23.6390073817336));
#1057=CARTESIAN_POINT('',(14.35,-226.25,-30.2));
#1058=CARTESIAN_POINT('Origin',(14.35,-222.5,-30.0000003874302));
#1059=CARTESIAN_POINT('',(14.35,-230.,-4.99999989569188));
#1060=CARTESIAN_POINT('',(14.35,-230.,-23.6390073817336));
#1061=CARTESIAN_POINT('',(14.35,-227.,-4.99999989569187));
#1062=CARTESIAN_POINT('',(14.35,-227.,-23.5000001676381));
#1063=CARTESIAN_POINT('',(14.35,-226.25,-4.99999989569187));
#1064=CARTESIAN_POINT('Origin',(-14.1,-222.5,-30.3000003874302));
#1065=CARTESIAN_POINT('',(9.60000011612621,-227.,-30.3000003874302));
#1066=CARTESIAN_POINT('',(-7.05,-227.,-30.3000003874302));
#1067=CARTESIAN_POINT('',(9.60000011612621,-230.,-30.3000003874302));
#1068=CARTESIAN_POINT('',(9.60000011612621,-224.,-30.3000003874302));
#1069=CARTESIAN_POINT('',(0.867126458487879,-230.,-30.3000003874302));
#1070=CARTESIAN_POINT('Origin',(-14.1,-222.5,-30.3000003874302));
#1071=CARTESIAN_POINT('',(-14.35,-227.,-30.3000003874302));
#1072=CARTESIAN_POINT('',(-7.05,-227.,-30.3000003874302));
#1073=CARTESIAN_POINT('',(-14.35,-230.,-30.3000003874302));
#1074=CARTESIAN_POINT('',(-14.35,-222.5,-30.3000003874302));
#1075=CARTESIAN_POINT('',(0.867126458487879,-230.,-30.3000003874302));
#1076=CARTESIAN_POINT('Origin',(9.60000011612621,-225.5,-30.0000003874302));
#1077=CARTESIAN_POINT('',(9.60000011612621,-227.,-30.2));
#1078=CARTESIAN_POINT('',(9.60000011612621,-227.,-23.5000001676381));
#1079=CARTESIAN_POINT('',(9.60000011612621,-230.,-30.2));
#1080=CARTESIAN_POINT('',(9.60000011612621,-227.75,-30.2));
#1081=CARTESIAN_POINT('',(9.60000011612621,-230.,-23.6390073817336));
#1082=CARTESIAN_POINT('Origin',(-12.3,-222.5,-4.00001354591676));
#1083=CARTESIAN_POINT('',(-12.3,-230.,-4.00000677378516));
#1084=CARTESIAN_POINT('',(1.76712645847501,-230.,-4.00001354588949));
#1085=CARTESIAN_POINT('',(-12.3,-227.,-4.0000067721316));
#1086=CARTESIAN_POINT('',(-6.1500000000126,-227.,-4.00001354590484));
#1087=CARTESIAN_POINT('',(-12.3,-222.5,-4.));
#1088=CARTESIAN_POINT('Origin',(12.3,-222.5,-4.));
#1089=CARTESIAN_POINT('',(14.0671264584879,-230.,-4.));
#1090=CARTESIAN_POINT('',(6.15,-227.,-4.));
#1091=CARTESIAN_POINT('Origin',(-14.35,-222.5,-4.00001354592025));
#1092=CARTESIAN_POINT('',(-14.35,-227.,-30.2));
#1093=CARTESIAN_POINT('',(-14.35,-227.,-10.5000067468831));
#1094=CARTESIAN_POINT('',(-14.35,-230.,-30.2));
#1095=CARTESIAN_POINT('',(-14.35,-226.25,-30.2));
#1096=CARTESIAN_POINT('',(-14.35,-230.,-10.6390139609786));
#1097=CARTESIAN_POINT('Origin',(20.0402023978843,-230.,-4.99999989569187));
#1098=CARTESIAN_POINT('',(-20.0402023978844,-230.,-4.99999989569188));
#1099=CARTESIAN_POINT('',(-1.77635681293047E-16,-230.,-4.99999989569187));
#1100=CARTESIAN_POINT('',(-20.0402023978844,-227.,-4.99999989569188));
#1101=CARTESIAN_POINT('',(-20.0402023978844,-230.,-4.99999989569188));
#1102=CARTESIAN_POINT('',(-22.8686295226306,-227.,-4.99999989569188));
#1103=CARTESIAN_POINT('Origin',(20.0402023978843,-230.,-4.99999989569187));
#1104=CARTESIAN_POINT('',(20.0402023978843,-227.,-4.99999989569187));
#1105=CARTESIAN_POINT('',(-22.8686295226306,-227.,-4.99999989569188));
#1106=CARTESIAN_POINT('',(20.0402023978843,-230.,-4.99999989569187));
#1107=CARTESIAN_POINT('',(20.0402023978843,-230.,-4.99999989569187));
#1108=CARTESIAN_POINT('',(-1.77635681293047E-16,-230.,-4.99999989569187));
#1109=CARTESIAN_POINT('Origin',(0.,-227.,-16.9999999478459));
#1110=CARTESIAN_POINT('',(-20.3760982674473,-227.,-0.520416844472619));
#1111=CARTESIAN_POINT('',(0.,-227.,-0.520416844472609));
#1112=CARTESIAN_POINT('Ctrl Pts',(-20.3760982674473,-227.,-0.520416844472624));
#1113=CARTESIAN_POINT('Ctrl Pts',(-16.9800818895394,-227.,-0.520416844472622));
#1114=CARTESIAN_POINT('Ctrl Pts',(-13.5840655116315,-227.,-0.520416844472621));
#1115=CARTESIAN_POINT('Ctrl Pts',(-6.79203275581577,-227.,-0.520416844472618));
#1116=CARTESIAN_POINT('Ctrl Pts',(-3.39601637790789,-227.,-0.520416844472616));
#1117=CARTESIAN_POINT('Ctrl Pts',(-4.35381291446481E-15,-227.,-0.520416844472614));
#1118=CARTESIAN_POINT('',(20.3760982674473,-227.,-0.520416844472619));
#1119=CARTESIAN_POINT('Ctrl Pts',(4.35381291446481E-15,-227.,-0.520416844472614));
#1120=CARTESIAN_POINT('Ctrl Pts',(3.39601637790789,-227.,-0.520416844472616));
#1121=CARTESIAN_POINT('Ctrl Pts',(6.79203275581577,-227.,-0.520416844472618));
#1122=CARTESIAN_POINT('Ctrl Pts',(13.5840655116315,-227.,-0.520416844472621));
#1123=CARTESIAN_POINT('Ctrl Pts',(16.9800818895394,-227.,-0.520416844472622));
#1124=CARTESIAN_POINT('Ctrl Pts',(20.3760982674473,-227.,-0.520416844472624));
#1125=CARTESIAN_POINT('',(25.4075849838041,-227.,-5.50120342017489));
#1126=CARTESIAN_POINT('Ctrl Pts',(20.3760982674473,-227.,-0.520416844472625));
#1127=CARTESIAN_POINT('Ctrl Pts',(21.2146793868401,-227.,-1.350547940423));
#1128=CARTESIAN_POINT('Ctrl Pts',(22.0532605062329,-227.,-2.18067903637338));
#1129=CARTESIAN_POINT('Ctrl Pts',(23.7304227450185,-227.,-3.84094122827414));
#1130=CARTESIAN_POINT('Ctrl Pts',(24.5690038644113,-227.,-4.67107232422451));
#1131=CARTESIAN_POINT('Ctrl Pts',(25.4075849838041,-227.,-5.50120342017489));
#1132=CARTESIAN_POINT('',(25.4075845465981,-227.,-28.1502683554486));
#1133=CARTESIAN_POINT('Ctrl Pts',(25.4075849838041,-227.,-5.5012034201749));
#1134=CARTESIAN_POINT('Ctrl Pts',(25.4075849109364,-227.,-9.27604757605385));
#1135=CARTESIAN_POINT('Ctrl Pts',(25.4075848380688,-227.,-13.0508917319328));
#1136=CARTESIAN_POINT('Ctrl Pts',(25.4075846923334,-227.,-20.6005800436907));
#1137=CARTESIAN_POINT('Ctrl Pts',(25.4075846194658,-227.,-24.3754241995697));
#1138=CARTESIAN_POINT('Ctrl Pts',(25.4075845465981,-227.,-28.1502683554486));
#1139=CARTESIAN_POINT('',(20.3297808781535,-227.,-33.2199648186282));
#1140=CARTESIAN_POINT('Ctrl Pts',(25.4075845465981,-227.,-28.1502683554486));
#1141=CARTESIAN_POINT('Ctrl Pts',(24.5612839351907,-227.,-28.9952177659786));
#1142=CARTESIAN_POINT('Ctrl Pts',(23.7149833237832,-227.,-29.8401671765085));
#1143=CARTESIAN_POINT('Ctrl Pts',(22.0223821009684,-227.,-31.5300659975684));
#1144=CARTESIAN_POINT('Ctrl Pts',(21.1760814895609,-227.,-32.3750154080983));
#1145=CARTESIAN_POINT('Ctrl Pts',(20.3297808781535,-227.,-33.2199648186282));
#1146=CARTESIAN_POINT('',(-2.69605834473011E-16,-227.,-33.2199648186282));
#1147=CARTESIAN_POINT('Ctrl Pts',(20.3297808781535,-227.,-33.2199648186282));
#1148=CARTESIAN_POINT('Ctrl Pts',(16.9414840651279,-227.,-33.2199648186282));
#1149=CARTESIAN_POINT('Ctrl Pts',(13.5531872521023,-227.,-33.2199648186282));
#1150=CARTESIAN_POINT('Ctrl Pts',(6.77659362605117,-227.,-33.2199648186282));
#1151=CARTESIAN_POINT('Ctrl Pts',(3.38829681302558,-227.,-33.2199648186282));
#1152=CARTESIAN_POINT('Ctrl Pts',(-1.11263533428405E-15,-227.,-33.2199648186282));
#1153=CARTESIAN_POINT('',(-20.3297808781535,-227.,-33.2199648186282));
#1154=CARTESIAN_POINT('Ctrl Pts',(1.11263533428405E-15,-227.,-33.2199648186282));
#1155=CARTESIAN_POINT('Ctrl Pts',(-3.38829681302558,-227.,-33.2199648186282));
#1156=CARTESIAN_POINT('Ctrl Pts',(-6.77659362605117,-227.,-33.2199648186282));
#1157=CARTESIAN_POINT('Ctrl Pts',(-13.5531872521023,-227.,-33.2199648186282));
#1158=CARTESIAN_POINT('Ctrl Pts',(-16.9414840651279,-227.,-33.2199648186282));
#1159=CARTESIAN_POINT('Ctrl Pts',(-20.3297808781535,-227.,-33.2199648186282));
#1160=CARTESIAN_POINT('',(-25.4075845465981,-227.,-28.1502683554486));
#1161=CARTESIAN_POINT('Ctrl Pts',(-20.3297808781535,-227.,-33.2199648186282));
#1162=CARTESIAN_POINT('Ctrl Pts',(-21.1760814895609,-227.,-32.3750154080983));
#1163=CARTESIAN_POINT('Ctrl Pts',(-22.0223821009684,-227.,-31.5300659975684));
#1164=CARTESIAN_POINT('Ctrl Pts',(-23.7149833237832,-227.,-29.8401671765085));
#1165=CARTESIAN_POINT('Ctrl Pts',(-24.5612839351907,-227.,-28.9952177659786));
#1166=CARTESIAN_POINT('Ctrl Pts',(-25.4075845465981,-227.,-28.1502683554486));
#1167=CARTESIAN_POINT('',(-25.4075849838041,-227.,-5.50120342017489));
#1168=CARTESIAN_POINT('Ctrl Pts',(-25.4075845465981,-227.,-28.1502683554486));
#1169=CARTESIAN_POINT('Ctrl Pts',(-25.4075846194658,-227.,-24.3754241995697));
#1170=CARTESIAN_POINT('Ctrl Pts',(-25.4075846923334,-227.,-20.6005800436907));
#1171=CARTESIAN_POINT('Ctrl Pts',(-25.4075848380688,-227.,-13.0508917319328));
#1172=CARTESIAN_POINT('Ctrl Pts',(-25.4075849109364,-227.,-9.27604757605385));
#1173=CARTESIAN_POINT('Ctrl Pts',(-25.4075849838041,-227.,-5.5012034201749));
#1174=CARTESIAN_POINT('Ctrl Pts',(-25.4075849838041,-227.,-5.50120342017489));
#1175=CARTESIAN_POINT('Ctrl Pts',(-24.5690038644113,-227.,-4.67107232422451));
#1176=CARTESIAN_POINT('Ctrl Pts',(-23.7304227450185,-227.,-3.84094122827414));
#1177=CARTESIAN_POINT('Ctrl Pts',(-22.0532605062329,-227.,-2.18067903637338));
#1178=CARTESIAN_POINT('Ctrl Pts',(-21.2146793868401,-227.,-1.350547940423));
#1179=CARTESIAN_POINT('Ctrl Pts',(-20.3760982674473,-227.,-0.520416844472625));
#1180=CARTESIAN_POINT('',(-22.2000001475064,-227.,-7.15979764531389));
#1181=CARTESIAN_POINT('',(-22.2000001475064,-227.,-7.15979764531389));
#1182=CARTESIAN_POINT('',(-22.2000001475064,-227.,-13.901613536135));
#1183=CARTESIAN_POINT('',(-22.2000001475064,-227.,-26.8402020012366));
#1184=CARTESIAN_POINT('',(-22.2000001475064,-227.,-20.0983865830388));
#1185=CARTESIAN_POINT('Origin',(-21.3999995529494,-227.,-17.0000000595869));
#1186=CARTESIAN_POINT('',(-22.2000001475064,-227.,-26.8402020012366));
#1187=CARTESIAN_POINT('',(-22.2000001475064,-227.,-26.8402020012366));
#1188=CARTESIAN_POINT('',(-18.8402023490025,-227.,-30.1999999999999));
#1189=CARTESIAN_POINT('',(-18.8402023490025,-227.,-30.1999999999999));
#1190=CARTESIAN_POINT('',(18.8402023490025,-227.,-30.1999999999999));
#1191=CARTESIAN_POINT('',(18.8402023490025,-227.,-30.1999999999999));
#1192=CARTESIAN_POINT('',(18.8402023490025,-227.,-30.1999999999999));
#1193=CARTESIAN_POINT('',(18.8402023490025,-227.,-30.1999999999999));
#1194=CARTESIAN_POINT('',(22.2000001475064,-227.,-26.8402020012366));
#1195=CARTESIAN_POINT('',(22.2000001475064,-227.,-26.8402020012366));
#1196=CARTESIAN_POINT('',(22.2000001475064,-227.,-20.0983865830388));
#1197=CARTESIAN_POINT('',(22.2000001475064,-227.,-7.15979764531388));
#1198=CARTESIAN_POINT('',(22.2000001475064,-227.,-13.9016135361349));
#1199=CARTESIAN_POINT('Origin',(21.3999995529494,-227.,-17.0000000595869));
#1200=CARTESIAN_POINT('',(22.2000001475064,-227.,-7.15979764531388));
#1201=CARTESIAN_POINT('',(22.2000001475064,-227.,-7.15979764531388));
#1202=CARTESIAN_POINT('',(20.0402023978843,-227.,-4.99999989569187));
#1203=CARTESIAN_POINT('',(20.5999995529494,-227.,-17.0000000595869));
#1204=CARTESIAN_POINT('Origin',(21.3999995529494,-227.,-17.0000000595869));
#1205=CARTESIAN_POINT('',(-22.1999995529494,-227.,-17.0000000595869));
#1206=CARTESIAN_POINT('Origin',(-21.3999995529494,-227.,-17.0000000595869));
#1207=CARTESIAN_POINT('Origin',(-18.8402023490025,-230.,-30.2000000000001));
#1208=CARTESIAN_POINT('',(18.8402023490025,-230.,-30.1999999999999));
#1209=CARTESIAN_POINT('',(18.8402023490025,-230.,-30.1999999999999));
#1210=CARTESIAN_POINT('',(18.8402023490025,-230.,-30.1999999999999));
#1211=CARTESIAN_POINT('Origin',(-18.8402023490025,-230.,-30.2000000000001));
#1212=CARTESIAN_POINT('',(18.8402023490025,-230.,-30.1999999999999));
#1213=CARTESIAN_POINT('Origin',(-21.3999995529494,-230.,-17.0000000595869));
#1214=CARTESIAN_POINT('',(-22.1999995529494,-230.,-17.0000000595869));
#1215=CARTESIAN_POINT('Origin',(-21.3999995529494,-230.,-17.0000000595869));
#1216=CARTESIAN_POINT('',(-22.1999995529494,-230.,-17.0000000595869));
#1217=CARTESIAN_POINT('Origin',(21.3999995529494,-230.,-17.0000000595869));
#1218=CARTESIAN_POINT('',(20.5999995529494,-230.,-17.0000000595869));
#1219=CARTESIAN_POINT('Origin',(21.3999995529494,-230.,-17.0000000595869));
#1220=CARTESIAN_POINT('',(20.5999995529494,-230.,-17.0000000595869));
#1221=CARTESIAN_POINT('Origin',(15.8342529169758,-230.,-17.278014376037));
#1222=CARTESIAN_POINT('',(-2.63571931877426E-16,-230.,-33.));
#1223=CARTESIAN_POINT('',(20.000000372529,-230.,-33.));
#1224=CARTESIAN_POINT('',(-1.116050455243E-15,-230.,-33.));
#1225=CARTESIAN_POINT('',(25.,-230.,-28.0000000745058));
#1226=CARTESIAN_POINT('',(25.,-230.,-28.0000000745058));
#1227=CARTESIAN_POINT('',(25.0000004470348,-230.,-5.99999997019769));
#1228=CARTESIAN_POINT('',(25.0000004470348,-230.,-5.99999997019769));
#1229=CARTESIAN_POINT('',(20.000000372529,-230.,-0.999999895691885));
#1230=CARTESIAN_POINT('',(20.000000372529,-230.,-0.999999895691885));
#1231=CARTESIAN_POINT('',(0.,-230.,-0.999999895691875));
#1232=CARTESIAN_POINT('',(0.,-230.,-0.999999895691875));
#1233=CARTESIAN_POINT('',(-20.000000372529,-230.,-0.999999895691885));
#1234=CARTESIAN_POINT('',(0.,-230.,-0.999999895691875));
#1235=CARTESIAN_POINT('',(-25.0000004470348,-230.,-5.99999997019769));
#1236=CARTESIAN_POINT('',(-20.000000372529,-230.,-0.999999895691885));
#1237=CARTESIAN_POINT('',(-25.,-230.,-28.0000000745058));
#1238=CARTESIAN_POINT('',(-25.0000004470348,-230.,-5.99999997019769));
#1239=CARTESIAN_POINT('',(-20.000000372529,-230.,-33.));
#1240=CARTESIAN_POINT('',(-25.,-230.,-28.0000000745058));
#1241=CARTESIAN_POINT('',(1.116050455243E-15,-230.,-33.));
#1242=CARTESIAN_POINT('',(22.2000001475064,-230.,-7.15979764531388));
#1243=CARTESIAN_POINT('',(20.0402023978843,-230.,-4.99999989569187));
#1244=CARTESIAN_POINT('',(22.2000001475064,-230.,-13.9016135361349));
#1245=CARTESIAN_POINT('',(22.2000001475064,-230.,-7.15979764531388));
#1246=CARTESIAN_POINT('',(22.2000001475064,-230.,-20.0983865830388));
#1247=CARTESIAN_POINT('Origin',(21.3999995529494,-230.,-17.0000000595869));
#1248=CARTESIAN_POINT('',(22.2000001475064,-230.,-26.8402020012366));
#1249=CARTESIAN_POINT('',(22.2000001475064,-230.,-7.15979764531388));
#1250=CARTESIAN_POINT('',(22.2000001475064,-230.,-26.8402020012366));
#1251=CARTESIAN_POINT('',(-18.8402023490025,-230.,-30.1999999999999));
#1252=CARTESIAN_POINT('',(18.8402023490025,-230.,-30.1999999999999));
#1253=CARTESIAN_POINT('',(-22.2000001475064,-230.,-26.8402020012366));
#1254=CARTESIAN_POINT('',(-18.8402023490025,-230.,-30.1999999999999));
#1255=CARTESIAN_POINT('',(-22.2000001475064,-230.,-20.0983865830388));
#1256=CARTESIAN_POINT('',(-22.2000001475064,-230.,-26.8402020012366));
#1257=CARTESIAN_POINT('',(-22.2000001475064,-230.,-13.901613536135));
#1258=CARTESIAN_POINT('Origin',(-21.3999995529494,-230.,-17.0000000595869));
#1259=CARTESIAN_POINT('',(-22.2000001475064,-230.,-7.15979764531389));
#1260=CARTESIAN_POINT('',(-22.2000001475064,-230.,-26.8402020012366));
#1261=CARTESIAN_POINT('',(-22.2000001475064,-230.,-7.15979764531389));
#1262=CARTESIAN_POINT('Ctrl Pts',(-1.116050455243E-15,-230.,-33.));
#1263=CARTESIAN_POINT('Ctrl Pts',(-1.11497221149693E-15,-228.99995879674,
-33.0742439299711));
#1264=CARTESIAN_POINT('Ctrl Pts',(-1.11383383784394E-15,-227.99995879674,
-33.1475655361805));
#1265=CARTESIAN_POINT('Ctrl Pts',(-1.11263533428405E-15,-227.,-33.2199648186282));
#1266=CARTESIAN_POINT('Ctrl Pts',(6.66666679084301,-230.,-33.));
#1267=CARTESIAN_POINT('Ctrl Pts',(6.70369721680705,-228.99995879674,-33.0742439299711));
#1268=CARTESIAN_POINT('Ctrl Pts',(6.74033949520977,-227.99995879674,-33.1475655361805));
#1269=CARTESIAN_POINT('Ctrl Pts',(6.77659362605117,-227.,-33.2199648186282));
#1270=CARTESIAN_POINT('Ctrl Pts',(13.333333581686,-230.,-33.));
#1271=CARTESIAN_POINT('Ctrl Pts',(13.4073944336141,-228.99995879674,-33.0742439299711));
#1272=CARTESIAN_POINT('Ctrl Pts',(13.4806789904196,-227.99995879674,-33.1475655361805));
#1273=CARTESIAN_POINT('Ctrl Pts',(13.5531872521023,-227.,-33.2199648186282));
#1274=CARTESIAN_POINT('Ctrl Pts',(20.000000372529,-230.,-33.));
#1275=CARTESIAN_POINT('Ctrl Pts',(20.1110916504212,-228.99995879674,-33.0742439299711));
#1276=CARTESIAN_POINT('Ctrl Pts',(20.2210184856293,-227.99995879674,-33.1475655361805));
#1277=CARTESIAN_POINT('Ctrl Pts',(20.3297808781535,-227.,-33.2199648186282));
#1278=CARTESIAN_POINT('Ctrl Pts',(20.000000372529,-230.,-33.));
#1279=CARTESIAN_POINT('Ctrl Pts',(20.1110916504212,-228.99995879674,-33.0742439299711));
#1280=CARTESIAN_POINT('Ctrl Pts',(20.2210184856293,-227.99995879674,-33.1475655361805));
#1281=CARTESIAN_POINT('Ctrl Pts',(20.3297808781535,-227.,-33.2199648186282));
#1282=CARTESIAN_POINT('Ctrl Pts',(-2.63571931877426E-16,-230.,-33.));
#1283=CARTESIAN_POINT('Ctrl Pts',(-2.65630383308018E-16,-228.99995879674,
-33.0742439299711));
#1284=CARTESIAN_POINT('Ctrl Pts',(-2.67641684173213E-16,-227.99995879674,
-33.1475655361805));
#1285=CARTESIAN_POINT('Ctrl Pts',(-2.69605834473011E-16,-227.,-33.2199648186282));
#1286=CARTESIAN_POINT('Ctrl Pts',(1.116050455243E-15,-230.,-33.));
#1287=CARTESIAN_POINT('Ctrl Pts',(1.11497221149693E-15,-228.99995879674,
-33.0742439299711));
#1288=CARTESIAN_POINT('Ctrl Pts',(1.11383383784394E-15,-227.99995879674,
-33.1475655361805));
#1289=CARTESIAN_POINT('Ctrl Pts',(1.11263533428405E-15,-227.,-33.2199648186282));
#1290=CARTESIAN_POINT('Ctrl Pts',(-6.66666679084301,-230.,-33.));
#1291=CARTESIAN_POINT('Ctrl Pts',(-6.70369721680705,-228.99995879674,-33.0742439299711));
#1292=CARTESIAN_POINT('Ctrl Pts',(-6.74033949520977,-227.99995879674,-33.1475655361805));
#1293=CARTESIAN_POINT('Ctrl Pts',(-6.77659362605117,-227.,-33.2199648186282));
#1294=CARTESIAN_POINT('Ctrl Pts',(-13.333333581686,-230.,-33.));
#1295=CARTESIAN_POINT('Ctrl Pts',(-13.4073944336141,-228.99995879674,-33.0742439299711));
#1296=CARTESIAN_POINT('Ctrl Pts',(-13.4806789904196,-227.99995879674,-33.1475655361805));
#1297=CARTESIAN_POINT('Ctrl Pts',(-13.5531872521023,-227.,-33.2199648186282));
#1298=CARTESIAN_POINT('Ctrl Pts',(-20.000000372529,-230.,-33.));
#1299=CARTESIAN_POINT('Ctrl Pts',(-20.1110916504212,-228.99995879674,-33.0742439299711));
#1300=CARTESIAN_POINT('Ctrl Pts',(-20.2210184856293,-227.99995879674,-33.1475655361805));
#1301=CARTESIAN_POINT('Ctrl Pts',(-20.3297808781535,-227.,-33.2199648186282));
#1302=CARTESIAN_POINT('Ctrl Pts',(-20.000000372529,-230.,-33.));
#1303=CARTESIAN_POINT('Ctrl Pts',(-20.1110916504212,-228.99995879674,-33.0742439299711));
#1304=CARTESIAN_POINT('Ctrl Pts',(-20.2210184856293,-227.99995879674,-33.1475655361805));
#1305=CARTESIAN_POINT('Ctrl Pts',(-20.3297808781535,-227.,-33.2199648186282));
#1306=CARTESIAN_POINT('Ctrl Pts',(-20.000000372529,-230.,-33.));
#1307=CARTESIAN_POINT('Ctrl Pts',(-20.1110916504212,-228.99995879674,-33.0742439299711));
#1308=CARTESIAN_POINT('Ctrl Pts',(-20.2210184856293,-227.99995879674,-33.1475655361805));
#1309=CARTESIAN_POINT('Ctrl Pts',(-20.3297808781535,-227.,-33.2199648186282));
#1310=CARTESIAN_POINT('Ctrl Pts',(-21.6666669150193,-230.,-31.3333333581686));
#1311=CARTESIAN_POINT('Ctrl Pts',(-21.7864494065548,-228.99995879674,-31.3997940390225));
#1312=CARTESIAN_POINT('Ctrl Pts',(-21.9050211352045,-227.99995879674,-31.4653715854891));
#1313=CARTESIAN_POINT('Ctrl Pts',(-22.0223821009684,-227.,-31.5300659975684));
#1314=CARTESIAN_POINT('Ctrl Pts',(-23.3333334575097,-230.,-29.6666667163372));
#1315=CARTESIAN_POINT('Ctrl Pts',(-23.4618071626885,-228.99995879674,-29.7253441480739));
#1316=CARTESIAN_POINT('Ctrl Pts',(-23.5890237847797,-227.99995879674,-29.7831776347977));
#1317=CARTESIAN_POINT('Ctrl Pts',(-23.7149833237832,-227.,-29.8401671765085));
#1318=CARTESIAN_POINT('Ctrl Pts',(-25.,-230.,-28.0000000745058));
#1319=CARTESIAN_POINT('Ctrl Pts',(-25.1371649188221,-228.99995879674,-28.0508942571253));
#1320=CARTESIAN_POINT('Ctrl Pts',(-25.2730264343548,-227.99995879674,-28.1009836841063));
#1321=CARTESIAN_POINT('Ctrl Pts',(-25.4075845465981,-227.,-28.1502683554486));
#1322=CARTESIAN_POINT('Ctrl Pts',(-25.,-230.,-28.0000000745058));
#1323=CARTESIAN_POINT('Ctrl Pts',(-25.1371649188221,-228.99995879674,-28.0508942571253));
#1324=CARTESIAN_POINT('Ctrl Pts',(-25.2730264343548,-227.99995879674,-28.1009836841063));
#1325=CARTESIAN_POINT('Ctrl Pts',(-25.4075845465981,-227.,-28.1502683554486));
#1326=CARTESIAN_POINT('Ctrl Pts',(-25.,-230.,-28.0000000745058));
#1327=CARTESIAN_POINT('Ctrl Pts',(-25.1371649188221,-228.99995879674,-28.0508942571253));
#1328=CARTESIAN_POINT('Ctrl Pts',(-25.2730264343548,-227.99995879674,-28.1009836841063));
#1329=CARTESIAN_POINT('Ctrl Pts',(-25.4075845465981,-227.,-28.1502683554486));
#1330=CARTESIAN_POINT('Ctrl Pts',(-25.0000001490116,-230.,-20.6666667064031));
#1331=CARTESIAN_POINT('Ctrl Pts',(-25.1371650667361,-228.99995879674,-20.6447998470216));
#1332=CARTESIAN_POINT('Ctrl Pts',(-25.2730265811767,-227.99995879674,-20.6227709594508));
#1333=CARTESIAN_POINT('Ctrl Pts',(-25.4075846923334,-227.,-20.6005800436907));
#1334=CARTESIAN_POINT('Ctrl Pts',(-25.0000002980232,-230.,-13.3333333383004));
#1335=CARTESIAN_POINT('Ctrl Pts',(-25.1371652146501,-228.99995879674,-13.2387054369179));
#1336=CARTESIAN_POINT('Ctrl Pts',(-25.2730267279986,-227.99995879674,-13.1445582347953));
#1337=CARTESIAN_POINT('Ctrl Pts',(-25.4075848380688,-227.,-13.0508917319328));
#1338=CARTESIAN_POINT('Ctrl Pts',(-25.0000004470348,-230.,-5.9999999701977));
#1339=CARTESIAN_POINT('Ctrl Pts',(-25.137165362564,-228.99995879674,-5.83261102681414));
#1340=CARTESIAN_POINT('Ctrl Pts',(-25.2730268748204,-227.99995879674,-5.66634551013987));
#1341=CARTESIAN_POINT('Ctrl Pts',(-25.4075849838041,-227.,-5.50120342017489));
#1342=CARTESIAN_POINT('Ctrl Pts',(-25.0000004470348,-230.,-5.99999997019769));
#1343=CARTESIAN_POINT('Ctrl Pts',(-25.137165362564,-228.99995879674,-5.83261102681414));
#1344=CARTESIAN_POINT('Ctrl Pts',(-25.2730268748204,-227.99995879674,-5.66634551013987));
#1345=CARTESIAN_POINT('Ctrl Pts',(-25.4075849838041,-227.,-5.50120342017489));
#1346=CARTESIAN_POINT('Ctrl Pts',(-25.0000004470348,-230.,-5.99999997019769));
#1347=CARTESIAN_POINT('Ctrl Pts',(-25.137165362564,-228.99995879674,-5.83261102681414));
#1348=CARTESIAN_POINT('Ctrl Pts',(-25.2730268748204,-227.99995879674,-5.66634551013987));
#1349=CARTESIAN_POINT('Ctrl Pts',(-25.4075849838041,-227.,-5.50120342017488));
#1350=CARTESIAN_POINT('Ctrl Pts',(-23.3333337555329,-230.,-4.33333327869576));
#1351=CARTESIAN_POINT('Ctrl Pts',(-23.4669945728502,-228.99995879674,-4.16811817858896));
#1352=CARTESIAN_POINT('Ctrl Pts',(-23.5993575693454,-227.99995879674,-4.00398749511508));
#1353=CARTESIAN_POINT('Ctrl Pts',(-23.7304227450185,-227.,-3.84094122827413));
#1354=CARTESIAN_POINT('Ctrl Pts',(-21.666667064031,-230.,-2.66666658719382));
#1355=CARTESIAN_POINT('Ctrl Pts',(-21.7968237831364,-228.99995879674,-2.50362533036378));
#1356=CARTESIAN_POINT('Ctrl Pts',(-21.9256882638704,-227.99995879674,-2.3416294800903));
#1357=CARTESIAN_POINT('Ctrl Pts',(-22.0532605062329,-227.,-2.18067903637337));
#1358=CARTESIAN_POINT('Ctrl Pts',(-20.000000372529,-230.,-0.999999895691886));
#1359=CARTESIAN_POINT('Ctrl Pts',(-20.1266529934226,-228.99995879674,-0.839132482138599));
#1360=CARTESIAN_POINT('Ctrl Pts',(-20.2520189583954,-227.99995879674,-0.67927146506551));
#1361=CARTESIAN_POINT('Ctrl Pts',(-20.3760982674473,-227.,-0.520416844472619));
#1362=CARTESIAN_POINT('Ctrl Pts',(-20.000000372529,-230.,-0.999999895691885));
#1363=CARTESIAN_POINT('Ctrl Pts',(-20.1266529934226,-228.99995879674,-0.839132482138598));
#1364=CARTESIAN_POINT('Ctrl Pts',(-20.2520189583954,-227.99995879674,-0.679271465065512));
#1365=CARTESIAN_POINT('Ctrl Pts',(-20.3760982674473,-227.,-0.520416844472619));
#1366=CARTESIAN_POINT('Origin',(-20.0402023978844,-230.,-4.99999989569188));
#1367=CARTESIAN_POINT('',(-22.2000001475064,-230.,-7.15979764531389));
#1368=CARTESIAN_POINT('Origin',(-22.2000001475064,-230.,-7.15979764531389));
#1369=CARTESIAN_POINT('',(-22.2000001475064,-230.,-13.901613536135));
#1370=CARTESIAN_POINT('Origin',(-21.3999995529494,-230.,-17.0000000595869));
#1371=CARTESIAN_POINT('',(-22.2000001475064,-230.,-20.0983865830388));
#1372=CARTESIAN_POINT('Origin',(-22.2000001475064,-230.,-20.0983865830388));
#1373=CARTESIAN_POINT('',(-22.2000001475064,-230.,-26.8402020012366));
#1374=CARTESIAN_POINT('Origin',(-22.2000001475064,-230.,-26.8402020012366));
#1375=CARTESIAN_POINT('',(-18.8402023490025,-230.,-30.1999999999999));
#1376=CARTESIAN_POINT('Origin',(-18.8402023490025,-230.,-30.2000000000001));
#1377=CARTESIAN_POINT('Origin',(18.8402023490025,-230.,-30.1999999999999));
#1378=CARTESIAN_POINT('',(22.2000001475064,-230.,-26.8402020012366));
#1379=CARTESIAN_POINT('Origin',(22.2000001475064,-230.,-26.8402020012366));
#1380=CARTESIAN_POINT('',(22.2000001475064,-230.,-20.0983865830388));
#1381=CARTESIAN_POINT('Origin',(21.3999995529494,-230.,-17.0000000595869));
#1382=CARTESIAN_POINT('',(22.2000001475064,-230.,-13.9016135361349));
#1383=CARTESIAN_POINT('Origin',(22.2000001475064,-230.,-13.9016135361349));
#1384=CARTESIAN_POINT('',(22.2000001475064,-230.,-7.15979764531388));
#1385=CARTESIAN_POINT('Origin',(22.2000001475064,-230.,-7.15979764531388));
#1386=CARTESIAN_POINT('Ctrl Pts',(-20.000000372529,-230.,-0.999999895691885));
#1387=CARTESIAN_POINT('Ctrl Pts',(-20.1266529934226,-228.99995879674,-0.839132482138598));
#1388=CARTESIAN_POINT('Ctrl Pts',(-20.2520189583954,-227.99995879674,-0.679271465065509));
#1389=CARTESIAN_POINT('Ctrl Pts',(-20.3760982674473,-227.,-0.520416844472617));
#1390=CARTESIAN_POINT('Ctrl Pts',(-13.333333581686,-230.,-0.999999895691882));
#1391=CARTESIAN_POINT('Ctrl Pts',(-13.4177686622818,-228.99995879674,-0.839132482138595));
#1392=CARTESIAN_POINT('Ctrl Pts',(-13.5013459722636,-227.99995879674,-0.679271465065505));
#1393=CARTESIAN_POINT('Ctrl Pts',(-13.5840655116315,-227.,-0.520416844472614));
#1394=CARTESIAN_POINT('Ctrl Pts',(-6.66666679084301,-230.,-0.999999895691879));
#1395=CARTESIAN_POINT('Ctrl Pts',(-6.70888433114088,-228.99995879674,-0.839132482138591));
#1396=CARTESIAN_POINT('Ctrl Pts',(-6.7506729861318,-227.99995879674,-0.679271465065503));
#1397=CARTESIAN_POINT('Ctrl Pts',(-6.79203275581577,-227.,-0.520416844472611));
#1398=CARTESIAN_POINT('Ctrl Pts',(-4.44089209850063E-15,-230.,-0.999999895691875));
#1399=CARTESIAN_POINT('Ctrl Pts',(-4.41175097019095E-15,-228.99995879674,
-0.839132482138588));
#1400=CARTESIAN_POINT('Ctrl Pts',(-4.38272457551234E-15,-227.99995879674,
-0.679271465065499));
#1401=CARTESIAN_POINT('Ctrl Pts',(-4.3538129144648E-15,-227.,-0.520416844472608));
#1402=CARTESIAN_POINT('Ctrl Pts',(0.,-230.,-0.999999895691875));
#1403=CARTESIAN_POINT('Ctrl Pts',(0.,-228.99995879674,-0.839132482138589));
#1404=CARTESIAN_POINT('Ctrl Pts',(0.,-227.99995879674,-0.679271465065502));
#1405=CARTESIAN_POINT('Ctrl Pts',(0.,-227.,-0.520416844472609));
#1406=CARTESIAN_POINT('Ctrl Pts',(20.000000372529,-230.,-0.999999895691885));
#1407=CARTESIAN_POINT('Ctrl Pts',(20.1266529934226,-228.99995879674,-0.839132482138598));
#1408=CARTESIAN_POINT('Ctrl Pts',(20.2520189583954,-227.99995879674,-0.679271465065509));
#1409=CARTESIAN_POINT('Ctrl Pts',(20.3760982674473,-227.,-0.520416844472617));
#1410=CARTESIAN_POINT('Ctrl Pts',(13.333333581686,-230.,-0.999999895691882));
#1411=CARTESIAN_POINT('Ctrl Pts',(13.4177686622818,-228.99995879674,-0.839132482138595));
#1412=CARTESIAN_POINT('Ctrl Pts',(13.5013459722636,-227.99995879674,-0.679271465065505));
#1413=CARTESIAN_POINT('Ctrl Pts',(13.5840655116315,-227.,-0.520416844472614));
#1414=CARTESIAN_POINT('Ctrl Pts',(6.66666679084301,-230.,-0.999999895691879));
#1415=CARTESIAN_POINT('Ctrl Pts',(6.70888433114088,-228.99995879674,-0.839132482138591));
#1416=CARTESIAN_POINT('Ctrl Pts',(6.7506729861318,-227.99995879674,-0.679271465065503));
#1417=CARTESIAN_POINT('Ctrl Pts',(6.79203275581577,-227.,-0.520416844472611));
#1418=CARTESIAN_POINT('Ctrl Pts',(4.44089209850063E-15,-230.,-0.999999895691875));
#1419=CARTESIAN_POINT('Ctrl Pts',(4.41175097019095E-15,-228.99995879674,
-0.839132482138588));
#1420=CARTESIAN_POINT('Ctrl Pts',(4.38272457551234E-15,-227.99995879674,
-0.679271465065499));
#1421=CARTESIAN_POINT('Ctrl Pts',(4.3538129144648E-15,-227.,-0.520416844472608));
#1422=CARTESIAN_POINT('Ctrl Pts',(20.000000372529,-230.,-0.999999895691885));
#1423=CARTESIAN_POINT('Ctrl Pts',(20.1266529934226,-228.99995879674,-0.839132482138598));
#1424=CARTESIAN_POINT('Ctrl Pts',(20.2520189583954,-227.99995879674,-0.679271465065512));
#1425=CARTESIAN_POINT('Ctrl Pts',(20.3760982674473,-227.,-0.520416844472619));
#1426=CARTESIAN_POINT('Ctrl Pts',(25.0000004470348,-230.,-5.99999997019769));
#1427=CARTESIAN_POINT('Ctrl Pts',(25.137165362564,-228.99995879674,-5.83261102681414));
#1428=CARTESIAN_POINT('Ctrl Pts',(25.2730268748204,-227.99995879674,-5.66634551013987));
#1429=CARTESIAN_POINT('Ctrl Pts',(25.4075849838041,-227.,-5.50120342017488));
#1430=CARTESIAN_POINT('Ctrl Pts',(23.3333337555329,-230.,-4.33333327869576));
#1431=CARTESIAN_POINT('Ctrl Pts',(23.4669945728502,-228.99995879674,-4.16811817858896));
#1432=CARTESIAN_POINT('Ctrl Pts',(23.5993575693454,-227.99995879674,-4.00398749511508));
#1433=CARTESIAN_POINT('Ctrl Pts',(23.7304227450185,-227.,-3.84094122827413));
#1434=CARTESIAN_POINT('Ctrl Pts',(21.666667064031,-230.,-2.66666658719382));
#1435=CARTESIAN_POINT('Ctrl Pts',(21.7968237831364,-228.99995879674,-2.50362533036378));
#1436=CARTESIAN_POINT('Ctrl Pts',(21.9256882638704,-227.99995879674,-2.3416294800903));
#1437=CARTESIAN_POINT('Ctrl Pts',(22.0532605062329,-227.,-2.18067903637337));
#1438=CARTESIAN_POINT('Ctrl Pts',(20.000000372529,-230.,-0.999999895691886));
#1439=CARTESIAN_POINT('Ctrl Pts',(20.1266529934226,-228.99995879674,-0.839132482138599));
#1440=CARTESIAN_POINT('Ctrl Pts',(20.2520189583954,-227.99995879674,-0.67927146506551));
#1441=CARTESIAN_POINT('Ctrl Pts',(20.3760982674473,-227.,-0.520416844472619));
#1442=CARTESIAN_POINT('Ctrl Pts',(25.0000004470348,-230.,-5.99999997019769));
#1443=CARTESIAN_POINT('Ctrl Pts',(25.137165362564,-228.99995879674,-5.83261102681414));
#1444=CARTESIAN_POINT('Ctrl Pts',(25.2730268748204,-227.99995879674,-5.66634551013987));
#1445=CARTESIAN_POINT('Ctrl Pts',(25.4075849838041,-227.,-5.50120342017489));
#1446=CARTESIAN_POINT('Ctrl Pts',(25.,-230.,-28.0000000745058));
#1447=CARTESIAN_POINT('Ctrl Pts',(25.1371649188221,-228.99995879674,-28.0508942571253));
#1448=CARTESIAN_POINT('Ctrl Pts',(25.2730264343548,-227.99995879674,-28.1009836841063));
#1449=CARTESIAN_POINT('Ctrl Pts',(25.4075845465981,-227.,-28.1502683554486));
#1450=CARTESIAN_POINT('Ctrl Pts',(25.0000001490116,-230.,-20.6666667064031));
#1451=CARTESIAN_POINT('Ctrl Pts',(25.1371650667361,-228.99995879674,-20.6447998470216));
#1452=CARTESIAN_POINT('Ctrl Pts',(25.2730265811767,-227.99995879674,-20.6227709594508));
#1453=CARTESIAN_POINT('Ctrl Pts',(25.4075846923334,-227.,-20.6005800436907));
#1454=CARTESIAN_POINT('Ctrl Pts',(25.0000002980232,-230.,-13.3333333383004));
#1455=CARTESIAN_POINT('Ctrl Pts',(25.1371652146501,-228.99995879674,-13.2387054369179));
#1456=CARTESIAN_POINT('Ctrl Pts',(25.2730267279986,-227.99995879674,-13.1445582347953));
#1457=CARTESIAN_POINT('Ctrl Pts',(25.4075848380688,-227.,-13.0508917319328));
#1458=CARTESIAN_POINT('Ctrl Pts',(25.0000004470348,-230.,-5.9999999701977));
#1459=CARTESIAN_POINT('Ctrl Pts',(25.137165362564,-228.99995879674,-5.83261102681414));
#1460=CARTESIAN_POINT('Ctrl Pts',(25.2730268748204,-227.99995879674,-5.66634551013987));
#1461=CARTESIAN_POINT('Ctrl Pts',(25.4075849838041,-227.,-5.50120342017489));
#1462=CARTESIAN_POINT('Ctrl Pts',(25.,-230.,-28.0000000745058));
#1463=CARTESIAN_POINT('Ctrl Pts',(25.1371649188221,-228.99995879674,-28.0508942571253));
#1464=CARTESIAN_POINT('Ctrl Pts',(25.2730264343548,-227.99995879674,-28.1009836841063));
#1465=CARTESIAN_POINT('Ctrl Pts',(25.4075845465981,-227.,-28.1502683554486));
#1466=CARTESIAN_POINT('Ctrl Pts',(20.000000372529,-230.,-33.));
#1467=CARTESIAN_POINT('Ctrl Pts',(20.1110916504212,-228.99995879674,-33.0742439299711));
#1468=CARTESIAN_POINT('Ctrl Pts',(20.2210184856293,-227.99995879674,-33.1475655361805));
#1469=CARTESIAN_POINT('Ctrl Pts',(20.3297808781535,-227.,-33.2199648186282));
#1470=CARTESIAN_POINT('Ctrl Pts',(21.6666669150193,-230.,-31.3333333581686));
#1471=CARTESIAN_POINT('Ctrl Pts',(21.7864494065548,-228.99995879674,-31.3997940390225));
#1472=CARTESIAN_POINT('Ctrl Pts',(21.9050211352045,-227.99995879674,-31.4653715854891));
#1473=CARTESIAN_POINT('Ctrl Pts',(22.0223821009684,-227.,-31.5300659975684));
#1474=CARTESIAN_POINT('Ctrl Pts',(23.3333334575097,-230.,-29.6666667163372));
#1475=CARTESIAN_POINT('Ctrl Pts',(23.4618071626885,-228.99995879674,-29.7253441480739));
#1476=CARTESIAN_POINT('Ctrl Pts',(23.5890237847797,-227.99995879674,-29.7831776347977));
#1477=CARTESIAN_POINT('Ctrl Pts',(23.7149833237832,-227.,-29.8401671765085));
#1478=CARTESIAN_POINT('Ctrl Pts',(25.,-230.,-28.0000000745058));
#1479=CARTESIAN_POINT('Ctrl Pts',(25.1371649188221,-228.99995879674,-28.0508942571253));
#1480=CARTESIAN_POINT('Ctrl Pts',(25.2730264343548,-227.99995879674,-28.1009836841063));
#1481=CARTESIAN_POINT('Ctrl Pts',(25.4075845465981,-227.,-28.1502683554486));
#1482=UNCERTAINTY_MEASURE_WITH_UNIT(LENGTH_MEASURE(0.01),#1486,
'DISTANCE_ACCURACY_VALUE',
'Maximum model space distance between geometric entities at asserted c
onnectivities');
#1483=UNCERTAINTY_MEASURE_WITH_UNIT(LENGTH_MEASURE(0.01),#1486,
'DISTANCE_ACCURACY_VALUE',
'Maximum model space distance between geometric entities at asserted c
onnectivities');
#1484=(
GEOMETRIC_REPRESENTATION_CONTEXT(3)
GLOBAL_UNCERTAINTY_ASSIGNED_CONTEXT((#1482))
GLOBAL_UNIT_ASSIGNED_CONTEXT((#1486,#1488,#1489))
REPRESENTATION_CONTEXT('','3D')
);
#1485=(
GEOMETRIC_REPRESENTATION_CONTEXT(3)
GLOBAL_UNCERTAINTY_ASSIGNED_CONTEXT((#1483))
GLOBAL_UNIT_ASSIGNED_CONTEXT((#1486,#1488,#1489))
REPRESENTATION_CONTEXT('','3D')
);
#1486=(
LENGTH_UNIT()
NAMED_UNIT(*)
SI_UNIT(.MILLI.,.METRE.)
);
#1487=(
LENGTH_UNIT()
NAMED_UNIT(*)
SI_UNIT($,.METRE.)
);
#1488=(
NAMED_UNIT(*)
PLANE_ANGLE_UNIT()
SI_UNIT($,.RADIAN.)
);
#1489=(
NAMED_UNIT(*)
SI_UNIT($,.STERADIAN.)
SOLID_ANGLE_UNIT()
);
#1490=SHAPE_DEFINITION_REPRESENTATION(#1491,#1492);
#1491=PRODUCT_DEFINITION_SHAPE('',$,#1494);
#1492=SHAPE_REPRESENTATION('',(#818),#1484);
#1493=PRODUCT_DEFINITION_CONTEXT('part definition',#1498,'design');
#1494=PRODUCT_DEFINITION('Fuselage 2','Fuselage 2',#1495,#1493);
#1495=PRODUCT_DEFINITION_FORMATION('',$,#1500);
#1496=PRODUCT_RELATED_PRODUCT_CATEGORY('Fuselage 2','Fuselage 2',(#1500));
#1497=APPLICATION_PROTOCOL_DEFINITION('international standard',
'automotive_design',2009,#1498);
#1498=APPLICATION_CONTEXT(
'Core Data for Automotive Mechanical Design Process');
#1499=PRODUCT_CONTEXT('part definition',#1498,'mechanical');
#1500=PRODUCT('Fuselage 2','Fuselage 2',$,(#1499));
#1501=PRESENTATION_STYLE_ASSIGNMENT((#1503));
#1502=PRESENTATION_STYLE_ASSIGNMENT((#1504));
#1503=SURFACE_STYLE_USAGE(.BOTH.,#1505);
#1504=SURFACE_STYLE_USAGE(.BOTH.,#1506);
#1505=SURFACE_SIDE_STYLE('',(#1507));
#1506=SURFACE_SIDE_STYLE('',(#1508));
#1507=SURFACE_STYLE_FILL_AREA(#1509);
#1508=SURFACE_STYLE_FILL_AREA(#1510);
#1509=FILL_AREA_STYLE('Steel - Satin',(#1511));
#1510=FILL_AREA_STYLE('Paint - Enamel Glossy (Grey)',(#1512));
#1511=FILL_AREA_STYLE_COLOUR('Steel - Satin',#1513);
#1512=FILL_AREA_STYLE_COLOUR('Paint - Enamel Glossy (Grey)',#1514);
#1513=COLOUR_RGB('Steel - Satin',0.627450980392157,0.627450980392157,0.627450980392157);
#1514=COLOUR_RGB('Paint - Enamel Glossy (Grey)',0.701960784313725,0.701960784313725,
0.701960784313725);
ENDSEC;
END-ISO-10303-21;
