ISO-10303-21;
HEADER;
/* Generated by software containing ST-Developer
 * from STEP Tools, Inc. (www.steptools.com) 
 */

FILE_DESCRIPTION(
/* description */ (''),
/* implementation_level */ '2;1');

FILE_NAME(
/* name */ 'Wing L Aileron 1.step',
/* time_stamp */ '2025-08-21T21:42:06+02:00',
/* author */ (''),
/* organization */ (''),
/* preprocessor_version */ 'ST-DEVELOPER v20.1',
/* originating_system */ 'Autodesk Translation Framework v14.10.0.0',
/* authorisation */ '');

FILE_SCHEMA (('AUTOMOTIVE_DESIGN { 1 0 10303 214 3 1 1 }'));
ENDSEC;

DATA;
#10=MECHANICAL_DESIGN_GEOMETRIC_PRESENTATION_REPRESENTATION('',(#13),#849);
#11=SHAPE_REPRESENTATION_RELATIONSHIP('SRR','None',#856,#12);
#12=ADVANCED_BREP_SHAPE_REPRESENTATION('',(#14),#848);
#13=STYLED_ITEM('',(#866),#14);
#14=MANIFOLD_SOLID_BREP('Wing L Aileron 1',#418);
#15=B_SPLINE_SURFACE_WITH_KNOTS('',3,3,((#661,#662,#663,#664),(#665,#666,
#667,#668),(#669,#670,#671,#672),(#673,#674,#675,#676)),.UNSPECIFIED.,.F.,
 .F.,.F.,(4,4),(4,4),(0.,1.),(-11.6880302534637,-0.0526977449336852),
 .UNSPECIFIED.);
#16=B_SPLINE_SURFACE_WITH_KNOTS('',3,3,((#688,#689,#690,#691),(#692,#693,
#694,#695),(#696,#697,#698,#699),(#700,#701,#702,#703),(#704,#705,#706,
#707),(#708,#709,#710,#711),(#712,#713,#714,#715),(#716,#717,#718,#719),
(#720,#721,#722,#723)),.UNSPECIFIED.,.F.,.F.,.F.,(4,1,1,1,1,1,4),(4,4),
(0.814694627834432,0.867639019881737,0.89411121590539,0.920583411929042,
0.947055607952695,0.973527803976348,1.),(0.0047619047618649,0.528571428571764),
 .UNSPECIFIED.);
#17=B_SPLINE_SURFACE_WITH_KNOTS('',3,3,((#770,#771,#772,#773),(#774,#775,
#776,#777),(#778,#779,#780,#781),(#782,#783,#784,#785),(#786,#787,#788,
#789),(#790,#791,#792,#793),(#794,#795,#796,#797),(#798,#799,#800,#801)),
 .UNSPECIFIED.,.F.,.F.,.F.,(4,1,1,1,1,4),(4,4),(0.,0.0262104373234217,0.078631311970265,
0.131052186617108,0.144157405278819,0.183473061263952),(0.00476190476187768,
0.528571428571952),.UNSPECIFIED.);
#18=B_SPLINE_SURFACE_WITH_KNOTS('',3,3,((#823,#824,#825,#826),(#827,#828,
#829,#830),(#831,#832,#833,#834),(#835,#836,#837,#838)),.UNSPECIFIED.,.F.,
 .F.,.F.,(4,4),(4,4),(0.,1.),(-22.0580826210418,-10.4229668831661),
 .UNSPECIFIED.);
#19=FACE_BOUND('',#57,.T.);
#20=FACE_BOUND('',#59,.T.);
#21=FACE_BOUND('',#60,.T.);
#22=FACE_BOUND('',#62,.T.);
#23=CIRCLE('',#434,3.);
#24=CIRCLE('',#435,3.);
#25=CIRCLE('',#437,0.999999999999996);
#26=CIRCLE('',#438,0.999999999999996);
#27=CYLINDRICAL_SURFACE('',#433,3.);
#28=CYLINDRICAL_SURFACE('',#436,0.999999999999996);
#29=FACE_OUTER_BOUND('',#52,.T.);
#30=FACE_OUTER_BOUND('',#53,.T.);
#31=FACE_OUTER_BOUND('',#54,.T.);
#32=FACE_OUTER_BOUND('',#55,.T.);
#33=FACE_OUTER_BOUND('',#56,.T.);
#34=FACE_OUTER_BOUND('',#58,.T.);
#35=FACE_OUTER_BOUND('',#61,.T.);
#36=FACE_OUTER_BOUND('',#63,.T.);
#37=FACE_OUTER_BOUND('',#64,.T.);
#38=FACE_OUTER_BOUND('',#65,.T.);
#39=FACE_OUTER_BOUND('',#66,.T.);
#40=FACE_OUTER_BOUND('',#67,.T.);
#41=FACE_OUTER_BOUND('',#68,.T.);
#42=FACE_OUTER_BOUND('',#69,.T.);
#43=FACE_OUTER_BOUND('',#70,.T.);
#44=FACE_OUTER_BOUND('',#71,.T.);
#45=FACE_OUTER_BOUND('',#72,.T.);
#46=FACE_OUTER_BOUND('',#73,.T.);
#47=FACE_OUTER_BOUND('',#74,.T.);
#48=FACE_OUTER_BOUND('',#75,.T.);
#49=FACE_OUTER_BOUND('',#76,.T.);
#50=FACE_OUTER_BOUND('',#77,.T.);
#51=FACE_OUTER_BOUND('',#78,.T.);
#52=EDGE_LOOP('',(#264,#265,#266,#267));
#53=EDGE_LOOP('',(#268,#269,#270,#271));
#54=EDGE_LOOP('',(#272,#273,#274,#275));
#55=EDGE_LOOP('',(#276,#277,#278,#279));
#56=EDGE_LOOP('',(#280,#281,#282,#283));
#57=EDGE_LOOP('',(#284));
#58=EDGE_LOOP('',(#285,#286,#287,#288));
#59=EDGE_LOOP('',(#289,#290,#291,#292));
#60=EDGE_LOOP('',(#293,#294,#295,#296));
#61=EDGE_LOOP('',(#297,#298,#299,#300,#301,#302,#303,#304,#305,#306));
#62=EDGE_LOOP('',(#307));
#63=EDGE_LOOP('',(#308,#309,#310,#311));
#64=EDGE_LOOP('',(#312,#313,#314,#315));
#65=EDGE_LOOP('',(#316,#317,#318,#319));
#66=EDGE_LOOP('',(#320,#321,#322,#323));
#67=EDGE_LOOP('',(#324,#325,#326,#327));
#68=EDGE_LOOP('',(#328,#329,#330,#331));
#69=EDGE_LOOP('',(#332,#333,#334,#335));
#70=EDGE_LOOP('',(#336,#337,#338,#339));
#71=EDGE_LOOP('',(#340,#341,#342,#343));
#72=EDGE_LOOP('',(#344,#345,#346,#347));
#73=EDGE_LOOP('',(#348,#349,#350,#351));
#74=EDGE_LOOP('',(#352,#353,#354,#355));
#75=EDGE_LOOP('',(#356,#357,#358,#359));
#76=EDGE_LOOP('',(#360,#361,#362,#363,#364,#365,#366,#367));
#77=EDGE_LOOP('',(#368,#369,#370,#371));
#78=EDGE_LOOP('',(#372,#373,#374,#375,#376,#377));
#79=LINE('',#549,#116);
#80=LINE('',#551,#117);
#81=LINE('',#552,#118);
#82=LINE('',#558,#119);
#83=LINE('',#563,#120);
#84=LINE('',#572,#121);
#85=LINE('',#573,#122);
#86=LINE('',#582,#123);
#87=LINE('',#589,#124);
#88=LINE('',#596,#125);
#89=LINE('',#598,#126);
#90=LINE('',#600,#127);
#91=LINE('',#601,#128);
#92=LINE('',#604,#129);
#93=LINE('',#606,#130);
#94=LINE('',#608,#131);
#95=LINE('',#609,#132);
#96=LINE('',#641,#133);
#97=LINE('',#731,#134);
#98=LINE('',#735,#135);
#99=LINE('',#737,#136);
#100=LINE('',#739,#137);
#101=LINE('',#740,#138);
#102=LINE('',#742,#139);
#103=LINE('',#743,#140);
#104=LINE('',#745,#141);
#105=LINE('',#747,#142);
#106=LINE('',#752,#143);
#107=LINE('',#754,#144);
#108=LINE('',#756,#145);
#109=LINE('',#757,#146);
#110=LINE('',#759,#147);
#111=LINE('',#760,#148);
#112=LINE('',#762,#149);
#113=LINE('',#764,#150);
#114=LINE('',#768,#151);
#115=LINE('',#769,#152);
#116=VECTOR('',#459,10.);
#117=VECTOR('',#460,10.);
#118=VECTOR('',#461,10.);
#119=VECTOR('',#468,10.);
#120=VECTOR('',#473,0.999999999999996);
#121=VECTOR('',#478,10.);
#122=VECTOR('',#479,10.);
#123=VECTOR('',#484,10.);
#124=VECTOR('',#485,10.);
#125=VECTOR('',#486,10.);
#126=VECTOR('',#487,10.);
#127=VECTOR('',#488,10.);
#128=VECTOR('',#489,10.);
#129=VECTOR('',#490,10.);
#130=VECTOR('',#491,10.);
#131=VECTOR('',#492,10.);
#132=VECTOR('',#493,10.);
#133=VECTOR('',#496,10.);
#134=VECTOR('',#497,10.);
#135=VECTOR('',#500,10.);
#136=VECTOR('',#501,10.);
#137=VECTOR('',#502,10.);
#138=VECTOR('',#503,10.);
#139=VECTOR('',#506,10.);
#140=VECTOR('',#507,10.);
#141=VECTOR('',#510,10.);
#142=VECTOR('',#513,10.);
#143=VECTOR('',#518,10.);
#144=VECTOR('',#519,10.);
#145=VECTOR('',#520,10.);
#146=VECTOR('',#521,10.);
#147=VECTOR('',#524,10.);
#148=VECTOR('',#525,10.);
#149=VECTOR('',#528,10.);
#150=VECTOR('',#531,10.);
#151=VECTOR('',#536,10.);
#152=VECTOR('',#537,225.152072318472);
#153=B_SPLINE_CURVE_WITH_KNOTS('',3,(#544,#545,#546,#547),.UNSPECIFIED.,
 .F.,.F.,(4,4),(-0.240119489598184,0.),.UNSPECIFIED.);
#154=B_SPLINE_CURVE_WITH_KNOTS('',3,(#568,#569,#570,#571),.UNSPECIFIED.,
 .F.,.F.,(4,4),(-0.290388966677203,-0.0500648716187376),.UNSPECIFIED.);
#155=B_SPLINE_CURVE_WITH_KNOTS('',3,(#575,#576,#577,#578),.UNSPECIFIED.,
 .F.,.F.,(4,4),(-1.40197570229576,-0.312566930383157),.UNSPECIFIED.);
#156=B_SPLINE_CURVE_WITH_KNOTS('',3,(#584,#585,#586,#587),.UNSPECIFIED.,
 .F.,.F.,(4,4),(-22.0049537115722,-10.4229668831661),.UNSPECIFIED.);
#157=B_SPLINE_CURVE_WITH_KNOTS('',3,(#590,#591,#592,#593),.UNSPECIFIED.,
 .F.,.F.,(4,4),(-11.6880302534637,-0.106061362934517),.UNSPECIFIED.);
#158=B_SPLINE_CURVE_WITH_KNOTS('',3,(#612,#613,#614,#615,#616,#617),
 .UNSPECIFIED.,.F.,.F.,(4,2,4),(0.,0.113030667932712,0.226062162261648),
 .UNSPECIFIED.);
#159=B_SPLINE_CURVE_WITH_KNOTS('',3,(#619,#620,#621,#622,#623,#624),
 .UNSPECIFIED.,.F.,.F.,(4,2,4),(0.,0.109930093576783,0.219860954500078),
 .UNSPECIFIED.);
#160=B_SPLINE_CURVE_WITH_KNOTS('',3,(#625,#626,#627,#628),.UNSPECIFIED.,
 .F.,.F.,(4,4),(-1.50169038587012,-1.50008540578987),.UNSPECIFIED.);
#161=B_SPLINE_CURVE_WITH_KNOTS('',3,(#630,#631,#632,#633,#634,#635,#636,
#637,#638,#639),.UNSPECIFIED.,.F.,.F.,(4,3,3,4),(-1.59164332939788,-1.57960105009202,
-1.5555164914803,-1.53911205244466),.UNSPECIFIED.);
#162=B_SPLINE_CURVE_WITH_KNOTS('',3,(#642,#643,#644,#645,#646,#647,#648,
#649,#650,#651,#652,#653,#654,#655,#656,#657,#658,#659,#660),
 .UNSPECIFIED.,.F.,.F.,(4,3,3,3,3,3,4),(-1.33831173602648,-0.955936954305398,
-0.764749563444317,-0.573562172583238,-0.382374781722159,-0.191187390861079,
0.),.UNSPECIFIED.);
#163=B_SPLINE_CURVE_WITH_KNOTS('',3,(#678,#679,#680,#681,#682,#683),
 .UNSPECIFIED.,.F.,.F.,(4,2,4),(-0.226113937759194,-0.11305658503159,0.),
 .UNSPECIFIED.);
#164=B_SPLINE_CURVE_WITH_KNOTS('',3,(#684,#685,#686,#687),.UNSPECIFIED.,
 .F.,.F.,(4,4),(0.0526977449336852,11.6346648606517),.UNSPECIFIED.);
#165=B_SPLINE_CURVE_WITH_KNOTS('',3,(#725,#726,#727,#728,#729,#730),
 .UNSPECIFIED.,.F.,.F.,(4,2,4),(-1.30053309736146,-0.731944372864773,0.),
 .UNSPECIFIED.);
#166=B_SPLINE_CURVE_WITH_KNOTS('',3,(#803,#804,#805,#806,#807,#808,#809,
#810,#811,#812,#813,#814,#815,#816,#817,#818),.UNSPECIFIED.,.F.,.F.,(4,
3,3,3,3,4),(-1.33885385156946,-1.163784872352,-0.81364691391708,-0.463508955482163,
-0.375974465873434,-0.120455405686165),.UNSPECIFIED.);
#167=B_SPLINE_CURVE_WITH_KNOTS('',3,(#819,#820,#821,#822),.UNSPECIFIED.,
 .F.,.F.,(4,4),(10.4760920232404,22.0580826210418),.UNSPECIFIED.);
#168=B_SPLINE_CURVE_WITH_KNOTS('',3,(#839,#840,#841,#842,#843,#844),
 .UNSPECIFIED.,.F.,.F.,(4,2,4),(-0.219793983637332,-0.109896834149287,0.),
 .UNSPECIFIED.);
#169=VERTEX_POINT('',#542);
#170=VERTEX_POINT('',#543);
#171=VERTEX_POINT('',#548);
#172=VERTEX_POINT('',#550);
#173=VERTEX_POINT('',#554);
#174=VERTEX_POINT('',#556);
#175=VERTEX_POINT('',#560);
#176=VERTEX_POINT('',#562);
#177=VERTEX_POINT('',#566);
#178=VERTEX_POINT('',#567);
#179=VERTEX_POINT('',#580);
#180=VERTEX_POINT('',#581);
#181=VERTEX_POINT('',#583);
#182=VERTEX_POINT('',#588);
#183=VERTEX_POINT('',#594);
#184=VERTEX_POINT('',#595);
#185=VERTEX_POINT('',#597);
#186=VERTEX_POINT('',#599);
#187=VERTEX_POINT('',#602);
#188=VERTEX_POINT('',#603);
#189=VERTEX_POINT('',#605);
#190=VERTEX_POINT('',#607);
#191=VERTEX_POINT('',#611);
#192=VERTEX_POINT('',#618);
#193=VERTEX_POINT('',#629);
#194=VERTEX_POINT('',#640);
#195=VERTEX_POINT('',#677);
#196=VERTEX_POINT('',#724);
#197=VERTEX_POINT('',#733);
#198=VERTEX_POINT('',#734);
#199=VERTEX_POINT('',#736);
#200=VERTEX_POINT('',#738);
#201=VERTEX_POINT('',#750);
#202=VERTEX_POINT('',#751);
#203=VERTEX_POINT('',#753);
#204=VERTEX_POINT('',#755);
#205=VERTEX_POINT('',#767);
#206=VERTEX_POINT('',#802);
#207=EDGE_CURVE('',#169,#170,#153,.T.);
#208=EDGE_CURVE('',#171,#169,#79,.T.);
#209=EDGE_CURVE('',#172,#171,#80,.T.);
#210=EDGE_CURVE('',#170,#172,#81,.T.);
#211=EDGE_CURVE('',#172,#173,#23,.T.);
#212=EDGE_CURVE('',#174,#171,#24,.T.);
#213=EDGE_CURVE('',#173,#174,#82,.T.);
#214=EDGE_CURVE('',#175,#175,#25,.T.);
#215=EDGE_CURVE('',#175,#176,#83,.T.);
#216=EDGE_CURVE('',#176,#176,#26,.T.);
#217=EDGE_CURVE('',#177,#178,#154,.T.);
#218=EDGE_CURVE('',#177,#173,#84,.T.);
#219=EDGE_CURVE('',#178,#174,#85,.T.);
#220=EDGE_CURVE('',#178,#169,#155,.T.);
#221=EDGE_CURVE('',#179,#180,#86,.T.);
#222=EDGE_CURVE('',#181,#179,#156,.T.);
#223=EDGE_CURVE('',#182,#181,#87,.T.);
#224=EDGE_CURVE('',#180,#182,#157,.T.);
#225=EDGE_CURVE('',#183,#184,#88,.T.);
#226=EDGE_CURVE('',#184,#185,#89,.F.);
#227=EDGE_CURVE('',#185,#186,#90,.T.);
#228=EDGE_CURVE('',#186,#183,#91,.F.);
#229=EDGE_CURVE('',#187,#188,#92,.T.);
#230=EDGE_CURVE('',#188,#189,#93,.F.);
#231=EDGE_CURVE('',#189,#190,#94,.T.);
#232=EDGE_CURVE('',#190,#187,#95,.F.);
#233=EDGE_CURVE('',#182,#191,#158,.T.);
#234=EDGE_CURVE('',#192,#181,#159,.T.);
#235=EDGE_CURVE('',#170,#192,#160,.T.);
#236=EDGE_CURVE('',#193,#177,#161,.T.);
#237=EDGE_CURVE('',#194,#193,#96,.T.);
#238=EDGE_CURVE('',#191,#194,#162,.T.);
#239=EDGE_CURVE('',#180,#195,#163,.T.);
#240=EDGE_CURVE('',#191,#195,#164,.T.);
#241=EDGE_CURVE('',#195,#196,#165,.T.);
#242=EDGE_CURVE('',#194,#196,#97,.T.);
#243=EDGE_CURVE('',#197,#198,#98,.T.);
#244=EDGE_CURVE('',#197,#199,#99,.F.);
#245=EDGE_CURVE('',#200,#199,#100,.F.);
#246=EDGE_CURVE('',#200,#198,#101,.F.);
#247=EDGE_CURVE('',#188,#197,#102,.F.);
#248=EDGE_CURVE('',#198,#189,#103,.F.);
#249=EDGE_CURVE('',#199,#187,#104,.F.);
#250=EDGE_CURVE('',#190,#200,#105,.F.);
#251=EDGE_CURVE('',#201,#202,#106,.T.);
#252=EDGE_CURVE('',#201,#203,#107,.F.);
#253=EDGE_CURVE('',#204,#203,#108,.F.);
#254=EDGE_CURVE('',#204,#202,#109,.F.);
#255=EDGE_CURVE('',#184,#201,#110,.F.);
#256=EDGE_CURVE('',#202,#185,#111,.F.);
#257=EDGE_CURVE('',#203,#183,#112,.F.);
#258=EDGE_CURVE('',#186,#204,#113,.F.);
#259=EDGE_CURVE('',#196,#205,#114,.T.);
#260=EDGE_CURVE('',#193,#205,#115,.T.);
#261=EDGE_CURVE('',#205,#206,#166,.T.);
#262=EDGE_CURVE('',#206,#192,#167,.T.);
#263=EDGE_CURVE('',#206,#179,#168,.T.);
#264=ORIENTED_EDGE('',*,*,#207,.F.);
#265=ORIENTED_EDGE('',*,*,#208,.F.);
#266=ORIENTED_EDGE('',*,*,#209,.F.);
#267=ORIENTED_EDGE('',*,*,#210,.F.);
#268=ORIENTED_EDGE('',*,*,#211,.F.);
#269=ORIENTED_EDGE('',*,*,#209,.T.);
#270=ORIENTED_EDGE('',*,*,#212,.F.);
#271=ORIENTED_EDGE('',*,*,#213,.F.);
#272=ORIENTED_EDGE('',*,*,#214,.F.);
#273=ORIENTED_EDGE('',*,*,#215,.T.);
#274=ORIENTED_EDGE('',*,*,#216,.F.);
#275=ORIENTED_EDGE('',*,*,#215,.F.);
#276=ORIENTED_EDGE('',*,*,#217,.F.);
#277=ORIENTED_EDGE('',*,*,#218,.T.);
#278=ORIENTED_EDGE('',*,*,#213,.T.);
#279=ORIENTED_EDGE('',*,*,#219,.F.);
#280=ORIENTED_EDGE('',*,*,#220,.F.);
#281=ORIENTED_EDGE('',*,*,#219,.T.);
#282=ORIENTED_EDGE('',*,*,#212,.T.);
#283=ORIENTED_EDGE('',*,*,#208,.T.);
#284=ORIENTED_EDGE('',*,*,#214,.T.);
#285=ORIENTED_EDGE('',*,*,#221,.F.);
#286=ORIENTED_EDGE('',*,*,#222,.F.);
#287=ORIENTED_EDGE('',*,*,#223,.F.);
#288=ORIENTED_EDGE('',*,*,#224,.F.);
#289=ORIENTED_EDGE('',*,*,#225,.T.);
#290=ORIENTED_EDGE('',*,*,#226,.T.);
#291=ORIENTED_EDGE('',*,*,#227,.T.);
#292=ORIENTED_EDGE('',*,*,#228,.T.);
#293=ORIENTED_EDGE('',*,*,#229,.T.);
#294=ORIENTED_EDGE('',*,*,#230,.T.);
#295=ORIENTED_EDGE('',*,*,#231,.T.);
#296=ORIENTED_EDGE('',*,*,#232,.T.);
#297=ORIENTED_EDGE('',*,*,#233,.F.);
#298=ORIENTED_EDGE('',*,*,#223,.T.);
#299=ORIENTED_EDGE('',*,*,#234,.F.);
#300=ORIENTED_EDGE('',*,*,#235,.F.);
#301=ORIENTED_EDGE('',*,*,#210,.T.);
#302=ORIENTED_EDGE('',*,*,#211,.T.);
#303=ORIENTED_EDGE('',*,*,#218,.F.);
#304=ORIENTED_EDGE('',*,*,#236,.F.);
#305=ORIENTED_EDGE('',*,*,#237,.F.);
#306=ORIENTED_EDGE('',*,*,#238,.F.);
#307=ORIENTED_EDGE('',*,*,#216,.T.);
#308=ORIENTED_EDGE('',*,*,#239,.F.);
#309=ORIENTED_EDGE('',*,*,#224,.T.);
#310=ORIENTED_EDGE('',*,*,#233,.T.);
#311=ORIENTED_EDGE('',*,*,#240,.T.);
#312=ORIENTED_EDGE('',*,*,#241,.F.);
#313=ORIENTED_EDGE('',*,*,#240,.F.);
#314=ORIENTED_EDGE('',*,*,#238,.T.);
#315=ORIENTED_EDGE('',*,*,#242,.T.);
#316=ORIENTED_EDGE('',*,*,#243,.F.);
#317=ORIENTED_EDGE('',*,*,#244,.T.);
#318=ORIENTED_EDGE('',*,*,#245,.F.);
#319=ORIENTED_EDGE('',*,*,#246,.T.);
#320=ORIENTED_EDGE('',*,*,#230,.F.);
#321=ORIENTED_EDGE('',*,*,#247,.T.);
#322=ORIENTED_EDGE('',*,*,#243,.T.);
#323=ORIENTED_EDGE('',*,*,#248,.T.);
#324=ORIENTED_EDGE('',*,*,#229,.F.);
#325=ORIENTED_EDGE('',*,*,#249,.F.);
#326=ORIENTED_EDGE('',*,*,#244,.F.);
#327=ORIENTED_EDGE('',*,*,#247,.F.);
#328=ORIENTED_EDGE('',*,*,#232,.F.);
#329=ORIENTED_EDGE('',*,*,#250,.T.);
#330=ORIENTED_EDGE('',*,*,#245,.T.);
#331=ORIENTED_EDGE('',*,*,#249,.T.);
#332=ORIENTED_EDGE('',*,*,#231,.F.);
#333=ORIENTED_EDGE('',*,*,#248,.F.);
#334=ORIENTED_EDGE('',*,*,#246,.F.);
#335=ORIENTED_EDGE('',*,*,#250,.F.);
#336=ORIENTED_EDGE('',*,*,#251,.F.);
#337=ORIENTED_EDGE('',*,*,#252,.T.);
#338=ORIENTED_EDGE('',*,*,#253,.F.);
#339=ORIENTED_EDGE('',*,*,#254,.T.);
#340=ORIENTED_EDGE('',*,*,#226,.F.);
#341=ORIENTED_EDGE('',*,*,#255,.T.);
#342=ORIENTED_EDGE('',*,*,#251,.T.);
#343=ORIENTED_EDGE('',*,*,#256,.T.);
#344=ORIENTED_EDGE('',*,*,#225,.F.);
#345=ORIENTED_EDGE('',*,*,#257,.F.);
#346=ORIENTED_EDGE('',*,*,#252,.F.);
#347=ORIENTED_EDGE('',*,*,#255,.F.);
#348=ORIENTED_EDGE('',*,*,#228,.F.);
#349=ORIENTED_EDGE('',*,*,#258,.T.);
#350=ORIENTED_EDGE('',*,*,#253,.T.);
#351=ORIENTED_EDGE('',*,*,#257,.T.);
#352=ORIENTED_EDGE('',*,*,#227,.F.);
#353=ORIENTED_EDGE('',*,*,#256,.F.);
#354=ORIENTED_EDGE('',*,*,#254,.F.);
#355=ORIENTED_EDGE('',*,*,#258,.F.);
#356=ORIENTED_EDGE('',*,*,#259,.F.);
#357=ORIENTED_EDGE('',*,*,#242,.F.);
#358=ORIENTED_EDGE('',*,*,#237,.T.);
#359=ORIENTED_EDGE('',*,*,#260,.T.);
#360=ORIENTED_EDGE('',*,*,#261,.F.);
#361=ORIENTED_EDGE('',*,*,#260,.F.);
#362=ORIENTED_EDGE('',*,*,#236,.T.);
#363=ORIENTED_EDGE('',*,*,#217,.T.);
#364=ORIENTED_EDGE('',*,*,#220,.T.);
#365=ORIENTED_EDGE('',*,*,#207,.T.);
#366=ORIENTED_EDGE('',*,*,#235,.T.);
#367=ORIENTED_EDGE('',*,*,#262,.F.);
#368=ORIENTED_EDGE('',*,*,#263,.F.);
#369=ORIENTED_EDGE('',*,*,#262,.T.);
#370=ORIENTED_EDGE('',*,*,#234,.T.);
#371=ORIENTED_EDGE('',*,*,#222,.T.);
#372=ORIENTED_EDGE('',*,*,#259,.T.);
#373=ORIENTED_EDGE('',*,*,#261,.T.);
#374=ORIENTED_EDGE('',*,*,#263,.T.);
#375=ORIENTED_EDGE('',*,*,#221,.T.);
#376=ORIENTED_EDGE('',*,*,#239,.T.);
#377=ORIENTED_EDGE('',*,*,#241,.T.);
#378=PLANE('',#432);
#379=PLANE('',#439);
#380=PLANE('',#440);
#381=PLANE('',#441);
#382=PLANE('',#442);
#383=PLANE('',#443);
#384=PLANE('',#444);
#385=PLANE('',#445);
#386=PLANE('',#446);
#387=PLANE('',#447);
#388=PLANE('',#448);
#389=PLANE('',#449);
#390=PLANE('',#450);
#391=PLANE('',#451);
#392=PLANE('',#452);
#393=PLANE('',#453);
#394=PLANE('',#454);
#395=ADVANCED_FACE('',(#29),#378,.T.);
#396=ADVANCED_FACE('',(#30),#27,.T.);
#397=ADVANCED_FACE('',(#31),#28,.F.);
#398=ADVANCED_FACE('',(#32),#379,.T.);
#399=ADVANCED_FACE('',(#33,#19),#380,.F.);
#400=ADVANCED_FACE('',(#34,#20,#21),#381,.F.);
#401=ADVANCED_FACE('',(#35,#22),#382,.F.);
#402=ADVANCED_FACE('',(#36),#15,.T.);
#403=ADVANCED_FACE('',(#37),#16,.T.);
#404=ADVANCED_FACE('',(#38),#383,.F.);
#405=ADVANCED_FACE('',(#39),#384,.F.);
#406=ADVANCED_FACE('',(#40),#385,.F.);
#407=ADVANCED_FACE('',(#41),#386,.F.);
#408=ADVANCED_FACE('',(#42),#387,.F.);
#409=ADVANCED_FACE('',(#43),#388,.F.);
#410=ADVANCED_FACE('',(#44),#389,.F.);
#411=ADVANCED_FACE('',(#45),#390,.F.);
#412=ADVANCED_FACE('',(#46),#391,.F.);
#413=ADVANCED_FACE('',(#47),#392,.F.);
#414=ADVANCED_FACE('',(#48),#393,.T.);
#415=ADVANCED_FACE('',(#49),#17,.T.);
#416=ADVANCED_FACE('',(#50),#18,.T.);
#417=ADVANCED_FACE('',(#51),#394,.T.);
#418=CLOSED_SHELL('',(#395,#396,#397,#398,#399,#400,#401,#402,#403,#404,
#405,#406,#407,#408,#409,#410,#411,#412,#413,#414,#415,#416,#417));
#419=DERIVED_UNIT_ELEMENT(#421,1.);
#420=DERIVED_UNIT_ELEMENT(#851,-3.);
#421=(
MASS_UNIT()
NAMED_UNIT(*)
SI_UNIT(.KILO.,.GRAM.)
);
#422=DERIVED_UNIT((#419,#420));
#423=MEASURE_REPRESENTATION_ITEM('density measure',
POSITIVE_RATIO_MEASURE(7850.),#422);
#424=PROPERTY_DEFINITION_REPRESENTATION(#429,#426);
#425=PROPERTY_DEFINITION_REPRESENTATION(#430,#427);
#426=REPRESENTATION('material name',(#428),#848);
#427=REPRESENTATION('density',(#423),#848);
#428=DESCRIPTIVE_REPRESENTATION_ITEM('Steel','Steel');
#429=PROPERTY_DEFINITION('material property','material name',#858);
#430=PROPERTY_DEFINITION('material property','density of part',#858);
#431=AXIS2_PLACEMENT_3D('',#540,#455,#456);
#432=AXIS2_PLACEMENT_3D('',#541,#457,#458);
#433=AXIS2_PLACEMENT_3D('',#553,#462,#463);
#434=AXIS2_PLACEMENT_3D('',#555,#464,#465);
#435=AXIS2_PLACEMENT_3D('',#557,#466,#467);
#436=AXIS2_PLACEMENT_3D('',#559,#469,#470);
#437=AXIS2_PLACEMENT_3D('',#561,#471,#472);
#438=AXIS2_PLACEMENT_3D('',#564,#474,#475);
#439=AXIS2_PLACEMENT_3D('',#565,#476,#477);
#440=AXIS2_PLACEMENT_3D('',#574,#480,#481);
#441=AXIS2_PLACEMENT_3D('',#579,#482,#483);
#442=AXIS2_PLACEMENT_3D('',#610,#494,#495);
#443=AXIS2_PLACEMENT_3D('',#732,#498,#499);
#444=AXIS2_PLACEMENT_3D('',#741,#504,#505);
#445=AXIS2_PLACEMENT_3D('',#744,#508,#509);
#446=AXIS2_PLACEMENT_3D('',#746,#511,#512);
#447=AXIS2_PLACEMENT_3D('',#748,#514,#515);
#448=AXIS2_PLACEMENT_3D('',#749,#516,#517);
#449=AXIS2_PLACEMENT_3D('',#758,#522,#523);
#450=AXIS2_PLACEMENT_3D('',#761,#526,#527);
#451=AXIS2_PLACEMENT_3D('',#763,#529,#530);
#452=AXIS2_PLACEMENT_3D('',#765,#532,#533);
#453=AXIS2_PLACEMENT_3D('',#766,#534,#535);
#454=AXIS2_PLACEMENT_3D('',#845,#538,#539);
#455=DIRECTION('axis',(0.,0.,1.));
#456=DIRECTION('refdir',(1.,0.,0.));
#457=DIRECTION('center_axis',(0.,-0.911599246580478,-0.411080057450985));
#458=DIRECTION('ref_axis',(0.,0.411080057450985,-0.911599246580478));
#459=DIRECTION('',(0.,0.411080057450985,-0.911599246580478));
#460=DIRECTION('',(1.,0.,0.));
#461=DIRECTION('',(0.,-0.411080057450985,0.911599246580478));
#462=DIRECTION('center_axis',(1.,0.,0.));
#463=DIRECTION('ref_axis',(0.,-0.902256161860647,-0.431200438757306));
#464=DIRECTION('center_axis',(-1.,0.,0.));
#465=DIRECTION('ref_axis',(0.,-0.902256161860647,-0.431200438757306));
#466=DIRECTION('center_axis',(1.,0.,0.));
#467=DIRECTION('ref_axis',(0.,-0.902256161860647,-0.431200438757306));
#468=DIRECTION('',(1.,0.,0.));
#469=DIRECTION('center_axis',(1.,0.,0.));
#470=DIRECTION('ref_axis',(0.,-1.,0.));
#471=DIRECTION('center_axis',(-1.,0.,0.));
#472=DIRECTION('ref_axis',(0.,-1.,0.));
#473=DIRECTION('',(-1.,0.,0.));
#474=DIRECTION('center_axis',(1.,0.,0.));
#475=DIRECTION('ref_axis',(0.,-1.,0.));
#476=DIRECTION('center_axis',(0.,0.748195456077166,0.663478379079139));
#477=DIRECTION('ref_axis',(0.,-0.663478379079139,0.748195456077166));
#478=DIRECTION('',(0.,-0.663478379079139,0.748195456077166));
#479=DIRECTION('',(0.,-0.663478379079139,0.748195456077166));
#480=DIRECTION('center_axis',(-1.,0.,0.));
#481=DIRECTION('ref_axis',(0.,-1.,0.));
#482=DIRECTION('center_axis',(0.312969447484177,0.949763194139176,0.));
#483=DIRECTION('ref_axis',(0.,0.,1.));
#484=DIRECTION('',(0.,0.,-1.));
#485=DIRECTION('',(-7.43030057227736E-17,2.44845986778283E-17,1.));
#486=DIRECTION('',(0.949763182614417,-0.312969443686496,-0.000155784143882522));
#487=DIRECTION('',(0.000202991624448131,-6.6890543810795E-5,0.999999977160028));
#488=DIRECTION('',(-0.949763182614417,0.312969443686496,0.000155784143882522));
#489=DIRECTION('',(-9.38323718964462E-5,3.09199869712547E-5,-0.99999999511972));
#490=DIRECTION('',(0.949763182614417,-0.312969443686496,-0.000155784143887155));
#491=DIRECTION('',(0.000202991624439067,-6.6890543807808E-5,0.999999977160028));
#492=DIRECTION('',(-0.949763182614417,0.312969443686496,0.000155784143887155));
#493=DIRECTION('',(-9.38323719140888E-5,3.09199869770683E-5,-0.99999999511972));
#494=DIRECTION('center_axis',(1.,-4.48100519004421E-18,7.43030057227736E-17));
#495=DIRECTION('ref_axis',(7.43030057227736E-17,0.,-1.));
#496=DIRECTION('',(-7.43030057227736E-17,2.87304847191297E-17,1.));
#497=DIRECTION('',(0.932702940894806,-0.360645001237848,0.000638066088672418));
#498=DIRECTION('center_axis',(0.309016989662985,0.951056516129059,-5.68162249648529E-5));
#499=DIRECTION('ref_axis',(0.951056503349115,-0.309016994831288,-0.000156021772432085));
#500=DIRECTION('',(-0.000165942702423649,-5.82206181043431E-6,-0.999999986214561));
#501=DIRECTION('',(0.951056503349115,-0.309016994831288,-0.000156021772429785));
#502=DIRECTION('',(-0.000165942702423649,-5.82206181043432E-6,-0.999999986214561));
#503=DIRECTION('',(-0.951056503349115,0.309016994831288,0.000156021772429785));
#504=DIRECTION('center_axis',(0.891006511702279,0.453990499299412,-0.000150499191251914));
#505=DIRECTION('ref_axis',(0.45399049391717,-0.891006524393606,-7.01489153443069E-5));
#506=DIRECTION('',(0.453990493917169,-0.891006524393606,-7.01489153437761E-5));
#507=DIRECTION('',(-0.453990493917169,0.891006524393606,7.01489153437761E-5));
#508=DIRECTION('center_axis',(0.000165942702423649,5.82206181043432E-6,
0.999999986214561));
#509=DIRECTION('ref_axis',(0.99999998623151,0.,-0.000165942702426462));
#510=DIRECTION('',(0.891006511702279,0.453990499299413,-0.000150499191251913));
#511=DIRECTION('center_axis',(-0.453990493917171,0.891006524393606,7.01489153437763E-5));
#512=DIRECTION('ref_axis',(0.891006511702279,0.453990499299413,-0.000150499191253907));
#513=DIRECTION('',(-0.891006511702279,-0.453990499299413,0.000150499191251913));
#514=DIRECTION('center_axis',(-0.000165942702423649,-5.82206181043432E-6,
-0.999999986214561));
#515=DIRECTION('ref_axis',(-0.99999998623151,0.,0.000165942702426462));
#516=DIRECTION('center_axis',(0.309016989662984,0.95105651612906,-5.68162249789312E-5));
#517=DIRECTION('ref_axis',(0.951056503349116,-0.309016994831287,-0.000156021772432085));
#518=DIRECTION('',(-0.000165942702423649,-5.8220618252373E-6,-0.999999986214561));
#519=DIRECTION('',(0.951056503349116,-0.309016994831287,-0.00015602177242521));
#520=DIRECTION('',(-0.000165942702423649,-5.82206182523729E-6,-0.999999986214561));
#521=DIRECTION('',(-0.951056503349116,0.309016994831287,0.00015602177242521));
#522=DIRECTION('center_axis',(0.891006511702279,0.453990499299412,-0.000150499191258634));
#523=DIRECTION('ref_axis',(0.45399049391717,-0.891006524393606,-7.01489153443069E-5));
#524=DIRECTION('',(0.453990493917169,-0.891006524393606,-7.01489153305866E-5));
#525=DIRECTION('',(-0.453990493917169,0.891006524393606,7.01489153305866E-5));
#526=DIRECTION('center_axis',(0.000165942702423649,5.82206182523729E-6,
0.999999986214561));
#527=DIRECTION('ref_axis',(0.99999998623151,0.,-0.000165942702426462));
#528=DIRECTION('',(0.891006511702279,0.453990499299413,-0.000150499191258634));
#529=DIRECTION('center_axis',(-0.453990493917171,0.891006524393606,7.01489153305868E-5));
#530=DIRECTION('ref_axis',(0.891006511702279,0.453990499299413,-0.000150499191253907));
#531=DIRECTION('',(-0.891006511702279,-0.453990499299413,0.000150499191258634));
#532=DIRECTION('center_axis',(-0.000165942702423649,-5.82206182523729E-6,
-0.999999986214561));
#533=DIRECTION('ref_axis',(-0.99999998623151,0.,0.000165942702426462));
#534=DIRECTION('center_axis',(0.36064507465227,0.932703130759761,0.));
#535=DIRECTION('ref_axis',(0.,0.,1.));
#536=DIRECTION('',(0.,0.,1.));
#537=DIRECTION('',(0.932702940894811,-0.36064500123785,-0.000638066079164418));
#538=DIRECTION('center_axis',(1.,0.,0.));
#539=DIRECTION('ref_axis',(0.,0.,-1.));
#540=CARTESIAN_POINT('',(0.,0.,0.));
#541=CARTESIAN_POINT('Origin',(111.,101.293357824858,11.2641957515449));
#542=CARTESIAN_POINT('',(113.4,106.055422140375,0.703979648843823));
#543=CARTESIAN_POINT('',(111.,106.01046597197,0.803673148098614));
#544=CARTESIAN_POINT('Ctrl Pts',(113.4,106.055422140375,0.703979648843823));
#545=CARTESIAN_POINT('Ctrl Pts',(112.600095964534,106.040463651283,0.737151161641618));
#546=CARTESIAN_POINT('Ctrl Pts',(111.799565923589,106.025467692452,0.770405766248594));
#547=CARTESIAN_POINT('Ctrl Pts',(110.999999999994,106.010465971756,0.803673148198699));
#548=CARTESIAN_POINT('',(113.4,101.293357824858,11.2641957515449));
#549=CARTESIAN_POINT('',(113.4,106.222841878358,0.332714479829334));
#550=CARTESIAN_POINT('',(111.,101.293357824858,11.2641957515449));
#551=CARTESIAN_POINT('',(111.,101.293357824858,11.2641957515449));
#552=CARTESIAN_POINT('',(111.,106.222841878358,0.332714479829334));
#553=CARTESIAN_POINT('Origin',(111.,104.00012631044,12.5577970678168));
#554=CARTESIAN_POINT('',(111.,105.973875287908,14.8170701752446));
#555=CARTESIAN_POINT('Origin',(111.,104.00012631044,12.5577970678168));
#556=CARTESIAN_POINT('',(113.4,105.973875287908,14.8170701752446));
#557=CARTESIAN_POINT('Origin',(113.4,104.00012631044,12.5577970678168));
#558=CARTESIAN_POINT('',(111.,105.973875287908,14.8170701752446));
#559=CARTESIAN_POINT('Origin',(111.,104.00012631044,12.5577970678168));
#560=CARTESIAN_POINT('',(113.4,105.00012631044,12.5577970678168));
#561=CARTESIAN_POINT('Origin',(113.4,104.00012631044,12.5577970678168));
#562=CARTESIAN_POINT('',(111.,105.00012631044,12.5577970678168));
#563=CARTESIAN_POINT('',(111.,105.00012631044,12.5577970678168));
#564=CARTESIAN_POINT('Origin',(111.,104.00012631044,12.5577970678168));
#565=CARTESIAN_POINT('Origin',(111.,120.000001758337,-1.00000001490117));
#566=CARTESIAN_POINT('',(111.,119.591474276423,-0.539309184138489));
#567=CARTESIAN_POINT('',(113.4,119.672886441351,-0.631116564438754));
#568=CARTESIAN_POINT('Ctrl Pts',(110.999999999994,119.594120320892,-0.539562528847112));
#569=CARTESIAN_POINT('Ctrl Pts',(111.800009793465,119.621876918362,-0.570416564934367));
#570=CARTESIAN_POINT('Ctrl Pts',(112.599972701957,119.649385956002,-0.601034508803823));
#571=CARTESIAN_POINT('Ctrl Pts',(113.4,119.676600003504,-0.631404517860258));
#572=CARTESIAN_POINT('',(111.,120.000001758337,-1.00000001490117));
#573=CARTESIAN_POINT('',(113.4,120.000001758337,-1.00000001490117));
#574=CARTESIAN_POINT('Origin',(113.4,110.500064034389,7.27889852645783));
#575=CARTESIAN_POINT('Ctrl Pts',(113.4,119.672886441351,-0.631116564438752));
#576=CARTESIAN_POINT('Ctrl Pts',(113.4,115.221600756708,-0.230434754050468));
#577=CARTESIAN_POINT('Ctrl Pts',(113.4,110.237285997935,0.271035225487455));
#578=CARTESIAN_POINT('Ctrl Pts',(113.4,106.055422140375,0.703979648843821));
#579=CARTESIAN_POINT('Origin',(223.739048917818,66.700257383147,0.427944611579818));
#580=CARTESIAN_POINT('',(221.000000000003,67.6028388178977,-1.16549012999196));
#581=CARTESIAN_POINT('',(220.999999999997,67.6028388179016,-3.38749930635903));
#582=CARTESIAN_POINT('',(221.,67.6028388178999,2.71178389032118));
#583=CARTESIAN_POINT('',(111.,103.850441836947,-0.570879853049977));
#584=CARTESIAN_POINT('Ctrl Pts',(110.999999999999,103.850441836948,-0.570879853085085));
#585=CARTESIAN_POINT('Ctrl Pts',(147.666666448344,91.7679075692075,-0.769102153784263));
#586=CARTESIAN_POINT('Ctrl Pts',(184.333333065851,79.6853732457243,-0.967309152284866));
#587=CARTESIAN_POINT('Ctrl Pts',(221.000000000004,67.6028388178987,-1.16549012999194));
#588=CARTESIAN_POINT('',(111.,103.850441836947,-3.9454523573475));
#589=CARTESIAN_POINT('',(111.,103.850441836947,-0.367481306026602));
#590=CARTESIAN_POINT('Ctrl Pts',(221.,67.6028388178999,-3.387499306359));
#591=CARTESIAN_POINT('Ctrl Pts',(184.333333533546,79.6853730916077,-3.57350075667469));
#592=CARTESIAN_POINT('Ctrl Pts',(147.666666829374,91.767907443649,-3.75948235593309));
#593=CARTESIAN_POINT('Ctrl Pts',(111.,103.850441836947,-3.94545235737522));
#594=CARTESIAN_POINT('',(112.9213177861,103.217322160729,-1.65672696003993));
#595=CARTESIAN_POINT('',(133.006220438165,96.5988714515632,-1.66002137008013));
#596=CARTESIAN_POINT('',(173.334156707477,83.3098621382226,-1.66663612746519));
#597=CARTESIAN_POINT('',(133.005976848215,96.598951720216,-2.86002134666801));
#598=CARTESIAN_POINT('',(133.006373455238,96.5988210288169,-0.906211604103291));
#599=CARTESIAN_POINT('',(112.921205187253,103.217359264714,-2.85672695811352));
#600=CARTESIAN_POINT('',(173.333979157822,83.3099206450356,-2.86663611488528));
#601=CARTESIAN_POINT('',(112.921387981863,103.217299029564,-0.908629463113638));
#602=CARTESIAN_POINT('',(200.38340096827,74.3964960661276,-1.67124962012415));
#603=CARTESIAN_POINT('',(220.427536141929,67.7914792058101,-1.67453734331152));
#604=CARTESIAN_POINT('',(217.055091184199,68.9027796242773,-1.67398418073356));
#605=CARTESIAN_POINT('',(220.427292551979,67.7915594744629,-2.8745373198994));
#606=CARTESIAN_POINT('',(220.427688635864,67.7914289554499,-0.923304715734728));
#607=CARTESIAN_POINT('',(200.383288369423,74.3965331701121,-2.87124961819774));
#608=CARTESIAN_POINT('',(217.054913634543,68.9028381310903,-2.87398416815364));
#609=CARTESIAN_POINT('',(200.383471418656,74.3964728510583,-0.920438527261202));
#610=CARTESIAN_POINT('Origin',(111.,44.2918586961973,-1.16290722363301));
#611=CARTESIAN_POINT('',(111.,105.532285885833,-5.45601871334401));
#612=CARTESIAN_POINT('Ctrl Pts',(111.,103.850441836947,-3.9454523573475));
#613=CARTESIAN_POINT('Ctrl Pts',(111.,104.130747950858,-4.19721272221689));
#614=CARTESIAN_POINT('Ctrl Pts',(111.000000000007,104.411054166295,-4.44897297404795));
#615=CARTESIAN_POINT('Ctrl Pts',(111.000000000007,104.971668849346,-4.95249509261432));
#616=CARTESIAN_POINT('Ctrl Pts',(111.,105.251977316961,-5.20425695934802));
#617=CARTESIAN_POINT('Ctrl Pts',(111.,105.532285885833,-5.45601871334401));
#618=CARTESIAN_POINT('',(111.,105.524659599747,0.854209201744471));
#619=CARTESIAN_POINT('Ctrl Pts',(111.,105.524659599747,0.854209201744468));
#620=CARTESIAN_POINT('Ctrl Pts',(111.,105.245624517235,0.616694909326161));
#621=CARTESIAN_POINT('Ctrl Pts',(111.000000000015,104.966589316118,0.379180756246062));
#622=CARTESIAN_POINT('Ctrl Pts',(111.000000000015,104.408516728622,-0.0958489288078805));
#623=CARTESIAN_POINT('Ctrl Pts',(111.,104.129479342242,-0.333364460779835));
#624=CARTESIAN_POINT('Ctrl Pts',(111.,103.850441836947,-0.570879853049977));
#625=CARTESIAN_POINT('Ctrl Pts',(111.,106.010515469951,0.803664985597131));
#626=CARTESIAN_POINT('Ctrl Pts',(111.,105.848530638775,0.820499573831836));
#627=CARTESIAN_POINT('Ctrl Pts',(111.,105.686577823062,0.837348129046275));
#628=CARTESIAN_POINT('Ctrl Pts',(111.,105.524659600757,0.854209201639273));
#629=CARTESIAN_POINT('',(111.,139.793298979805,-1.97421349118707));
#630=CARTESIAN_POINT('Ctrl Pts',(111.,139.793298979805,-1.97421349118707));
#631=CARTESIAN_POINT('Ctrl Pts',(111.,138.767241368549,-1.93495851500553));
#632=CARTESIAN_POINT('Ctrl Pts',(111.,137.567736071954,-1.877164929061));
#633=CARTESIAN_POINT('Ctrl Pts',(111.,136.218243458707,-1.8013347791889));
#634=CARTESIAN_POINT('Ctrl Pts',(111.,133.519258232213,-1.64967447944471));
#635=CARTESIAN_POINT('Ctrl Pts',(111.,130.22032373911,-1.42586792399025));
#636=CARTESIAN_POINT('Ctrl Pts',(111.,126.77695304675,-1.15391601791427));
#637=CARTESIAN_POINT('Ctrl Pts',(111.,124.43160947992,-0.968684536790967));
#638=CARTESIAN_POINT('Ctrl Pts',(111.,122.01925871838,-0.76111734689062));
#639=CARTESIAN_POINT('Ctrl Pts',(111.,119.594120319567,-0.539562528726308));
#640=CARTESIAN_POINT('',(111.,139.793298979805,-2.81791528890171));
#641=CARTESIAN_POINT('',(111.,139.793298979805,-1.99075330841531));
#642=CARTESIAN_POINT('Ctrl Pts',(111.000000000002,105.532285885862,-5.4560187133424));
#643=CARTESIAN_POINT('Ctrl Pts',(111.000000000002,109.084591567544,-5.26482941502362));
#644=CARTESIAN_POINT('Ctrl Pts',(111.000000000002,112.643125406576,-5.05972853201517));
#645=CARTESIAN_POINT('Ctrl Pts',(111.000000000002,116.204491428498,-4.82973501065715));
#646=CARTESIAN_POINT('Ctrl Pts',(111.000000000002,117.985174439464,-4.71473824997782));
#647=CARTESIAN_POINT('Ctrl Pts',(111.000000000002,119.766565496153,-4.59351832971106));
#648=CARTESIAN_POINT('Ctrl Pts',(111.000000000002,121.537715543863,-4.46538689460688));
#649=CARTESIAN_POINT('Ctrl Pts',(111.000000000002,123.308865591573,-4.3372554595027));
#650=CARTESIAN_POINT('Ctrl Pts',(111.000000000002,125.069774630304,-4.2022125095611));
#651=CARTESIAN_POINT('Ctrl Pts',(111.000000000002,126.791317364271,-4.06219506594173));
#652=CARTESIAN_POINT('Ctrl Pts',(111.000000000002,128.512860098238,-3.92217762232236));
#653=CARTESIAN_POINT('Ctrl Pts',(111.000000000002,130.195036527442,-3.77718568502522));
#654=CARTESIAN_POINT('Ctrl Pts',(111.000000000002,131.784717493069,-3.63260982883562));
#655=CARTESIAN_POINT('Ctrl Pts',(111.000000000002,133.374398458697,-3.48803397264601));
#656=CARTESIAN_POINT('Ctrl Pts',(111.000000000002,134.87158396075,-3.34387419756394));
#657=CARTESIAN_POINT('Ctrl Pts',(111.000000000002,136.220077598351,-3.20651348225066));
#658=CARTESIAN_POINT('Ctrl Pts',(111.000000000002,137.568571235953,-3.06915276693737));
#659=CARTESIAN_POINT('Ctrl Pts',(111.000000000002,138.768373009103,-2.93859111139288));
#660=CARTESIAN_POINT('Ctrl Pts',(111.000000000002,139.793298979804,-2.8179152889017));
#661=CARTESIAN_POINT('Ctrl Pts',(221.506839066023,69.1177096981666,-4.89619536485832));
#662=CARTESIAN_POINT('Ctrl Pts',(184.671224878211,81.2558988031901,-5.08276395814082));
#663=CARTESIAN_POINT('Ctrl Pts',(147.835612082321,93.3940914305323,-5.26937992619414));
#664=CARTESIAN_POINT('Ctrl Pts',(111.,105.532285885833,-5.45601871334401));
#665=CARTESIAN_POINT('Ctrl Pts',(221.337892710682,68.6127527380777,-4.39329667869188));
#666=CARTESIAN_POINT('Ctrl Pts',(184.502280861857,80.7509468859559,-4.57996188992066));
#667=CARTESIAN_POINT('Ctrl Pts',(147.666669861008,92.8891434083989,-4.76665200619493));
#668=CARTESIAN_POINT('Ctrl Pts',(110.831059293927,105.027341163303,-4.95335344634759));
#669=CARTESIAN_POINT('Ctrl Pts',(221.168946355341,68.1077957779888,-3.89039799252544));
#670=CARTESIAN_POINT('Ctrl Pts',(184.333336845502,80.2459949687217,-4.0771598217005));
#671=CARTESIAN_POINT('Ctrl Pts',(147.497727639696,92.3841953862654,-4.26392408619572));
#672=CARTESIAN_POINT('Ctrl Pts',(110.662118587855,104.522396440772,-4.45068817935117));
#673=CARTESIAN_POINT('Ctrl Pts',(221.,67.6028388178999,-3.387499306359));
#674=CARTESIAN_POINT('Ctrl Pts',(184.164392829148,79.7410430514874,-3.57435775348034));
#675=CARTESIAN_POINT('Ctrl Pts',(147.328785418383,91.8792473641319,-3.76119616619651));
#676=CARTESIAN_POINT('Ctrl Pts',(110.493177881783,104.017451718242,-3.94802291235475));
#677=CARTESIAN_POINT('',(221.000000000057,69.2847249244106,-4.89876245566369));
#678=CARTESIAN_POINT('Ctrl Pts',(221.,67.6028388178999,-3.387499306359));
#679=CARTESIAN_POINT('Ctrl Pts',(221.,67.883156379201,-3.63938001082783));
#680=CARTESIAN_POINT('Ctrl Pts',(220.999999999987,68.1634741667087,-3.89126060400787));
#681=CARTESIAN_POINT('Ctrl Pts',(220.999999999987,68.724097635256,-4.3950102840572));
#682=CARTESIAN_POINT('Ctrl Pts',(221.,69.0044086333236,-4.6468841485678));
#683=CARTESIAN_POINT('Ctrl Pts',(221.,69.2847249244481,-4.89876245566427));
#684=CARTESIAN_POINT('Ctrl Pts',(111.,105.532285885833,-5.45601871334401));
#685=CARTESIAN_POINT('Ctrl Pts',(147.666665736627,93.4497631970815,-5.27023594403316));
#686=CARTESIAN_POINT('Ctrl Pts',(184.333332180293,81.367242319559,-5.08447578497954));
#687=CARTESIAN_POINT('Ctrl Pts',(221.000000000059,69.2847249244192,-4.89876245553129));
#688=CARTESIAN_POINT('Ctrl Pts',(110.999999999992,105.532285885836,-5.45601871334406));
#689=CARTESIAN_POINT('Ctrl Pts',(147.666666666685,93.3852323133783,-5.27370905140224));
#690=CARTESIAN_POINT('Ctrl Pts',(184.333333333377,81.2381787409208,-5.09139938946043));
#691=CARTESIAN_POINT('Ctrl Pts',(221.00000000007,69.0911251684634,-4.90908972751862));
#692=CARTESIAN_POINT('Ctrl Pts',(110.999999999992,109.084591567527,-5.26482941502481));
#693=CARTESIAN_POINT('Ctrl Pts',(147.666666666685,96.7218198672513,-5.09457577471739));
#694=CARTESIAN_POINT('Ctrl Pts',(184.333333333378,84.3538414367104,-4.92487251486402));
#695=CARTESIAN_POINT('Ctrl Pts',(221.00000000007,71.9910697364344,-4.7546188745566));
#696=CARTESIAN_POINT('Ctrl Pts',(110.999999999992,114.42239232609,-4.95717809051138));
#697=CARTESIAN_POINT('Ctrl Pts',(147.666666666685,101.709545429126,-4.80926567728721));
#698=CARTESIAN_POINT('Ctrl Pts',(184.333333333377,88.9965520284273,-4.66136709718501));
#699=CARTESIAN_POINT('Ctrl Pts',(221.00000000007,76.2837051314628,-4.51345468396084));
#700=CARTESIAN_POINT('Ctrl Pts',(110.999999999992,121.547956552845,-4.47229840944433));
#701=CARTESIAN_POINT('Ctrl Pts',(147.666666666685,108.404528287551,-4.3543672748832));
#702=CARTESIAN_POINT('Ctrl Pts',(184.333333333378,95.2593941596797,-4.23661789240835));
#703=CARTESIAN_POINT('Ctrl Pts',(221.00000000007,82.1159658943853,-4.11868675784722));
#704=CARTESIAN_POINT('Ctrl Pts',(110.999999999992,126.830683669039,-4.06716955961952));
#705=CARTESIAN_POINT('Ctrl Pts',(147.666666666685,113.405381489892,-3.96974147352919));
#706=CARTESIAN_POINT('Ctrl Pts',(184.333333333377,99.9795644734272,-3.87236558633828));
#707=CARTESIAN_POINT('Ctrl Pts',(221.00000000007,86.5542622942798,-3.77493750024796));
#708=CARTESIAN_POINT('Ctrl Pts',(110.999999999992,131.877212956648,-3.63219374772811));
#709=CARTESIAN_POINT('Ctrl Pts',(147.666666666685,118.212390240481,-3.55364283023011));
#710=CARTESIAN_POINT('Ctrl Pts',(184.333333333377,104.546624143149,-3.47519333695873));
#711=CARTESIAN_POINT('Ctrl Pts',(221.00000000007,90.8818014269821,-3.39664241946073));
#712=CARTESIAN_POINT('Ctrl Pts',(110.999999999992,136.368769462807,-3.19971442248189));
#713=CARTESIAN_POINT('Ctrl Pts',(147.666666666685,122.472630050684,-3.14273415743734));
#714=CARTESIAN_POINT('Ctrl Pts',(184.333333333377,108.576199191989,-3.08578395249953));
#715=CARTESIAN_POINT('Ctrl Pts',(221.00000000007,94.6800597798667,-3.02880368745499));
#716=CARTESIAN_POINT('Ctrl Pts',(110.999999999992,138.768373009107,-2.93859111139289));
#717=CARTESIAN_POINT('Ctrl Pts',(147.666666666685,124.691810309099,-2.90159057028835));
#718=CARTESIAN_POINT('Ctrl Pts',(184.333333333377,110.614621118498,-2.8646643333054));
#719=CARTESIAN_POINT('Ctrl Pts',(221.00000000007,96.5380584184901,-2.82766379220086));
#720=CARTESIAN_POINT('Ctrl Pts',(110.999999999992,139.793298979808,-2.81791528890171));
#721=CARTESIAN_POINT('Ctrl Pts',(147.666666666685,125.615526544877,-2.79283146471839));
#722=CARTESIAN_POINT('Ctrl Pts',(184.333333333377,111.437754109946,-2.76774764053507));
#723=CARTESIAN_POINT('Ctrl Pts',(221.00000000007,97.2599816750155,-2.74266381635175));
#724=CARTESIAN_POINT('',(221.,97.2599816750428,-2.7426638163518));
#725=CARTESIAN_POINT('Ctrl Pts',(221.,69.2847249244107,-4.89876245566627));
#726=CARTESIAN_POINT('Ctrl Pts',(221.,73.5517220366903,-4.67081808938749));
#727=CARTESIAN_POINT('Ctrl Pts',(221.,78.7357231898473,-4.36900764552287));
#728=CARTESIAN_POINT('Ctrl Pts',(221.,89.6381119143076,-3.544765736));
#729=CARTESIAN_POINT('Ctrl Pts',(221.,94.8369047824409,-3.02795934532946));
#730=CARTESIAN_POINT('Ctrl Pts',(221.,97.2599816750428,-2.7426638163518));
#731=CARTESIAN_POINT('',(110.,140.179965500757,-2.81859939319761));
#732=CARTESIAN_POINT('Origin',(209.124550560113,78.6202763160251,-2.272724749511));
#733=CARTESIAN_POINT('',(216.057804000768,76.3675615242591,-1.67386214862319));
#734=CARTESIAN_POINT('',(216.057604869525,76.367554537785,-2.87386213208066));
#735=CARTESIAN_POINT('',(216.057704435146,76.367558031022,-2.27386214035193));
#736=CARTESIAN_POINT('',(208.848891774146,78.7098791304462,-1.67267951934835));
#737=CARTESIAN_POINT('',(210.788999006596,78.0795000683074,-1.67299779588402));
#738=CARTESIAN_POINT('',(208.848692642903,78.709872143972,-2.87267950280582));
#739=CARTESIAN_POINT('',(208.848792208524,78.7098756372091,-2.27267951107707));
#740=CARTESIAN_POINT('',(210.788799875353,78.0794930818333,-2.87299777934149));
#741=CARTESIAN_POINT('Origin',(216.189338748985,76.1092111404253,-2.27388247999443));
#742=CARTESIAN_POINT('',(216.911732767503,74.691631933832,-1.67399409450657));
#743=CARTESIAN_POINT('',(216.91153363626,74.6916249473579,-2.87399407796404));
#744=CARTESIAN_POINT('Origin',(209.764900077389,69.2645286370299,-1.67277653282857));
#745=CARTESIAN_POINT('',(203.077723355301,75.7693219093696,-1.67170471594545));
#746=CARTESIAN_POINT('Origin',(200.399967617029,74.4049844333748,-2.2712524269297));
#747=CARTESIAN_POINT('',(203.077524224058,75.7693149228954,-2.87170469940292));
#748=CARTESIAN_POINT('Origin',(209.764700946146,69.2645216505557,-2.87277651628605));
#749=CARTESIAN_POINT('Origin',(121.689398272499,107.454824386959,-2.25820663830252));
#750=CARTESIAN_POINT('',(128.622651713153,105.202109595193,-1.65934403741467));
#751=CARTESIAN_POINT('',(128.62245258191,105.202102608719,-2.85934402087214));
#752=CARTESIAN_POINT('',(128.622552147532,105.202106101956,-2.25934402914343));
#753=CARTESIAN_POINT('',(121.413739486531,107.54442720138,-1.65816140813986));
#754=CARTESIAN_POINT('',(123.353846718981,106.914048139242,-1.65847968467552));
#755=CARTESIAN_POINT('',(121.413540355288,107.544420214906,-2.85816139159734));
#756=CARTESIAN_POINT('',(121.413639920909,107.544423708143,-2.25816139986862));
#757=CARTESIAN_POINT('',(123.353647587738,106.914041152768,-2.858479668133));
#758=CARTESIAN_POINT('Origin',(128.75418646137,104.94375921136,-2.25936436878594));
#759=CARTESIAN_POINT('',(129.476580479888,103.526180004766,-1.65947598329803));
#760=CARTESIAN_POINT('',(129.476381348645,103.526173018292,-2.8594759667555));
#761=CARTESIAN_POINT('Origin',(122.329747789774,98.0990767079642,-1.65825842161995));
#762=CARTESIAN_POINT('',(115.642571067686,104.603869980304,-1.65718660473692));
#763=CARTESIAN_POINT('Origin',(112.964815329414,103.239532504309,-2.25673431572122));
#764=CARTESIAN_POINT('',(115.642371936443,104.60386299383,-2.85718658819439));
#765=CARTESIAN_POINT('Origin',(122.329548658531,98.09906972149,-2.85825840507742));
#766=CARTESIAN_POINT('Origin',(110.,140.179965500757,-2.81859939319761));
#767=CARTESIAN_POINT('',(221.,97.2599816750428,-2.04946496261564));
#768=CARTESIAN_POINT('',(221.,97.2599816750427,1.08851188793246));
#769=CARTESIAN_POINT('',(110.,140.179965500757,-1.97352938690135));
#770=CARTESIAN_POINT('Ctrl Pts',(110.999999999994,139.793298979807,-1.97421349118707));
#771=CARTESIAN_POINT('Ctrl Pts',(147.6666666667,125.615526544871,-1.99929731499661));
#772=CARTESIAN_POINT('Ctrl Pts',(184.333333333405,111.437754109936,-2.02438113880616));
#773=CARTESIAN_POINT('Ctrl Pts',(221.00000000011,97.2599816750002,-2.04946496261571));
#774=CARTESIAN_POINT('Ctrl Pts',(110.999999999994,138.767241368551,-1.93495851500553));
#775=CARTESIAN_POINT('Ctrl Pts',(147.6666666667,124.691213059237,-1.96395251329306));
#776=CARTESIAN_POINT('Ctrl Pts',(184.333333333405,110.613601115169,-1.99283300068896));
#777=CARTESIAN_POINT('Ctrl Pts',(221.00000000011,96.5375728058549,-2.0218269989765));
#778=CARTESIAN_POINT('Ctrl Pts',(110.999999999994,135.168725478767,-1.76157775717193));
#779=CARTESIAN_POINT('Ctrl Pts',(147.666666666699,121.362894781832,-1.80298425101854));
#780=CARTESIAN_POINT('Ctrl Pts',(184.333333333405,107.558523893984,-1.84447286639125));
#781=CARTESIAN_POINT('Ctrl Pts',(221.00000000011,93.7526931970485,-1.88587936023786));
#782=CARTESIAN_POINT('Ctrl Pts',(110.999999999994,126.921389246009,-1.20206136853578));
#783=CARTESIAN_POINT('Ctrl Pts',(147.6666666667,113.475214592276,-1.27164022834509));
#784=CARTESIAN_POINT('Ctrl Pts',(184.333333333405,100.027047776687,-1.34109757588057));
#785=CARTESIAN_POINT('Ctrl Pts',(221.00000000011,86.580873122954,-1.41067643568987));
#786=CARTESIAN_POINT('Ctrl Pts',(110.999999999994,118.84882373987,-0.481842540966373));
#787=CARTESIAN_POINT('Ctrl Pts',(147.6666666667,105.864764427,-0.593368200905395));
#788=CARTESIAN_POINT('Ctrl Pts',(184.333333333405,92.8812171422158,-0.704881573099796));
#789=CARTESIAN_POINT('Ctrl Pts',(221.00000000011,79.8971578293458,-0.816407233038818));
#790=CARTESIAN_POINT('Ctrl Pts',(110.999999999994,111.741090425709,0.212667517879309));
#791=CARTESIAN_POINT('Ctrl Pts',(147.6666666667,99.2101960643183,0.0589310024764496));
#792=CARTESIAN_POINT('Ctrl Pts',(184.333333333405,86.6767741520843,-0.0946747720224778));
#793=CARTESIAN_POINT('Ctrl Pts',(221.00000000011,74.145879790694,-0.248411287425337));
#794=CARTESIAN_POINT('Ctrl Pts',(110.999999999994,108.183513923883,0.577334028985715));
#795=CARTESIAN_POINT('Ctrl Pts',(147.666666666699,95.877902507569,0.401542316486475));
#796=CARTESIAN_POINT('Ctrl Pts',(184.333333333405,83.575917859812,0.225664322336968));
#797=CARTESIAN_POINT('Ctrl Pts',(221.00000000011,71.2703064434977,0.0498726098377278));
#798=CARTESIAN_POINT('Ctrl Pts',(110.999999999994,105.524659599749,0.854209201744499));
#799=CARTESIAN_POINT('Ctrl Pts',(147.6666666667,93.3835910492487,0.661846307735137));
#800=CARTESIAN_POINT('Ctrl Pts',(184.333333333405,81.2425224987489,0.469483413725775));
#801=CARTESIAN_POINT('Ctrl Pts',(221.00000000011,69.1014539482491,0.277120519716414));
#802=CARTESIAN_POINT('',(220.999999999876,69.2769551306947,0.25873770568398));
#803=CARTESIAN_POINT('Ctrl Pts',(221.,97.2599816750428,-2.04946496261564));
#804=CARTESIAN_POINT('Ctrl Pts',(221.,96.5375728058971,-2.02182699897641));
#805=CARTESIAN_POINT('Ctrl Pts',(221.,95.6092796029614,-1.97651111939685));
#806=CARTESIAN_POINT('Ctrl Pts',(221.,94.5122961293979,-1.91462033804061));
#807=CARTESIAN_POINT('Ctrl Pts',(221.,92.3183291822708,-1.79083877532812));
#808=CARTESIAN_POINT('Ctrl Pts',(221.,89.4496011526326,-1.60075760550889));
#809=CARTESIAN_POINT('Ctrl Pts',(221.,86.5299670725669,-1.37365719778791));
#810=CARTESIAN_POINT('Ctrl Pts',(221.,83.6103329925012,-1.14655679006692));
#811=CARTESIAN_POINT('Ctrl Pts',(221.,80.6397928620081,-0.88243714444417));
#812=CARTESIAN_POINT('Ctrl Pts',(221.,77.7451736204482,-0.602414837074178));
#813=CARTESIAN_POINT('Ctrl Pts',(221.,77.0215188100582,-0.53240926023168));
#814=CARTESIAN_POINT('Ctrl Pts',(221.,76.3026090552265,-0.461409767029979));
#815=CARTESIAN_POINT('Ctrl Pts',(221.,75.583703404903,-0.389517403549758));
#816=CARTESIAN_POINT('Ctrl Pts',(221.,73.4851694789603,-0.179658761165262));
#817=CARTESIAN_POINT('Ctrl Pts',(221.,71.3866705273404,0.0378079873425266));
#818=CARTESIAN_POINT('Ctrl Pts',(221.,69.2769588492423,0.25873652364802));
#819=CARTESIAN_POINT('Ctrl Pts',(220.999999999871,69.2769551306779,0.258737705825655));
#820=CARTESIAN_POINT('Ctrl Pts',(184.333335888629,81.3595303796863,0.457272239241239));
#821=CARTESIAN_POINT('Ctrl Pts',(147.666668732911,93.4420971862426,0.655753790785152));
#822=CARTESIAN_POINT('Ctrl Pts',(111.,105.524659599747,0.854209201744465));
#823=CARTESIAN_POINT('Ctrl Pts',(111.,105.524659599747,0.854209201744465));
#824=CARTESIAN_POINT('Ctrl Pts',(147.834854149403,93.386675985953,0.654843500674253));
#825=CARTESIAN_POINT('Ctrl Pts',(184.66970670711,81.248687938714,0.455451418662284));
#826=CARTESIAN_POINT('Ctrl Pts',(221.504556185556,69.1106913526513,0.256005743371857));
#827=CARTESIAN_POINT('Ctrl Pts',(110.831802605968,105.022012033672,0.380088802794271));
#828=CARTESIAN_POINT('Ctrl Pts',(147.666659985844,92.8840365282247,0.180801093021973));
#829=CARTESIAN_POINT('Ctrl Pts',(184.501516361269,80.7460580484707,-0.0184990729486194));
#830=CARTESIAN_POINT('Ctrl Pts',(221.336370790372,68.6080738410671,-0.217826214416075));
#831=CARTESIAN_POINT('Ctrl Pts',(110.663605211936,104.519364467596,-0.0940315961559222));
#832=CARTESIAN_POINT('Ctrl Pts',(147.498465822286,92.3813970704964,-0.293241314630307));
#833=CARTESIAN_POINT('Ctrl Pts',(184.333326015428,80.2434281582276,-0.492449564559522));
#834=CARTESIAN_POINT('Ctrl Pts',(221.168185395188,68.1054563294829,-0.691658172204007));
#835=CARTESIAN_POINT('Ctrl Pts',(110.495407817905,104.016716901521,-0.568151995106116));
#836=CARTESIAN_POINT('Ctrl Pts',(147.330271658728,91.8787576127681,-0.767283722282586));
#837=CARTESIAN_POINT('Ctrl Pts',(184.165135669587,79.7407982679844,-0.966400056170426));
#838=CARTESIAN_POINT('Ctrl Pts',(221.000000000004,67.6028388178987,-1.16549012999194));
#839=CARTESIAN_POINT('Ctrl Pts',(221.,69.2769551306131,0.25873770568264));
#840=CARTESIAN_POINT('Ctrl Pts',(221.,68.9979400792302,0.0213693577785597));
#841=CARTESIAN_POINT('Ctrl Pts',(220.999999999972,68.7189160836807,-0.21600623509948));
#842=CARTESIAN_POINT('Ctrl Pts',(220.999999999972,68.1608686681777,-0.69075620162427));
#843=CARTESIAN_POINT('Ctrl Pts',(221.,67.8818538075842,-0.92812329354887));
#844=CARTESIAN_POINT('Ctrl Pts',(221.,67.6028388179,-1.16549012999192));
#845=CARTESIAN_POINT('Origin',(221.,87.3886839822226,4.99562316906254));
#846=UNCERTAINTY_MEASURE_WITH_UNIT(LENGTH_MEASURE(0.01),#850,
'DISTANCE_ACCURACY_VALUE',
'Maximum model space distance between geometric entities at asserted c
onnectivities');
#847=UNCERTAINTY_MEASURE_WITH_UNIT(LENGTH_MEASURE(0.01),#850,
'DISTANCE_ACCURACY_VALUE',
'Maximum model space distance between geometric entities at asserted c
onnectivities');
#848=(
GEOMETRIC_REPRESENTATION_CONTEXT(3)
GLOBAL_UNCERTAINTY_ASSIGNED_CONTEXT((#846))
GLOBAL_UNIT_ASSIGNED_CONTEXT((#850,#852,#853))
REPRESENTATION_CONTEXT('','3D')
);
#849=(
GEOMETRIC_REPRESENTATION_CONTEXT(3)
GLOBAL_UNCERTAINTY_ASSIGNED_CONTEXT((#847))
GLOBAL_UNIT_ASSIGNED_CONTEXT((#850,#852,#853))
REPRESENTATION_CONTEXT('','3D')
);
#850=(
LENGTH_UNIT()
NAMED_UNIT(*)
SI_UNIT(.MILLI.,.METRE.)
);
#851=(
LENGTH_UNIT()
NAMED_UNIT(*)
SI_UNIT($,.METRE.)
);
#852=(
NAMED_UNIT(*)
PLANE_ANGLE_UNIT()
SI_UNIT($,.RADIAN.)
);
#853=(
NAMED_UNIT(*)
SI_UNIT($,.STERADIAN.)
SOLID_ANGLE_UNIT()
);
#854=SHAPE_DEFINITION_REPRESENTATION(#855,#856);
#855=PRODUCT_DEFINITION_SHAPE('',$,#858);
#856=SHAPE_REPRESENTATION('',(#431),#848);
#857=PRODUCT_DEFINITION_CONTEXT('part definition',#862,'design');
#858=PRODUCT_DEFINITION('Wing L Aileron 1','Wing L Aileron 1',#859,#857);
#859=PRODUCT_DEFINITION_FORMATION('',$,#864);
#860=PRODUCT_RELATED_PRODUCT_CATEGORY('Wing L Aileron 1',
'Wing L Aileron 1',(#864));
#861=APPLICATION_PROTOCOL_DEFINITION('international standard',
'automotive_design',2009,#862);
#862=APPLICATION_CONTEXT(
'Core Data for Automotive Mechanical Design Process');
#863=PRODUCT_CONTEXT('part definition',#862,'mechanical');
#864=PRODUCT('Wing L Aileron 1','Wing L Aileron 1',$,(#863));
#865=PRESENTATION_STYLE_ASSIGNMENT((#867));
#866=PRESENTATION_STYLE_ASSIGNMENT((#868));
#867=SURFACE_STYLE_USAGE(.BOTH.,#869);
#868=SURFACE_STYLE_USAGE(.BOTH.,#870);
#869=SURFACE_SIDE_STYLE('',(#871));
#870=SURFACE_SIDE_STYLE('',(#872));
#871=SURFACE_STYLE_FILL_AREA(#873);
#872=SURFACE_STYLE_FILL_AREA(#874);
#873=FILL_AREA_STYLE('Steel - Satin',(#875));
#874=FILL_AREA_STYLE('Paint - Enamel Glossy Violet',(#876));
#875=FILL_AREA_STYLE_COLOUR('Steel - Satin',#877);
#876=FILL_AREA_STYLE_COLOUR('Paint - Enamel Glossy Violet',#878);
#877=COLOUR_RGB('Steel - Satin',0.627450980392157,0.627450980392157,0.627450980392157);
#878=COLOUR_RGB('Paint - Enamel Glossy Violet',0.650980392156863,0.211764705882353,
0.690196078431373);
ENDSEC;
END-ISO-10303-21;
