ISO-10303-21;
HEADER;
/* Generated by software containing ST-Developer
 * from STEP Tools, Inc. (www.steptools.com) 
 */

FILE_DESCRIPTION(
/* description */ (''),
/* implementation_level */ '2;1');

FILE_NAME(
/* name */ 'Wing L Aileron 2.step',
/* time_stamp */ '2025-08-21T21:42:21+02:00',
/* author */ (''),
/* organization */ (''),
/* preprocessor_version */ 'ST-DEVELOPER v20.1',
/* originating_system */ 'Autodesk Translation Framework v14.10.0.0',
/* authorisation */ '');

FILE_SCHEMA (('AUTOMOTIVE_DESIGN { 1 0 10303 214 3 1 1 }'));
ENDSEC;

DATA;
#10=MECHANICAL_DESIGN_GEOMETRIC_PRESENTATION_REPRESENTATION('',(#13),#684);
#11=SHAPE_REPRESENTATION_RELATIONSHIP('SRR','None',#691,#12);
#12=ADVANCED_BREP_SHAPE_REPRESENTATION('',(#14),#683);
#13=STYLED_ITEM('',(#701),#14);
#14=MANIFOLD_SOLID_BREP('Wing L Aileron 2',#262);
#15=FACE_BOUND('',#83,.T.);
#16=LINE('',#448,#33);
#17=LINE('',#552,#34);
#18=LINE('',#582,#35);
#19=LINE('',#583,#36);
#20=LINE('',#628,#37);
#21=LINE('',#642,#38);
#22=LINE('',#644,#39);
#23=LINE('',#646,#40);
#24=LINE('',#647,#41);
#25=LINE('',#650,#42);
#26=LINE('',#652,#43);
#27=LINE('',#653,#44);
#28=LINE('',#656,#45);
#29=LINE('',#657,#46);
#30=LINE('',#660,#47);
#31=LINE('',#661,#48);
#32=LINE('',#663,#49);
#33=VECTOR('',#289,10.);
#34=VECTOR('',#290,225.152072318472);
#35=VECTOR('',#293,10.);
#36=VECTOR('',#294,10.);
#37=VECTOR('',#297,10.);
#38=VECTOR('',#300,10.);
#39=VECTOR('',#301,10.);
#40=VECTOR('',#302,10.);
#41=VECTOR('',#303,10.);
#42=VECTOR('',#306,10.);
#43=VECTOR('',#307,10.);
#44=VECTOR('',#308,10.);
#45=VECTOR('',#311,10.);
#46=VECTOR('',#312,10.);
#47=VECTOR('',#315,10.);
#48=VECTOR('',#316,10.);
#49=VECTOR('',#319,10.);
#50=PLANE('',#276);
#51=PLANE('',#277);
#52=PLANE('',#278);
#53=PLANE('',#279);
#54=PLANE('',#280);
#55=PLANE('',#281);
#56=PLANE('',#282);
#57=PLANE('',#283);
#58=PLANE('',#284);
#59=FACE_OUTER_BOUND('',#74,.T.);
#60=FACE_OUTER_BOUND('',#75,.T.);
#61=FACE_OUTER_BOUND('',#76,.T.);
#62=FACE_OUTER_BOUND('',#77,.T.);
#63=FACE_OUTER_BOUND('',#78,.T.);
#64=FACE_OUTER_BOUND('',#79,.T.);
#65=FACE_OUTER_BOUND('',#80,.T.);
#66=FACE_OUTER_BOUND('',#81,.T.);
#67=FACE_OUTER_BOUND('',#82,.T.);
#68=FACE_OUTER_BOUND('',#84,.T.);
#69=FACE_OUTER_BOUND('',#85,.T.);
#70=FACE_OUTER_BOUND('',#86,.T.);
#71=FACE_OUTER_BOUND('',#87,.T.);
#72=FACE_OUTER_BOUND('',#88,.T.);
#73=FACE_OUTER_BOUND('',#89,.T.);
#74=EDGE_LOOP('',(#169,#170,#171,#172,#173));
#75=EDGE_LOOP('',(#174,#175,#176,#177,#178));
#76=EDGE_LOOP('',(#179,#180,#181,#182,#183));
#77=EDGE_LOOP('',(#184,#185,#186,#187,#188));
#78=EDGE_LOOP('',(#189,#190,#191,#192));
#79=EDGE_LOOP('',(#193,#194,#195,#196,#197));
#80=EDGE_LOOP('',(#198,#199,#200,#201));
#81=EDGE_LOOP('',(#202,#203,#204,#205,#206,#207));
#82=EDGE_LOOP('',(#208,#209,#210,#211));
#83=EDGE_LOOP('',(#212,#213,#214,#215));
#84=EDGE_LOOP('',(#216,#217,#218,#219));
#85=EDGE_LOOP('',(#220,#221,#222,#223));
#86=EDGE_LOOP('',(#224,#225,#226,#227));
#87=EDGE_LOOP('',(#228,#229,#230,#231));
#88=EDGE_LOOP('',(#232,#233,#234,#235));
#89=EDGE_LOOP('',(#236,#237,#238,#239,#240));
#90=B_SPLINE_CURVE_WITH_KNOTS('',3,(#360,#361,#362,#363,#364,#365,#366,
#367),.UNSPECIFIED.,.F.,.F.,(4,2,2,4),(-0.977385575147442,-0.50990785912768,
0.,0.005219830022632),.UNSPECIFIED.);
#91=B_SPLINE_CURVE_WITH_KNOTS('',3,(#369,#370,#371,#372,#373),
 .UNSPECIFIED.,.F.,.F.,(4,1,4),(-1.51627264377037,-0.998858667036415,0.140908974251927),
 .UNSPECIFIED.);
#92=B_SPLINE_CURVE_WITH_KNOTS('',3,(#375,#376,#377,#378,#379,#380,#381,
#382,#383,#384),.UNSPECIFIED.,.F.,.F.,(4,2,2,2,4),(0.,0.0792787561667579,
0.160848541728342,0.199586887014014,0.234282262016037),.UNSPECIFIED.);
#93=B_SPLINE_CURVE_WITH_KNOTS('',3,(#386,#387,#388,#389,#390,#391,#392),
 .UNSPECIFIED.,.F.,.F.,(4,1,1,1,4),(0.0231471008004706,0.998858667036415,
1.75870376122864,2.13862630832476,2.51854885542087),.UNSPECIFIED.);
#94=B_SPLINE_CURVE_WITH_KNOTS('',3,(#393,#394,#395,#396,#397,#398),
 .UNSPECIFIED.,.F.,.F.,(4,2,4),(0.,0.0560276882409394,0.0954412286576307),
 .UNSPECIFIED.);
#95=B_SPLINE_CURVE_WITH_KNOTS('',3,(#416,#417,#418,#419),.UNSPECIFIED.,
 .F.,.F.,(4,4),(-0.239110823840729,-0.144786104614301),.UNSPECIFIED.);
#96=B_SPLINE_CURVE_WITH_KNOTS('',3,(#421,#422,#423,#424),.UNSPECIFIED.,
 .F.,.F.,(4,4),(-22.111802390415,-11.6880302534634),.UNSPECIFIED.);
#97=B_SPLINE_CURVE_WITH_KNOTS('',3,(#426,#427,#428,#429,#430,#431),
 .UNSPECIFIED.,.F.,.F.,(4,2,4),(-0.226113937759194,-0.11305658503159,0.),
 .UNSPECIFIED.);
#98=B_SPLINE_CURVE_WITH_KNOTS('',3,(#432,#433,#434,#435),.UNSPECIFIED.,
 .F.,.F.,(4,4),(11.6346648606451,21.9056632707716),.UNSPECIFIED.);
#99=B_SPLINE_CURVE_WITH_KNOTS('',3,(#438,#439,#440,#441,#442),
 .UNSPECIFIED.,.F.,.F.,(4,1,4),(-2.66855423648057,-1.14366610134882,-1.01034057136067),
 .UNSPECIFIED.);
#100=B_SPLINE_CURVE_WITH_KNOTS('',3,(#444,#445,#446,#447),.UNSPECIFIED.,
 .F.,.F.,(4,4),(-0.0953373707358635,0.),.UNSPECIFIED.);
#101=B_SPLINE_CURVE_WITH_KNOTS('',3,(#485,#486,#487,#488,#489,#490,#491,
#492),.UNSPECIFIED.,.F.,.F.,(4,2,2,4),(0.0778958498376122,0.10863757952607,
0.138300691478522,0.168806251566048),.UNSPECIFIED.);
#102=B_SPLINE_CURVE_WITH_KNOTS('',3,(#494,#495,#496,#497,#498,#499,#500),
 .UNSPECIFIED.,.F.,.F.,(4,1,1,1,4),(0.,0.190611016891469,0.381222033782939,
1.14366610134882,2.5136076552852),.UNSPECIFIED.);
#103=B_SPLINE_CURVE_WITH_KNOTS('',3,(#501,#502,#503,#504,#505,#506,#507,
#508,#509,#510),.UNSPECIFIED.,.F.,.F.,(4,2,2,2,4),(0.,0.0416356628390493,
0.101729559922053,0.150480358151807,0.198356192922062),.UNSPECIFIED.);
#104=B_SPLINE_CURVE_WITH_KNOTS('',3,(#554,#555,#556,#557,#558,#559,#560,
#561,#562,#563,#564,#565,#566,#567,#568,#569,#570,#571,#572,#573,#574,#575),
 .UNSPECIFIED.,.F.,.F.,(4,3,3,3,3,3,3,4),(-1.33885385156946,-1.16479692395676,
-0.990739996344064,-0.816683068731368,-0.642626141118672,-0.468569213505977,
-0.294512285893281,-0.120455405686165),.UNSPECIFIED.);
#105=B_SPLINE_CURVE_WITH_KNOTS('',3,(#576,#577,#578,#579),.UNSPECIFIED.,
 .F.,.F.,(4,4),(0.201625206399618,10.4760920232403),.UNSPECIFIED.);
#106=B_SPLINE_CURVE_WITH_KNOTS('',3,(#620,#621,#622,#623,#624,#625),
 .UNSPECIFIED.,.F.,.F.,(4,2,4),(-1.30053309736146,-0.731944372864773,0.),
 .UNSPECIFIED.);
#107=B_SPLINE_CURVE_WITH_KNOTS('',3,(#629,#630,#631,#632,#633,#634),
 .UNSPECIFIED.,.F.,.F.,(4,2,4),(-0.219793983637332,-0.109896834149287,0.),
 .UNSPECIFIED.);
#108=B_SPLINE_CURVE_WITH_KNOTS('',3,(#636,#637,#638,#639),.UNSPECIFIED.,
 .F.,.F.,(4,4),(-10.4229668831661,0.000821082653249761),.UNSPECIFIED.);
#109=VERTEX_POINT('',#358);
#110=VERTEX_POINT('',#359);
#111=VERTEX_POINT('',#368);
#112=VERTEX_POINT('',#374);
#113=VERTEX_POINT('',#385);
#114=VERTEX_POINT('',#415);
#115=VERTEX_POINT('',#420);
#116=VERTEX_POINT('',#425);
#117=VERTEX_POINT('',#437);
#118=VERTEX_POINT('',#443);
#119=VERTEX_POINT('',#484);
#120=VERTEX_POINT('',#493);
#121=VERTEX_POINT('',#551);
#122=VERTEX_POINT('',#553);
#123=VERTEX_POINT('',#581);
#124=VERTEX_POINT('',#627);
#125=VERTEX_POINT('',#640);
#126=VERTEX_POINT('',#641);
#127=VERTEX_POINT('',#643);
#128=VERTEX_POINT('',#645);
#129=VERTEX_POINT('',#649);
#130=VERTEX_POINT('',#651);
#131=VERTEX_POINT('',#655);
#132=VERTEX_POINT('',#659);
#133=EDGE_CURVE('',#109,#110,#90,.T.);
#134=EDGE_CURVE('',#110,#111,#91,.T.);
#135=EDGE_CURVE('',#111,#112,#92,.T.);
#136=EDGE_CURVE('',#112,#113,#93,.T.);
#137=EDGE_CURVE('',#113,#109,#94,.T.);
#138=EDGE_CURVE('',#114,#111,#95,.T.);
#139=EDGE_CURVE('',#114,#115,#96,.T.);
#140=EDGE_CURVE('',#115,#116,#97,.T.);
#141=EDGE_CURVE('',#116,#112,#98,.T.);
#142=EDGE_CURVE('',#117,#110,#99,.T.);
#143=EDGE_CURVE('',#117,#118,#100,.T.);
#144=EDGE_CURVE('',#118,#114,#16,.T.);
#145=EDGE_CURVE('',#109,#119,#101,.T.);
#146=EDGE_CURVE('',#119,#120,#102,.T.);
#147=EDGE_CURVE('',#120,#117,#103,.T.);
#148=EDGE_CURVE('',#121,#119,#17,.T.);
#149=EDGE_CURVE('',#121,#122,#104,.T.);
#150=EDGE_CURVE('',#120,#122,#105,.T.);
#151=EDGE_CURVE('',#123,#113,#18,.T.);
#152=EDGE_CURVE('',#123,#121,#19,.T.);
#153=EDGE_CURVE('',#116,#123,#106,.T.);
#154=EDGE_CURVE('',#124,#115,#20,.T.);
#155=EDGE_CURVE('',#122,#124,#107,.T.);
#156=EDGE_CURVE('',#124,#118,#108,.T.);
#157=EDGE_CURVE('',#125,#126,#21,.T.);
#158=EDGE_CURVE('',#126,#127,#22,.F.);
#159=EDGE_CURVE('',#127,#128,#23,.T.);
#160=EDGE_CURVE('',#128,#125,#24,.F.);
#161=EDGE_CURVE('',#129,#127,#25,.F.);
#162=EDGE_CURVE('',#130,#129,#26,.F.);
#163=EDGE_CURVE('',#128,#130,#27,.F.);
#164=EDGE_CURVE('',#130,#131,#28,.F.);
#165=EDGE_CURVE('',#131,#125,#29,.F.);
#166=EDGE_CURVE('',#132,#131,#30,.F.);
#167=EDGE_CURVE('',#126,#132,#31,.F.);
#168=EDGE_CURVE('',#132,#129,#32,.T.);
#169=ORIENTED_EDGE('',*,*,#133,.T.);
#170=ORIENTED_EDGE('',*,*,#134,.T.);
#171=ORIENTED_EDGE('',*,*,#135,.T.);
#172=ORIENTED_EDGE('',*,*,#136,.T.);
#173=ORIENTED_EDGE('',*,*,#137,.T.);
#174=ORIENTED_EDGE('',*,*,#135,.F.);
#175=ORIENTED_EDGE('',*,*,#138,.F.);
#176=ORIENTED_EDGE('',*,*,#139,.T.);
#177=ORIENTED_EDGE('',*,*,#140,.T.);
#178=ORIENTED_EDGE('',*,*,#141,.T.);
#179=ORIENTED_EDGE('',*,*,#134,.F.);
#180=ORIENTED_EDGE('',*,*,#142,.F.);
#181=ORIENTED_EDGE('',*,*,#143,.T.);
#182=ORIENTED_EDGE('',*,*,#144,.T.);
#183=ORIENTED_EDGE('',*,*,#138,.T.);
#184=ORIENTED_EDGE('',*,*,#133,.F.);
#185=ORIENTED_EDGE('',*,*,#145,.T.);
#186=ORIENTED_EDGE('',*,*,#146,.T.);
#187=ORIENTED_EDGE('',*,*,#147,.T.);
#188=ORIENTED_EDGE('',*,*,#142,.T.);
#189=ORIENTED_EDGE('',*,*,#146,.F.);
#190=ORIENTED_EDGE('',*,*,#148,.F.);
#191=ORIENTED_EDGE('',*,*,#149,.T.);
#192=ORIENTED_EDGE('',*,*,#150,.F.);
#193=ORIENTED_EDGE('',*,*,#137,.F.);
#194=ORIENTED_EDGE('',*,*,#151,.F.);
#195=ORIENTED_EDGE('',*,*,#152,.T.);
#196=ORIENTED_EDGE('',*,*,#148,.T.);
#197=ORIENTED_EDGE('',*,*,#145,.F.);
#198=ORIENTED_EDGE('',*,*,#136,.F.);
#199=ORIENTED_EDGE('',*,*,#141,.F.);
#200=ORIENTED_EDGE('',*,*,#153,.T.);
#201=ORIENTED_EDGE('',*,*,#151,.T.);
#202=ORIENTED_EDGE('',*,*,#152,.F.);
#203=ORIENTED_EDGE('',*,*,#153,.F.);
#204=ORIENTED_EDGE('',*,*,#140,.F.);
#205=ORIENTED_EDGE('',*,*,#154,.F.);
#206=ORIENTED_EDGE('',*,*,#155,.F.);
#207=ORIENTED_EDGE('',*,*,#149,.F.);
#208=ORIENTED_EDGE('',*,*,#154,.T.);
#209=ORIENTED_EDGE('',*,*,#139,.F.);
#210=ORIENTED_EDGE('',*,*,#144,.F.);
#211=ORIENTED_EDGE('',*,*,#156,.F.);
#212=ORIENTED_EDGE('',*,*,#157,.T.);
#213=ORIENTED_EDGE('',*,*,#158,.T.);
#214=ORIENTED_EDGE('',*,*,#159,.T.);
#215=ORIENTED_EDGE('',*,*,#160,.T.);
#216=ORIENTED_EDGE('',*,*,#159,.F.);
#217=ORIENTED_EDGE('',*,*,#161,.F.);
#218=ORIENTED_EDGE('',*,*,#162,.F.);
#219=ORIENTED_EDGE('',*,*,#163,.F.);
#220=ORIENTED_EDGE('',*,*,#160,.F.);
#221=ORIENTED_EDGE('',*,*,#163,.T.);
#222=ORIENTED_EDGE('',*,*,#164,.T.);
#223=ORIENTED_EDGE('',*,*,#165,.T.);
#224=ORIENTED_EDGE('',*,*,#157,.F.);
#225=ORIENTED_EDGE('',*,*,#165,.F.);
#226=ORIENTED_EDGE('',*,*,#166,.F.);
#227=ORIENTED_EDGE('',*,*,#167,.F.);
#228=ORIENTED_EDGE('',*,*,#158,.F.);
#229=ORIENTED_EDGE('',*,*,#167,.T.);
#230=ORIENTED_EDGE('',*,*,#168,.T.);
#231=ORIENTED_EDGE('',*,*,#161,.T.);
#232=ORIENTED_EDGE('',*,*,#168,.F.);
#233=ORIENTED_EDGE('',*,*,#166,.T.);
#234=ORIENTED_EDGE('',*,*,#164,.F.);
#235=ORIENTED_EDGE('',*,*,#162,.T.);
#236=ORIENTED_EDGE('',*,*,#147,.F.);
#237=ORIENTED_EDGE('',*,*,#150,.T.);
#238=ORIENTED_EDGE('',*,*,#155,.T.);
#239=ORIENTED_EDGE('',*,*,#156,.T.);
#240=ORIENTED_EDGE('',*,*,#143,.F.);
#241=B_SPLINE_SURFACE_WITH_KNOTS('',3,3,((#323,#324,#325,#326,#327,#328,
#329),(#330,#331,#332,#333,#334,#335,#336),(#337,#338,#339,#340,#341,#342,
#343),(#344,#345,#346,#347,#348,#349,#350),(#351,#352,#353,#354,#355,#356,
#357)),.UNSPECIFIED.,.F.,.F.,.F.,(4,1,4),(4,1,1,1,4),(0.,0.571428571428571,
1.),(-0.140908974251927,0.998858667036415,1.75870376122864,2.13862630832476,
2.51854885542087),.UNSPECIFIED.);
#242=B_SPLINE_SURFACE_WITH_KNOTS('',3,3,((#399,#400,#401,#402),(#403,#404,
#405,#406),(#407,#408,#409,#410),(#411,#412,#413,#414)),.UNSPECIFIED.,.F.,
 .F.,.F.,(4,4),(4,4),(0.,1.),(-22.111802390415,-11.6346648606451),
 .UNSPECIFIED.);
#243=B_SPLINE_SURFACE_WITH_KNOTS('',3,3,((#449,#450,#451,#452,#453,#454,
#455),(#456,#457,#458,#459,#460,#461,#462),(#463,#464,#465,#466,#467,#468,
#469),(#470,#471,#472,#473,#474,#475,#476),(#477,#478,#479,#480,#481,#482,
#483)),.UNSPECIFIED.,.F.,.F.,.F.,(4,1,4),(4,1,1,1,4),(0.,0.571428571428571,
1.),(0.,0.190611016891469,0.381222033782939,1.14366610134882,2.66855423648057),
 .UNSPECIFIED.);
#244=B_SPLINE_SURFACE_WITH_KNOTS('',3,3,((#511,#512,#513,#514),(#515,#516,
#517,#518),(#519,#520,#521,#522),(#523,#524,#525,#526),(#527,#528,#529,
#530),(#531,#532,#533,#534),(#535,#536,#537,#538),(#539,#540,#541,#542),
(#543,#544,#545,#546),(#547,#548,#549,#550)),.UNSPECIFIED.,.F.,.F.,.F.,
(4,1,1,1,1,1,1,4),(4,4),(0.,0.0260589181035503,0.0521178362071007,0.078176754310651,
0.104235672414201,0.130294590517752,0.156353508621302,0.182412426724852),
(0.528571428570781,0.993246531694369),.UNSPECIFIED.);
#245=B_SPLINE_SURFACE_WITH_KNOTS('',3,3,((#584,#585,#586,#587),(#588,#589,
#590,#591),(#592,#593,#594,#595),(#596,#597,#598,#599),(#600,#601,#602,
#603),(#604,#605,#606,#607),(#608,#609,#610,#611),(#612,#613,#614,#615),
(#616,#617,#618,#619)),.UNSPECIFIED.,.F.,.F.,.F.,(4,1,1,1,1,1,4),(4,4),
(0.815873055612681,0.842176904810869,0.894784603207246,0.921088452405435,
0.947392301603623,0.973696150801812,1.),(0.528571428571187,0.993090722874107),
 .UNSPECIFIED.);
#246=B_SPLINE_SURFACE_WITH_KNOTS('',3,3,((#665,#666,#667,#668),(#669,#670,
#671,#672),(#673,#674,#675,#676),(#677,#678,#679,#680)),.UNSPECIFIED.,.F.,
 .F.,.F.,(4,4),(4,4),(0.,1.),(-10.4760920232403,0.000821082653249761),
 .UNSPECIFIED.);
#247=ADVANCED_FACE('',(#59),#241,.F.);
#248=ADVANCED_FACE('',(#60),#242,.T.);
#249=ADVANCED_FACE('',(#61),#50,.T.);
#250=ADVANCED_FACE('',(#62),#243,.F.);
#251=ADVANCED_FACE('',(#63),#244,.T.);
#252=ADVANCED_FACE('',(#64),#51,.T.);
#253=ADVANCED_FACE('',(#65),#245,.T.);
#254=ADVANCED_FACE('',(#66),#52,.F.);
#255=ADVANCED_FACE('',(#67,#15),#53,.F.);
#256=ADVANCED_FACE('',(#68),#54,.F.);
#257=ADVANCED_FACE('',(#69),#55,.F.);
#258=ADVANCED_FACE('',(#70),#56,.F.);
#259=ADVANCED_FACE('',(#71),#57,.F.);
#260=ADVANCED_FACE('',(#72),#58,.F.);
#261=ADVANCED_FACE('',(#73),#246,.T.);
#262=CLOSED_SHELL('',(#247,#248,#249,#250,#251,#252,#253,#254,#255,#256,
#257,#258,#259,#260,#261));
#263=DERIVED_UNIT_ELEMENT(#265,1.);
#264=DERIVED_UNIT_ELEMENT(#686,-3.);
#265=(
MASS_UNIT()
NAMED_UNIT(*)
SI_UNIT(.KILO.,.GRAM.)
);
#266=DERIVED_UNIT((#263,#264));
#267=MEASURE_REPRESENTATION_ITEM('density measure',
POSITIVE_RATIO_MEASURE(7850.),#266);
#268=PROPERTY_DEFINITION_REPRESENTATION(#273,#270);
#269=PROPERTY_DEFINITION_REPRESENTATION(#274,#271);
#270=REPRESENTATION('material name',(#272),#683);
#271=REPRESENTATION('density',(#267),#683);
#272=DESCRIPTIVE_REPRESENTATION_ITEM('Steel','Steel');
#273=PROPERTY_DEFINITION('material property','material name',#693);
#274=PROPERTY_DEFINITION('material property','density of part',#693);
#275=AXIS2_PLACEMENT_3D('',#322,#285,#286);
#276=AXIS2_PLACEMENT_3D('',#436,#287,#288);
#277=AXIS2_PLACEMENT_3D('',#580,#291,#292);
#278=AXIS2_PLACEMENT_3D('',#626,#295,#296);
#279=AXIS2_PLACEMENT_3D('',#635,#298,#299);
#280=AXIS2_PLACEMENT_3D('',#648,#304,#305);
#281=AXIS2_PLACEMENT_3D('',#654,#309,#310);
#282=AXIS2_PLACEMENT_3D('',#658,#313,#314);
#283=AXIS2_PLACEMENT_3D('',#662,#317,#318);
#284=AXIS2_PLACEMENT_3D('',#664,#320,#321);
#285=DIRECTION('axis',(0.,0.,1.));
#286=DIRECTION('refdir',(1.,0.,0.));
#287=DIRECTION('center_axis',(0.977881405916259,0.209160120394019,0.));
#288=DIRECTION('ref_axis',(0.,0.,-1.));
#289=DIRECTION('',(0.,0.,-1.));
#290=DIRECTION('',(0.932702940894811,-0.36064500123785,-0.000638066079164418));
#291=DIRECTION('center_axis',(0.36064507465227,0.932703130759761,0.));
#292=DIRECTION('ref_axis',(0.,0.,1.));
#293=DIRECTION('',(0.932702940894806,-0.360645001237848,0.000638066088672418));
#294=DIRECTION('',(0.,0.,1.));
#295=DIRECTION('center_axis',(1.,0.,0.));
#296=DIRECTION('ref_axis',(0.,0.,-1.));
#297=DIRECTION('',(0.,0.,-1.));
#298=DIRECTION('center_axis',(0.312969447484177,0.949763194139176,0.));
#299=DIRECTION('ref_axis',(0.,0.,1.));
#300=DIRECTION('',(0.949763182614417,-0.312969443686496,-0.000155784143887155));
#301=DIRECTION('',(0.000202991624439067,-6.6890543807808E-5,0.999999977160028));
#302=DIRECTION('',(-0.949763182614417,0.312969443686496,0.000155784143887155));
#303=DIRECTION('',(-9.38323719140887E-5,3.09199869770683E-5,-0.99999999511972));
#304=DIRECTION('center_axis',(-0.000165942702423649,-5.82206181043432E-6,
-0.999999986214561));
#305=DIRECTION('ref_axis',(-0.99999998623151,0.,0.000165942702426462));
#306=DIRECTION('',(-0.453990493917169,0.891006524393606,7.01489153437761E-5));
#307=DIRECTION('',(-0.951056503349116,0.309016994831287,0.000156021772429785));
#308=DIRECTION('',(-0.891006511702279,-0.453990499299413,0.000150499191251913));
#309=DIRECTION('center_axis',(-0.453990493917171,0.891006524393606,7.01489153437763E-5));
#310=DIRECTION('ref_axis',(0.891006511702279,0.453990499299413,-0.000150499191253907));
#311=DIRECTION('',(-0.000165942702423649,-5.82206181043432E-6,-0.999999986214561));
#312=DIRECTION('',(0.891006511702279,0.453990499299413,-0.000150499191251913));
#313=DIRECTION('center_axis',(0.000165942702423649,5.82206181043432E-6,
0.999999986214561));
#314=DIRECTION('ref_axis',(0.99999998623151,0.,-0.000165942702426462));
#315=DIRECTION('',(0.951056503349116,-0.309016994831287,-0.000156021772429785));
#316=DIRECTION('',(0.453990493917169,-0.891006524393606,-7.01489153437761E-5));
#317=DIRECTION('center_axis',(0.891006511702279,0.453990499299412,-0.000150499191251914));
#318=DIRECTION('ref_axis',(0.45399049391717,-0.891006524393606,-7.01489153443069E-5));
#319=DIRECTION('',(-0.000165942702423649,-5.82206181043431E-6,-0.999999986214561));
#320=DIRECTION('center_axis',(0.309016989662984,0.95105651612906,-5.68162249648527E-5));
#321=DIRECTION('ref_axis',(0.951056503349116,-0.309016994831287,-0.000156021772432085));
#322=CARTESIAN_POINT('',(0.,0.,0.));
#323=CARTESIAN_POINT('Ctrl Pts',(318.891528676025,35.5363292357373,-4.48100283057869));
#324=CARTESIAN_POINT('Ctrl Pts',(318.098429957812,39.2498234716901,-4.30637655439925));
#325=CARTESIAN_POINT('Ctrl Pts',(316.778649763598,45.4453023515182,-4.0043298703132));
#326=CARTESIAN_POINT('Ctrl Pts',(315.19959010132,52.8747961775078,-3.46357119111629));
#327=CARTESIAN_POINT('Ctrl Pts',(314.149202617972,57.8251069760645,-3.03906727910211));
#328=CARTESIAN_POINT('Ctrl Pts',(313.6199497249,60.2885461156463,-2.81569351611463));
#329=CARTESIAN_POINT('Ctrl Pts',(313.366177863956,61.5450730267181,-2.67947571727844));
#330=CARTESIAN_POINT('Ctrl Pts',(319.178013115364,35.5971596623989,-4.47151614291066));
#331=CARTESIAN_POINT('Ctrl Pts',(318.384692667748,39.3105767425097,-4.29654865112018));
#332=CARTESIAN_POINT('Ctrl Pts',(317.063942268998,45.5056606630537,-3.99308917466619));
#333=CARTESIAN_POINT('Ctrl Pts',(315.483013306825,52.9344111467639,-3.4495376112214));
#334=CARTESIAN_POINT('Ctrl Pts',(314.43103062984,57.8839387712241,-3.02276671899425));
#335=CARTESIAN_POINT('Ctrl Pts',(313.902244556844,60.3476396769262,-2.80004386894079));
#336=CARTESIAN_POINT('Ctrl Pts',(313.645610678488,61.6027164598914,-2.65977595957213));
#337=CARTESIAN_POINT('Ctrl Pts',(319.668905682717,35.6900965399646,-4.21500292351937));
#338=CARTESIAN_POINT('Ctrl Pts',(318.875061664255,39.4028537784603,-4.03988842069842));
#339=CARTESIAN_POINT('Ctrl Pts',(317.551890705097,45.5950149194886,-3.73555974035463));
#340=CARTESIAN_POINT('Ctrl Pts',(315.966439590119,53.0185355809117,-3.19074467450958));
#341=CARTESIAN_POINT('Ctrl Pts',(314.910669373567,57.9637300929655,-2.76316110648719));
#342=CARTESIAN_POINT('Ctrl Pts',(314.382912294063,60.4286444370748,-2.54048855022061));
#343=CARTESIAN_POINT('Ctrl Pts',(314.119591005664,61.6759705979103,-2.39900440500082));
#344=CARTESIAN_POINT('Ctrl Pts',(319.845208015437,35.7036914361937,-3.70211975150442));
#345=CARTESIAN_POINT('Ctrl Pts',(319.051305860373,39.4153904421252,-3.52743967132973));
#346=CARTESIAN_POINT('Ctrl Pts',(317.727919200526,45.6027144258232,-3.22507715325671));
#347=CARTESIAN_POINT('Ctrl Pts',(316.14184040257,53.0180540165859,-2.68401854100727));
#348=CARTESIAN_POINT('Ctrl Pts',(315.085473716321,57.9568302377217,-2.25979149083732));
#349=CARTESIAN_POINT('Ctrl Pts',(314.557924255934,60.4233558605843,-2.03610741485925));
#350=CARTESIAN_POINT('Ctrl Pts',(314.293508145419,61.6594236469613,-1.90069377129938));
#351=CARTESIAN_POINT('Ctrl Pts',(319.847319238674,35.6938208837066,-3.48258289708326));
#352=CARTESIAN_POINT('Ctrl Pts',(319.053511206789,39.4050929597851,-3.30808731234834));
#353=CARTESIAN_POINT('Ctrl Pts',(317.730519340087,45.5904458090208,-3.00657421081005));
#354=CARTESIAN_POINT('Ctrl Pts',(316.145148462848,53.0024930932399,-2.46711846081826));
#355=CARTESIAN_POINT('Ctrl Pts',(315.089338601504,57.9386961784467,-2.04432246196907));
#356=CARTESIAN_POINT('Ctrl Pts',(314.561634957906,60.4058566483127,-1.82021318358002));
#357=CARTESIAN_POINT('Ctrl Pts',(314.298213927705,61.6374228133938,-1.68738018229295));
#358=CARTESIAN_POINT('',(314.100807494152,61.2610163434219,-2.40982624869944));
#359=CARTESIAN_POINT('',(316.386886227645,51.872302190418,-2.54045243610087));
#360=CARTESIAN_POINT('Ctrl Pts',(314.100807494152,61.2610163434219,-2.40982624869941));
#361=CARTESIAN_POINT('Ctrl Pts',(314.47316666533,59.94970805835,-2.45017749927199));
#362=CARTESIAN_POINT('Ctrl Pts',(314.866814273282,58.4326245341999,-2.47659669715902));
#363=CARTESIAN_POINT('Ctrl Pts',(315.633943769573,55.2827144131099,-2.52088953758526));
#364=CARTESIAN_POINT('Ctrl Pts',(316.020012197506,53.5853415929025,-2.53573345606392));
#365=CARTESIAN_POINT('Ctrl Pts',(316.379605440467,51.9063308022219,-2.54036178058199));
#366=CARTESIAN_POINT('Ctrl Pts',(316.383246972124,51.8893167164128,-2.54040763282614));
#367=CARTESIAN_POINT('Ctrl Pts',(316.386886227645,51.872302190417,-2.54045243610095));
#368=CARTESIAN_POINT('',(319.847319238609,35.6938208837576,-3.48258289708035));
#369=CARTESIAN_POINT('Ctrl Pts',(316.386863673204,51.8724076386672,-2.54190767151204));
#370=CARTESIAN_POINT('Ctrl Pts',(316.746618983914,50.1904520710365,-2.66936014303742));
#371=CARTESIAN_POINT('Ctrl Pts',(317.899361331216,44.8010628073668,-3.04505371601075));
#372=CARTESIAN_POINT('Ctrl Pts',(319.053511206789,39.4050929597851,-3.30808731234834));
#373=CARTESIAN_POINT('Ctrl Pts',(319.847319238674,35.6938208837066,-3.48258289708326));
#374=CARTESIAN_POINT('',(318.549051803562,37.1400622247079,-4.40483515042706));
#375=CARTESIAN_POINT('Ctrl Pts',(319.847319238674,35.6938208837066,-3.48258289708327));
#376=CARTESIAN_POINT('Ctrl Pts',(319.804542935036,35.8938119329684,-3.64994014321495));
#377=CARTESIAN_POINT('Ctrl Pts',(319.713056870532,36.0991238825602,-3.80789630193295));
#378=CARTESIAN_POINT('Ctrl Pts',(319.460621076184,36.4870077534293,-4.08313310652215));
#379=CARTESIAN_POINT('Ctrl Pts',(319.298172282506,36.6682208012071,-4.19875541051656));
#380=CARTESIAN_POINT('Ctrl Pts',(319.03018472446,36.8876008242646,-4.31795908351982));
#381=CARTESIAN_POINT('Ctrl Pts',(318.935912154371,36.9538752365926,-4.35009309319692));
#382=CARTESIAN_POINT('Ctrl Pts',(318.745440268295,37.0623353666909,-4.39214177708641));
#383=CARTESIAN_POINT('Ctrl Pts',(318.649002857245,37.1071260627306,-4.40432926004657));
#384=CARTESIAN_POINT('Ctrl Pts',(318.549051803562,37.1400622247079,-4.40483515042706));
#385=CARTESIAN_POINT('',(313.366177863956,61.5450730267181,-2.67947571727844));
#386=CARTESIAN_POINT('Ctrl Pts',(318.549134129566,37.1400898945901,-4.40504650983275));
#387=CARTESIAN_POINT('Ctrl Pts',(317.870498920612,40.319911005342,-4.25309706300834));
#388=CARTESIAN_POINT('Ctrl Pts',(316.665006280013,45.9799962455035,-3.96541196141412));
#389=CARTESIAN_POINT('Ctrl Pts',(315.19959010132,52.8747961775078,-3.46357119111629));
#390=CARTESIAN_POINT('Ctrl Pts',(314.149202617972,57.8251069760645,-3.03906727910211));
#391=CARTESIAN_POINT('Ctrl Pts',(313.6199497249,60.2885461156463,-2.81569351611463));
#392=CARTESIAN_POINT('Ctrl Pts',(313.366177863956,61.5450730267181,-2.67947571727844));
#393=CARTESIAN_POINT('Ctrl Pts',(313.366177863956,61.5450730267181,-2.67947571727844));
#394=CARTESIAN_POINT('Ctrl Pts',(313.540368495936,61.4777193410681,-2.67935655271879));
#395=CARTESIAN_POINT('Ctrl Pts',(313.699635652932,61.4161360635625,-2.64215684604801));
#396=CARTESIAN_POINT('Ctrl Pts',(313.93176697506,61.3263786528313,-2.53817747471437));
#397=CARTESIAN_POINT('Ctrl Pts',(314.021632745246,61.2916305681285,-2.48101053231847));
#398=CARTESIAN_POINT('Ctrl Pts',(314.100807494152,61.2610163434219,-2.40982624869942));
#399=CARTESIAN_POINT('Ctrl Pts',(320.506863109258,36.4949185556444,-4.39492602324701));
#400=CARTESIAN_POINT('Ctrl Pts',(287.337906836793,47.4248492512997,-4.5628032844103));
#401=CARTESIAN_POINT('Ctrl Pts',(254.168952878446,58.3547857178804,-4.73076471621632));
#402=CARTESIAN_POINT('Ctrl Pts',(221.,69.2847249244481,-4.89876245566427));
#403=CARTESIAN_POINT('Ctrl Pts',(320.337908739505,35.9899444040153,-3.89169592505777));
#404=CARTESIAN_POINT('Ctrl Pts',(287.168955887503,46.9198824058755,-4.0597148903211));
#405=CARTESIAN_POINT('Ctrl Pts',(254.000004453749,57.8498242960442,-4.22778055007958));
#406=CARTESIAN_POINT('Ctrl Pts',(220.831053676807,68.7797680336712,-4.39586509743889));
#407=CARTESIAN_POINT('Ctrl Pts',(320.168954369753,35.4849702523862,-3.38846582686852));
#408=CARTESIAN_POINT('Ctrl Pts',(287.000004938213,46.4149155604514,-3.55662649623191));
#409=CARTESIAN_POINT('Ctrl Pts',(253.831056029052,57.344862874208,-3.72479638394283));
#410=CARTESIAN_POINT('Ctrl Pts',(220.662107353613,68.2748111428943,-3.8929677392135));
#411=CARTESIAN_POINT('Ctrl Pts',(320.,34.9799961007572,-2.88523572867928));
#412=CARTESIAN_POINT('Ctrl Pts',(286.831053988924,45.9099487150271,-3.05353810214271));
#413=CARTESIAN_POINT('Ctrl Pts',(253.662107604355,56.8399014523718,-3.22181221780609));
#414=CARTESIAN_POINT('Ctrl Pts',(220.49316103042,67.7698542521174,-3.39007038098812));
#415=CARTESIAN_POINT('',(320.,34.9799961007572,-2.88523572867928));
#416=CARTESIAN_POINT('Ctrl Pts',(320.,34.9799961007572,-2.88523572867928));
#417=CARTESIAN_POINT('Ctrl Pts',(319.949105503329,35.2179419475305,-3.08435557244861));
#418=CARTESIAN_POINT('Ctrl Pts',(319.898210894005,35.4558883206274,-3.28347529363766));
#419=CARTESIAN_POINT('Ctrl Pts',(319.847319238557,35.6938208837465,-3.48258289708036));
#420=CARTESIAN_POINT('',(220.999999999997,67.6028388179016,-3.38749930635903));
#421=CARTESIAN_POINT('Ctrl Pts',(320.,34.9799961007572,-2.88523572867928));
#422=CARTESIAN_POINT('Ctrl Pts',(287.000000309255,45.8542769045647,-3.05268085251259));
#423=CARTESIAN_POINT('Ctrl Pts',(254.000000248812,56.7285578301963,-3.22009800567544));
#424=CARTESIAN_POINT('Ctrl Pts',(220.999999999998,67.6028388179006,-3.3874993064109));
#425=CARTESIAN_POINT('',(221.000000000057,69.2847249244106,-4.89876245566369));
#426=CARTESIAN_POINT('Ctrl Pts',(221.,67.6028388178999,-3.387499306359));
#427=CARTESIAN_POINT('Ctrl Pts',(221.,67.883156379201,-3.63938001082783));
#428=CARTESIAN_POINT('Ctrl Pts',(220.999999999987,68.1634741667087,-3.89126060400787));
#429=CARTESIAN_POINT('Ctrl Pts',(220.999999999987,68.724097635256,-4.3950102840572));
#430=CARTESIAN_POINT('Ctrl Pts',(221.,69.0044086333236,-4.6468841485678));
#431=CARTESIAN_POINT('Ctrl Pts',(221.,69.2847249244481,-4.89876245566427));
#432=CARTESIAN_POINT('Ctrl Pts',(221.,69.2847249244481,-4.89876245566427));
#433=CARTESIAN_POINT('Ctrl Pts',(253.516349175724,58.5698337726946,-4.73407009480981));
#434=CARTESIAN_POINT('Ctrl Pts',(286.032699389272,47.8549452541695,-4.56941262693667));
#435=CARTESIAN_POINT('Ctrl Pts',(318.549051803436,37.1400622244057,-4.40483514513268));
#436=CARTESIAN_POINT('Origin',(317.201890607721,48.0619313247139,-2.19555418837128));
#437=CARTESIAN_POINT('',(319.842289144286,35.7173379660394,-1.11702391728962));
#438=CARTESIAN_POINT('Ctrl Pts',(319.842289144286,35.7173379660393,-1.11702391728962));
#439=CARTESIAN_POINT('Ctrl Pts',(318.783901834667,40.6655913347218,-1.5979132532577));
#440=CARTESIAN_POINT('Ctrl Pts',(317.632812940854,46.0472502460665,-2.11939039169619));
#441=CARTESIAN_POINT('Ctrl Pts',(316.4796333962,51.4386835282647,-2.51085202405243));
#442=CARTESIAN_POINT('Ctrl Pts',(316.386902190474,51.8722275597782,-2.54153890585654));
#443=CARTESIAN_POINT('',(320.,34.9799961007572,-1.70050090126504));
#444=CARTESIAN_POINT('Ctrl Pts',(319.842289144045,35.7173379660554,-1.11702391729282));
#445=CARTESIAN_POINT('Ctrl Pts',(319.894863360138,35.4715389667406,-1.3115314764586));
#446=CARTESIAN_POINT('Ctrl Pts',(319.947431660695,35.2257676247421,-1.50601646167309));
#447=CARTESIAN_POINT('Ctrl Pts',(320.,34.9799961007572,-1.70050090126504));
#448=CARTESIAN_POINT('',(320.,34.9799961007571,-0.572282185982566));
#449=CARTESIAN_POINT('Ctrl Pts',(313.314733283847,61.5649649235308,-2.11261786728968));
#450=CARTESIAN_POINT('Ctrl Pts',(313.452867412444,60.9577643236912,-2.09152548058617));
#451=CARTESIAN_POINT('Ctrl Pts',(313.720242403422,59.7214344825246,-2.03323534681979));
#452=CARTESIAN_POINT('Ctrl Pts',(314.520391563616,56.0095251294302,-1.83100351007823));
#453=CARTESIAN_POINT('Ctrl Pts',(316.252555300556,47.9676455328173,-1.32148362860657));
#454=CARTESIAN_POINT('Ctrl Pts',(317.845936751493,40.5611635790281,-0.604214111450835));
#455=CARTESIAN_POINT('Ctrl Pts',(318.904419738962,35.6133029556897,-0.123370179286928));
#456=CARTESIAN_POINT('Ctrl Pts',(313.602980084309,61.6263803215474,-2.11942875947186));
#457=CARTESIAN_POINT('Ctrl Pts',(313.739574642299,61.0187177445931,-2.10074913260465));
#458=CARTESIAN_POINT('Ctrl Pts',(314.006400337063,59.7821746139282,-2.04328477725098));
#459=CARTESIAN_POINT('Ctrl Pts',(314.805400640903,56.069837494799,-1.84278081817098));
#460=CARTESIAN_POINT('Ctrl Pts',(316.535295182897,48.0270311217426,-1.33663959814737));
#461=CARTESIAN_POINT('Ctrl Pts',(318.12698359563,40.6195871818823,-0.621659816613429));
#462=CARTESIAN_POINT('Ctrl Pts',(319.185432737875,35.6717089188351,-0.140865031786465));
#463=CARTESIAN_POINT('Ctrl Pts',(314.098345385795,61.7234181372409,-2.3745651011449));
#464=CARTESIAN_POINT('Ctrl Pts',(314.231177071678,61.1116378282078,-2.35701483417108));
#465=CARTESIAN_POINT('Ctrl Pts',(314.496678942592,59.8735875956996,-2.29990689306894));
#466=CARTESIAN_POINT('Ctrl Pts',(315.292856741544,56.1581238623598,-2.1002492393009));
#467=CARTESIAN_POINT('Ctrl Pts',(317.017305756522,48.1091502967338,-1.59549084588532));
#468=CARTESIAN_POINT('Ctrl Pts',(318.604905797986,40.6966520694606,-0.881561408003102));
#469=CARTESIAN_POINT('Ctrl Pts',(319.663279790256,35.7486566190627,-0.400780421807998));
#470=CARTESIAN_POINT('Ctrl Pts',(314.275571166707,61.743283982895,-2.89079962416667));
#471=CARTESIAN_POINT('Ctrl Pts',(314.407806855229,61.1249518264864,-2.87033571919152));
#472=CARTESIAN_POINT('Ctrl Pts',(314.673111381465,59.884561762455,-2.81213351679953));
#473=CARTESIAN_POINT('Ctrl Pts',(315.468873474512,56.1641600670308,-2.61020737563274));
#474=CARTESIAN_POINT('Ctrl Pts',(317.192478969004,48.1057426367728,-2.10088349259604));
#475=CARTESIAN_POINT('Ctrl Pts',(318.779650601533,40.6854688707817,-1.3831849398374));
#476=CARTESIAN_POINT('Ctrl Pts',(319.838021558894,35.7372901079448,-0.902327928222089));
#477=CARTESIAN_POINT('Ctrl Pts',(314.277150637333,61.7358995209185,-3.11176734182957));
#478=CARTESIAN_POINT('Ctrl Pts',(314.409967178856,61.1149454589839,-3.09006647286936));
#479=CARTESIAN_POINT('Ctrl Pts',(314.675476418519,59.8736163371774,-3.03139841537484));
#480=CARTESIAN_POINT('Ctrl Pts',(315.47166185796,56.1512292233084,-2.82850313458151));
#481=CARTESIAN_POINT('Ctrl Pts',(317.196095178403,48.0890265594963,-2.31723638803281));
#482=CARTESIAN_POINT('Ctrl Pts',(318.783901834667,40.6655913347218,-1.5979132532577));
#483=CARTESIAN_POINT('Ctrl Pts',(319.842289144286,35.7173379660393,-1.11702391728962));
#484=CARTESIAN_POINT('',(313.314733283847,61.5649649235308,-2.11261786728968));
#485=CARTESIAN_POINT('Ctrl Pts',(314.100807494152,61.2610163434219,-2.40982624869947));
#486=CARTESIAN_POINT('Ctrl Pts',(314.028608252877,61.2889333728609,-2.34267333248695));
#487=CARTESIAN_POINT('Ctrl Pts',(313.947439966692,61.3203184318959,-2.28670861669655));
#488=CARTESIAN_POINT('Ctrl Pts',(313.777337949088,61.3860911872497,-2.1993529975503));
#489=CARTESIAN_POINT('Ctrl Pts',(313.689011066541,61.4202442354642,-2.1672666624219));
#490=CARTESIAN_POINT('Ctrl Pts',(313.505483939906,61.4912080310202,-2.12364003254672));
#491=CARTESIAN_POINT('Ctrl Pts',(313.410068879723,61.5281018403503,-2.1126830867794));
#492=CARTESIAN_POINT('Ctrl Pts',(313.314733283847,61.5649649235308,-2.11261786728968));
#493=CARTESIAN_POINT('',(318.581771655817,37.121311895219,-0.26979442995578));
#494=CARTESIAN_POINT('Ctrl Pts',(313.314733283847,61.5649649235308,-2.11261786728968));
#495=CARTESIAN_POINT('Ctrl Pts',(313.452867412444,60.9577643236912,-2.09152548058617));
#496=CARTESIAN_POINT('Ctrl Pts',(313.720242403422,59.7214344825246,-2.03323534681979));
#497=CARTESIAN_POINT('Ctrl Pts',(314.520391563616,56.0095251294302,-1.83100351007823));
#498=CARTESIAN_POINT('Ctrl Pts',(316.144242548679,48.4705068332819,-1.35334406958075));
#499=CARTESIAN_POINT('Ctrl Pts',(317.630036256529,41.5646882792759,-0.700258286746491));
#500=CARTESIAN_POINT('Ctrl Pts',(318.581641310027,37.121287978398,-0.26975351196728));
#501=CARTESIAN_POINT('Ctrl Pts',(318.581771655818,37.121311895219,-0.26979442995578));
#502=CARTESIAN_POINT('Ctrl Pts',(318.713583239613,37.0778766197895,-0.270508653415507));
#503=CARTESIAN_POINT('Ctrl Pts',(318.839292264687,37.0138100353746,-0.290438028582554));
#504=CARTESIAN_POINT('Ctrl Pts',(319.117903141812,36.8337019477505,-0.367010171383825));
#505=CARTESIAN_POINT('Ctrl Pts',(319.273502897685,36.6974167936813,-0.440120770449875));
#506=CARTESIAN_POINT('Ctrl Pts',(319.519332023852,36.4132614746122,-0.614147330490784));
#507=CARTESIAN_POINT('Ctrl Pts',(319.612799626045,36.2764630845095,-0.704761832782639));
#508=CARTESIAN_POINT('Ctrl Pts',(319.758070693212,36.0003231682742,-0.899597758926157));
#509=CARTESIAN_POINT('Ctrl Pts',(319.81219949615,35.8580153923418,-1.00570197175816));
#510=CARTESIAN_POINT('Ctrl Pts',(319.842289144286,35.7173379660393,-1.11702391728963));
#511=CARTESIAN_POINT('Ctrl Pts',(220.999999999864,97.2599816750953,-2.04946496261554));
#512=CARTESIAN_POINT('Ctrl Pts',(253.527257218515,84.6827802902363,-2.07171699868135));
#513=CARTESIAN_POINT('Ctrl Pts',(286.054514437166,72.1055789053773,-2.09396903474716));
#514=CARTESIAN_POINT('Ctrl Pts',(318.581771655818,59.5283775205182,-2.11622107081297));
#515=CARTESIAN_POINT('Ctrl Pts',(220.999999999864,96.5417489601634,-2.02198677054508));
#516=CARTESIAN_POINT('Ctrl Pts',(253.527257218515,84.0539992437973,-2.04766114128888));
#517=CARTESIAN_POINT('Ctrl Pts',(286.054514437166,71.5657062635136,-2.07331446633553));
#518=CARTESIAN_POINT('Ctrl Pts',(318.581771655818,59.0779565471475,-2.09898883707934));
#519=CARTESIAN_POINT('Ctrl Pts',(220.999999999864,94.6963379161663,-1.93168467936625));
#520=CARTESIAN_POINT('Ctrl Pts',(253.527257218515,82.3683836013824,-1.96472265361889));
#521=CARTESIAN_POINT('Ctrl Pts',(286.054514437167,70.0404359287798,-1.99776153868731));
#522=CARTESIAN_POINT('Ctrl Pts',(318.581771655818,57.7124816139959,-2.03079951293996));
#523=CARTESIAN_POINT('Ctrl Pts',(220.999999999864,90.9277015740971,-1.69898883676494));
#524=CARTESIAN_POINT('Ctrl Pts',(253.527257218515,78.8050691497978,-1.74550535623485));
#525=CARTESIAN_POINT('Ctrl Pts',(286.054514437167,66.6824681039293,-1.7920230976686));
#526=CARTESIAN_POINT('Ctrl Pts',(318.581771655818,54.5598356796299,-1.83853961713852));
#527=CARTESIAN_POINT('Ctrl Pts',(220.999999999864,86.6262713410108,-1.38875804742214));
#528=CARTESIAN_POINT('Ctrl Pts',(253.527257218515,74.7155322995009,-1.45264432482754));
#529=CARTESIAN_POINT('Ctrl Pts',(286.054514437167,62.8044603769509,-1.51651396764104));
#530=CARTESIAN_POINT('Ctrl Pts',(318.581771655818,50.893721335441,-1.58040024504645));
#531=CARTESIAN_POINT('Ctrl Pts',(220.999999999864,82.2152704825339,-1.02293737832296));
#532=CARTESIAN_POINT('Ctrl Pts',(253.527257218515,70.5531327421521,-1.10886526300328));
#533=CARTESIAN_POINT('Ctrl Pts',(286.054514437167,58.891080448183,-1.19479678793568));
#534=CARTESIAN_POINT('Ctrl Pts',(318.581771655818,47.2289427078013,-1.280724672616));
#535=CARTESIAN_POINT('Ctrl Pts',(220.999999999864,77.8621212319587,-0.618720349368035));
#536=CARTESIAN_POINT('Ctrl Pts',(253.527257218515,66.4845038407365,-0.730630654072044));
#537=CARTESIAN_POINT('Ctrl Pts',(286.054514437167,55.1067028435323,-0.84253232179128));
#538=CARTESIAN_POINT('Ctrl Pts',(318.581771655818,43.72908545231,-0.954442626495289));
#539=CARTESIAN_POINT('Ctrl Pts',(220.999999999864,73.5741638412613,-0.189110969085291));
#540=CARTESIAN_POINT('Ctrl Pts',(253.527257218515,62.4980436483808,-0.329387787346562));
#541=CARTESIAN_POINT('Ctrl Pts',(286.054514437167,51.4219623087319,-0.469666334842675));
#542=CARTESIAN_POINT('Ctrl Pts',(318.581771655818,40.3458421158514,-0.609943153103946));
#543=CARTESIAN_POINT('Ctrl Pts',(220.999999999864,70.7140055673148,0.108262638382207));
#544=CARTESIAN_POINT('Ctrl Pts',(253.527257218515,59.8356943592257,-0.0514756366386626));
#545=CARTESIAN_POINT('Ctrl Pts',(286.054514437166,48.9571223472055,-0.211198379570144));
#546=CARTESIAN_POINT('Ctrl Pts',(318.581771655818,38.0788111391164,-0.370936654591014));
#547=CARTESIAN_POINT('Ctrl Pts',(220.999999999864,69.276953956526,0.258737828627965));
#548=CARTESIAN_POINT('Ctrl Pts',(253.527257218515,58.4947883372587,0.0892789719030822));
#549=CARTESIAN_POINT('Ctrl Pts',(286.054514437166,47.7126227179914,-0.0801798848218001));
#550=CARTESIAN_POINT('Ctrl Pts',(318.581771655818,36.930457098724,-0.249638741546682));
#551=CARTESIAN_POINT('',(221.,97.2599816750428,-2.04946496261564));
#552=CARTESIAN_POINT('',(110.,140.179965500757,-1.97352938690135));
#553=CARTESIAN_POINT('',(220.999999999876,69.2769551306947,0.25873770568398));
#554=CARTESIAN_POINT('Ctrl Pts',(221.,97.2599816750428,-2.04946496261564));
#555=CARTESIAN_POINT('Ctrl Pts',(221.,96.5417489601112,-2.02198677054519));
#556=CARTESIAN_POINT('Ctrl Pts',(221.,95.619043438113,-1.97683572495579));
#557=CARTESIAN_POINT('Ctrl Pts',(221.,94.5295846201025,-1.91547756172754));
#558=CARTESIAN_POINT('Ctrl Pts',(221.,93.440125802092,-1.8541193984993));
#559=CARTESIAN_POINT('Ctrl Pts',(221.,92.1839136880692,-1.77655411763222));
#560=CARTESIAN_POINT('Ctrl Pts',(221.,90.8389025922103,-1.68606634564155));
#561=CARTESIAN_POINT('Ctrl Pts',(221.,89.4938914963513,-1.59557857365089));
#562=CARTESIAN_POINT('Ctrl Pts',(221.,88.0600814186562,-1.49216831053665));
#563=CARTESIAN_POINT('Ctrl Pts',(221.,86.6080095700626,-1.37949306746301));
#564=CARTESIAN_POINT('Ctrl Pts',(221.,85.1559377214691,-1.26681782438938));
#565=CARTESIAN_POINT('Ctrl Pts',(221.,83.6856041019771,-1.14487760135635));
#566=CARTESIAN_POINT('Ctrl Pts',(221.,82.2249124171354,-1.01653798501403));
#567=CARTESIAN_POINT('Ctrl Pts',(221.,80.7642207322938,-0.888198368671715));
#568=CARTESIAN_POINT('Ctrl Pts',(221.,79.3131709821025,-0.753459359020109));
#569=CARTESIAN_POINT('Ctrl Pts',(221.,77.8729865418908,-0.614488290813869));
#570=CARTESIAN_POINT('Ctrl Pts',(221.,76.4328021016791,-0.475517222607628));
#571=CARTESIAN_POINT('Ctrl Pts',(221.,75.003482971447,-0.332314095846753));
#572=CARTESIAN_POINT('Ctrl Pts',(221.,73.5737838378446,-0.186369130599461));
#573=CARTESIAN_POINT('Ctrl Pts',(221.,72.1440850936304,-0.0404242051012659));
#574=CARTESIAN_POINT('Ctrl Pts',(221.,70.7140063462527,0.10826255738983));
#575=CARTESIAN_POINT('Ctrl Pts',(221.,69.2769551306531,0.258737705678454));
#576=CARTESIAN_POINT('Ctrl Pts',(318.58177165608,37.1213118959329,-0.269794424538655));
#577=CARTESIAN_POINT('Ctrl Pts',(286.054518427466,47.8398706580656,-0.0935447332021736));
#578=CARTESIAN_POINT('Ctrl Pts',(253.527260363689,58.5584160867961,0.0826163173107444));
#579=CARTESIAN_POINT('Ctrl Pts',(220.999999999864,69.2769551306579,0.258737705683375));
#580=CARTESIAN_POINT('Origin',(110.,140.179965500757,-2.81859939319761));
#581=CARTESIAN_POINT('',(221.,97.2599816750428,-2.7426638163518));
#582=CARTESIAN_POINT('',(110.,140.179965500757,-2.81859939319761));
#583=CARTESIAN_POINT('',(221.,97.2599816750427,1.08851188793246));
#584=CARTESIAN_POINT('Ctrl Pts',(220.999999999949,69.2847236404875,-4.89876252425502));
#585=CARTESIAN_POINT('Ctrl Pts',(253.516350601154,58.4997096403966,-4.73781611606165));
#586=CARTESIAN_POINT('Ctrl Pts',(286.032701202358,47.7146956403058,-4.57686970786828));
#587=CARTESIAN_POINT('Ctrl Pts',(318.549051803562,36.929681640215,-4.41592329967492));
#588=CARTESIAN_POINT('Ctrl Pts',(220.999999999949,70.7248653509932,-4.82182968961296));
#589=CARTESIAN_POINT('Ctrl Pts',(253.516350601154,59.8440664391953,-4.66628921662862));
#590=CARTESIAN_POINT('Ctrl Pts',(286.032701202358,48.9625714761129,-4.51083251921044));
#591=CARTESIAN_POINT('Ctrl Pts',(318.549051803562,38.0817725643151,-4.35529204622611));
#592=CARTESIAN_POINT('Ctrl Pts',(220.999999999949,75.0145732902762,-4.58596164012555));
#593=CARTESIAN_POINT('Ctrl Pts',(253.516350601154,63.8373174005773,-4.44826668632408));
#594=CARTESIAN_POINT('Ctrl Pts',(286.032701202358,52.6604775463539,-4.31052148903684));
#595=CARTESIAN_POINT('Ctrl Pts',(318.549051803562,41.4832216566549,-4.17282653523537));
#596=CARTESIAN_POINT('Ctrl Pts',(220.999999999949,80.7554005062138,-4.22476977013733));
#597=CARTESIAN_POINT('Ctrl Pts',(253.516350601154,69.1752697705323,-4.11468149836613));
#598=CARTESIAN_POINT('Ctrl Pts',(286.032701202358,57.5947972656305,-4.00463106165655));
#599=CARTESIAN_POINT('Ctrl Pts',(318.549051803562,46.014666529949,-3.89454278988535));
#600=CARTESIAN_POINT('Ctrl Pts',(220.999999999949,86.6402077570673,-3.76764405475326));
#601=CARTESIAN_POINT('Ctrl Pts',(253.516350601154,74.7302898290126,-3.68156056193645));
#602=CARTESIAN_POINT('Ctrl Pts',(286.032701202358,62.8205474281754,-3.59545856589639));
#603=CARTESIAN_POINT('Ctrl Pts',(318.549051803562,50.9106295001207,-3.50937507307958));
#604=CARTESIAN_POINT('Ctrl Pts',(220.999999999949,90.9331538571569,-3.39175866798363));
#605=CARTESIAN_POINT('Ctrl Pts',(253.516350601154,78.8124847979618,-3.32232507215635));
#606=CARTESIAN_POINT('Ctrl Pts',(286.032701202358,66.691607933745,-3.25291377953936));
#607=CARTESIAN_POINT('Ctrl Pts',(318.549051803562,54.5709388745499,-3.18348018371207));
#608=CARTESIAN_POINT('Ctrl Pts',(220.999999999949,94.6996277434253,-3.02669863494562));
#609=CARTESIAN_POINT('Ctrl Pts',(253.516350601154,82.3749642714587,-2.97632205468504));
#610=CARTESIAN_POINT('Ctrl Pts',(286.032701202358,70.0503009004717,-2.92594694405674));
#611=CARTESIAN_POINT('Ctrl Pts',(318.549051803562,57.7256374285051,-2.87557036379616));
#612=CARTESIAN_POINT('Ctrl Pts',(220.999999999949,96.542649404806,-2.82712324482494));
#613=CARTESIAN_POINT('Ctrl Pts',(253.516350601154,84.0588334192098,-2.79438008060782));
#614=CARTESIAN_POINT('Ctrl Pts',(286.032701202358,71.5745098090861,-2.76169619783932));
#615=CARTESIAN_POINT('Ctrl Pts',(318.549051803562,59.0906938234898,-2.7289530336222));
#616=CARTESIAN_POINT('Ctrl Pts',(220.999999999949,97.2599816750624,-2.74266381635183));
#617=CARTESIAN_POINT('Ctrl Pts',(253.516350601154,84.6869975140269,-2.72041924121829));
#618=CARTESIAN_POINT('Ctrl Pts',(286.032701202358,72.1140133529913,-2.69817466608474));
#619=CARTESIAN_POINT('Ctrl Pts',(318.549051803562,59.5410291919558,-2.6759300909512));
#620=CARTESIAN_POINT('Ctrl Pts',(221.,69.2847249244107,-4.89876245566627));
#621=CARTESIAN_POINT('Ctrl Pts',(221.,73.5517220366903,-4.67081808938749));
#622=CARTESIAN_POINT('Ctrl Pts',(221.,78.7357231898473,-4.36900764552287));
#623=CARTESIAN_POINT('Ctrl Pts',(221.,89.6381119143076,-3.544765736));
#624=CARTESIAN_POINT('Ctrl Pts',(221.,94.8369047824409,-3.02795934532946));
#625=CARTESIAN_POINT('Ctrl Pts',(221.,97.2599816750428,-2.7426638163518));
#626=CARTESIAN_POINT('Origin',(221.,87.3886839822226,4.99562316906254));
#627=CARTESIAN_POINT('',(221.000000000003,67.6028388178977,-1.16549012999196));
#628=CARTESIAN_POINT('',(221.,67.6028388178999,2.71178389032118));
#629=CARTESIAN_POINT('Ctrl Pts',(221.,69.2769551306131,0.25873770568264));
#630=CARTESIAN_POINT('Ctrl Pts',(221.,68.9979400792302,0.0213693577785597));
#631=CARTESIAN_POINT('Ctrl Pts',(220.999999999972,68.7189160836807,-0.21600623509948));
#632=CARTESIAN_POINT('Ctrl Pts',(220.999999999972,68.1608686681777,-0.69075620162427));
#633=CARTESIAN_POINT('Ctrl Pts',(221.,67.8818538075842,-0.92812329354887));
#634=CARTESIAN_POINT('Ctrl Pts',(221.,67.6028388179,-1.16549012999192));
#635=CARTESIAN_POINT('Origin',(223.739048917818,66.700257383147,0.427944611579818));
#636=CARTESIAN_POINT('Ctrl Pts',(221.000000000003,67.602838817899,-1.16549013005536));
#637=CARTESIAN_POINT('Ctrl Pts',(253.99999967156,56.7285580204143,-1.34385301517295));
#638=CARTESIAN_POINT('Ctrl Pts',(286.999999595071,45.8542771399053,-1.52219508740008));
#639=CARTESIAN_POINT('Ctrl Pts',(320.,34.9799961007572,-1.70050090126504));
#640=CARTESIAN_POINT('',(294.120794068472,43.5078068557956,-1.68681419273976));
#641=CARTESIAN_POINT('',(314.15961408895,36.904541464228,-1.69010104411339));
#642=CARTESIAN_POINT('',(263.922469983858,53.4588692490649,-1.68186093686455));
#643=CARTESIAN_POINT('',(314.159370499,36.9046217328808,-2.89010102070127));
#644=CARTESIAN_POINT('',(314.15976602173,36.9044913987816,-0.941632839526286));
#645=CARTESIAN_POINT('',(294.120681469625,43.50784395978,-2.88681419081335));
#646=CARTESIAN_POINT('',(263.922292434202,53.458927755878,-2.88186092428463));
#647=CARTESIAN_POINT('',(294.120864791638,43.5077835508386,-0.933095994058596));
#648=CARTESIAN_POINT('Origin',(303.498582869413,38.3740434061945,-2.88834049583159));
#649=CARTESIAN_POINT('',(309.791486792792,45.4770762934237,-2.88942611162621));
#650=CARTESIAN_POINT('',(310.645415559527,43.8011467029966,-2.88955805750959));
#651=CARTESIAN_POINT('',(302.58257456617,47.8193938996108,-2.88824348235136));
#652=CARTESIAN_POINT('',(304.52268179862,47.189014837472,-2.88856175888703));
#653=CARTESIAN_POINT('',(296.811406147325,44.8788366785342,-2.88726867894846));
#654=CARTESIAN_POINT('Origin',(294.133849540296,43.5145061890135,-2.28681640647524));
#655=CARTESIAN_POINT('',(302.582773697413,47.8194008860849,-1.68824349889389));
#656=CARTESIAN_POINT('',(302.582674131791,47.8193973928479,-2.28824349062262));
#657=CARTESIAN_POINT('',(296.811605278568,44.8788436650084,-1.68726869549099));
#658=CARTESIAN_POINT('Origin',(303.498782000656,38.3740503926686,-1.68834051237412));
#659=CARTESIAN_POINT('',(309.791685924035,45.4770832798979,-1.68942612816873));
#660=CARTESIAN_POINT('',(304.522880929863,47.1890218239462,-1.68856177542956));
#661=CARTESIAN_POINT('',(310.64561469077,43.8011536894708,-1.68955807405211));
#662=CARTESIAN_POINT('Origin',(309.923220672252,45.2187328960641,-2.28944645953997));
#663=CARTESIAN_POINT('',(309.791586358414,45.4770797866608,-2.28942611989748));
#664=CARTESIAN_POINT('Origin',(302.858432483381,47.7297980716638,-2.28828872905654));
#665=CARTESIAN_POINT('Ctrl Pts',(220.999999999864,69.2769551306579,0.258737705683375));
#666=CARTESIAN_POINT('Ctrl Pts',(254.168171787231,58.3472198766005,0.0791460524167611));
#667=CARTESIAN_POINT('Ctrl Pts',(287.336341183017,47.4174779835827,-0.100486841380285));
#668=CARTESIAN_POINT('Ctrl Pts',(320.504505499281,36.487722084187,-0.280212907014382));
#669=CARTESIAN_POINT('Ctrl Pts',(220.83181453694,68.7743374496957,-0.215095874031736));
#670=CARTESIAN_POINT('Ctrl Pts',(253.999990772504,57.8446133181255,-0.39458101940963));
#671=CARTESIAN_POINT('Ctrl Pts',(287.16816549813,46.9148847327539,-0.574086676456027));
#672=CARTESIAN_POINT('Ctrl Pts',(320.336336999521,35.985146756377,-0.753642238431269));
#673=CARTESIAN_POINT('Ctrl Pts',(220.663629074016,68.2717197687334,-0.688929453746847));
#674=CARTESIAN_POINT('Ctrl Pts',(253.831809757778,57.3420067596505,-0.868308091236022));
#675=CARTESIAN_POINT('Ctrl Pts',(286.999989813243,46.4122914819252,-1.04768651153177));
#676=CARTESIAN_POINT('Ctrl Pts',(320.168168499761,35.4825714285671,-1.22707156984816));
#677=CARTESIAN_POINT('Ctrl Pts',(220.495443611093,67.7691020877712,-1.16276303346196));
#678=CARTESIAN_POINT('Ctrl Pts',(253.663628743052,56.8394002011755,-1.34203516306241));
#679=CARTESIAN_POINT('Ctrl Pts',(286.831814128356,45.9096982310964,-1.52128634660751));
#680=CARTESIAN_POINT('Ctrl Pts',(320.,34.9799961007572,-1.70050090126504));
#681=UNCERTAINTY_MEASURE_WITH_UNIT(LENGTH_MEASURE(0.01),#685,
'DISTANCE_ACCURACY_VALUE',
'Maximum model space distance between geometric entities at asserted c
onnectivities');
#682=UNCERTAINTY_MEASURE_WITH_UNIT(LENGTH_MEASURE(0.01),#685,
'DISTANCE_ACCURACY_VALUE',
'Maximum model space distance between geometric entities at asserted c
onnectivities');
#683=(
GEOMETRIC_REPRESENTATION_CONTEXT(3)
GLOBAL_UNCERTAINTY_ASSIGNED_CONTEXT((#681))
GLOBAL_UNIT_ASSIGNED_CONTEXT((#685,#687,#688))
REPRESENTATION_CONTEXT('','3D')
);
#684=(
GEOMETRIC_REPRESENTATION_CONTEXT(3)
GLOBAL_UNCERTAINTY_ASSIGNED_CONTEXT((#682))
GLOBAL_UNIT_ASSIGNED_CONTEXT((#685,#687,#688))
REPRESENTATION_CONTEXT('','3D')
);
#685=(
LENGTH_UNIT()
NAMED_UNIT(*)
SI_UNIT(.MILLI.,.METRE.)
);
#686=(
LENGTH_UNIT()
NAMED_UNIT(*)
SI_UNIT($,.METRE.)
);
#687=(
NAMED_UNIT(*)
PLANE_ANGLE_UNIT()
SI_UNIT($,.RADIAN.)
);
#688=(
NAMED_UNIT(*)
SI_UNIT($,.STERADIAN.)
SOLID_ANGLE_UNIT()
);
#689=SHAPE_DEFINITION_REPRESENTATION(#690,#691);
#690=PRODUCT_DEFINITION_SHAPE('',$,#693);
#691=SHAPE_REPRESENTATION('',(#275),#683);
#692=PRODUCT_DEFINITION_CONTEXT('part definition',#697,'design');
#693=PRODUCT_DEFINITION('Wing L Aileron 2','Wing L Aileron 2',#694,#692);
#694=PRODUCT_DEFINITION_FORMATION('',$,#699);
#695=PRODUCT_RELATED_PRODUCT_CATEGORY('Wing L Aileron 2',
'Wing L Aileron 2',(#699));
#696=APPLICATION_PROTOCOL_DEFINITION('international standard',
'automotive_design',2009,#697);
#697=APPLICATION_CONTEXT(
'Core Data for Automotive Mechanical Design Process');
#698=PRODUCT_CONTEXT('part definition',#697,'mechanical');
#699=PRODUCT('Wing L Aileron 2','Wing L Aileron 2',$,(#698));
#700=PRESENTATION_STYLE_ASSIGNMENT((#702));
#701=PRESENTATION_STYLE_ASSIGNMENT((#703));
#702=SURFACE_STYLE_USAGE(.BOTH.,#704);
#703=SURFACE_STYLE_USAGE(.BOTH.,#705);
#704=SURFACE_SIDE_STYLE('',(#706));
#705=SURFACE_SIDE_STYLE('',(#707));
#706=SURFACE_STYLE_FILL_AREA(#708);
#707=SURFACE_STYLE_FILL_AREA(#709);
#708=FILL_AREA_STYLE('Steel - Satin',(#710));
#709=FILL_AREA_STYLE('Paint - Enamel Glossy Bleu',(#711));
#710=FILL_AREA_STYLE_COLOUR('Steel - Satin',#712);
#711=FILL_AREA_STYLE_COLOUR('Paint - Enamel Glossy Bleu',#713);
#712=COLOUR_RGB('Steel - Satin',0.627450980392157,0.627450980392157,0.627450980392157);
#713=COLOUR_RGB('Paint - Enamel Glossy Bleu',0.525490196078431,0.823529411764706,
0.972549019607843);
ENDSEC;
END-ISO-10303-21;
